#VRML V2.0 utf8

Shape {
  appearance Appearance {
    material Material {
      diffuseColor 0.1961 0.1961 0.1961
      specularColor 0.0980 0.0980 0.0980
      ambientIntensity 0.2
      transparency 0.0000
      shininess 0.5
    }
  }
  geometry IndexedFaceSet {
    ccw TRUE
    solid FALSE
    coord DEF co Coordinate {
      point [
        -0.096911 0.035332 0.000000,
        -0.078235 0.035332 0.000000,
        -0.078235 0.023218 0.000000,
        -0.096911 0.023218 0.000000,
        -0.096911 0.019180 0.000000,
        -0.100444 -0.000505 0.000000,
        -0.096911 0.039370 0.000000,
        -0.100444 0.224743 0.000000,
        -0.074702 0.039370 0.000000,
        -0.005048 0.000000 0.000000,
        -0.046685 -0.000505 0.000000,
        -0.023723 0.000000 0.000000,
        -0.040579 0.000591 0.000000,
        -0.036748 0.002685 0.000000,
        -0.034506 0.004547 0.000000,
        -0.033258 0.005876 0.000000,
        -0.023723 0.004038 0.000000,
        -0.029465 0.012428 0.000000,
        -0.028266 0.019914 0.000000,
        -0.008581 0.004038 0.000000,
        -0.008581 0.039370 0.000000,
        -0.078235 0.019180 0.000000,
        -0.078235 0.004038 0.000000,
        -0.096911 0.004038 0.000000,
        -0.096911 0.000000 0.000000,
        -0.074702 0.000000 0.000000,
        -0.040500 0.034183 0.000000,
        -0.034402 0.028685 0.000000,
        -0.049228 0.036342 0.000000,
        -0.031862 0.021232 0.000000,
        -0.031799 0.019646 0.000000,
        -0.033838 0.011532 0.000000,
        -0.039266 0.005844 0.000000,
        -0.046993 0.003157 0.000000,
        -0.030801 0.029973 0.000000,
        -0.037535 0.037071 0.000000,
        -0.047708 0.040318 0.000000,
        -0.066626 0.007248 0.000000,
        -0.066626 0.032146 0.000000,
        -0.063535 0.009590 0.000000,
        -0.063535 0.029780 0.000000,
        -0.057253 0.004696 0.000000,
        -0.057153 0.034720 0.000000,
        -0.049473 0.003028 0.000000,
        -0.053437 0.035921 0.000000,
        -0.050857 0.036280 0.000000,
        -0.049449 0.040380 0.000000,
        -0.059057 0.038357 0.000000,
        -0.063089 0.035864 0.000000,
        -0.059076 0.001035 0.000000,
        -0.065387 0.033689 0.000000,
        -0.054467 -0.000505 0.000000,
        -0.051470 -0.000937 0.000000,
        -0.100444 -0.224743 0.000000,
        -0.049496 -0.001009 0.000000,
        -0.005048 0.039370 0.000000,
        0.395160 0.224743 0.000000,
        0.395160 -0.000505 0.000000,
        0.395160 -0.224743 0.000000,
        -0.395160 -0.224743 0.000000,
        -0.395160 -0.000505 0.000000,
        -0.054596 -0.000486 0.000000,
        -0.145185 0.000000 0.000000,
        -0.141328 0.000000 0.000000,
        -0.174839 0.000000 0.000000,
        -0.169019 0.012619 0.000000,
        -0.151171 0.012619 0.000000,
        -0.124420 0.037950 0.000000,
        -0.131515 0.033177 0.000000,
        -0.160004 0.039370 0.000000,
        -0.128357 0.002755 0.000000,
        -0.120431 0.000218 0.000000,
        -0.116178 0.000000 0.000000,
        -0.118234 0.039129 0.000000,
        -0.395160 0.224743 0.000000,
        -0.160509 0.039370 0.000000,
        -0.178680 0.000000 0.000000,
        -0.135542 0.025382 0.000000,
        -0.136281 0.019188 0.000000,
        -0.134060 0.009285 0.000000,
        -0.103978 0.000000 0.000000,
        -0.103978 0.039370 0.000000,
        -0.111927 0.039370 0.000000,
        -0.314961 -0.246063 0.177165,
        -0.314961 -0.246063 0.216535,
        -0.413386 -0.246063 0.177165,
        -0.413386 -0.246063 0.216535,
        0.196850 -0.246063 0.177165,
        0.196850 -0.246063 0.216535,
        -0.196850 -0.246063 0.177165,
        -0.196850 -0.246063 0.216535,
        0.413386 -0.246063 0.177165,
        0.413386 -0.246063 0.216535,
        0.314961 -0.246063 0.177165,
        0.314961 -0.246063 0.216535,
        -0.059055 0.246063 0.216535,
        -0.059055 0.246063 0.177165,
        -0.413386 0.246063 0.216535,
        -0.413386 0.246063 0.177165,
        0.413386 0.246063 0.216535,
        0.413386 0.246063 0.177165,
        0.059055 0.246063 0.216535,
        0.059055 0.246063 0.177165,
        -0.389120 0.224743 0.354331,
        -0.389120 -0.224743 0.354331,
        0.389120 0.224743 0.354331,
        0.389120 -0.224743 0.354331,
      ]
    }
    coordIndex [
      0, 1, 2, -1,
      3, 4, 5, -1,
      2, 3, 0, -1,
      0, 3, 5, -1,
      0, 5, 6, -1,
      6, 5, 7, -1,
      6, 7, 8, -1,
      9, 10, 11, -1,
      11, 10, 12, -1,
      11, 12, 13, -1,
      13, 14, 11, -1,
      11, 14, 15, -1,
      11, 15, 16, -1,
      15, 17, 16, -1,
      16, 17, 18, -1,
      16, 18, 19, -1,
      19, 18, 20, -1,
      21, 22, 4, -1,
      4, 22, 23, -1,
      4, 23, 5, -1,
      5, 23, 24, -1,
      5, 24, 25, -1,
      26, 27, 28, -1,
      28, 27, 29, -1,
      28, 29, 30, -1,
      30, 31, 28, -1,
      28, 31, 32, -1,
      28, 32, 33, -1,
      34, 35, 7, -1,
      7, 35, 36, -1,
      37, 38, 39, -1,
      39, 38, 40, -1,
      39, 40, 41, -1,
      41, 40, 42, -1,
      41, 42, 43, -1,
      43, 42, 44, -1,
      43, 44, 33, -1,
      33, 44, 45, -1,
      33, 45, 28, -1,
      36, 46, 7, -1,
      7, 46, 47, -1,
      7, 47, 48, -1,
      49, 25, 37, -1,
      37, 25, 8, -1,
      37, 8, 38, -1,
      38, 8, 7, -1,
      38, 7, 50, -1,
      50, 7, 48, -1,
      51, 52, 53, -1,
      53, 52, 54, -1,
      53, 54, 10, -1,
      18, 34, 20, -1,
      20, 34, 7, -1,
      20, 7, 55, -1,
      55, 7, 56, -1,
      55, 56, 9, -1,
      9, 56, 57, -1,
      9, 57, 10, -1,
      10, 57, 58, -1,
      10, 58, 53, -1,
      59, 60, 53, -1,
      53, 60, 5, -1,
      53, 5, 51, -1,
      51, 5, 25, -1,
      51, 25, 61, -1,
      61, 25, 49, -1,
      62, 63, 5, -1,
      64, 65, 66, -1,
      67, 68, 69, -1,
      70, 71, 63, -1,
      63, 71, 72, -1,
      63, 72, 5, -1,
      73, 67, 7, -1,
      7, 67, 69, -1,
      7, 69, 74, -1,
      74, 69, 75, -1,
      74, 75, 60, -1,
      60, 75, 76, -1,
      60, 76, 5, -1,
      5, 76, 64, -1,
      5, 64, 62, -1,
      62, 64, 66, -1,
      68, 77, 69, -1,
      69, 77, 78, -1,
      69, 78, 63, -1,
      63, 78, 79, -1,
      63, 79, 70, -1,
      72, 80, 5, -1,
      5, 80, 81, -1,
      5, 81, 7, -1,
      7, 81, 82, -1,
      7, 82, 73, -1,
      83, 84, 85, -1,
      85, 84, 86, -1,
      87, 88, 89, -1,
      89, 88, 90, -1,
      91, 92, 93, -1,
      93, 92, 94, -1,
      95, 96, 97, -1,
      97, 96, 98, -1,
      99, 100, 101, -1,
      101, 100, 102, -1,
      92, 91, 99, -1,
      99, 91, 100, -1,
      85, 86, 98, -1,
      98, 86, 97, -1,
      103, 104, 105, -1,
      105, 104, 106, -1,
    ]
  }
}

Shape {
  appearance Appearance {
    material Material {
      diffuseColor 0.7961 0.8235 0.9373
      specularColor 0.3961 0.4118 0.4667
      ambientIntensity 0.2
      transparency 0.0000
      shininess 0.5
    }
  }
  geometry IndexedFaceSet {
    ccw TRUE
    solid FALSE
    coord DEF co Coordinate {
      point [
        -0.314961 -0.246063 0.177165,
        -0.314961 -0.246063 0.216535,
        0.196850 -0.246063 0.177165,
        0.196850 -0.246063 0.216535,
        -0.196850 -0.246063 0.177165,
        -0.196850 -0.246063 0.216535,
        0.314961 -0.246063 0.177165,
        0.314961 -0.246063 0.216535,
        -0.059055 0.246063 0.216535,
        -0.059055 0.246063 0.177165,
        0.059055 0.246063 0.216535,
        0.059055 0.246063 0.177165,
        -0.059055 0.260325 0.216535,
        0.059055 0.260325 0.216535,
        0.059055 0.286879 0.210229,
        -0.059055 0.286879 0.210229,
        0.059055 0.307761 0.192656,
        -0.059055 0.307761 0.192656,
        0.059055 0.318511 0.167570,
        -0.059055 0.318511 0.167570,
        -0.059055 0.341324 0.036007,
        0.059055 0.341324 0.036007,
        -0.059055 0.344908 0.027645,
        0.059055 0.344908 0.027645,
        -0.059055 0.351869 0.021787,
        0.059055 0.351869 0.021787,
        -0.059055 0.360720 0.019685,
        0.059055 0.360720 0.019685,
        -0.059055 0.452756 0.019685,
        0.059055 0.452756 0.019685,
        -0.059055 0.452756 -0.019685,
        0.059055 0.452756 -0.019685,
        -0.059055 0.360720 -0.019685,
        0.059055 0.360720 -0.019685,
        0.059055 0.334166 -0.013378,
        -0.059055 0.334166 -0.013378,
        0.059055 0.313284 0.004194,
        -0.059055 0.313284 0.004194,
        0.059055 0.302533 0.029281,
        -0.059055 0.302533 0.029281,
        -0.059055 0.279720 0.160843,
        0.059055 0.279720 0.160843,
        -0.059055 0.276137 0.169206,
        0.059055 0.276137 0.169206,
        -0.059055 0.269176 0.175063,
        0.059055 0.269176 0.175063,
        -0.059055 0.260325 0.177165,
        0.059055 0.260325 0.177165,
        -0.314961 -0.260325 0.177165,
        -0.196850 -0.260325 0.177165,
        -0.314961 -0.269176 0.175063,
        -0.196850 -0.269176 0.175063,
        -0.314961 -0.276137 0.169206,
        -0.196850 -0.276137 0.169206,
        -0.314961 -0.279720 0.160843,
        -0.196850 -0.279720 0.160843,
        -0.314961 -0.302533 0.029281,
        -0.196850 -0.302533 0.029281,
        -0.196850 -0.313284 0.004194,
        -0.314961 -0.313284 0.004194,
        -0.196850 -0.334166 -0.013378,
        -0.314961 -0.334166 -0.013378,
        -0.196850 -0.360720 -0.019685,
        -0.314961 -0.360720 -0.019685,
        -0.314961 -0.452756 -0.019685,
        -0.196850 -0.452756 -0.019685,
        -0.314961 -0.452756 0.019685,
        -0.196850 -0.452756 0.019685,
        -0.314961 -0.360720 0.019685,
        -0.196850 -0.360720 0.019685,
        -0.314961 -0.351869 0.021787,
        -0.196850 -0.351869 0.021787,
        -0.314961 -0.344908 0.027645,
        -0.196850 -0.344908 0.027645,
        -0.314961 -0.341324 0.036007,
        -0.196850 -0.341324 0.036007,
        -0.314961 -0.318511 0.167570,
        -0.196850 -0.318511 0.167570,
        -0.196850 -0.307761 0.192656,
        -0.314961 -0.307761 0.192656,
        -0.196850 -0.286879 0.210229,
        -0.314961 -0.286879 0.210229,
        -0.196850 -0.260325 0.216535,
        -0.314961 -0.260325 0.216535,
        0.196850 -0.260325 0.177165,
        0.314961 -0.260325 0.177165,
        0.196850 -0.269176 0.175063,
        0.314961 -0.269176 0.175063,
        0.196850 -0.276137 0.169206,
        0.314961 -0.276137 0.169206,
        0.196850 -0.279720 0.160843,
        0.314961 -0.279720 0.160843,
        0.196850 -0.302533 0.029281,
        0.314961 -0.302533 0.029281,
        0.314961 -0.313284 0.004194,
        0.196850 -0.313284 0.004194,
        0.314961 -0.334166 -0.013378,
        0.196850 -0.334166 -0.013378,
        0.314961 -0.360720 -0.019685,
        0.196850 -0.360720 -0.019685,
        0.196850 -0.452756 -0.019685,
        0.314961 -0.452756 -0.019685,
        0.196850 -0.452756 0.019685,
        0.314961 -0.452756 0.019685,
        0.196850 -0.360720 0.019685,
        0.314961 -0.360720 0.019685,
        0.196850 -0.351869 0.021787,
        0.314961 -0.351869 0.021787,
        0.196850 -0.344908 0.027645,
        0.314961 -0.344908 0.027645,
        0.196850 -0.341324 0.036007,
        0.314961 -0.341324 0.036007,
        0.196850 -0.318511 0.167570,
        0.314961 -0.318511 0.167570,
        0.314961 -0.307761 0.192656,
        0.196850 -0.307761 0.192656,
        0.314961 -0.286879 0.210229,
        0.196850 -0.286879 0.210229,
        0.314961 -0.260325 0.216535,
        0.196850 -0.260325 0.216535,
      ]
    }
    coordIndex [
      12, 8, 13, -1,
      13, 8, 10, -1,
      12, 13, 14, -1,
      12, 14, 15, -1,
      15, 14, 16, -1,
      15, 16, 17, -1,
      17, 16, 18, -1,
      17, 18, 19, -1,
      20, 19, 21, -1,
      21, 19, 18, -1,
      20, 21, 22, -1,
      22, 21, 23, -1,
      22, 23, 24, -1,
      24, 23, 25, -1,
      24, 25, 26, -1,
      26, 25, 27, -1,
      28, 26, 29, -1,
      29, 26, 27, -1,
      30, 28, 31, -1,
      31, 28, 29, -1,
      32, 30, 33, -1,
      33, 30, 31, -1,
      32, 33, 34, -1,
      32, 34, 35, -1,
      35, 34, 36, -1,
      35, 36, 37, -1,
      37, 36, 38, -1,
      37, 38, 39, -1,
      40, 39, 41, -1,
      41, 39, 38, -1,
      40, 41, 42, -1,
      42, 41, 43, -1,
      42, 43, 44, -1,
      44, 43, 45, -1,
      44, 45, 46, -1,
      46, 45, 47, -1,
      9, 46, 11, -1,
      11, 46, 47, -1,
      28, 30, 26, -1,
      26, 30, 32, -1,
      26, 32, 24, -1,
      24, 32, 35, -1,
      24, 35, 22, -1,
      22, 35, 37, -1,
      22, 37, 20, -1,
      20, 37, 39, -1,
      20, 39, 19, -1,
      19, 39, 40, -1,
      19, 40, 17, -1,
      17, 40, 42, -1,
      17, 42, 15, -1,
      15, 42, 44, -1,
      15, 44, 12, -1,
      12, 44, 46, -1,
      12, 46, 8, -1,
      8, 46, 9, -1,
      31, 29, 33, -1,
      33, 29, 27, -1,
      33, 27, 34, -1,
      34, 27, 25, -1,
      34, 25, 36, -1,
      36, 25, 23, -1,
      36, 23, 38, -1,
      38, 23, 21, -1,
      38, 21, 41, -1,
      41, 21, 18, -1,
      41, 18, 43, -1,
      43, 18, 16, -1,
      43, 16, 45, -1,
      45, 16, 14, -1,
      45, 14, 47, -1,
      47, 14, 13, -1,
      47, 13, 11, -1,
      11, 13, 10, -1,
      48, 49, 50, -1,
      50, 49, 51, -1,
      50, 51, 52, -1,
      52, 51, 53, -1,
      52, 53, 54, -1,
      54, 53, 55, -1,
      56, 54, 57, -1,
      57, 54, 55, -1,
      56, 57, 58, -1,
      56, 58, 59, -1,
      59, 58, 60, -1,
      59, 60, 61, -1,
      61, 60, 62, -1,
      61, 62, 63, -1,
      64, 63, 65, -1,
      65, 63, 62, -1,
      66, 64, 67, -1,
      67, 64, 65, -1,
      68, 66, 69, -1,
      69, 66, 67, -1,
      68, 69, 70, -1,
      70, 69, 71, -1,
      70, 71, 72, -1,
      72, 71, 73, -1,
      72, 73, 74, -1,
      74, 73, 75, -1,
      76, 74, 77, -1,
      77, 74, 75, -1,
      76, 77, 78, -1,
      76, 78, 79, -1,
      79, 78, 80, -1,
      79, 80, 81, -1,
      81, 80, 82, -1,
      81, 82, 83, -1,
      1, 83, 5, -1,
      5, 83, 82, -1,
      48, 0, 49, -1,
      49, 0, 4, -1,
      1, 0, 83, -1,
      83, 0, 48, -1,
      83, 48, 81, -1,
      81, 48, 50, -1,
      81, 50, 79, -1,
      79, 50, 52, -1,
      79, 52, 76, -1,
      76, 52, 54, -1,
      76, 54, 74, -1,
      74, 54, 56, -1,
      74, 56, 72, -1,
      72, 56, 59, -1,
      72, 59, 70, -1,
      70, 59, 61, -1,
      70, 61, 68, -1,
      68, 61, 63, -1,
      68, 63, 66, -1,
      66, 63, 64, -1,
      67, 65, 69, -1,
      69, 65, 62, -1,
      69, 62, 71, -1,
      71, 62, 60, -1,
      71, 60, 73, -1,
      73, 60, 58, -1,
      73, 58, 75, -1,
      75, 58, 57, -1,
      75, 57, 77, -1,
      77, 57, 55, -1,
      77, 55, 78, -1,
      78, 55, 53, -1,
      78, 53, 80, -1,
      80, 53, 51, -1,
      80, 51, 82, -1,
      82, 51, 49, -1,
      82, 49, 5, -1,
      5, 49, 4, -1,
      84, 85, 86, -1,
      86, 85, 87, -1,
      86, 87, 88, -1,
      88, 87, 89, -1,
      88, 89, 90, -1,
      90, 89, 91, -1,
      92, 90, 93, -1,
      93, 90, 91, -1,
      92, 93, 94, -1,
      92, 94, 95, -1,
      95, 94, 96, -1,
      95, 96, 97, -1,
      97, 96, 98, -1,
      97, 98, 99, -1,
      100, 99, 101, -1,
      101, 99, 98, -1,
      102, 100, 103, -1,
      103, 100, 101, -1,
      104, 102, 105, -1,
      105, 102, 103, -1,
      104, 105, 106, -1,
      106, 105, 107, -1,
      106, 107, 108, -1,
      108, 107, 109, -1,
      108, 109, 110, -1,
      110, 109, 111, -1,
      112, 110, 113, -1,
      113, 110, 111, -1,
      112, 113, 114, -1,
      112, 114, 115, -1,
      115, 114, 116, -1,
      115, 116, 117, -1,
      117, 116, 118, -1,
      117, 118, 119, -1,
      3, 119, 7, -1,
      7, 119, 118, -1,
      84, 2, 85, -1,
      85, 2, 6, -1,
      3, 2, 119, -1,
      119, 2, 84, -1,
      119, 84, 117, -1,
      117, 84, 86, -1,
      117, 86, 115, -1,
      115, 86, 88, -1,
      115, 88, 112, -1,
      112, 88, 90, -1,
      112, 90, 110, -1,
      110, 90, 92, -1,
      110, 92, 108, -1,
      108, 92, 95, -1,
      108, 95, 106, -1,
      106, 95, 97, -1,
      106, 97, 104, -1,
      104, 97, 99, -1,
      104, 99, 102, -1,
      102, 99, 100, -1,
      103, 101, 105, -1,
      105, 101, 98, -1,
      105, 98, 107, -1,
      107, 98, 96, -1,
      107, 96, 109, -1,
      109, 96, 94, -1,
      109, 94, 111, -1,
      111, 94, 93, -1,
      111, 93, 113, -1,
      113, 93, 91, -1,
      113, 91, 114, -1,
      114, 91, 89, -1,
      114, 89, 116, -1,
      116, 89, 87, -1,
      116, 87, 118, -1,
      118, 87, 85, -1,
      118, 85, 7, -1,
      7, 85, 6, -1,
    ]
  }
}

Shape {
  appearance Appearance {
    material Material {
      diffuseColor 0.1961 0.1961 0.1961
      specularColor 0.0980 0.0980 0.0980
      ambientIntensity 0.2
      transparency 0.0000
      shininess 0.5
    }
  }
  geometry IndexedFaceSet {
    ccw TRUE
    solid FALSE
    coord DEF co Coordinate {
      point [
        -0.100444 0.224743 0.000000,
        -0.100444 -0.224743 0.000000,
        0.395160 0.224743 0.000000,
        0.395160 -0.000505 0.000000,
        0.395160 -0.224743 0.000000,
        -0.395160 -0.224743 0.000000,
        -0.395160 -0.000505 0.000000,
        -0.395160 0.224743 0.000000,
        -0.314961 -0.246063 0.177165,
        -0.314961 -0.246063 0.216535,
        -0.413386 -0.246063 0.177165,
        -0.413386 -0.246063 0.216535,
        0.196850 -0.246063 0.177165,
        0.196850 -0.246063 0.216535,
        -0.196850 -0.246063 0.177165,
        -0.196850 -0.246063 0.216535,
        0.413386 -0.246063 0.177165,
        0.413386 -0.246063 0.216535,
        0.314961 -0.246063 0.177165,
        0.314961 -0.246063 0.216535,
        -0.059055 0.246063 0.216535,
        -0.059055 0.246063 0.177165,
        -0.413386 0.246063 0.216535,
        -0.413386 0.246063 0.177165,
        0.413386 0.246063 0.216535,
        0.413386 0.246063 0.177165,
        0.059055 0.246063 0.216535,
        0.059055 0.246063 0.177165,
        -0.389120 0.224743 0.354331,
        -0.389120 -0.224743 0.354331,
        0.389120 0.224743 0.354331,
        0.389120 -0.224743 0.354331,
      ]
    }
    coordIndex [
      10, 5, 8, -1,
      8, 5, 1, -1,
      16, 18, 4, -1,
      4, 18, 12, -1,
      4, 12, 1, -1,
      1, 12, 14, -1,
      1, 14, 8, -1,
      19, 17, 31, -1,
      11, 9, 29, -1,
      29, 9, 15, -1,
      29, 15, 31, -1,
      31, 15, 13, -1,
      31, 13, 19, -1,
      0, 7, 23, -1,
      25, 2, 27, -1,
      27, 2, 0, -1,
      27, 0, 21, -1,
      21, 0, 23, -1,
      30, 24, 26, -1,
      30, 26, 28, -1,
      28, 26, 20, -1,
      28, 20, 22, -1,
      28, 22, 29, -1,
      29, 22, 11, -1,
      24, 30, 17, -1,
      17, 30, 31, -1,
      23, 7, 10, -1,
      10, 7, 6, -1,
      10, 6, 5, -1,
      2, 25, 3, -1,
      3, 25, 16, -1,
      3, 16, 4, -1,
    ]
  }
}

Shape {
  appearance Appearance {
    material Material {
      diffuseColor 0.7529 0.7529 0.7529
      specularColor 0.3765 0.3765 0.3765
      ambientIntensity 0.2
      transparency 0.0000
      shininess 0.5
    }
  }
  geometry IndexedFaceSet {
    ccw TRUE
    solid FALSE
    coord DEF co Coordinate {
      point [
        -0.096911 0.035332 0.000000,
        -0.078235 0.035332 0.000000,
        -0.078235 0.023218 0.000000,
        -0.096911 0.023218 0.000000,
        -0.096911 0.019180 0.000000,
        -0.096911 0.039370 0.000000,
        -0.074702 0.039370 0.000000,
        -0.005048 0.000000 0.000000,
        -0.046685 -0.000505 0.000000,
        -0.023723 0.000000 0.000000,
        -0.040579 0.000591 0.000000,
        -0.036748 0.002685 0.000000,
        -0.034506 0.004547 0.000000,
        -0.033258 0.005876 0.000000,
        -0.023723 0.004038 0.000000,
        -0.029465 0.012428 0.000000,
        -0.028266 0.019914 0.000000,
        -0.008581 0.004038 0.000000,
        -0.008581 0.039370 0.000000,
        -0.078235 0.019180 0.000000,
        -0.078235 0.004038 0.000000,
        -0.096911 0.004038 0.000000,
        -0.096911 0.000000 0.000000,
        -0.074702 0.000000 0.000000,
        -0.040500 0.034183 0.000000,
        -0.034402 0.028685 0.000000,
        -0.049228 0.036342 0.000000,
        -0.031862 0.021232 0.000000,
        -0.031799 0.019646 0.000000,
        -0.033838 0.011532 0.000000,
        -0.039266 0.005844 0.000000,
        -0.046993 0.003157 0.000000,
        -0.030801 0.029973 0.000000,
        -0.037535 0.037071 0.000000,
        -0.047708 0.040318 0.000000,
        -0.066626 0.007248 0.000000,
        -0.066626 0.032146 0.000000,
        -0.063535 0.009590 0.000000,
        -0.063535 0.029780 0.000000,
        -0.057253 0.004696 0.000000,
        -0.057153 0.034720 0.000000,
        -0.049473 0.003028 0.000000,
        -0.053437 0.035921 0.000000,
        -0.050857 0.036280 0.000000,
        -0.049449 0.040380 0.000000,
        -0.059057 0.038357 0.000000,
        -0.063089 0.035864 0.000000,
        -0.059076 0.001035 0.000000,
        -0.065387 0.033689 0.000000,
        -0.054467 -0.000505 0.000000,
        -0.051470 -0.000937 0.000000,
        -0.049496 -0.001009 0.000000,
        -0.005048 0.039370 0.000000,
        -0.054596 -0.000486 0.000000,
        -0.145185 0.000000 0.000000,
        -0.141328 0.000000 0.000000,
        -0.174839 0.000000 0.000000,
        -0.169019 0.012619 0.000000,
        -0.151171 0.012619 0.000000,
        -0.124420 0.037950 0.000000,
        -0.131515 0.033177 0.000000,
        -0.160004 0.039370 0.000000,
        -0.128357 0.002755 0.000000,
        -0.120431 0.000218 0.000000,
        -0.116178 0.000000 0.000000,
        -0.118234 0.039129 0.000000,
        -0.160509 0.039370 0.000000,
        -0.178680 0.000000 0.000000,
        -0.135542 0.025382 0.000000,
        -0.136281 0.019188 0.000000,
        -0.134060 0.009285 0.000000,
        -0.103978 0.000000 0.000000,
        -0.103978 0.039370 0.000000,
        -0.111927 0.039370 0.000000,
        -0.160004 0.039370 0.007874,
        -0.160509 0.039370 0.007874,
        -0.178680 0.000000 0.007874,
        -0.174839 0.000000 0.007874,
        -0.169019 0.012619 0.007874,
        -0.151171 0.012619 0.007874,
        -0.145185 -0.000000 0.007874,
        -0.141328 0.000000 0.007874,
        -0.167157 0.016657 0.007874,
        -0.153087 0.016657 0.007874,
        -0.160217 0.031696 0.007874,
        -0.167157 0.016657 0.000000,
        -0.160217 0.031696 0.000000,
        -0.153087 0.016657 0.000000,
        -0.116178 0.000000 0.007874,
        -0.103978 0.000000 0.007874,
        -0.103978 0.039370 0.007874,
        -0.111927 0.039370 0.007874,
        -0.124420 0.037950 0.007874,
        -0.118234 0.039129 0.007874,
        -0.136281 0.019188 0.007874,
        -0.135542 0.025382 0.007874,
        -0.131515 0.033177 0.007874,
        -0.120431 0.000218 0.007874,
        -0.128357 0.002755 0.007874,
        -0.134060 0.009285 0.007874,
        -0.132124 0.014294 0.007874,
        -0.128909 0.008531 0.007874,
        -0.123284 0.005039 0.007874,
        -0.117693 0.004197 0.007874,
        -0.112030 0.004038 0.007874,
        -0.107511 0.004038 0.007874,
        -0.107511 0.035332 0.007874,
        -0.110279 0.035332 0.007874,
        -0.116366 0.035147 0.007874,
        -0.122377 0.034228 0.007874,
        -0.126731 0.032130 0.007874,
        -0.131024 0.027058 0.007874,
        -0.132748 0.019196 0.007874,
        -0.107511 0.035332 0.000000,
        -0.107511 0.004038 0.000000,
        -0.110279 0.035332 0.000000,
        -0.116366 0.035147 0.000000,
        -0.122377 0.034228 0.000000,
        -0.126731 0.032130 0.000000,
        -0.131024 0.027058 0.000000,
        -0.132748 0.019196 0.000000,
        -0.132124 0.014294 0.000000,
        -0.128909 0.008531 0.000000,
        -0.123284 0.005039 0.000000,
        -0.117693 0.004197 0.000000,
        -0.112030 0.004038 0.000000,
        -0.074702 0.000000 0.007874,
        -0.074702 0.039370 0.007874,
        -0.096911 0.039370 0.007874,
        -0.096911 0.035332 0.007874,
        -0.078235 0.035332 0.007874,
        -0.078235 0.023218 0.007874,
        -0.096911 0.023218 0.007874,
        -0.096911 0.019180 0.007874,
        -0.078235 0.019180 0.007874,
        -0.078235 0.004038 0.007874,
        -0.096911 0.004038 0.007874,
        -0.096911 0.000000 0.007874,
        -0.066626 0.032146 0.007874,
        -0.065387 0.033689 0.007874,
        -0.063089 0.035864 0.007874,
        -0.059057 0.038357 0.007874,
        -0.049449 0.040380 0.007874,
        -0.063535 0.029780 0.007874,
        -0.049228 0.036342 0.007874,
        -0.050857 0.036280 0.007874,
        -0.053437 0.035921 0.007874,
        -0.057153 0.034720 0.007874,
        -0.031799 0.019646 0.007874,
        -0.031862 0.021232 0.007874,
        -0.034402 0.028685 0.007874,
        -0.040500 0.034183 0.007874,
        -0.049473 0.003028 0.007874,
        -0.046993 0.003157 0.007874,
        -0.039266 0.005844 0.007874,
        -0.033838 0.011532 0.007874,
        -0.063535 0.009590 0.007874,
        -0.057253 0.004696 0.007874,
        -0.066626 0.007248 0.007874,
        -0.049496 -0.001009 0.007874,
        -0.051470 -0.000937 0.007874,
        -0.054596 -0.000486 0.007874,
        -0.059076 0.001035 0.007874,
        -0.040579 0.000591 0.007874,
        -0.036748 0.002685 0.007874,
        -0.034506 0.004547 0.007874,
        -0.033258 0.005876 0.007874,
        -0.028266 0.019914 0.007874,
        -0.029465 0.012428 0.007874,
        -0.047708 0.040318 0.007874,
        -0.037535 0.037071 0.007874,
        -0.030801 0.029973 0.007874,
        -0.005048 0.000000 0.007874,
        -0.005048 0.039370 0.007874,
        -0.008581 0.039370 0.007874,
        -0.008581 0.004038 0.007874,
        -0.023723 0.004038 0.007874,
        -0.023723 0.000000 0.007874,
      ]
    }
    coordIndex [
      74, 75, 61, -1,
      61, 75, 66, -1,
      75, 76, 66, -1,
      66, 76, 67, -1,
      76, 77, 67, -1,
      67, 77, 56, -1,
      77, 78, 56, -1,
      56, 78, 57, -1,
      78, 79, 57, -1,
      57, 79, 58, -1,
      79, 80, 58, -1,
      58, 80, 54, -1,
      80, 81, 54, -1,
      54, 81, 55, -1,
      81, 74, 55, -1,
      55, 74, 61, -1,
      82, 76, 75, -1,
      74, 83, 75, -1,
      75, 83, 84, -1,
      75, 84, 82, -1,
      81, 80, 79, -1,
      77, 76, 78, -1,
      78, 76, 82, -1,
      78, 82, 79, -1,
      79, 82, 83, -1,
      79, 83, 81, -1,
      81, 83, 74, -1,
      82, 84, 85, -1,
      85, 84, 86, -1,
      83, 82, 87, -1,
      87, 82, 85, -1,
      84, 83, 86, -1,
      86, 83, 87, -1,
      88, 89, 64, -1,
      64, 89, 71, -1,
      89, 90, 71, -1,
      71, 90, 72, -1,
      90, 91, 72, -1,
      72, 91, 73, -1,
      92, 59, 65, -1,
      92, 65, 93, -1,
      93, 65, 73, -1,
      93, 73, 91, -1,
      94, 69, 68, -1,
      94, 68, 95, -1,
      95, 68, 60, -1,
      95, 60, 96, -1,
      96, 60, 59, -1,
      96, 59, 92, -1,
      88, 64, 63, -1,
      88, 63, 97, -1,
      97, 63, 62, -1,
      97, 62, 98, -1,
      98, 62, 70, -1,
      98, 70, 99, -1,
      99, 70, 69, -1,
      99, 69, 94, -1,
      100, 101, 98, -1,
      98, 101, 102, -1,
      98, 102, 97, -1,
      97, 102, 103, -1,
      97, 103, 88, -1,
      88, 103, 104, -1,
      88, 104, 89, -1,
      89, 104, 105, -1,
      89, 105, 90, -1,
      90, 105, 106, -1,
      90, 106, 91, -1,
      91, 106, 107, -1,
      91, 107, 93, -1,
      93, 107, 108, -1,
      93, 108, 92, -1,
      92, 108, 109, -1,
      92, 109, 96, -1,
      96, 109, 110, -1,
      96, 110, 95, -1,
      95, 110, 111, -1,
      95, 111, 94, -1,
      94, 111, 112, -1,
      94, 112, 99, -1,
      99, 112, 100, -1,
      99, 100, 98, -1,
      106, 105, 113, -1,
      113, 105, 114, -1,
      107, 106, 115, -1,
      115, 106, 113, -1,
      107, 115, 116, -1,
      107, 116, 108, -1,
      108, 116, 117, -1,
      108, 117, 109, -1,
      109, 117, 118, -1,
      109, 118, 110, -1,
      110, 118, 119, -1,
      110, 119, 111, -1,
      111, 119, 120, -1,
      111, 120, 112, -1,
      112, 120, 121, -1,
      112, 121, 100, -1,
      100, 121, 122, -1,
      100, 122, 101, -1,
      101, 122, 123, -1,
      101, 123, 102, -1,
      102, 123, 124, -1,
      102, 124, 103, -1,
      103, 124, 125, -1,
      103, 125, 104, -1,
      105, 104, 114, -1,
      114, 104, 125, -1,
      126, 127, 23, -1,
      23, 127, 6, -1,
      127, 128, 6, -1,
      6, 128, 5, -1,
      128, 129, 5, -1,
      5, 129, 0, -1,
      129, 130, 0, -1,
      0, 130, 1, -1,
      130, 131, 1, -1,
      1, 131, 2, -1,
      131, 132, 2, -1,
      2, 132, 3, -1,
      132, 133, 3, -1,
      3, 133, 4, -1,
      133, 134, 4, -1,
      4, 134, 19, -1,
      134, 135, 19, -1,
      19, 135, 20, -1,
      135, 136, 20, -1,
      20, 136, 21, -1,
      136, 137, 21, -1,
      21, 137, 22, -1,
      137, 126, 22, -1,
      22, 126, 23, -1,
      126, 137, 136, -1,
      136, 135, 126, -1,
      126, 135, 134, -1,
      126, 134, 127, -1,
      129, 128, 130, -1,
      130, 128, 127, -1,
      130, 127, 131, -1,
      131, 127, 134, -1,
      131, 134, 132, -1,
      132, 134, 133, -1,
      138, 36, 48, -1,
      138, 48, 139, -1,
      139, 48, 46, -1,
      139, 46, 140, -1,
      140, 46, 45, -1,
      140, 45, 141, -1,
      141, 45, 44, -1,
      141, 44, 142, -1,
      138, 143, 36, -1,
      36, 143, 38, -1,
      144, 26, 43, -1,
      144, 43, 145, -1,
      145, 43, 42, -1,
      145, 42, 146, -1,
      146, 42, 40, -1,
      146, 40, 147, -1,
      147, 40, 38, -1,
      147, 38, 143, -1,
      148, 28, 27, -1,
      148, 27, 149, -1,
      149, 27, 25, -1,
      149, 25, 150, -1,
      150, 25, 24, -1,
      150, 24, 151, -1,
      151, 24, 26, -1,
      151, 26, 144, -1,
      152, 41, 31, -1,
      152, 31, 153, -1,
      153, 31, 30, -1,
      153, 30, 154, -1,
      154, 30, 29, -1,
      154, 29, 155, -1,
      155, 29, 28, -1,
      155, 28, 148, -1,
      156, 37, 39, -1,
      156, 39, 157, -1,
      157, 39, 41, -1,
      157, 41, 152, -1,
      156, 158, 37, -1,
      37, 158, 35, -1,
      159, 51, 50, -1,
      159, 50, 160, -1,
      160, 50, 49, -1,
      160, 49, 161, -1,
      49, 53, 161, -1,
      161, 53, 47, -1,
      161, 47, 162, -1,
      162, 47, 35, -1,
      162, 35, 158, -1,
      51, 159, 8, -1,
      8, 159, 163, -1,
      8, 163, 10, -1,
      10, 163, 164, -1,
      10, 164, 11, -1,
      11, 164, 165, -1,
      11, 165, 12, -1,
      12, 165, 166, -1,
      12, 166, 13, -1,
      167, 16, 15, -1,
      167, 15, 168, -1,
      168, 15, 13, -1,
      168, 13, 166, -1,
      142, 44, 34, -1,
      142, 34, 169, -1,
      169, 34, 33, -1,
      169, 33, 170, -1,
      170, 33, 32, -1,
      170, 32, 171, -1,
      171, 32, 16, -1,
      171, 16, 167, -1,
      158, 156, 162, -1,
      162, 156, 157, -1,
      167, 168, 155, -1,
      155, 168, 154, -1,
      154, 168, 166, -1,
      154, 166, 165, -1,
      143, 138, 139, -1,
      143, 139, 147, -1,
      147, 139, 140, -1,
      147, 140, 141, -1,
      165, 164, 154, -1,
      154, 164, 163, -1,
      154, 163, 153, -1,
      153, 163, 159, -1,
      153, 159, 152, -1,
      152, 159, 160, -1,
      152, 160, 157, -1,
      157, 160, 161, -1,
      157, 161, 162, -1,
      155, 148, 167, -1,
      167, 148, 149, -1,
      167, 149, 171, -1,
      171, 149, 150, -1,
      171, 150, 170, -1,
      170, 150, 151, -1,
      170, 151, 169, -1,
      169, 151, 144, -1,
      169, 144, 142, -1,
      142, 144, 145, -1,
      142, 145, 141, -1,
      141, 145, 146, -1,
      141, 146, 147, -1,
      172, 173, 7, -1,
      7, 173, 52, -1,
      173, 174, 52, -1,
      52, 174, 18, -1,
      174, 175, 18, -1,
      18, 175, 17, -1,
      175, 176, 17, -1,
      17, 176, 14, -1,
      176, 177, 14, -1,
      14, 177, 9, -1,
      177, 172, 9, -1,
      9, 172, 7, -1,
      174, 173, 175, -1,
      175, 173, 172, -1,
      175, 172, 176, -1,
      176, 172, 177, -1,
    ]
  }
}

Shape {
  appearance Appearance {
    material Material {
      diffuseColor 0.1961 0.1961 0.1961
      specularColor 0.0980 0.0980 0.0980
      ambientIntensity 0.2
      transparency 0.0000
      shininess 0.5
    }
  }
  geometry IndexedFaceSet {
    ccw TRUE
    solid FALSE
    coord DEF co Coordinate {
      point [
        -0.167157 0.016657 0.000000,
        -0.160217 0.031696 0.000000,
        -0.153087 0.016657 0.000000,
        -0.107511 0.035332 0.000000,
        -0.107511 0.004038 0.000000,
        -0.110279 0.035332 0.000000,
        -0.116366 0.035147 0.000000,
        -0.122377 0.034228 0.000000,
        -0.126731 0.032130 0.000000,
        -0.131024 0.027058 0.000000,
        -0.132748 0.019196 0.000000,
        -0.132124 0.014294 0.000000,
        -0.128909 0.008531 0.000000,
        -0.123284 0.005039 0.000000,
        -0.117693 0.004197 0.000000,
        -0.112030 0.004038 0.000000,
      ]
    }
    coordIndex [
      1, 2, 0, -1,
      3, 4, 5, -1,
      5, 4, 15, -1,
      5, 15, 6, -1,
      6, 15, 14, -1,
      6, 14, 7, -1,
      13, 12, 14, -1,
      14, 12, 11, -1,
      14, 11, 10, -1,
      10, 9, 14, -1,
      14, 9, 8, -1,
      14, 8, 7, -1,
    ]
  }
}
