#VRML V2.0 utf8

Shape {
  appearance Appearance {
    material Material {
      diffuseColor 0.2510 0.2510 0.2510
      specularColor 0.1255 0.1255 0.1255
      ambientIntensity 0.2
      transparency 0.0000
      shininess 0.5
    }
  }
  geometry IndexedFaceSet {
    ccw TRUE
    solid FALSE
    coord DEF co Coordinate {
      point [
        -0.860707 -0.029820 0.000000,
        -0.851015 -0.008239 0.000000,
        -0.846499 -0.015282 0.000000,
        -0.812980 -0.029820 0.000000,
        -0.791570 -0.029820 0.000000,
        -0.783888 -0.030300 0.000000,
        -0.791570 0.048920 0.000000,
        -0.783888 0.964567 0.000000,
        -0.813791 0.048920 0.000000,
        -0.920243 -0.029820 0.000000,
        -0.931766 -0.029820 0.000000,
        -1.131890 -0.030300 0.000000,
        -0.901038 0.048920 0.000000,
        -0.840018 -0.021488 0.000000,
        -0.831796 -0.026266 0.000000,
        -0.822723 -0.028970 0.000000,
        -0.890475 0.048920 0.000000,
        -0.834379 0.044469 0.000000,
        -0.842949 0.038725 0.000000,
        -1.131890 0.181102 0.000000,
        -1.114173 0.181102 0.000000,
        -1.102362 0.169291 0.000000,
        -0.940945 0.169291 0.000000,
        -0.825167 0.047704 0.000000,
        -0.940945 0.330709 0.000000,
        -1.114173 0.318898 0.000000,
        -1.131890 0.318898 0.000000,
        -1.102362 0.330709 0.000000,
        -1.131890 0.681102 0.000000,
        -0.872231 -0.029820 0.000000,
        -0.879748 -0.007735 0.000000,
        -0.912276 -0.007735 0.000000,
        -0.843031 0.038653 0.000000,
        -0.848600 0.032479 0.000000,
        -0.852259 0.025707 0.000000,
        -0.854374 0.017949 0.000000,
        -0.854946 0.010540 0.000000,
        -0.853841 0.000002 0.000000,
        -1.114173 0.681102 0.000000,
        -1.102362 0.669291 0.000000,
        -0.940945 0.669291 0.000000,
        -0.940945 0.830709 0.000000,
        -1.112205 0.964567 0.000000,
        -1.102362 0.830709 0.000000,
        -1.114173 0.818898 0.000000,
        -1.131890 0.818898 0.000000,
        -1.131890 0.944882 0.000000,
        -1.131219 0.949977 0.000000,
        -1.117300 0.963896 0.000000,
        -1.129252 0.954724 0.000000,
        -1.122047 0.961930 0.000000,
        -1.126124 0.958801 0.000000,
        -1.131890 -0.818898 0.000000,
        -1.114173 -0.818898 0.000000,
        -1.131890 -0.944882 0.000000,
        -1.102362 -0.830709 0.000000,
        -1.131396 -0.949262 0.000000,
        -0.940945 -0.830709 0.000000,
        -0.783888 -0.964567 0.000000,
        -1.112205 -0.964567 0.000000,
        -1.114173 -0.681102 0.000000,
        -1.131890 -0.681102 0.000000,
        -1.102362 -0.669291 0.000000,
        -1.131890 -0.318898 0.000000,
        -1.114173 -0.181102 0.000000,
        -1.131890 -0.181102 0.000000,
        -1.102362 -0.169291 0.000000,
        -0.940945 -0.169291 0.000000,
        -0.940945 -0.330709 0.000000,
        -0.940945 -0.669291 0.000000,
        -1.102362 -0.330709 0.000000,
        -1.114173 -0.318898 0.000000,
        -1.116585 -0.964073 0.000000,
        -1.120746 -0.962617 0.000000,
        -1.124478 -0.960272 0.000000,
        -1.127595 -0.957156 0.000000,
        -1.129940 -0.953423 0.000000,
        -0.702241 -0.030300 0.000000,
        -0.699079 -0.030744 0.000000,
        -0.401575 -0.846457 0.000000,
        -0.401575 -0.964567 0.000000,
        -0.448819 -0.846457 0.000000,
        -0.696926 -0.030781 0.000000,
        -0.448819 -0.030300 0.000000,
        -0.776206 -0.021178 0.000000,
        -0.776206 -0.029820 0.000000,
        -0.733955 -0.029820 0.000000,
        -0.401575 0.964567 0.000000,
        -0.401575 0.846457 0.000000,
        -0.448819 0.846457 0.000000,
        -0.774285 0.040278 0.000000,
        -0.744518 0.040278 0.000000,
        -0.744518 0.014351 0.000000,
        -0.718591 -0.025739 0.000000,
        -0.718591 -0.017097 0.000000,
        -0.733955 0.048920 0.000000,
        -0.710198 -0.029185 0.000000,
        -0.744518 0.005709 0.000000,
        -0.744518 -0.021178 0.000000,
        -0.772365 0.005709 0.000000,
        -0.772365 0.014351 0.000000,
        -0.612964 -0.029820 0.000000,
        -0.692295 -0.030300 0.000000,
        -0.653294 -0.029820 0.000000,
        -0.687222 -0.029774 0.000000,
        -0.679590 -0.027148 0.000000,
        -0.612964 0.048920 0.000000,
        -0.623527 0.048920 0.000000,
        -0.774285 0.048920 0.000000,
        -0.692398 0.040367 0.000000,
        -0.686504 0.038240 0.000000,
        -0.717180 -0.017879 0.000000,
        -0.681055 0.034594 0.000000,
        -0.676300 0.029345 0.000000,
        -0.670579 0.008709 0.000000,
        -0.671376 0.000185 0.000000,
        -0.673515 -0.006587 0.000000,
        -0.691037 -0.021315 0.000000,
        -0.698381 -0.022138 0.000000,
        -0.685300 -0.019202 0.000000,
        -0.680467 -0.015945 0.000000,
        -0.676772 -0.012047 0.000000,
        -0.708833 -0.020978 0.000000,
        -0.673054 0.023265 0.000000,
        -0.670955 0.014836 0.000000,
        -0.675896 0.042379 0.000000,
        -0.668787 0.035543 0.000000,
        -0.664172 0.028181 0.000000,
        -0.673257 -0.023103 0.000000,
        -0.667342 -0.016876 0.000000,
        -0.653294 -0.021178 0.000000,
        -0.663148 -0.009389 0.000000,
        -0.623527 -0.021178 0.000000,
        -0.660778 -0.001055 0.000000,
        -0.660016 0.008064 0.000000,
        -0.661149 0.019259 0.000000,
        -0.683375 0.046684 0.000000,
        -0.692153 0.049234 0.000000,
        -0.700061 0.049880 0.000000,
        -0.709488 0.049230 0.000000,
        -0.718591 0.046759 0.000000,
        -0.718591 0.036196 0.000000,
        -0.709722 0.039994 0.000000,
        -0.700152 0.041238 0.000000,
        -0.303150 0.964567 0.098425,
        1.112205 0.964567 0.098425,
        -0.303150 0.964567 0.000000,
        1.112205 0.964567 0.000000,
        -0.401575 -0.964567 0.098425,
        -1.112205 -0.964567 0.098425,
        0.929134 0.830709 0.000000,
        0.929134 0.750000 0.000000,
        -0.263780 0.750000 0.000000,
        -0.303150 0.846457 0.000000,
        -0.263780 0.846457 0.000000,
        1.131890 0.818898 0.000000,
        1.114173 0.818898 0.000000,
        1.131890 0.944882 0.000000,
        1.102362 0.830709 0.000000,
        1.131219 0.949977 0.000000,
        1.117300 0.963896 0.000000,
        1.122047 0.961930 0.000000,
        1.129252 0.954724 0.000000,
        1.126124 0.958801 0.000000,
        -0.263780 -0.750000 0.000000,
        0.929134 -0.750000 0.000000,
        -0.263780 -0.846457 0.000000,
        0.929134 -0.830709 0.000000,
        1.117300 -0.963896 0.000000,
        1.112205 -0.964567 0.000000,
        -0.303150 -0.964567 0.000000,
        -0.303150 -0.846457 0.000000,
        1.114173 -0.818898 0.000000,
        1.131890 -0.818898 0.000000,
        1.102362 -0.830709 0.000000,
        1.131890 -0.944882 0.000000,
        1.131219 -0.949977 0.000000,
        1.129252 -0.954724 0.000000,
        1.126124 -0.958801 0.000000,
        1.122047 -0.961930 0.000000,
        1.131890 -0.681102 0.000000,
        1.114173 -0.681102 0.000000,
        1.131890 -0.318898 0.000000,
        1.102362 -0.669291 0.000000,
        1.114173 -0.318898 0.000000,
        1.102362 -0.330709 0.000000,
        0.960630 -0.330709 0.000000,
        0.960630 -0.669291 0.000000,
        1.131890 -0.181102 0.000000,
        1.114173 -0.181102 0.000000,
        1.131890 0.181102 0.000000,
        1.102362 -0.169291 0.000000,
        1.114173 0.181102 0.000000,
        1.102362 0.169291 0.000000,
        0.960630 0.169291 0.000000,
        0.960630 -0.169291 0.000000,
        1.131890 -0.681102 0.098425,
        1.131890 -0.318898 0.098425,
        1.131890 -0.181102 0.098425,
        1.131890 0.181102 0.098425,
        1.131890 0.318898 0.000000,
        1.131890 0.681102 0.000000,
        1.131890 0.318898 0.098425,
        1.131890 0.681102 0.098425,
        1.131890 0.818898 0.098425,
        1.131890 0.944882 0.098425,
        -1.131890 -0.681102 0.098425,
        -1.131890 -0.318898 0.098425,
        -1.131890 -0.181102 0.098425,
        -1.131890 0.181102 0.098425,
        -1.131890 0.318898 0.098425,
        -1.131890 0.681102 0.098425,
        -1.131890 0.818898 0.098425,
        -1.131890 0.944882 0.098425,
        1.131890 -0.818898 0.098425,
        1.131890 -0.944882 0.098425,
        -0.401575 0.964567 0.098425,
        -1.112205 0.964567 0.098425,
        -1.131890 -0.818898 0.098425,
        -1.131890 -0.944882 0.098425,
        -0.303150 -0.964567 0.098425,
        1.112205 -0.964567 0.098425,
        1.114173 0.318898 0.000000,
        1.102362 0.330709 0.000000,
        1.114173 0.681102 0.000000,
        1.102362 0.669291 0.000000,
        0.960630 0.669291 0.000000,
        0.960630 0.330709 0.000000,
        1.083131 -0.935385 0.376073,
        -1.083131 -0.935385 0.376073,
        -1.112313 -0.964567 0.098425,
        1.112313 -0.964567 0.098425,
        1.131890 -0.944990 0.098425,
        1.102708 -0.915808 0.376073,
        1.102708 0.915808 0.376073,
        1.131890 0.944990 0.098425,
        -1.083131 0.935385 0.376073,
        1.083131 0.935385 0.376073,
        1.112313 0.964567 0.098425,
        -1.112313 0.964567 0.098425,
        -1.102708 -0.915808 0.376073,
        -1.102708 0.915808 0.376073,
        -1.131890 0.944990 0.098425,
        -1.131890 -0.944990 0.098425,
        -0.875158 0.817691 0.393701,
        1.083131 0.915808 0.393701,
        -0.882524 0.835473 0.393701,
        -0.894241 0.850743 0.393701,
        -0.872646 0.798608 0.393701,
        -0.875158 0.779526 0.393701,
        1.083131 -0.915808 0.393701,
        -0.882524 0.761743 0.393701,
        -0.894241 0.746473 0.393701,
        -0.909511 0.734756 0.393701,
        -1.083131 -0.915808 0.393701,
        -0.927293 0.727391 0.393701,
        -0.946376 0.724878 0.393701,
        -0.965458 0.727391 0.393701,
        -0.983240 0.734756 0.393701,
        -0.998510 0.746473 0.393701,
        -1.017593 0.817691 0.393701,
        -1.010227 0.835473 0.393701,
        -1.083131 0.915808 0.393701,
        -0.998510 0.850743 0.393701,
        -0.946376 0.872338 0.393701,
        -0.927293 0.869826 0.393701,
        -0.909511 0.862460 0.393701,
        -1.010227 0.761743 0.393701,
        -1.017593 0.779526 0.393701,
        -1.020105 0.798608 0.393701,
        -0.983240 0.862460 0.393701,
        -0.965458 0.869826 0.393701,
        1.112313 -0.964567 0.098425,
        1.117298 -0.963887 0.098653,
        1.117369 -0.963878 0.098656,
        1.122045 -0.961925 0.098799,
        1.122078 -0.961912 0.098800,
        1.126124 -0.958801 0.098848,
        1.129235 -0.954756 0.098800,
        1.129248 -0.954722 0.098799,
        1.131200 -0.950046 0.098656,
        1.131210 -0.949976 0.098653,
        1.131889 -0.944990 0.098425,
        -1.131889 -0.944990 0.098425,
        -1.131309 -0.949250 0.098620,
        -1.131200 -0.950046 0.098656,
        -1.129813 -0.953370 0.098757,
        -1.129235 -0.954756 0.098800,
        -1.127466 -0.957056 0.098828,
        -1.126124 -0.958801 0.098848,
        -1.124379 -0.960143 0.098828,
        -1.122078 -0.961912 0.098800,
        -1.120693 -0.962490 0.098757,
        -1.117369 -0.963878 0.098656,
        -1.116573 -0.963986 0.098620,
        -1.112313 -0.964567 0.098425,
        1.102094 -0.920143 0.376465,
        1.101995 -0.920841 0.376528,
        1.100572 -0.924214 0.376732,
        1.100014 -0.925535 0.376813,
        1.098228 -0.927851 0.376869,
        1.096899 -0.929576 0.376910,
        1.095174 -0.930906 0.376869,
        1.092858 -0.932691 0.376813,
        1.091537 -0.933249 0.376732,
        1.088163 -0.934672 0.376528,
        1.087466 -0.934771 0.376465,
        -1.083131 -0.934354 0.380613,
        1.083131 -0.934354 0.380613,
        -1.083131 -0.934290 0.380741,
        1.083131 -0.934290 0.380741,
        -1.083131 -0.932192 0.384928,
        1.083131 -0.932192 0.384928,
        -1.083131 -0.932117 0.385015,
        1.083131 -0.932117 0.385015,
        -1.083131 -0.929044 0.388587,
        1.083131 -0.929044 0.388587,
        -1.083131 -0.928974 0.388636,
        1.083131 -0.928974 0.388636,
        -1.083131 -0.925100 0.391369,
        1.083131 -0.925100 0.391369,
        -1.083131 -0.925047 0.391390,
        1.083131 -0.925047 0.391390,
        -1.083131 -0.920598 0.393109,
        1.083131 -0.920598 0.393109,
        -1.083131 -0.920570 0.393113,
        1.083131 -0.920570 0.393113,
        -1.101995 -0.920841 0.376528,
        -1.087466 -0.934771 0.376465,
        -1.096899 -0.929576 0.376910,
        -1.095174 -0.930906 0.376869,
        -1.092858 -0.932691 0.376813,
        -1.091537 -0.933249 0.376732,
        -1.088163 -0.934672 0.376528,
        -1.100572 -0.924214 0.376732,
        -1.100014 -0.925535 0.376813,
        -1.098228 -0.927851 0.376869,
        -1.102094 -0.920143 0.376465,
        1.131889 0.944990 0.098425,
        1.131210 0.949976 0.098653,
        1.131200 0.950046 0.098656,
        1.129248 0.954722 0.098799,
        1.129235 0.954756 0.098800,
        1.126124 0.958801 0.098848,
        1.122078 0.961912 0.098800,
        1.122045 0.961925 0.098799,
        1.117369 0.963878 0.098656,
        1.117298 0.963887 0.098653,
        1.112313 0.964567 0.098425,
        1.101613 -0.915808 0.380741,
        1.099515 -0.915808 0.384928,
        1.099104 -0.919454 0.384928,
        1.099440 -0.915808 0.385015,
        1.096367 -0.915808 0.388587,
        1.096035 -0.918753 0.388587,
        1.092190 -0.917876 0.391369,
        1.087801 -0.916874 0.393109,
        1.087446 -0.917886 0.393109,
        1.085209 -0.920124 0.393109,
        1.086117 -0.919553 0.393109,
        1.084196 -0.920478 0.393109,
        1.087893 -0.915808 0.393113,
        1.101212 -0.919935 0.380613,
        1.099841 -0.923855 0.380613,
        1.097631 -0.927371 0.380613,
        1.094694 -0.930308 0.380613,
        1.091178 -0.932518 0.380613,
        1.087257 -0.933889 0.380613,
        1.096296 -0.915808 0.388636,
        1.092423 -0.915808 0.391369,
        1.092370 -0.915808 0.391390,
        1.087921 -0.915808 0.393109,
        1.090396 -0.921602 0.391369,
        1.088924 -0.923073 0.391369,
        1.087163 -0.924180 0.391369,
        1.085198 -0.924867 0.391369,
        1.091503 -0.919840 0.391369,
        1.086876 -0.918794 0.393109,
        1.095056 -0.921551 0.388587,
        1.093479 -0.924060 0.388587,
        1.091383 -0.926156 0.388587,
        1.088874 -0.927733 0.388587,
        1.086076 -0.928712 0.388587,
        1.097892 -0.922917 0.384928,
        1.095940 -0.926023 0.384928,
        1.093346 -0.928617 0.384928,
        1.090239 -0.930569 0.384928,
        1.086776 -0.931781 0.384928,
        1.101677 -0.915808 0.380613,
        -1.086776 -0.931781 0.384928,
        -1.086076 -0.928712 0.388587,
        -1.085198 -0.924867 0.391369,
        -1.084196 -0.920478 0.393109,
        -1.085209 -0.920124 0.393109,
        -1.087446 -0.917886 0.393109,
        -1.086876 -0.918794 0.393109,
        -1.087801 -0.916874 0.393109,
        -1.087257 -0.933889 0.380613,
        -1.091178 -0.932518 0.380613,
        -1.094694 -0.930308 0.380613,
        -1.097631 -0.927371 0.380613,
        -1.099841 -0.923855 0.380613,
        -1.101212 -0.919935 0.380613,
        -1.101677 -0.915808 0.380613,
        -1.087893 -0.915808 0.393113,
        -1.088924 -0.923073 0.391369,
        -1.090396 -0.921602 0.391369,
        -1.091503 -0.919840 0.391369,
        -1.092190 -0.917876 0.391369,
        -1.087163 -0.924180 0.391369,
        -1.086117 -0.919553 0.393109,
        -1.087921 -0.915808 0.393109,
        -1.092370 -0.915808 0.391390,
        -1.092423 -0.915808 0.391369,
        -1.096296 -0.915808 0.388636,
        -1.088874 -0.927733 0.388587,
        -1.091383 -0.926156 0.388587,
        -1.093479 -0.924060 0.388587,
        -1.095056 -0.921551 0.388587,
        -1.096035 -0.918753 0.388587,
        -1.090239 -0.930569 0.384928,
        -1.093346 -0.928617 0.384928,
        -1.095940 -0.926023 0.384928,
        -1.097892 -0.922917 0.384928,
        -1.099104 -0.919454 0.384928,
        -1.096367 -0.915808 0.388587,
        -1.099440 -0.915808 0.385015,
        -1.099515 -0.915808 0.384928,
        -1.101613 -0.915808 0.380741,
        -1.112313 0.964567 0.098425,
        -1.117298 0.963887 0.098653,
        -1.117369 0.963878 0.098656,
        -1.122045 0.961925 0.098799,
        -1.122078 0.961912 0.098800,
        -1.126124 0.958801 0.098848,
        -1.129235 0.954756 0.098800,
        -1.129248 0.954722 0.098799,
        -1.131200 0.950046 0.098656,
        -1.131210 0.949976 0.098653,
        -1.131889 0.944990 0.098425,
        1.087466 0.934771 0.376465,
        1.088163 0.934672 0.376528,
        1.091537 0.933249 0.376732,
        1.092858 0.932691 0.376813,
        1.095174 0.930906 0.376869,
        1.096899 0.929576 0.376910,
        1.098228 0.927851 0.376869,
        1.100014 0.925535 0.376813,
        1.100572 0.924214 0.376732,
        1.101995 0.920841 0.376528,
        1.102094 0.920143 0.376465,
        1.101677 0.915808 0.380613,
        1.101613 0.915808 0.380741,
        1.099515 0.915808 0.384928,
        1.099440 0.915808 0.385015,
        1.096367 0.915808 0.388587,
        1.096296 0.915808 0.388636,
        1.092423 0.915808 0.391369,
        1.092370 0.915808 0.391390,
        1.087921 0.915808 0.393109,
        1.087893 0.915808 0.393113,
        -1.101677 0.915808 0.380613,
        -1.101613 0.915808 0.380741,
        -1.099515 0.915808 0.384928,
        -1.099440 0.915808 0.385015,
        -1.096367 0.915808 0.388587,
        -1.096296 0.915808 0.388636,
        -1.092423 0.915808 0.391369,
        -1.092370 0.915808 0.391390,
        -1.087921 0.915808 0.393109,
        -1.087893 0.915808 0.393113,
        -1.102094 0.920143 0.376465,
        -1.101995 0.920841 0.376528,
        -1.100572 0.924214 0.376732,
        -1.100014 0.925535 0.376813,
        -1.098228 0.927851 0.376869,
        -1.096899 0.929576 0.376910,
        -1.095174 0.930906 0.376869,
        -1.092858 0.932691 0.376813,
        -1.091537 0.933249 0.376732,
        -1.088163 0.934672 0.376528,
        -1.087466 0.934771 0.376465,
        1.083131 0.934290 0.380741,
        1.083131 0.932192 0.384928,
        1.086776 0.931781 0.384928,
        1.083131 0.932117 0.385015,
        1.083131 0.929044 0.388587,
        1.086076 0.928712 0.388587,
        1.085198 0.924867 0.391369,
        1.084196 0.920478 0.393109,
        1.085209 0.920124 0.393109,
        1.087446 0.917886 0.393109,
        1.086876 0.918794 0.393109,
        1.087801 0.916874 0.393109,
        1.083131 0.920570 0.393113,
        1.087257 0.933889 0.380613,
        1.091178 0.932518 0.380613,
        1.094694 0.930308 0.380613,
        1.097631 0.927371 0.380613,
        1.099841 0.923855 0.380613,
        1.101212 0.919935 0.380613,
        1.083131 0.928974 0.388636,
        1.083131 0.925100 0.391369,
        1.083131 0.925047 0.391390,
        1.083131 0.920598 0.393109,
        1.088924 0.923073 0.391369,
        1.090396 0.921602 0.391369,
        1.091503 0.919840 0.391369,
        1.092190 0.917876 0.391369,
        1.087163 0.924180 0.391369,
        1.086117 0.919553 0.393109,
        1.088874 0.927733 0.388587,
        1.091383 0.926156 0.388587,
        1.093479 0.924060 0.388587,
        1.095056 0.921551 0.388587,
        1.096035 0.918753 0.388587,
        1.090239 0.930569 0.384928,
        1.093346 0.928617 0.384928,
        1.095940 0.926023 0.384928,
        1.097892 0.922917 0.384928,
        1.099104 0.919454 0.384928,
        1.083131 0.934354 0.380613,
        -1.099104 0.919454 0.384928,
        -1.096035 0.918753 0.388587,
        -1.092190 0.917876 0.391369,
        -1.087801 0.916874 0.393109,
        -1.087446 0.917886 0.393109,
        -1.085209 0.920124 0.393109,
        -1.086117 0.919553 0.393109,
        -1.084196 0.920478 0.393109,
        -1.101212 0.919935 0.380613,
        -1.099841 0.923855 0.380613,
        -1.097631 0.927371 0.380613,
        -1.094694 0.930308 0.380613,
        -1.091178 0.932518 0.380613,
        -1.087257 0.933889 0.380613,
        -1.083131 0.934354 0.380613,
        -1.083131 0.920570 0.393113,
        -1.090396 0.921602 0.391369,
        -1.088924 0.923073 0.391369,
        -1.087163 0.924180 0.391369,
        -1.085198 0.924867 0.391369,
        -1.091503 0.919840 0.391369,
        -1.086876 0.918794 0.393109,
        -1.083131 0.920598 0.393109,
        -1.083131 0.925047 0.391390,
        -1.083131 0.925100 0.391369,
        -1.083131 0.928974 0.388636,
        -1.095056 0.921551 0.388587,
        -1.093479 0.924060 0.388587,
        -1.091383 0.926156 0.388587,
        -1.088874 0.927733 0.388587,
        -1.086076 0.928712 0.388587,
        -1.097892 0.922917 0.384928,
        -1.095940 0.926023 0.384928,
        -1.093346 0.928617 0.384928,
        -1.090239 0.930569 0.384928,
        -1.086776 0.931781 0.384928,
        -1.083131 0.929044 0.388587,
        -1.083131 0.932117 0.385015,
        -1.083131 0.932192 0.384928,
        -1.083131 0.934290 0.380741,
      ]
    }
    coordIndex [
      0, 1, 2, -1,
      3, 4, 5, -1,
      5, 4, 6, -1,
      5, 6, 7, -1,
      7, 6, 8, -1,
      9, 5, 10, -1,
      10, 5, 11, -1,
      10, 11, 12, -1,
      2, 13, 0, -1,
      0, 13, 14, -1,
      0, 14, 15, -1,
      16, 17, 18, -1,
      19, 20, 11, -1,
      11, 20, 21, -1,
      11, 21, 12, -1,
      12, 21, 22, -1,
      12, 22, 16, -1,
      17, 16, 23, -1,
      23, 16, 22, -1,
      23, 22, 8, -1,
      8, 22, 24, -1,
      8, 24, 7, -1,
      25, 26, 27, -1,
      27, 26, 28, -1,
      15, 3, 0, -1,
      0, 3, 5, -1,
      0, 5, 29, -1,
      29, 5, 9, -1,
      29, 9, 30, -1,
      30, 9, 31, -1,
      18, 32, 16, -1,
      16, 32, 33, -1,
      16, 33, 34, -1,
      34, 35, 16, -1,
      16, 35, 36, -1,
      16, 36, 0, -1,
      0, 36, 37, -1,
      0, 37, 1, -1,
      28, 38, 27, -1,
      27, 38, 39, -1,
      27, 39, 24, -1,
      24, 39, 40, -1,
      24, 40, 7, -1,
      7, 40, 41, -1,
      7, 41, 42, -1,
      42, 41, 43, -1,
      44, 45, 43, -1,
      43, 45, 46, -1,
      43, 46, 42, -1,
      42, 46, 47, -1,
      42, 47, 48, -1,
      48, 47, 49, -1,
      48, 49, 50, -1,
      50, 49, 51, -1,
      52, 53, 54, -1,
      54, 53, 55, -1,
      54, 55, 56, -1,
      57, 58, 55, -1,
      55, 58, 59, -1,
      60, 61, 62, -1,
      62, 61, 63, -1,
      64, 65, 66, -1,
      66, 65, 11, -1,
      66, 11, 67, -1,
      67, 11, 5, -1,
      67, 5, 68, -1,
      68, 5, 69, -1,
      68, 69, 70, -1,
      70, 69, 62, -1,
      70, 62, 71, -1,
      71, 62, 63, -1,
      59, 72, 55, -1,
      55, 72, 73, -1,
      55, 73, 74, -1,
      74, 75, 55, -1,
      55, 75, 76, -1,
      55, 76, 56, -1,
      77, 78, 58, -1,
      79, 80, 81, -1,
      81, 80, 58, -1,
      58, 78, 81, -1,
      81, 78, 82, -1,
      81, 82, 83, -1,
      7, 84, 5, -1,
      5, 84, 85, -1,
      5, 85, 86, -1,
      87, 88, 7, -1,
      7, 88, 89, -1,
      90, 91, 92, -1,
      93, 86, 94, -1,
      94, 86, 95, -1,
      57, 69, 58, -1,
      58, 69, 5, -1,
      58, 5, 77, -1,
      77, 5, 86, -1,
      77, 86, 96, -1,
      96, 86, 93, -1,
      97, 98, 99, -1,
      99, 98, 84, -1,
      99, 84, 100, -1,
      101, 102, 103, -1,
      103, 102, 104, -1,
      103, 104, 105, -1,
      82, 102, 83, -1,
      83, 102, 101, -1,
      83, 101, 89, -1,
      89, 101, 106, -1,
      89, 106, 7, -1,
      7, 106, 107, -1,
      92, 100, 90, -1,
      90, 100, 84, -1,
      90, 84, 108, -1,
      108, 84, 7, -1,
      108, 7, 95, -1,
      109, 110, 111, -1,
      111, 110, 112, -1,
      111, 112, 113, -1,
      114, 115, 111, -1,
      111, 115, 116, -1,
      117, 118, 119, -1,
      119, 118, 120, -1,
      116, 121, 111, -1,
      111, 121, 120, -1,
      111, 120, 122, -1,
      122, 120, 118, -1,
      113, 123, 111, -1,
      111, 123, 124, -1,
      111, 124, 114, -1,
      125, 7, 126, -1,
      126, 7, 107, -1,
      126, 107, 127, -1,
      105, 128, 103, -1,
      103, 128, 129, -1,
      103, 129, 130, -1,
      130, 129, 131, -1,
      130, 131, 132, -1,
      131, 133, 132, -1,
      132, 133, 134, -1,
      132, 134, 107, -1,
      107, 134, 135, -1,
      107, 135, 127, -1,
      125, 136, 7, -1,
      7, 136, 137, -1,
      7, 137, 138, -1,
      138, 139, 7, -1,
      7, 139, 140, -1,
      7, 140, 95, -1,
      95, 140, 141, -1,
      95, 141, 94, -1,
      94, 141, 142, -1,
      94, 142, 111, -1,
      111, 142, 143, -1,
      111, 143, 109, -1,
      144, 145, 146, -1,
      146, 145, 147, -1,
      148, 149, 80, -1,
      80, 149, 59, -1,
      150, 151, 152, -1,
      153, 146, 154, -1,
      154, 146, 147, -1,
      155, 156, 157, -1,
      157, 156, 158, -1,
      157, 158, 159, -1,
      152, 154, 150, -1,
      150, 154, 147, -1,
      150, 147, 158, -1,
      158, 147, 160, -1,
      158, 160, 159, -1,
      159, 160, 161, -1,
      159, 161, 162, -1,
      162, 161, 163, -1,
      164, 165, 166, -1,
      166, 165, 167, -1,
      168, 169, 167, -1,
      167, 169, 170, -1,
      167, 170, 166, -1,
      166, 170, 171, -1,
      172, 173, 174, -1,
      174, 173, 175, -1,
      174, 175, 167, -1,
      167, 175, 176, -1,
      167, 176, 177, -1,
      177, 178, 167, -1,
      167, 178, 179, -1,
      167, 179, 168, -1,
      180, 181, 182, -1,
      182, 181, 183, -1,
      184, 182, 185, -1,
      185, 182, 183, -1,
      185, 183, 186, -1,
      186, 183, 187, -1,
      188, 189, 190, -1,
      190, 189, 191, -1,
      192, 190, 193, -1,
      193, 190, 191, -1,
      193, 191, 194, -1,
      194, 191, 195, -1,
      180, 182, 196, -1,
      196, 182, 197, -1,
      188, 190, 198, -1,
      198, 190, 199, -1,
      200, 201, 202, -1,
      202, 201, 203, -1,
      155, 157, 204, -1,
      204, 157, 205, -1,
      206, 207, 61, -1,
      61, 207, 63, -1,
      208, 209, 65, -1,
      65, 209, 19, -1,
      210, 211, 26, -1,
      26, 211, 28, -1,
      212, 213, 45, -1,
      45, 213, 46, -1,
      214, 215, 173, -1,
      173, 215, 175, -1,
      87, 42, 216, -1,
      216, 42, 217, -1,
      52, 54, 218, -1,
      218, 54, 219, -1,
      170, 169, 220, -1,
      220, 169, 221, -1,
      200, 222, 201, -1,
      201, 222, 223, -1,
      224, 201, 225, -1,
      225, 201, 223, -1,
      225, 223, 226, -1,
      226, 223, 227, -1,
      148, 228, 149, -1,
      149, 228, 229, -1,
      149, 229, 230, -1,
      148, 220, 228, -1,
      228, 220, 221, -1,
      228, 221, 231, -1,
      232, 215, 233, -1,
      233, 215, 214, -1,
      233, 214, 196, -1,
      202, 203, 234, -1,
      196, 197, 233, -1,
      233, 197, 198, -1,
      233, 198, 234, -1,
      234, 198, 199, -1,
      234, 199, 202, -1,
      203, 204, 234, -1,
      234, 204, 205, -1,
      234, 205, 235, -1,
      144, 236, 145, -1,
      145, 236, 237, -1,
      145, 237, 238, -1,
      144, 216, 236, -1,
      236, 216, 217, -1,
      236, 217, 239, -1,
      212, 240, 213, -1,
      213, 240, 241, -1,
      213, 241, 242, -1,
      212, 211, 240, -1,
      240, 211, 210, -1,
      240, 210, 209, -1,
      209, 208, 240, -1,
      240, 208, 207, -1,
      240, 207, 206, -1,
      206, 218, 240, -1,
      240, 218, 219, -1,
      240, 219, 243, -1,
      244, 245, 246, -1,
      246, 245, 247, -1,
      244, 248, 245, -1,
      245, 248, 249, -1,
      245, 249, 250, -1,
      250, 249, 251, -1,
      251, 252, 250, -1,
      250, 252, 253, -1,
      250, 253, 254, -1,
      254, 253, 255, -1,
      254, 255, 256, -1,
      256, 257, 254, -1,
      254, 257, 258, -1,
      254, 258, 259, -1,
      260, 261, 262, -1,
      262, 261, 263, -1,
      262, 264, 265, -1,
      262, 265, 245, -1,
      245, 265, 266, -1,
      245, 266, 247, -1,
      259, 267, 254, -1,
      254, 267, 268, -1,
      254, 268, 262, -1,
      262, 268, 269, -1,
      262, 269, 260, -1,
      263, 270, 262, -1,
      262, 270, 271, -1,
      262, 271, 264, -1,
      272, 221, 169, -1,
      272, 169, 273, -1,
      273, 169, 168, -1,
      273, 168, 274, -1,
      274, 168, 179, -1,
      274, 179, 275, -1,
      275, 179, 276, -1,
      276, 179, 178, -1,
      276, 178, 277, -1,
      277, 178, 278, -1,
      278, 178, 177, -1,
      278, 177, 279, -1,
      279, 177, 280, -1,
      280, 177, 176, -1,
      280, 176, 281, -1,
      175, 215, 176, -1,
      176, 215, 282, -1,
      176, 282, 281, -1,
      219, 54, 283, -1,
      283, 54, 56, -1,
      283, 56, 284, -1,
      284, 56, 285, -1,
      285, 56, 76, -1,
      285, 76, 286, -1,
      286, 76, 287, -1,
      287, 76, 75, -1,
      287, 75, 288, -1,
      288, 75, 289, -1,
      289, 75, 74, -1,
      289, 74, 290, -1,
      290, 74, 291, -1,
      291, 74, 73, -1,
      291, 73, 292, -1,
      292, 73, 293, -1,
      293, 73, 72, -1,
      293, 72, 294, -1,
      59, 149, 72, -1,
      72, 149, 295, -1,
      72, 295, 294, -1,
      232, 233, 281, -1,
      281, 233, 296, -1,
      281, 296, 280, -1,
      280, 296, 297, -1,
      280, 297, 279, -1,
      279, 297, 298, -1,
      279, 298, 278, -1,
      298, 299, 278, -1,
      278, 299, 300, -1,
      278, 300, 277, -1,
      300, 301, 277, -1,
      277, 301, 302, -1,
      277, 302, 276, -1,
      276, 302, 303, -1,
      276, 303, 275, -1,
      275, 303, 304, -1,
      275, 304, 274, -1,
      274, 304, 305, -1,
      274, 305, 273, -1,
      273, 305, 231, -1,
      231, 305, 306, -1,
      231, 306, 228, -1,
      229, 228, 307, -1,
      307, 228, 308, -1,
      307, 308, 309, -1,
      309, 308, 310, -1,
      309, 310, 311, -1,
      311, 310, 312, -1,
      311, 312, 313, -1,
      313, 312, 314, -1,
      313, 314, 315, -1,
      315, 314, 316, -1,
      315, 316, 317, -1,
      317, 316, 318, -1,
      317, 318, 319, -1,
      319, 318, 320, -1,
      319, 320, 321, -1,
      321, 320, 322, -1,
      321, 322, 323, -1,
      323, 322, 324, -1,
      323, 324, 325, -1,
      324, 326, 325, -1,
      325, 326, 250, -1,
      325, 250, 254, -1,
      284, 285, 327, -1,
      230, 229, 294, -1,
      294, 229, 328, -1,
      294, 328, 293, -1,
      329, 290, 330, -1,
      330, 290, 291, -1,
      330, 291, 331, -1,
      331, 291, 292, -1,
      331, 292, 332, -1,
      332, 292, 293, -1,
      332, 293, 333, -1,
      333, 293, 328, -1,
      327, 285, 334, -1,
      334, 285, 286, -1,
      334, 286, 335, -1,
      335, 286, 287, -1,
      335, 287, 336, -1,
      336, 287, 288, -1,
      336, 288, 329, -1,
      329, 288, 289, -1,
      329, 289, 290, -1,
      284, 327, 243, -1,
      243, 327, 337, -1,
      243, 337, 240, -1,
      338, 205, 157, -1,
      338, 157, 339, -1,
      339, 157, 159, -1,
      339, 159, 340, -1,
      340, 159, 162, -1,
      340, 162, 341, -1,
      341, 162, 342, -1,
      342, 162, 163, -1,
      342, 163, 343, -1,
      343, 163, 344, -1,
      344, 163, 161, -1,
      344, 161, 345, -1,
      345, 161, 346, -1,
      346, 161, 160, -1,
      346, 160, 347, -1,
      147, 145, 160, -1,
      160, 145, 348, -1,
      160, 348, 347, -1,
      349, 350, 351, -1,
      352, 353, 354, -1,
      355, 356, 357, -1,
      250, 358, 359, -1,
      360, 358, 250, -1,
      357, 356, 250, -1,
      361, 250, 356, -1,
      296, 362, 297, -1,
      297, 362, 363, -1,
      297, 363, 298, -1,
      298, 363, 299, -1,
      299, 363, 364, -1,
      299, 364, 300, -1,
      300, 364, 301, -1,
      301, 364, 365, -1,
      301, 365, 302, -1,
      302, 365, 303, -1,
      303, 365, 366, -1,
      303, 366, 304, -1,
      304, 366, 305, -1,
      305, 366, 367, -1,
      305, 367, 306, -1,
      306, 367, 308, -1,
      306, 308, 228, -1,
      326, 360, 250, -1,
      368, 369, 355, -1,
      355, 369, 370, -1,
      355, 370, 356, -1,
      356, 370, 371, -1,
      356, 371, 361, -1,
      372, 359, 373, -1,
      373, 359, 358, -1,
      373, 358, 374, -1,
      374, 358, 360, -1,
      374, 360, 375, -1,
      353, 368, 354, -1,
      354, 368, 355, -1,
      354, 355, 376, -1,
      376, 355, 357, -1,
      376, 357, 377, -1,
      377, 357, 250, -1,
      326, 324, 360, -1,
      360, 324, 322, -1,
      360, 322, 375, -1,
      375, 322, 320, -1,
      375, 320, 318, -1,
      378, 372, 379, -1,
      379, 372, 373, -1,
      379, 373, 380, -1,
      380, 373, 374, -1,
      380, 374, 381, -1,
      381, 374, 375, -1,
      381, 375, 382, -1,
      382, 375, 318, -1,
      351, 378, 383, -1,
      383, 378, 379, -1,
      383, 379, 384, -1,
      384, 379, 380, -1,
      384, 380, 385, -1,
      385, 380, 381, -1,
      385, 381, 386, -1,
      386, 381, 382, -1,
      386, 382, 387, -1,
      350, 352, 351, -1,
      351, 352, 354, -1,
      351, 354, 378, -1,
      378, 354, 376, -1,
      378, 376, 372, -1,
      372, 376, 377, -1,
      372, 377, 359, -1,
      359, 377, 250, -1,
      296, 233, 362, -1,
      362, 233, 388, -1,
      362, 388, 349, -1,
      318, 316, 382, -1,
      382, 316, 314, -1,
      382, 314, 387, -1,
      387, 314, 312, -1,
      387, 312, 310, -1,
      349, 351, 362, -1,
      362, 351, 383, -1,
      362, 383, 363, -1,
      363, 383, 384, -1,
      363, 384, 364, -1,
      364, 384, 385, -1,
      364, 385, 365, -1,
      365, 385, 386, -1,
      365, 386, 366, -1,
      366, 386, 387, -1,
      366, 387, 367, -1,
      367, 387, 310, -1,
      367, 310, 308, -1,
      309, 311, 389, -1,
      313, 315, 390, -1,
      391, 392, 393, -1,
      254, 394, 395, -1,
      396, 394, 254, -1,
      393, 392, 254, -1,
      325, 254, 392, -1,
      328, 397, 333, -1,
      333, 397, 398, -1,
      333, 398, 332, -1,
      332, 398, 331, -1,
      331, 398, 399, -1,
      331, 399, 330, -1,
      330, 399, 329, -1,
      329, 399, 400, -1,
      329, 400, 336, -1,
      336, 400, 335, -1,
      335, 400, 401, -1,
      335, 401, 334, -1,
      334, 401, 327, -1,
      327, 401, 402, -1,
      327, 402, 337, -1,
      337, 402, 403, -1,
      337, 403, 240, -1,
      404, 396, 254, -1,
      317, 319, 391, -1,
      391, 319, 321, -1,
      391, 321, 392, -1,
      392, 321, 323, -1,
      392, 323, 325, -1,
      405, 395, 406, -1,
      406, 395, 394, -1,
      406, 394, 407, -1,
      407, 394, 396, -1,
      407, 396, 408, -1,
      315, 317, 390, -1,
      390, 317, 391, -1,
      390, 391, 409, -1,
      409, 391, 393, -1,
      409, 393, 410, -1,
      410, 393, 254, -1,
      404, 411, 396, -1,
      396, 411, 412, -1,
      396, 412, 408, -1,
      408, 412, 413, -1,
      408, 413, 414, -1,
      415, 405, 416, -1,
      416, 405, 406, -1,
      416, 406, 417, -1,
      417, 406, 407, -1,
      417, 407, 418, -1,
      418, 407, 408, -1,
      418, 408, 419, -1,
      419, 408, 414, -1,
      389, 415, 420, -1,
      420, 415, 416, -1,
      420, 416, 421, -1,
      421, 416, 417, -1,
      421, 417, 422, -1,
      422, 417, 418, -1,
      422, 418, 423, -1,
      423, 418, 419, -1,
      423, 419, 424, -1,
      311, 313, 389, -1,
      389, 313, 390, -1,
      389, 390, 415, -1,
      415, 390, 409, -1,
      415, 409, 405, -1,
      405, 409, 410, -1,
      405, 410, 395, -1,
      395, 410, 254, -1,
      328, 229, 397, -1,
      397, 229, 307, -1,
      397, 307, 309, -1,
      414, 425, 419, -1,
      419, 425, 426, -1,
      419, 426, 424, -1,
      424, 426, 427, -1,
      424, 427, 428, -1,
      309, 389, 397, -1,
      397, 389, 420, -1,
      397, 420, 398, -1,
      398, 420, 421, -1,
      398, 421, 399, -1,
      399, 421, 422, -1,
      399, 422, 400, -1,
      400, 422, 423, -1,
      400, 423, 401, -1,
      401, 423, 424, -1,
      401, 424, 402, -1,
      402, 424, 428, -1,
      402, 428, 403, -1,
      429, 217, 42, -1,
      429, 42, 430, -1,
      430, 42, 48, -1,
      430, 48, 431, -1,
      431, 48, 50, -1,
      431, 50, 432, -1,
      432, 50, 433, -1,
      433, 50, 51, -1,
      433, 51, 434, -1,
      434, 51, 435, -1,
      435, 51, 49, -1,
      435, 49, 436, -1,
      436, 49, 437, -1,
      437, 49, 47, -1,
      437, 47, 438, -1,
      46, 213, 47, -1,
      47, 213, 439, -1,
      47, 439, 438, -1,
      238, 237, 347, -1,
      347, 237, 440, -1,
      347, 440, 346, -1,
      346, 440, 441, -1,
      346, 441, 345, -1,
      345, 441, 442, -1,
      345, 442, 344, -1,
      442, 443, 344, -1,
      344, 443, 444, -1,
      344, 444, 343, -1,
      444, 445, 343, -1,
      343, 445, 446, -1,
      343, 446, 342, -1,
      342, 446, 447, -1,
      342, 447, 341, -1,
      341, 447, 448, -1,
      341, 448, 340, -1,
      340, 448, 449, -1,
      340, 449, 339, -1,
      339, 449, 235, -1,
      235, 449, 450, -1,
      235, 450, 234, -1,
      233, 234, 388, -1,
      388, 234, 451, -1,
      388, 451, 349, -1,
      349, 451, 452, -1,
      349, 452, 350, -1,
      350, 452, 453, -1,
      350, 453, 352, -1,
      352, 453, 454, -1,
      352, 454, 353, -1,
      353, 454, 455, -1,
      353, 455, 368, -1,
      368, 455, 456, -1,
      368, 456, 369, -1,
      369, 456, 457, -1,
      369, 457, 370, -1,
      370, 457, 458, -1,
      370, 458, 371, -1,
      371, 458, 459, -1,
      371, 459, 361, -1,
      459, 460, 361, -1,
      361, 460, 245, -1,
      361, 245, 250, -1,
      241, 240, 461, -1,
      461, 240, 403, -1,
      461, 403, 462, -1,
      462, 403, 428, -1,
      462, 428, 463, -1,
      463, 428, 427, -1,
      463, 427, 464, -1,
      464, 427, 426, -1,
      464, 426, 465, -1,
      465, 426, 425, -1,
      465, 425, 466, -1,
      466, 425, 414, -1,
      466, 414, 467, -1,
      467, 414, 413, -1,
      467, 413, 468, -1,
      468, 413, 412, -1,
      468, 412, 469, -1,
      469, 412, 411, -1,
      469, 411, 470, -1,
      411, 404, 470, -1,
      470, 404, 254, -1,
      470, 254, 262, -1,
      242, 241, 438, -1,
      438, 241, 471, -1,
      438, 471, 437, -1,
      437, 471, 472, -1,
      437, 472, 436, -1,
      436, 472, 473, -1,
      436, 473, 435, -1,
      473, 474, 435, -1,
      435, 474, 475, -1,
      435, 475, 434, -1,
      475, 476, 434, -1,
      434, 476, 477, -1,
      434, 477, 433, -1,
      433, 477, 478, -1,
      433, 478, 432, -1,
      432, 478, 479, -1,
      432, 479, 431, -1,
      431, 479, 480, -1,
      431, 480, 430, -1,
      430, 480, 239, -1,
      239, 480, 481, -1,
      239, 481, 236, -1,
      482, 483, 484, -1,
      485, 486, 487, -1,
      488, 489, 490, -1,
      245, 491, 492, -1,
      493, 491, 245, -1,
      490, 489, 245, -1,
      494, 245, 489, -1,
      440, 495, 441, -1,
      441, 495, 496, -1,
      441, 496, 442, -1,
      442, 496, 443, -1,
      443, 496, 497, -1,
      443, 497, 444, -1,
      444, 497, 445, -1,
      445, 497, 498, -1,
      445, 498, 446, -1,
      446, 498, 447, -1,
      447, 498, 499, -1,
      447, 499, 448, -1,
      448, 499, 449, -1,
      449, 499, 500, -1,
      449, 500, 450, -1,
      450, 500, 451, -1,
      450, 451, 234, -1,
      460, 493, 245, -1,
      501, 502, 488, -1,
      488, 502, 503, -1,
      488, 503, 489, -1,
      489, 503, 504, -1,
      489, 504, 494, -1,
      505, 492, 506, -1,
      506, 492, 491, -1,
      506, 491, 507, -1,
      507, 491, 493, -1,
      507, 493, 508, -1,
      486, 501, 487, -1,
      487, 501, 488, -1,
      487, 488, 509, -1,
      509, 488, 490, -1,
      509, 490, 510, -1,
      510, 490, 245, -1,
      460, 459, 493, -1,
      493, 459, 458, -1,
      493, 458, 508, -1,
      508, 458, 457, -1,
      508, 457, 456, -1,
      511, 505, 512, -1,
      512, 505, 506, -1,
      512, 506, 513, -1,
      513, 506, 507, -1,
      513, 507, 514, -1,
      514, 507, 508, -1,
      514, 508, 515, -1,
      515, 508, 456, -1,
      484, 511, 516, -1,
      516, 511, 512, -1,
      516, 512, 517, -1,
      517, 512, 513, -1,
      517, 513, 518, -1,
      518, 513, 514, -1,
      518, 514, 519, -1,
      519, 514, 515, -1,
      519, 515, 520, -1,
      483, 485, 484, -1,
      484, 485, 487, -1,
      484, 487, 511, -1,
      511, 487, 509, -1,
      511, 509, 505, -1,
      505, 509, 510, -1,
      505, 510, 492, -1,
      492, 510, 245, -1,
      440, 237, 495, -1,
      495, 237, 521, -1,
      495, 521, 482, -1,
      456, 455, 515, -1,
      515, 455, 454, -1,
      515, 454, 520, -1,
      520, 454, 453, -1,
      520, 453, 452, -1,
      482, 484, 495, -1,
      495, 484, 516, -1,
      495, 516, 496, -1,
      496, 516, 517, -1,
      496, 517, 497, -1,
      497, 517, 518, -1,
      497, 518, 498, -1,
      498, 518, 519, -1,
      498, 519, 499, -1,
      499, 519, 520, -1,
      499, 520, 500, -1,
      500, 520, 452, -1,
      500, 452, 451, -1,
      462, 463, 522, -1,
      464, 465, 523, -1,
      524, 525, 526, -1,
      262, 527, 528, -1,
      529, 527, 262, -1,
      526, 525, 262, -1,
      470, 262, 525, -1,
      471, 530, 472, -1,
      472, 530, 531, -1,
      472, 531, 473, -1,
      473, 531, 474, -1,
      474, 531, 532, -1,
      474, 532, 475, -1,
      475, 532, 476, -1,
      476, 532, 533, -1,
      476, 533, 477, -1,
      477, 533, 478, -1,
      478, 533, 534, -1,
      478, 534, 479, -1,
      479, 534, 480, -1,
      480, 534, 535, -1,
      480, 535, 481, -1,
      481, 535, 536, -1,
      481, 536, 236, -1,
      537, 529, 262, -1,
      466, 467, 524, -1,
      524, 467, 468, -1,
      524, 468, 525, -1,
      525, 468, 469, -1,
      525, 469, 470, -1,
      538, 528, 539, -1,
      539, 528, 527, -1,
      539, 527, 540, -1,
      540, 527, 529, -1,
      540, 529, 541, -1,
      465, 466, 523, -1,
      523, 466, 524, -1,
      523, 524, 542, -1,
      542, 524, 526, -1,
      542, 526, 543, -1,
      543, 526, 262, -1,
      537, 544, 529, -1,
      529, 544, 545, -1,
      529, 545, 541, -1,
      541, 545, 546, -1,
      541, 546, 547, -1,
      548, 538, 549, -1,
      549, 538, 539, -1,
      549, 539, 550, -1,
      550, 539, 540, -1,
      550, 540, 551, -1,
      551, 540, 541, -1,
      551, 541, 552, -1,
      552, 541, 547, -1,
      522, 548, 553, -1,
      553, 548, 549, -1,
      553, 549, 554, -1,
      554, 549, 550, -1,
      554, 550, 555, -1,
      555, 550, 551, -1,
      555, 551, 556, -1,
      556, 551, 552, -1,
      556, 552, 557, -1,
      463, 464, 522, -1,
      522, 464, 523, -1,
      522, 523, 548, -1,
      548, 523, 542, -1,
      548, 542, 538, -1,
      538, 542, 543, -1,
      538, 543, 528, -1,
      528, 543, 262, -1,
      471, 241, 530, -1,
      530, 241, 461, -1,
      530, 461, 462, -1,
      547, 558, 552, -1,
      552, 558, 559, -1,
      552, 559, 557, -1,
      557, 559, 560, -1,
      557, 560, 561, -1,
      462, 522, 530, -1,
      530, 522, 553, -1,
      530, 553, 531, -1,
      531, 553, 554, -1,
      531, 554, 532, -1,
      532, 554, 555, -1,
      532, 555, 533, -1,
      533, 555, 556, -1,
      533, 556, 534, -1,
      534, 556, 557, -1,
      534, 557, 535, -1,
      535, 557, 561, -1,
      535, 561, 536, -1,
      237, 236, 521, -1,
      521, 236, 536, -1,
      521, 536, 482, -1,
      482, 536, 561, -1,
      482, 561, 483, -1,
      483, 561, 560, -1,
      483, 560, 485, -1,
      485, 560, 559, -1,
      485, 559, 486, -1,
      486, 559, 558, -1,
      486, 558, 501, -1,
      501, 558, 547, -1,
      501, 547, 502, -1,
      502, 547, 546, -1,
      502, 546, 503, -1,
      503, 546, 545, -1,
      503, 545, 504, -1,
      504, 545, 544, -1,
      504, 544, 494, -1,
      544, 537, 494, -1,
      494, 537, 262, -1,
      494, 262, 245, -1,
    ]
  }
}

Shape {
  appearance Appearance {
    material Material {
      diffuseColor 0.0000 0.0000 0.0000
      specularColor 0.0000 0.0000 0.0000
      ambientIntensity 0.2
      transparency 0.0000
      shininess 0.5
    }
  }
  geometry IndexedFaceSet {
    ccw TRUE
    solid FALSE
    coord DEF co Coordinate {
      point [
        -0.875158 0.817691 0.393701,
        -0.882524 0.835473 0.393701,
        -0.894241 0.850743 0.393701,
        -0.872646 0.798608 0.393701,
        -0.875158 0.779526 0.393701,
        -0.882524 0.761743 0.393701,
        -0.894241 0.746473 0.393701,
        -0.909511 0.734756 0.393701,
        -0.927293 0.727391 0.393701,
        -0.946376 0.724878 0.393701,
        -0.965458 0.727391 0.393701,
        -0.983240 0.734756 0.393701,
        -0.998510 0.746473 0.393701,
        -1.017593 0.817691 0.393701,
        -1.010227 0.835473 0.393701,
        -0.998510 0.850743 0.393701,
        -0.946376 0.872338 0.393701,
        -0.927293 0.869826 0.393701,
        -0.909511 0.862460 0.393701,
        -1.010227 0.761743 0.393701,
        -1.017593 0.779526 0.393701,
        -1.020105 0.798608 0.393701,
        -0.983240 0.862460 0.393701,
        -0.965458 0.869826 0.393701,
        -0.872646 0.798608 0.393307,
        -0.875158 0.817691 0.393307,
        -0.882524 0.835473 0.393307,
        -0.894241 0.850743 0.393307,
        -0.909511 0.862460 0.393307,
        -0.927293 0.869826 0.393307,
        -0.946376 0.872338 0.393307,
        -0.965458 0.869826 0.393307,
        -0.983240 0.862460 0.393307,
        -0.998510 0.850743 0.393307,
        -1.010227 0.835473 0.393307,
        -1.017593 0.817691 0.393307,
        -1.020105 0.798608 0.393307,
        -1.017593 0.779526 0.393307,
        -1.010227 0.761743 0.393307,
        -0.998510 0.746473 0.393307,
        -0.983240 0.734756 0.393307,
        -0.965458 0.727391 0.393307,
        -0.946376 0.724878 0.393307,
        -0.927293 0.727391 0.393307,
        -0.909511 0.734756 0.393307,
        -0.894241 0.746473 0.393307,
        -0.882524 0.761743 0.393307,
        -0.875158 0.779526 0.393307,
        -0.946376 0.798608 0.393307,
      ]
    }
    coordIndex [
      24, 3, 25, -1,
      25, 3, 0, -1,
      25, 0, 26, -1,
      26, 0, 1, -1,
      26, 1, 27, -1,
      27, 1, 2, -1,
      27, 2, 28, -1,
      28, 2, 18, -1,
      28, 18, 29, -1,
      29, 18, 17, -1,
      29, 17, 30, -1,
      30, 17, 16, -1,
      30, 16, 31, -1,
      31, 16, 23, -1,
      31, 23, 32, -1,
      32, 23, 22, -1,
      32, 22, 33, -1,
      33, 22, 15, -1,
      33, 15, 34, -1,
      34, 15, 14, -1,
      34, 14, 35, -1,
      35, 14, 13, -1,
      35, 13, 36, -1,
      36, 13, 21, -1,
      36, 21, 37, -1,
      37, 21, 20, -1,
      37, 20, 38, -1,
      38, 20, 19, -1,
      38, 19, 39, -1,
      39, 19, 12, -1,
      39, 12, 40, -1,
      40, 12, 11, -1,
      40, 11, 41, -1,
      41, 11, 10, -1,
      41, 10, 42, -1,
      42, 10, 9, -1,
      42, 9, 43, -1,
      43, 9, 8, -1,
      43, 8, 44, -1,
      44, 8, 7, -1,
      44, 7, 45, -1,
      45, 7, 6, -1,
      45, 6, 46, -1,
      46, 6, 5, -1,
      46, 5, 47, -1,
      47, 5, 4, -1,
      47, 4, 24, -1,
      24, 4, 3, -1,
      46, 47, 48, -1,
      48, 47, 24, -1,
      48, 24, 25, -1,
      43, 44, 48, -1,
      48, 44, 45, -1,
      48, 45, 46, -1,
      40, 41, 48, -1,
      48, 41, 42, -1,
      48, 42, 43, -1,
      37, 38, 48, -1,
      48, 38, 39, -1,
      48, 39, 40, -1,
      34, 35, 48, -1,
      48, 35, 36, -1,
      48, 36, 37, -1,
      31, 32, 48, -1,
      48, 32, 33, -1,
      48, 33, 34, -1,
      28, 29, 48, -1,
      48, 29, 30, -1,
      48, 30, 31, -1,
      25, 26, 48, -1,
      48, 26, 27, -1,
      48, 27, 28, -1,
    ]
  }
}

Shape {
  appearance Appearance {
    material Material {
      diffuseColor 1.0000 1.0000 1.0000
      specularColor 0.5020 0.5020 0.5020
      ambientIntensity 0.2
      transparency 0.0000
      shininess 0.5
    }
  }
  geometry IndexedFaceSet {
    ccw TRUE
    solid FALSE
    coord DEF co Coordinate {
      point [
        -1.131890 0.681102 0.000000,
        -1.114173 0.681102 0.000000,
        -1.102362 0.669291 0.000000,
        -0.940945 0.669291 0.000000,
        -0.940945 0.830709 0.000000,
        -1.102362 0.830709 0.000000,
        -1.114173 0.818898 0.000000,
        -1.131890 0.818898 0.000000,
        -1.131890 0.681102 0.098425,
        -1.131890 0.818898 0.098425,
        -0.940945 0.669291 -0.003937,
        -0.940945 0.830709 -0.003937,
        -1.102362 0.830709 -0.003937,
        -1.114173 0.818898 -0.003937,
        -1.181102 0.818898 -0.003937,
        -1.181102 0.818898 0.098425,
        -1.114173 0.681102 -0.003937,
        -1.181102 0.681102 0.098425,
        -1.181102 0.681102 -0.003937,
        -1.102362 0.669291 -0.003937,
      ]
    }
    coordIndex [
      10, 11, 3, -1,
      3, 11, 4, -1,
      11, 12, 4, -1,
      4, 12, 5, -1,
      6, 13, 7, -1,
      7, 13, 14, -1,
      7, 14, 9, -1,
      9, 14, 15, -1,
      16, 1, 0, -1,
      8, 17, 0, -1,
      0, 17, 18, -1,
      0, 18, 16, -1,
      19, 10, 2, -1,
      2, 10, 3, -1,
      15, 17, 9, -1,
      9, 17, 8, -1,
      18, 17, 14, -1,
      14, 17, 15, -1,
      11, 10, 12, -1,
      12, 10, 19, -1,
      12, 19, 13, -1,
      13, 19, 16, -1,
      13, 16, 14, -1,
      14, 16, 18, -1,
    ]
  }
}

Shape {
  appearance Appearance {
    material Material {
      diffuseColor 0.5020 0.2510 0.0000
      specularColor 0.4431 0.2196 0.0000
      ambientIntensity 0.2
      transparency 0.0000
      shininess 0.5
    }
  }
  geometry IndexedFaceSet {
    ccw TRUE
    solid FALSE
    coord DEF co Coordinate {
      point [
        -1.114173 0.681102 0.000000,
        -1.102362 0.669291 0.000000,
        -1.102362 0.830709 0.000000,
        -1.114173 0.818898 0.000000,
        -1.102362 0.830709 -0.003937,
        -1.114173 0.818898 -0.003937,
        -1.114173 0.681102 -0.003937,
        -1.102362 0.669291 -0.003937,
      ]
    }
    coordIndex [
      6, 7, 0, -1,
      0, 7, 1, -1,
      4, 5, 2, -1,
      2, 5, 3, -1,
    ]
  }
}

Shape {
  appearance Appearance {
    material Material {
      diffuseColor 1.0000 1.0000 1.0000
      specularColor 0.5020 0.5020 0.5020
      ambientIntensity 0.2
      transparency 0.0000
      shininess 0.5
    }
  }
  geometry IndexedFaceSet {
    ccw TRUE
    solid FALSE
    coord DEF co Coordinate {
      point [
        -1.131890 0.181102 0.000000,
        -1.114173 0.181102 0.000000,
        -1.102362 0.169291 0.000000,
        -0.940945 0.169291 0.000000,
        -0.940945 0.330709 0.000000,
        -1.114173 0.318898 0.000000,
        -1.131890 0.318898 0.000000,
        -1.102362 0.330709 0.000000,
        -1.131890 -0.818898 0.000000,
        -1.114173 -0.818898 0.000000,
        -1.102362 -0.830709 0.000000,
        -0.940945 -0.830709 0.000000,
        -1.114173 -0.681102 0.000000,
        -1.131890 -0.681102 0.000000,
        -1.102362 -0.669291 0.000000,
        -1.131890 -0.318898 0.000000,
        -1.114173 -0.181102 0.000000,
        -1.131890 -0.181102 0.000000,
        -1.102362 -0.169291 0.000000,
        -0.940945 -0.169291 0.000000,
        -0.940945 -0.330709 0.000000,
        -0.940945 -0.669291 0.000000,
        -1.102362 -0.330709 0.000000,
        -1.114173 -0.318898 0.000000,
        -0.401575 -0.846457 0.000000,
        -0.401575 -0.964567 0.000000,
        -0.448819 -0.846457 0.000000,
        -0.401575 0.964567 0.000000,
        -0.401575 0.846457 0.000000,
        -0.448819 0.846457 0.000000,
        -0.303150 0.964567 0.098425,
        -0.303150 0.964567 0.000000,
        -0.401575 -0.964567 0.098425,
        0.929134 0.830709 0.000000,
        0.929134 0.750000 0.000000,
        -0.263780 0.750000 0.000000,
        -0.303150 0.846457 0.000000,
        -0.263780 0.846457 0.000000,
        1.131890 0.818898 0.000000,
        1.114173 0.818898 0.000000,
        1.102362 0.830709 0.000000,
        -0.263780 -0.750000 0.000000,
        0.929134 -0.750000 0.000000,
        -0.263780 -0.846457 0.000000,
        0.929134 -0.830709 0.000000,
        -0.303150 -0.964567 0.000000,
        -0.303150 -0.846457 0.000000,
        1.114173 -0.818898 0.000000,
        1.131890 -0.818898 0.000000,
        1.102362 -0.830709 0.000000,
        1.131890 -0.681102 0.000000,
        1.114173 -0.681102 0.000000,
        1.131890 -0.318898 0.000000,
        1.102362 -0.669291 0.000000,
        1.114173 -0.318898 0.000000,
        1.102362 -0.330709 0.000000,
        0.960630 -0.330709 0.000000,
        0.960630 -0.669291 0.000000,
        1.131890 -0.181102 0.000000,
        1.114173 -0.181102 0.000000,
        1.131890 0.181102 0.000000,
        1.102362 -0.169291 0.000000,
        1.114173 0.181102 0.000000,
        1.102362 0.169291 0.000000,
        0.960630 0.169291 0.000000,
        0.960630 -0.169291 0.000000,
        1.131890 -0.681102 0.098425,
        1.131890 -0.318898 0.098425,
        1.131890 -0.181102 0.098425,
        1.131890 0.181102 0.098425,
        1.131890 0.318898 0.000000,
        1.131890 0.681102 0.000000,
        1.131890 0.318898 0.098425,
        1.131890 0.681102 0.098425,
        1.131890 0.818898 0.098425,
        -1.131890 -0.681102 0.098425,
        -1.131890 -0.318898 0.098425,
        -1.131890 -0.181102 0.098425,
        -1.131890 0.181102 0.098425,
        -1.131890 0.318898 0.098425,
        1.131890 -0.818898 0.098425,
        -0.401575 0.964567 0.098425,
        -1.131890 -0.818898 0.098425,
        -0.303150 -0.964567 0.098425,
        1.114173 0.318898 0.000000,
        1.102362 0.330709 0.000000,
        1.114173 0.681102 0.000000,
        1.102362 0.669291 0.000000,
        0.960630 0.669291 0.000000,
        0.960630 0.330709 0.000000,
        -1.114173 0.318898 -0.003937,
        -1.181102 0.318898 -0.003937,
        -1.181102 0.318898 0.098425,
        -1.181102 0.181102 0.098425,
        -1.181102 0.181102 -0.003937,
        -1.114173 0.181102 -0.003937,
        -0.940945 0.330709 -0.003937,
        -1.102362 0.330709 -0.003937,
        -0.940945 0.169291 -0.003937,
        -1.102362 0.169291 -0.003937,
        -1.114173 -0.181102 -0.003937,
        -1.181102 -0.181102 -0.003937,
        -1.181102 -0.181102 0.098425,
        -1.181102 -0.318898 0.098425,
        -1.181102 -0.318898 -0.003937,
        -1.114173 -0.318898 -0.003937,
        -0.940945 -0.169291 -0.003937,
        -1.102362 -0.169291 -0.003937,
        -0.940945 -0.330709 -0.003937,
        -1.102362 -0.330709 -0.003937,
        -1.114173 -0.681102 -0.003937,
        -1.181102 -0.681102 -0.003937,
        -1.181102 -0.681102 0.098425,
        -1.181102 -0.818898 0.098425,
        -1.181102 -0.818898 -0.003937,
        -1.114173 -0.818898 -0.003937,
        -0.940945 -0.669291 -0.003937,
        -1.102362 -0.669291 -0.003937,
        -0.940945 -0.830709 -0.003937,
        -1.102362 -0.830709 -0.003937,
        1.114173 0.818898 -0.003937,
        1.181102 0.818898 0.098425,
        1.181102 0.818898 -0.003937,
        1.181102 0.681102 0.098425,
        1.181102 0.681102 -0.003937,
        1.114173 0.681102 -0.003937,
        1.102362 0.830709 -0.003937,
        0.929134 0.830709 -0.003937,
        1.102362 0.669291 -0.003937,
        0.960630 0.669291 -0.003937,
        -0.303150 0.846457 -0.003937,
        -0.263780 0.846457 -0.003937,
        -0.263780 0.750000 -0.003937,
        -0.303150 -0.846457 -0.003937,
        -0.303150 -0.968504 -0.003937,
        -0.401575 -0.968504 -0.003937,
        -0.401575 -0.846457 -0.003937,
        -0.448819 -0.846457 -0.003937,
        0.929134 0.750000 -0.003937,
        -0.401575 0.968504 -0.003937,
        -0.303150 0.968504 -0.003937,
        -0.401575 0.846457 -0.003937,
        -0.263780 -0.750000 -0.003937,
        -0.263780 -0.846457 -0.003937,
        1.114173 0.318898 -0.003937,
        1.181102 0.318898 -0.003937,
        1.181102 0.181102 -0.003937,
        -0.448819 0.846457 -0.003937,
        1.114173 0.181102 -0.003937,
        1.102362 0.169291 -0.003937,
        1.102362 0.330709 -0.003937,
        0.960630 0.169291 -0.003937,
        0.960630 0.330709 -0.003937,
        1.114173 -0.181102 -0.003937,
        1.181102 -0.181102 -0.003937,
        1.181102 -0.318898 -0.003937,
        1.114173 -0.318898 -0.003937,
        1.102362 -0.330709 -0.003937,
        1.102362 -0.169291 -0.003937,
        0.960630 -0.330709 -0.003937,
        0.960630 -0.169291 -0.003937,
        0.929134 -0.750000 -0.003937,
        1.102362 -0.830709 -0.003937,
        0.929134 -0.830709 -0.003937,
        1.114173 -0.681102 -0.003937,
        1.181102 -0.681102 -0.003937,
        1.181102 -0.818898 -0.003937,
        0.960630 -0.669291 -0.003937,
        1.102362 -0.669291 -0.003937,
        1.114173 -0.818898 -0.003937,
        1.181102 0.318898 0.098425,
        1.181102 0.181102 0.098425,
        1.181102 -0.181102 0.098425,
        1.181102 -0.318898 0.098425,
        1.181102 -0.681102 0.098425,
        1.181102 -0.818898 0.098425,
        -0.303150 0.968504 0.098425,
        -0.401575 0.968504 0.098425,
        -0.401575 -0.968504 0.098425,
        -0.303150 -0.968504 0.098425,
      ]
    }
    coordIndex [
      5, 90, 6, -1,
      6, 90, 91, -1,
      6, 91, 79, -1,
      79, 91, 92, -1,
      92, 93, 79, -1,
      79, 93, 78, -1,
      94, 93, 91, -1,
      91, 93, 92, -1,
      95, 1, 0, -1,
      78, 93, 0, -1,
      0, 93, 94, -1,
      0, 94, 95, -1,
      96, 97, 4, -1,
      4, 97, 7, -1,
      98, 96, 3, -1,
      3, 96, 4, -1,
      99, 98, 2, -1,
      2, 98, 3, -1,
      95, 99, 1, -1,
      1, 99, 2, -1,
      96, 98, 97, -1,
      97, 98, 99, -1,
      97, 99, 90, -1,
      90, 99, 95, -1,
      90, 95, 91, -1,
      91, 95, 94, -1,
      97, 90, 7, -1,
      7, 90, 5, -1,
      16, 100, 17, -1,
      17, 100, 101, -1,
      17, 101, 77, -1,
      77, 101, 102, -1,
      102, 103, 77, -1,
      77, 103, 76, -1,
      104, 103, 101, -1,
      101, 103, 102, -1,
      105, 23, 15, -1,
      76, 103, 15, -1,
      15, 103, 104, -1,
      15, 104, 105, -1,
      106, 107, 19, -1,
      19, 107, 18, -1,
      108, 106, 20, -1,
      20, 106, 19, -1,
      109, 108, 22, -1,
      22, 108, 20, -1,
      105, 109, 23, -1,
      23, 109, 22, -1,
      106, 108, 107, -1,
      107, 108, 109, -1,
      107, 109, 100, -1,
      100, 109, 105, -1,
      100, 105, 101, -1,
      101, 105, 104, -1,
      107, 100, 18, -1,
      18, 100, 16, -1,
      12, 110, 13, -1,
      13, 110, 111, -1,
      13, 111, 75, -1,
      75, 111, 112, -1,
      112, 113, 75, -1,
      75, 113, 82, -1,
      114, 113, 111, -1,
      111, 113, 112, -1,
      115, 9, 8, -1,
      82, 113, 8, -1,
      8, 113, 114, -1,
      8, 114, 115, -1,
      116, 117, 21, -1,
      21, 117, 14, -1,
      118, 116, 11, -1,
      11, 116, 21, -1,
      119, 118, 10, -1,
      10, 118, 11, -1,
      115, 119, 9, -1,
      9, 119, 10, -1,
      116, 118, 117, -1,
      117, 118, 119, -1,
      117, 119, 110, -1,
      110, 119, 115, -1,
      110, 115, 111, -1,
      111, 115, 114, -1,
      117, 110, 14, -1,
      14, 110, 12, -1,
      120, 39, 38, -1,
      74, 121, 38, -1,
      38, 121, 122, -1,
      38, 122, 120, -1,
      123, 121, 73, -1,
      73, 121, 74, -1,
      123, 124, 121, -1,
      121, 124, 122, -1,
      86, 125, 71, -1,
      71, 125, 124, -1,
      71, 124, 73, -1,
      73, 124, 123, -1,
      126, 127, 40, -1,
      40, 127, 33, -1,
      128, 87, 129, -1,
      129, 87, 88, -1,
      128, 125, 87, -1,
      87, 125, 86, -1,
      130, 131, 132, -1,
      133, 134, 135, -1,
      136, 137, 132, -1,
      138, 128, 129, -1,
      139, 140, 141, -1,
      141, 140, 130, -1,
      135, 136, 133, -1,
      133, 136, 142, -1,
      133, 142, 143, -1,
      144, 145, 146, -1,
      120, 122, 124, -1,
      130, 132, 141, -1,
      141, 132, 137, -1,
      141, 137, 147, -1,
      146, 148, 144, -1,
      144, 148, 149, -1,
      144, 149, 150, -1,
      150, 149, 151, -1,
      150, 151, 152, -1,
      152, 151, 142, -1,
      152, 142, 129, -1,
      129, 142, 136, -1,
      129, 136, 138, -1,
      138, 136, 132, -1,
      124, 125, 120, -1,
      120, 125, 128, -1,
      120, 128, 126, -1,
      126, 128, 138, -1,
      126, 138, 127, -1,
      153, 154, 155, -1,
      155, 156, 153, -1,
      153, 156, 157, -1,
      153, 157, 158, -1,
      158, 157, 159, -1,
      158, 159, 160, -1,
      151, 160, 142, -1,
      142, 160, 159, -1,
      142, 159, 161, -1,
      162, 163, 161, -1,
      164, 165, 166, -1,
      159, 167, 161, -1,
      161, 167, 168, -1,
      161, 168, 162, -1,
      162, 168, 164, -1,
      162, 164, 169, -1,
      169, 164, 166, -1,
      120, 126, 39, -1,
      39, 126, 40, -1,
      144, 84, 70, -1,
      72, 170, 70, -1,
      70, 170, 145, -1,
      70, 145, 144, -1,
      171, 170, 69, -1,
      69, 170, 72, -1,
      171, 146, 170, -1,
      170, 146, 145, -1,
      62, 148, 60, -1,
      60, 148, 146, -1,
      60, 146, 69, -1,
      69, 146, 171, -1,
      85, 150, 89, -1,
      89, 150, 152, -1,
      149, 63, 151, -1,
      151, 63, 64, -1,
      149, 148, 63, -1,
      63, 148, 62, -1,
      144, 150, 84, -1,
      84, 150, 85, -1,
      153, 59, 58, -1,
      68, 172, 58, -1,
      58, 172, 154, -1,
      58, 154, 153, -1,
      173, 172, 67, -1,
      67, 172, 68, -1,
      173, 155, 172, -1,
      172, 155, 154, -1,
      54, 156, 52, -1,
      52, 156, 155, -1,
      52, 155, 67, -1,
      67, 155, 173, -1,
      61, 158, 65, -1,
      65, 158, 160, -1,
      157, 55, 159, -1,
      159, 55, 56, -1,
      157, 156, 55, -1,
      55, 156, 54, -1,
      153, 158, 59, -1,
      59, 158, 61, -1,
      164, 51, 50, -1,
      66, 174, 50, -1,
      50, 174, 165, -1,
      50, 165, 164, -1,
      175, 174, 80, -1,
      80, 174, 66, -1,
      175, 166, 174, -1,
      174, 166, 165, -1,
      47, 169, 48, -1,
      48, 169, 166, -1,
      48, 166, 80, -1,
      80, 166, 175, -1,
      53, 168, 57, -1,
      57, 168, 167, -1,
      163, 162, 44, -1,
      44, 162, 49, -1,
      162, 169, 49, -1,
      49, 169, 47, -1,
      164, 168, 51, -1,
      51, 168, 53, -1,
      127, 138, 33, -1,
      33, 138, 34, -1,
      138, 132, 34, -1,
      34, 132, 35, -1,
      132, 131, 35, -1,
      35, 131, 37, -1,
      131, 130, 37, -1,
      37, 130, 36, -1,
      36, 130, 31, -1,
      31, 130, 140, -1,
      31, 140, 30, -1,
      30, 140, 176, -1,
      81, 177, 27, -1,
      27, 177, 139, -1,
      27, 139, 28, -1,
      28, 139, 141, -1,
      141, 147, 28, -1,
      28, 147, 29, -1,
      147, 137, 29, -1,
      29, 137, 26, -1,
      137, 136, 26, -1,
      26, 136, 24, -1,
      24, 136, 25, -1,
      25, 136, 135, -1,
      25, 135, 32, -1,
      32, 135, 178, -1,
      83, 179, 45, -1,
      45, 179, 134, -1,
      45, 134, 46, -1,
      46, 134, 133, -1,
      133, 143, 46, -1,
      46, 143, 43, -1,
      143, 142, 43, -1,
      43, 142, 41, -1,
      142, 161, 41, -1,
      41, 161, 42, -1,
      161, 163, 42, -1,
      42, 163, 44, -1,
      178, 179, 32, -1,
      32, 179, 83, -1,
      176, 177, 30, -1,
      30, 177, 81, -1,
      152, 129, 89, -1,
      89, 129, 88, -1,
      160, 151, 65, -1,
      65, 151, 64, -1,
      167, 159, 57, -1,
      57, 159, 56, -1,
      139, 177, 140, -1,
      140, 177, 176, -1,
      134, 179, 135, -1,
      135, 179, 178, -1,
    ]
  }
}

Shape {
  appearance Appearance {
    material Material {
      diffuseColor 0.0000 0.0000 0.0000
      specularColor 0.0000 0.0000 0.0000
      ambientIntensity 0.2
      transparency 0.0000
      shininess 0.5
    }
  }
  geometry IndexedFaceSet {
    ccw TRUE
    solid FALSE
    coord DEF co Coordinate {
      point [
        -0.860707 -0.029820 0.000000,
        -0.851015 -0.008239 0.000000,
        -0.846499 -0.015282 0.000000,
        -0.812980 -0.029820 0.000000,
        -0.791570 -0.029820 0.000000,
        -0.791570 0.048920 0.000000,
        -0.813791 0.048920 0.000000,
        -0.920243 -0.029820 0.000000,
        -0.931766 -0.029820 0.000000,
        -0.901038 0.048920 0.000000,
        -0.840018 -0.021488 0.000000,
        -0.831796 -0.026266 0.000000,
        -0.822723 -0.028970 0.000000,
        -0.890475 0.048920 0.000000,
        -0.834379 0.044469 0.000000,
        -0.842949 0.038725 0.000000,
        -0.825167 0.047704 0.000000,
        -0.872231 -0.029820 0.000000,
        -0.879748 -0.007735 0.000000,
        -0.912276 -0.007735 0.000000,
        -0.843031 0.038653 0.000000,
        -0.848600 0.032479 0.000000,
        -0.852259 0.025707 0.000000,
        -0.854374 0.017949 0.000000,
        -0.854946 0.010540 0.000000,
        -0.853841 0.000002 0.000000,
        -0.702241 -0.030300 0.000000,
        -0.699079 -0.030744 0.000000,
        -0.696926 -0.030781 0.000000,
        -0.776206 -0.021178 0.000000,
        -0.776206 -0.029820 0.000000,
        -0.733955 -0.029820 0.000000,
        -0.774285 0.040278 0.000000,
        -0.744518 0.040278 0.000000,
        -0.744518 0.014351 0.000000,
        -0.718591 -0.025739 0.000000,
        -0.718591 -0.017097 0.000000,
        -0.733955 0.048920 0.000000,
        -0.710198 -0.029185 0.000000,
        -0.744518 0.005709 0.000000,
        -0.744518 -0.021178 0.000000,
        -0.772365 0.005709 0.000000,
        -0.772365 0.014351 0.000000,
        -0.612964 -0.029820 0.000000,
        -0.692295 -0.030300 0.000000,
        -0.653294 -0.029820 0.000000,
        -0.687222 -0.029774 0.000000,
        -0.679590 -0.027148 0.000000,
        -0.612964 0.048920 0.000000,
        -0.623527 0.048920 0.000000,
        -0.774285 0.048920 0.000000,
        -0.692398 0.040367 0.000000,
        -0.686504 0.038240 0.000000,
        -0.717180 -0.017879 0.000000,
        -0.681055 0.034594 0.000000,
        -0.676300 0.029345 0.000000,
        -0.670579 0.008709 0.000000,
        -0.671376 0.000185 0.000000,
        -0.673515 -0.006587 0.000000,
        -0.691037 -0.021315 0.000000,
        -0.698381 -0.022138 0.000000,
        -0.685300 -0.019202 0.000000,
        -0.680467 -0.015945 0.000000,
        -0.676772 -0.012047 0.000000,
        -0.708833 -0.020978 0.000000,
        -0.673054 0.023265 0.000000,
        -0.670955 0.014836 0.000000,
        -0.675896 0.042379 0.000000,
        -0.668787 0.035543 0.000000,
        -0.664172 0.028181 0.000000,
        -0.673257 -0.023103 0.000000,
        -0.667342 -0.016876 0.000000,
        -0.653294 -0.021178 0.000000,
        -0.663148 -0.009389 0.000000,
        -0.623527 -0.021178 0.000000,
        -0.660778 -0.001055 0.000000,
        -0.660016 0.008064 0.000000,
        -0.661149 0.019259 0.000000,
        -0.683375 0.046684 0.000000,
        -0.692153 0.049234 0.000000,
        -0.700061 0.049880 0.000000,
        -0.709488 0.049230 0.000000,
        -0.718591 0.046759 0.000000,
        -0.718591 0.036196 0.000000,
        -0.709722 0.039994 0.000000,
        -0.700152 0.041238 0.000000,
        -0.901038 0.048920 0.000394,
        -0.931766 -0.029820 0.000394,
        -0.920243 -0.029820 0.000394,
        -0.912276 -0.007735 0.000394,
        -0.879748 -0.007735 0.000394,
        -0.872231 -0.029820 0.000394,
        -0.860707 -0.029820 0.000394,
        -0.890475 0.048920 0.000394,
        -0.882403 0.000907 0.000394,
        -0.908735 0.000907 0.000394,
        -0.894151 0.033796 0.000394,
        -0.894909 0.036527 0.000394,
        -0.895411 0.039317 0.000394,
        -0.895667 0.039317 0.000394,
        -0.896180 0.036535 0.000394,
        -0.896882 0.033796 0.000394,
        -0.882403 0.000907 0.000000,
        -0.908735 0.000907 0.000000,
        -0.894151 0.033796 0.000000,
        -0.894909 0.036527 0.000000,
        -0.895411 0.039317 0.000000,
        -0.895667 0.039317 0.000000,
        -0.896180 0.036535 0.000000,
        -0.896882 0.033796 0.000000,
        -0.812980 -0.029820 0.000394,
        -0.791570 -0.029820 0.000394,
        -0.791570 0.048920 0.000394,
        -0.813791 0.048920 0.000394,
        -0.854946 0.010540 0.000394,
        -0.854374 0.017949 0.000394,
        -0.852259 0.025707 0.000394,
        -0.848600 0.032479 0.000394,
        -0.843031 0.038653 0.000394,
        -0.842949 0.038725 0.000394,
        -0.834379 0.044469 0.000394,
        -0.825167 0.047704 0.000394,
        -0.822723 -0.028970 0.000394,
        -0.831796 -0.026266 0.000394,
        -0.840018 -0.021488 0.000394,
        -0.846499 -0.015282 0.000394,
        -0.851015 -0.008239 0.000394,
        -0.853841 0.000002 0.000394,
        -0.839141 0.029236 0.000394,
        -0.835316 0.033297 0.000394,
        -0.829565 0.037013 0.000394,
        -0.823065 0.039287 0.000394,
        -0.813746 0.040278 0.000394,
        -0.802133 0.040278 0.000394,
        -0.802133 -0.021178 0.000394,
        -0.813311 -0.021178 0.000394,
        -0.821618 -0.020405 0.000394,
        -0.828244 -0.018337 0.000394,
        -0.833614 -0.015148 0.000394,
        -0.838030 -0.010786 0.000394,
        -0.841351 -0.005357 0.000394,
        -0.843661 0.002044 0.000394,
        -0.844383 0.010315 0.000394,
        -0.843715 0.018152 0.000394,
        -0.841876 0.024380 0.000394,
        -0.813746 0.040278 0.000000,
        -0.802133 0.040278 0.000000,
        -0.823065 0.039287 -0.000000,
        -0.829565 0.037013 -0.000000,
        -0.835316 0.033297 -0.000000,
        -0.839141 0.029236 -0.000000,
        -0.841876 0.024380 -0.000000,
        -0.843715 0.018152 -0.000000,
        -0.844383 0.010315 -0.000000,
        -0.843661 0.002044 0.000000,
        -0.841351 -0.005357 0.000000,
        -0.838030 -0.010786 0.000000,
        -0.833614 -0.015148 0.000000,
        -0.828244 -0.018337 0.000000,
        -0.821618 -0.020405 0.000000,
        -0.813311 -0.021178 0.000000,
        -0.802133 -0.021178 0.000000,
        -0.776206 -0.021178 0.000394,
        -0.776206 -0.029820 0.000394,
        -0.733955 -0.029820 0.000394,
        -0.733955 0.048920 0.000394,
        -0.774285 0.048920 0.000394,
        -0.774285 0.040278 0.000394,
        -0.744518 0.040278 0.000394,
        -0.744518 0.014351 0.000394,
        -0.772365 0.014351 0.000394,
        -0.772365 0.005709 0.000394,
        -0.744518 0.005709 0.000394,
        -0.744518 -0.021178 0.000394,
        -0.718591 -0.017097 0.000394,
        -0.718591 -0.025739 0.000394,
        -0.710198 -0.029185 0.000394,
        -0.696926 -0.030781 0.000394,
        -0.699079 -0.030744 0.000394,
        -0.687222 -0.029774 0.000394,
        -0.679590 -0.027148 0.000394,
        -0.673257 -0.023103 0.000394,
        -0.667342 -0.016876 0.000394,
        -0.663148 -0.009389 0.000394,
        -0.660778 -0.001055 0.000394,
        -0.660016 0.008064 0.000394,
        -0.700061 0.049880 0.000394,
        -0.692153 0.049234 0.000394,
        -0.683375 0.046684 0.000394,
        -0.675896 0.042379 0.000394,
        -0.668787 0.035543 0.000394,
        -0.664172 0.028181 0.000394,
        -0.661149 0.019259 0.000394,
        -0.718591 0.046759 0.000394,
        -0.709488 0.049230 0.000394,
        -0.718591 0.036196 0.000394,
        -0.700152 0.041238 0.000394,
        -0.709722 0.039994 0.000394,
        -0.670579 0.008709 0.000394,
        -0.670955 0.014836 0.000394,
        -0.673054 0.023265 0.000394,
        -0.676300 0.029345 0.000394,
        -0.681055 0.034594 0.000394,
        -0.686504 0.038240 0.000394,
        -0.692398 0.040367 0.000394,
        -0.698381 -0.022138 0.000394,
        -0.691037 -0.021315 0.000394,
        -0.685300 -0.019202 0.000394,
        -0.680467 -0.015945 0.000394,
        -0.676772 -0.012047 0.000394,
        -0.673515 -0.006587 0.000394,
        -0.671376 0.000185 0.000394,
        -0.717180 -0.017879 0.000394,
        -0.708833 -0.020978 0.000394,
        -0.653294 -0.021178 0.000394,
        -0.653294 -0.029820 0.000394,
        -0.612964 -0.029820 0.000394,
        -0.612964 0.048920 0.000394,
        -0.623527 0.048920 0.000394,
        -0.623527 -0.021178 0.000394,
      ]
    }
    coordIndex [
      86, 87, 9, -1,
      9, 87, 8, -1,
      87, 88, 8, -1,
      8, 88, 7, -1,
      88, 89, 7, -1,
      7, 89, 19, -1,
      89, 90, 19, -1,
      19, 90, 18, -1,
      90, 91, 18, -1,
      18, 91, 17, -1,
      91, 92, 17, -1,
      17, 92, 0, -1,
      92, 93, 0, -1,
      0, 93, 13, -1,
      93, 86, 13, -1,
      13, 86, 9, -1,
      94, 90, 95, -1,
      95, 90, 89, -1,
      96, 93, 94, -1,
      94, 93, 92, -1,
      94, 92, 90, -1,
      90, 92, 91, -1,
      96, 97, 93, -1,
      93, 97, 98, -1,
      93, 98, 86, -1,
      86, 98, 99, -1,
      86, 99, 100, -1,
      100, 101, 86, -1,
      86, 101, 95, -1,
      86, 95, 87, -1,
      87, 95, 89, -1,
      87, 89, 88, -1,
      94, 95, 102, -1,
      102, 95, 103, -1,
      96, 94, 104, -1,
      104, 94, 102, -1,
      96, 104, 105, -1,
      96, 105, 97, -1,
      97, 105, 106, -1,
      97, 106, 98, -1,
      99, 98, 107, -1,
      107, 98, 106, -1,
      99, 107, 108, -1,
      99, 108, 100, -1,
      100, 108, 109, -1,
      100, 109, 101, -1,
      95, 101, 103, -1,
      103, 101, 109, -1,
      110, 111, 3, -1,
      3, 111, 4, -1,
      111, 112, 4, -1,
      4, 112, 5, -1,
      112, 113, 5, -1,
      5, 113, 6, -1,
      114, 24, 23, -1,
      114, 23, 115, -1,
      115, 23, 22, -1,
      115, 22, 116, -1,
      116, 22, 21, -1,
      116, 21, 117, -1,
      117, 21, 20, -1,
      117, 20, 118, -1,
      118, 20, 15, -1,
      118, 15, 119, -1,
      119, 15, 14, -1,
      119, 14, 120, -1,
      120, 14, 16, -1,
      120, 16, 121, -1,
      121, 16, 6, -1,
      121, 6, 113, -1,
      110, 3, 12, -1,
      110, 12, 122, -1,
      122, 12, 11, -1,
      122, 11, 123, -1,
      123, 11, 10, -1,
      123, 10, 124, -1,
      124, 10, 2, -1,
      124, 2, 125, -1,
      125, 2, 1, -1,
      125, 1, 126, -1,
      126, 1, 25, -1,
      126, 25, 127, -1,
      127, 25, 24, -1,
      127, 24, 114, -1,
      116, 117, 128, -1,
      128, 117, 118, -1,
      128, 118, 129, -1,
      129, 118, 119, -1,
      129, 119, 130, -1,
      130, 119, 120, -1,
      130, 120, 131, -1,
      131, 120, 121, -1,
      131, 121, 132, -1,
      132, 121, 113, -1,
      132, 113, 133, -1,
      133, 113, 112, -1,
      133, 112, 134, -1,
      134, 112, 111, -1,
      134, 111, 135, -1,
      135, 111, 110, -1,
      135, 110, 136, -1,
      136, 110, 122, -1,
      136, 122, 137, -1,
      137, 122, 123, -1,
      137, 123, 138, -1,
      138, 123, 124, -1,
      138, 124, 139, -1,
      139, 124, 125, -1,
      139, 125, 140, -1,
      140, 125, 126, -1,
      140, 126, 141, -1,
      141, 126, 127, -1,
      141, 127, 142, -1,
      142, 127, 114, -1,
      142, 114, 143, -1,
      143, 114, 115, -1,
      143, 115, 144, -1,
      144, 115, 116, -1,
      144, 116, 128, -1,
      132, 133, 145, -1,
      145, 133, 146, -1,
      132, 145, 147, -1,
      132, 147, 131, -1,
      131, 147, 148, -1,
      131, 148, 130, -1,
      130, 148, 149, -1,
      130, 149, 129, -1,
      129, 149, 150, -1,
      129, 150, 128, -1,
      128, 150, 151, -1,
      128, 151, 144, -1,
      144, 151, 152, -1,
      144, 152, 143, -1,
      143, 152, 153, -1,
      143, 153, 142, -1,
      142, 153, 154, -1,
      142, 154, 141, -1,
      141, 154, 155, -1,
      141, 155, 140, -1,
      140, 155, 156, -1,
      140, 156, 139, -1,
      139, 156, 157, -1,
      139, 157, 138, -1,
      138, 157, 158, -1,
      138, 158, 137, -1,
      137, 158, 159, -1,
      137, 159, 136, -1,
      136, 159, 160, -1,
      136, 160, 135, -1,
      134, 135, 161, -1,
      161, 135, 160, -1,
      133, 134, 146, -1,
      146, 134, 161, -1,
      162, 163, 29, -1,
      29, 163, 30, -1,
      163, 164, 30, -1,
      30, 164, 31, -1,
      164, 165, 31, -1,
      31, 165, 37, -1,
      165, 166, 37, -1,
      37, 166, 50, -1,
      166, 167, 50, -1,
      50, 167, 32, -1,
      167, 168, 32, -1,
      32, 168, 33, -1,
      168, 169, 33, -1,
      33, 169, 34, -1,
      169, 170, 34, -1,
      34, 170, 42, -1,
      170, 171, 42, -1,
      42, 171, 41, -1,
      171, 172, 41, -1,
      41, 172, 39, -1,
      172, 173, 39, -1,
      39, 173, 40, -1,
      173, 162, 40, -1,
      40, 162, 29, -1,
      164, 163, 162, -1,
      162, 173, 164, -1,
      164, 173, 172, -1,
      164, 172, 165, -1,
      167, 166, 168, -1,
      168, 166, 165, -1,
      168, 165, 169, -1,
      169, 165, 172, -1,
      169, 172, 170, -1,
      170, 172, 171, -1,
      174, 175, 36, -1,
      36, 175, 35, -1,
      35, 175, 176, -1,
      177, 28, 27, -1,
      177, 27, 178, -1,
      178, 27, 26, -1,
      178, 26, 176, -1,
      176, 26, 38, -1,
      176, 38, 35, -1,
      28, 177, 44, -1,
      44, 177, 179, -1,
      44, 179, 46, -1,
      46, 179, 180, -1,
      46, 180, 47, -1,
      47, 180, 181, -1,
      47, 181, 70, -1,
      70, 181, 182, -1,
      70, 182, 71, -1,
      71, 182, 183, -1,
      71, 183, 73, -1,
      73, 183, 184, -1,
      73, 184, 75, -1,
      75, 184, 185, -1,
      75, 185, 76, -1,
      186, 80, 79, -1,
      186, 79, 187, -1,
      187, 79, 78, -1,
      187, 78, 188, -1,
      188, 78, 67, -1,
      188, 67, 189, -1,
      189, 67, 68, -1,
      189, 68, 190, -1,
      190, 68, 69, -1,
      190, 69, 191, -1,
      191, 69, 77, -1,
      191, 77, 192, -1,
      192, 77, 76, -1,
      192, 76, 185, -1,
      193, 82, 81, -1,
      193, 81, 194, -1,
      194, 81, 80, -1,
      194, 80, 186, -1,
      193, 195, 82, -1,
      82, 195, 83, -1,
      196, 85, 84, -1,
      196, 84, 197, -1,
      197, 84, 83, -1,
      197, 83, 195, -1,
      198, 56, 66, -1,
      198, 66, 199, -1,
      199, 66, 65, -1,
      199, 65, 200, -1,
      200, 65, 55, -1,
      200, 55, 201, -1,
      201, 55, 54, -1,
      201, 54, 202, -1,
      202, 54, 52, -1,
      202, 52, 203, -1,
      203, 52, 51, -1,
      203, 51, 204, -1,
      204, 51, 85, -1,
      204, 85, 196, -1,
      205, 60, 59, -1,
      205, 59, 206, -1,
      206, 59, 61, -1,
      206, 61, 207, -1,
      207, 61, 62, -1,
      207, 62, 208, -1,
      208, 62, 63, -1,
      208, 63, 209, -1,
      209, 63, 58, -1,
      209, 58, 210, -1,
      210, 58, 57, -1,
      210, 57, 211, -1,
      211, 57, 56, -1,
      211, 56, 198, -1,
      174, 36, 53, -1,
      174, 53, 212, -1,
      212, 53, 64, -1,
      212, 64, 213, -1,
      213, 64, 60, -1,
      213, 60, 205, -1,
      206, 177, 205, -1,
      205, 177, 178, -1,
      205, 178, 213, -1,
      213, 178, 176, -1,
      213, 176, 212, -1,
      212, 176, 175, -1,
      212, 175, 174, -1,
      195, 193, 197, -1,
      197, 193, 194, -1,
      197, 194, 196, -1,
      196, 194, 186, -1,
      196, 186, 204, -1,
      204, 186, 187, -1,
      204, 187, 203, -1,
      203, 187, 188, -1,
      203, 188, 202, -1,
      202, 188, 189, -1,
      202, 189, 201, -1,
      201, 189, 190, -1,
      201, 190, 200, -1,
      200, 190, 191, -1,
      200, 191, 199, -1,
      199, 191, 192, -1,
      199, 192, 198, -1,
      198, 192, 185, -1,
      198, 185, 211, -1,
      211, 185, 184, -1,
      211, 184, 210, -1,
      210, 184, 183, -1,
      210, 183, 209, -1,
      209, 183, 182, -1,
      209, 182, 208, -1,
      208, 182, 181, -1,
      208, 181, 207, -1,
      207, 181, 180, -1,
      207, 180, 206, -1,
      206, 180, 179, -1,
      206, 179, 177, -1,
      214, 215, 72, -1,
      72, 215, 45, -1,
      215, 216, 45, -1,
      45, 216, 43, -1,
      216, 217, 43, -1,
      43, 217, 48, -1,
      217, 218, 48, -1,
      48, 218, 49, -1,
      218, 219, 49, -1,
      49, 219, 74, -1,
      219, 214, 74, -1,
      74, 214, 72, -1,
      218, 217, 219, -1,
      219, 217, 216, -1,
      219, 216, 214, -1,
      214, 216, 215, -1,
    ]
  }
}

Shape {
  appearance Appearance {
    material Material {
      diffuseColor 0.2510 0.2510 0.2510
      specularColor 0.1255 0.1255 0.1255
      ambientIntensity 0.2
      transparency 0.0000
      shininess 0.5
    }
  }
  geometry IndexedFaceSet {
    ccw TRUE
    solid FALSE
    coord DEF co Coordinate {
      point [
        -0.882403 0.000907 0.000000,
        -0.908735 0.000907 0.000000,
        -0.894151 0.033796 0.000000,
        -0.894909 0.036527 0.000000,
        -0.895411 0.039317 0.000000,
        -0.895667 0.039317 0.000000,
        -0.896180 0.036535 0.000000,
        -0.896882 0.033796 0.000000,
        -0.813746 0.040278 0.000000,
        -0.802133 0.040278 0.000000,
        -0.823065 0.039287 -0.000000,
        -0.829565 0.037013 -0.000000,
        -0.835316 0.033297 -0.000000,
        -0.839141 0.029236 -0.000000,
        -0.841876 0.024380 -0.000000,
        -0.843715 0.018152 -0.000000,
        -0.844383 0.010315 -0.000000,
        -0.843661 0.002044 0.000000,
        -0.841351 -0.005357 0.000000,
        -0.838030 -0.010786 0.000000,
        -0.833614 -0.015148 0.000000,
        -0.828244 -0.018337 0.000000,
        -0.821618 -0.020405 0.000000,
        -0.813311 -0.021178 0.000000,
        -0.802133 -0.021178 0.000000,
      ]
    }
    coordIndex [
      0, 1, 2, -1,
      2, 1, 7, -1,
      2, 7, 3, -1,
      3, 7, 6, -1,
      3, 6, 4, -1,
      4, 6, 5, -1,
      9, 24, 8, -1,
      8, 24, 23, -1,
      8, 23, 22, -1,
      16, 15, 8, -1,
      8, 15, 14, -1,
      8, 14, 10, -1,
      22, 21, 8, -1,
      8, 21, 20, -1,
      8, 20, 19, -1,
      19, 18, 8, -1,
      8, 18, 17, -1,
      8, 17, 16, -1,
      13, 12, 14, -1,
      14, 12, 11, -1,
      14, 11, 10, -1,
    ]
  }
}
