#VRML V2.0 utf8

Shape {
  appearance Appearance {
    material Material {
      diffuseColor 1.0000 1.0000 1.0000
      specularColor 0.5020 0.5020 0.5020
      ambientIntensity 0.2
      transparency 0.0000
      shininess 0.5
    }
  }
  geometry IndexedFaceSet {
    ccw TRUE
    solid FALSE
    coord DEF co Coordinate {
      point [
        -0.139194 -0.000000 -0.196850,
        -0.139194 -0.000000 -0.200787,
        -0.091628 -0.047567 -0.196850,
        -0.041430 -0.097764 -0.200787,
        -0.041430 -0.097764 -0.196850,
        -0.000000 -0.139194 -0.200787,
        -0.000000 -0.139194 -0.196850,
        -0.010267 -0.128928 -0.200787,
        -0.007091 -0.132103 -0.196850,
        -0.010267 -0.128928 -0.196850,
      ]
    }
    coordIndex [
      0, 1, 2, -1,
      2, 1, 3, -1,
      2, 3, 4, -1,
      5, 6, 7, -1,
      7, 6, 8, -1,
      7, 8, 9, -1,
    ]
  }
}

Shape {
  appearance Appearance {
    material Material {
      diffuseColor 0.5020 0.5020 0.5020
      specularColor 0.2510 0.2510 0.2510
      ambientIntensity 0.2
      transparency 0.0000
      shininess 0.5
    }
  }
  geometry IndexedFaceSet {
    ccw TRUE
    solid FALSE
    coord DEF co Coordinate {
      point [
        -0.139194 -0.000000 -0.196850,
        -0.091628 -0.047567 -0.196850,
        -0.041430 -0.097764 -0.196850,
        -0.000000 -0.139194 -0.196850,
        -0.007091 -0.132103 -0.196850,
        -0.010267 -0.128928 -0.196850,
        0.024717 -0.114478 -0.196850,
        0.024717 -0.196850 -0.196850,
        0.007312 -0.196850 -0.196850,
        -0.167323 -0.196850 -0.196850,
        -0.192913 -0.196850 -0.196850,
        -0.167323 -0.098425 -0.196850,
        -0.193932 -0.196716 -0.196850,
        -0.194882 -0.196323 -0.196850,
        -0.195697 -0.195697 -0.196850,
        -0.196323 -0.194882 -0.196850,
        -0.196716 -0.193932 -0.196850,
        -0.196850 -0.192913 -0.196850,
        -0.196850 0.147844 -0.196850,
        -0.149341 -0.098425 -0.196850,
        -0.091628 -0.156138 -0.196850,
        -0.078740 -0.169026 -0.196850,
        -0.078740 -0.196850 -0.196850,
        -0.025576 -0.196850 -0.196850,
        -0.036867 -0.094262 -0.196850,
        -0.031552 -0.092061 -0.196850,
        -0.025848 -0.091310 -0.196850,
        0.192913 -0.196850 -0.196850,
        0.167323 -0.196850 -0.196850,
        0.167323 -0.098425 -0.196850,
        0.099922 0.147844 -0.196850,
        0.149341 0.098425 -0.196850,
        0.139194 0.000000 -0.196850,
        0.078740 -0.196850 -0.196850,
        0.078740 -0.169026 -0.196850,
        0.149341 -0.098425 -0.196850,
        0.167323 0.098425 -0.196850,
        0.196850 0.147844 -0.196850,
        0.196850 -0.192913 -0.196850,
        0.196716 -0.193932 -0.196850,
        0.196323 -0.194882 -0.196850,
        0.195697 -0.195697 -0.196850,
        0.194882 -0.196323 -0.196850,
        0.193932 -0.196716 -0.196850,
        0.193932 0.196716 -0.196850,
        0.194882 0.196323 -0.196850,
        0.195697 0.195697 -0.196850,
        0.196323 0.194882 -0.196850,
        0.196716 0.193932 -0.196850,
        0.192913 0.196850 -0.196850,
        0.196850 0.192913 -0.196850,
        0.196850 0.176539 -0.196850,
        0.167323 0.147844 -0.196850,
        0.167323 0.156614 -0.196850,
        0.196850 0.156614 -0.196850,
        0.167323 0.176539 -0.196850,
        0.167323 0.196850 -0.196850,
        0.025557 0.158894 -0.196850,
        0.025557 0.156734 -0.196850,
        0.024717 0.156614 -0.196850,
        0.035639 0.156734 -0.196850,
        0.035639 0.176419 -0.196850,
        0.078740 0.176539 -0.196850,
        0.032999 0.176419 -0.196850,
        0.024717 0.176539 -0.196850,
        0.024717 0.147844 -0.196850,
        0.091152 0.156614 -0.196850,
        0.078740 0.169026 -0.196850,
        0.024717 0.196850 -0.196850,
        0.078740 0.196850 -0.196850,
        -0.041180 0.156734 -0.196850,
        -0.025576 0.156614 -0.196850,
        -0.044061 0.156734 -0.196850,
        -0.091152 0.156614 -0.196850,
        -0.036379 0.176419 -0.196850,
        -0.078740 0.169026 -0.196850,
        -0.078740 0.176539 -0.196850,
        -0.025576 0.176539 -0.196850,
        -0.039189 0.162256 -0.196850,
        -0.031056 0.162256 -0.196850,
        -0.029177 0.156734 -0.196850,
        -0.026296 0.156734 -0.196850,
        -0.033738 0.176419 -0.196850,
        -0.196850 0.176539 -0.196850,
        -0.167323 0.156614 -0.196850,
        -0.196850 0.156614 -0.196850,
        -0.167323 0.147844 -0.196850,
        -0.167323 0.098425 -0.196850,
        -0.149341 0.098425 -0.196850,
        -0.091628 0.047567 -0.196850,
        -0.196716 0.193932 -0.196850,
        -0.192913 0.196850 -0.196850,
        -0.196850 0.192913 -0.196850,
        -0.167323 0.196850 -0.196850,
        -0.167323 0.176539 -0.196850,
        -0.196323 0.194882 -0.196850,
        -0.195697 0.195697 -0.196850,
        -0.194882 0.196323 -0.196850,
        -0.193932 0.196716 -0.196850,
        0.007312 0.176539 -0.196850,
        0.009233 0.159915 -0.196850,
        0.007312 0.156614 -0.196850,
        0.009233 0.157754 -0.196850,
        0.011331 0.156893 -0.196850,
        0.012126 0.176539 -0.196850,
        0.011509 0.176496 -0.196850,
        0.009233 0.175879 -0.196850,
        0.009233 0.173238 -0.196850,
        0.011450 0.174188 -0.196850,
        0.009585 0.159719 -0.196850,
        0.013843 0.174498 -0.196850,
        0.015781 0.174281 -0.196850,
        0.017254 0.173749 -0.196850,
        0.018617 0.172838 -0.196850,
        0.019806 0.171525 -0.196850,
        0.021236 0.166367 -0.196850,
        0.021037 0.164235 -0.196850,
        0.020502 0.162542 -0.196850,
        0.016121 0.158861 -0.196850,
        0.014285 0.158654 -0.196850,
        0.017556 0.159389 -0.196850,
        0.018764 0.160203 -0.196850,
        0.019687 0.161177 -0.196850,
        0.011672 0.158944 -0.196850,
        0.020617 0.170006 -0.196850,
        0.021142 0.167898 -0.196850,
        0.015335 0.176539 -0.196850,
        0.013865 0.176659 -0.196850,
        0.007312 0.196850 -0.196850,
        0.018983 0.157402 -0.196850,
        0.020567 0.158413 -0.196850,
        0.021684 0.173075 -0.196850,
        0.019907 0.174784 -0.196850,
        0.018037 0.175860 -0.196850,
        0.023876 0.166205 -0.196850,
        0.023593 0.169004 -0.196850,
        0.022837 0.171234 -0.196850,
        0.015843 0.176498 -0.196850,
        0.022045 0.159970 -0.196850,
        0.023094 0.161842 -0.196850,
        0.023686 0.163926 -0.196850,
        0.032999 0.158894 -0.196850,
        0.013320 0.156614 -0.196850,
        0.014111 0.156503 -0.196850,
        0.007312 0.147844 -0.196850,
        0.014649 0.156494 -0.196850,
        0.015807 0.156614 -0.196850,
        0.017075 0.156746 -0.196850,
        -0.007091 0.147844 -0.196850,
        -0.025576 0.113618 -0.196850,
        -0.025576 0.147844 -0.196850,
        -0.091628 0.147844 -0.196850,
        -0.099922 0.147844 -0.196850,
        0.024717 0.114478 -0.196850,
        0.007312 0.131882 -0.196850,
        0.000000 0.139194 -0.196850,
        -0.007091 0.132103 -0.196850,
        -0.007091 -0.196850 -0.196850,
        0.007312 -0.131882 -0.196850,
        -0.025576 -0.091346 -0.196850,
        -0.020145 -0.092061 -0.196850,
        -0.006765 -0.102328 -0.196850,
        -0.004563 -0.107643 -0.196850,
        -0.003813 -0.113346 -0.196850,
        -0.014830 -0.094262 -0.196850,
        -0.010267 -0.097764 -0.196850,
        -0.007091 -0.124790 -0.196850,
        -0.007091 -0.101902 -0.196850,
        -0.006765 -0.124364 -0.196850,
        -0.004563 -0.119049 -0.196850,
        -0.091628 0.156138 -0.196850,
        -0.007091 0.156614 -0.196850,
        -0.004691 0.176419 -0.196850,
        -0.007091 0.176539 -0.196850,
        -0.004691 0.174259 -0.196850,
        -0.005171 0.158894 -0.196850,
        -0.005171 0.156734 -0.196850,
        0.005392 0.156734 -0.196850,
        0.005392 0.176419 -0.196850,
        0.002751 0.165616 -0.196850,
        0.002751 0.158894 -0.196850,
        -0.004211 0.165616 -0.196850,
        -0.004211 0.167777 -0.196850,
        0.002751 0.167777 -0.196850,
        0.002751 0.174259 -0.196850,
        -0.023873 0.162129 -0.196850,
        -0.022744 0.160369 -0.196850,
        -0.021124 0.158817 -0.196850,
        -0.019069 0.157623 -0.196850,
        -0.014567 0.176419 -0.196850,
        -0.017411 0.176115 -0.196850,
        -0.019714 0.175306 -0.196850,
        -0.021857 0.173870 -0.196850,
        -0.021878 0.173852 -0.196850,
        -0.023269 0.172309 -0.196850,
        -0.024184 0.170616 -0.196850,
        -0.016800 0.156946 -0.196850,
        -0.014365 0.156734 -0.196850,
        -0.009012 0.156734 -0.196850,
        -0.009012 0.176419 -0.196850,
        -0.024713 0.168676 -0.196850,
        -0.024856 0.166824 -0.196850,
        -0.024580 0.164190 -0.196850,
        -0.078740 0.196850 -0.196850,
        -0.025576 0.196850 -0.196850,
        -0.007091 0.196850 -0.196850,
        0.196850 -0.019685 -0.157480,
        0.196850 0.019685 -0.157480,
        0.196850 0.192913 -0.003937,
        0.196850 0.137795 -0.157480,
        0.196850 0.098425 -0.157480,
        0.196850 0.098425 -0.177165,
        0.196850 -0.098425 -0.157480,
        0.196850 -0.098425 -0.177165,
        0.196850 -0.019685 -0.177165,
        0.196850 0.019685 -0.177165,
        0.196850 0.137795 -0.177165,
        0.196850 -0.137795 -0.157480,
        0.196850 -0.192913 -0.003937,
        0.196850 -0.137795 -0.177165,
        0.192913 0.196850 -0.003937,
        0.167323 0.196850 -0.140945,
        0.019685 0.196850 -0.157480,
        0.078740 0.196850 -0.140945,
        0.019685 0.196850 -0.177165,
        -0.192913 0.196850 -0.003937,
        -0.019685 0.196850 -0.157480,
        -0.019685 0.196850 -0.177165,
        -0.167323 0.196850 -0.140945,
        -0.078740 0.196850 -0.140945,
        -0.192913 -0.196850 -0.003937,
        -0.167323 -0.196850 -0.140945,
        -0.019685 -0.196850 -0.177165,
        -0.078740 -0.196850 -0.140945,
        -0.019685 -0.196850 -0.157480,
        0.192913 -0.196850 -0.003937,
        0.019685 -0.196850 -0.157480,
        0.019685 -0.196850 -0.177165,
        0.167323 -0.196850 -0.140945,
        0.078740 -0.196850 -0.140945,
        -0.196850 0.098425 -0.157480,
        -0.196850 0.098425 -0.177165,
        -0.196850 0.019685 -0.177165,
        -0.196850 0.192913 -0.003937,
        -0.196850 -0.019685 -0.177165,
        -0.196850 -0.098425 -0.177165,
        -0.196850 -0.019685 -0.157480,
        -0.196850 -0.098425 -0.157480,
        -0.196850 0.019685 -0.157480,
        -0.196850 -0.192913 -0.003937,
        -0.196850 -0.137795 -0.157480,
        -0.196850 -0.137795 -0.177165,
        -0.196850 0.137795 -0.157480,
        -0.196850 0.137795 -0.177165,
        0.192913 -0.192913 0.000000,
        -0.109027 -0.136492 0.000000,
        -0.109754 -0.142711 0.000000,
        -0.143728 -0.162326 0.000000,
        -0.149477 -0.159846 0.000000,
        -0.192913 -0.192913 0.000000,
        -0.158524 -0.121674 0.000000,
        -0.154499 -0.116878 0.000000,
        -0.192913 0.192913 0.000000,
        -0.149477 -0.113139 0.000000,
        -0.143728 -0.110659 0.000000,
        -0.111895 -0.148595 0.000000,
        -0.115336 -0.153826 0.000000,
        -0.119890 -0.158123 0.000000,
        -0.125313 -0.161253 0.000000,
        -0.131311 -0.163049 0.000000,
        -0.137561 -0.163413 0.000000,
        -0.154499 -0.156107 0.000000,
        -0.158524 -0.151311 0.000000,
        -0.161333 -0.145715 0.000000,
        -0.162778 -0.139623 0.000000,
        -0.162778 -0.133361 0.000000,
        -0.161333 -0.127269 0.000000,
        -0.119890 -0.114862 0.000000,
        -0.115336 -0.119158 0.000000,
        0.192913 0.192913 0.000000,
        -0.111895 -0.124390 0.000000,
        -0.109754 -0.130273 0.000000,
        -0.137561 -0.109571 0.000000,
        -0.131311 -0.109935 0.000000,
        -0.125313 -0.111731 0.000000,
      ]
    }
    coordIndex [
      6, 7, 8, -1,
      9, 10, 11, -1,
      11, 10, 12, -1,
      11, 12, 13, -1,
      13, 14, 11, -1,
      11, 14, 15, -1,
      11, 15, 16, -1,
      16, 17, 11, -1,
      11, 17, 18, -1,
      11, 18, 19, -1,
      19, 18, 0, -1,
      19, 0, 20, -1,
      20, 0, 1, -1,
      20, 1, 21, -1,
      21, 1, 2, -1,
      21, 2, 22, -1,
      22, 2, 23, -1,
      2, 24, 23, -1,
      23, 24, 25, -1,
      23, 25, 26, -1,
      27, 28, 29, -1,
      30, 31, 32, -1,
      33, 7, 34, -1,
      34, 7, 6, -1,
      34, 6, 35, -1,
      35, 6, 32, -1,
      35, 32, 29, -1,
      31, 36, 32, -1,
      32, 36, 37, -1,
      32, 37, 29, -1,
      29, 37, 38, -1,
      29, 38, 27, -1,
      27, 38, 39, -1,
      39, 40, 41, -1,
      41, 42, 39, -1,
      39, 42, 43, -1,
      39, 43, 27, -1,
      44, 45, 46, -1,
      46, 47, 44, -1,
      44, 47, 48, -1,
      44, 48, 49, -1,
      49, 48, 50, -1,
      49, 50, 51, -1,
      36, 52, 37, -1,
      37, 52, 53, -1,
      37, 53, 54, -1,
      54, 53, 55, -1,
      54, 55, 51, -1,
      51, 55, 56, -1,
      51, 56, 49, -1,
      57, 58, 59, -1,
      59, 58, 60, -1,
      60, 61, 62, -1,
      61, 63, 64, -1,
      32, 65, 30, -1,
      30, 65, 59, -1,
      30, 59, 66, -1,
      66, 59, 60, -1,
      66, 60, 67, -1,
      67, 60, 62, -1,
      61, 64, 62, -1,
      62, 64, 68, -1,
      62, 68, 69, -1,
      70, 71, 72, -1,
      72, 71, 73, -1,
      72, 73, 74, -1,
      73, 75, 74, -1,
      74, 75, 76, -1,
      74, 76, 77, -1,
      78, 79, 70, -1,
      70, 79, 80, -1,
      70, 80, 71, -1,
      71, 80, 81, -1,
      71, 81, 77, -1,
      77, 81, 82, -1,
      77, 82, 74, -1,
      83, 84, 85, -1,
      85, 84, 86, -1,
      85, 86, 18, -1,
      18, 86, 87, -1,
      18, 87, 0, -1,
      0, 87, 88, -1,
      0, 88, 89, -1,
      90, 91, 92, -1,
      92, 91, 93, -1,
      92, 93, 83, -1,
      83, 93, 94, -1,
      83, 94, 84, -1,
      90, 95, 96, -1,
      96, 97, 90, -1,
      90, 97, 98, -1,
      90, 98, 91, -1,
      99, 100, 101, -1,
      101, 100, 102, -1,
      101, 102, 103, -1,
      99, 104, 105, -1,
      105, 106, 99, -1,
      99, 106, 107, -1,
      99, 107, 100, -1,
      100, 107, 108, -1,
      100, 108, 109, -1,
      109, 108, 110, -1,
      109, 110, 111, -1,
      111, 112, 109, -1,
      109, 112, 113, -1,
      109, 113, 114, -1,
      115, 116, 109, -1,
      109, 116, 117, -1,
      118, 119, 120, -1,
      120, 119, 121, -1,
      117, 122, 109, -1,
      109, 122, 121, -1,
      109, 121, 123, -1,
      123, 121, 119, -1,
      114, 124, 109, -1,
      109, 124, 125, -1,
      109, 125, 115, -1,
      126, 127, 128, -1,
      129, 130, 59, -1,
      131, 132, 64, -1,
      64, 132, 133, -1,
      134, 135, 64, -1,
      64, 135, 136, -1,
      64, 136, 131, -1,
      128, 68, 126, -1,
      126, 68, 64, -1,
      126, 64, 137, -1,
      137, 64, 133, -1,
      130, 138, 59, -1,
      59, 138, 139, -1,
      59, 139, 140, -1,
      140, 134, 59, -1,
      59, 134, 64, -1,
      59, 64, 57, -1,
      57, 64, 63, -1,
      57, 63, 141, -1,
      142, 143, 144, -1,
      144, 143, 145, -1,
      144, 145, 65, -1,
      65, 145, 146, -1,
      65, 146, 59, -1,
      59, 146, 147, -1,
      59, 147, 129, -1,
      148, 149, 150, -1,
      150, 149, 89, -1,
      150, 89, 151, -1,
      151, 89, 88, -1,
      151, 88, 152, -1,
      32, 153, 65, -1,
      65, 153, 154, -1,
      65, 154, 144, -1,
      144, 154, 155, -1,
      144, 155, 148, -1,
      148, 155, 156, -1,
      148, 156, 149, -1,
      157, 3, 8, -1,
      8, 3, 158, -1,
      8, 158, 6, -1,
      5, 159, 160, -1,
      26, 159, 23, -1,
      23, 159, 5, -1,
      23, 5, 157, -1,
      157, 5, 4, -1,
      157, 4, 3, -1,
      161, 162, 163, -1,
      160, 164, 5, -1,
      5, 164, 165, -1,
      5, 165, 166, -1,
      166, 165, 167, -1,
      166, 167, 168, -1,
      168, 167, 161, -1,
      168, 161, 169, -1,
      169, 161, 163, -1,
      152, 170, 151, -1,
      151, 170, 73, -1,
      151, 73, 150, -1,
      150, 73, 71, -1,
      150, 71, 148, -1,
      148, 71, 171, -1,
      148, 171, 144, -1,
      144, 171, 101, -1,
      144, 101, 142, -1,
      142, 101, 103, -1,
      172, 173, 99, -1,
      172, 174, 173, -1,
      173, 174, 175, -1,
      173, 175, 171, -1,
      171, 175, 176, -1,
      171, 176, 101, -1,
      101, 176, 177, -1,
      101, 177, 99, -1,
      99, 177, 178, -1,
      99, 178, 172, -1,
      179, 180, 181, -1,
      181, 180, 175, -1,
      181, 175, 182, -1,
      182, 175, 174, -1,
      182, 174, 183, -1,
      183, 174, 184, -1,
      185, 186, 71, -1,
      71, 186, 187, -1,
      71, 187, 188, -1,
      189, 77, 173, -1,
      189, 190, 77, -1,
      77, 190, 191, -1,
      77, 191, 192, -1,
      192, 193, 77, -1,
      77, 193, 194, -1,
      77, 194, 195, -1,
      188, 196, 71, -1,
      71, 196, 197, -1,
      71, 197, 171, -1,
      171, 197, 198, -1,
      171, 198, 173, -1,
      173, 198, 199, -1,
      173, 199, 189, -1,
      195, 200, 77, -1,
      77, 200, 201, -1,
      77, 201, 71, -1,
      71, 201, 202, -1,
      71, 202, 185, -1,
      76, 203, 77, -1,
      77, 203, 204, -1,
      77, 204, 173, -1,
      173, 204, 205, -1,
      173, 205, 99, -1,
      99, 205, 128, -1,
      99, 128, 104, -1,
      104, 128, 127, -1,
      206, 207, 208, -1,
      209, 208, 210, -1,
      210, 208, 207, -1,
      210, 207, 211, -1,
      212, 213, 214, -1,
      207, 215, 211, -1,
      211, 215, 37, -1,
      211, 37, 216, -1,
      216, 37, 54, -1,
      216, 54, 209, -1,
      209, 54, 51, -1,
      209, 51, 208, -1,
      208, 51, 50, -1,
      214, 206, 212, -1,
      212, 206, 208, -1,
      212, 208, 217, -1,
      217, 208, 218, -1,
      217, 218, 219, -1,
      219, 218, 38, -1,
      219, 38, 213, -1,
      213, 38, 37, -1,
      213, 37, 214, -1,
      214, 37, 215, -1,
      220, 49, 221, -1,
      221, 49, 56, -1,
      222, 223, 224, -1,
      224, 223, 69, -1,
      221, 223, 220, -1,
      220, 223, 222, -1,
      220, 222, 225, -1,
      225, 222, 226, -1,
      69, 68, 224, -1,
      224, 68, 128, -1,
      224, 128, 227, -1,
      227, 128, 205, -1,
      93, 91, 228, -1,
      228, 91, 225, -1,
      228, 225, 229, -1,
      229, 225, 226, -1,
      229, 226, 203, -1,
      203, 226, 227, -1,
      203, 227, 204, -1,
      204, 227, 205, -1,
      230, 10, 231, -1,
      231, 10, 9, -1,
      22, 232, 233, -1,
      233, 232, 234, -1,
      231, 233, 230, -1,
      230, 233, 234, -1,
      230, 234, 235, -1,
      235, 234, 236, -1,
      22, 23, 232, -1,
      232, 23, 157, -1,
      232, 157, 237, -1,
      237, 157, 8, -1,
      28, 27, 238, -1,
      238, 27, 235, -1,
      238, 235, 239, -1,
      239, 235, 236, -1,
      239, 236, 33, -1,
      33, 236, 237, -1,
      33, 237, 7, -1,
      7, 237, 8, -1,
      240, 241, 242, -1,
      243, 92, 83, -1,
      18, 17, 244, -1,
      244, 17, 245, -1,
      244, 245, 246, -1,
      246, 245, 247, -1,
      248, 246, 243, -1,
      243, 246, 247, -1,
      243, 247, 249, -1,
      249, 247, 250, -1,
      249, 250, 17, -1,
      17, 250, 251, -1,
      17, 251, 245, -1,
      242, 248, 240, -1,
      240, 248, 243, -1,
      240, 243, 252, -1,
      252, 243, 83, -1,
      252, 83, 253, -1,
      253, 83, 85, -1,
      253, 85, 241, -1,
      241, 85, 18, -1,
      241, 18, 242, -1,
      242, 18, 244, -1,
      254, 255, 256, -1,
      257, 258, 259, -1,
      260, 261, 262, -1,
      262, 261, 263, -1,
      262, 263, 264, -1,
      256, 265, 254, -1,
      254, 265, 266, -1,
      254, 266, 267, -1,
      267, 268, 254, -1,
      254, 268, 269, -1,
      254, 269, 259, -1,
      259, 269, 270, -1,
      259, 270, 257, -1,
      258, 271, 259, -1,
      259, 271, 272, -1,
      259, 272, 273, -1,
      273, 274, 259, -1,
      259, 274, 275, -1,
      259, 275, 262, -1,
      262, 275, 276, -1,
      262, 276, 260, -1,
      277, 278, 279, -1,
      279, 278, 280, -1,
      279, 280, 254, -1,
      254, 280, 281, -1,
      254, 281, 255, -1,
      264, 282, 262, -1,
      262, 282, 283, -1,
      262, 283, 279, -1,
      279, 283, 284, -1,
      279, 284, 277, -1,
    ]
  }
}

Shape {
  appearance Appearance {
    material Material {
      diffuseColor 1.0000 1.0000 1.0000
      specularColor 0.5020 0.5020 0.5020
      ambientIntensity 0.2
      transparency 0.0000
      shininess 0.5
    }
  }
  geometry IndexedFaceSet {
    ccw TRUE
    solid FALSE
    coord DEF co Coordinate {
      point [
        -0.139194 -0.000000 -0.196850,
        -0.139194 -0.000000 -0.200787,
        -0.041430 -0.097764 -0.200787,
        -0.000000 -0.139194 -0.200787,
        -0.000000 -0.139194 -0.196850,
        -0.010267 -0.128928 -0.200787,
        0.024717 -0.114478 -0.196850,
        -0.167323 -0.196850 -0.196850,
        -0.167323 -0.098425 -0.196850,
        -0.149341 -0.098425 -0.196850,
        -0.091628 -0.156138 -0.196850,
        -0.078740 -0.169026 -0.196850,
        -0.078740 -0.196850 -0.196850,
        0.167323 -0.196850 -0.196850,
        0.167323 -0.098425 -0.196850,
        0.099922 0.147844 -0.196850,
        0.149341 0.098425 -0.196850,
        0.139194 0.000000 -0.196850,
        0.078740 -0.196850 -0.196850,
        0.078740 -0.169026 -0.196850,
        0.149341 -0.098425 -0.196850,
        0.167323 0.098425 -0.196850,
        0.167323 0.147844 -0.196850,
        0.167323 0.156614 -0.196850,
        0.167323 0.176539 -0.196850,
        0.167323 0.196850 -0.196850,
        0.025557 0.158894 -0.196850,
        0.025557 0.156734 -0.196850,
        0.035639 0.156734 -0.196850,
        0.035639 0.176419 -0.196850,
        0.078740 0.176539 -0.196850,
        0.032999 0.176419 -0.196850,
        0.091152 0.156614 -0.196850,
        0.078740 0.169026 -0.196850,
        0.078740 0.196850 -0.196850,
        -0.041180 0.156734 -0.196850,
        -0.044061 0.156734 -0.196850,
        -0.091152 0.156614 -0.196850,
        -0.036379 0.176419 -0.196850,
        -0.078740 0.169026 -0.196850,
        -0.078740 0.176539 -0.196850,
        -0.039189 0.162256 -0.196850,
        -0.031056 0.162256 -0.196850,
        -0.029177 0.156734 -0.196850,
        -0.026296 0.156734 -0.196850,
        -0.033738 0.176419 -0.196850,
        -0.167323 0.156614 -0.196850,
        -0.167323 0.147844 -0.196850,
        -0.167323 0.098425 -0.196850,
        -0.149341 0.098425 -0.196850,
        -0.091628 0.047567 -0.196850,
        -0.167323 0.196850 -0.196850,
        -0.167323 0.176539 -0.196850,
        0.009233 0.159915 -0.196850,
        0.009233 0.157754 -0.196850,
        0.011331 0.156893 -0.196850,
        0.012126 0.176539 -0.196850,
        0.011509 0.176496 -0.196850,
        0.009233 0.175879 -0.196850,
        0.009233 0.173238 -0.196850,
        0.011450 0.174188 -0.196850,
        0.009585 0.159719 -0.196850,
        0.013843 0.174498 -0.196850,
        0.015781 0.174281 -0.196850,
        0.017254 0.173749 -0.196850,
        0.018617 0.172838 -0.196850,
        0.019806 0.171525 -0.196850,
        0.021236 0.166367 -0.196850,
        0.021037 0.164235 -0.196850,
        0.020502 0.162542 -0.196850,
        0.016121 0.158861 -0.196850,
        0.014285 0.158654 -0.196850,
        0.017556 0.159389 -0.196850,
        0.018764 0.160203 -0.196850,
        0.019687 0.161177 -0.196850,
        0.011672 0.158944 -0.196850,
        0.020617 0.170006 -0.196850,
        0.021142 0.167898 -0.196850,
        0.015335 0.176539 -0.196850,
        0.013865 0.176659 -0.196850,
        0.018983 0.157402 -0.196850,
        0.020567 0.158413 -0.196850,
        0.021684 0.173075 -0.196850,
        0.019907 0.174784 -0.196850,
        0.018037 0.175860 -0.196850,
        0.023876 0.166205 -0.196850,
        0.023593 0.169004 -0.196850,
        0.022837 0.171234 -0.196850,
        0.015843 0.176498 -0.196850,
        0.022045 0.159970 -0.196850,
        0.023094 0.161842 -0.196850,
        0.023686 0.163926 -0.196850,
        0.032999 0.158894 -0.196850,
        0.013320 0.156614 -0.196850,
        0.014111 0.156503 -0.196850,
        0.014649 0.156494 -0.196850,
        0.015807 0.156614 -0.196850,
        0.017075 0.156746 -0.196850,
        -0.025576 0.113618 -0.196850,
        -0.099922 0.147844 -0.196850,
        0.024717 0.114478 -0.196850,
        0.007312 0.131882 -0.196850,
        0.000000 0.139194 -0.196850,
        -0.007091 0.132103 -0.196850,
        0.007312 -0.131882 -0.196850,
        -0.091628 0.156138 -0.196850,
        -0.004691 0.176419 -0.196850,
        -0.004691 0.174259 -0.196850,
        -0.005171 0.158894 -0.196850,
        -0.005171 0.156734 -0.196850,
        0.005392 0.156734 -0.196850,
        0.005392 0.176419 -0.196850,
        0.002751 0.165616 -0.196850,
        0.002751 0.158894 -0.196850,
        -0.004211 0.165616 -0.196850,
        -0.004211 0.167777 -0.196850,
        0.002751 0.167777 -0.196850,
        0.002751 0.174259 -0.196850,
        -0.023873 0.162129 -0.196850,
        -0.022744 0.160369 -0.196850,
        -0.021124 0.158817 -0.196850,
        -0.019069 0.157623 -0.196850,
        -0.014567 0.176419 -0.196850,
        -0.017411 0.176115 -0.196850,
        -0.019714 0.175306 -0.196850,
        -0.021857 0.173870 -0.196850,
        -0.021878 0.173852 -0.196850,
        -0.023269 0.172309 -0.196850,
        -0.024184 0.170616 -0.196850,
        -0.016800 0.156946 -0.196850,
        -0.014365 0.156734 -0.196850,
        -0.009012 0.156734 -0.196850,
        -0.009012 0.176419 -0.196850,
        -0.024713 0.168676 -0.196850,
        -0.024856 0.166824 -0.196850,
        -0.024580 0.164190 -0.196850,
        -0.078740 0.196850 -0.196850,
        0.196850 -0.019685 -0.157480,
        0.196850 0.019685 -0.157480,
        0.196850 0.137795 -0.157480,
        0.196850 0.098425 -0.157480,
        0.196850 0.098425 -0.177165,
        0.196850 -0.098425 -0.157480,
        0.196850 -0.098425 -0.177165,
        0.196850 -0.019685 -0.177165,
        0.196850 0.019685 -0.177165,
        0.196850 0.137795 -0.177165,
        0.196850 -0.137795 -0.157480,
        0.196850 -0.137795 -0.177165,
        0.167323 0.196850 -0.140945,
        0.019685 0.196850 -0.157480,
        0.078740 0.196850 -0.140945,
        0.019685 0.196850 -0.177165,
        -0.019685 0.196850 -0.157480,
        -0.019685 0.196850 -0.177165,
        -0.167323 0.196850 -0.140945,
        -0.078740 0.196850 -0.140945,
        -0.167323 -0.196850 -0.140945,
        -0.019685 -0.196850 -0.177165,
        -0.078740 -0.196850 -0.140945,
        -0.019685 -0.196850 -0.157480,
        0.019685 -0.196850 -0.157480,
        0.019685 -0.196850 -0.177165,
        0.167323 -0.196850 -0.140945,
        0.078740 -0.196850 -0.140945,
        -0.196850 0.098425 -0.157480,
        -0.196850 0.098425 -0.177165,
        -0.196850 0.019685 -0.177165,
        -0.196850 -0.019685 -0.177165,
        -0.196850 -0.098425 -0.177165,
        -0.196850 -0.019685 -0.157480,
        -0.196850 -0.098425 -0.157480,
        -0.196850 0.019685 -0.157480,
        -0.196850 -0.137795 -0.157480,
        -0.196850 -0.137795 -0.177165,
        -0.196850 0.137795 -0.157480,
        -0.196850 0.137795 -0.177165,
        0.139194 0.000000 -0.200787,
        0.000000 0.139194 -0.200787,
        -0.006765 -0.124364 -0.200787,
        -0.003813 -0.113346 -0.200787,
        -0.004563 -0.107643 -0.200787,
        -0.004563 -0.119049 -0.200787,
        -0.020145 -0.092061 -0.200787,
        -0.025848 -0.091310 -0.200787,
        -0.031552 -0.092061 -0.200787,
        -0.036867 -0.094262 -0.200787,
        -0.006765 -0.102328 -0.200787,
        -0.010267 -0.097764 -0.200787,
        -0.014830 -0.094262 -0.200787,
        0.167323 0.200787 -0.140945,
        0.167323 0.200787 -0.200787,
        0.167323 0.098425 -0.200787,
        0.149341 0.098425 -0.200787,
        0.078740 0.169026 -0.200787,
        0.078740 0.200787 -0.140945,
        0.078740 0.200787 -0.200787,
        -0.078740 0.169026 -0.200787,
        -0.149341 0.098425 -0.200787,
        -0.167323 0.098425 -0.200787,
        -0.167323 0.200787 -0.200787,
        -0.167323 0.200787 -0.140945,
        -0.078740 0.200787 -0.140945,
        -0.078740 0.200787 -0.200787,
        -0.167323 -0.098425 -0.200787,
        -0.167323 -0.200787 -0.200787,
        -0.167323 -0.200787 -0.140945,
        -0.149341 -0.098425 -0.200787,
        -0.078740 -0.169026 -0.200787,
        -0.078740 -0.200787 -0.140945,
        -0.078740 -0.200787 -0.200787,
        0.149341 -0.098425 -0.200787,
        0.078740 -0.169026 -0.200787,
        0.167323 -0.098425 -0.200787,
        0.167323 -0.200787 -0.140945,
        0.167323 -0.200787 -0.200787,
        0.078740 -0.200787 -0.200787,
        0.078740 -0.200787 -0.140945,
        0.019685 -0.200787 -0.157480,
        0.019685 -0.200787 -0.177165,
        -0.019685 -0.200787 -0.157480,
        -0.019685 -0.200787 -0.177165,
        0.019685 0.200787 -0.177165,
        0.019685 0.200787 -0.157480,
        -0.019685 0.200787 -0.177165,
        -0.019685 0.200787 -0.157480,
        0.200787 0.137795 -0.177165,
        0.200787 0.098425 -0.177165,
        0.200787 0.137795 -0.157480,
        0.200787 0.098425 -0.157480,
        0.200787 0.019685 -0.177165,
        0.200787 -0.019685 -0.177165,
        0.200787 0.019685 -0.157480,
        0.200787 -0.019685 -0.157480,
        0.200787 -0.098425 -0.177165,
        0.200787 -0.137795 -0.177165,
        0.200787 -0.098425 -0.157480,
        0.200787 -0.137795 -0.157480,
        -0.200787 0.098425 -0.177165,
        -0.200787 0.137795 -0.177165,
        -0.200787 0.098425 -0.157480,
        -0.200787 0.137795 -0.157480,
        -0.200787 -0.019685 -0.177165,
        -0.200787 0.019685 -0.177165,
        -0.200787 -0.019685 -0.157480,
        -0.200787 0.019685 -0.157480,
        -0.200787 -0.137795 -0.177165,
        -0.200787 -0.098425 -0.177165,
        -0.200787 -0.137795 -0.157480,
        -0.200787 -0.098425 -0.157480,
        -0.036379 0.176419 -0.196457,
        -0.044061 0.156734 -0.196457,
        -0.041180 0.156734 -0.196457,
        -0.039189 0.162256 -0.196457,
        -0.031056 0.162256 -0.196457,
        -0.029177 0.156734 -0.196457,
        -0.026296 0.156734 -0.196457,
        -0.033738 0.176419 -0.196457,
        -0.031720 0.164416 -0.196457,
        -0.038303 0.164416 -0.196457,
        -0.034657 0.172638 -0.196457,
        -0.034847 0.173321 -0.196457,
        -0.034972 0.174019 -0.196457,
        -0.035036 0.174019 -0.196457,
        -0.035165 0.173323 -0.196457,
        -0.035340 0.172638 -0.196457,
        -0.031720 0.164416 -0.196850,
        -0.038303 0.164416 -0.196850,
        -0.034657 0.172638 -0.196850,
        -0.034847 0.173321 -0.196850,
        -0.034972 0.174019 -0.196850,
        -0.035036 0.174019 -0.196850,
        -0.035165 0.173323 -0.196850,
        -0.035340 0.172638 -0.196850,
        -0.014365 0.156734 -0.196457,
        -0.009012 0.156734 -0.196457,
        -0.009012 0.176419 -0.196457,
        -0.014567 0.176419 -0.196457,
        -0.024856 0.166824 -0.196457,
        -0.024713 0.168676 -0.196457,
        -0.024184 0.170616 -0.196457,
        -0.023269 0.172309 -0.196457,
        -0.021878 0.173852 -0.196457,
        -0.021857 0.173870 -0.196457,
        -0.019714 0.175306 -0.196457,
        -0.017411 0.176115 -0.196457,
        -0.016800 0.156946 -0.196457,
        -0.019069 0.157623 -0.196457,
        -0.021124 0.158817 -0.196457,
        -0.022744 0.160369 -0.196457,
        -0.023873 0.162129 -0.196457,
        -0.024580 0.164190 -0.196457,
        -0.020905 0.171498 -0.196457,
        -0.019948 0.172513 -0.196457,
        -0.018511 0.173442 -0.196457,
        -0.016886 0.174011 -0.196457,
        -0.014556 0.174259 -0.196457,
        -0.011653 0.174259 -0.196457,
        -0.011653 0.158894 -0.196457,
        -0.014447 0.158894 -0.196457,
        -0.016524 0.159088 -0.196457,
        -0.018180 0.159605 -0.196457,
        -0.019523 0.160402 -0.196457,
        -0.020627 0.161493 -0.196457,
        -0.021457 0.162850 -0.196457,
        -0.022035 0.164700 -0.196457,
        -0.022215 0.166768 -0.196457,
        -0.022048 0.168727 -0.196457,
        -0.021589 0.170284 -0.196457,
        -0.014556 0.174259 -0.196850,
        -0.011653 0.174259 -0.196850,
        -0.016886 0.174011 -0.196850,
        -0.018511 0.173442 -0.196850,
        -0.019948 0.172513 -0.196850,
        -0.020905 0.171498 -0.196850,
        -0.021589 0.170284 -0.196850,
        -0.022048 0.168727 -0.196850,
        -0.022215 0.166768 -0.196850,
        -0.022035 0.164700 -0.196850,
        -0.021457 0.162850 -0.196850,
        -0.020627 0.161493 -0.196850,
        -0.019523 0.160402 -0.196850,
        -0.018180 0.159605 -0.196850,
        -0.016524 0.159088 -0.196850,
        -0.014447 0.158894 -0.196850,
        -0.011653 0.158894 -0.196850,
        -0.005171 0.158894 -0.196457,
        -0.005171 0.156734 -0.196457,
        0.005392 0.156734 -0.196457,
        0.005392 0.176419 -0.196457,
        -0.004691 0.176419 -0.196457,
        -0.004691 0.174259 -0.196457,
        0.002751 0.174259 -0.196457,
        0.002751 0.167777 -0.196457,
        -0.004211 0.167777 -0.196457,
        -0.004211 0.165616 -0.196457,
        0.002751 0.165616 -0.196457,
        0.002751 0.158894 -0.196457,
        0.009233 0.159915 -0.196457,
        0.009233 0.157754 -0.196457,
        0.011331 0.156893 -0.196457,
        0.014649 0.156494 -0.196457,
        0.014111 0.156503 -0.196457,
        0.023876 0.166205 -0.196457,
        0.023686 0.163926 -0.196457,
        0.023094 0.161842 -0.196457,
        0.022045 0.159970 -0.196457,
        0.020567 0.158413 -0.196457,
        0.018983 0.157402 -0.196457,
        0.017075 0.156746 -0.196457,
        0.013865 0.176659 -0.196457,
        0.015843 0.176498 -0.196457,
        0.018037 0.175860 -0.196457,
        0.019907 0.174784 -0.196457,
        0.021684 0.173075 -0.196457,
        0.022837 0.171234 -0.196457,
        0.023593 0.169004 -0.196457,
        0.011509 0.176496 -0.196457,
        0.009233 0.175879 -0.196457,
        0.009233 0.173238 -0.196457,
        0.013843 0.174498 -0.196457,
        0.011450 0.174188 -0.196457,
        0.021236 0.166367 -0.196457,
        0.021142 0.167898 -0.196457,
        0.020617 0.170006 -0.196457,
        0.019806 0.171525 -0.196457,
        0.018617 0.172838 -0.196457,
        0.017254 0.173749 -0.196457,
        0.015781 0.174281 -0.196457,
        0.014285 0.158654 -0.196457,
        0.016121 0.158861 -0.196457,
        0.017556 0.159389 -0.196457,
        0.018764 0.160203 -0.196457,
        0.019687 0.161177 -0.196457,
        0.020502 0.162542 -0.196457,
        0.021037 0.164235 -0.196457,
        0.009585 0.159719 -0.196457,
        0.011672 0.158944 -0.196457,
        0.025557 0.158894 -0.196457,
        0.025557 0.156734 -0.196457,
        0.035639 0.156734 -0.196457,
        0.035639 0.176419 -0.196457,
        0.032999 0.176419 -0.196457,
        0.032999 0.158894 -0.196457,
      ]
    }
    coordIndex [
      177, 17, 6, -1,
      177, 6, 3, -1,
      3, 6, 104, -1,
      3, 104, 4, -1,
      103, 102, 178, -1,
      1, 0, 50, -1,
      1, 50, 178, -1,
      178, 50, 98, -1,
      178, 98, 103, -1,
      17, 177, 100, -1,
      100, 177, 178, -1,
      100, 178, 101, -1,
      101, 178, 102, -1,
      3, 5, 179, -1,
      180, 181, 177, -1,
      3, 179, 177, -1,
      177, 179, 182, -1,
      177, 182, 180, -1,
      183, 184, 178, -1,
      178, 184, 185, -1,
      178, 185, 1, -1,
      1, 185, 186, -1,
      1, 186, 2, -1,
      181, 187, 177, -1,
      177, 187, 188, -1,
      177, 188, 178, -1,
      178, 188, 189, -1,
      178, 189, 183, -1,
      190, 149, 191, -1,
      191, 149, 25, -1,
      191, 25, 24, -1,
      24, 23, 191, -1,
      191, 23, 22, -1,
      191, 22, 192, -1,
      192, 22, 21, -1,
      193, 192, 16, -1,
      16, 192, 21, -1,
      193, 16, 15, -1,
      193, 15, 194, -1,
      194, 15, 32, -1,
      194, 32, 33, -1,
      151, 195, 34, -1,
      34, 195, 196, -1,
      34, 196, 30, -1,
      30, 196, 194, -1,
      30, 194, 33, -1,
      194, 196, 193, -1,
      193, 196, 191, -1,
      193, 191, 192, -1,
      197, 39, 37, -1,
      49, 198, 99, -1,
      99, 198, 197, -1,
      99, 197, 105, -1,
      105, 197, 37, -1,
      199, 198, 48, -1,
      48, 198, 49, -1,
      46, 200, 47, -1,
      47, 200, 199, -1,
      47, 199, 48, -1,
      155, 201, 51, -1,
      51, 201, 200, -1,
      51, 200, 52, -1,
      52, 200, 46, -1,
      202, 156, 203, -1,
      203, 156, 136, -1,
      203, 136, 197, -1,
      197, 136, 40, -1,
      197, 40, 39, -1,
      198, 199, 197, -1,
      197, 199, 200, -1,
      197, 200, 203, -1,
      8, 204, 7, -1,
      7, 204, 205, -1,
      7, 205, 157, -1,
      157, 205, 206, -1,
      207, 204, 9, -1,
      9, 204, 8, -1,
      11, 208, 10, -1,
      10, 208, 207, -1,
      10, 207, 9, -1,
      159, 209, 12, -1,
      12, 209, 210, -1,
      12, 210, 11, -1,
      11, 210, 208, -1,
      204, 207, 205, -1,
      205, 207, 208, -1,
      205, 208, 210, -1,
      211, 212, 20, -1,
      20, 212, 19, -1,
      213, 211, 14, -1,
      14, 211, 20, -1,
      163, 214, 13, -1,
      13, 214, 215, -1,
      13, 215, 14, -1,
      14, 215, 213, -1,
      19, 212, 18, -1,
      18, 212, 216, -1,
      18, 216, 164, -1,
      164, 216, 217, -1,
      216, 212, 215, -1,
      215, 212, 211, -1,
      215, 211, 213, -1,
      217, 214, 164, -1,
      164, 214, 163, -1,
      217, 216, 214, -1,
      214, 216, 215, -1,
      206, 209, 157, -1,
      157, 209, 159, -1,
      210, 209, 205, -1,
      205, 209, 206, -1,
      218, 219, 161, -1,
      161, 219, 162, -1,
      220, 218, 160, -1,
      160, 218, 161, -1,
      221, 220, 158, -1,
      158, 220, 160, -1,
      219, 221, 162, -1,
      162, 221, 158, -1,
      220, 221, 218, -1,
      218, 221, 219, -1,
      190, 195, 149, -1,
      149, 195, 151, -1,
      196, 195, 191, -1,
      191, 195, 190, -1,
      202, 201, 156, -1,
      156, 201, 155, -1,
      202, 203, 201, -1,
      201, 203, 200, -1,
      222, 223, 152, -1,
      152, 223, 150, -1,
      224, 222, 154, -1,
      154, 222, 152, -1,
      225, 224, 153, -1,
      153, 224, 154, -1,
      223, 225, 150, -1,
      150, 225, 153, -1,
      224, 225, 222, -1,
      222, 225, 223, -1,
      226, 227, 146, -1,
      146, 227, 141, -1,
      228, 226, 139, -1,
      139, 226, 146, -1,
      229, 228, 140, -1,
      140, 228, 139, -1,
      227, 229, 141, -1,
      141, 229, 140, -1,
      228, 229, 226, -1,
      226, 229, 227, -1,
      230, 231, 145, -1,
      145, 231, 144, -1,
      232, 230, 138, -1,
      138, 230, 145, -1,
      233, 232, 137, -1,
      137, 232, 138, -1,
      231, 233, 144, -1,
      144, 233, 137, -1,
      232, 233, 230, -1,
      230, 233, 231, -1,
      234, 235, 143, -1,
      143, 235, 148, -1,
      236, 234, 142, -1,
      142, 234, 143, -1,
      237, 236, 147, -1,
      147, 236, 142, -1,
      235, 237, 148, -1,
      148, 237, 147, -1,
      236, 237, 234, -1,
      234, 237, 235, -1,
      238, 239, 166, -1,
      166, 239, 176, -1,
      240, 238, 165, -1,
      165, 238, 166, -1,
      241, 240, 175, -1,
      175, 240, 165, -1,
      239, 241, 176, -1,
      176, 241, 175, -1,
      240, 241, 238, -1,
      238, 241, 239, -1,
      242, 243, 168, -1,
      168, 243, 167, -1,
      244, 242, 170, -1,
      170, 242, 168, -1,
      245, 244, 172, -1,
      172, 244, 170, -1,
      243, 245, 167, -1,
      167, 245, 172, -1,
      244, 245, 242, -1,
      242, 245, 243, -1,
      246, 247, 174, -1,
      174, 247, 169, -1,
      248, 246, 173, -1,
      173, 246, 174, -1,
      249, 248, 171, -1,
      171, 248, 173, -1,
      247, 249, 169, -1,
      169, 249, 171, -1,
      248, 249, 246, -1,
      246, 249, 247, -1,
      250, 251, 38, -1,
      38, 251, 36, -1,
      251, 252, 36, -1,
      36, 252, 35, -1,
      252, 253, 35, -1,
      35, 253, 41, -1,
      253, 254, 41, -1,
      41, 254, 42, -1,
      254, 255, 42, -1,
      42, 255, 43, -1,
      255, 256, 43, -1,
      43, 256, 44, -1,
      256, 257, 44, -1,
      44, 257, 45, -1,
      257, 250, 45, -1,
      45, 250, 38, -1,
      258, 254, 259, -1,
      259, 254, 253, -1,
      260, 257, 258, -1,
      258, 257, 256, -1,
      258, 256, 254, -1,
      254, 256, 255, -1,
      260, 261, 257, -1,
      257, 261, 262, -1,
      257, 262, 250, -1,
      250, 262, 263, -1,
      250, 263, 264, -1,
      264, 265, 250, -1,
      250, 265, 259, -1,
      250, 259, 251, -1,
      251, 259, 253, -1,
      251, 253, 252, -1,
      258, 259, 266, -1,
      266, 259, 267, -1,
      260, 258, 268, -1,
      268, 258, 266, -1,
      260, 268, 269, -1,
      260, 269, 261, -1,
      261, 269, 270, -1,
      261, 270, 262, -1,
      263, 262, 271, -1,
      271, 262, 270, -1,
      263, 271, 272, -1,
      263, 272, 264, -1,
      264, 272, 273, -1,
      264, 273, 265, -1,
      259, 265, 267, -1,
      267, 265, 273, -1,
      274, 275, 130, -1,
      130, 275, 131, -1,
      275, 276, 131, -1,
      131, 276, 132, -1,
      276, 277, 132, -1,
      132, 277, 122, -1,
      278, 134, 133, -1,
      278, 133, 279, -1,
      279, 133, 128, -1,
      279, 128, 280, -1,
      280, 128, 127, -1,
      280, 127, 281, -1,
      281, 127, 126, -1,
      281, 126, 282, -1,
      282, 126, 125, -1,
      282, 125, 283, -1,
      283, 125, 124, -1,
      283, 124, 284, -1,
      284, 124, 123, -1,
      284, 123, 285, -1,
      285, 123, 122, -1,
      285, 122, 277, -1,
      274, 130, 129, -1,
      274, 129, 286, -1,
      286, 129, 121, -1,
      286, 121, 287, -1,
      287, 121, 120, -1,
      287, 120, 288, -1,
      288, 120, 119, -1,
      288, 119, 289, -1,
      289, 119, 118, -1,
      289, 118, 290, -1,
      290, 118, 135, -1,
      290, 135, 291, -1,
      291, 135, 134, -1,
      291, 134, 278, -1,
      280, 281, 292, -1,
      292, 281, 282, -1,
      292, 282, 293, -1,
      293, 282, 283, -1,
      293, 283, 294, -1,
      294, 283, 284, -1,
      294, 284, 295, -1,
      295, 284, 285, -1,
      295, 285, 296, -1,
      296, 285, 277, -1,
      296, 277, 297, -1,
      297, 277, 276, -1,
      297, 276, 298, -1,
      298, 276, 275, -1,
      298, 275, 299, -1,
      299, 275, 274, -1,
      299, 274, 300, -1,
      300, 274, 286, -1,
      300, 286, 301, -1,
      301, 286, 287, -1,
      301, 287, 302, -1,
      302, 287, 288, -1,
      302, 288, 303, -1,
      303, 288, 289, -1,
      303, 289, 304, -1,
      304, 289, 290, -1,
      304, 290, 305, -1,
      305, 290, 291, -1,
      305, 291, 306, -1,
      306, 291, 278, -1,
      306, 278, 307, -1,
      307, 278, 279, -1,
      307, 279, 308, -1,
      308, 279, 280, -1,
      308, 280, 292, -1,
      296, 297, 309, -1,
      309, 297, 310, -1,
      296, 309, 311, -1,
      296, 311, 295, -1,
      295, 311, 312, -1,
      295, 312, 294, -1,
      294, 312, 313, -1,
      294, 313, 293, -1,
      293, 313, 314, -1,
      293, 314, 292, -1,
      292, 314, 315, -1,
      292, 315, 308, -1,
      308, 315, 316, -1,
      308, 316, 307, -1,
      307, 316, 317, -1,
      307, 317, 306, -1,
      306, 317, 318, -1,
      306, 318, 305, -1,
      305, 318, 319, -1,
      305, 319, 304, -1,
      304, 319, 320, -1,
      304, 320, 303, -1,
      303, 320, 321, -1,
      303, 321, 302, -1,
      302, 321, 322, -1,
      302, 322, 301, -1,
      301, 322, 323, -1,
      301, 323, 300, -1,
      300, 323, 324, -1,
      300, 324, 299, -1,
      298, 299, 325, -1,
      325, 299, 324, -1,
      297, 298, 310, -1,
      310, 298, 325, -1,
      326, 327, 108, -1,
      108, 327, 109, -1,
      327, 328, 109, -1,
      109, 328, 110, -1,
      328, 329, 110, -1,
      110, 329, 111, -1,
      329, 330, 111, -1,
      111, 330, 106, -1,
      330, 331, 106, -1,
      106, 331, 107, -1,
      331, 332, 107, -1,
      107, 332, 117, -1,
      332, 333, 117, -1,
      117, 333, 116, -1,
      333, 334, 116, -1,
      116, 334, 115, -1,
      334, 335, 115, -1,
      115, 335, 114, -1,
      335, 336, 114, -1,
      114, 336, 112, -1,
      336, 337, 112, -1,
      112, 337, 113, -1,
      337, 326, 113, -1,
      113, 326, 108, -1,
      328, 327, 326, -1,
      326, 337, 328, -1,
      328, 337, 336, -1,
      328, 336, 329, -1,
      331, 330, 332, -1,
      332, 330, 329, -1,
      332, 329, 333, -1,
      333, 329, 336, -1,
      333, 336, 334, -1,
      334, 336, 335, -1,
      338, 339, 53, -1,
      53, 339, 54, -1,
      54, 339, 340, -1,
      341, 95, 94, -1,
      341, 94, 342, -1,
      342, 94, 93, -1,
      342, 93, 340, -1,
      340, 93, 55, -1,
      340, 55, 54, -1,
      343, 85, 91, -1,
      343, 91, 344, -1,
      344, 91, 90, -1,
      344, 90, 345, -1,
      345, 90, 89, -1,
      345, 89, 346, -1,
      346, 89, 81, -1,
      346, 81, 347, -1,
      347, 81, 80, -1,
      347, 80, 348, -1,
      348, 80, 97, -1,
      348, 97, 349, -1,
      349, 97, 341, -1,
      341, 97, 96, -1,
      341, 96, 95, -1,
      350, 79, 351, -1,
      351, 79, 78, -1,
      78, 88, 351, -1,
      351, 88, 84, -1,
      351, 84, 352, -1,
      352, 84, 83, -1,
      352, 83, 353, -1,
      353, 83, 82, -1,
      353, 82, 354, -1,
      354, 82, 87, -1,
      354, 87, 355, -1,
      355, 87, 86, -1,
      355, 86, 356, -1,
      356, 86, 85, -1,
      356, 85, 343, -1,
      79, 350, 56, -1,
      56, 350, 357, -1,
      56, 357, 57, -1,
      57, 357, 358, -1,
      57, 358, 58, -1,
      358, 359, 58, -1,
      58, 359, 59, -1,
      360, 62, 60, -1,
      360, 60, 361, -1,
      361, 60, 59, -1,
      361, 59, 359, -1,
      362, 67, 77, -1,
      362, 77, 363, -1,
      363, 77, 76, -1,
      363, 76, 364, -1,
      364, 76, 66, -1,
      364, 66, 365, -1,
      365, 66, 65, -1,
      365, 65, 366, -1,
      366, 65, 64, -1,
      366, 64, 367, -1,
      367, 64, 63, -1,
      367, 63, 368, -1,
      368, 63, 62, -1,
      368, 62, 360, -1,
      369, 71, 70, -1,
      369, 70, 370, -1,
      370, 70, 72, -1,
      370, 72, 371, -1,
      371, 72, 73, -1,
      371, 73, 372, -1,
      372, 73, 74, -1,
      372, 74, 373, -1,
      373, 74, 69, -1,
      373, 69, 374, -1,
      374, 69, 68, -1,
      374, 68, 375, -1,
      375, 68, 67, -1,
      375, 67, 362, -1,
      338, 53, 61, -1,
      338, 61, 376, -1,
      376, 61, 75, -1,
      376, 75, 377, -1,
      377, 75, 71, -1,
      377, 71, 369, -1,
      370, 341, 369, -1,
      369, 341, 342, -1,
      369, 342, 377, -1,
      377, 342, 340, -1,
      377, 340, 376, -1,
      376, 340, 339, -1,
      376, 339, 338, -1,
      359, 358, 361, -1,
      361, 358, 357, -1,
      361, 357, 360, -1,
      360, 357, 350, -1,
      360, 350, 368, -1,
      368, 350, 351, -1,
      368, 351, 367, -1,
      367, 351, 352, -1,
      367, 352, 366, -1,
      366, 352, 353, -1,
      366, 353, 365, -1,
      365, 353, 354, -1,
      365, 354, 364, -1,
      364, 354, 355, -1,
      364, 355, 363, -1,
      363, 355, 356, -1,
      363, 356, 362, -1,
      362, 356, 343, -1,
      362, 343, 375, -1,
      375, 343, 344, -1,
      375, 344, 374, -1,
      374, 344, 345, -1,
      374, 345, 373, -1,
      373, 345, 346, -1,
      373, 346, 372, -1,
      372, 346, 347, -1,
      372, 347, 371, -1,
      371, 347, 348, -1,
      371, 348, 370, -1,
      370, 348, 349, -1,
      370, 349, 341, -1,
      378, 379, 26, -1,
      26, 379, 27, -1,
      379, 380, 27, -1,
      27, 380, 28, -1,
      380, 381, 28, -1,
      28, 381, 29, -1,
      381, 382, 29, -1,
      29, 382, 31, -1,
      382, 383, 31, -1,
      31, 383, 92, -1,
      383, 378, 92, -1,
      92, 378, 26, -1,
      382, 381, 383, -1,
      383, 381, 380, -1,
      383, 380, 378, -1,
      378, 380, 379, -1,
    ]
  }
}

Shape {
  appearance Appearance {
    material Material {
      diffuseColor 0.5020 0.5020 0.5020
      specularColor 0.2510 0.2510 0.2510
      ambientIntensity 0.2
      transparency 0.0000
      shininess 0.5
    }
  }
  geometry IndexedFaceSet {
    ccw TRUE
    solid FALSE
    coord DEF co Coordinate {
      point [
        -0.031720 0.164416 -0.196850,
        -0.038303 0.164416 -0.196850,
        -0.034657 0.172638 -0.196850,
        -0.034847 0.173321 -0.196850,
        -0.034972 0.174019 -0.196850,
        -0.035036 0.174019 -0.196850,
        -0.035165 0.173323 -0.196850,
        -0.035340 0.172638 -0.196850,
        -0.014556 0.174259 -0.196850,
        -0.011653 0.174259 -0.196850,
        -0.016886 0.174011 -0.196850,
        -0.018511 0.173442 -0.196850,
        -0.019948 0.172513 -0.196850,
        -0.020905 0.171498 -0.196850,
        -0.021589 0.170284 -0.196850,
        -0.022048 0.168727 -0.196850,
        -0.022215 0.166768 -0.196850,
        -0.022035 0.164700 -0.196850,
        -0.021457 0.162850 -0.196850,
        -0.020627 0.161493 -0.196850,
        -0.019523 0.160402 -0.196850,
        -0.018180 0.159605 -0.196850,
        -0.016524 0.159088 -0.196850,
        -0.014447 0.158894 -0.196850,
        -0.011653 0.158894 -0.196850,
      ]
    }
    coordIndex [
      0, 1, 2, -1,
      2, 1, 7, -1,
      2, 7, 3, -1,
      3, 7, 6, -1,
      3, 6, 4, -1,
      4, 6, 5, -1,
      9, 24, 8, -1,
      8, 24, 23, -1,
      8, 23, 22, -1,
      16, 15, 8, -1,
      8, 15, 14, -1,
      8, 14, 10, -1,
      22, 21, 8, -1,
      8, 21, 20, -1,
      8, 20, 19, -1,
      19, 18, 8, -1,
      8, 18, 17, -1,
      8, 17, 16, -1,
      13, 12, 14, -1,
      14, 12, 11, -1,
      14, 11, 10, -1,
    ]
  }
}

Shape {
  appearance Appearance {
    material Material {
      diffuseColor 1.0000 1.0000 1.0000
      specularColor 0.8784 0.8784 0.8784
      ambientIntensity 0.2
      transparency 0.0000
      shininess 0.5
    }
  }
  geometry IndexedFaceSet {
    ccw TRUE
    solid FALSE
    coord DEF co Coordinate {
      point [
        -0.041430 -0.097764 -0.200787,
        -0.041430 -0.097764 -0.196850,
        -0.010267 -0.128928 -0.200787,
        -0.010267 -0.128928 -0.196850,
        -0.036867 -0.094262 -0.196850,
        -0.031552 -0.092061 -0.196850,
        -0.025848 -0.091310 -0.196850,
        -0.025576 -0.091346 -0.196850,
        -0.020145 -0.092061 -0.196850,
        -0.006765 -0.102328 -0.196850,
        -0.004563 -0.107643 -0.196850,
        -0.003813 -0.113346 -0.196850,
        -0.014830 -0.094262 -0.196850,
        -0.010267 -0.097764 -0.196850,
        -0.007091 -0.124790 -0.196850,
        -0.007091 -0.101902 -0.196850,
        -0.006765 -0.124364 -0.196850,
        -0.004563 -0.119049 -0.196850,
        -0.006765 -0.124364 -0.200787,
        -0.003813 -0.113346 -0.200787,
        -0.004563 -0.107643 -0.200787,
        -0.004563 -0.119049 -0.200787,
        -0.020145 -0.092061 -0.200787,
        -0.025848 -0.091310 -0.200787,
        -0.031552 -0.092061 -0.200787,
        -0.036867 -0.094262 -0.200787,
        -0.006765 -0.102328 -0.200787,
        -0.010267 -0.097764 -0.200787,
        -0.014830 -0.094262 -0.200787,
      ]
    }
    coordIndex [
      2, 3, 14, -1,
      2, 14, 18, -1,
      18, 14, 16, -1,
      18, 16, 21, -1,
      21, 16, 17, -1,
      21, 17, 19, -1,
      19, 17, 11, -1,
      19, 11, 20, -1,
      20, 11, 10, -1,
      20, 10, 26, -1,
      10, 9, 26, -1,
      26, 9, 15, -1,
      26, 15, 27, -1,
      27, 15, 13, -1,
      27, 13, 28, -1,
      28, 13, 12, -1,
      28, 12, 22, -1,
      12, 8, 22, -1,
      22, 8, 7, -1,
      22, 7, 23, -1,
      23, 7, 6, -1,
      23, 6, 24, -1,
      24, 6, 5, -1,
      24, 5, 25, -1,
      25, 5, 4, -1,
      25, 4, 0, -1,
      0, 4, 1, -1,
    ]
  }
}

Shape {
  appearance Appearance {
    material Material {
      diffuseColor 0.7529 0.7529 0.7529
      specularColor 0.3765 0.3765 0.3765
      ambientIntensity 0.2
      transparency 0.0000
      shininess 0.5
    }
  }
  geometry IndexedFaceSet {
    ccw TRUE
    solid FALSE
    coord DEF co Coordinate {
      point [
        -0.115413 -0.146828 -0.003937,
        -0.113585 -0.141803 -0.003937,
        -0.135993 -0.136492 -0.003937,
        -0.112964 -0.136492 -0.003937,
        -0.113585 -0.131181 -0.003937,
        -0.126872 -0.157638 -0.003937,
        -0.122241 -0.154965 -0.003937,
        -0.118352 -0.151295 -0.003937,
        -0.142598 -0.158554 -0.003937,
        -0.137332 -0.159483 -0.003937,
        -0.131994 -0.159172 -0.003937,
        -0.155234 -0.149147 -0.003937,
        -0.151797 -0.153243 -0.003937,
        -0.147508 -0.156436 -0.003937,
        -0.158867 -0.133819 -0.003937,
        -0.158867 -0.139166 -0.003937,
        -0.157634 -0.144369 -0.003937,
        -0.151797 -0.119741 -0.003937,
        -0.155234 -0.123837 -0.003937,
        -0.157634 -0.128616 -0.003937,
        -0.137332 -0.113502 -0.003937,
        -0.142598 -0.114430 -0.003937,
        -0.147508 -0.116548 -0.003937,
        -0.122241 -0.118020 -0.003937,
        -0.126872 -0.115346 -0.003937,
        -0.131994 -0.113813 -0.003937,
        -0.115413 -0.126157 -0.003937,
        -0.118352 -0.121689 -0.003937,
      ]
    }
    coordIndex [
      0, 1, 2, -1,
      2, 1, 3, -1,
      2, 3, 4, -1,
      5, 6, 2, -1,
      2, 6, 7, -1,
      2, 7, 0, -1,
      8, 9, 2, -1,
      2, 9, 10, -1,
      2, 10, 5, -1,
      11, 12, 2, -1,
      2, 12, 13, -1,
      2, 13, 8, -1,
      14, 15, 2, -1,
      2, 15, 16, -1,
      2, 16, 11, -1,
      17, 18, 2, -1,
      2, 18, 19, -1,
      2, 19, 14, -1,
      20, 21, 2, -1,
      2, 21, 22, -1,
      2, 22, 17, -1,
      23, 24, 2, -1,
      2, 24, 25, -1,
      2, 25, 20, -1,
      4, 26, 2, -1,
      2, 26, 27, -1,
      2, 27, 23, -1,
    ]
  }
}

Shape {
  appearance Appearance {
    material Material {
      diffuseColor 0.5020 0.5020 0.5020
      specularColor 0.2510 0.2510 0.2510
      ambientIntensity 0.2
      transparency 0.0000
      shininess 0.5
    }
  }
  geometry IndexedFaceSet {
    ccw TRUE
    solid FALSE
    coord DEF co Coordinate {
      point [
        -0.192913 -0.196850 -0.196850,
        -0.193932 -0.196716 -0.196850,
        -0.194882 -0.196323 -0.196850,
        -0.195697 -0.195697 -0.196850,
        -0.196323 -0.194882 -0.196850,
        -0.196716 -0.193932 -0.196850,
        -0.196850 -0.192913 -0.196850,
        0.192913 -0.196850 -0.196850,
        0.196850 -0.192913 -0.196850,
        0.196716 -0.193932 -0.196850,
        0.196323 -0.194882 -0.196850,
        0.195697 -0.195697 -0.196850,
        0.194882 -0.196323 -0.196850,
        0.193932 -0.196716 -0.196850,
        0.193932 0.196716 -0.196850,
        0.194882 0.196323 -0.196850,
        0.195697 0.195697 -0.196850,
        0.196323 0.194882 -0.196850,
        0.196716 0.193932 -0.196850,
        0.192913 0.196850 -0.196850,
        0.196850 0.192913 -0.196850,
        -0.196716 0.193932 -0.196850,
        -0.192913 0.196850 -0.196850,
        -0.196850 0.192913 -0.196850,
        -0.196323 0.194882 -0.196850,
        -0.195697 0.195697 -0.196850,
        -0.194882 0.196323 -0.196850,
        -0.193932 0.196716 -0.196850,
        0.196850 0.192913 -0.003937,
        0.196850 -0.192913 -0.003937,
        0.192913 0.196850 -0.003937,
        -0.192913 0.196850 -0.003937,
        -0.192913 -0.196850 -0.003937,
        0.192913 -0.196850 -0.003937,
        -0.196850 0.192913 -0.003937,
        -0.196850 -0.192913 -0.003937,
        0.192913 -0.192913 0.000000,
        -0.109027 -0.136492 0.000000,
        -0.109754 -0.142711 0.000000,
        -0.143728 -0.162326 0.000000,
        -0.149477 -0.159846 0.000000,
        -0.192913 -0.192913 0.000000,
        -0.158524 -0.121674 0.000000,
        -0.154499 -0.116878 0.000000,
        -0.192913 0.192913 0.000000,
        -0.149477 -0.113139 0.000000,
        -0.143728 -0.110659 0.000000,
        -0.111895 -0.148595 0.000000,
        -0.115336 -0.153826 0.000000,
        -0.119890 -0.158123 0.000000,
        -0.125313 -0.161253 0.000000,
        -0.131311 -0.163049 0.000000,
        -0.137561 -0.163413 0.000000,
        -0.154499 -0.156107 0.000000,
        -0.158524 -0.151311 0.000000,
        -0.161333 -0.145715 0.000000,
        -0.162778 -0.139623 0.000000,
        -0.162778 -0.133361 0.000000,
        -0.161333 -0.127269 0.000000,
        -0.119890 -0.114862 0.000000,
        -0.115336 -0.119158 0.000000,
        0.192913 0.192913 0.000000,
        -0.111895 -0.124390 0.000000,
        -0.109754 -0.130273 0.000000,
        -0.137561 -0.109571 0.000000,
        -0.131311 -0.109935 0.000000,
        -0.125313 -0.111731 0.000000,
        -0.115413 -0.146828 -0.003937,
        -0.113585 -0.141803 -0.003937,
        -0.112964 -0.136492 -0.003937,
        -0.113585 -0.131181 -0.003937,
        -0.126872 -0.157638 -0.003937,
        -0.122241 -0.154965 -0.003937,
        -0.118352 -0.151295 -0.003937,
        -0.142598 -0.158554 -0.003937,
        -0.137332 -0.159483 -0.003937,
        -0.131994 -0.159172 -0.003937,
        -0.155234 -0.149147 -0.003937,
        -0.151797 -0.153243 -0.003937,
        -0.147508 -0.156436 -0.003937,
        -0.158867 -0.133819 -0.003937,
        -0.158867 -0.139166 -0.003937,
        -0.157634 -0.144369 -0.003937,
        -0.151797 -0.119741 -0.003937,
        -0.155234 -0.123837 -0.003937,
        -0.157634 -0.128616 -0.003937,
        -0.137332 -0.113502 -0.003937,
        -0.142598 -0.114430 -0.003937,
        -0.147508 -0.116548 -0.003937,
        -0.122241 -0.118020 -0.003937,
        -0.126872 -0.115346 -0.003937,
        -0.131994 -0.113813 -0.003937,
        -0.115413 -0.126157 -0.003937,
        -0.118352 -0.121689 -0.003937,
        -0.196716 0.193932 -0.003937,
        -0.196323 0.194882 -0.003937,
        -0.195697 0.195697 -0.003937,
        -0.194882 0.196323 -0.003937,
        -0.193932 0.196716 -0.003937,
        -0.192913 0.196716 -0.002918,
        0.192913 0.196716 -0.002918,
        -0.192913 0.196323 -0.001969,
        0.192913 0.196323 -0.001969,
        -0.192913 0.195697 -0.001153,
        0.192913 0.195697 -0.001153,
        -0.192913 0.194882 -0.000528,
        0.192913 0.194882 -0.000528,
        -0.192913 0.193932 -0.000134,
        0.192913 0.193932 -0.000134,
        0.193932 0.196716 -0.003937,
        0.194882 0.196323 -0.003937,
        0.195697 0.195697 -0.003937,
        0.196323 0.194882 -0.003937,
        0.196716 0.193932 -0.003937,
        -0.196716 0.192913 -0.002918,
        -0.196587 0.193898 -0.002918,
        -0.194618 0.193898 -0.000528,
        -0.193796 0.193423 -0.000134,
        -0.193634 0.193634 -0.000134,
        -0.193177 0.193898 -0.000134,
        -0.193898 0.193177 -0.000134,
        -0.194815 0.193423 -0.000528,
        -0.195602 0.193634 -0.001153,
        -0.193932 0.192913 -0.000134,
        -0.194306 0.194306 -0.000528,
        -0.193423 0.193796 -0.000134,
        -0.193898 0.194618 -0.000528,
        -0.193423 0.194815 -0.000528,
        -0.194882 0.192913 -0.000528,
        -0.195697 0.192913 -0.001153,
        -0.196323 0.192913 -0.001969,
        -0.195324 0.194306 -0.001153,
        -0.194882 0.194882 -0.001153,
        -0.194306 0.195324 -0.001153,
        -0.193634 0.195602 -0.001153,
        -0.196207 0.193796 -0.001969,
        -0.195866 0.194618 -0.001969,
        -0.195324 0.195324 -0.001969,
        -0.194618 0.195866 -0.001969,
        -0.193796 0.196207 -0.001969,
        -0.196207 0.194815 -0.002918,
        -0.195602 0.195602 -0.002918,
        -0.194815 0.196207 -0.002918,
        -0.193898 0.196587 -0.002918,
        0.193898 0.196587 -0.002918,
        0.193898 0.194618 -0.000528,
        0.193423 0.193796 -0.000134,
        0.193634 0.193634 -0.000134,
        0.193932 0.192913 -0.000134,
        0.193898 0.193177 -0.000134,
        0.193177 0.193898 -0.000134,
        0.193423 0.194815 -0.000528,
        0.193634 0.195602 -0.001153,
        0.194306 0.194306 -0.000528,
        0.193796 0.193423 -0.000134,
        0.194618 0.193898 -0.000528,
        0.194815 0.193423 -0.000528,
        0.194882 0.192913 -0.000528,
        0.194306 0.195324 -0.001153,
        0.194882 0.194882 -0.001153,
        0.195324 0.194306 -0.001153,
        0.195602 0.193634 -0.001153,
        0.195697 0.192913 -0.001153,
        0.193796 0.196207 -0.001969,
        0.194618 0.195866 -0.001969,
        0.195324 0.195324 -0.001969,
        0.195866 0.194618 -0.001969,
        0.196207 0.193796 -0.001969,
        0.196323 0.192913 -0.001969,
        0.194815 0.196207 -0.002918,
        0.195602 0.195602 -0.002918,
        0.196207 0.194815 -0.002918,
        0.196587 0.193898 -0.002918,
        0.196716 0.192913 -0.002918,
        -0.193932 -0.196716 -0.003937,
        -0.194882 -0.196323 -0.003937,
        -0.195697 -0.195697 -0.003937,
        -0.196323 -0.194882 -0.003937,
        -0.196716 -0.193932 -0.003937,
        -0.196716 -0.192913 -0.002918,
        -0.196323 -0.192913 -0.001969,
        -0.195697 -0.192913 -0.001153,
        -0.194882 -0.192913 -0.000528,
        -0.193932 -0.192913 -0.000134,
        0.196716 -0.192913 -0.002918,
        0.196323 -0.192913 -0.001969,
        0.195697 -0.192913 -0.001153,
        0.194882 -0.192913 -0.000528,
        0.193932 -0.192913 -0.000134,
        0.196716 -0.193932 -0.003937,
        0.196323 -0.194882 -0.003937,
        0.195697 -0.195697 -0.003937,
        0.194882 -0.196323 -0.003937,
        0.193932 -0.196716 -0.003937,
        -0.192913 -0.196716 -0.002918,
        -0.193898 -0.196587 -0.002918,
        -0.193898 -0.194618 -0.000528,
        -0.193423 -0.193796 -0.000134,
        -0.193634 -0.193634 -0.000134,
        -0.193898 -0.193177 -0.000134,
        -0.193177 -0.193898 -0.000134,
        -0.193423 -0.194815 -0.000528,
        -0.193634 -0.195602 -0.001153,
        -0.192913 -0.193932 -0.000134,
        -0.194306 -0.194306 -0.000528,
        -0.193796 -0.193423 -0.000134,
        -0.194618 -0.193898 -0.000528,
        -0.194815 -0.193423 -0.000528,
        -0.192913 -0.194882 -0.000528,
        -0.192913 -0.195697 -0.001153,
        -0.192913 -0.196323 -0.001969,
        -0.194306 -0.195324 -0.001153,
        -0.194882 -0.194882 -0.001153,
        -0.195324 -0.194306 -0.001153,
        -0.195602 -0.193634 -0.001153,
        -0.193796 -0.196207 -0.001969,
        -0.194618 -0.195866 -0.001969,
        -0.195324 -0.195324 -0.001969,
        -0.195866 -0.194618 -0.001969,
        -0.196207 -0.193796 -0.001969,
        -0.194815 -0.196207 -0.002918,
        -0.195602 -0.195602 -0.002918,
        -0.196207 -0.194815 -0.002918,
        -0.196587 -0.193898 -0.002918,
        0.196587 -0.193898 -0.002918,
        0.194618 -0.193898 -0.000528,
        0.193796 -0.193423 -0.000134,
        0.193634 -0.193634 -0.000134,
        0.192913 -0.193932 -0.000134,
        0.193177 -0.193898 -0.000134,
        0.193898 -0.193177 -0.000134,
        0.194815 -0.193423 -0.000528,
        0.195602 -0.193634 -0.001153,
        0.194306 -0.194306 -0.000528,
        0.193423 -0.193796 -0.000134,
        0.193898 -0.194618 -0.000528,
        0.193423 -0.194815 -0.000528,
        0.192913 -0.194882 -0.000528,
        0.195324 -0.194306 -0.001153,
        0.194882 -0.194882 -0.001153,
        0.194306 -0.195324 -0.001153,
        0.193634 -0.195602 -0.001153,
        0.192913 -0.195697 -0.001153,
        0.196207 -0.193796 -0.001969,
        0.195866 -0.194618 -0.001969,
        0.195324 -0.195324 -0.001969,
        0.194618 -0.195866 -0.001969,
        0.193796 -0.196207 -0.001969,
        0.192913 -0.196323 -0.001969,
        0.196207 -0.194815 -0.002918,
        0.195602 -0.195602 -0.002918,
        0.194815 -0.196207 -0.002918,
        0.193898 -0.196587 -0.002918,
        0.192913 -0.196716 -0.002918,
        -0.113454 -0.131150 -0.002918,
        -0.115294 -0.126096 -0.002918,
        -0.118249 -0.121603 -0.002918,
        -0.122161 -0.117912 -0.002918,
        -0.126819 -0.115223 -0.002918,
        -0.131971 -0.113680 -0.002918,
        -0.137340 -0.113368 -0.002918,
        -0.142637 -0.114302 -0.002918,
        -0.147575 -0.116432 -0.002918,
        -0.151889 -0.119644 -0.002918,
        -0.155346 -0.123763 -0.002918,
        -0.157760 -0.128570 -0.002918,
        -0.159000 -0.133803 -0.002918,
        -0.159000 -0.139181 -0.002918,
        -0.157760 -0.144415 -0.002918,
        -0.155346 -0.149221 -0.002918,
        -0.151889 -0.153341 -0.002918,
        -0.147575 -0.156552 -0.002918,
        -0.142637 -0.158683 -0.002918,
        -0.137340 -0.159617 -0.002918,
        -0.131971 -0.159304 -0.002918,
        -0.126819 -0.157761 -0.002918,
        -0.122161 -0.155072 -0.002918,
        -0.118249 -0.151381 -0.002918,
        -0.115294 -0.146888 -0.002918,
        -0.113454 -0.141834 -0.002918,
        -0.112830 -0.136492 -0.002918,
        -0.113071 -0.131059 -0.001969,
        -0.114942 -0.125920 -0.001969,
        -0.117948 -0.121350 -0.001969,
        -0.121926 -0.117596 -0.001969,
        -0.126663 -0.114862 -0.001969,
        -0.131903 -0.113293 -0.001969,
        -0.137363 -0.112975 -0.001969,
        -0.142750 -0.113925 -0.001969,
        -0.147772 -0.116091 -0.001969,
        -0.152159 -0.119357 -0.001969,
        -0.155675 -0.123547 -0.001969,
        -0.158130 -0.128435 -0.001969,
        -0.159391 -0.133757 -0.001969,
        -0.159391 -0.139227 -0.001969,
        -0.158130 -0.144549 -0.001969,
        -0.155675 -0.149437 -0.001969,
        -0.152159 -0.153627 -0.001969,
        -0.147772 -0.156893 -0.001969,
        -0.142750 -0.159059 -0.001969,
        -0.137363 -0.160009 -0.001969,
        -0.131903 -0.159691 -0.001969,
        -0.126663 -0.158122 -0.001969,
        -0.121926 -0.155388 -0.001969,
        -0.117948 -0.151634 -0.001969,
        -0.114942 -0.147065 -0.001969,
        -0.113071 -0.141925 -0.001969,
        -0.112436 -0.136492 -0.001969,
        -0.112463 -0.130915 -0.001153,
        -0.114383 -0.125639 -0.001153,
        -0.117469 -0.120948 -0.001153,
        -0.121552 -0.117095 -0.001153,
        -0.126415 -0.114287 -0.001153,
        -0.131794 -0.112677 -0.001153,
        -0.137400 -0.112350 -0.001153,
        -0.142929 -0.113326 -0.001153,
        -0.148085 -0.115550 -0.001153,
        -0.152589 -0.118902 -0.001153,
        -0.156198 -0.123204 -0.001153,
        -0.158718 -0.128221 -0.001153,
        -0.160013 -0.133685 -0.001153,
        -0.160013 -0.139300 -0.001153,
        -0.158718 -0.144763 -0.001153,
        -0.156198 -0.149781 -0.001153,
        -0.152589 -0.154082 -0.001153,
        -0.148085 -0.157435 -0.001153,
        -0.142929 -0.159659 -0.001153,
        -0.137400 -0.160634 -0.001153,
        -0.131794 -0.160307 -0.001153,
        -0.126415 -0.158697 -0.001153,
        -0.121552 -0.155890 -0.001153,
        -0.117469 -0.152037 -0.001153,
        -0.114383 -0.147345 -0.001153,
        -0.112463 -0.142069 -0.001153,
        -0.111811 -0.136492 -0.001153,
        -0.111669 -0.130727 -0.000528,
        -0.113654 -0.125273 -0.000528,
        -0.116844 -0.120424 -0.000528,
        -0.121066 -0.116441 -0.000528,
        -0.126092 -0.113539 -0.000528,
        -0.131652 -0.111874 -0.000528,
        -0.137447 -0.111537 -0.000528,
        -0.143163 -0.112544 -0.000528,
        -0.148493 -0.114843 -0.000528,
        -0.153148 -0.118309 -0.000528,
        -0.156879 -0.122756 -0.000528,
        -0.159484 -0.127943 -0.000528,
        -0.160822 -0.133590 -0.000528,
        -0.160822 -0.139394 -0.000528,
        -0.159484 -0.145042 -0.000528,
        -0.156879 -0.150229 -0.000528,
        -0.153148 -0.154675 -0.000528,
        -0.148493 -0.158141 -0.000528,
        -0.143163 -0.160440 -0.000528,
        -0.137447 -0.161448 -0.000528,
        -0.131652 -0.161110 -0.000528,
        -0.126092 -0.159446 -0.000528,
        -0.121066 -0.156544 -0.000528,
        -0.116844 -0.152561 -0.000528,
        -0.113654 -0.147711 -0.000528,
        -0.111669 -0.142257 -0.000528,
        -0.110995 -0.136492 -0.000528,
        -0.110745 -0.130508 -0.000134,
        -0.112806 -0.124847 -0.000134,
        -0.116117 -0.119813 -0.000134,
        -0.120498 -0.115679 -0.000134,
        -0.125716 -0.112667 -0.000134,
        -0.131488 -0.110939 -0.000134,
        -0.137502 -0.110589 -0.000134,
        -0.143435 -0.111635 -0.000134,
        -0.148967 -0.114021 -0.000134,
        -0.153800 -0.117619 -0.000134,
        -0.157672 -0.122234 -0.000134,
        -0.160376 -0.127618 -0.000134,
        -0.161765 -0.133480 -0.000134,
        -0.161765 -0.139504 -0.000134,
        -0.160376 -0.145367 -0.000134,
        -0.157672 -0.150751 -0.000134,
        -0.153800 -0.155366 -0.000134,
        -0.148967 -0.158963 -0.000134,
        -0.143435 -0.161350 -0.000134,
        -0.137502 -0.162396 -0.000134,
        -0.131488 -0.162046 -0.000134,
        -0.125716 -0.160318 -0.000134,
        -0.120498 -0.157305 -0.000134,
        -0.116117 -0.153171 -0.000134,
        -0.112806 -0.148137 -0.000134,
        -0.110745 -0.142476 -0.000134,
        -0.110046 -0.136492 -0.000134,
      ]
    }
    coordIndex [
      23, 34, 94, -1,
      23, 94, 21, -1,
      21, 94, 95, -1,
      21, 95, 24, -1,
      24, 95, 96, -1,
      24, 96, 25, -1,
      25, 96, 97, -1,
      25, 97, 26, -1,
      26, 97, 98, -1,
      26, 98, 27, -1,
      27, 98, 31, -1,
      27, 31, 22, -1,
      30, 31, 99, -1,
      30, 99, 100, -1,
      100, 99, 101, -1,
      100, 101, 102, -1,
      102, 101, 103, -1,
      102, 103, 104, -1,
      104, 103, 105, -1,
      104, 105, 106, -1,
      106, 105, 107, -1,
      106, 107, 108, -1,
      108, 107, 44, -1,
      108, 44, 61, -1,
      19, 30, 109, -1,
      19, 109, 14, -1,
      14, 109, 110, -1,
      14, 110, 15, -1,
      15, 110, 111, -1,
      15, 111, 16, -1,
      16, 111, 112, -1,
      16, 112, 17, -1,
      17, 112, 113, -1,
      17, 113, 18, -1,
      18, 113, 28, -1,
      18, 28, 20, -1,
      34, 114, 115, -1,
      116, 117, 118, -1,
      44, 107, 119, -1,
      118, 117, 44, -1,
      120, 44, 117, -1,
      120, 117, 121, -1,
      121, 117, 116, -1,
      121, 116, 122, -1,
      123, 44, 120, -1,
      124, 125, 126, -1,
      126, 125, 119, -1,
      126, 119, 127, -1,
      127, 119, 107, -1,
      127, 107, 105, -1,
      123, 120, 128, -1,
      128, 120, 121, -1,
      128, 121, 129, -1,
      129, 121, 122, -1,
      129, 122, 130, -1,
      131, 124, 132, -1,
      132, 124, 126, -1,
      132, 126, 133, -1,
      133, 126, 127, -1,
      133, 127, 134, -1,
      134, 127, 105, -1,
      134, 105, 103, -1,
      135, 131, 136, -1,
      136, 131, 132, -1,
      136, 132, 137, -1,
      137, 132, 133, -1,
      137, 133, 138, -1,
      138, 133, 134, -1,
      138, 134, 139, -1,
      139, 134, 103, -1,
      139, 103, 101, -1,
      114, 135, 115, -1,
      115, 135, 136, -1,
      115, 136, 140, -1,
      140, 136, 137, -1,
      140, 137, 141, -1,
      141, 137, 138, -1,
      141, 138, 142, -1,
      142, 138, 139, -1,
      142, 139, 143, -1,
      143, 139, 101, -1,
      143, 101, 99, -1,
      34, 115, 94, -1,
      94, 115, 140, -1,
      94, 140, 95, -1,
      95, 140, 141, -1,
      95, 141, 96, -1,
      96, 141, 142, -1,
      96, 142, 97, -1,
      97, 142, 143, -1,
      97, 143, 98, -1,
      98, 143, 99, -1,
      98, 99, 31, -1,
      125, 44, 119, -1,
      114, 130, 135, -1,
      135, 130, 122, -1,
      135, 122, 131, -1,
      131, 122, 116, -1,
      131, 116, 124, -1,
      124, 116, 118, -1,
      124, 118, 125, -1,
      125, 118, 44, -1,
      30, 100, 144, -1,
      145, 146, 147, -1,
      61, 148, 149, -1,
      147, 146, 61, -1,
      150, 61, 146, -1,
      150, 146, 151, -1,
      151, 146, 145, -1,
      151, 145, 152, -1,
      108, 61, 150, -1,
      153, 154, 155, -1,
      155, 154, 149, -1,
      155, 149, 156, -1,
      156, 149, 148, -1,
      156, 148, 157, -1,
      108, 150, 106, -1,
      106, 150, 151, -1,
      106, 151, 104, -1,
      104, 151, 152, -1,
      104, 152, 102, -1,
      158, 153, 159, -1,
      159, 153, 155, -1,
      159, 155, 160, -1,
      160, 155, 156, -1,
      160, 156, 161, -1,
      161, 156, 157, -1,
      161, 157, 162, -1,
      163, 158, 164, -1,
      164, 158, 159, -1,
      164, 159, 165, -1,
      165, 159, 160, -1,
      165, 160, 166, -1,
      166, 160, 161, -1,
      166, 161, 167, -1,
      167, 161, 162, -1,
      167, 162, 168, -1,
      100, 163, 144, -1,
      144, 163, 164, -1,
      144, 164, 169, -1,
      169, 164, 165, -1,
      169, 165, 170, -1,
      170, 165, 166, -1,
      170, 166, 171, -1,
      171, 166, 167, -1,
      171, 167, 172, -1,
      172, 167, 168, -1,
      172, 168, 173, -1,
      30, 144, 109, -1,
      109, 144, 169, -1,
      109, 169, 110, -1,
      110, 169, 170, -1,
      110, 170, 111, -1,
      111, 170, 171, -1,
      111, 171, 112, -1,
      112, 171, 172, -1,
      112, 172, 113, -1,
      113, 172, 173, -1,
      113, 173, 28, -1,
      154, 61, 149, -1,
      100, 102, 163, -1,
      163, 102, 152, -1,
      163, 152, 158, -1,
      158, 152, 145, -1,
      158, 145, 153, -1,
      153, 145, 147, -1,
      153, 147, 154, -1,
      154, 147, 61, -1,
      0, 32, 174, -1,
      0, 174, 1, -1,
      1, 174, 175, -1,
      1, 175, 2, -1,
      2, 175, 176, -1,
      2, 176, 3, -1,
      3, 176, 177, -1,
      3, 177, 4, -1,
      4, 177, 178, -1,
      4, 178, 5, -1,
      5, 178, 35, -1,
      5, 35, 6, -1,
      34, 35, 179, -1,
      34, 179, 114, -1,
      114, 179, 180, -1,
      114, 180, 130, -1,
      130, 180, 181, -1,
      130, 181, 129, -1,
      129, 181, 182, -1,
      129, 182, 128, -1,
      128, 182, 183, -1,
      128, 183, 123, -1,
      123, 183, 41, -1,
      123, 41, 44, -1,
      29, 28, 173, -1,
      29, 173, 184, -1,
      184, 173, 168, -1,
      184, 168, 185, -1,
      185, 168, 162, -1,
      185, 162, 186, -1,
      186, 162, 157, -1,
      186, 157, 187, -1,
      187, 157, 148, -1,
      187, 148, 188, -1,
      188, 148, 61, -1,
      188, 61, 36, -1,
      8, 29, 189, -1,
      8, 189, 9, -1,
      9, 189, 190, -1,
      9, 190, 10, -1,
      10, 190, 191, -1,
      10, 191, 11, -1,
      11, 191, 192, -1,
      11, 192, 12, -1,
      12, 192, 193, -1,
      12, 193, 13, -1,
      13, 193, 33, -1,
      13, 33, 7, -1,
      32, 194, 195, -1,
      196, 197, 198, -1,
      41, 183, 199, -1,
      198, 197, 41, -1,
      200, 41, 197, -1,
      200, 197, 201, -1,
      201, 197, 196, -1,
      201, 196, 202, -1,
      203, 41, 200, -1,
      204, 205, 206, -1,
      206, 205, 199, -1,
      206, 199, 207, -1,
      207, 199, 183, -1,
      207, 183, 182, -1,
      203, 200, 208, -1,
      208, 200, 201, -1,
      208, 201, 209, -1,
      209, 201, 202, -1,
      209, 202, 210, -1,
      211, 204, 212, -1,
      212, 204, 206, -1,
      212, 206, 213, -1,
      213, 206, 207, -1,
      213, 207, 214, -1,
      214, 207, 182, -1,
      214, 182, 181, -1,
      215, 211, 216, -1,
      216, 211, 212, -1,
      216, 212, 217, -1,
      217, 212, 213, -1,
      217, 213, 218, -1,
      218, 213, 214, -1,
      218, 214, 219, -1,
      219, 214, 181, -1,
      219, 181, 180, -1,
      194, 215, 195, -1,
      195, 215, 216, -1,
      195, 216, 220, -1,
      220, 216, 217, -1,
      220, 217, 221, -1,
      221, 217, 218, -1,
      221, 218, 222, -1,
      222, 218, 219, -1,
      222, 219, 223, -1,
      223, 219, 180, -1,
      223, 180, 179, -1,
      32, 195, 174, -1,
      174, 195, 220, -1,
      174, 220, 175, -1,
      175, 220, 221, -1,
      175, 221, 176, -1,
      176, 221, 222, -1,
      176, 222, 177, -1,
      177, 222, 223, -1,
      177, 223, 178, -1,
      178, 223, 179, -1,
      178, 179, 35, -1,
      205, 41, 199, -1,
      194, 210, 215, -1,
      215, 210, 202, -1,
      215, 202, 211, -1,
      211, 202, 196, -1,
      211, 196, 204, -1,
      204, 196, 198, -1,
      204, 198, 205, -1,
      205, 198, 41, -1,
      29, 184, 224, -1,
      225, 226, 227, -1,
      36, 228, 229, -1,
      227, 226, 36, -1,
      230, 36, 226, -1,
      230, 226, 231, -1,
      231, 226, 225, -1,
      231, 225, 232, -1,
      188, 36, 230, -1,
      233, 234, 235, -1,
      235, 234, 229, -1,
      235, 229, 236, -1,
      236, 229, 228, -1,
      236, 228, 237, -1,
      188, 230, 187, -1,
      187, 230, 231, -1,
      187, 231, 186, -1,
      186, 231, 232, -1,
      186, 232, 185, -1,
      238, 233, 239, -1,
      239, 233, 235, -1,
      239, 235, 240, -1,
      240, 235, 236, -1,
      240, 236, 241, -1,
      241, 236, 237, -1,
      241, 237, 242, -1,
      243, 238, 244, -1,
      244, 238, 239, -1,
      244, 239, 245, -1,
      245, 239, 240, -1,
      245, 240, 246, -1,
      246, 240, 241, -1,
      246, 241, 247, -1,
      247, 241, 242, -1,
      247, 242, 248, -1,
      184, 243, 224, -1,
      224, 243, 244, -1,
      224, 244, 249, -1,
      249, 244, 245, -1,
      249, 245, 250, -1,
      250, 245, 246, -1,
      250, 246, 251, -1,
      251, 246, 247, -1,
      251, 247, 252, -1,
      252, 247, 248, -1,
      252, 248, 253, -1,
      29, 224, 189, -1,
      189, 224, 249, -1,
      189, 249, 190, -1,
      190, 249, 250, -1,
      190, 250, 191, -1,
      191, 250, 251, -1,
      191, 251, 192, -1,
      192, 251, 252, -1,
      192, 252, 193, -1,
      193, 252, 253, -1,
      193, 253, 33, -1,
      234, 36, 229, -1,
      184, 185, 243, -1,
      243, 185, 232, -1,
      243, 232, 238, -1,
      238, 232, 225, -1,
      238, 225, 233, -1,
      233, 225, 227, -1,
      233, 227, 234, -1,
      234, 227, 36, -1,
      32, 33, 253, -1,
      32, 253, 194, -1,
      194, 253, 248, -1,
      194, 248, 210, -1,
      210, 248, 242, -1,
      210, 242, 209, -1,
      209, 242, 237, -1,
      209, 237, 208, -1,
      208, 237, 228, -1,
      208, 228, 203, -1,
      203, 228, 36, -1,
      203, 36, 41, -1,
      69, 254, 70, -1,
      70, 254, 255, -1,
      70, 255, 92, -1,
      92, 255, 256, -1,
      92, 256, 93, -1,
      93, 256, 257, -1,
      93, 257, 89, -1,
      89, 257, 258, -1,
      89, 258, 90, -1,
      90, 258, 259, -1,
      90, 259, 91, -1,
      91, 259, 260, -1,
      91, 260, 86, -1,
      86, 260, 261, -1,
      86, 261, 87, -1,
      87, 261, 262, -1,
      87, 262, 88, -1,
      88, 262, 263, -1,
      88, 263, 83, -1,
      83, 263, 264, -1,
      83, 264, 84, -1,
      84, 264, 265, -1,
      84, 265, 85, -1,
      85, 265, 266, -1,
      85, 266, 80, -1,
      80, 266, 267, -1,
      80, 267, 81, -1,
      81, 267, 268, -1,
      81, 268, 82, -1,
      82, 268, 269, -1,
      82, 269, 77, -1,
      77, 269, 270, -1,
      77, 270, 78, -1,
      78, 270, 271, -1,
      78, 271, 79, -1,
      79, 271, 272, -1,
      79, 272, 74, -1,
      74, 272, 273, -1,
      74, 273, 75, -1,
      75, 273, 274, -1,
      75, 274, 76, -1,
      76, 274, 275, -1,
      76, 275, 71, -1,
      71, 275, 276, -1,
      71, 276, 72, -1,
      72, 276, 277, -1,
      72, 277, 73, -1,
      73, 277, 278, -1,
      73, 278, 67, -1,
      67, 278, 279, -1,
      67, 279, 68, -1,
      68, 279, 280, -1,
      68, 280, 69, -1,
      69, 280, 254, -1,
      280, 281, 254, -1,
      254, 281, 282, -1,
      254, 282, 255, -1,
      255, 282, 283, -1,
      255, 283, 256, -1,
      256, 283, 284, -1,
      256, 284, 257, -1,
      257, 284, 285, -1,
      257, 285, 258, -1,
      258, 285, 286, -1,
      258, 286, 259, -1,
      259, 286, 287, -1,
      259, 287, 260, -1,
      260, 287, 288, -1,
      260, 288, 261, -1,
      261, 288, 289, -1,
      261, 289, 262, -1,
      262, 289, 290, -1,
      262, 290, 263, -1,
      263, 290, 291, -1,
      263, 291, 264, -1,
      264, 291, 292, -1,
      264, 292, 265, -1,
      265, 292, 293, -1,
      265, 293, 266, -1,
      266, 293, 294, -1,
      266, 294, 267, -1,
      267, 294, 295, -1,
      267, 295, 268, -1,
      268, 295, 296, -1,
      268, 296, 269, -1,
      269, 296, 297, -1,
      269, 297, 270, -1,
      270, 297, 298, -1,
      270, 298, 271, -1,
      271, 298, 299, -1,
      271, 299, 272, -1,
      272, 299, 300, -1,
      272, 300, 273, -1,
      273, 300, 301, -1,
      273, 301, 274, -1,
      274, 301, 302, -1,
      274, 302, 275, -1,
      275, 302, 303, -1,
      275, 303, 276, -1,
      276, 303, 304, -1,
      276, 304, 277, -1,
      277, 304, 305, -1,
      277, 305, 278, -1,
      278, 305, 306, -1,
      278, 306, 279, -1,
      279, 306, 307, -1,
      279, 307, 280, -1,
      280, 307, 281, -1,
      307, 308, 281, -1,
      281, 308, 309, -1,
      281, 309, 282, -1,
      282, 309, 310, -1,
      282, 310, 283, -1,
      283, 310, 311, -1,
      283, 311, 284, -1,
      284, 311, 312, -1,
      284, 312, 285, -1,
      285, 312, 313, -1,
      285, 313, 286, -1,
      286, 313, 314, -1,
      286, 314, 287, -1,
      287, 314, 315, -1,
      287, 315, 288, -1,
      288, 315, 316, -1,
      288, 316, 289, -1,
      289, 316, 317, -1,
      289, 317, 290, -1,
      290, 317, 318, -1,
      290, 318, 291, -1,
      291, 318, 319, -1,
      291, 319, 292, -1,
      292, 319, 320, -1,
      292, 320, 293, -1,
      293, 320, 321, -1,
      293, 321, 294, -1,
      294, 321, 322, -1,
      294, 322, 295, -1,
      295, 322, 323, -1,
      295, 323, 296, -1,
      296, 323, 324, -1,
      296, 324, 297, -1,
      297, 324, 325, -1,
      297, 325, 298, -1,
      298, 325, 326, -1,
      298, 326, 299, -1,
      299, 326, 327, -1,
      299, 327, 300, -1,
      300, 327, 328, -1,
      300, 328, 301, -1,
      301, 328, 329, -1,
      301, 329, 302, -1,
      302, 329, 330, -1,
      302, 330, 303, -1,
      303, 330, 331, -1,
      303, 331, 304, -1,
      304, 331, 332, -1,
      304, 332, 305, -1,
      305, 332, 333, -1,
      305, 333, 306, -1,
      306, 333, 334, -1,
      306, 334, 307, -1,
      307, 334, 308, -1,
      334, 335, 308, -1,
      308, 335, 336, -1,
      308, 336, 309, -1,
      309, 336, 337, -1,
      309, 337, 310, -1,
      310, 337, 338, -1,
      310, 338, 311, -1,
      311, 338, 339, -1,
      311, 339, 312, -1,
      312, 339, 340, -1,
      312, 340, 313, -1,
      313, 340, 341, -1,
      313, 341, 314, -1,
      314, 341, 342, -1,
      314, 342, 315, -1,
      315, 342, 343, -1,
      315, 343, 316, -1,
      316, 343, 344, -1,
      316, 344, 317, -1,
      317, 344, 345, -1,
      317, 345, 318, -1,
      318, 345, 346, -1,
      318, 346, 319, -1,
      319, 346, 347, -1,
      319, 347, 320, -1,
      320, 347, 348, -1,
      320, 348, 321, -1,
      321, 348, 349, -1,
      321, 349, 322, -1,
      322, 349, 350, -1,
      322, 350, 323, -1,
      323, 350, 351, -1,
      323, 351, 324, -1,
      324, 351, 352, -1,
      324, 352, 325, -1,
      325, 352, 353, -1,
      325, 353, 326, -1,
      326, 353, 354, -1,
      326, 354, 327, -1,
      327, 354, 355, -1,
      327, 355, 328, -1,
      328, 355, 356, -1,
      328, 356, 329, -1,
      329, 356, 357, -1,
      329, 357, 330, -1,
      330, 357, 358, -1,
      330, 358, 331, -1,
      331, 358, 359, -1,
      331, 359, 332, -1,
      332, 359, 360, -1,
      332, 360, 333, -1,
      333, 360, 361, -1,
      333, 361, 334, -1,
      334, 361, 335, -1,
      361, 362, 335, -1,
      335, 362, 363, -1,
      335, 363, 336, -1,
      336, 363, 364, -1,
      336, 364, 337, -1,
      337, 364, 365, -1,
      337, 365, 338, -1,
      338, 365, 366, -1,
      338, 366, 339, -1,
      339, 366, 367, -1,
      339, 367, 340, -1,
      340, 367, 368, -1,
      340, 368, 341, -1,
      341, 368, 369, -1,
      341, 369, 342, -1,
      342, 369, 370, -1,
      342, 370, 343, -1,
      343, 370, 371, -1,
      343, 371, 344, -1,
      344, 371, 372, -1,
      344, 372, 345, -1,
      345, 372, 373, -1,
      345, 373, 346, -1,
      346, 373, 374, -1,
      346, 374, 347, -1,
      347, 374, 375, -1,
      347, 375, 348, -1,
      348, 375, 376, -1,
      348, 376, 349, -1,
      349, 376, 377, -1,
      349, 377, 350, -1,
      350, 377, 378, -1,
      350, 378, 351, -1,
      351, 378, 379, -1,
      351, 379, 352, -1,
      352, 379, 380, -1,
      352, 380, 353, -1,
      353, 380, 381, -1,
      353, 381, 354, -1,
      354, 381, 382, -1,
      354, 382, 355, -1,
      355, 382, 383, -1,
      355, 383, 356, -1,
      356, 383, 384, -1,
      356, 384, 357, -1,
      357, 384, 385, -1,
      357, 385, 358, -1,
      358, 385, 386, -1,
      358, 386, 359, -1,
      359, 386, 387, -1,
      359, 387, 360, -1,
      360, 387, 388, -1,
      360, 388, 361, -1,
      361, 388, 362, -1,
      388, 63, 362, -1,
      362, 63, 62, -1,
      362, 62, 363, -1,
      363, 62, 60, -1,
      363, 60, 364, -1,
      364, 60, 59, -1,
      364, 59, 365, -1,
      365, 59, 66, -1,
      365, 66, 366, -1,
      366, 66, 65, -1,
      366, 65, 367, -1,
      367, 65, 64, -1,
      367, 64, 368, -1,
      368, 64, 46, -1,
      368, 46, 369, -1,
      369, 46, 45, -1,
      369, 45, 370, -1,
      370, 45, 43, -1,
      370, 43, 371, -1,
      371, 43, 42, -1,
      371, 42, 372, -1,
      372, 42, 58, -1,
      372, 58, 373, -1,
      373, 58, 57, -1,
      373, 57, 374, -1,
      374, 57, 56, -1,
      374, 56, 375, -1,
      375, 56, 55, -1,
      375, 55, 376, -1,
      376, 55, 54, -1,
      376, 54, 377, -1,
      377, 54, 53, -1,
      377, 53, 378, -1,
      378, 53, 40, -1,
      378, 40, 379, -1,
      379, 40, 39, -1,
      379, 39, 380, -1,
      380, 39, 52, -1,
      380, 52, 381, -1,
      381, 52, 51, -1,
      381, 51, 382, -1,
      382, 51, 50, -1,
      382, 50, 383, -1,
      383, 50, 49, -1,
      383, 49, 384, -1,
      384, 49, 48, -1,
      384, 48, 385, -1,
      385, 48, 47, -1,
      385, 47, 386, -1,
      386, 47, 38, -1,
      386, 38, 387, -1,
      387, 38, 37, -1,
      387, 37, 388, -1,
      388, 37, 63, -1,
    ]
  }
}
