#VRML V2.0 utf8

Shape {
  appearance Appearance {
    material Material {
      diffuseColor 1.0000 1.0000 1.0000
      specularColor 0.8784 0.8784 0.8784
      ambientIntensity 0.2
      transparency 0.0000
      shininess 0.5
    }
  }
  geometry IndexedFaceSet {
    ccw TRUE
    solid FALSE
    coord DEF co Coordinate {
      point [
        -0.472441 -0.236220 0.000000,
        -0.472441 -0.039711 0.000000,
        -0.016324 -0.039711 0.000000,
        -0.393701 -0.314961 0.000000,
        -0.016324 0.314961 0.000000,
        -0.008642 -0.030589 0.000000,
        -0.008642 -0.039231 0.000000,
        0.033609 -0.039231 0.000000,
        0.048972 -0.035150 0.000000,
        0.048972 -0.026508 0.000000,
        0.033609 0.039509 0.000000,
        0.023046 0.030867 0.000000,
        0.023046 0.004940 0.000000,
        -0.006722 0.030867 0.000000,
        -0.004801 0.004940 0.000000,
        0.023046 -0.003702 0.000000,
        0.023046 -0.030589 0.000000,
        -0.004801 -0.003702 0.000000,
        0.154600 -0.039231 0.000000,
        0.075269 -0.039711 0.000000,
        0.114269 -0.039231 0.000000,
        0.080342 -0.039185 0.000000,
        0.087974 -0.036559 0.000000,
        -0.006722 0.039509 0.000000,
        0.103392 0.018770 0.000000,
        0.098777 0.026131 0.000000,
        0.144037 0.039509 0.000000,
        0.075166 0.030956 0.000000,
        0.081059 0.028829 0.000000,
        0.050384 -0.027290 0.000000,
        0.086509 0.025183 0.000000,
        0.091264 0.019934 0.000000,
        0.096985 -0.000702 0.000000,
        0.096187 -0.009226 0.000000,
        0.094048 -0.015998 0.000000,
        0.076527 -0.030726 0.000000,
        0.069183 -0.031549 0.000000,
        0.082264 -0.028613 0.000000,
        0.087097 -0.025356 0.000000,
        0.090792 -0.021458 0.000000,
        0.058731 -0.030389 0.000000,
        0.094510 0.013854 0.000000,
        0.096609 0.005425 0.000000,
        0.094307 -0.032514 0.000000,
        0.100222 -0.026287 0.000000,
        0.114269 -0.030589 0.000000,
        0.104417 -0.018800 0.000000,
        0.144037 -0.030589 0.000000,
        0.106786 -0.010466 0.000000,
        0.107548 -0.001346 0.000000,
        0.106415 0.009848 0.000000,
        0.091668 0.032968 0.000000,
        0.084189 0.037273 0.000000,
        0.075411 0.039824 0.000000,
        0.067502 0.040469 0.000000,
        0.058076 0.039819 0.000000,
        0.048972 0.037348 0.000000,
        0.048972 0.026785 0.000000,
        0.057842 0.030583 0.000000,
        0.067412 0.031827 0.000000,
        0.057366 -0.038596 0.000000,
        0.065322 -0.039711 0.000000,
        -0.016324 -0.314961 0.000000,
        0.068485 -0.040155 0.000000,
        0.070638 -0.040192 0.000000,
        0.154600 0.039509 0.000000,
        0.472441 0.314961 0.000000,
        0.472441 -0.039711 0.000000,
        0.472441 -0.314961 0.000000,
        -0.093144 -0.039231 0.000000,
        -0.083450 -0.017650 0.000000,
        -0.078935 -0.024693 0.000000,
        -0.152679 -0.039231 0.000000,
        -0.164202 -0.039231 0.000000,
        -0.133474 0.039509 0.000000,
        -0.472441 0.314961 0.000000,
        -0.122911 0.039509 0.000000,
        -0.072454 -0.030899 0.000000,
        -0.064232 -0.035676 0.000000,
        -0.055159 -0.038381 0.000000,
        -0.045417 -0.039231 0.000000,
        -0.024006 -0.039231 0.000000,
        -0.024006 0.039509 0.000000,
        -0.046227 0.039509 0.000000,
        -0.075468 0.029242 0.000000,
        -0.081036 0.023068 0.000000,
        -0.084695 0.016296 0.000000,
        -0.057603 0.038293 0.000000,
        -0.066815 0.035058 0.000000,
        -0.075385 0.029314 0.000000,
        -0.104667 -0.039231 0.000000,
        -0.112184 -0.017146 0.000000,
        -0.144712 -0.017146 0.000000,
        -0.086810 0.008538 0.000000,
        -0.087382 0.001129 0.000000,
        -0.086278 -0.009409 0.000000,
      ]
    }
    coordIndex [
      0, 1, 2, -1,
      0, 2, 3, -1,
      4, 5, 2, -1,
      2, 5, 6, -1,
      2, 6, 7, -1,
      8, 7, 9, -1,
      9, 7, 10, -1,
      11, 12, 13, -1,
      13, 12, 14, -1,
      15, 16, 17, -1,
      17, 16, 5, -1,
      18, 19, 20, -1,
      20, 19, 21, -1,
      20, 21, 22, -1,
      10, 23, 4, -1,
      4, 23, 13, -1,
      4, 13, 5, -1,
      5, 13, 14, -1,
      5, 14, 17, -1,
      24, 25, 26, -1,
      27, 28, 29, -1,
      29, 28, 30, -1,
      29, 30, 31, -1,
      32, 33, 29, -1,
      29, 33, 34, -1,
      35, 36, 37, -1,
      37, 36, 38, -1,
      34, 39, 29, -1,
      29, 39, 38, -1,
      29, 38, 40, -1,
      40, 38, 36, -1,
      31, 41, 29, -1,
      29, 41, 42, -1,
      29, 42, 32, -1,
      22, 43, 20, -1,
      20, 43, 44, -1,
      20, 44, 45, -1,
      45, 44, 46, -1,
      45, 46, 47, -1,
      46, 48, 47, -1,
      47, 48, 49, -1,
      47, 49, 26, -1,
      26, 49, 50, -1,
      26, 50, 24, -1,
      51, 52, 4, -1,
      4, 52, 53, -1,
      4, 53, 54, -1,
      54, 55, 4, -1,
      4, 55, 56, -1,
      4, 56, 10, -1,
      10, 56, 57, -1,
      10, 57, 9, -1,
      9, 57, 58, -1,
      9, 58, 29, -1,
      29, 58, 59, -1,
      29, 59, 27, -1,
      8, 60, 7, -1,
      7, 60, 61, -1,
      7, 61, 2, -1,
      2, 61, 62, -1,
      2, 62, 3, -1,
      61, 63, 62, -1,
      62, 63, 64, -1,
      62, 64, 19, -1,
      25, 51, 26, -1,
      26, 51, 4, -1,
      26, 4, 65, -1,
      65, 4, 66, -1,
      65, 66, 18, -1,
      18, 66, 67, -1,
      18, 67, 19, -1,
      19, 67, 68, -1,
      19, 68, 62, -1,
      69, 70, 71, -1,
      72, 2, 73, -1,
      73, 2, 1, -1,
      73, 1, 74, -1,
      74, 1, 75, -1,
      74, 75, 76, -1,
      76, 75, 4, -1,
      71, 77, 69, -1,
      69, 77, 78, -1,
      69, 78, 79, -1,
      80, 81, 2, -1,
      2, 81, 82, -1,
      2, 82, 4, -1,
      4, 82, 83, -1,
      84, 85, 76, -1,
      76, 85, 86, -1,
      83, 87, 4, -1,
      4, 87, 88, -1,
      4, 88, 76, -1,
      76, 88, 89, -1,
      76, 89, 84, -1,
      79, 80, 69, -1,
      69, 80, 2, -1,
      69, 2, 90, -1,
      90, 2, 72, -1,
      90, 72, 91, -1,
      91, 72, 92, -1,
      86, 93, 76, -1,
      76, 93, 94, -1,
      76, 94, 69, -1,
      69, 94, 95, -1,
      69, 95, 70, -1,
    ]
  }
}

Shape {
  appearance Appearance {
    material Material {
      diffuseColor 0.2510 0.2510 0.2510
      specularColor 0.1255 0.1255 0.1255
      ambientIntensity 0.2
      transparency 0.0000
      shininess 0.5
    }
  }
  geometry IndexedFaceSet {
    ccw TRUE
    solid FALSE
    coord DEF co Coordinate {
      point [
        -0.436320 -0.461614 0.003937,
        -0.441237 -0.473483 0.003937,
        -0.393701 -0.314961 0.003937,
        -0.590551 -0.590551 0.003937,
        -0.442913 -0.486220 0.003937,
        -0.442913 -0.590551 0.003937,
        0.590551 -0.590551 0.003937,
        0.442913 -0.590551 0.003937,
        0.442913 -0.486220 0.003937,
        -0.590551 0.590551 0.003937,
        -0.472441 0.314961 0.003937,
        -0.472441 -0.236220 0.003937,
        0.047536 -0.473483 0.003937,
        0.162052 -0.451422 0.003937,
        0.154231 -0.461614 0.003937,
        0.154231 0.461614 0.003937,
        0.162052 0.451422 0.003937,
        0.047536 0.473483 0.003937,
        0.244386 -0.473483 0.003937,
        0.358902 -0.451422 0.003937,
        0.351081 -0.461614 0.003937,
        -0.221457 -0.443601 0.003937,
        -0.231649 -0.451422 0.003937,
        -0.346165 -0.473483 0.003937,
        -0.239470 -0.461614 0.003937,
        0.436320 0.461614 0.003937,
        0.441237 0.473483 0.003937,
        0.590551 0.590551 0.003937,
        0.442913 0.486220 0.003937,
        0.442913 0.590551 0.003937,
        0.147638 -0.486220 0.003937,
        0.147638 -0.590551 0.003937,
        0.049213 -0.590551 0.003937,
        0.441237 -0.473483 0.003937,
        0.436320 -0.461614 0.003937,
        0.472441 -0.314961 0.003937,
        0.428499 -0.451422 0.003937,
        0.418307 -0.443601 0.003937,
        0.244386 0.473483 0.003937,
        0.351081 0.461614 0.003937,
        0.358902 0.451422 0.003937,
        0.149315 -0.473483 0.003937,
        0.049213 -0.486220 0.003937,
        -0.149315 -0.473483 0.003937,
        -0.154231 -0.461614 0.003937,
        -0.162052 -0.451422 0.003937,
        -0.172244 -0.443601 0.003937,
        -0.346165 0.473483 0.003937,
        -0.239470 0.461614 0.003937,
        -0.231649 0.451422 0.003937,
        0.344488 -0.486220 0.003937,
        0.344488 -0.590551 0.003937,
        0.246063 -0.590551 0.003937,
        -0.246063 -0.486220 0.003937,
        -0.246063 -0.590551 0.003937,
        -0.344488 -0.590551 0.003937,
        -0.406438 -0.438685 0.003937,
        -0.393701 -0.437008 0.003937,
        -0.380964 -0.438685 0.003937,
        -0.418307 -0.443601 0.003937,
        -0.428499 -0.451422 0.003937,
        -0.418307 0.443601 0.003937,
        -0.406438 0.438685 0.003937,
        0.418307 0.443601 0.003937,
        0.428499 0.451422 0.003937,
        0.472441 0.314961 0.003937,
        0.346165 -0.473483 0.003937,
        0.246063 -0.486220 0.003937,
        0.406438 -0.438685 0.003937,
        0.393701 -0.437008 0.003937,
        0.380964 -0.438685 0.003937,
        0.231649 -0.451422 0.003937,
        0.221457 -0.443601 0.003937,
        0.012737 -0.438685 0.003937,
        0.024606 -0.443601 0.003937,
        0.034798 -0.451422 0.003937,
        -0.244386 -0.473483 0.003937,
        -0.344488 -0.486220 0.003937,
        -0.428499 0.451422 0.003937,
        -0.042619 0.461614 0.003937,
        -0.034798 0.451422 0.003937,
        -0.149315 0.473483 0.003937,
        0.246063 0.590551 0.003937,
        0.344488 0.590551 0.003937,
        0.246063 0.486220 0.003937,
        0.344488 0.486220 0.003937,
        0.346165 0.473483 0.003937,
        0.049213 0.590551 0.003937,
        0.147638 0.590551 0.003937,
        0.049213 0.486220 0.003937,
        0.147638 0.486220 0.003937,
        0.149315 0.473483 0.003937,
        0.239470 -0.461614 0.003937,
        0.369094 -0.443601 0.003937,
        -0.034798 -0.451422 0.003937,
        -0.042619 -0.461614 0.003937,
        -0.184113 -0.438685 0.003937,
        -0.196850 -0.437008 0.003937,
        -0.209587 -0.438685 0.003937,
        -0.351081 -0.461614 0.003937,
        -0.358902 -0.451422 0.003937,
        -0.369094 -0.443601 0.003937,
        -0.442913 0.590551 0.003937,
        -0.442913 0.486220 0.003937,
        -0.441237 0.473483 0.003937,
        -0.436320 0.461614 0.003937,
        -0.209587 0.438685 0.003937,
        -0.196850 0.437008 0.003937,
        -0.184113 0.438685 0.003937,
        -0.172244 0.443601 0.003937,
        0.406438 0.438685 0.003937,
        -0.344488 0.590551 0.003937,
        -0.246063 0.590551 0.003937,
        -0.344488 0.486220 0.003937,
        -0.246063 0.486220 0.003937,
        -0.244386 0.473483 0.003937,
        0.209587 -0.438685 0.003937,
        0.196850 -0.437008 0.003937,
        0.184113 -0.438685 0.003937,
        0.000000 -0.437008 0.003937,
        -0.012737 -0.438685 0.003937,
        -0.024606 -0.443601 0.003937,
        -0.221457 0.443601 0.003937,
        -0.351081 0.461614 0.003937,
        -0.358902 0.451422 0.003937,
        -0.162052 0.451422 0.003937,
        -0.154231 0.461614 0.003937,
        0.000000 0.437008 0.003937,
        0.012737 0.438685 0.003937,
        0.184113 0.438685 0.003937,
        0.024606 0.443601 0.003937,
        0.034798 0.451422 0.003937,
        0.231649 0.451422 0.003937,
        0.239470 0.461614 0.003937,
        0.042619 -0.461614 0.003937,
        0.172244 -0.443601 0.003937,
        -0.393701 0.437008 0.003937,
        -0.380964 0.438685 0.003937,
        -0.369094 0.443601 0.003937,
        0.196850 0.437008 0.003937,
        0.209587 0.438685 0.003937,
        0.221457 0.443601 0.003937,
        0.172244 0.443601 0.003937,
        0.042619 0.461614 0.003937,
        0.369094 0.443601 0.003937,
        0.380964 0.438685 0.003937,
        0.393701 0.437008 0.003937,
        -0.049213 -0.486220 0.003937,
        -0.049213 -0.590551 0.003937,
        -0.147638 -0.590551 0.003937,
        -0.012737 0.438685 0.003937,
        -0.024606 0.443601 0.003937,
        -0.047536 -0.473483 0.003937,
        -0.147638 -0.486220 0.003937,
        -0.147638 0.590551 0.003937,
        -0.049213 0.590551 0.003937,
        -0.147638 0.486220 0.003937,
        -0.049213 0.486220 0.003937,
        -0.047536 0.473483 0.003937,
        0.442913 -0.590551 0.078740,
        0.590551 -0.590551 0.358268,
        0.344488 -0.590551 0.078740,
        -0.344488 -0.590551 0.078740,
        -0.246063 -0.590551 0.078740,
        -0.590551 -0.590551 0.358268,
        -0.442913 -0.590551 0.078740,
        -0.370535 -0.590551 0.358268,
        -0.176685 -0.590551 0.358268,
        -0.066257 -0.590551 0.358268,
        0.097945 -0.590551 0.358268,
        -0.147638 -0.590551 0.078740,
        -0.049213 -0.590551 0.078740,
        0.049213 -0.590551 0.078740,
        0.147638 -0.590551 0.078740,
        0.246063 -0.590551 0.078740,
        0.460918 -0.590551 0.358268,
        0.200691 -0.590551 0.358268,
        -0.066257 -0.244898 0.358268,
        0.097945 -0.244898 0.358268,
        0.097945 -0.065607 0.358268,
        0.590551 -0.244898 0.358268,
        0.460918 -0.244898 0.358268,
        0.286522 -0.065607 0.358268,
        0.282052 -0.066395 0.358268,
        0.200691 -0.244898 0.358268,
        0.310935 -0.053377 0.358268,
        0.302323 -0.060227 0.358268,
        0.460918 -0.065607 0.358268,
        0.302102 0.090304 0.358268,
        0.460918 0.093794 0.358268,
        0.292815 0.093549 0.358268,
        0.290485 0.093794 0.358268,
        0.310280 0.084881 0.358268,
        0.316628 0.077986 0.358268,
        0.323222 0.066141 0.358268,
        0.329937 -0.007926 0.358268,
        0.325336 -0.028751 0.358268,
        0.318489 -0.043669 0.358268,
        0.328874 0.046077 0.358268,
        0.331263 0.017246 0.358268,
        0.331285 0.014754 0.358268,
        0.274923 0.094417 0.358268,
        0.200691 0.590551 0.358268,
        0.272039 0.093794 0.358268,
        0.200691 0.093794 0.358268,
        0.264615 0.092189 0.358268,
        0.460918 0.590551 0.358268,
        0.281352 0.094754 0.358268,
        0.277811 -0.066567 0.358268,
        0.268930 -0.065607 0.358268,
        0.200691 -0.065607 0.358268,
        0.266610 -0.065356 0.358268,
        0.257501 -0.062098 0.358268,
        0.249609 -0.056863 0.358268,
        0.241844 -0.048369 0.358268,
        0.234953 -0.035641 0.358268,
        0.233274 0.055774 0.358268,
        0.239999 0.071305 0.358268,
        0.247230 0.080998 0.358268,
        0.254713 0.087328 0.358268,
        0.229413 -0.014704 0.358268,
        0.227578 0.011032 0.358268,
        0.228894 0.034515 0.358268,
        0.121059 0.051387 0.358268,
        0.118110 0.050583 0.358268,
        0.143402 0.080000 0.358268,
        0.164166 0.092984 0.358268,
        0.097945 0.093794 0.358268,
        0.173804 -0.064647 0.358268,
        0.154600 -0.064647 0.358268,
        0.154600 0.069127 0.358268,
        0.140052 0.059359 0.358268,
        0.118110 0.069787 0.358268,
        0.173804 0.093794 0.358268,
        0.173804 0.094754 0.358268,
        0.166333 0.094754 0.358268,
        0.097945 0.590551 0.358268,
        0.165157 0.093794 0.358268,
        -0.507239 -0.507239 0.358268,
        -0.515060 -0.497047 0.358268,
        -0.424905 -0.485178 0.358268,
        -0.429822 -0.497047 0.358268,
        -0.437643 -0.507239 0.358268,
        -0.447835 -0.515060 0.358268,
        -0.497047 -0.515060 0.358268,
        -0.447835 -0.429822 0.358268,
        -0.437643 -0.437643 0.358268,
        -0.370535 -0.244898 0.358268,
        -0.459704 -0.519977 0.358268,
        -0.472441 -0.521654 0.358268,
        -0.485178 -0.519977 0.358268,
        -0.519977 -0.485178 0.358268,
        -0.521654 -0.472441 0.358268,
        -0.590551 -0.244898 0.358268,
        -0.519977 -0.459704 0.358268,
        -0.515060 -0.447835 0.358268,
        -0.507239 -0.437643 0.358268,
        -0.497047 -0.429822 0.358268,
        -0.485178 -0.424905 0.358268,
        -0.429822 -0.447835 0.358268,
        -0.424905 -0.459704 0.358268,
        -0.423228 -0.472441 0.358268,
        -0.472441 -0.423228 0.358268,
        -0.459704 -0.424905 0.358268,
        0.292320 -0.064585 0.358268,
        -0.176685 -0.065607 0.358268,
        -0.370535 -0.065607 0.358268,
        -0.066257 -0.065607 0.358268,
        -0.176685 -0.244898 0.358268,
        -0.590551 -0.065607 0.358268,
        -0.370535 0.093794 0.358268,
        -0.590551 0.093794 0.358268,
        -0.198469 -0.020461 0.358268,
        -0.207259 -0.034670 0.358268,
        -0.220027 -0.047272 0.358268,
        -0.236110 -0.056981 0.358268,
        -0.273400 0.092833 0.358268,
        -0.176685 0.093794 0.358268,
        -0.252683 0.090847 0.358268,
        -0.234002 0.084786 0.358268,
        -0.198388 0.050806 0.358268,
        -0.193107 0.035393 0.358268,
        -0.191089 0.016074 0.358268,
        -0.193015 -0.003683 0.358268,
        -0.218096 0.074954 0.358268,
        -0.206745 0.063852 0.358268,
        -0.254222 -0.062697 0.358268,
        -0.275020 -0.064647 0.358268,
        -0.317841 -0.064647 0.358268,
        -0.317841 0.092833 0.358268,
        -0.081621 0.092833 0.358268,
        -0.066257 0.093794 0.358268,
        -0.081621 0.075549 0.358268,
        -0.141156 0.075549 0.358268,
        -0.141156 0.021775 0.358268,
        -0.085462 0.021775 0.358268,
        -0.085462 0.004491 0.358268,
        -0.141156 0.004491 0.358268,
        -0.141156 -0.064647 0.358268,
        -0.162281 -0.064647 0.358268,
        -0.162281 0.092833 0.358268,
        -0.029768 -0.064647 0.358268,
        -0.050893 -0.064647 0.358268,
        -0.050893 0.092833 0.358268,
        -0.029768 0.067867 0.358268,
        -0.030398 0.067867 0.358268,
        -0.027380 0.062615 0.358268,
        -0.029859 0.056862 0.358268,
        -0.024516 0.057604 0.358268,
        0.052724 -0.064647 0.358268,
        -0.029768 0.045841 0.358268,
        -0.024006 0.092833 0.358268,
        0.056654 0.092833 0.358268,
        0.077780 0.092833 0.358268,
        0.077780 -0.064647 0.358268,
        0.057255 -0.037760 0.358268,
        0.057675 -0.037760 0.358268,
        0.054222 -0.032267 0.358268,
        0.056829 -0.026345 0.358268,
        0.050923 -0.026927 0.358268,
        0.056654 -0.014894 0.358268,
        -0.066257 0.590551 0.358268,
        -0.176685 0.590551 0.358268,
        -0.370535 0.590551 0.358268,
        -0.590551 0.590551 0.358268,
        0.590551 -0.065607 0.358268,
        0.590551 0.093794 0.358268,
        0.590551 0.590551 0.358268,
        0.442913 0.590551 0.078740,
        0.344488 0.590551 0.078740,
        0.246063 0.590551 0.078740,
        0.147638 0.590551 0.078740,
        0.049213 0.590551 0.078740,
        -0.049213 0.590551 0.078740,
        -0.147638 0.590551 0.078740,
        -0.246063 0.590551 0.078740,
        -0.442913 0.590551 0.078740,
        -0.344488 0.590551 0.078740,
      ]
    }
    coordIndex [
      0, 1, 2, -1,
      2, 1, 3, -1,
      3, 1, 4, -1,
      3, 4, 5, -1,
      6, 7, 8, -1,
      9, 10, 3, -1,
      3, 10, 11, -1,
      3, 11, 2, -1,
      12, 13, 14, -1,
      15, 16, 17, -1,
      18, 19, 20, -1,
      21, 22, 23, -1,
      23, 22, 24, -1,
      25, 26, 27, -1,
      27, 26, 28, -1,
      27, 28, 29, -1,
      30, 31, 32, -1,
      33, 34, 35, -1,
      35, 34, 36, -1,
      35, 36, 37, -1,
      38, 39, 40, -1,
      14, 41, 12, -1,
      12, 41, 30, -1,
      12, 30, 42, -1,
      42, 30, 32, -1,
      43, 44, 35, -1,
      35, 44, 45, -1,
      35, 45, 46, -1,
      47, 48, 49, -1,
      50, 51, 52, -1,
      53, 54, 55, -1,
      56, 2, 57, -1,
      57, 2, 58, -1,
      56, 59, 2, -1,
      2, 59, 60, -1,
      2, 60, 0, -1,
      61, 62, 10, -1,
      63, 64, 65, -1,
      20, 66, 18, -1,
      18, 66, 50, -1,
      18, 50, 67, -1,
      67, 50, 52, -1,
      37, 68, 35, -1,
      35, 68, 69, -1,
      35, 69, 70, -1,
      35, 71, 72, -1,
      73, 35, 74, -1,
      74, 35, 75, -1,
      24, 76, 23, -1,
      23, 76, 53, -1,
      23, 53, 77, -1,
      77, 53, 55, -1,
      61, 10, 78, -1,
      79, 80, 81, -1,
      82, 83, 84, -1,
      84, 83, 85, -1,
      84, 85, 38, -1,
      38, 85, 86, -1,
      38, 86, 39, -1,
      87, 88, 89, -1,
      89, 88, 90, -1,
      89, 90, 17, -1,
      17, 90, 91, -1,
      17, 91, 15, -1,
      71, 35, 92, -1,
      92, 35, 70, -1,
      92, 70, 18, -1,
      18, 70, 93, -1,
      18, 93, 19, -1,
      43, 94, 95, -1,
      46, 96, 35, -1,
      35, 96, 97, -1,
      35, 97, 98, -1,
      21, 23, 98, -1,
      98, 23, 99, -1,
      98, 99, 35, -1,
      35, 99, 100, -1,
      35, 100, 2, -1,
      2, 100, 101, -1,
      2, 101, 58, -1,
      102, 103, 9, -1,
      9, 103, 104, -1,
      9, 104, 10, -1,
      10, 104, 105, -1,
      10, 105, 78, -1,
      106, 107, 65, -1,
      65, 107, 108, -1,
      65, 108, 109, -1,
      63, 65, 110, -1,
      64, 25, 65, -1,
      65, 25, 27, -1,
      65, 27, 35, -1,
      35, 27, 6, -1,
      35, 6, 33, -1,
      33, 6, 8, -1,
      111, 112, 113, -1,
      113, 112, 114, -1,
      113, 114, 47, -1,
      47, 114, 115, -1,
      47, 115, 48, -1,
      72, 116, 35, -1,
      35, 116, 117, -1,
      35, 117, 118, -1,
      73, 119, 35, -1,
      35, 119, 120, -1,
      35, 120, 43, -1,
      43, 120, 121, -1,
      43, 121, 94, -1,
      49, 122, 47, -1,
      47, 122, 106, -1,
      47, 106, 123, -1,
      123, 106, 65, -1,
      123, 65, 124, -1,
      109, 125, 65, -1,
      65, 125, 126, -1,
      65, 126, 81, -1,
      127, 128, 129, -1,
      129, 128, 130, -1,
      129, 130, 131, -1,
      132, 133, 65, -1,
      65, 133, 38, -1,
      75, 35, 134, -1,
      134, 35, 118, -1,
      134, 118, 12, -1,
      12, 118, 135, -1,
      12, 135, 13, -1,
      62, 136, 10, -1,
      10, 136, 137, -1,
      10, 137, 65, -1,
      65, 137, 138, -1,
      65, 138, 124, -1,
      139, 140, 65, -1,
      65, 140, 141, -1,
      65, 141, 132, -1,
      16, 142, 17, -1,
      17, 142, 129, -1,
      17, 129, 143, -1,
      143, 129, 131, -1,
      40, 144, 38, -1,
      38, 144, 145, -1,
      38, 145, 65, -1,
      65, 145, 146, -1,
      65, 146, 110, -1,
      147, 148, 149, -1,
      129, 139, 127, -1,
      127, 139, 65, -1,
      127, 65, 150, -1,
      150, 65, 81, -1,
      150, 81, 151, -1,
      151, 81, 80, -1,
      95, 152, 43, -1,
      43, 152, 147, -1,
      43, 147, 153, -1,
      153, 147, 149, -1,
      154, 155, 156, -1,
      156, 155, 157, -1,
      156, 157, 81, -1,
      81, 157, 158, -1,
      81, 158, 79, -1,
      7, 6, 159, -1,
      159, 6, 160, -1,
      159, 160, 161, -1,
      55, 54, 162, -1,
      162, 54, 163, -1,
      3, 5, 164, -1,
      164, 5, 165, -1,
      164, 165, 166, -1,
      166, 165, 162, -1,
      166, 162, 167, -1,
      167, 162, 168, -1,
      168, 162, 163, -1,
      168, 163, 169, -1,
      149, 148, 170, -1,
      170, 148, 171, -1,
      32, 31, 172, -1,
      172, 31, 173, -1,
      174, 52, 51, -1,
      51, 161, 174, -1,
      174, 161, 160, -1,
      174, 160, 173, -1,
      173, 160, 175, -1,
      173, 175, 172, -1,
      172, 175, 176, -1,
      172, 176, 171, -1,
      171, 176, 169, -1,
      171, 169, 170, -1,
      170, 169, 163, -1,
      177, 178, 179, -1,
      175, 160, 180, -1,
      176, 175, 181, -1,
      182, 183, 184, -1,
      185, 186, 187, -1,
      188, 189, 190, -1,
      190, 189, 191, -1,
      188, 192, 189, -1,
      189, 192, 193, -1,
      189, 193, 194, -1,
      195, 196, 187, -1,
      187, 196, 197, -1,
      187, 197, 185, -1,
      194, 198, 189, -1,
      189, 198, 199, -1,
      189, 199, 187, -1,
      187, 199, 200, -1,
      187, 200, 195, -1,
      201, 202, 203, -1,
      203, 202, 204, -1,
      203, 204, 205, -1,
      189, 206, 191, -1,
      191, 206, 202, -1,
      191, 202, 207, -1,
      207, 202, 201, -1,
      183, 208, 184, -1,
      184, 208, 209, -1,
      184, 209, 210, -1,
      210, 209, 211, -1,
      210, 211, 212, -1,
      212, 213, 210, -1,
      210, 213, 214, -1,
      210, 214, 215, -1,
      216, 217, 204, -1,
      217, 218, 204, -1,
      204, 218, 219, -1,
      204, 219, 205, -1,
      215, 220, 210, -1,
      210, 220, 221, -1,
      210, 221, 204, -1,
      204, 221, 222, -1,
      204, 222, 216, -1,
      223, 224, 179, -1,
      225, 226, 227, -1,
      210, 228, 229, -1,
      229, 230, 231, -1,
      179, 224, 227, -1,
      227, 224, 232, -1,
      227, 232, 225, -1,
      228, 210, 233, -1,
      233, 210, 204, -1,
      233, 204, 234, -1,
      234, 204, 202, -1,
      234, 202, 235, -1,
      235, 202, 236, -1,
      235, 236, 237, -1,
      238, 239, 164, -1,
      240, 241, 166, -1,
      166, 241, 242, -1,
      166, 242, 243, -1,
      238, 164, 244, -1,
      245, 246, 247, -1,
      243, 248, 166, -1,
      166, 248, 249, -1,
      166, 249, 164, -1,
      164, 249, 250, -1,
      164, 250, 244, -1,
      239, 251, 164, -1,
      164, 251, 252, -1,
      164, 252, 253, -1,
      253, 252, 254, -1,
      253, 254, 255, -1,
      255, 256, 253, -1,
      253, 256, 257, -1,
      253, 257, 258, -1,
      246, 259, 247, -1,
      247, 259, 260, -1,
      247, 260, 261, -1,
      258, 262, 247, -1,
      247, 262, 263, -1,
      247, 263, 245, -1,
      169, 178, 168, -1,
      168, 178, 177, -1,
      168, 177, 167, -1,
      186, 264, 187, -1,
      187, 264, 182, -1,
      187, 182, 181, -1,
      181, 182, 184, -1,
      181, 184, 176, -1,
      265, 266, 247, -1,
      267, 265, 268, -1,
      268, 265, 247, -1,
      268, 247, 166, -1,
      166, 247, 261, -1,
      166, 261, 240, -1,
      231, 223, 229, -1,
      229, 223, 179, -1,
      229, 179, 210, -1,
      210, 179, 178, -1,
      210, 178, 184, -1,
      184, 178, 169, -1,
      184, 169, 176, -1,
      258, 247, 253, -1,
      253, 247, 266, -1,
      253, 266, 269, -1,
      269, 266, 270, -1,
      269, 270, 271, -1,
      272, 273, 265, -1,
      265, 273, 274, -1,
      265, 274, 275, -1,
      270, 276, 277, -1,
      277, 276, 278, -1,
      277, 278, 279, -1,
      280, 281, 277, -1,
      277, 281, 282, -1,
      277, 282, 265, -1,
      265, 282, 283, -1,
      265, 283, 272, -1,
      279, 284, 277, -1,
      277, 284, 285, -1,
      277, 285, 280, -1,
      275, 286, 265, -1,
      265, 286, 287, -1,
      265, 287, 266, -1,
      266, 287, 288, -1,
      266, 288, 270, -1,
      270, 288, 289, -1,
      270, 289, 276, -1,
      277, 290, 291, -1,
      291, 290, 292, -1,
      292, 293, 294, -1,
      267, 295, 296, -1,
      296, 297, 267, -1,
      267, 297, 298, -1,
      267, 298, 265, -1,
      265, 298, 299, -1,
      265, 299, 277, -1,
      277, 299, 300, -1,
      277, 300, 290, -1,
      301, 302, 267, -1,
      294, 295, 292, -1,
      292, 295, 267, -1,
      292, 267, 291, -1,
      291, 267, 302, -1,
      291, 302, 303, -1,
      304, 305, 306, -1,
      306, 305, 307, -1,
      306, 307, 308, -1,
      308, 307, 309, -1,
      166, 167, 268, -1,
      268, 167, 177, -1,
      268, 177, 267, -1,
      267, 177, 179, -1,
      267, 179, 301, -1,
      301, 179, 309, -1,
      301, 309, 310, -1,
      310, 309, 307, -1,
      303, 311, 291, -1,
      291, 311, 312, -1,
      291, 312, 227, -1,
      227, 312, 313, -1,
      227, 313, 179, -1,
      179, 313, 314, -1,
      179, 314, 309, -1,
      315, 316, 317, -1,
      317, 316, 318, -1,
      317, 318, 319, -1,
      319, 318, 311, -1,
      311, 318, 320, -1,
      311, 320, 312, -1,
      226, 237, 227, -1,
      227, 237, 236, -1,
      227, 236, 291, -1,
      291, 236, 321, -1,
      291, 321, 277, -1,
      277, 321, 322, -1,
      277, 322, 270, -1,
      270, 322, 323, -1,
      270, 323, 271, -1,
      271, 323, 324, -1,
      175, 180, 181, -1,
      181, 180, 325, -1,
      181, 325, 187, -1,
      187, 325, 326, -1,
      187, 326, 189, -1,
      189, 326, 327, -1,
      189, 327, 206, -1,
      180, 160, 6, -1,
      27, 327, 326, -1,
      27, 326, 6, -1,
      6, 326, 325, -1,
      6, 325, 180, -1,
      27, 29, 327, -1,
      327, 29, 328, -1,
      327, 328, 206, -1,
      206, 328, 329, -1,
      206, 329, 202, -1,
      83, 82, 329, -1,
      329, 82, 330, -1,
      88, 87, 331, -1,
      331, 87, 332, -1,
      202, 329, 236, -1,
      236, 329, 330, -1,
      236, 330, 321, -1,
      321, 330, 331, -1,
      321, 331, 322, -1,
      322, 331, 332, -1,
      322, 332, 323, -1,
      155, 154, 333, -1,
      333, 154, 334, -1,
      335, 324, 334, -1,
      334, 324, 323, -1,
      334, 323, 333, -1,
      333, 323, 332, -1,
      102, 9, 336, -1,
      336, 9, 324, -1,
      336, 324, 337, -1,
      337, 324, 335, -1,
      337, 335, 111, -1,
      111, 335, 112, -1,
      164, 253, 3, -1,
      3, 253, 269, -1,
      3, 269, 9, -1,
      9, 269, 271, -1,
      9, 271, 324, -1,
    ]
  }
}

Shape {
  appearance Appearance {
    material Material {
      diffuseColor 0.6471 0.6471 0.6471
      specularColor 0.3216 0.3216 0.3216
      ambientIntensity 0.2
      transparency 0.0000
      shininess 0.5
    }
  }
  geometry IndexedFaceSet {
    ccw TRUE
    solid FALSE
    coord DEF co Coordinate {
      point [
        -0.507239 -0.507239 0.358268,
        -0.515060 -0.497047 0.358268,
        -0.424905 -0.485178 0.358268,
        -0.429822 -0.497047 0.358268,
        -0.437643 -0.507239 0.358268,
        -0.447835 -0.515060 0.358268,
        -0.497047 -0.515060 0.358268,
        -0.447835 -0.429822 0.358268,
        -0.437643 -0.437643 0.358268,
        -0.459704 -0.519977 0.358268,
        -0.472441 -0.521654 0.358268,
        -0.485178 -0.519977 0.358268,
        -0.519977 -0.485178 0.358268,
        -0.521654 -0.472441 0.358268,
        -0.519977 -0.459704 0.358268,
        -0.515060 -0.447835 0.358268,
        -0.507239 -0.437643 0.358268,
        -0.497047 -0.429822 0.358268,
        -0.485178 -0.424905 0.358268,
        -0.429822 -0.447835 0.358268,
        -0.424905 -0.459704 0.358268,
        -0.423228 -0.472441 0.358268,
        -0.472441 -0.423228 0.358268,
        -0.459704 -0.424905 0.358268,
        -0.423228 -0.472441 0.350394,
        -0.424905 -0.459704 0.350394,
        -0.429822 -0.447835 0.350394,
        -0.437643 -0.437643 0.350394,
        -0.447835 -0.429822 0.350394,
        -0.459704 -0.424905 0.350394,
        -0.472441 -0.423228 0.350394,
        -0.485178 -0.424905 0.350394,
        -0.497047 -0.429822 0.350394,
        -0.507239 -0.437643 0.350394,
        -0.515060 -0.447835 0.350394,
        -0.519977 -0.459704 0.350394,
        -0.521654 -0.472441 0.350394,
        -0.519977 -0.485178 0.350394,
        -0.515060 -0.497047 0.350394,
        -0.507239 -0.507239 0.350394,
        -0.497047 -0.515060 0.350394,
        -0.485178 -0.519977 0.350394,
        -0.472441 -0.521654 0.350394,
        -0.459704 -0.519977 0.350394,
        -0.447835 -0.515060 0.350394,
        -0.437643 -0.507239 0.350394,
        -0.429822 -0.497047 0.350394,
        -0.424905 -0.485178 0.350394,
        -0.472441 -0.472441 0.350394,
      ]
    }
    coordIndex [
      24, 21, 25, -1,
      25, 21, 20, -1,
      25, 20, 26, -1,
      26, 20, 19, -1,
      26, 19, 27, -1,
      27, 19, 8, -1,
      27, 8, 28, -1,
      28, 8, 7, -1,
      28, 7, 29, -1,
      29, 7, 23, -1,
      29, 23, 30, -1,
      30, 23, 22, -1,
      30, 22, 31, -1,
      31, 22, 18, -1,
      31, 18, 32, -1,
      32, 18, 17, -1,
      32, 17, 33, -1,
      33, 17, 16, -1,
      33, 16, 34, -1,
      34, 16, 15, -1,
      34, 15, 35, -1,
      35, 15, 14, -1,
      35, 14, 36, -1,
      36, 14, 13, -1,
      36, 13, 37, -1,
      37, 13, 12, -1,
      37, 12, 38, -1,
      38, 12, 1, -1,
      38, 1, 39, -1,
      39, 1, 0, -1,
      39, 0, 40, -1,
      40, 0, 6, -1,
      40, 6, 41, -1,
      41, 6, 11, -1,
      41, 11, 42, -1,
      42, 11, 10, -1,
      42, 10, 43, -1,
      43, 10, 9, -1,
      43, 9, 44, -1,
      44, 9, 5, -1,
      44, 5, 45, -1,
      45, 5, 4, -1,
      45, 4, 46, -1,
      46, 4, 3, -1,
      46, 3, 47, -1,
      47, 3, 2, -1,
      47, 2, 24, -1,
      24, 2, 21, -1,
      46, 47, 48, -1,
      48, 47, 24, -1,
      48, 24, 25, -1,
      43, 44, 48, -1,
      48, 44, 45, -1,
      48, 45, 46, -1,
      40, 41, 48, -1,
      48, 41, 42, -1,
      48, 42, 43, -1,
      37, 38, 48, -1,
      48, 38, 39, -1,
      48, 39, 40, -1,
      34, 35, 48, -1,
      48, 35, 36, -1,
      48, 36, 37, -1,
      31, 32, 48, -1,
      48, 32, 33, -1,
      48, 33, 34, -1,
      28, 29, 48, -1,
      48, 29, 30, -1,
      48, 30, 31, -1,
      25, 26, 48, -1,
      48, 26, 27, -1,
      48, 27, 28, -1,
    ]
  }
}

Shape {
  appearance Appearance {
    material Material {
      diffuseColor 0.6667 0.6667 0.6667
      specularColor 0.3333 0.3333 0.3333
      ambientIntensity 0.2
      transparency 0.0000
      shininess 0.5
    }
  }
  geometry IndexedFaceSet {
    ccw TRUE
    solid FALSE
    coord DEF co Coordinate {
      point [
        0.286522 -0.065607 0.358268,
        0.282052 -0.066395 0.358268,
        0.310935 -0.053377 0.358268,
        0.302323 -0.060227 0.358268,
        0.302102 0.090304 0.358268,
        0.292815 0.093549 0.358268,
        0.290485 0.093794 0.358268,
        0.310280 0.084881 0.358268,
        0.316628 0.077986 0.358268,
        0.323222 0.066141 0.358268,
        0.329937 -0.007926 0.358268,
        0.325336 -0.028751 0.358268,
        0.318489 -0.043669 0.358268,
        0.328874 0.046077 0.358268,
        0.331263 0.017246 0.358268,
        0.331285 0.014754 0.358268,
        0.274923 0.094417 0.358268,
        0.272039 0.093794 0.358268,
        0.264615 0.092189 0.358268,
        0.281352 0.094754 0.358268,
        0.277811 -0.066567 0.358268,
        0.268930 -0.065607 0.358268,
        0.266610 -0.065356 0.358268,
        0.257501 -0.062098 0.358268,
        0.249609 -0.056863 0.358268,
        0.241844 -0.048369 0.358268,
        0.234953 -0.035641 0.358268,
        0.233274 0.055774 0.358268,
        0.239999 0.071305 0.358268,
        0.247230 0.080998 0.358268,
        0.254713 0.087328 0.358268,
        0.229413 -0.014704 0.358268,
        0.227578 0.011032 0.358268,
        0.228894 0.034515 0.358268,
        0.121059 0.051387 0.358268,
        0.118110 0.050583 0.358268,
        0.143402 0.080000 0.358268,
        0.164166 0.092984 0.358268,
        0.173804 -0.064647 0.358268,
        0.154600 -0.064647 0.358268,
        0.154600 0.069127 0.358268,
        0.140052 0.059359 0.358268,
        0.118110 0.069787 0.358268,
        0.173804 0.093794 0.358268,
        0.173804 0.094754 0.358268,
        0.166333 0.094754 0.358268,
        0.165157 0.093794 0.358268,
        0.292320 -0.064585 0.358268,
        -0.198469 -0.020461 0.358268,
        -0.207259 -0.034670 0.358268,
        -0.220027 -0.047272 0.358268,
        -0.236110 -0.056981 0.358268,
        -0.273400 0.092833 0.358268,
        -0.252683 0.090847 0.358268,
        -0.234002 0.084786 0.358268,
        -0.198388 0.050806 0.358268,
        -0.193107 0.035393 0.358268,
        -0.191089 0.016074 0.358268,
        -0.193015 -0.003683 0.358268,
        -0.218096 0.074954 0.358268,
        -0.206745 0.063852 0.358268,
        -0.254222 -0.062697 0.358268,
        -0.275020 -0.064647 0.358268,
        -0.317841 -0.064647 0.358268,
        -0.317841 0.092833 0.358268,
        -0.081621 0.092833 0.358268,
        -0.081621 0.075549 0.358268,
        -0.141156 0.075549 0.358268,
        -0.141156 0.021775 0.358268,
        -0.085462 0.021775 0.358268,
        -0.085462 0.004491 0.358268,
        -0.141156 0.004491 0.358268,
        -0.141156 -0.064647 0.358268,
        -0.162281 -0.064647 0.358268,
        -0.162281 0.092833 0.358268,
        -0.029768 -0.064647 0.358268,
        -0.050893 -0.064647 0.358268,
        -0.050893 0.092833 0.358268,
        -0.029768 0.067867 0.358268,
        -0.030398 0.067867 0.358268,
        -0.027380 0.062615 0.358268,
        -0.029859 0.056862 0.358268,
        -0.024516 0.057604 0.358268,
        0.052724 -0.064647 0.358268,
        -0.029768 0.045841 0.358268,
        -0.024006 0.092833 0.358268,
        0.056654 0.092833 0.358268,
        0.077780 0.092833 0.358268,
        0.077780 -0.064647 0.358268,
        0.057255 -0.037760 0.358268,
        0.057675 -0.037760 0.358268,
        0.054222 -0.032267 0.358268,
        0.056829 -0.026345 0.358268,
        0.050923 -0.026927 0.358268,
        0.056654 -0.014894 0.358268,
        0.277811 -0.066567 0.354331,
        0.266610 -0.065356 0.354331,
        0.257501 -0.062098 0.354331,
        0.249609 -0.056863 0.354331,
        0.241844 -0.048369 0.354331,
        0.234953 -0.035641 0.354331,
        0.229413 -0.014704 0.354331,
        0.227578 0.011032 0.354331,
        0.281352 0.094754 0.354331,
        0.274923 0.094417 0.354331,
        0.264615 0.092189 0.354331,
        0.254713 0.087328 0.354331,
        0.247230 0.080998 0.354331,
        0.239999 0.071305 0.354331,
        0.233274 0.055774 0.354331,
        0.228894 0.034515 0.354331,
        0.292815 0.093549 0.354331,
        0.302102 0.090304 0.354331,
        0.310280 0.084881 0.354331,
        0.316628 0.077986 0.354331,
        0.323222 0.066141 0.354331,
        0.328874 0.046077 0.354331,
        0.331263 0.017246 0.354331,
        0.331285 0.014754 0.354331,
        0.282052 -0.066395 0.354331,
        0.292320 -0.064585 0.354331,
        0.302323 -0.060227 0.354331,
        0.310935 -0.053377 0.354331,
        0.318489 -0.043669 0.354331,
        0.325336 -0.028751 0.354331,
        0.329937 -0.007926 0.354331,
        0.264138 0.071556 0.354331,
        0.259693 0.066448 0.354331,
        0.254984 0.057417 0.354331,
        0.250563 0.039886 0.354331,
        0.248704 0.011993 0.354331,
        0.250064 -0.011000 0.354331,
        0.254326 -0.029069 0.354331,
        0.258161 -0.036991 0.354331,
        0.262376 -0.042398 0.354331,
        0.266841 -0.045889 0.354331,
        0.271622 -0.048084 0.354331,
        0.276985 -0.049150 0.354331,
        0.279672 -0.049283 0.354331,
        0.286002 -0.048546 0.354331,
        0.290920 -0.046645 0.354331,
        0.295454 -0.043469 0.354331,
        0.299886 -0.038344 0.354331,
        0.304289 -0.029696 0.354331,
        0.308473 -0.012909 0.354331,
        0.310159 0.013013 0.354331,
        0.268697 0.074738 0.354331,
        0.273693 0.076679 0.354331,
        0.280272 0.077469 0.354331,
        0.281706 0.077418 0.354331,
        0.287243 0.076456 0.354331,
        0.292065 0.074295 0.354331,
        0.296054 0.071141 0.354331,
        0.300649 0.065233 0.354331,
        0.304543 0.056741 0.354331,
        0.308783 0.037754 0.354331,
        0.248704 0.011993 0.358268,
        0.250563 0.039886 0.358268,
        0.254984 0.057417 0.358268,
        0.259693 0.066448 0.358268,
        0.264138 0.071556 0.358268,
        0.268697 0.074738 0.358268,
        0.273693 0.076679 0.358268,
        0.280272 0.077469 0.358268,
        0.281706 0.077418 0.358268,
        0.287243 0.076456 0.358268,
        0.292065 0.074295 0.358268,
        0.296054 0.071141 0.358268,
        0.300649 0.065233 0.358268,
        0.304543 0.056741 0.358268,
        0.308783 0.037754 0.358268,
        0.310159 0.013013 0.358268,
        0.308473 -0.012909 0.358268,
        0.304289 -0.029696 0.358268,
        0.299886 -0.038344 0.358268,
        0.295454 -0.043469 0.358268,
        0.290920 -0.046645 0.358268,
        0.286002 -0.048546 0.358268,
        0.279672 -0.049283 0.358268,
        0.276985 -0.049150 0.358268,
        0.271622 -0.048084 0.358268,
        0.266841 -0.045889 0.358268,
        0.262376 -0.042398 0.358268,
        0.258161 -0.036991 0.358268,
        0.254326 -0.029069 0.358268,
        0.250064 -0.011000 0.358268,
        0.173804 -0.064647 0.354331,
        0.154600 -0.064647 0.354331,
        0.154600 0.069127 0.354331,
        0.118110 0.050583 0.354331,
        0.121059 0.051387 0.354331,
        0.140052 0.059359 0.354331,
        0.118110 0.069787 0.354331,
        0.166333 0.094754 0.354331,
        0.164166 0.092984 0.354331,
        0.143402 0.080000 0.354331,
        0.173804 0.094754 0.354331,
        0.077780 0.092833 0.354331,
        0.077780 -0.064647 0.354331,
        0.052724 -0.064647 0.354331,
        -0.024516 0.057604 0.354331,
        -0.029768 0.067867 0.354331,
        -0.027380 0.062615 0.354331,
        -0.030398 0.067867 0.354331,
        -0.029768 0.045841 0.354331,
        -0.029859 0.056862 0.354331,
        -0.029768 -0.064647 0.354331,
        -0.050893 -0.064647 0.354331,
        -0.050893 0.092833 0.354331,
        -0.024006 0.092833 0.354331,
        0.050923 -0.026927 0.354331,
        0.057255 -0.037760 0.354331,
        0.054222 -0.032267 0.354331,
        0.057675 -0.037760 0.354331,
        0.056654 -0.014894 0.354331,
        0.056829 -0.026345 0.354331,
        0.056654 0.092833 0.354331,
        -0.081621 0.092833 0.354331,
        -0.081621 0.075549 0.354331,
        -0.141156 0.075549 0.354331,
        -0.141156 0.021775 0.354331,
        -0.085462 0.021775 0.354331,
        -0.085462 0.004491 0.354331,
        -0.141156 0.004491 0.354331,
        -0.141156 -0.064647 0.354331,
        -0.162281 -0.064647 0.354331,
        -0.162281 0.092833 0.354331,
        -0.275020 -0.064647 0.354331,
        -0.317841 -0.064647 0.354331,
        -0.317841 0.092833 0.354331,
        -0.273400 0.092833 0.354331,
        -0.191089 0.016074 0.354331,
        -0.193107 0.035393 0.354331,
        -0.198388 0.050806 0.354331,
        -0.206745 0.063852 0.354331,
        -0.218096 0.074954 0.354331,
        -0.234002 0.084786 0.354331,
        -0.252683 0.090847 0.354331,
        -0.254222 -0.062697 0.354331,
        -0.236110 -0.056981 0.354331,
        -0.220027 -0.047272 0.354331,
        -0.207259 -0.034670 0.354331,
        -0.198469 -0.020461 0.354331,
        -0.193015 -0.003683 0.354331,
        -0.212214 0.015624 0.354331,
        -0.213552 0.031297 0.354331,
        -0.217289 0.043896 0.354331,
        -0.222779 0.053574 0.354331,
        -0.230449 0.061671 0.354331,
        -0.241977 0.069079 0.354331,
        -0.255000 0.073602 0.354331,
        -0.273490 0.075549 0.354331,
        -0.296716 0.075549 0.354331,
        -0.296716 -0.047363 0.354331,
        -0.274360 -0.047363 0.354331,
        -0.257746 -0.045816 0.354331,
        -0.244373 -0.041625 0.354331,
        -0.233659 -0.035229 0.354331,
        -0.224849 -0.026487 0.354331,
        -0.218226 -0.015605 0.354331,
        -0.213631 -0.000761 0.354331,
        -0.273490 0.075549 0.358268,
        -0.296716 0.075549 0.358268,
        -0.255000 0.073602 0.358268,
        -0.241977 0.069079 0.358268,
        -0.230449 0.061671 0.358268,
        -0.222779 0.053574 0.358268,
        -0.217289 0.043896 0.358268,
        -0.213552 0.031297 0.358268,
        -0.212214 0.015624 0.358268,
        -0.213631 -0.000761 0.358268,
        -0.218226 -0.015605 0.358268,
        -0.224849 -0.026487 0.358268,
        -0.233659 -0.035229 0.358268,
        -0.244373 -0.041625 0.358268,
        -0.257746 -0.045816 0.358268,
        -0.274360 -0.047363 0.358268,
        -0.296716 -0.047363 0.358268,
      ]
    }
    coordIndex [
      20, 95, 21, -1,
      21, 95, 96, -1,
      21, 96, 22, -1,
      22, 96, 97, -1,
      22, 97, 23, -1,
      23, 97, 98, -1,
      23, 98, 24, -1,
      24, 98, 99, -1,
      24, 99, 25, -1,
      25, 99, 100, -1,
      25, 100, 26, -1,
      26, 100, 101, -1,
      26, 101, 31, -1,
      31, 101, 102, -1,
      31, 102, 32, -1,
      103, 19, 16, -1,
      103, 16, 104, -1,
      104, 16, 17, -1,
      104, 17, 105, -1,
      17, 18, 105, -1,
      105, 18, 30, -1,
      105, 30, 106, -1,
      106, 30, 29, -1,
      106, 29, 107, -1,
      107, 29, 28, -1,
      107, 28, 108, -1,
      108, 28, 27, -1,
      108, 27, 109, -1,
      109, 27, 33, -1,
      109, 33, 110, -1,
      110, 33, 32, -1,
      110, 32, 102, -1,
      19, 103, 6, -1,
      6, 103, 111, -1,
      6, 111, 5, -1,
      5, 111, 112, -1,
      5, 112, 4, -1,
      4, 112, 113, -1,
      4, 113, 7, -1,
      7, 113, 114, -1,
      7, 114, 8, -1,
      8, 114, 115, -1,
      8, 115, 9, -1,
      9, 115, 116, -1,
      9, 116, 13, -1,
      13, 116, 117, -1,
      13, 117, 14, -1,
      14, 117, 118, -1,
      14, 118, 15, -1,
      95, 20, 1, -1,
      95, 1, 119, -1,
      119, 1, 0, -1,
      119, 0, 120, -1,
      0, 47, 120, -1,
      120, 47, 3, -1,
      120, 3, 121, -1,
      121, 3, 2, -1,
      121, 2, 122, -1,
      122, 2, 12, -1,
      122, 12, 123, -1,
      123, 12, 11, -1,
      123, 11, 124, -1,
      124, 11, 10, -1,
      124, 10, 125, -1,
      125, 10, 15, -1,
      125, 15, 118, -1,
      105, 106, 126, -1,
      126, 106, 127, -1,
      127, 106, 107, -1,
      127, 107, 128, -1,
      107, 108, 128, -1,
      128, 108, 109, -1,
      128, 109, 129, -1,
      129, 109, 110, -1,
      129, 110, 130, -1,
      130, 110, 102, -1,
      130, 102, 131, -1,
      131, 102, 101, -1,
      131, 101, 132, -1,
      132, 101, 100, -1,
      132, 100, 133, -1,
      133, 100, 99, -1,
      133, 99, 134, -1,
      134, 99, 98, -1,
      134, 98, 135, -1,
      135, 98, 97, -1,
      135, 97, 136, -1,
      136, 97, 96, -1,
      136, 96, 137, -1,
      137, 96, 95, -1,
      137, 95, 138, -1,
      138, 95, 119, -1,
      138, 119, 139, -1,
      139, 119, 120, -1,
      139, 120, 140, -1,
      140, 120, 121, -1,
      140, 121, 141, -1,
      141, 121, 122, -1,
      141, 122, 142, -1,
      142, 122, 123, -1,
      142, 123, 143, -1,
      143, 123, 124, -1,
      143, 124, 144, -1,
      144, 124, 125, -1,
      144, 125, 145, -1,
      126, 146, 105, -1,
      105, 146, 147, -1,
      105, 147, 104, -1,
      104, 147, 148, -1,
      104, 148, 103, -1,
      103, 148, 149, -1,
      103, 149, 111, -1,
      111, 149, 150, -1,
      111, 150, 112, -1,
      112, 150, 151, -1,
      112, 151, 113, -1,
      113, 151, 152, -1,
      113, 152, 114, -1,
      114, 152, 153, -1,
      114, 153, 115, -1,
      115, 153, 154, -1,
      115, 154, 116, -1,
      116, 154, 155, -1,
      116, 155, 117, -1,
      117, 155, 145, -1,
      117, 145, 118, -1,
      118, 145, 125, -1,
      130, 156, 157, -1,
      130, 157, 129, -1,
      129, 157, 158, -1,
      129, 158, 128, -1,
      128, 158, 159, -1,
      128, 159, 127, -1,
      127, 159, 160, -1,
      127, 160, 126, -1,
      126, 160, 161, -1,
      126, 161, 146, -1,
      146, 161, 162, -1,
      146, 162, 147, -1,
      147, 162, 163, -1,
      147, 163, 148, -1,
      148, 163, 164, -1,
      148, 164, 149, -1,
      149, 164, 165, -1,
      149, 165, 150, -1,
      150, 165, 166, -1,
      150, 166, 151, -1,
      151, 166, 167, -1,
      151, 167, 152, -1,
      152, 167, 168, -1,
      152, 168, 153, -1,
      153, 168, 169, -1,
      153, 169, 154, -1,
      154, 169, 170, -1,
      154, 170, 155, -1,
      155, 170, 171, -1,
      155, 171, 145, -1,
      145, 171, 172, -1,
      145, 172, 144, -1,
      144, 172, 173, -1,
      144, 173, 143, -1,
      143, 173, 174, -1,
      143, 174, 142, -1,
      142, 174, 175, -1,
      142, 175, 141, -1,
      141, 175, 176, -1,
      141, 176, 140, -1,
      140, 176, 177, -1,
      140, 177, 139, -1,
      139, 177, 178, -1,
      139, 178, 138, -1,
      138, 178, 179, -1,
      138, 179, 137, -1,
      137, 179, 180, -1,
      137, 180, 136, -1,
      136, 180, 181, -1,
      136, 181, 135, -1,
      135, 181, 182, -1,
      135, 182, 134, -1,
      134, 182, 183, -1,
      134, 183, 133, -1,
      133, 183, 184, -1,
      133, 184, 132, -1,
      132, 184, 185, -1,
      132, 185, 131, -1,
      131, 185, 156, -1,
      131, 156, 130, -1,
      186, 187, 38, -1,
      38, 187, 39, -1,
      187, 188, 39, -1,
      39, 188, 40, -1,
      189, 35, 34, -1,
      189, 34, 190, -1,
      190, 34, 41, -1,
      190, 41, 191, -1,
      191, 41, 40, -1,
      191, 40, 188, -1,
      189, 192, 35, -1,
      35, 192, 42, -1,
      45, 46, 193, -1,
      193, 46, 194, -1,
      46, 37, 194, -1,
      194, 37, 36, -1,
      194, 36, 195, -1,
      195, 36, 42, -1,
      195, 42, 192, -1,
      193, 196, 45, -1,
      45, 196, 44, -1,
      44, 196, 43, -1,
      43, 196, 186, -1,
      43, 186, 38, -1,
      187, 186, 188, -1,
      188, 186, 196, -1,
      188, 196, 193, -1,
      193, 194, 188, -1,
      188, 194, 195, -1,
      188, 195, 191, -1,
      191, 195, 192, -1,
      191, 192, 190, -1,
      190, 192, 189, -1,
      197, 198, 87, -1,
      87, 198, 88, -1,
      198, 199, 88, -1,
      88, 199, 83, -1,
      199, 200, 83, -1,
      83, 200, 82, -1,
      201, 78, 80, -1,
      201, 80, 202, -1,
      202, 80, 82, -1,
      202, 82, 200, -1,
      201, 203, 78, -1,
      78, 203, 79, -1,
      204, 84, 81, -1,
      204, 81, 205, -1,
      205, 81, 79, -1,
      205, 79, 203, -1,
      204, 206, 84, -1,
      84, 206, 75, -1,
      206, 207, 75, -1,
      75, 207, 76, -1,
      207, 208, 76, -1,
      76, 208, 77, -1,
      208, 209, 77, -1,
      77, 209, 85, -1,
      209, 210, 85, -1,
      85, 210, 93, -1,
      211, 89, 91, -1,
      211, 91, 212, -1,
      212, 91, 93, -1,
      212, 93, 210, -1,
      211, 213, 89, -1,
      89, 213, 90, -1,
      214, 94, 92, -1,
      214, 92, 215, -1,
      215, 92, 90, -1,
      215, 90, 213, -1,
      214, 216, 94, -1,
      94, 216, 86, -1,
      216, 197, 86, -1,
      86, 197, 87, -1,
      197, 216, 198, -1,
      198, 216, 214, -1,
      207, 206, 208, -1,
      208, 206, 204, -1,
      204, 205, 208, -1,
      208, 205, 203, -1,
      208, 203, 209, -1,
      209, 203, 201, -1,
      214, 215, 198, -1,
      198, 215, 213, -1,
      198, 213, 199, -1,
      199, 213, 211, -1,
      211, 212, 199, -1,
      199, 212, 210, -1,
      199, 210, 200, -1,
      200, 210, 209, -1,
      200, 209, 202, -1,
      202, 209, 201, -1,
      217, 218, 65, -1,
      65, 218, 66, -1,
      218, 219, 66, -1,
      66, 219, 67, -1,
      219, 220, 67, -1,
      67, 220, 68, -1,
      220, 221, 68, -1,
      68, 221, 69, -1,
      221, 222, 69, -1,
      69, 222, 70, -1,
      222, 223, 70, -1,
      70, 223, 71, -1,
      223, 224, 71, -1,
      71, 224, 72, -1,
      224, 225, 72, -1,
      72, 225, 73, -1,
      225, 226, 73, -1,
      73, 226, 74, -1,
      226, 217, 74, -1,
      74, 217, 65, -1,
      226, 225, 223, -1,
      223, 225, 224, -1,
      218, 217, 219, -1,
      219, 217, 226, -1,
      219, 226, 220, -1,
      220, 226, 223, -1,
      220, 223, 221, -1,
      221, 223, 222, -1,
      227, 228, 62, -1,
      62, 228, 63, -1,
      228, 229, 63, -1,
      63, 229, 64, -1,
      229, 230, 64, -1,
      64, 230, 52, -1,
      231, 57, 56, -1,
      231, 56, 232, -1,
      232, 56, 55, -1,
      232, 55, 233, -1,
      233, 55, 60, -1,
      233, 60, 234, -1,
      234, 60, 59, -1,
      234, 59, 235, -1,
      235, 59, 54, -1,
      235, 54, 236, -1,
      236, 54, 53, -1,
      236, 53, 237, -1,
      237, 53, 52, -1,
      237, 52, 230, -1,
      227, 62, 61, -1,
      227, 61, 238, -1,
      238, 61, 51, -1,
      238, 51, 239, -1,
      239, 51, 50, -1,
      239, 50, 240, -1,
      240, 50, 49, -1,
      240, 49, 241, -1,
      241, 49, 48, -1,
      241, 48, 242, -1,
      242, 48, 58, -1,
      242, 58, 243, -1,
      243, 58, 57, -1,
      243, 57, 231, -1,
      244, 231, 245, -1,
      245, 231, 232, -1,
      245, 232, 246, -1,
      246, 232, 233, -1,
      246, 233, 247, -1,
      247, 233, 234, -1,
      247, 234, 248, -1,
      248, 234, 235, -1,
      248, 235, 249, -1,
      249, 235, 236, -1,
      249, 236, 250, -1,
      250, 236, 237, -1,
      250, 237, 251, -1,
      251, 237, 230, -1,
      251, 230, 252, -1,
      252, 230, 229, -1,
      252, 229, 253, -1,
      253, 229, 228, -1,
      253, 228, 254, -1,
      254, 228, 227, -1,
      254, 227, 255, -1,
      255, 227, 238, -1,
      255, 238, 256, -1,
      256, 238, 239, -1,
      256, 239, 257, -1,
      257, 239, 240, -1,
      257, 240, 258, -1,
      258, 240, 241, -1,
      258, 241, 259, -1,
      259, 241, 242, -1,
      259, 242, 260, -1,
      260, 242, 243, -1,
      260, 243, 244, -1,
      244, 243, 231, -1,
      251, 252, 261, -1,
      261, 252, 262, -1,
      251, 261, 263, -1,
      251, 263, 250, -1,
      250, 263, 264, -1,
      250, 264, 249, -1,
      249, 264, 265, -1,
      249, 265, 248, -1,
      248, 265, 266, -1,
      248, 266, 247, -1,
      247, 266, 267, -1,
      247, 267, 246, -1,
      246, 267, 268, -1,
      246, 268, 245, -1,
      245, 268, 269, -1,
      245, 269, 244, -1,
      244, 269, 270, -1,
      244, 270, 260, -1,
      260, 270, 271, -1,
      260, 271, 259, -1,
      259, 271, 272, -1,
      259, 272, 258, -1,
      258, 272, 273, -1,
      258, 273, 257, -1,
      257, 273, 274, -1,
      257, 274, 256, -1,
      256, 274, 275, -1,
      256, 275, 255, -1,
      255, 275, 276, -1,
      255, 276, 254, -1,
      253, 254, 277, -1,
      277, 254, 276, -1,
      252, 253, 262, -1,
      262, 253, 277, -1,
    ]
  }
}

Shape {
  appearance Appearance {
    material Material {
      diffuseColor 0.2510 0.2510 0.2510
      specularColor 0.1255 0.1255 0.1255
      ambientIntensity 0.2
      transparency 0.0000
      shininess 0.5
    }
  }
  geometry IndexedFaceSet {
    ccw TRUE
    solid FALSE
    coord DEF co Coordinate {
      point [
        0.248704 0.011993 0.358268,
        0.250563 0.039886 0.358268,
        0.254984 0.057417 0.358268,
        0.259693 0.066448 0.358268,
        0.264138 0.071556 0.358268,
        0.268697 0.074738 0.358268,
        0.273693 0.076679 0.358268,
        0.280272 0.077469 0.358268,
        0.281706 0.077418 0.358268,
        0.287243 0.076456 0.358268,
        0.292065 0.074295 0.358268,
        0.296054 0.071141 0.358268,
        0.300649 0.065233 0.358268,
        0.304543 0.056741 0.358268,
        0.308783 0.037754 0.358268,
        0.310159 0.013013 0.358268,
        0.308473 -0.012909 0.358268,
        0.304289 -0.029696 0.358268,
        0.299886 -0.038344 0.358268,
        0.295454 -0.043469 0.358268,
        0.290920 -0.046645 0.358268,
        0.286002 -0.048546 0.358268,
        0.279672 -0.049283 0.358268,
        0.276985 -0.049150 0.358268,
        0.271622 -0.048084 0.358268,
        0.266841 -0.045889 0.358268,
        0.262376 -0.042398 0.358268,
        0.258161 -0.036991 0.358268,
        0.254326 -0.029069 0.358268,
        0.250064 -0.011000 0.358268,
        -0.273490 0.075549 0.358268,
        -0.296716 0.075549 0.358268,
        -0.255000 0.073602 0.358268,
        -0.241977 0.069079 0.358268,
        -0.230449 0.061671 0.358268,
        -0.222779 0.053574 0.358268,
        -0.217289 0.043896 0.358268,
        -0.213552 0.031297 0.358268,
        -0.212214 0.015624 0.358268,
        -0.213631 -0.000761 0.358268,
        -0.218226 -0.015605 0.358268,
        -0.224849 -0.026487 0.358268,
        -0.233659 -0.035229 0.358268,
        -0.244373 -0.041625 0.358268,
        -0.257746 -0.045816 0.358268,
        -0.274360 -0.047363 0.358268,
        -0.296716 -0.047363 0.358268,
      ]
    }
    coordIndex [
      1, 0, 7, -1,
      16, 15, 22, -1,
      16, 22, 17, -1,
      0, 14, 13, -1,
      1, 7, 2, -1,
      14, 0, 15, -1,
      15, 0, 29, -1,
      15, 29, 28, -1,
      28, 27, 15, -1,
      15, 27, 26, -1,
      15, 26, 25, -1,
      25, 24, 15, -1,
      15, 24, 23, -1,
      15, 23, 22, -1,
      22, 21, 20, -1,
      13, 12, 0, -1,
      0, 12, 11, -1,
      0, 11, 10, -1,
      7, 6, 5, -1,
      20, 19, 22, -1,
      22, 19, 18, -1,
      22, 18, 17, -1,
      10, 9, 0, -1,
      0, 9, 8, -1,
      0, 8, 7, -1,
      5, 4, 7, -1,
      7, 4, 3, -1,
      7, 3, 2, -1,
      31, 46, 30, -1,
      30, 46, 45, -1,
      30, 45, 44, -1,
      38, 37, 30, -1,
      30, 37, 36, -1,
      30, 36, 32, -1,
      44, 43, 30, -1,
      30, 43, 42, -1,
      30, 42, 41, -1,
      41, 40, 30, -1,
      30, 40, 39, -1,
      30, 39, 38, -1,
      35, 34, 36, -1,
      36, 34, 33, -1,
      36, 33, 32, -1,
    ]
  }
}

Shape {
  appearance Appearance {
    material Material {
      diffuseColor 1.0000 1.0000 1.0000
      specularColor 0.8784 0.8784 0.8784
      ambientIntensity 0.2
      transparency 0.0000
      shininess 0.5
    }
  }
  geometry IndexedFaceSet {
    ccw TRUE
    solid FALSE
    coord DEF co Coordinate {
      point [
        -0.472441 -0.236220 0.000000,
        -0.472441 -0.039711 0.000000,
        -0.393701 -0.314961 0.000000,
        -0.016324 -0.314961 0.000000,
        0.472441 0.314961 0.000000,
        0.472441 -0.314961 0.000000,
        -0.472441 0.314961 0.000000,
        -0.436320 -0.461614 0.003937,
        -0.441237 -0.473483 0.003937,
        -0.393701 -0.314961 0.003937,
        -0.442913 -0.486220 0.003937,
        -0.442913 -0.590551 0.003937,
        0.442913 -0.590551 0.003937,
        0.442913 -0.486220 0.003937,
        -0.472441 0.314961 0.003937,
        -0.472441 -0.236220 0.003937,
        0.047536 -0.473483 0.003937,
        0.162052 -0.451422 0.003937,
        0.154231 -0.461614 0.003937,
        0.154231 0.461614 0.003937,
        0.162052 0.451422 0.003937,
        0.047536 0.473483 0.003937,
        0.244386 -0.473483 0.003937,
        0.358902 -0.451422 0.003937,
        0.351081 -0.461614 0.003937,
        -0.221457 -0.443601 0.003937,
        -0.231649 -0.451422 0.003937,
        -0.346165 -0.473483 0.003937,
        -0.239470 -0.461614 0.003937,
        0.436320 0.461614 0.003937,
        0.441237 0.473483 0.003937,
        0.442913 0.486220 0.003937,
        0.442913 0.590551 0.003937,
        0.147638 -0.486220 0.003937,
        0.147638 -0.590551 0.003937,
        0.049213 -0.590551 0.003937,
        0.441237 -0.473483 0.003937,
        0.436320 -0.461614 0.003937,
        0.472441 -0.314961 0.003937,
        0.428499 -0.451422 0.003937,
        0.418307 -0.443601 0.003937,
        0.244386 0.473483 0.003937,
        0.351081 0.461614 0.003937,
        0.358902 0.451422 0.003937,
        0.149315 -0.473483 0.003937,
        0.049213 -0.486220 0.003937,
        -0.149315 -0.473483 0.003937,
        -0.154231 -0.461614 0.003937,
        -0.162052 -0.451422 0.003937,
        -0.172244 -0.443601 0.003937,
        -0.346165 0.473483 0.003937,
        -0.239470 0.461614 0.003937,
        -0.231649 0.451422 0.003937,
        0.344488 -0.486220 0.003937,
        0.344488 -0.590551 0.003937,
        0.246063 -0.590551 0.003937,
        -0.246063 -0.486220 0.003937,
        -0.246063 -0.590551 0.003937,
        -0.344488 -0.590551 0.003937,
        -0.406438 -0.438685 0.003937,
        -0.393701 -0.437008 0.003937,
        -0.380964 -0.438685 0.003937,
        -0.418307 -0.443601 0.003937,
        -0.428499 -0.451422 0.003937,
        -0.418307 0.443601 0.003937,
        -0.406438 0.438685 0.003937,
        0.418307 0.443601 0.003937,
        0.428499 0.451422 0.003937,
        0.472441 0.314961 0.003937,
        0.346165 -0.473483 0.003937,
        0.246063 -0.486220 0.003937,
        0.406438 -0.438685 0.003937,
        0.393701 -0.437008 0.003937,
        0.380964 -0.438685 0.003937,
        0.231649 -0.451422 0.003937,
        0.221457 -0.443601 0.003937,
        0.012737 -0.438685 0.003937,
        0.024606 -0.443601 0.003937,
        0.034798 -0.451422 0.003937,
        -0.244386 -0.473483 0.003937,
        -0.344488 -0.486220 0.003937,
        -0.428499 0.451422 0.003937,
        -0.042619 0.461614 0.003937,
        -0.034798 0.451422 0.003937,
        -0.149315 0.473483 0.003937,
        0.246063 0.590551 0.003937,
        0.344488 0.590551 0.003937,
        0.246063 0.486220 0.003937,
        0.344488 0.486220 0.003937,
        0.346165 0.473483 0.003937,
        0.049213 0.590551 0.003937,
        0.147638 0.590551 0.003937,
        0.049213 0.486220 0.003937,
        0.147638 0.486220 0.003937,
        0.149315 0.473483 0.003937,
        0.239470 -0.461614 0.003937,
        0.369094 -0.443601 0.003937,
        -0.034798 -0.451422 0.003937,
        -0.042619 -0.461614 0.003937,
        -0.184113 -0.438685 0.003937,
        -0.196850 -0.437008 0.003937,
        -0.209587 -0.438685 0.003937,
        -0.351081 -0.461614 0.003937,
        -0.358902 -0.451422 0.003937,
        -0.369094 -0.443601 0.003937,
        -0.442913 0.590551 0.003937,
        -0.442913 0.486220 0.003937,
        -0.441237 0.473483 0.003937,
        -0.436320 0.461614 0.003937,
        -0.209587 0.438685 0.003937,
        -0.196850 0.437008 0.003937,
        -0.184113 0.438685 0.003937,
        -0.172244 0.443601 0.003937,
        0.406438 0.438685 0.003937,
        -0.344488 0.590551 0.003937,
        -0.246063 0.590551 0.003937,
        -0.344488 0.486220 0.003937,
        -0.246063 0.486220 0.003937,
        -0.244386 0.473483 0.003937,
        0.209587 -0.438685 0.003937,
        0.196850 -0.437008 0.003937,
        0.184113 -0.438685 0.003937,
        0.000000 -0.437008 0.003937,
        -0.012737 -0.438685 0.003937,
        -0.024606 -0.443601 0.003937,
        -0.221457 0.443601 0.003937,
        -0.351081 0.461614 0.003937,
        -0.358902 0.451422 0.003937,
        -0.162052 0.451422 0.003937,
        -0.154231 0.461614 0.003937,
        0.000000 0.437008 0.003937,
        0.012737 0.438685 0.003937,
        0.184113 0.438685 0.003937,
        0.024606 0.443601 0.003937,
        0.034798 0.451422 0.003937,
        0.231649 0.451422 0.003937,
        0.239470 0.461614 0.003937,
        0.042619 -0.461614 0.003937,
        0.172244 -0.443601 0.003937,
        -0.393701 0.437008 0.003937,
        -0.380964 0.438685 0.003937,
        -0.369094 0.443601 0.003937,
        0.196850 0.437008 0.003937,
        0.209587 0.438685 0.003937,
        0.221457 0.443601 0.003937,
        0.172244 0.443601 0.003937,
        0.042619 0.461614 0.003937,
        0.369094 0.443601 0.003937,
        0.380964 0.438685 0.003937,
        0.393701 0.437008 0.003937,
        -0.049213 -0.486220 0.003937,
        -0.049213 -0.590551 0.003937,
        -0.147638 -0.590551 0.003937,
        -0.012737 0.438685 0.003937,
        -0.024606 0.443601 0.003937,
        -0.047536 -0.473483 0.003937,
        -0.147638 -0.486220 0.003937,
        -0.147638 0.590551 0.003937,
        -0.049213 0.590551 0.003937,
        -0.147638 0.486220 0.003937,
        -0.049213 0.486220 0.003937,
        -0.047536 0.473483 0.003937,
        0.442913 -0.590551 0.078740,
        0.344488 -0.590551 0.078740,
        -0.344488 -0.590551 0.078740,
        -0.246063 -0.590551 0.078740,
        -0.442913 -0.590551 0.078740,
        -0.147638 -0.590551 0.078740,
        -0.049213 -0.590551 0.078740,
        0.049213 -0.590551 0.078740,
        0.147638 -0.590551 0.078740,
        0.246063 -0.590551 0.078740,
        0.442913 0.590551 0.078740,
        0.344488 0.590551 0.078740,
        0.246063 0.590551 0.078740,
        0.147638 0.590551 0.078740,
        0.049213 0.590551 0.078740,
        -0.049213 0.590551 0.078740,
        -0.147638 0.590551 0.078740,
        -0.246063 0.590551 0.078740,
        -0.442913 0.590551 0.078740,
        -0.344488 0.590551 0.078740,
        -0.442913 -0.594488 0.078740,
        -0.344488 -0.594488 0.078740,
        -0.442913 -0.486220 0.000000,
        -0.442913 -0.594488 0.000000,
        -0.344488 -0.594488 0.000000,
        -0.344488 -0.486220 0.000000,
        -0.346165 -0.473483 0.000000,
        -0.351081 -0.461614 0.000000,
        -0.358902 -0.451422 0.000000,
        -0.369094 -0.443601 0.000000,
        -0.380964 -0.438685 0.000000,
        -0.393701 -0.437008 0.000000,
        -0.406438 -0.438685 0.000000,
        -0.418307 -0.443601 0.000000,
        -0.428499 -0.451422 0.000000,
        -0.436320 -0.461614 0.000000,
        -0.441237 -0.473483 0.000000,
        -0.246063 -0.594488 0.078740,
        -0.147638 -0.594488 0.078740,
        -0.246063 -0.486220 0.000000,
        -0.246063 -0.594488 0.000000,
        -0.147638 -0.594488 0.000000,
        -0.147638 -0.486220 0.000000,
        -0.149315 -0.473483 0.000000,
        -0.154231 -0.461614 0.000000,
        -0.162052 -0.451422 0.000000,
        -0.172244 -0.443601 0.000000,
        -0.184113 -0.438685 0.000000,
        -0.196850 -0.437008 0.000000,
        -0.209587 -0.438685 0.000000,
        -0.221457 -0.443601 0.000000,
        -0.231649 -0.451422 0.000000,
        -0.239470 -0.461614 0.000000,
        -0.244386 -0.473483 0.000000,
        -0.049213 -0.594488 0.078740,
        0.049213 -0.594488 0.078740,
        -0.049213 -0.486220 0.000000,
        -0.049213 -0.594488 0.000000,
        0.049213 -0.594488 0.000000,
        0.049213 -0.486220 0.000000,
        0.047536 -0.473483 0.000000,
        0.042619 -0.461614 0.000000,
        0.034798 -0.451422 0.000000,
        0.024606 -0.443601 0.000000,
        0.012737 -0.438685 0.000000,
        0.000000 -0.437008 0.000000,
        -0.012737 -0.438685 0.000000,
        -0.024606 -0.443601 0.000000,
        -0.034798 -0.451422 0.000000,
        -0.042619 -0.461614 0.000000,
        -0.047536 -0.473483 0.000000,
        0.147638 -0.594488 0.078740,
        0.246063 -0.594488 0.078740,
        0.147638 -0.486220 0.000000,
        0.147638 -0.594488 0.000000,
        0.246063 -0.594488 0.000000,
        0.246063 -0.486220 0.000000,
        0.244386 -0.473483 0.000000,
        0.239470 -0.461614 0.000000,
        0.231649 -0.451422 0.000000,
        0.221457 -0.443601 0.000000,
        0.209587 -0.438685 0.000000,
        0.196850 -0.437008 0.000000,
        0.184113 -0.438685 0.000000,
        0.172244 -0.443601 0.000000,
        0.162052 -0.451422 0.000000,
        0.154231 -0.461614 0.000000,
        0.149315 -0.473483 0.000000,
        0.344488 -0.594488 0.078740,
        0.442913 -0.594488 0.078740,
        0.344488 -0.486220 0.000000,
        0.344488 -0.594488 0.000000,
        0.442913 -0.594488 0.000000,
        0.442913 -0.486220 0.000000,
        0.441237 -0.473483 0.000000,
        0.436320 -0.461614 0.000000,
        0.428499 -0.451422 0.000000,
        0.418307 -0.443601 0.000000,
        0.406438 -0.438685 0.000000,
        0.393701 -0.437008 0.000000,
        0.380964 -0.438685 0.000000,
        0.369094 -0.443601 0.000000,
        0.358902 -0.451422 0.000000,
        0.351081 -0.461614 0.000000,
        0.346165 -0.473483 0.000000,
        -0.344488 0.594488 0.078740,
        -0.442913 0.594488 0.078740,
        -0.442913 0.486220 0.000000,
        -0.441237 0.473483 0.000000,
        -0.436320 0.461614 0.000000,
        -0.428499 0.451422 0.000000,
        -0.418307 0.443601 0.000000,
        -0.406438 0.438685 0.000000,
        -0.393701 0.437008 0.000000,
        -0.380964 0.438685 0.000000,
        -0.369094 0.443601 0.000000,
        -0.358902 0.451422 0.000000,
        -0.351081 0.461614 0.000000,
        -0.346165 0.473483 0.000000,
        -0.344488 0.486220 0.000000,
        -0.344488 0.594488 0.000000,
        -0.442913 0.594488 0.000000,
        -0.147638 0.594488 0.078740,
        -0.246063 0.594488 0.078740,
        -0.246063 0.486220 0.000000,
        -0.244386 0.473483 0.000000,
        -0.239470 0.461614 0.000000,
        -0.231649 0.451422 0.000000,
        -0.221457 0.443601 0.000000,
        -0.209587 0.438685 0.000000,
        -0.196850 0.437008 0.000000,
        -0.184113 0.438685 0.000000,
        -0.172244 0.443601 0.000000,
        -0.162052 0.451422 0.000000,
        -0.154231 0.461614 0.000000,
        -0.149315 0.473483 0.000000,
        -0.147638 0.486220 0.000000,
        -0.147638 0.594488 0.000000,
        -0.246063 0.594488 0.000000,
        0.049213 0.594488 0.078740,
        -0.049213 0.594488 0.078740,
        -0.049213 0.486220 0.000000,
        -0.047536 0.473483 0.000000,
        -0.042619 0.461614 0.000000,
        -0.034798 0.451422 0.000000,
        -0.024606 0.443601 0.000000,
        -0.012737 0.438685 0.000000,
        0.000000 0.437008 0.000000,
        0.012737 0.438685 0.000000,
        0.024606 0.443601 0.000000,
        0.034798 0.451422 0.000000,
        0.042619 0.461614 0.000000,
        0.047536 0.473483 0.000000,
        0.049213 0.486220 0.000000,
        0.049213 0.594488 0.000000,
        -0.049213 0.594488 0.000000,
        0.246063 0.594488 0.078740,
        0.147638 0.594488 0.078740,
        0.147638 0.486220 0.000000,
        0.149315 0.473483 0.000000,
        0.154231 0.461614 0.000000,
        0.162052 0.451422 0.000000,
        0.172244 0.443601 0.000000,
        0.184113 0.438685 0.000000,
        0.196850 0.437008 0.000000,
        0.209587 0.438685 0.000000,
        0.221457 0.443601 0.000000,
        0.231649 0.451422 0.000000,
        0.239470 0.461614 0.000000,
        0.244386 0.473483 0.000000,
        0.246063 0.486220 0.000000,
        0.246063 0.594488 0.000000,
        0.147638 0.594488 0.000000,
        0.442913 0.594488 0.078740,
        0.344488 0.594488 0.078740,
        0.344488 0.486220 0.000000,
        0.346165 0.473483 0.000000,
        0.351081 0.461614 0.000000,
        0.358902 0.451422 0.000000,
        0.369094 0.443601 0.000000,
        0.380964 0.438685 0.000000,
        0.393701 0.437008 0.000000,
        0.406438 0.438685 0.000000,
        0.418307 0.443601 0.000000,
        0.428499 0.451422 0.000000,
        0.436320 0.461614 0.000000,
        0.441237 0.473483 0.000000,
        0.442913 0.486220 0.000000,
        0.442913 0.594488 0.000000,
        0.344488 0.594488 0.000000,
      ]
    }
    coordIndex [
      182, 183, 166, -1,
      166, 183, 164, -1,
      10, 184, 11, -1,
      11, 184, 185, -1,
      11, 185, 166, -1,
      166, 185, 182, -1,
      164, 183, 58, -1,
      58, 183, 186, -1,
      58, 186, 80, -1,
      80, 186, 187, -1,
      80, 187, 188, -1,
      80, 188, 27, -1,
      27, 188, 189, -1,
      27, 189, 102, -1,
      102, 189, 190, -1,
      102, 190, 103, -1,
      103, 190, 191, -1,
      103, 191, 104, -1,
      104, 191, 192, -1,
      104, 192, 61, -1,
      61, 192, 193, -1,
      61, 193, 60, -1,
      60, 193, 194, -1,
      60, 194, 59, -1,
      59, 194, 195, -1,
      59, 195, 62, -1,
      62, 195, 196, -1,
      62, 196, 63, -1,
      63, 196, 197, -1,
      63, 197, 7, -1,
      7, 197, 198, -1,
      7, 198, 8, -1,
      8, 198, 184, -1,
      8, 184, 10, -1,
      183, 182, 186, -1,
      186, 182, 185, -1,
      187, 186, 185, -1,
      185, 184, 187, -1,
      187, 184, 198, -1,
      187, 198, 197, -1,
      197, 196, 187, -1,
      187, 196, 195, -1,
      187, 195, 194, -1,
      194, 193, 187, -1,
      187, 193, 192, -1,
      187, 192, 191, -1,
      191, 190, 187, -1,
      187, 190, 189, -1,
      187, 189, 188, -1,
      199, 200, 165, -1,
      165, 200, 167, -1,
      56, 201, 57, -1,
      57, 201, 202, -1,
      57, 202, 165, -1,
      165, 202, 199, -1,
      167, 200, 152, -1,
      152, 200, 203, -1,
      152, 203, 156, -1,
      156, 203, 204, -1,
      156, 204, 205, -1,
      156, 205, 46, -1,
      46, 205, 206, -1,
      46, 206, 47, -1,
      47, 206, 207, -1,
      47, 207, 48, -1,
      48, 207, 208, -1,
      48, 208, 49, -1,
      49, 208, 209, -1,
      49, 209, 99, -1,
      99, 209, 210, -1,
      99, 210, 100, -1,
      100, 210, 211, -1,
      100, 211, 101, -1,
      101, 211, 212, -1,
      101, 212, 25, -1,
      25, 212, 213, -1,
      25, 213, 26, -1,
      26, 213, 214, -1,
      26, 214, 28, -1,
      28, 214, 215, -1,
      28, 215, 79, -1,
      79, 215, 201, -1,
      79, 201, 56, -1,
      200, 199, 203, -1,
      203, 199, 202, -1,
      204, 203, 202, -1,
      202, 201, 204, -1,
      204, 201, 215, -1,
      204, 215, 214, -1,
      214, 213, 204, -1,
      204, 213, 212, -1,
      204, 212, 211, -1,
      211, 210, 204, -1,
      204, 210, 209, -1,
      204, 209, 208, -1,
      208, 207, 204, -1,
      204, 207, 206, -1,
      204, 206, 205, -1,
      216, 217, 168, -1,
      168, 217, 169, -1,
      150, 218, 151, -1,
      151, 218, 219, -1,
      151, 219, 168, -1,
      168, 219, 216, -1,
      169, 217, 35, -1,
      35, 217, 220, -1,
      35, 220, 45, -1,
      45, 220, 221, -1,
      45, 221, 222, -1,
      45, 222, 16, -1,
      16, 222, 223, -1,
      16, 223, 137, -1,
      137, 223, 224, -1,
      137, 224, 78, -1,
      78, 224, 225, -1,
      78, 225, 77, -1,
      77, 225, 226, -1,
      77, 226, 76, -1,
      76, 226, 227, -1,
      76, 227, 122, -1,
      122, 227, 228, -1,
      122, 228, 123, -1,
      123, 228, 229, -1,
      123, 229, 124, -1,
      124, 229, 230, -1,
      124, 230, 97, -1,
      97, 230, 231, -1,
      97, 231, 98, -1,
      98, 231, 232, -1,
      98, 232, 155, -1,
      155, 232, 218, -1,
      155, 218, 150, -1,
      217, 216, 220, -1,
      220, 216, 219, -1,
      221, 220, 219, -1,
      219, 218, 221, -1,
      221, 218, 232, -1,
      221, 232, 231, -1,
      231, 230, 221, -1,
      221, 230, 229, -1,
      221, 229, 228, -1,
      228, 227, 221, -1,
      221, 227, 226, -1,
      221, 226, 225, -1,
      225, 224, 221, -1,
      221, 224, 223, -1,
      221, 223, 222, -1,
      233, 234, 170, -1,
      170, 234, 171, -1,
      33, 235, 34, -1,
      34, 235, 236, -1,
      34, 236, 170, -1,
      170, 236, 233, -1,
      171, 234, 55, -1,
      55, 234, 237, -1,
      55, 237, 70, -1,
      70, 237, 238, -1,
      70, 238, 239, -1,
      70, 239, 22, -1,
      22, 239, 240, -1,
      22, 240, 95, -1,
      95, 240, 241, -1,
      95, 241, 74, -1,
      74, 241, 242, -1,
      74, 242, 75, -1,
      75, 242, 243, -1,
      75, 243, 119, -1,
      119, 243, 244, -1,
      119, 244, 120, -1,
      120, 244, 245, -1,
      120, 245, 121, -1,
      121, 245, 246, -1,
      121, 246, 138, -1,
      138, 246, 247, -1,
      138, 247, 17, -1,
      17, 247, 248, -1,
      17, 248, 18, -1,
      18, 248, 249, -1,
      18, 249, 44, -1,
      44, 249, 235, -1,
      44, 235, 33, -1,
      234, 233, 237, -1,
      237, 233, 236, -1,
      237, 236, 238, -1,
      238, 236, 235, -1,
      235, 249, 238, -1,
      238, 249, 248, -1,
      238, 248, 247, -1,
      242, 238, 243, -1,
      243, 238, 244, -1,
      242, 241, 238, -1,
      238, 241, 240, -1,
      238, 240, 239, -1,
      247, 246, 238, -1,
      238, 246, 245, -1,
      238, 245, 244, -1,
      250, 251, 163, -1,
      163, 251, 162, -1,
      53, 252, 54, -1,
      54, 252, 253, -1,
      54, 253, 163, -1,
      163, 253, 250, -1,
      162, 251, 12, -1,
      12, 251, 254, -1,
      12, 254, 13, -1,
      13, 254, 255, -1,
      13, 255, 256, -1,
      13, 256, 36, -1,
      36, 256, 257, -1,
      36, 257, 37, -1,
      37, 257, 258, -1,
      37, 258, 39, -1,
      39, 258, 259, -1,
      39, 259, 40, -1,
      40, 259, 260, -1,
      40, 260, 71, -1,
      71, 260, 261, -1,
      71, 261, 72, -1,
      72, 261, 262, -1,
      72, 262, 73, -1,
      73, 262, 263, -1,
      73, 263, 96, -1,
      96, 263, 264, -1,
      96, 264, 23, -1,
      23, 264, 265, -1,
      23, 265, 24, -1,
      24, 265, 266, -1,
      24, 266, 69, -1,
      69, 266, 252, -1,
      69, 252, 53, -1,
      251, 250, 254, -1,
      254, 250, 253, -1,
      254, 253, 255, -1,
      255, 253, 252, -1,
      252, 266, 255, -1,
      255, 266, 265, -1,
      255, 265, 264, -1,
      262, 258, 257, -1,
      258, 262, 259, -1,
      259, 262, 261, -1,
      259, 261, 260, -1,
      264, 263, 255, -1,
      255, 263, 262, -1,
      255, 262, 256, -1,
      256, 262, 257, -1,
      267, 268, 181, -1,
      181, 268, 180, -1,
      106, 269, 270, -1,
      106, 270, 107, -1,
      107, 270, 271, -1,
      107, 271, 108, -1,
      108, 271, 272, -1,
      108, 272, 81, -1,
      81, 272, 273, -1,
      81, 273, 64, -1,
      64, 273, 274, -1,
      64, 274, 65, -1,
      65, 274, 275, -1,
      65, 275, 139, -1,
      139, 275, 276, -1,
      139, 276, 140, -1,
      140, 276, 277, -1,
      140, 277, 141, -1,
      141, 277, 278, -1,
      141, 278, 127, -1,
      127, 278, 279, -1,
      127, 279, 126, -1,
      126, 279, 280, -1,
      126, 280, 50, -1,
      50, 280, 281, -1,
      50, 281, 116, -1,
      116, 281, 114, -1,
      114, 281, 282, -1,
      114, 282, 181, -1,
      181, 282, 267, -1,
      268, 267, 283, -1,
      283, 267, 282, -1,
      180, 268, 105, -1,
      105, 268, 283, -1,
      105, 283, 106, -1,
      106, 283, 269, -1,
      283, 282, 269, -1,
      269, 282, 281, -1,
      269, 281, 270, -1,
      270, 281, 280, -1,
      270, 280, 279, -1,
      270, 276, 271, -1,
      271, 276, 272, -1,
      279, 278, 270, -1,
      270, 278, 277, -1,
      270, 277, 276, -1,
      272, 276, 273, -1,
      273, 276, 275, -1,
      273, 275, 274, -1,
      284, 285, 178, -1,
      178, 285, 179, -1,
      117, 286, 287, -1,
      117, 287, 118, -1,
      118, 287, 288, -1,
      118, 288, 51, -1,
      51, 288, 289, -1,
      51, 289, 52, -1,
      52, 289, 290, -1,
      52, 290, 125, -1,
      125, 290, 291, -1,
      125, 291, 109, -1,
      109, 291, 292, -1,
      109, 292, 110, -1,
      110, 292, 293, -1,
      110, 293, 111, -1,
      111, 293, 294, -1,
      111, 294, 112, -1,
      112, 294, 295, -1,
      112, 295, 128, -1,
      128, 295, 296, -1,
      128, 296, 129, -1,
      129, 296, 297, -1,
      129, 297, 84, -1,
      84, 297, 298, -1,
      84, 298, 159, -1,
      159, 298, 157, -1,
      157, 298, 299, -1,
      157, 299, 178, -1,
      178, 299, 284, -1,
      285, 284, 300, -1,
      300, 284, 299, -1,
      179, 285, 115, -1,
      115, 285, 300, -1,
      115, 300, 117, -1,
      117, 300, 286, -1,
      300, 299, 286, -1,
      286, 299, 298, -1,
      298, 297, 286, -1,
      286, 297, 296, -1,
      286, 296, 295, -1,
      295, 294, 286, -1,
      286, 294, 293, -1,
      286, 293, 287, -1,
      290, 293, 291, -1,
      291, 293, 292, -1,
      290, 289, 293, -1,
      293, 289, 288, -1,
      293, 288, 287, -1,
      301, 302, 176, -1,
      176, 302, 177, -1,
      160, 303, 304, -1,
      160, 304, 161, -1,
      161, 304, 305, -1,
      161, 305, 82, -1,
      82, 305, 306, -1,
      82, 306, 83, -1,
      83, 306, 307, -1,
      83, 307, 154, -1,
      154, 307, 308, -1,
      154, 308, 153, -1,
      153, 308, 309, -1,
      153, 309, 130, -1,
      130, 309, 310, -1,
      130, 310, 131, -1,
      131, 310, 311, -1,
      131, 311, 133, -1,
      133, 311, 312, -1,
      133, 312, 134, -1,
      134, 312, 313, -1,
      134, 313, 146, -1,
      146, 313, 314, -1,
      146, 314, 21, -1,
      21, 314, 315, -1,
      21, 315, 92, -1,
      92, 315, 90, -1,
      90, 315, 316, -1,
      90, 316, 176, -1,
      176, 316, 301, -1,
      302, 301, 317, -1,
      317, 301, 316, -1,
      177, 302, 158, -1,
      158, 302, 317, -1,
      158, 317, 160, -1,
      160, 317, 303, -1,
      317, 316, 303, -1,
      303, 316, 315, -1,
      303, 315, 304, -1,
      315, 314, 304, -1,
      304, 314, 313, -1,
      304, 313, 312, -1,
      306, 310, 307, -1,
      307, 310, 309, -1,
      307, 309, 308, -1,
      312, 311, 304, -1,
      304, 311, 310, -1,
      304, 310, 305, -1,
      305, 310, 306, -1,
      318, 319, 174, -1,
      174, 319, 175, -1,
      93, 320, 321, -1,
      93, 321, 94, -1,
      94, 321, 322, -1,
      94, 322, 19, -1,
      19, 322, 323, -1,
      19, 323, 20, -1,
      20, 323, 324, -1,
      20, 324, 145, -1,
      145, 324, 325, -1,
      145, 325, 132, -1,
      132, 325, 326, -1,
      132, 326, 142, -1,
      142, 326, 327, -1,
      142, 327, 143, -1,
      143, 327, 328, -1,
      143, 328, 144, -1,
      144, 328, 329, -1,
      144, 329, 135, -1,
      135, 329, 330, -1,
      135, 330, 136, -1,
      136, 330, 331, -1,
      136, 331, 41, -1,
      41, 331, 332, -1,
      41, 332, 87, -1,
      87, 332, 85, -1,
      85, 332, 333, -1,
      85, 333, 174, -1,
      174, 333, 318, -1,
      319, 318, 334, -1,
      334, 318, 333, -1,
      175, 319, 91, -1,
      91, 319, 334, -1,
      91, 334, 93, -1,
      93, 334, 320, -1,
      334, 333, 320, -1,
      320, 333, 332, -1,
      320, 332, 321, -1,
      323, 327, 324, -1,
      324, 327, 326, -1,
      324, 326, 325, -1,
      332, 331, 321, -1,
      321, 331, 330, -1,
      321, 330, 329, -1,
      329, 328, 321, -1,
      321, 328, 327, -1,
      321, 327, 322, -1,
      322, 327, 323, -1,
      335, 336, 172, -1,
      172, 336, 173, -1,
      88, 337, 338, -1,
      88, 338, 89, -1,
      89, 338, 339, -1,
      89, 339, 42, -1,
      42, 339, 340, -1,
      42, 340, 43, -1,
      43, 340, 341, -1,
      43, 341, 147, -1,
      147, 341, 342, -1,
      147, 342, 148, -1,
      148, 342, 343, -1,
      148, 343, 149, -1,
      149, 343, 344, -1,
      149, 344, 113, -1,
      113, 344, 345, -1,
      113, 345, 66, -1,
      66, 345, 346, -1,
      66, 346, 67, -1,
      67, 346, 347, -1,
      67, 347, 29, -1,
      29, 347, 348, -1,
      29, 348, 30, -1,
      30, 348, 349, -1,
      30, 349, 31, -1,
      31, 349, 32, -1,
      32, 349, 350, -1,
      32, 350, 172, -1,
      172, 350, 335, -1,
      336, 335, 351, -1,
      351, 335, 350, -1,
      173, 336, 86, -1,
      86, 336, 351, -1,
      86, 351, 88, -1,
      88, 351, 337, -1,
      338, 337, 344, -1,
      337, 351, 350, -1,
      350, 349, 337, -1,
      337, 349, 348, -1,
      337, 348, 347, -1,
      347, 346, 337, -1,
      337, 346, 345, -1,
      337, 345, 344, -1,
      341, 344, 342, -1,
      342, 344, 343, -1,
      341, 340, 344, -1,
      344, 340, 339, -1,
      344, 339, 338, -1,
      5, 38, 3, -1,
      3, 38, 9, -1,
      3, 9, 2, -1,
      5, 4, 38, -1,
      38, 4, 68, -1,
      4, 6, 68, -1,
      68, 6, 14, -1,
      0, 15, 1, -1,
      1, 15, 14, -1,
      1, 14, 6, -1,
    ]
  }
}

Shape {
  appearance Appearance {
    material Material {
      diffuseColor 0.2510 0.2510 0.2510
      specularColor 0.1255 0.1255 0.1255
      ambientIntensity 0.2
      transparency 0.0000
      shininess 0.5
    }
  }
  geometry IndexedFaceSet {
    ccw TRUE
    solid FALSE
    coord DEF co Coordinate {
      point [
        -0.008642 -0.030589 0.000000,
        -0.008642 -0.039231 0.000000,
        0.033609 -0.039231 0.000000,
        0.048972 -0.035150 0.000000,
        0.048972 -0.026508 0.000000,
        0.033609 0.039509 0.000000,
        0.023046 0.030867 0.000000,
        0.023046 0.004940 0.000000,
        -0.006722 0.030867 0.000000,
        -0.004801 0.004940 0.000000,
        0.023046 -0.003702 0.000000,
        0.023046 -0.030589 0.000000,
        -0.004801 -0.003702 0.000000,
        0.154600 -0.039231 0.000000,
        0.075269 -0.039711 0.000000,
        0.114269 -0.039231 0.000000,
        0.080342 -0.039185 0.000000,
        0.087974 -0.036559 0.000000,
        -0.006722 0.039509 0.000000,
        0.103392 0.018770 0.000000,
        0.098777 0.026131 0.000000,
        0.144037 0.039509 0.000000,
        0.075166 0.030956 0.000000,
        0.081059 0.028829 0.000000,
        0.050384 -0.027290 0.000000,
        0.086509 0.025183 0.000000,
        0.091264 0.019934 0.000000,
        0.096985 -0.000702 0.000000,
        0.096187 -0.009226 0.000000,
        0.094048 -0.015998 0.000000,
        0.076527 -0.030726 0.000000,
        0.069183 -0.031549 0.000000,
        0.082264 -0.028613 0.000000,
        0.087097 -0.025356 0.000000,
        0.090792 -0.021458 0.000000,
        0.058731 -0.030389 0.000000,
        0.094510 0.013854 0.000000,
        0.096609 0.005425 0.000000,
        0.094307 -0.032514 0.000000,
        0.100222 -0.026287 0.000000,
        0.114269 -0.030589 0.000000,
        0.104417 -0.018800 0.000000,
        0.144037 -0.030589 0.000000,
        0.106786 -0.010466 0.000000,
        0.107548 -0.001346 0.000000,
        0.106415 0.009848 0.000000,
        0.091668 0.032968 0.000000,
        0.084189 0.037273 0.000000,
        0.075411 0.039824 0.000000,
        0.067502 0.040469 0.000000,
        0.058076 0.039819 0.000000,
        0.048972 0.037348 0.000000,
        0.048972 0.026785 0.000000,
        0.057842 0.030583 0.000000,
        0.067412 0.031827 0.000000,
        0.057366 -0.038596 0.000000,
        0.065322 -0.039711 0.000000,
        0.068485 -0.040155 0.000000,
        0.070638 -0.040192 0.000000,
        0.154600 0.039509 0.000000,
        -0.093144 -0.039231 0.000000,
        -0.083450 -0.017650 0.000000,
        -0.078935 -0.024693 0.000000,
        -0.152679 -0.039231 0.000000,
        -0.164202 -0.039231 0.000000,
        -0.133474 0.039509 0.000000,
        -0.122911 0.039509 0.000000,
        -0.072454 -0.030899 0.000000,
        -0.064232 -0.035676 0.000000,
        -0.055159 -0.038381 0.000000,
        -0.045417 -0.039231 0.000000,
        -0.024006 -0.039231 0.000000,
        -0.024006 0.039509 0.000000,
        -0.046227 0.039509 0.000000,
        -0.075468 0.029242 0.000000,
        -0.081036 0.023068 0.000000,
        -0.084695 0.016296 0.000000,
        -0.057603 0.038293 0.000000,
        -0.066815 0.035058 0.000000,
        -0.075385 0.029314 0.000000,
        -0.104667 -0.039231 0.000000,
        -0.112184 -0.017146 0.000000,
        -0.144712 -0.017146 0.000000,
        -0.086810 0.008538 0.000000,
        -0.087382 0.001129 0.000000,
        -0.086278 -0.009409 0.000000,
        -0.133474 0.039509 0.007874,
        -0.164202 -0.039231 0.007874,
        -0.122911 0.039509 0.007874,
        -0.093144 -0.039231 0.007874,
        -0.104667 -0.039231 0.007874,
        -0.112184 -0.017146 0.007874,
        -0.144712 -0.017146 0.007874,
        -0.152679 -0.039231 0.007874,
        -0.114839 -0.008504 0.000000,
        -0.114839 -0.008504 0.007874,
        -0.141171 -0.008504 0.000000,
        -0.141171 -0.008504 0.007874,
        -0.129318 0.024385 0.000000,
        -0.129318 0.024385 0.007874,
        -0.128617 0.027124 0.007874,
        -0.128617 0.027124 0.000000,
        -0.128103 0.029906 0.007874,
        -0.128103 0.029906 0.000000,
        -0.127848 0.029906 0.000000,
        -0.127848 0.029906 0.007874,
        -0.127345 0.027116 0.007874,
        -0.127345 0.027116 0.000000,
        -0.126587 0.024385 0.007874,
        -0.126587 0.024385 0.000000,
        -0.045417 -0.039231 0.007874,
        -0.024006 -0.039231 0.007874,
        -0.087382 0.001129 0.007874,
        -0.086278 -0.009409 0.007874,
        -0.083450 -0.017650 0.007874,
        -0.078935 -0.024693 0.007874,
        -0.072454 -0.030899 0.007874,
        -0.064232 -0.035676 0.007874,
        -0.055159 -0.038381 0.007874,
        -0.046227 0.039509 0.007874,
        -0.057603 0.038293 0.007874,
        -0.066815 0.035058 0.007874,
        -0.075385 0.029314 0.007874,
        -0.075468 0.029242 0.007874,
        -0.081036 0.023068 0.007874,
        -0.084695 0.016296 0.007874,
        -0.086810 0.008538 0.007874,
        -0.024006 0.039509 0.007874,
        -0.046182 0.030867 0.000000,
        -0.046182 0.030867 0.007874,
        -0.034569 0.030867 0.000000,
        -0.034569 0.030867 0.007874,
        -0.034569 -0.030589 0.000000,
        -0.034569 -0.030589 0.007874,
        -0.045747 -0.030589 0.000000,
        -0.045747 -0.030589 0.007874,
        -0.054054 -0.029816 0.007874,
        -0.054054 -0.029816 0.000000,
        -0.060680 -0.027748 0.007874,
        -0.060680 -0.027748 0.000000,
        -0.066050 -0.024559 0.007874,
        -0.066050 -0.024559 0.000000,
        -0.070466 -0.020197 0.007874,
        -0.070466 -0.020197 0.000000,
        -0.073787 -0.014768 0.007874,
        -0.073787 -0.014768 0.000000,
        -0.076097 -0.007366 0.007874,
        -0.076097 -0.007366 0.000000,
        -0.076820 0.000904 0.007874,
        -0.076820 0.000904 0.000000,
        -0.076151 0.008741 0.007874,
        -0.076151 0.008741 0.000000,
        -0.074313 0.014969 0.007874,
        -0.074313 0.014969 -0.000000,
        -0.071577 0.019825 0.007874,
        -0.071577 0.019825 0.000000,
        -0.067752 0.023886 0.007874,
        -0.067752 0.023886 -0.000000,
        -0.062001 0.027602 0.007874,
        -0.062001 0.027602 -0.000000,
        -0.055502 0.029876 0.007874,
        -0.055502 0.029876 0.000000,
        -0.008642 -0.030589 0.007874,
        -0.008642 -0.039231 0.007874,
        0.023046 -0.030589 0.007874,
        0.023046 -0.003702 0.007874,
        -0.004801 -0.003702 0.007874,
        -0.004801 0.004940 0.007874,
        0.023046 0.004940 0.007874,
        0.023046 0.030867 0.007874,
        -0.006722 0.030867 0.007874,
        -0.006722 0.039509 0.007874,
        0.033609 0.039509 0.007874,
        0.033609 -0.039231 0.007874,
        0.048972 -0.026508 0.007874,
        0.048972 -0.035150 0.007874,
        0.069183 -0.031549 0.007874,
        0.058731 -0.030389 0.007874,
        0.050384 -0.027290 0.007874,
        0.096985 -0.000702 0.007874,
        0.096187 -0.009226 0.007874,
        0.094048 -0.015998 0.007874,
        0.090792 -0.021458 0.007874,
        0.087097 -0.025356 0.007874,
        0.082264 -0.028613 0.007874,
        0.076527 -0.030726 0.007874,
        0.067412 0.031827 0.007874,
        0.075166 0.030956 0.007874,
        0.081059 0.028829 0.007874,
        0.086509 0.025183 0.007874,
        0.091264 0.019934 0.007874,
        0.094510 0.013854 0.007874,
        0.096609 0.005425 0.007874,
        0.048972 0.026785 0.007874,
        0.057842 0.030583 0.007874,
        0.048972 0.037348 0.007874,
        0.067502 0.040469 0.007874,
        0.058076 0.039819 0.007874,
        0.107548 -0.001346 0.007874,
        0.106415 0.009848 0.007874,
        0.103392 0.018770 0.007874,
        0.098777 0.026131 0.007874,
        0.091668 0.032968 0.007874,
        0.084189 0.037273 0.007874,
        0.075411 0.039824 0.007874,
        0.070638 -0.040192 0.007874,
        0.080342 -0.039185 0.007874,
        0.087974 -0.036559 0.007874,
        0.094307 -0.032514 0.007874,
        0.100222 -0.026287 0.007874,
        0.104417 -0.018800 0.007874,
        0.106786 -0.010466 0.007874,
        0.057366 -0.038596 0.007874,
        0.068485 -0.040155 0.007874,
        0.114269 -0.030589 0.007874,
        0.114269 -0.039231 0.007874,
        0.144037 -0.030589 0.007874,
        0.144037 0.039509 0.007874,
        0.154600 0.039509 0.007874,
        0.154600 -0.039231 0.007874,
      ]
    }
    coordIndex [
      65, 86, 64, -1,
      64, 86, 87, -1,
      66, 88, 65, -1,
      65, 88, 86, -1,
      60, 89, 66, -1,
      66, 89, 88, -1,
      80, 90, 60, -1,
      60, 90, 89, -1,
      81, 91, 80, -1,
      80, 91, 90, -1,
      82, 92, 81, -1,
      81, 92, 91, -1,
      63, 93, 82, -1,
      82, 93, 92, -1,
      64, 87, 63, -1,
      63, 87, 93, -1,
      94, 95, 96, -1,
      96, 95, 97, -1,
      96, 97, 98, -1,
      98, 97, 99, -1,
      98, 99, 100, -1,
      98, 100, 101, -1,
      101, 100, 102, -1,
      101, 102, 103, -1,
      103, 102, 104, -1,
      104, 102, 105, -1,
      104, 105, 106, -1,
      104, 106, 107, -1,
      107, 106, 108, -1,
      107, 108, 109, -1,
      109, 108, 94, -1,
      94, 108, 95, -1,
      95, 91, 97, -1,
      97, 91, 92, -1,
      108, 88, 95, -1,
      95, 88, 89, -1,
      95, 89, 91, -1,
      91, 89, 90, -1,
      108, 106, 88, -1,
      88, 106, 105, -1,
      88, 105, 86, -1,
      86, 105, 102, -1,
      86, 102, 100, -1,
      100, 99, 86, -1,
      86, 99, 97, -1,
      86, 97, 87, -1,
      87, 97, 92, -1,
      87, 92, 93, -1,
      70, 110, 71, -1,
      71, 110, 111, -1,
      84, 112, 113, -1,
      84, 113, 85, -1,
      85, 113, 114, -1,
      85, 114, 61, -1,
      61, 114, 115, -1,
      61, 115, 62, -1,
      62, 115, 116, -1,
      62, 116, 67, -1,
      67, 116, 117, -1,
      67, 117, 68, -1,
      68, 117, 118, -1,
      68, 118, 69, -1,
      69, 118, 110, -1,
      69, 110, 70, -1,
      73, 119, 120, -1,
      73, 120, 77, -1,
      77, 120, 121, -1,
      77, 121, 78, -1,
      78, 121, 122, -1,
      78, 122, 79, -1,
      79, 122, 123, -1,
      79, 123, 74, -1,
      74, 123, 124, -1,
      74, 124, 75, -1,
      75, 124, 125, -1,
      75, 125, 76, -1,
      76, 125, 126, -1,
      76, 126, 83, -1,
      83, 126, 112, -1,
      83, 112, 84, -1,
      72, 127, 73, -1,
      73, 127, 119, -1,
      71, 111, 72, -1,
      72, 111, 127, -1,
      128, 129, 130, -1,
      130, 129, 131, -1,
      130, 131, 132, -1,
      132, 131, 133, -1,
      132, 133, 134, -1,
      134, 133, 135, -1,
      134, 135, 136, -1,
      134, 136, 137, -1,
      137, 136, 138, -1,
      137, 138, 139, -1,
      139, 138, 140, -1,
      139, 140, 141, -1,
      141, 140, 142, -1,
      141, 142, 143, -1,
      143, 142, 144, -1,
      143, 144, 145, -1,
      145, 144, 146, -1,
      145, 146, 147, -1,
      147, 146, 148, -1,
      147, 148, 149, -1,
      149, 148, 150, -1,
      149, 150, 151, -1,
      151, 150, 152, -1,
      151, 152, 153, -1,
      153, 152, 154, -1,
      153, 154, 155, -1,
      155, 154, 156, -1,
      155, 156, 157, -1,
      157, 156, 158, -1,
      157, 158, 159, -1,
      159, 158, 160, -1,
      159, 160, 161, -1,
      161, 160, 129, -1,
      161, 129, 128, -1,
      125, 124, 154, -1,
      154, 124, 123, -1,
      154, 123, 156, -1,
      156, 123, 122, -1,
      156, 122, 158, -1,
      158, 122, 121, -1,
      158, 121, 160, -1,
      160, 121, 120, -1,
      160, 120, 129, -1,
      129, 120, 119, -1,
      129, 119, 131, -1,
      131, 119, 127, -1,
      131, 127, 133, -1,
      133, 127, 111, -1,
      133, 111, 135, -1,
      135, 111, 110, -1,
      135, 110, 136, -1,
      136, 110, 118, -1,
      136, 118, 138, -1,
      138, 118, 117, -1,
      138, 117, 140, -1,
      140, 117, 116, -1,
      140, 116, 142, -1,
      142, 116, 115, -1,
      142, 115, 144, -1,
      144, 115, 114, -1,
      144, 114, 146, -1,
      146, 114, 113, -1,
      146, 113, 148, -1,
      148, 113, 112, -1,
      148, 112, 150, -1,
      150, 112, 126, -1,
      150, 126, 152, -1,
      152, 126, 125, -1,
      152, 125, 154, -1,
      0, 162, 1, -1,
      1, 162, 163, -1,
      11, 164, 0, -1,
      0, 164, 162, -1,
      10, 165, 11, -1,
      11, 165, 164, -1,
      12, 166, 10, -1,
      10, 166, 165, -1,
      9, 167, 12, -1,
      12, 167, 166, -1,
      7, 168, 9, -1,
      9, 168, 167, -1,
      6, 169, 7, -1,
      7, 169, 168, -1,
      8, 170, 6, -1,
      6, 170, 169, -1,
      18, 171, 8, -1,
      8, 171, 170, -1,
      5, 172, 18, -1,
      18, 172, 171, -1,
      2, 173, 5, -1,
      5, 173, 172, -1,
      1, 163, 2, -1,
      2, 163, 173, -1,
      173, 163, 162, -1,
      162, 164, 173, -1,
      173, 164, 165, -1,
      173, 165, 172, -1,
      170, 171, 169, -1,
      169, 171, 172, -1,
      169, 172, 168, -1,
      168, 172, 165, -1,
      168, 165, 167, -1,
      167, 165, 166, -1,
      4, 174, 3, -1,
      3, 174, 175, -1,
      31, 176, 177, -1,
      31, 177, 35, -1,
      35, 177, 178, -1,
      35, 178, 24, -1,
      24, 178, 174, -1,
      24, 174, 4, -1,
      27, 179, 180, -1,
      27, 180, 28, -1,
      28, 180, 181, -1,
      28, 181, 29, -1,
      29, 181, 182, -1,
      29, 182, 34, -1,
      34, 182, 183, -1,
      34, 183, 33, -1,
      33, 183, 184, -1,
      33, 184, 32, -1,
      32, 184, 185, -1,
      32, 185, 30, -1,
      30, 185, 176, -1,
      30, 176, 31, -1,
      54, 186, 187, -1,
      54, 187, 22, -1,
      22, 187, 188, -1,
      22, 188, 23, -1,
      23, 188, 189, -1,
      23, 189, 25, -1,
      25, 189, 190, -1,
      25, 190, 26, -1,
      26, 190, 191, -1,
      26, 191, 36, -1,
      36, 191, 192, -1,
      36, 192, 37, -1,
      37, 192, 179, -1,
      37, 179, 27, -1,
      52, 193, 194, -1,
      52, 194, 53, -1,
      53, 194, 186, -1,
      53, 186, 54, -1,
      51, 195, 52, -1,
      52, 195, 193, -1,
      49, 196, 197, -1,
      49, 197, 50, -1,
      50, 197, 195, -1,
      50, 195, 51, -1,
      44, 198, 199, -1,
      44, 199, 45, -1,
      45, 199, 200, -1,
      45, 200, 19, -1,
      19, 200, 201, -1,
      19, 201, 20, -1,
      20, 201, 202, -1,
      20, 202, 46, -1,
      46, 202, 203, -1,
      46, 203, 47, -1,
      47, 203, 204, -1,
      47, 204, 48, -1,
      48, 204, 196, -1,
      48, 196, 49, -1,
      14, 58, 205, -1,
      14, 205, 16, -1,
      205, 206, 16, -1,
      16, 206, 207, -1,
      16, 207, 17, -1,
      17, 207, 208, -1,
      17, 208, 38, -1,
      38, 208, 209, -1,
      38, 209, 39, -1,
      39, 209, 210, -1,
      39, 210, 41, -1,
      41, 210, 211, -1,
      41, 211, 43, -1,
      43, 211, 198, -1,
      43, 198, 44, -1,
      55, 3, 212, -1,
      212, 3, 175, -1,
      55, 212, 56, -1,
      56, 212, 213, -1,
      56, 213, 57, -1,
      57, 213, 205, -1,
      57, 205, 58, -1,
      185, 205, 176, -1,
      176, 205, 213, -1,
      176, 213, 177, -1,
      177, 213, 212, -1,
      177, 212, 178, -1,
      178, 212, 175, -1,
      178, 175, 174, -1,
      193, 195, 194, -1,
      194, 195, 197, -1,
      194, 197, 186, -1,
      186, 197, 196, -1,
      186, 196, 187, -1,
      187, 196, 204, -1,
      187, 204, 188, -1,
      188, 204, 203, -1,
      188, 203, 189, -1,
      189, 203, 202, -1,
      189, 202, 190, -1,
      190, 202, 201, -1,
      190, 201, 191, -1,
      191, 201, 200, -1,
      191, 200, 192, -1,
      192, 200, 199, -1,
      192, 199, 179, -1,
      179, 199, 198, -1,
      179, 198, 180, -1,
      180, 198, 211, -1,
      180, 211, 181, -1,
      181, 211, 210, -1,
      181, 210, 182, -1,
      182, 210, 209, -1,
      182, 209, 183, -1,
      183, 209, 208, -1,
      183, 208, 184, -1,
      184, 208, 207, -1,
      184, 207, 185, -1,
      185, 207, 206, -1,
      185, 206, 205, -1,
      40, 214, 15, -1,
      15, 214, 215, -1,
      42, 216, 40, -1,
      40, 216, 214, -1,
      21, 217, 42, -1,
      42, 217, 216, -1,
      59, 218, 21, -1,
      21, 218, 217, -1,
      13, 219, 59, -1,
      59, 219, 218, -1,
      15, 215, 13, -1,
      13, 215, 219, -1,
      217, 218, 216, -1,
      216, 218, 219, -1,
      216, 219, 214, -1,
      214, 219, 215, -1,
    ]
  }
}

Shape {
  appearance Appearance {
    material Material {
      diffuseColor 1.0000 1.0000 1.0000
      specularColor 0.8784 0.8784 0.8784
      ambientIntensity 0.2
      transparency 0.0000
      shininess 0.5
    }
  }
  geometry IndexedFaceSet {
    ccw TRUE
    solid FALSE
    coord DEF co Coordinate {
      point [
        -0.472441 -0.236220 0.000000,
        -0.393701 -0.314961 0.000000,
        -0.393701 -0.314961 0.003937,
        -0.472441 -0.236220 0.003937,
        -0.114839 -0.008504 0.000000,
        -0.141171 -0.008504 0.000000,
        -0.129318 0.024385 0.000000,
        -0.128617 0.027124 0.000000,
        -0.128103 0.029906 0.000000,
        -0.127848 0.029906 0.000000,
        -0.127345 0.027116 0.000000,
        -0.126587 0.024385 0.000000,
        -0.046182 0.030867 0.000000,
        -0.034569 0.030867 0.000000,
        -0.034569 -0.030589 0.000000,
        -0.045747 -0.030589 0.000000,
        -0.054054 -0.029816 0.000000,
        -0.060680 -0.027748 0.000000,
        -0.066050 -0.024559 0.000000,
        -0.070466 -0.020197 0.000000,
        -0.073787 -0.014768 0.000000,
        -0.076097 -0.007366 0.000000,
        -0.076820 0.000904 0.000000,
        -0.076151 0.008741 0.000000,
        -0.074313 0.014969 -0.000000,
        -0.071577 0.019825 0.000000,
        -0.067752 0.023886 -0.000000,
        -0.062001 0.027602 -0.000000,
        -0.055502 0.029876 0.000000,
      ]
    }
    coordIndex [
      4, 5, 11, -1,
      11, 5, 6, -1,
      11, 6, 10, -1,
      10, 6, 7, -1,
      10, 7, 9, -1,
      9, 7, 8, -1,
      13, 14, 12, -1,
      12, 14, 15, -1,
      12, 15, 16, -1,
      22, 23, 12, -1,
      12, 23, 24, -1,
      12, 24, 28, -1,
      16, 17, 12, -1,
      12, 17, 18, -1,
      12, 18, 19, -1,
      19, 20, 12, -1,
      12, 20, 21, -1,
      12, 21, 22, -1,
      25, 26, 24, -1,
      24, 26, 27, -1,
      24, 27, 28, -1,
      0, 1, 3, -1,
      3, 1, 2, -1,
    ]
  }
}
