#VRML V2.0 utf8

Shape {
  appearance Appearance {
    material Material {
      diffuseColor 0.5020 0.5020 0.5020
      specularColor 0.2510 0.2510 0.2510
      ambientIntensity 0.2
      transparency 0.0000
      shininess 0.5
    }
  }
  geometry IndexedFaceSet {
    ccw TRUE
    solid FALSE
    coord DEF co Coordinate {
      point [
        -0.014199 0.393701 0.000000,
        -0.010358 -0.015678 0.000000,
        -0.014199 -0.020239 0.000000,
        -0.010358 -0.019999 0.000000,
        0.010767 -0.019999 0.000000,
        -0.009398 0.015050 0.000000,
        0.005486 0.015050 0.000000,
        0.005486 0.002086 0.000000,
        0.018449 -0.017959 0.000000,
        0.018449 -0.013638 0.000000,
        0.010767 0.019371 0.000000,
        0.005486 -0.002235 0.000000,
        0.005486 -0.015678 0.000000,
        -0.008438 -0.002235 0.000000,
        -0.008438 0.002086 0.000000,
        -0.009398 0.019371 0.000000,
        0.071263 0.019371 0.000000,
        0.249962 0.199454 0.000000,
        0.071263 -0.019999 0.000000,
        0.254652 0.191989 0.000000,
        0.260886 0.185755 0.000000,
        0.031546 0.015094 0.000000,
        0.034493 0.014031 0.000000,
        0.019155 -0.014028 0.000000,
        0.037217 0.012208 0.000000,
        0.039595 0.009583 0.000000,
        0.042455 -0.000734 0.000000,
        0.042057 -0.004996 0.000000,
        0.040987 -0.008383 0.000000,
        0.032226 -0.015746 0.000000,
        0.028554 -0.016158 0.000000,
        0.035095 -0.014690 0.000000,
        0.037511 -0.013062 0.000000,
        0.039359 -0.011113 0.000000,
        0.023328 -0.015578 0.000000,
        0.139048 0.191989 0.000000,
        0.143739 0.199454 0.000000,
        0.146651 0.207775 0.000000,
        0.041218 0.006544 0.000000,
        0.042267 0.002329 0.000000,
        0.057802 0.191989 0.000000,
        0.064036 0.185755 0.000000,
        0.065981 0.019371 0.000000,
        0.039797 0.016100 0.000000,
        0.043351 0.012682 0.000000,
        0.045659 0.009001 0.000000,
        0.268351 0.181064 0.000000,
        0.276672 0.178152 0.000000,
        0.285433 0.177165 0.000000,
        0.049213 0.393701 -0.000000,
        0.049213 0.216535 0.000000,
        0.050200 0.207775 0.000000,
        0.053111 0.199454 0.000000,
        0.108268 0.177165 0.000000,
        0.117028 0.178152 0.000000,
        0.125350 0.181064 0.000000,
        0.132815 0.185755 0.000000,
        0.037950 -0.018663 0.000000,
        0.041117 -0.016641 0.000000,
        0.051097 -0.019999 0.000000,
        0.044074 -0.013527 0.000000,
        0.051097 -0.015678 0.000000,
        0.046171 -0.009784 0.000000,
        0.065981 -0.015678 0.000000,
        0.071501 0.181064 0.000000,
        0.079822 0.178152 0.000000,
        0.088583 0.177165 0.000000,
        0.147639 0.393701 0.000000,
        0.246063 0.393701 0.000000,
        0.147638 0.216535 0.000000,
        0.246063 0.216535 0.000000,
        0.247050 0.207775 0.000000,
        0.047356 -0.005617 0.000000,
        0.047737 -0.001057 0.000000,
        0.047170 0.004540 0.000000,
        0.036057 0.018253 0.000000,
        0.031668 0.019528 0.000000,
        0.027714 0.019851 0.000000,
        0.305118 0.177165 0.000000,
        0.313879 0.178152 0.000000,
        0.322200 0.181064 0.000000,
        0.023001 0.019526 0.000000,
        0.018449 0.018291 0.000000,
        0.018449 0.013009 0.000000,
        0.022884 0.014908 0.000000,
        0.027669 0.015530 0.000000,
        0.393701 -0.020239 0.000000,
        0.031597 -0.020239 0.000000,
        0.034133 -0.019976 0.000000,
        0.329665 0.185755 0.000000,
        0.335899 0.191989 0.000000,
        0.340589 0.199454 0.000000,
        0.344488 0.393701 0.000000,
        0.393701 0.389764 0.000000,
        0.344488 0.216535 0.000000,
        0.343501 0.207775 0.000000,
        0.389764 0.393701 0.000000,
        0.390783 0.393567 0.000000,
        0.393567 0.390783 0.000000,
        0.391732 0.393173 0.000000,
        0.393173 0.391732 0.000000,
        0.392548 0.392548 0.000000,
        -0.088138 -0.019999 0.000000,
        -0.082377 -0.019999 0.000000,
        -0.052609 -0.019999 0.000000,
        -0.047763 -0.009209 0.000000,
        -0.045505 -0.012730 0.000000,
        -0.042264 -0.015833 0.000000,
        -0.038154 -0.018222 0.000000,
        -0.033617 -0.019574 0.000000,
        -0.028746 -0.019999 0.000000,
        -0.018040 -0.019999 0.000000,
        -0.018040 0.019371 0.000000,
        -0.029151 0.019371 0.000000,
        -0.043771 0.014237 0.000000,
        -0.046555 0.011150 0.000000,
        -0.067493 0.019371 0.000000,
        -0.048385 0.007765 0.000000,
        -0.034839 0.018763 0.000000,
        -0.039445 0.017145 0.000000,
        -0.043730 0.014274 0.000000,
        -0.313879 0.178152 0.000000,
        -0.072774 0.019371 0.000000,
        -0.322200 0.181064 0.000000,
        -0.329665 0.185755 0.000000,
        -0.393701 0.389764 0.000000,
        -0.344488 0.216535 0.000000,
        -0.393701 -0.020239 0.000000,
        -0.343501 0.207775 0.000000,
        -0.340589 0.199454 0.000000,
        -0.058370 -0.019999 0.000000,
        -0.062129 -0.008956 0.000000,
        -0.078393 -0.008956 0.000000,
        -0.049442 0.003885 0.000000,
        -0.049728 0.000181 0.000000,
        -0.049176 -0.005088 0.000000,
        -0.305118 0.177165 0.000000,
        -0.285433 0.177165 0.000000,
        -0.276672 0.178152 0.000000,
        -0.260886 0.185755 0.000000,
        -0.143739 0.199454 0.000000,
        -0.268351 0.181064 0.000000,
        -0.071501 0.181064 0.000000,
        -0.064036 0.185755 0.000000,
        -0.057802 0.191989 0.000000,
        -0.335899 0.191989 0.000000,
        -0.254652 0.191989 0.000000,
        -0.249962 0.199454 0.000000,
        -0.247050 0.207775 0.000000,
        -0.053111 0.199454 0.000000,
        -0.050200 0.207775 0.000000,
        -0.049213 0.216535 0.000000,
        -0.049211 0.393701 0.000000,
        -0.246061 0.393701 0.000000,
        -0.147637 0.393701 -0.000000,
        -0.246063 0.216535 0.000000,
        -0.147638 0.216535 0.000000,
        -0.146651 0.207775 0.000000,
        -0.139048 0.191989 0.000000,
        -0.132815 0.185755 0.000000,
        -0.125350 0.181064 0.000000,
        -0.117028 0.178152 0.000000,
        -0.392548 0.392548 0.000000,
        -0.391732 0.393173 0.000000,
        -0.393173 0.391732 0.000000,
        -0.390783 0.393567 0.000000,
        -0.393567 0.390783 0.000000,
        -0.389764 0.393701 0.000000,
        -0.344486 0.393701 -0.000000,
        -0.108268 0.177165 0.000000,
        -0.088583 0.177165 0.000000,
        -0.079822 0.178152 0.000000,
        -0.265748 -0.143070 0.000000,
        -0.275243 -0.139137 0.000000,
        -0.285433 -0.137795 0.000000,
        -0.305118 -0.137795 0.000000,
        -0.313879 -0.138782 0.000000,
        -0.322200 -0.141694 0.000000,
        -0.247404 -0.166976 0.000000,
        -0.251337 -0.157480 0.000000,
        -0.257594 -0.149326 0.000000,
        -0.329665 -0.146385 0.000000,
        -0.335899 -0.152619 0.000000,
        -0.340589 -0.160083 0.000000,
        -0.060744 -0.188696 0.000000,
        -0.054487 -0.196850 0.000000,
        -0.050554 -0.206346 0.000000,
        -0.068898 -0.182440 0.000000,
        -0.078393 -0.178507 0.000000,
        -0.088583 -0.177165 0.000000,
        -0.049213 -0.216535 0.000000,
        -0.014199 -0.393701 0.000000,
        -0.049211 -0.393701 0.000000,
        -0.147637 -0.393701 -0.000000,
        -0.246061 -0.393701 0.000000,
        -0.147638 -0.216535 0.000000,
        -0.246063 -0.177165 0.000000,
        -0.108268 -0.177165 0.000000,
        -0.118457 -0.178507 0.000000,
        -0.127953 -0.182440 0.000000,
        -0.136107 -0.188696 0.000000,
        -0.142363 -0.196850 0.000000,
        -0.146296 -0.206346 0.000000,
        -0.344486 -0.393701 -0.000000,
        -0.393701 -0.389764 0.000000,
        -0.344488 -0.177165 0.000000,
        -0.343501 -0.168405 0.000000,
        -0.389764 -0.393701 0.000000,
        -0.390783 -0.393567 0.000000,
        -0.393567 -0.390783 0.000000,
        -0.391732 -0.393173 0.000000,
        -0.393173 -0.391732 0.000000,
        -0.392548 -0.392548 0.000000,
        0.060744 -0.188696 0.000000,
        0.054487 -0.196850 0.000000,
        0.118457 -0.178507 0.000000,
        0.108268 -0.177165 0.000000,
        0.340589 -0.199454 0.000000,
        0.335899 -0.191989 0.000000,
        0.251337 -0.196850 0.000000,
        0.257594 -0.188696 0.000000,
        0.265748 -0.182440 0.000000,
        0.393701 -0.389764 0.000000,
        0.344488 -0.216535 0.000000,
        0.343501 -0.207775 0.000000,
        0.329665 -0.185755 0.000000,
        0.322200 -0.181064 0.000000,
        0.313879 -0.178152 0.000000,
        0.049213 -0.393701 -0.000000,
        0.049213 -0.216535 0.000000,
        0.050554 -0.206346 0.000000,
        0.305118 -0.177165 0.000000,
        0.285433 -0.177165 0.000000,
        0.275243 -0.178507 0.000000,
        0.246063 -0.216535 0.000000,
        0.246063 -0.393701 -0.000000,
        0.147639 -0.393701 0.000000,
        0.146296 -0.206346 0.000000,
        0.142363 -0.196850 0.000000,
        0.136107 -0.188696 0.000000,
        0.127953 -0.182440 0.000000,
        0.022646 -0.019682 0.000000,
        0.026624 -0.020239 0.000000,
        0.068898 -0.182440 0.000000,
        0.247404 -0.206346 0.000000,
        0.147638 -0.216535 0.000000,
        0.088583 -0.177165 0.000000,
        0.078393 -0.178507 0.000000,
        0.029282 -0.020480 0.000000,
        0.028206 -0.020461 0.000000,
        0.392548 -0.392548 0.000000,
        0.391732 -0.393173 0.000000,
        0.393173 -0.391732 0.000000,
        0.390783 -0.393567 0.000000,
        0.393567 -0.390783 0.000000,
        0.389764 -0.393701 0.000000,
        0.344488 -0.393701 0.000000,
        0.389764 0.393701 0.212598,
        0.344488 0.393701 0.055906,
        0.246063 0.393701 0.055906,
        0.147639 0.393701 0.055906,
        -0.049211 0.393701 0.055906,
        -0.147637 0.393701 0.055906,
        -0.389764 0.393701 0.212598,
        0.049213 0.393701 0.055906,
        -0.344486 0.393701 0.055906,
        -0.246061 0.393701 0.055906,
        0.393701 0.389764 0.212598,
        0.393701 -0.389764 0.212598,
        -0.393701 0.389764 0.212598,
        -0.393701 -0.389764 0.212598,
        -0.344486 -0.393701 0.055906,
        -0.389764 -0.393701 0.212598,
        -0.246061 -0.393701 0.055906,
        0.389764 -0.393701 0.212598,
        -0.049211 -0.393701 0.055906,
        0.049213 -0.393701 0.055906,
        0.147639 -0.393701 0.055906,
        -0.147637 -0.393701 0.055906,
        0.344488 -0.393701 0.055906,
        0.246063 -0.393701 0.055906,
        0.389764 -0.389764 0.216535,
        -0.232356 -0.292922 0.216535,
        -0.233669 -0.304576 0.216535,
        -0.237542 -0.315645 0.216535,
        -0.243781 -0.325576 0.216535,
        -0.252074 -0.333869 0.216535,
        -0.284728 -0.345294 0.216535,
        -0.389764 -0.389764 0.216535,
        -0.273074 -0.343981 0.216535,
        -0.262005 -0.340108 0.216535,
        -0.296382 -0.343981 0.216535,
        -0.307452 -0.340108 0.216535,
        -0.317382 -0.333869 0.216535,
        -0.325675 -0.325576 0.216535,
        -0.331914 -0.315645 0.216535,
        -0.335788 -0.304576 0.216535,
        -0.337101 -0.292922 0.216535,
        -0.335788 -0.281268 0.216535,
        -0.389764 0.389764 0.216535,
        -0.331914 -0.270198 0.216535,
        -0.325675 -0.260268 0.216535,
        -0.317382 -0.251975 0.216535,
        -0.307452 -0.245736 0.216535,
        -0.296382 -0.241862 0.216535,
        -0.284728 -0.240549 0.216535,
        -0.273074 -0.241862 0.216535,
        0.389764 0.389764 0.216535,
        -0.262005 -0.245736 0.216535,
        -0.252074 -0.251975 0.216535,
        -0.243781 -0.260268 0.216535,
        -0.237542 -0.270198 0.216535,
        -0.233669 -0.281268 0.216535,
      ]
    }
    coordIndex [
      0, 1, 2, -1,
      2, 1, 3, -1,
      2, 3, 4, -1,
      5, 6, 7, -1,
      8, 4, 9, -1,
      9, 4, 10, -1,
      11, 12, 13, -1,
      13, 12, 1, -1,
      13, 1, 14, -1,
      7, 14, 5, -1,
      5, 14, 1, -1,
      5, 1, 15, -1,
      15, 1, 0, -1,
      15, 0, 10, -1,
      16, 17, 18, -1,
      18, 17, 19, -1,
      18, 19, 20, -1,
      21, 22, 23, -1,
      23, 22, 24, -1,
      23, 24, 25, -1,
      26, 27, 23, -1,
      23, 27, 28, -1,
      29, 30, 31, -1,
      31, 30, 32, -1,
      28, 33, 23, -1,
      23, 33, 32, -1,
      23, 32, 34, -1,
      34, 32, 30, -1,
      35, 36, 17, -1,
      17, 36, 37, -1,
      25, 38, 23, -1,
      23, 38, 39, -1,
      23, 39, 26, -1,
      40, 41, 42, -1,
      43, 0, 44, -1,
      44, 0, 42, -1,
      44, 42, 45, -1,
      20, 46, 18, -1,
      18, 46, 47, -1,
      18, 47, 48, -1,
      49, 50, 0, -1,
      0, 50, 51, -1,
      0, 51, 42, -1,
      42, 51, 52, -1,
      42, 52, 40, -1,
      53, 54, 16, -1,
      16, 54, 55, -1,
      16, 55, 17, -1,
      17, 55, 56, -1,
      17, 56, 35, -1,
      57, 58, 59, -1,
      59, 58, 60, -1,
      59, 60, 61, -1,
      61, 60, 62, -1,
      61, 62, 63, -1,
      41, 64, 42, -1,
      42, 64, 65, -1,
      42, 65, 16, -1,
      16, 65, 66, -1,
      16, 66, 53, -1,
      67, 68, 69, -1,
      69, 68, 70, -1,
      69, 70, 37, -1,
      37, 70, 71, -1,
      37, 71, 17, -1,
      62, 72, 63, -1,
      63, 72, 73, -1,
      63, 73, 42, -1,
      42, 73, 74, -1,
      42, 74, 45, -1,
      43, 75, 0, -1,
      0, 75, 76, -1,
      0, 76, 77, -1,
      48, 78, 18, -1,
      18, 78, 79, -1,
      18, 79, 80, -1,
      77, 81, 0, -1,
      0, 81, 82, -1,
      0, 82, 10, -1,
      10, 82, 83, -1,
      10, 83, 9, -1,
      9, 83, 84, -1,
      9, 84, 23, -1,
      23, 84, 85, -1,
      23, 85, 21, -1,
      80, 86, 18, -1,
      18, 86, 87, -1,
      18, 87, 59, -1,
      59, 87, 88, -1,
      59, 88, 57, -1,
      80, 89, 86, -1,
      86, 89, 90, -1,
      86, 90, 91, -1,
      92, 93, 94, -1,
      94, 93, 86, -1,
      94, 86, 95, -1,
      95, 86, 91, -1,
      92, 96, 93, -1,
      93, 96, 97, -1,
      93, 97, 98, -1,
      98, 97, 99, -1,
      98, 99, 100, -1,
      100, 99, 101, -1,
      102, 103, 2, -1,
      104, 105, 106, -1,
      106, 107, 104, -1,
      104, 107, 108, -1,
      104, 108, 109, -1,
      110, 111, 2, -1,
      2, 111, 112, -1,
      2, 112, 0, -1,
      0, 112, 113, -1,
      114, 115, 116, -1,
      116, 115, 117, -1,
      113, 118, 0, -1,
      0, 118, 119, -1,
      0, 119, 116, -1,
      116, 119, 120, -1,
      116, 120, 114, -1,
      121, 122, 123, -1,
      123, 122, 124, -1,
      125, 126, 127, -1,
      127, 126, 128, -1,
      127, 128, 129, -1,
      109, 110, 104, -1,
      104, 110, 2, -1,
      104, 2, 130, -1,
      130, 2, 103, -1,
      130, 103, 131, -1,
      131, 103, 132, -1,
      117, 133, 116, -1,
      116, 133, 134, -1,
      116, 134, 104, -1,
      104, 134, 135, -1,
      104, 135, 105, -1,
      121, 136, 122, -1,
      122, 136, 137, -1,
      122, 137, 138, -1,
      139, 140, 141, -1,
      141, 140, 138, -1,
      142, 143, 116, -1,
      116, 143, 144, -1,
      122, 102, 124, -1,
      124, 102, 127, -1,
      124, 127, 145, -1,
      145, 127, 129, -1,
      139, 146, 140, -1,
      140, 146, 147, -1,
      140, 147, 148, -1,
      144, 149, 116, -1,
      116, 149, 150, -1,
      116, 150, 0, -1,
      0, 150, 151, -1,
      0, 151, 152, -1,
      153, 154, 155, -1,
      155, 154, 156, -1,
      155, 156, 148, -1,
      148, 156, 157, -1,
      148, 157, 140, -1,
      140, 158, 138, -1,
      138, 158, 159, -1,
      138, 159, 122, -1,
      122, 159, 160, -1,
      122, 160, 161, -1,
      162, 163, 164, -1,
      164, 163, 165, -1,
      164, 165, 166, -1,
      166, 165, 167, -1,
      166, 167, 125, -1,
      125, 167, 168, -1,
      125, 168, 126, -1,
      161, 169, 122, -1,
      122, 169, 170, -1,
      122, 170, 116, -1,
      116, 170, 171, -1,
      116, 171, 142, -1,
      172, 173, 2, -1,
      102, 2, 127, -1,
      127, 2, 173, -1,
      127, 173, 174, -1,
      174, 175, 127, -1,
      127, 175, 176, -1,
      127, 176, 177, -1,
      178, 179, 2, -1,
      2, 179, 180, -1,
      2, 180, 172, -1,
      177, 181, 127, -1,
      127, 181, 182, -1,
      127, 182, 183, -1,
      184, 2, 185, -1,
      185, 2, 186, -1,
      184, 187, 2, -1,
      2, 187, 188, -1,
      2, 188, 189, -1,
      186, 2, 190, -1,
      190, 2, 191, -1,
      190, 191, 192, -1,
      193, 194, 195, -1,
      195, 194, 196, -1,
      189, 197, 2, -1,
      2, 197, 198, -1,
      2, 198, 178, -1,
      178, 198, 199, -1,
      199, 200, 178, -1,
      178, 200, 201, -1,
      178, 201, 196, -1,
      196, 201, 202, -1,
      196, 202, 195, -1,
      203, 204, 205, -1,
      205, 204, 127, -1,
      205, 127, 206, -1,
      206, 127, 183, -1,
      203, 207, 204, -1,
      204, 207, 208, -1,
      204, 208, 209, -1,
      209, 208, 210, -1,
      209, 210, 211, -1,
      211, 210, 212, -1,
      213, 214, 2, -1,
      87, 215, 216, -1,
      86, 217, 218, -1,
      219, 87, 220, -1,
      220, 87, 221, -1,
      222, 223, 86, -1,
      86, 223, 224, -1,
      86, 224, 217, -1,
      218, 225, 86, -1,
      86, 225, 226, -1,
      86, 226, 227, -1,
      228, 191, 229, -1,
      229, 191, 2, -1,
      229, 2, 230, -1,
      230, 2, 214, -1,
      227, 231, 86, -1,
      86, 231, 232, -1,
      86, 232, 87, -1,
      87, 232, 233, -1,
      87, 233, 221, -1,
      234, 235, 236, -1,
      237, 238, 219, -1,
      219, 238, 239, -1,
      219, 239, 87, -1,
      87, 239, 240, -1,
      87, 240, 215, -1,
      8, 241, 4, -1,
      4, 241, 242, -1,
      4, 242, 2, -1,
      2, 242, 243, -1,
      2, 243, 213, -1,
      219, 244, 237, -1,
      237, 244, 234, -1,
      237, 234, 245, -1,
      245, 234, 236, -1,
      216, 246, 87, -1,
      87, 246, 247, -1,
      87, 247, 248, -1,
      248, 247, 243, -1,
      248, 243, 249, -1,
      249, 243, 242, -1,
      250, 251, 252, -1,
      252, 251, 253, -1,
      252, 253, 254, -1,
      254, 253, 255, -1,
      254, 255, 222, -1,
      222, 255, 256, -1,
      222, 256, 223, -1,
      257, 96, 258, -1,
      258, 96, 92, -1,
      68, 67, 259, -1,
      259, 67, 260, -1,
      0, 152, 261, -1,
      261, 262, 263, -1,
      258, 259, 257, -1,
      257, 259, 260, -1,
      257, 260, 263, -1,
      263, 260, 264, -1,
      263, 264, 261, -1,
      261, 264, 49, -1,
      261, 49, 0, -1,
      168, 167, 265, -1,
      265, 167, 263, -1,
      265, 263, 266, -1,
      266, 263, 262, -1,
      266, 262, 153, -1,
      153, 262, 154, -1,
      93, 267, 86, -1,
      86, 267, 268, -1,
      86, 268, 222, -1,
      269, 125, 270, -1,
      270, 125, 127, -1,
      270, 127, 204, -1,
      207, 203, 271, -1,
      207, 271, 272, -1,
      272, 271, 273, -1,
      272, 273, 274, -1,
      275, 192, 191, -1,
      276, 277, 274, -1,
      194, 193, 273, -1,
      273, 193, 278, -1,
      273, 278, 274, -1,
      274, 278, 275, -1,
      274, 275, 276, -1,
      276, 275, 191, -1,
      276, 191, 228, -1,
      256, 255, 279, -1,
      279, 255, 274, -1,
      279, 274, 280, -1,
      280, 274, 277, -1,
      280, 277, 235, -1,
      235, 277, 236, -1,
      281, 282, 283, -1,
      283, 284, 281, -1,
      281, 284, 285, -1,
      281, 285, 286, -1,
      287, 288, 289, -1,
      289, 288, 281, -1,
      289, 281, 290, -1,
      290, 281, 286, -1,
      287, 291, 288, -1,
      288, 291, 292, -1,
      288, 292, 293, -1,
      293, 294, 288, -1,
      288, 294, 295, -1,
      288, 295, 296, -1,
      296, 297, 288, -1,
      288, 297, 298, -1,
      288, 298, 299, -1,
      299, 298, 300, -1,
      299, 300, 301, -1,
      301, 302, 299, -1,
      299, 302, 303, -1,
      299, 303, 304, -1,
      304, 305, 299, -1,
      299, 305, 306, -1,
      299, 306, 307, -1,
      307, 306, 308, -1,
      307, 308, 309, -1,
      309, 310, 307, -1,
      307, 310, 311, -1,
      307, 311, 281, -1,
      281, 311, 312, -1,
      281, 312, 282, -1,
    ]
  }
}

Shape {
  appearance Appearance {
    material Material {
      diffuseColor 0.7529 0.7529 0.7529
      specularColor 0.3765 0.3765 0.3765
      ambientIntensity 0.2
      transparency 0.0000
      shininess 0.5
    }
  }
  geometry IndexedFaceSet {
    ccw TRUE
    solid FALSE
    coord DEF co Coordinate {
      point [
        -0.236293 -0.292922 0.212598,
        -0.237507 -0.282144 0.212598,
        -0.284728 -0.292922 0.212598,
        -0.246860 -0.323121 0.212598,
        -0.241089 -0.313937 0.212598,
        -0.237507 -0.303700 0.212598,
        -0.273950 -0.340143 0.212598,
        -0.263713 -0.336561 0.212598,
        -0.254529 -0.330790 0.212598,
        -0.305744 -0.336561 0.212598,
        -0.295506 -0.340143 0.212598,
        -0.284728 -0.341357 0.212598,
        -0.328367 -0.313937 0.212598,
        -0.322596 -0.323121 0.212598,
        -0.314927 -0.330790 0.212598,
        -0.331949 -0.282144 0.212598,
        -0.333164 -0.292922 0.212598,
        -0.331949 -0.303700 0.212598,
        -0.314927 -0.255053 0.212598,
        -0.322596 -0.262723 0.212598,
        -0.328367 -0.271906 0.212598,
        -0.284728 -0.244486 0.212598,
        -0.295506 -0.245700 0.212598,
        -0.305744 -0.249283 0.212598,
        -0.254529 -0.255053 0.212598,
        -0.263713 -0.249283 0.212598,
        -0.273950 -0.245700 0.212598,
        -0.241089 -0.271906 0.212598,
        -0.246860 -0.262723 0.212598,
      ]
    }
    coordIndex [
      0, 1, 2, -1,
      3, 4, 2, -1,
      2, 4, 5, -1,
      2, 5, 0, -1,
      6, 7, 2, -1,
      2, 7, 8, -1,
      2, 8, 3, -1,
      9, 10, 2, -1,
      2, 10, 11, -1,
      2, 11, 6, -1,
      12, 13, 2, -1,
      2, 13, 14, -1,
      2, 14, 9, -1,
      15, 16, 2, -1,
      2, 16, 17, -1,
      2, 17, 12, -1,
      18, 19, 2, -1,
      2, 19, 20, -1,
      2, 20, 15, -1,
      21, 22, 2, -1,
      2, 22, 23, -1,
      2, 23, 18, -1,
      24, 25, 2, -1,
      2, 25, 26, -1,
      2, 26, 21, -1,
      1, 27, 2, -1,
      2, 27, 28, -1,
      2, 28, 24, -1,
    ]
  }
}

Shape {
  appearance Appearance {
    material Material {
      diffuseColor 1.0000 1.0000 1.0000
      specularColor 0.5020 0.5020 0.5020
      ambientIntensity 0.2
      transparency 0.0000
      shininess 0.5
    }
  }
  geometry IndexedFaceSet {
    ccw TRUE
    solid FALSE
    coord DEF co Coordinate {
      point [
        -0.010358 -0.015678 0.000000,
        -0.010358 -0.019999 0.000000,
        0.010767 -0.019999 0.000000,
        -0.009398 0.015050 0.000000,
        0.005486 0.015050 0.000000,
        0.005486 0.002086 0.000000,
        0.018449 -0.017959 0.000000,
        0.018449 -0.013638 0.000000,
        0.010767 0.019371 0.000000,
        0.005486 -0.002235 0.000000,
        0.005486 -0.015678 0.000000,
        -0.008438 -0.002235 0.000000,
        -0.008438 0.002086 0.000000,
        -0.009398 0.019371 0.000000,
        0.071263 0.019371 0.000000,
        0.249962 0.199454 0.000000,
        0.071263 -0.019999 0.000000,
        0.254652 0.191989 0.000000,
        0.260886 0.185755 0.000000,
        0.031546 0.015094 0.000000,
        0.034493 0.014031 0.000000,
        0.019155 -0.014028 0.000000,
        0.037217 0.012208 0.000000,
        0.039595 0.009583 0.000000,
        0.042455 -0.000734 0.000000,
        0.042057 -0.004996 0.000000,
        0.040987 -0.008383 0.000000,
        0.032226 -0.015746 0.000000,
        0.028554 -0.016158 0.000000,
        0.035095 -0.014690 0.000000,
        0.037511 -0.013062 0.000000,
        0.039359 -0.011113 0.000000,
        0.023328 -0.015578 0.000000,
        0.139048 0.191989 0.000000,
        0.143739 0.199454 0.000000,
        0.146651 0.207775 0.000000,
        0.041218 0.006544 0.000000,
        0.042267 0.002329 0.000000,
        0.057802 0.191989 0.000000,
        0.064036 0.185755 0.000000,
        0.065981 0.019371 0.000000,
        0.039797 0.016100 0.000000,
        0.043351 0.012682 0.000000,
        0.045659 0.009001 0.000000,
        0.268351 0.181064 0.000000,
        0.276672 0.178152 0.000000,
        0.285433 0.177165 0.000000,
        0.049213 0.393701 -0.000000,
        0.049213 0.216535 0.000000,
        0.050200 0.207775 0.000000,
        0.053111 0.199454 0.000000,
        0.108268 0.177165 0.000000,
        0.117028 0.178152 0.000000,
        0.125350 0.181064 0.000000,
        0.132815 0.185755 0.000000,
        0.037950 -0.018663 0.000000,
        0.041117 -0.016641 0.000000,
        0.051097 -0.019999 0.000000,
        0.044074 -0.013527 0.000000,
        0.051097 -0.015678 0.000000,
        0.046171 -0.009784 0.000000,
        0.065981 -0.015678 0.000000,
        0.071501 0.181064 0.000000,
        0.079822 0.178152 0.000000,
        0.088583 0.177165 0.000000,
        0.147639 0.393701 0.000000,
        0.246063 0.393701 0.000000,
        0.147638 0.216535 0.000000,
        0.246063 0.216535 0.000000,
        0.247050 0.207775 0.000000,
        0.047356 -0.005617 0.000000,
        0.047737 -0.001057 0.000000,
        0.047170 0.004540 0.000000,
        0.036057 0.018253 0.000000,
        0.031668 0.019528 0.000000,
        0.027714 0.019851 0.000000,
        0.305118 0.177165 0.000000,
        0.313879 0.178152 0.000000,
        0.322200 0.181064 0.000000,
        0.023001 0.019526 0.000000,
        0.018449 0.018291 0.000000,
        0.018449 0.013009 0.000000,
        0.022884 0.014908 0.000000,
        0.027669 0.015530 0.000000,
        0.031597 -0.020239 0.000000,
        0.034133 -0.019976 0.000000,
        0.329665 0.185755 0.000000,
        0.335899 0.191989 0.000000,
        0.340589 0.199454 0.000000,
        0.344488 0.393701 0.000000,
        0.344488 0.216535 0.000000,
        0.343501 0.207775 0.000000,
        -0.088138 -0.019999 0.000000,
        -0.082377 -0.019999 0.000000,
        -0.052609 -0.019999 0.000000,
        -0.047763 -0.009209 0.000000,
        -0.045505 -0.012730 0.000000,
        -0.042264 -0.015833 0.000000,
        -0.038154 -0.018222 0.000000,
        -0.033617 -0.019574 0.000000,
        -0.028746 -0.019999 0.000000,
        -0.018040 -0.019999 0.000000,
        -0.018040 0.019371 0.000000,
        -0.029151 0.019371 0.000000,
        -0.043771 0.014237 0.000000,
        -0.046555 0.011150 0.000000,
        -0.067493 0.019371 0.000000,
        -0.048385 0.007765 0.000000,
        -0.034839 0.018763 0.000000,
        -0.039445 0.017145 0.000000,
        -0.043730 0.014274 0.000000,
        -0.313879 0.178152 0.000000,
        -0.072774 0.019371 0.000000,
        -0.322200 0.181064 0.000000,
        -0.329665 0.185755 0.000000,
        -0.344488 0.216535 0.000000,
        -0.343501 0.207775 0.000000,
        -0.340589 0.199454 0.000000,
        -0.058370 -0.019999 0.000000,
        -0.062129 -0.008956 0.000000,
        -0.078393 -0.008956 0.000000,
        -0.049442 0.003885 0.000000,
        -0.049728 0.000181 0.000000,
        -0.049176 -0.005088 0.000000,
        -0.305118 0.177165 0.000000,
        -0.285433 0.177165 0.000000,
        -0.276672 0.178152 0.000000,
        -0.260886 0.185755 0.000000,
        -0.143739 0.199454 0.000000,
        -0.268351 0.181064 0.000000,
        -0.071501 0.181064 0.000000,
        -0.064036 0.185755 0.000000,
        -0.057802 0.191989 0.000000,
        -0.335899 0.191989 0.000000,
        -0.254652 0.191989 0.000000,
        -0.249962 0.199454 0.000000,
        -0.247050 0.207775 0.000000,
        -0.053111 0.199454 0.000000,
        -0.050200 0.207775 0.000000,
        -0.049213 0.216535 0.000000,
        -0.049211 0.393701 0.000000,
        -0.246061 0.393701 0.000000,
        -0.147637 0.393701 -0.000000,
        -0.246063 0.216535 0.000000,
        -0.147638 0.216535 0.000000,
        -0.146651 0.207775 0.000000,
        -0.139048 0.191989 0.000000,
        -0.132815 0.185755 0.000000,
        -0.125350 0.181064 0.000000,
        -0.117028 0.178152 0.000000,
        -0.344486 0.393701 -0.000000,
        -0.108268 0.177165 0.000000,
        -0.088583 0.177165 0.000000,
        -0.079822 0.178152 0.000000,
        -0.265748 -0.143070 0.000000,
        -0.275243 -0.139137 0.000000,
        -0.285433 -0.137795 0.000000,
        -0.305118 -0.137795 0.000000,
        -0.313879 -0.138782 0.000000,
        -0.322200 -0.141694 0.000000,
        -0.247404 -0.166976 0.000000,
        -0.251337 -0.157480 0.000000,
        -0.257594 -0.149326 0.000000,
        -0.329665 -0.146385 0.000000,
        -0.335899 -0.152619 0.000000,
        -0.340589 -0.160083 0.000000,
        -0.060744 -0.188696 0.000000,
        -0.054487 -0.196850 0.000000,
        -0.050554 -0.206346 0.000000,
        -0.068898 -0.182440 0.000000,
        -0.078393 -0.178507 0.000000,
        -0.088583 -0.177165 0.000000,
        -0.049213 -0.216535 0.000000,
        -0.049211 -0.393701 0.000000,
        -0.147637 -0.393701 -0.000000,
        -0.246061 -0.393701 0.000000,
        -0.147638 -0.216535 0.000000,
        -0.246063 -0.177165 0.000000,
        -0.108268 -0.177165 0.000000,
        -0.118457 -0.178507 0.000000,
        -0.127953 -0.182440 0.000000,
        -0.136107 -0.188696 0.000000,
        -0.142363 -0.196850 0.000000,
        -0.146296 -0.206346 0.000000,
        -0.344486 -0.393701 -0.000000,
        -0.344488 -0.177165 0.000000,
        -0.343501 -0.168405 0.000000,
        0.060744 -0.188696 0.000000,
        0.054487 -0.196850 0.000000,
        0.118457 -0.178507 0.000000,
        0.108268 -0.177165 0.000000,
        0.340589 -0.199454 0.000000,
        0.335899 -0.191989 0.000000,
        0.251337 -0.196850 0.000000,
        0.257594 -0.188696 0.000000,
        0.265748 -0.182440 0.000000,
        0.344488 -0.216535 0.000000,
        0.343501 -0.207775 0.000000,
        0.329665 -0.185755 0.000000,
        0.322200 -0.181064 0.000000,
        0.313879 -0.178152 0.000000,
        0.049213 -0.393701 -0.000000,
        0.049213 -0.216535 0.000000,
        0.050554 -0.206346 0.000000,
        0.305118 -0.177165 0.000000,
        0.285433 -0.177165 0.000000,
        0.275243 -0.178507 0.000000,
        0.246063 -0.216535 0.000000,
        0.246063 -0.393701 -0.000000,
        0.147639 -0.393701 0.000000,
        0.146296 -0.206346 0.000000,
        0.142363 -0.196850 0.000000,
        0.136107 -0.188696 0.000000,
        0.127953 -0.182440 0.000000,
        0.022646 -0.019682 0.000000,
        0.026624 -0.020239 0.000000,
        0.068898 -0.182440 0.000000,
        0.247404 -0.206346 0.000000,
        0.147638 -0.216535 0.000000,
        0.088583 -0.177165 0.000000,
        0.078393 -0.178507 0.000000,
        0.029282 -0.020480 0.000000,
        0.028206 -0.020461 0.000000,
        0.344488 -0.393701 0.000000,
        0.344488 0.393701 0.055906,
        0.246063 0.393701 0.055906,
        0.147639 0.393701 0.055906,
        -0.049211 0.393701 0.055906,
        -0.147637 0.393701 0.055906,
        0.049213 0.393701 0.055906,
        -0.344486 0.393701 0.055906,
        -0.246061 0.393701 0.055906,
        -0.344486 -0.393701 0.055906,
        -0.246061 -0.393701 0.055906,
        -0.049211 -0.393701 0.055906,
        0.049213 -0.393701 0.055906,
        0.147639 -0.393701 0.055906,
        -0.147637 -0.393701 0.055906,
        0.344488 -0.393701 0.055906,
        0.246063 -0.393701 0.055906,
        0.049213 0.397638 0.055906,
        0.049213 0.397638 -0.003937,
        0.049213 0.216535 -0.003937,
        0.147638 0.216535 -0.003937,
        0.147639 0.397638 -0.003937,
        0.147639 0.397638 0.055906,
        0.146651 0.207775 -0.003937,
        0.143739 0.199454 -0.003937,
        0.139048 0.191989 -0.003937,
        0.132815 0.185755 -0.003937,
        0.125350 0.181064 -0.003937,
        0.117028 0.178152 -0.003937,
        0.108268 0.177165 -0.003937,
        0.088583 0.177165 -0.003937,
        0.079822 0.178152 -0.003937,
        0.071501 0.181064 -0.003937,
        0.064036 0.185755 -0.003937,
        0.057802 0.191989 -0.003937,
        0.053111 0.199454 -0.003937,
        0.050200 0.207775 -0.003937,
        0.344488 0.216535 -0.003937,
        0.344488 0.397638 -0.003937,
        0.344488 0.397638 0.055906,
        0.343501 0.207775 -0.003937,
        0.340589 0.199454 -0.003937,
        0.335899 0.191989 -0.003937,
        0.329665 0.185755 -0.003937,
        0.322200 0.181064 -0.003937,
        0.313879 0.178152 -0.003937,
        0.305118 0.177165 -0.003937,
        0.285433 0.177165 -0.003937,
        0.276672 0.178152 -0.003937,
        0.268351 0.181064 -0.003937,
        0.260886 0.185755 -0.003937,
        0.254652 0.191989 -0.003937,
        0.249962 0.199454 -0.003937,
        0.247050 0.207775 -0.003937,
        0.246063 0.216535 -0.003937,
        0.246063 0.397638 0.055906,
        0.246063 0.397638 -0.003937,
        -0.147637 0.397638 0.055906,
        -0.147637 0.397638 -0.003937,
        -0.147638 0.216535 -0.003937,
        -0.049213 0.216535 -0.003937,
        -0.049211 0.397638 -0.003937,
        -0.049211 0.397638 0.055906,
        -0.050200 0.207775 -0.003937,
        -0.053111 0.199454 -0.003937,
        -0.057802 0.191989 -0.003937,
        -0.064036 0.185755 -0.003937,
        -0.071501 0.181064 -0.003937,
        -0.079822 0.178152 -0.003937,
        -0.088583 0.177165 -0.003937,
        -0.108268 0.177165 -0.003937,
        -0.117028 0.178152 -0.003937,
        -0.125350 0.181064 -0.003937,
        -0.132815 0.185755 -0.003937,
        -0.139048 0.191989 -0.003937,
        -0.143739 0.199454 -0.003937,
        -0.146651 0.207775 -0.003937,
        -0.305118 0.177165 -0.003937,
        -0.313879 0.178152 -0.003937,
        -0.322200 0.181064 -0.003937,
        -0.329665 0.185755 -0.003937,
        -0.335899 0.191989 -0.003937,
        -0.340589 0.199454 -0.003937,
        -0.343501 0.207775 -0.003937,
        -0.344488 0.216535 -0.003937,
        -0.344486 0.397638 0.055906,
        -0.344486 0.397638 -0.003937,
        -0.246063 0.216535 -0.003937,
        -0.246061 0.397638 -0.003937,
        -0.246061 0.397638 0.055906,
        -0.247050 0.207775 -0.003937,
        -0.249962 0.199454 -0.003937,
        -0.254652 0.191989 -0.003937,
        -0.260886 0.185755 -0.003937,
        -0.268351 0.181064 -0.003937,
        -0.276672 0.178152 -0.003937,
        -0.285433 0.177165 -0.003937,
        -0.344488 -0.177165 -0.003937,
        -0.343501 -0.168405 -0.003937,
        -0.340589 -0.160083 -0.003937,
        -0.335899 -0.152619 -0.003937,
        -0.329665 -0.146385 -0.003937,
        -0.322200 -0.141694 -0.003937,
        -0.313879 -0.138782 -0.003937,
        -0.305118 -0.137795 -0.003937,
        -0.285433 -0.137795 -0.003937,
        -0.275243 -0.139137 -0.003937,
        -0.265748 -0.143070 -0.003937,
        -0.257594 -0.149326 -0.003937,
        -0.251337 -0.157480 -0.003937,
        -0.247404 -0.166976 -0.003937,
        -0.246063 -0.177165 -0.003937,
        -0.246061 -0.397638 0.055906,
        -0.246061 -0.397638 -0.003937,
        -0.344486 -0.397638 -0.003937,
        -0.344486 -0.397638 0.055906,
        -0.147638 -0.216535 -0.003937,
        -0.146296 -0.206346 -0.003937,
        -0.142363 -0.196850 -0.003937,
        -0.136107 -0.188696 -0.003937,
        -0.127953 -0.182440 -0.003937,
        -0.118457 -0.178507 -0.003937,
        -0.108268 -0.177165 -0.003937,
        -0.088583 -0.177165 -0.003937,
        -0.078393 -0.178507 -0.003937,
        -0.068898 -0.182440 -0.003937,
        -0.060744 -0.188696 -0.003937,
        -0.054487 -0.196850 -0.003937,
        -0.050554 -0.206346 -0.003937,
        -0.049213 -0.216535 -0.003937,
        -0.049211 -0.397638 0.055906,
        -0.049211 -0.397638 -0.003937,
        -0.147637 -0.397638 -0.003937,
        -0.147637 -0.397638 0.055906,
        0.147639 -0.397638 0.055906,
        0.147639 -0.397638 -0.003937,
        0.147638 -0.216535 -0.003937,
        0.049213 -0.216535 -0.003937,
        0.049213 -0.397638 -0.003937,
        0.049213 -0.397638 0.055906,
        0.050554 -0.206346 -0.003937,
        0.054487 -0.196850 -0.003937,
        0.060744 -0.188696 -0.003937,
        0.068898 -0.182440 -0.003937,
        0.078393 -0.178507 -0.003937,
        0.088583 -0.177165 -0.003937,
        0.108268 -0.177165 -0.003937,
        0.118457 -0.178507 -0.003937,
        0.127953 -0.182440 -0.003937,
        0.136107 -0.188696 -0.003937,
        0.142363 -0.196850 -0.003937,
        0.146296 -0.206346 -0.003937,
        0.305118 -0.177165 -0.003937,
        0.313879 -0.178152 -0.003937,
        0.322200 -0.181064 -0.003937,
        0.329665 -0.185755 -0.003937,
        0.335899 -0.191989 -0.003937,
        0.340589 -0.199454 -0.003937,
        0.343501 -0.207775 -0.003937,
        0.344488 -0.216535 -0.003937,
        0.344488 -0.397638 0.055906,
        0.344488 -0.397638 -0.003937,
        0.246063 -0.216535 -0.003937,
        0.246063 -0.397638 -0.003937,
        0.246063 -0.397638 0.055906,
        0.247404 -0.206346 -0.003937,
        0.251337 -0.196850 -0.003937,
        0.257594 -0.188696 -0.003937,
        0.265748 -0.182440 -0.003937,
        0.275243 -0.178507 -0.003937,
        0.285433 -0.177165 -0.003937,
        -0.072774 0.019371 0.000394,
        -0.088138 -0.019999 0.000394,
        -0.082377 -0.019999 0.000394,
        -0.078393 -0.008956 0.000394,
        -0.062129 -0.008956 0.000394,
        -0.058370 -0.019999 0.000394,
        -0.052609 -0.019999 0.000394,
        -0.067493 0.019371 0.000394,
        -0.063457 -0.004635 0.000394,
        -0.076623 -0.004635 0.000394,
        -0.069331 0.011809 0.000394,
        -0.069710 0.013174 0.000394,
        -0.069961 0.014570 0.000394,
        -0.070089 0.014570 0.000394,
        -0.070346 0.013178 0.000394,
        -0.070696 0.011809 0.000394,
        -0.063457 -0.004635 0.000000,
        -0.076623 -0.004635 0.000000,
        -0.069331 0.011809 0.000000,
        -0.069710 0.013174 -0.000000,
        -0.069961 0.014570 0.000000,
        -0.070089 0.014570 0.000000,
        -0.070346 0.013178 0.000000,
        -0.070696 0.011809 0.000000,
        -0.028746 -0.019999 0.000394,
        -0.018040 -0.019999 0.000394,
        -0.018040 0.019371 0.000394,
        -0.029151 0.019371 0.000394,
        -0.049728 0.000181 0.000394,
        -0.049442 0.003885 0.000394,
        -0.048385 0.007765 0.000394,
        -0.046555 0.011150 0.000394,
        -0.043771 0.014237 0.000394,
        -0.043730 0.014274 0.000394,
        -0.039445 0.017145 0.000394,
        -0.034839 0.018763 0.000394,
        -0.033617 -0.019574 0.000394,
        -0.038154 -0.018222 0.000394,
        -0.042264 -0.015833 0.000394,
        -0.045505 -0.012730 0.000394,
        -0.047763 -0.009209 0.000394,
        -0.049176 -0.005088 0.000394,
        -0.041826 0.009529 0.000394,
        -0.039913 0.011559 0.000394,
        -0.037038 0.013417 0.000394,
        -0.033788 0.014554 0.000394,
        -0.029128 0.015050 0.000394,
        -0.023322 0.015050 0.000394,
        -0.023322 -0.015678 0.000394,
        -0.028911 -0.015678 0.000394,
        -0.033064 -0.015292 0.000394,
        -0.036377 -0.014257 0.000394,
        -0.039062 -0.012663 0.000394,
        -0.041270 -0.010482 0.000394,
        -0.042931 -0.007768 0.000394,
        -0.044085 -0.004067 0.000394,
        -0.044447 0.000069 0.000394,
        -0.044113 0.003987 0.000394,
        -0.043193 0.007101 0.000394,
        -0.029128 0.015050 0.000000,
        -0.023322 0.015050 0.000000,
        -0.033788 0.014554 0.000000,
        -0.037038 0.013417 -0.000000,
        -0.039913 0.011559 0.000000,
        -0.041826 0.009529 0.000000,
        -0.043193 0.007101 -0.000000,
        -0.044113 0.003987 0.000000,
        -0.044447 0.000069 0.000000,
        -0.044085 -0.004067 0.000000,
        -0.042931 -0.007768 0.000000,
        -0.041270 -0.010482 0.000000,
        -0.039062 -0.012663 0.000000,
        -0.036377 -0.014257 0.000000,
        -0.033064 -0.015292 0.000000,
        -0.028911 -0.015678 0.000000,
        -0.023322 -0.015678 0.000000,
        -0.010358 -0.015678 0.000394,
        -0.010358 -0.019999 0.000394,
        0.010767 -0.019999 0.000394,
        0.010767 0.019371 0.000394,
        -0.009398 0.019371 0.000394,
        -0.009398 0.015050 0.000394,
        0.005486 0.015050 0.000394,
        0.005486 0.002086 0.000394,
        -0.008438 0.002086 0.000394,
        -0.008438 -0.002235 0.000394,
        0.005486 -0.002235 0.000394,
        0.005486 -0.015678 0.000394,
        0.018449 -0.013638 0.000394,
        0.018449 -0.017959 0.000394,
        0.022646 -0.019682 0.000394,
        0.029282 -0.020480 0.000394,
        0.028206 -0.020461 0.000394,
        0.034133 -0.019976 0.000394,
        0.037950 -0.018663 0.000394,
        0.041117 -0.016641 0.000394,
        0.044074 -0.013527 0.000394,
        0.046171 -0.009784 0.000394,
        0.047356 -0.005617 0.000394,
        0.047737 -0.001057 0.000394,
        0.027714 0.019851 0.000394,
        0.031668 0.019528 0.000394,
        0.036057 0.018253 0.000394,
        0.039797 0.016100 0.000394,
        0.043351 0.012682 0.000394,
        0.045659 0.009001 0.000394,
        0.047170 0.004540 0.000394,
        0.018449 0.018291 0.000394,
        0.023001 0.019526 0.000394,
        0.018449 0.013009 0.000394,
        0.027669 0.015530 0.000394,
        0.022884 0.014908 0.000394,
        0.042455 -0.000734 0.000394,
        0.042267 0.002329 0.000394,
        0.041218 0.006544 0.000394,
        0.039595 0.009583 0.000394,
        0.037217 0.012208 0.000394,
        0.034493 0.014031 0.000394,
        0.031546 0.015094 0.000394,
        0.028554 -0.016158 0.000394,
        0.032226 -0.015746 0.000394,
        0.035095 -0.014690 0.000394,
        0.037511 -0.013062 0.000394,
        0.039359 -0.011113 0.000394,
        0.040987 -0.008383 0.000394,
        0.042057 -0.004996 0.000394,
        0.019155 -0.014028 0.000394,
        0.023328 -0.015578 0.000394,
        0.051097 -0.015678 0.000394,
        0.051097 -0.019999 0.000394,
        0.071263 -0.019999 0.000394,
        0.071263 0.019371 0.000394,
        0.065981 0.019371 0.000394,
        0.065981 -0.015678 0.000394,
      ]
    }
    coordIndex [
      229, 240, 47, -1,
      47, 240, 241, -1,
      47, 241, 48, -1,
      48, 241, 242, -1,
      67, 243, 65, -1,
      65, 243, 244, -1,
      65, 244, 226, -1,
      226, 244, 245, -1,
      243, 67, 35, -1,
      243, 35, 246, -1,
      246, 35, 34, -1,
      246, 34, 247, -1,
      247, 34, 33, -1,
      247, 33, 248, -1,
      248, 33, 54, -1,
      248, 54, 249, -1,
      249, 54, 53, -1,
      249, 53, 250, -1,
      250, 53, 52, -1,
      250, 52, 251, -1,
      251, 52, 51, -1,
      251, 51, 252, -1,
      253, 252, 64, -1,
      64, 252, 51, -1,
      253, 64, 63, -1,
      253, 63, 254, -1,
      254, 63, 62, -1,
      254, 62, 255, -1,
      255, 62, 39, -1,
      255, 39, 256, -1,
      256, 39, 38, -1,
      256, 38, 257, -1,
      257, 38, 50, -1,
      257, 50, 258, -1,
      258, 50, 49, -1,
      258, 49, 259, -1,
      259, 49, 48, -1,
      259, 48, 242, -1,
      259, 242, 253, -1,
      247, 248, 252, -1,
      253, 242, 252, -1,
      241, 244, 242, -1,
      242, 244, 243, -1,
      242, 243, 252, -1,
      252, 243, 246, -1,
      252, 246, 247, -1,
      248, 249, 252, -1,
      252, 249, 250, -1,
      252, 250, 251, -1,
      255, 256, 254, -1,
      254, 256, 257, -1,
      254, 257, 253, -1,
      253, 257, 258, -1,
      253, 258, 259, -1,
      90, 260, 89, -1,
      89, 260, 261, -1,
      89, 261, 224, -1,
      224, 261, 262, -1,
      260, 90, 91, -1,
      260, 91, 263, -1,
      263, 91, 88, -1,
      263, 88, 264, -1,
      264, 88, 87, -1,
      264, 87, 265, -1,
      265, 87, 86, -1,
      265, 86, 266, -1,
      266, 86, 78, -1,
      266, 78, 267, -1,
      267, 78, 77, -1,
      267, 77, 268, -1,
      268, 77, 76, -1,
      268, 76, 269, -1,
      270, 269, 46, -1,
      46, 269, 76, -1,
      270, 46, 45, -1,
      270, 45, 271, -1,
      271, 45, 44, -1,
      271, 44, 272, -1,
      272, 44, 18, -1,
      272, 18, 273, -1,
      273, 18, 17, -1,
      273, 17, 274, -1,
      274, 17, 15, -1,
      274, 15, 275, -1,
      275, 15, 69, -1,
      275, 69, 276, -1,
      276, 69, 68, -1,
      276, 68, 277, -1,
      225, 278, 66, -1,
      66, 278, 279, -1,
      66, 279, 68, -1,
      68, 279, 277, -1,
      261, 260, 269, -1,
      267, 264, 266, -1,
      266, 264, 265, -1,
      260, 263, 269, -1,
      269, 263, 264, -1,
      269, 264, 268, -1,
      268, 264, 267, -1,
      261, 269, 279, -1,
      279, 269, 270, -1,
      279, 270, 277, -1,
      277, 270, 271, -1,
      277, 271, 272, -1,
      272, 273, 277, -1,
      277, 273, 274, -1,
      277, 274, 276, -1,
      276, 274, 275, -1,
      228, 280, 142, -1,
      142, 280, 281, -1,
      142, 281, 144, -1,
      144, 281, 282, -1,
      139, 283, 140, -1,
      140, 283, 284, -1,
      140, 284, 227, -1,
      227, 284, 285, -1,
      283, 139, 138, -1,
      283, 138, 286, -1,
      286, 138, 137, -1,
      286, 137, 287, -1,
      287, 137, 132, -1,
      287, 132, 288, -1,
      288, 132, 131, -1,
      288, 131, 289, -1,
      289, 131, 130, -1,
      289, 130, 290, -1,
      290, 130, 153, -1,
      290, 153, 291, -1,
      291, 153, 152, -1,
      291, 152, 292, -1,
      293, 292, 151, -1,
      151, 292, 152, -1,
      293, 151, 149, -1,
      293, 149, 294, -1,
      294, 149, 148, -1,
      294, 148, 295, -1,
      295, 148, 147, -1,
      295, 147, 296, -1,
      296, 147, 146, -1,
      296, 146, 297, -1,
      297, 146, 128, -1,
      297, 128, 298, -1,
      298, 128, 145, -1,
      298, 145, 299, -1,
      299, 145, 144, -1,
      299, 144, 282, -1,
      281, 284, 282, -1,
      282, 284, 283, -1,
      291, 292, 286, -1,
      286, 292, 283, -1,
      283, 292, 282, -1,
      282, 292, 293, -1,
      282, 293, 299, -1,
      286, 287, 291, -1,
      291, 287, 288, -1,
      291, 288, 290, -1,
      290, 288, 289, -1,
      296, 297, 295, -1,
      295, 297, 294, -1,
      294, 297, 293, -1,
      293, 297, 298, -1,
      293, 298, 299, -1,
      300, 124, 111, -1,
      300, 111, 301, -1,
      301, 111, 113, -1,
      301, 113, 302, -1,
      302, 113, 114, -1,
      302, 114, 303, -1,
      303, 114, 133, -1,
      303, 133, 304, -1,
      304, 133, 117, -1,
      304, 117, 305, -1,
      305, 117, 116, -1,
      305, 116, 306, -1,
      306, 116, 115, -1,
      306, 115, 307, -1,
      230, 308, 150, -1,
      150, 308, 309, -1,
      150, 309, 115, -1,
      115, 309, 307, -1,
      143, 310, 141, -1,
      141, 310, 311, -1,
      141, 311, 231, -1,
      231, 311, 312, -1,
      310, 143, 136, -1,
      310, 136, 313, -1,
      313, 136, 135, -1,
      313, 135, 314, -1,
      314, 135, 134, -1,
      314, 134, 315, -1,
      315, 134, 127, -1,
      315, 127, 316, -1,
      316, 127, 129, -1,
      316, 129, 317, -1,
      317, 129, 126, -1,
      317, 126, 318, -1,
      318, 126, 125, -1,
      318, 125, 319, -1,
      300, 319, 124, -1,
      124, 319, 125, -1,
      307, 309, 311, -1,
      311, 310, 307, -1,
      307, 310, 319, -1,
      307, 319, 300, -1,
      313, 317, 310, -1,
      310, 317, 318, -1,
      310, 318, 319, -1,
      313, 314, 317, -1,
      317, 314, 315, -1,
      317, 315, 316, -1,
      300, 301, 307, -1,
      307, 301, 302, -1,
      307, 302, 303, -1,
      303, 304, 307, -1,
      307, 304, 305, -1,
      307, 305, 306, -1,
      320, 185, 186, -1,
      320, 186, 321, -1,
      321, 186, 165, -1,
      321, 165, 322, -1,
      322, 165, 164, -1,
      322, 164, 323, -1,
      323, 164, 163, -1,
      323, 163, 324, -1,
      324, 163, 159, -1,
      324, 159, 325, -1,
      325, 159, 158, -1,
      325, 158, 326, -1,
      326, 158, 157, -1,
      326, 157, 327, -1,
      328, 327, 156, -1,
      156, 327, 157, -1,
      328, 156, 155, -1,
      328, 155, 329, -1,
      329, 155, 154, -1,
      329, 154, 330, -1,
      330, 154, 162, -1,
      330, 162, 331, -1,
      331, 162, 161, -1,
      331, 161, 332, -1,
      332, 161, 160, -1,
      332, 160, 333, -1,
      333, 160, 177, -1,
      333, 177, 334, -1,
      233, 335, 175, -1,
      175, 335, 336, -1,
      175, 336, 177, -1,
      177, 336, 334, -1,
      185, 320, 184, -1,
      184, 320, 337, -1,
      184, 337, 232, -1,
      232, 337, 338, -1,
      325, 326, 327, -1,
      337, 320, 327, -1,
      327, 320, 321, -1,
      327, 321, 322, -1,
      332, 333, 328, -1,
      328, 333, 334, -1,
      328, 334, 327, -1,
      327, 334, 336, -1,
      327, 336, 337, -1,
      322, 323, 327, -1,
      327, 323, 324, -1,
      327, 324, 325, -1,
      329, 330, 328, -1,
      328, 330, 331, -1,
      328, 331, 332, -1,
      339, 176, 183, -1,
      339, 183, 340, -1,
      340, 183, 182, -1,
      340, 182, 341, -1,
      341, 182, 181, -1,
      341, 181, 342, -1,
      342, 181, 180, -1,
      342, 180, 343, -1,
      343, 180, 179, -1,
      343, 179, 344, -1,
      344, 179, 178, -1,
      344, 178, 345, -1,
      346, 345, 171, -1,
      171, 345, 178, -1,
      346, 171, 170, -1,
      346, 170, 347, -1,
      347, 170, 169, -1,
      347, 169, 348, -1,
      348, 169, 166, -1,
      348, 166, 349, -1,
      349, 166, 167, -1,
      349, 167, 350, -1,
      350, 167, 168, -1,
      350, 168, 351, -1,
      351, 168, 172, -1,
      351, 172, 352, -1,
      234, 353, 173, -1,
      173, 353, 354, -1,
      173, 354, 172, -1,
      172, 354, 352, -1,
      176, 339, 174, -1,
      174, 339, 355, -1,
      174, 355, 237, -1,
      237, 355, 356, -1,
      354, 355, 352, -1,
      352, 355, 339, -1,
      339, 340, 341, -1,
      346, 352, 345, -1,
      345, 352, 339, -1,
      345, 339, 344, -1,
      341, 342, 339, -1,
      339, 342, 343, -1,
      339, 343, 344, -1,
      348, 349, 347, -1,
      347, 349, 350, -1,
      347, 350, 346, -1,
      346, 350, 351, -1,
      346, 351, 352, -1,
      236, 357, 209, -1,
      209, 357, 358, -1,
      209, 358, 218, -1,
      218, 358, 359, -1,
      202, 360, 201, -1,
      201, 360, 361, -1,
      201, 361, 235, -1,
      235, 361, 362, -1,
      360, 202, 203, -1,
      360, 203, 363, -1,
      363, 203, 188, -1,
      363, 188, 364, -1,
      364, 188, 187, -1,
      364, 187, 365, -1,
      365, 187, 216, -1,
      365, 216, 366, -1,
      366, 216, 220, -1,
      366, 220, 367, -1,
      367, 220, 219, -1,
      367, 219, 368, -1,
      369, 368, 190, -1,
      190, 368, 219, -1,
      369, 190, 189, -1,
      369, 189, 370, -1,
      370, 189, 213, -1,
      370, 213, 371, -1,
      371, 213, 212, -1,
      371, 212, 372, -1,
      372, 212, 211, -1,
      372, 211, 373, -1,
      373, 211, 210, -1,
      373, 210, 374, -1,
      374, 210, 218, -1,
      374, 218, 359, -1,
      368, 369, 359, -1,
      359, 369, 370, -1,
      359, 370, 371, -1,
      371, 372, 359, -1,
      359, 372, 373, -1,
      359, 373, 374, -1,
      366, 363, 365, -1,
      365, 363, 364, -1,
      358, 361, 359, -1,
      359, 361, 360, -1,
      359, 360, 368, -1,
      368, 360, 363, -1,
      368, 363, 367, -1,
      367, 363, 366, -1,
      375, 204, 200, -1,
      375, 200, 376, -1,
      376, 200, 199, -1,
      376, 199, 377, -1,
      377, 199, 198, -1,
      377, 198, 378, -1,
      378, 198, 192, -1,
      378, 192, 379, -1,
      379, 192, 191, -1,
      379, 191, 380, -1,
      380, 191, 197, -1,
      380, 197, 381, -1,
      381, 197, 196, -1,
      381, 196, 382, -1,
      238, 383, 223, -1,
      223, 383, 384, -1,
      223, 384, 196, -1,
      196, 384, 382, -1,
      207, 385, 208, -1,
      208, 385, 386, -1,
      208, 386, 239, -1,
      239, 386, 387, -1,
      385, 207, 217, -1,
      385, 217, 388, -1,
      388, 217, 193, -1,
      388, 193, 389, -1,
      389, 193, 194, -1,
      389, 194, 390, -1,
      390, 194, 195, -1,
      390, 195, 391, -1,
      391, 195, 206, -1,
      391, 206, 392, -1,
      392, 206, 205, -1,
      392, 205, 393, -1,
      375, 393, 204, -1,
      204, 393, 205, -1,
      382, 384, 386, -1,
      391, 392, 393, -1,
      380, 381, 375, -1,
      377, 378, 379, -1,
      381, 382, 375, -1,
      375, 382, 386, -1,
      375, 386, 393, -1,
      393, 386, 385, -1,
      393, 385, 388, -1,
      388, 389, 393, -1,
      393, 389, 390, -1,
      393, 390, 391, -1,
      380, 375, 379, -1,
      379, 375, 376, -1,
      379, 376, 377, -1,
      262, 278, 224, -1,
      224, 278, 225, -1,
      279, 278, 261, -1,
      261, 278, 262, -1,
      245, 240, 226, -1,
      226, 240, 229, -1,
      240, 245, 241, -1,
      241, 245, 244, -1,
      285, 280, 227, -1,
      227, 280, 228, -1,
      280, 285, 281, -1,
      281, 285, 284, -1,
      312, 308, 231, -1,
      231, 308, 230, -1,
      308, 312, 309, -1,
      309, 312, 311, -1,
      387, 383, 239, -1,
      239, 383, 238, -1,
      387, 386, 383, -1,
      383, 386, 384, -1,
      362, 357, 235, -1,
      235, 357, 236, -1,
      357, 362, 358, -1,
      358, 362, 361, -1,
      356, 353, 237, -1,
      237, 353, 234, -1,
      353, 356, 354, -1,
      354, 356, 355, -1,
      338, 335, 232, -1,
      232, 335, 233, -1,
      335, 338, 336, -1,
      336, 338, 337, -1,
      394, 395, 112, -1,
      112, 395, 92, -1,
      395, 396, 92, -1,
      92, 396, 93, -1,
      396, 397, 93, -1,
      93, 397, 120, -1,
      397, 398, 120, -1,
      120, 398, 119, -1,
      398, 399, 119, -1,
      119, 399, 118, -1,
      399, 400, 118, -1,
      118, 400, 94, -1,
      400, 401, 94, -1,
      94, 401, 106, -1,
      401, 394, 106, -1,
      106, 394, 112, -1,
      402, 398, 403, -1,
      403, 398, 397, -1,
      404, 401, 402, -1,
      402, 401, 400, -1,
      402, 400, 398, -1,
      398, 400, 399, -1,
      404, 405, 401, -1,
      401, 405, 406, -1,
      401, 406, 394, -1,
      394, 406, 407, -1,
      394, 407, 408, -1,
      408, 409, 394, -1,
      394, 409, 403, -1,
      394, 403, 395, -1,
      395, 403, 397, -1,
      395, 397, 396, -1,
      402, 403, 410, -1,
      410, 403, 411, -1,
      404, 402, 412, -1,
      412, 402, 410, -1,
      404, 412, 413, -1,
      404, 413, 405, -1,
      405, 413, 414, -1,
      405, 414, 406, -1,
      407, 406, 415, -1,
      415, 406, 414, -1,
      407, 415, 416, -1,
      407, 416, 408, -1,
      408, 416, 417, -1,
      408, 417, 409, -1,
      403, 409, 411, -1,
      411, 409, 417, -1,
      418, 419, 100, -1,
      100, 419, 101, -1,
      419, 420, 101, -1,
      101, 420, 102, -1,
      420, 421, 102, -1,
      102, 421, 103, -1,
      422, 122, 121, -1,
      422, 121, 423, -1,
      423, 121, 107, -1,
      423, 107, 424, -1,
      424, 107, 105, -1,
      424, 105, 425, -1,
      425, 105, 104, -1,
      425, 104, 426, -1,
      426, 104, 110, -1,
      426, 110, 427, -1,
      427, 110, 109, -1,
      427, 109, 428, -1,
      428, 109, 108, -1,
      428, 108, 429, -1,
      429, 108, 103, -1,
      429, 103, 421, -1,
      418, 100, 99, -1,
      418, 99, 430, -1,
      430, 99, 98, -1,
      430, 98, 431, -1,
      431, 98, 97, -1,
      431, 97, 432, -1,
      432, 97, 96, -1,
      432, 96, 433, -1,
      433, 96, 95, -1,
      433, 95, 434, -1,
      434, 95, 123, -1,
      434, 123, 435, -1,
      435, 123, 122, -1,
      435, 122, 422, -1,
      424, 425, 436, -1,
      436, 425, 426, -1,
      436, 426, 437, -1,
      437, 426, 427, -1,
      437, 427, 438, -1,
      438, 427, 428, -1,
      438, 428, 439, -1,
      439, 428, 429, -1,
      439, 429, 440, -1,
      440, 429, 421, -1,
      440, 421, 441, -1,
      441, 421, 420, -1,
      441, 420, 442, -1,
      442, 420, 419, -1,
      442, 419, 443, -1,
      443, 419, 418, -1,
      443, 418, 444, -1,
      444, 418, 430, -1,
      444, 430, 445, -1,
      445, 430, 431, -1,
      445, 431, 446, -1,
      446, 431, 432, -1,
      446, 432, 447, -1,
      447, 432, 433, -1,
      447, 433, 448, -1,
      448, 433, 434, -1,
      448, 434, 449, -1,
      449, 434, 435, -1,
      449, 435, 450, -1,
      450, 435, 422, -1,
      450, 422, 451, -1,
      451, 422, 423, -1,
      451, 423, 452, -1,
      452, 423, 424, -1,
      452, 424, 436, -1,
      440, 441, 453, -1,
      453, 441, 454, -1,
      440, 453, 455, -1,
      440, 455, 439, -1,
      439, 455, 456, -1,
      439, 456, 438, -1,
      438, 456, 457, -1,
      438, 457, 437, -1,
      437, 457, 458, -1,
      437, 458, 436, -1,
      436, 458, 459, -1,
      436, 459, 452, -1,
      452, 459, 460, -1,
      452, 460, 451, -1,
      451, 460, 461, -1,
      451, 461, 450, -1,
      450, 461, 462, -1,
      450, 462, 449, -1,
      449, 462, 463, -1,
      449, 463, 448, -1,
      448, 463, 464, -1,
      448, 464, 447, -1,
      447, 464, 465, -1,
      447, 465, 446, -1,
      446, 465, 466, -1,
      446, 466, 445, -1,
      445, 466, 467, -1,
      445, 467, 444, -1,
      444, 467, 468, -1,
      444, 468, 443, -1,
      442, 443, 469, -1,
      469, 443, 468, -1,
      441, 442, 454, -1,
      454, 442, 469, -1,
      470, 471, 0, -1,
      0, 471, 1, -1,
      471, 472, 1, -1,
      1, 472, 2, -1,
      472, 473, 2, -1,
      2, 473, 8, -1,
      473, 474, 8, -1,
      8, 474, 13, -1,
      474, 475, 13, -1,
      13, 475, 3, -1,
      475, 476, 3, -1,
      3, 476, 4, -1,
      476, 477, 4, -1,
      4, 477, 5, -1,
      477, 478, 5, -1,
      5, 478, 12, -1,
      478, 479, 12, -1,
      12, 479, 11, -1,
      479, 480, 11, -1,
      11, 480, 9, -1,
      480, 481, 9, -1,
      9, 481, 10, -1,
      481, 470, 10, -1,
      10, 470, 0, -1,
      472, 471, 470, -1,
      470, 481, 472, -1,
      472, 481, 480, -1,
      472, 480, 473, -1,
      475, 474, 476, -1,
      476, 474, 473, -1,
      476, 473, 477, -1,
      477, 473, 480, -1,
      477, 480, 478, -1,
      478, 480, 479, -1,
      482, 483, 7, -1,
      7, 483, 6, -1,
      6, 483, 484, -1,
      485, 221, 222, -1,
      485, 222, 486, -1,
      486, 222, 215, -1,
      486, 215, 484, -1,
      484, 215, 214, -1,
      484, 214, 6, -1,
      221, 485, 84, -1,
      84, 485, 487, -1,
      84, 487, 85, -1,
      85, 487, 488, -1,
      85, 488, 55, -1,
      55, 488, 489, -1,
      55, 489, 56, -1,
      56, 489, 490, -1,
      56, 490, 58, -1,
      58, 490, 491, -1,
      58, 491, 60, -1,
      60, 491, 492, -1,
      60, 492, 70, -1,
      70, 492, 493, -1,
      70, 493, 71, -1,
      494, 75, 74, -1,
      494, 74, 495, -1,
      495, 74, 73, -1,
      495, 73, 496, -1,
      496, 73, 41, -1,
      496, 41, 497, -1,
      497, 41, 42, -1,
      497, 42, 498, -1,
      498, 42, 43, -1,
      498, 43, 499, -1,
      499, 43, 72, -1,
      499, 72, 500, -1,
      500, 72, 71, -1,
      500, 71, 493, -1,
      501, 80, 79, -1,
      501, 79, 502, -1,
      502, 79, 75, -1,
      502, 75, 494, -1,
      501, 503, 80, -1,
      80, 503, 81, -1,
      504, 83, 82, -1,
      504, 82, 505, -1,
      505, 82, 81, -1,
      505, 81, 503, -1,
      506, 24, 37, -1,
      506, 37, 507, -1,
      507, 37, 36, -1,
      507, 36, 508, -1,
      508, 36, 23, -1,
      508, 23, 509, -1,
      509, 23, 22, -1,
      509, 22, 510, -1,
      510, 22, 20, -1,
      510, 20, 511, -1,
      511, 20, 19, -1,
      511, 19, 512, -1,
      512, 19, 83, -1,
      512, 83, 504, -1,
      513, 28, 27, -1,
      513, 27, 514, -1,
      514, 27, 29, -1,
      514, 29, 515, -1,
      515, 29, 30, -1,
      515, 30, 516, -1,
      516, 30, 31, -1,
      516, 31, 517, -1,
      517, 31, 26, -1,
      517, 26, 518, -1,
      518, 26, 25, -1,
      518, 25, 519, -1,
      519, 25, 24, -1,
      519, 24, 506, -1,
      482, 7, 21, -1,
      482, 21, 520, -1,
      520, 21, 32, -1,
      520, 32, 521, -1,
      521, 32, 28, -1,
      521, 28, 513, -1,
      514, 485, 513, -1,
      513, 485, 486, -1,
      513, 486, 521, -1,
      521, 486, 484, -1,
      521, 484, 520, -1,
      520, 484, 483, -1,
      520, 483, 482, -1,
      503, 501, 505, -1,
      505, 501, 502, -1,
      505, 502, 504, -1,
      504, 502, 494, -1,
      504, 494, 512, -1,
      512, 494, 495, -1,
      512, 495, 511, -1,
      511, 495, 496, -1,
      511, 496, 510, -1,
      510, 496, 497, -1,
      510, 497, 509, -1,
      509, 497, 498, -1,
      509, 498, 508, -1,
      508, 498, 499, -1,
      508, 499, 507, -1,
      507, 499, 500, -1,
      507, 500, 506, -1,
      506, 500, 493, -1,
      506, 493, 519, -1,
      519, 493, 492, -1,
      519, 492, 518, -1,
      518, 492, 491, -1,
      518, 491, 517, -1,
      517, 491, 490, -1,
      517, 490, 516, -1,
      516, 490, 489, -1,
      516, 489, 515, -1,
      515, 489, 488, -1,
      515, 488, 514, -1,
      514, 488, 487, -1,
      514, 487, 485, -1,
      522, 523, 59, -1,
      59, 523, 57, -1,
      523, 524, 57, -1,
      57, 524, 16, -1,
      524, 525, 16, -1,
      16, 525, 14, -1,
      525, 526, 14, -1,
      14, 526, 40, -1,
      526, 527, 40, -1,
      40, 527, 61, -1,
      527, 522, 61, -1,
      61, 522, 59, -1,
      526, 525, 527, -1,
      527, 525, 524, -1,
      527, 524, 522, -1,
      522, 524, 523, -1,
    ]
  }
}

Shape {
  appearance Appearance {
    material Material {
      diffuseColor 0.5020 0.5020 0.5020
      specularColor 0.2510 0.2510 0.2510
      ambientIntensity 0.2
      transparency 0.0000
      shininess 0.5
    }
  }
  geometry IndexedFaceSet {
    ccw TRUE
    solid FALSE
    coord DEF co Coordinate {
      point [
        0.393701 0.389764 0.000000,
        0.389764 0.393701 0.000000,
        0.390783 0.393567 0.000000,
        0.393567 0.390783 0.000000,
        0.391732 0.393173 0.000000,
        0.393173 0.391732 0.000000,
        0.392548 0.392548 0.000000,
        -0.393701 0.389764 0.000000,
        -0.392548 0.392548 0.000000,
        -0.391732 0.393173 0.000000,
        -0.393173 0.391732 0.000000,
        -0.390783 0.393567 0.000000,
        -0.393567 0.390783 0.000000,
        -0.389764 0.393701 0.000000,
        -0.393701 -0.389764 0.000000,
        -0.389764 -0.393701 0.000000,
        -0.390783 -0.393567 0.000000,
        -0.393567 -0.390783 0.000000,
        -0.391732 -0.393173 0.000000,
        -0.393173 -0.391732 0.000000,
        -0.392548 -0.392548 0.000000,
        0.393701 -0.389764 0.000000,
        0.392548 -0.392548 0.000000,
        0.391732 -0.393173 0.000000,
        0.393173 -0.391732 0.000000,
        0.390783 -0.393567 0.000000,
        0.393567 -0.390783 0.000000,
        0.389764 -0.393701 0.000000,
        0.389764 0.393701 0.212598,
        -0.389764 0.393701 0.212598,
        0.393701 0.389764 0.212598,
        0.393701 -0.389764 0.212598,
        -0.393701 0.389764 0.212598,
        -0.393701 -0.389764 0.212598,
        -0.389764 -0.393701 0.212598,
        0.389764 -0.393701 0.212598,
        0.389764 -0.389764 0.216535,
        -0.232356 -0.292922 0.216535,
        -0.233669 -0.304576 0.216535,
        -0.237542 -0.315645 0.216535,
        -0.243781 -0.325576 0.216535,
        -0.252074 -0.333869 0.216535,
        -0.284728 -0.345294 0.216535,
        -0.389764 -0.389764 0.216535,
        -0.273074 -0.343981 0.216535,
        -0.262005 -0.340108 0.216535,
        -0.296382 -0.343981 0.216535,
        -0.307452 -0.340108 0.216535,
        -0.317382 -0.333869 0.216535,
        -0.325675 -0.325576 0.216535,
        -0.331914 -0.315645 0.216535,
        -0.335788 -0.304576 0.216535,
        -0.337101 -0.292922 0.216535,
        -0.335788 -0.281268 0.216535,
        -0.389764 0.389764 0.216535,
        -0.331914 -0.270198 0.216535,
        -0.325675 -0.260268 0.216535,
        -0.317382 -0.251975 0.216535,
        -0.307452 -0.245736 0.216535,
        -0.296382 -0.241862 0.216535,
        -0.284728 -0.240549 0.216535,
        -0.273074 -0.241862 0.216535,
        0.389764 0.389764 0.216535,
        -0.262005 -0.245736 0.216535,
        -0.252074 -0.251975 0.216535,
        -0.243781 -0.260268 0.216535,
        -0.237542 -0.270198 0.216535,
        -0.233669 -0.281268 0.216535,
        -0.236293 -0.292922 0.212598,
        -0.237507 -0.282144 0.212598,
        -0.246860 -0.323121 0.212598,
        -0.241089 -0.313937 0.212598,
        -0.237507 -0.303700 0.212598,
        -0.273950 -0.340143 0.212598,
        -0.263713 -0.336561 0.212598,
        -0.254529 -0.330790 0.212598,
        -0.305744 -0.336561 0.212598,
        -0.295506 -0.340143 0.212598,
        -0.284728 -0.341357 0.212598,
        -0.328367 -0.313937 0.212598,
        -0.322596 -0.323121 0.212598,
        -0.314927 -0.330790 0.212598,
        -0.331949 -0.282144 0.212598,
        -0.333164 -0.292922 0.212598,
        -0.331949 -0.303700 0.212598,
        -0.314927 -0.255053 0.212598,
        -0.322596 -0.262723 0.212598,
        -0.328367 -0.271906 0.212598,
        -0.284728 -0.244486 0.212598,
        -0.295506 -0.245700 0.212598,
        -0.305744 -0.249283 0.212598,
        -0.254529 -0.255053 0.212598,
        -0.263713 -0.249283 0.212598,
        -0.273950 -0.245700 0.212598,
        -0.241089 -0.271906 0.212598,
        -0.246860 -0.262723 0.212598,
        -0.063457 -0.004635 0.000000,
        -0.076623 -0.004635 0.000000,
        -0.069331 0.011809 0.000000,
        -0.069710 0.013174 -0.000000,
        -0.069961 0.014570 0.000000,
        -0.070089 0.014570 0.000000,
        -0.070346 0.013178 0.000000,
        -0.070696 0.011809 0.000000,
        -0.029128 0.015050 0.000000,
        -0.023322 0.015050 0.000000,
        -0.033788 0.014554 0.000000,
        -0.037038 0.013417 -0.000000,
        -0.039913 0.011559 0.000000,
        -0.041826 0.009529 0.000000,
        -0.043193 0.007101 -0.000000,
        -0.044113 0.003987 0.000000,
        -0.044447 0.000069 0.000000,
        -0.044085 -0.004067 0.000000,
        -0.042931 -0.007768 0.000000,
        -0.041270 -0.010482 0.000000,
        -0.039062 -0.012663 0.000000,
        -0.036377 -0.014257 0.000000,
        -0.033064 -0.015292 0.000000,
        -0.028911 -0.015678 0.000000,
        -0.023322 -0.015678 0.000000,
        -0.390783 0.393567 0.212598,
        -0.391732 0.393173 0.212598,
        -0.392548 0.392548 0.212598,
        -0.393173 0.391732 0.212598,
        -0.393567 0.390783 0.212598,
        0.389764 0.390783 0.216401,
        -0.389764 0.390783 0.216401,
        0.389764 0.391732 0.216008,
        -0.389764 0.391732 0.216008,
        0.389764 0.392548 0.215382,
        -0.389764 0.392548 0.215382,
        0.389764 0.393173 0.214567,
        -0.389764 0.393173 0.214567,
        0.389764 0.393567 0.213617,
        -0.389764 0.393567 0.213617,
        0.393567 0.390783 0.212598,
        0.393173 0.391732 0.212598,
        0.392548 0.392548 0.212598,
        0.391732 0.393173 0.212598,
        0.390783 0.393567 0.212598,
        -0.393567 0.389764 0.213617,
        -0.393437 0.390748 0.213617,
        -0.391469 0.390748 0.216008,
        -0.390646 0.390273 0.216401,
        -0.390484 0.390484 0.216401,
        -0.390028 0.390748 0.216401,
        -0.390748 0.390028 0.216401,
        -0.391665 0.390273 0.216008,
        -0.392453 0.390484 0.215382,
        -0.390783 0.389764 0.216401,
        -0.391156 0.391156 0.216008,
        -0.390273 0.390646 0.216401,
        -0.390748 0.391469 0.216008,
        -0.390273 0.391665 0.216008,
        -0.391732 0.389764 0.216008,
        -0.392548 0.389764 0.215382,
        -0.393173 0.389764 0.214567,
        -0.392175 0.391156 0.215382,
        -0.391732 0.391732 0.215382,
        -0.391156 0.392175 0.215382,
        -0.390484 0.392453 0.215382,
        -0.393057 0.390646 0.214567,
        -0.392717 0.391469 0.214567,
        -0.392175 0.392175 0.214567,
        -0.391469 0.392717 0.214567,
        -0.390646 0.393057 0.214567,
        -0.393057 0.391665 0.213617,
        -0.392453 0.392453 0.213617,
        -0.391665 0.393057 0.213617,
        -0.390748 0.393437 0.213617,
        0.390748 0.393437 0.213617,
        0.390748 0.391469 0.216008,
        0.390273 0.390646 0.216401,
        0.390484 0.390484 0.216401,
        0.390783 0.389764 0.216401,
        0.390748 0.390028 0.216401,
        0.390028 0.390748 0.216401,
        0.390273 0.391665 0.216008,
        0.390484 0.392453 0.215382,
        0.391156 0.391156 0.216008,
        0.390646 0.390273 0.216401,
        0.391469 0.390748 0.216008,
        0.391665 0.390273 0.216008,
        0.391732 0.389764 0.216008,
        0.391156 0.392175 0.215382,
        0.391732 0.391732 0.215382,
        0.392175 0.391156 0.215382,
        0.392453 0.390484 0.215382,
        0.392548 0.389764 0.215382,
        0.390646 0.393057 0.214567,
        0.391469 0.392717 0.214567,
        0.392175 0.392175 0.214567,
        0.392717 0.391469 0.214567,
        0.393057 0.390646 0.214567,
        0.393173 0.389764 0.214567,
        0.391665 0.393057 0.213617,
        0.392453 0.392453 0.213617,
        0.393057 0.391665 0.213617,
        0.393437 0.390748 0.213617,
        0.393567 0.389764 0.213617,
        -0.393567 -0.390783 0.212598,
        -0.393173 -0.391732 0.212598,
        -0.392548 -0.392548 0.212598,
        -0.391732 -0.393173 0.212598,
        -0.390783 -0.393567 0.212598,
        -0.390783 -0.389764 0.216401,
        -0.391732 -0.389764 0.216008,
        -0.392548 -0.389764 0.215382,
        -0.393173 -0.389764 0.214567,
        -0.393567 -0.389764 0.213617,
        0.390783 -0.389764 0.216401,
        0.391732 -0.389764 0.216008,
        0.392548 -0.389764 0.215382,
        0.393173 -0.389764 0.214567,
        0.393567 -0.389764 0.213617,
        0.390783 -0.393567 0.212598,
        0.391732 -0.393173 0.212598,
        0.392548 -0.392548 0.212598,
        0.393173 -0.391732 0.212598,
        0.393567 -0.390783 0.212598,
        -0.389764 -0.393567 0.213617,
        -0.390748 -0.393437 0.213617,
        -0.390748 -0.391469 0.216008,
        -0.390273 -0.390646 0.216401,
        -0.390484 -0.390484 0.216401,
        -0.390748 -0.390028 0.216401,
        -0.390028 -0.390748 0.216401,
        -0.390273 -0.391665 0.216008,
        -0.390484 -0.392453 0.215382,
        -0.389764 -0.390783 0.216401,
        -0.391156 -0.391156 0.216008,
        -0.390646 -0.390273 0.216401,
        -0.391469 -0.390748 0.216008,
        -0.391665 -0.390273 0.216008,
        -0.389764 -0.391732 0.216008,
        -0.389764 -0.392548 0.215382,
        -0.389764 -0.393173 0.214567,
        -0.391156 -0.392175 0.215382,
        -0.391732 -0.391732 0.215382,
        -0.392175 -0.391156 0.215382,
        -0.392453 -0.390484 0.215382,
        -0.390646 -0.393057 0.214567,
        -0.391469 -0.392717 0.214567,
        -0.392175 -0.392175 0.214567,
        -0.392717 -0.391469 0.214567,
        -0.393057 -0.390646 0.214567,
        -0.391665 -0.393057 0.213617,
        -0.392453 -0.392453 0.213617,
        -0.393057 -0.391665 0.213617,
        -0.393437 -0.390748 0.213617,
        0.393437 -0.390748 0.213617,
        0.391469 -0.390748 0.216008,
        0.390646 -0.390273 0.216401,
        0.390484 -0.390484 0.216401,
        0.389764 -0.390783 0.216401,
        0.390028 -0.390748 0.216401,
        0.390748 -0.390028 0.216401,
        0.391665 -0.390273 0.216008,
        0.392453 -0.390484 0.215382,
        0.391156 -0.391156 0.216008,
        0.390273 -0.390646 0.216401,
        0.390748 -0.391469 0.216008,
        0.390273 -0.391665 0.216008,
        0.389764 -0.391732 0.216008,
        0.392175 -0.391156 0.215382,
        0.391732 -0.391732 0.215382,
        0.391156 -0.392175 0.215382,
        0.390484 -0.392453 0.215382,
        0.389764 -0.392548 0.215382,
        0.393057 -0.390646 0.214567,
        0.392717 -0.391469 0.214567,
        0.392175 -0.392175 0.214567,
        0.391469 -0.392717 0.214567,
        0.390646 -0.393057 0.214567,
        0.389764 -0.393173 0.214567,
        0.393057 -0.391665 0.213617,
        0.392453 -0.392453 0.213617,
        0.391665 -0.393057 0.213617,
        0.390748 -0.393437 0.213617,
        0.389764 -0.393567 0.213617,
        -0.237376 -0.282114 0.213617,
        -0.240969 -0.271848 0.213617,
        -0.246755 -0.262639 0.213617,
        -0.254445 -0.254948 0.213617,
        -0.263655 -0.249162 0.213617,
        -0.273920 -0.245570 0.213617,
        -0.284728 -0.244352 0.213617,
        -0.295536 -0.245570 0.213617,
        -0.305802 -0.249162 0.213617,
        -0.315011 -0.254948 0.213617,
        -0.322702 -0.262639 0.213617,
        -0.328488 -0.271848 0.213617,
        -0.332080 -0.282114 0.213617,
        -0.333298 -0.292922 0.213617,
        -0.332080 -0.303730 0.213617,
        -0.328488 -0.313995 0.213617,
        -0.322702 -0.323204 0.213617,
        -0.315011 -0.330895 0.213617,
        -0.305802 -0.336681 0.213617,
        -0.295536 -0.340274 0.213617,
        -0.284728 -0.341491 0.213617,
        -0.273920 -0.340274 0.213617,
        -0.263655 -0.336681 0.213617,
        -0.254445 -0.330895 0.213617,
        -0.246755 -0.323204 0.213617,
        -0.240969 -0.313995 0.213617,
        -0.237376 -0.303730 0.213617,
        -0.236158 -0.292922 0.213617,
        -0.236993 -0.282026 0.214567,
        -0.240614 -0.271678 0.214567,
        -0.246447 -0.262394 0.214567,
        -0.254200 -0.254641 0.214567,
        -0.263484 -0.248807 0.214567,
        -0.273833 -0.245186 0.214567,
        -0.284728 -0.243959 0.214567,
        -0.295624 -0.245186 0.214567,
        -0.305972 -0.248807 0.214567,
        -0.315256 -0.254641 0.214567,
        -0.323009 -0.262394 0.214567,
        -0.328843 -0.271678 0.214567,
        -0.332464 -0.282026 0.214567,
        -0.333691 -0.292922 0.214567,
        -0.332464 -0.303817 0.214567,
        -0.328843 -0.314166 0.214567,
        -0.323009 -0.323450 0.214567,
        -0.315256 -0.331203 0.214567,
        -0.305972 -0.337036 0.214567,
        -0.295624 -0.340657 0.214567,
        -0.284728 -0.341885 0.214567,
        -0.273833 -0.340657 0.214567,
        -0.263484 -0.337036 0.214567,
        -0.254200 -0.331203 0.214567,
        -0.246447 -0.323450 0.214567,
        -0.240614 -0.314166 0.214567,
        -0.236993 -0.303817 0.214567,
        -0.235765 -0.292922 0.214567,
        -0.236383 -0.281887 0.215382,
        -0.240050 -0.271406 0.215382,
        -0.245958 -0.262004 0.215382,
        -0.253810 -0.254152 0.215382,
        -0.263213 -0.248244 0.215382,
        -0.273694 -0.244576 0.215382,
        -0.284728 -0.243333 0.215382,
        -0.295763 -0.244576 0.215382,
        -0.306244 -0.248244 0.215382,
        -0.315646 -0.254152 0.215382,
        -0.323498 -0.262004 0.215382,
        -0.329406 -0.271406 0.215382,
        -0.333074 -0.281887 0.215382,
        -0.334317 -0.292922 0.215382,
        -0.333074 -0.303956 0.215382,
        -0.329406 -0.314437 0.215382,
        -0.323498 -0.323840 0.215382,
        -0.315646 -0.331692 0.215382,
        -0.306244 -0.337600 0.215382,
        -0.295763 -0.341267 0.215382,
        -0.284728 -0.342511 0.215382,
        -0.273694 -0.341267 0.215382,
        -0.263213 -0.337600 0.215382,
        -0.253810 -0.331692 0.215382,
        -0.245958 -0.323840 0.215382,
        -0.240050 -0.314437 0.215382,
        -0.236383 -0.303956 0.215382,
        -0.235139 -0.292922 0.215382,
        -0.235588 -0.281706 0.216008,
        -0.239316 -0.271052 0.216008,
        -0.245320 -0.261495 0.216008,
        -0.253302 -0.253514 0.216008,
        -0.262859 -0.247509 0.216008,
        -0.273512 -0.243781 0.216008,
        -0.284728 -0.242518 0.216008,
        -0.295944 -0.243781 0.216008,
        -0.306598 -0.247509 0.216008,
        -0.316155 -0.253514 0.216008,
        -0.324136 -0.261495 0.216008,
        -0.330141 -0.271052 0.216008,
        -0.333869 -0.281706 0.216008,
        -0.335132 -0.292922 0.216008,
        -0.333869 -0.304138 0.216008,
        -0.330141 -0.314791 0.216008,
        -0.324136 -0.324348 0.216008,
        -0.316155 -0.332329 0.216008,
        -0.306598 -0.338334 0.216008,
        -0.295944 -0.342062 0.216008,
        -0.284728 -0.343326 0.216008,
        -0.273512 -0.342062 0.216008,
        -0.262859 -0.338334 0.216008,
        -0.253302 -0.332329 0.216008,
        -0.245320 -0.324348 0.216008,
        -0.239316 -0.314791 0.216008,
        -0.235588 -0.304138 0.216008,
        -0.234324 -0.292922 0.216008,
        -0.234662 -0.281494 0.216401,
        -0.238460 -0.270640 0.216401,
        -0.244578 -0.260903 0.216401,
        -0.252710 -0.252772 0.216401,
        -0.262447 -0.246654 0.216401,
        -0.273301 -0.242856 0.216401,
        -0.284728 -0.241568 0.216401,
        -0.296156 -0.242856 0.216401,
        -0.307010 -0.246654 0.216401,
        -0.316746 -0.252772 0.216401,
        -0.324878 -0.260903 0.216401,
        -0.330996 -0.270640 0.216401,
        -0.334794 -0.281494 0.216401,
        -0.336082 -0.292922 0.216401,
        -0.334794 -0.304349 0.216401,
        -0.330996 -0.315203 0.216401,
        -0.324878 -0.324940 0.216401,
        -0.316746 -0.333072 0.216401,
        -0.307010 -0.339190 0.216401,
        -0.296156 -0.342988 0.216401,
        -0.284728 -0.344276 0.216401,
        -0.273301 -0.342988 0.216401,
        -0.262447 -0.339190 0.216401,
        -0.252710 -0.333072 0.216401,
        -0.244578 -0.324940 0.216401,
        -0.238460 -0.315203 0.216401,
        -0.234662 -0.304349 0.216401,
        -0.233374 -0.292922 0.216401,
      ]
    }
    coordIndex [
      96, 97, 98, -1,
      98, 97, 103, -1,
      98, 103, 99, -1,
      99, 103, 102, -1,
      99, 102, 100, -1,
      100, 102, 101, -1,
      105, 120, 104, -1,
      104, 120, 119, -1,
      104, 119, 118, -1,
      112, 111, 104, -1,
      104, 111, 110, -1,
      104, 110, 106, -1,
      118, 117, 104, -1,
      104, 117, 116, -1,
      104, 116, 115, -1,
      115, 114, 104, -1,
      104, 114, 113, -1,
      104, 113, 112, -1,
      109, 108, 110, -1,
      110, 108, 107, -1,
      110, 107, 106, -1,
      29, 13, 11, -1,
      29, 11, 121, -1,
      121, 11, 9, -1,
      121, 9, 122, -1,
      122, 9, 8, -1,
      122, 8, 123, -1,
      123, 8, 10, -1,
      123, 10, 124, -1,
      124, 10, 12, -1,
      124, 12, 125, -1,
      125, 12, 7, -1,
      125, 7, 32, -1,
      54, 62, 126, -1,
      54, 126, 127, -1,
      127, 126, 128, -1,
      127, 128, 129, -1,
      129, 128, 130, -1,
      129, 130, 131, -1,
      131, 130, 132, -1,
      131, 132, 133, -1,
      133, 132, 134, -1,
      133, 134, 135, -1,
      135, 134, 28, -1,
      135, 28, 29, -1,
      30, 0, 3, -1,
      30, 3, 136, -1,
      136, 3, 5, -1,
      136, 5, 137, -1,
      137, 5, 6, -1,
      137, 6, 138, -1,
      138, 6, 4, -1,
      138, 4, 139, -1,
      139, 4, 2, -1,
      139, 2, 140, -1,
      140, 2, 1, -1,
      140, 1, 28, -1,
      32, 141, 142, -1,
      143, 144, 145, -1,
      54, 127, 146, -1,
      145, 144, 54, -1,
      147, 54, 144, -1,
      147, 144, 148, -1,
      148, 144, 143, -1,
      148, 143, 149, -1,
      150, 54, 147, -1,
      151, 152, 153, -1,
      153, 152, 146, -1,
      153, 146, 154, -1,
      154, 146, 127, -1,
      154, 127, 129, -1,
      150, 147, 155, -1,
      155, 147, 148, -1,
      155, 148, 156, -1,
      156, 148, 149, -1,
      156, 149, 157, -1,
      158, 151, 159, -1,
      159, 151, 153, -1,
      159, 153, 160, -1,
      160, 153, 154, -1,
      160, 154, 161, -1,
      161, 154, 129, -1,
      161, 129, 131, -1,
      162, 158, 163, -1,
      163, 158, 159, -1,
      163, 159, 164, -1,
      164, 159, 160, -1,
      164, 160, 165, -1,
      165, 160, 161, -1,
      165, 161, 166, -1,
      166, 161, 131, -1,
      166, 131, 133, -1,
      141, 162, 142, -1,
      142, 162, 163, -1,
      142, 163, 167, -1,
      167, 163, 164, -1,
      167, 164, 168, -1,
      168, 164, 165, -1,
      168, 165, 169, -1,
      169, 165, 166, -1,
      169, 166, 170, -1,
      170, 166, 133, -1,
      170, 133, 135, -1,
      32, 142, 125, -1,
      125, 142, 167, -1,
      125, 167, 124, -1,
      124, 167, 168, -1,
      124, 168, 123, -1,
      123, 168, 169, -1,
      123, 169, 122, -1,
      122, 169, 170, -1,
      122, 170, 121, -1,
      121, 170, 135, -1,
      121, 135, 29, -1,
      152, 54, 146, -1,
      141, 157, 162, -1,
      162, 157, 149, -1,
      162, 149, 158, -1,
      158, 149, 143, -1,
      158, 143, 151, -1,
      151, 143, 145, -1,
      151, 145, 152, -1,
      152, 145, 54, -1,
      28, 134, 171, -1,
      172, 173, 174, -1,
      62, 175, 176, -1,
      174, 173, 62, -1,
      177, 62, 173, -1,
      177, 173, 178, -1,
      178, 173, 172, -1,
      178, 172, 179, -1,
      126, 62, 177, -1,
      180, 181, 182, -1,
      182, 181, 176, -1,
      182, 176, 183, -1,
      183, 176, 175, -1,
      183, 175, 184, -1,
      126, 177, 128, -1,
      128, 177, 178, -1,
      128, 178, 130, -1,
      130, 178, 179, -1,
      130, 179, 132, -1,
      185, 180, 186, -1,
      186, 180, 182, -1,
      186, 182, 187, -1,
      187, 182, 183, -1,
      187, 183, 188, -1,
      188, 183, 184, -1,
      188, 184, 189, -1,
      190, 185, 191, -1,
      191, 185, 186, -1,
      191, 186, 192, -1,
      192, 186, 187, -1,
      192, 187, 193, -1,
      193, 187, 188, -1,
      193, 188, 194, -1,
      194, 188, 189, -1,
      194, 189, 195, -1,
      134, 190, 171, -1,
      171, 190, 191, -1,
      171, 191, 196, -1,
      196, 191, 192, -1,
      196, 192, 197, -1,
      197, 192, 193, -1,
      197, 193, 198, -1,
      198, 193, 194, -1,
      198, 194, 199, -1,
      199, 194, 195, -1,
      199, 195, 200, -1,
      28, 171, 140, -1,
      140, 171, 196, -1,
      140, 196, 139, -1,
      139, 196, 197, -1,
      139, 197, 138, -1,
      138, 197, 198, -1,
      138, 198, 137, -1,
      137, 198, 199, -1,
      137, 199, 136, -1,
      136, 199, 200, -1,
      136, 200, 30, -1,
      181, 62, 176, -1,
      134, 132, 190, -1,
      190, 132, 179, -1,
      190, 179, 185, -1,
      185, 179, 172, -1,
      185, 172, 180, -1,
      180, 172, 174, -1,
      180, 174, 181, -1,
      181, 174, 62, -1,
      33, 14, 17, -1,
      33, 17, 201, -1,
      201, 17, 19, -1,
      201, 19, 202, -1,
      202, 19, 20, -1,
      202, 20, 203, -1,
      203, 20, 18, -1,
      203, 18, 204, -1,
      204, 18, 16, -1,
      204, 16, 205, -1,
      205, 16, 15, -1,
      205, 15, 34, -1,
      43, 54, 150, -1,
      43, 150, 206, -1,
      206, 150, 155, -1,
      206, 155, 207, -1,
      207, 155, 156, -1,
      207, 156, 208, -1,
      208, 156, 157, -1,
      208, 157, 209, -1,
      209, 157, 141, -1,
      209, 141, 210, -1,
      210, 141, 32, -1,
      210, 32, 33, -1,
      62, 36, 211, -1,
      62, 211, 175, -1,
      175, 211, 212, -1,
      175, 212, 184, -1,
      184, 212, 213, -1,
      184, 213, 189, -1,
      189, 213, 214, -1,
      189, 214, 195, -1,
      195, 214, 215, -1,
      195, 215, 200, -1,
      200, 215, 31, -1,
      200, 31, 30, -1,
      35, 27, 25, -1,
      35, 25, 216, -1,
      216, 25, 23, -1,
      216, 23, 217, -1,
      217, 23, 22, -1,
      217, 22, 218, -1,
      218, 22, 24, -1,
      218, 24, 219, -1,
      219, 24, 26, -1,
      219, 26, 220, -1,
      220, 26, 21, -1,
      220, 21, 31, -1,
      34, 221, 222, -1,
      223, 224, 225, -1,
      43, 206, 226, -1,
      225, 224, 43, -1,
      227, 43, 224, -1,
      227, 224, 228, -1,
      228, 224, 223, -1,
      228, 223, 229, -1,
      230, 43, 227, -1,
      231, 232, 233, -1,
      233, 232, 226, -1,
      233, 226, 234, -1,
      234, 226, 206, -1,
      234, 206, 207, -1,
      230, 227, 235, -1,
      235, 227, 228, -1,
      235, 228, 236, -1,
      236, 228, 229, -1,
      236, 229, 237, -1,
      238, 231, 239, -1,
      239, 231, 233, -1,
      239, 233, 240, -1,
      240, 233, 234, -1,
      240, 234, 241, -1,
      241, 234, 207, -1,
      241, 207, 208, -1,
      242, 238, 243, -1,
      243, 238, 239, -1,
      243, 239, 244, -1,
      244, 239, 240, -1,
      244, 240, 245, -1,
      245, 240, 241, -1,
      245, 241, 246, -1,
      246, 241, 208, -1,
      246, 208, 209, -1,
      221, 242, 222, -1,
      222, 242, 243, -1,
      222, 243, 247, -1,
      247, 243, 244, -1,
      247, 244, 248, -1,
      248, 244, 245, -1,
      248, 245, 249, -1,
      249, 245, 246, -1,
      249, 246, 250, -1,
      250, 246, 209, -1,
      250, 209, 210, -1,
      34, 222, 205, -1,
      205, 222, 247, -1,
      205, 247, 204, -1,
      204, 247, 248, -1,
      204, 248, 203, -1,
      203, 248, 249, -1,
      203, 249, 202, -1,
      202, 249, 250, -1,
      202, 250, 201, -1,
      201, 250, 210, -1,
      201, 210, 33, -1,
      232, 43, 226, -1,
      221, 237, 242, -1,
      242, 237, 229, -1,
      242, 229, 238, -1,
      238, 229, 223, -1,
      238, 223, 231, -1,
      231, 223, 225, -1,
      231, 225, 232, -1,
      232, 225, 43, -1,
      31, 215, 251, -1,
      252, 253, 254, -1,
      36, 255, 256, -1,
      254, 253, 36, -1,
      257, 36, 253, -1,
      257, 253, 258, -1,
      258, 253, 252, -1,
      258, 252, 259, -1,
      211, 36, 257, -1,
      260, 261, 262, -1,
      262, 261, 256, -1,
      262, 256, 263, -1,
      263, 256, 255, -1,
      263, 255, 264, -1,
      211, 257, 212, -1,
      212, 257, 258, -1,
      212, 258, 213, -1,
      213, 258, 259, -1,
      213, 259, 214, -1,
      265, 260, 266, -1,
      266, 260, 262, -1,
      266, 262, 267, -1,
      267, 262, 263, -1,
      267, 263, 268, -1,
      268, 263, 264, -1,
      268, 264, 269, -1,
      270, 265, 271, -1,
      271, 265, 266, -1,
      271, 266, 272, -1,
      272, 266, 267, -1,
      272, 267, 273, -1,
      273, 267, 268, -1,
      273, 268, 274, -1,
      274, 268, 269, -1,
      274, 269, 275, -1,
      215, 270, 251, -1,
      251, 270, 271, -1,
      251, 271, 276, -1,
      276, 271, 272, -1,
      276, 272, 277, -1,
      277, 272, 273, -1,
      277, 273, 278, -1,
      278, 273, 274, -1,
      278, 274, 279, -1,
      279, 274, 275, -1,
      279, 275, 280, -1,
      31, 251, 220, -1,
      220, 251, 276, -1,
      220, 276, 219, -1,
      219, 276, 277, -1,
      219, 277, 218, -1,
      218, 277, 278, -1,
      218, 278, 217, -1,
      217, 278, 279, -1,
      217, 279, 216, -1,
      216, 279, 280, -1,
      216, 280, 35, -1,
      261, 36, 256, -1,
      215, 214, 270, -1,
      270, 214, 259, -1,
      270, 259, 265, -1,
      265, 259, 252, -1,
      265, 252, 260, -1,
      260, 252, 254, -1,
      260, 254, 261, -1,
      261, 254, 36, -1,
      36, 43, 230, -1,
      36, 230, 255, -1,
      255, 230, 235, -1,
      255, 235, 264, -1,
      264, 235, 236, -1,
      264, 236, 269, -1,
      269, 236, 237, -1,
      269, 237, 275, -1,
      275, 237, 221, -1,
      275, 221, 280, -1,
      280, 221, 34, -1,
      280, 34, 35, -1,
      68, 281, 69, -1,
      69, 281, 282, -1,
      69, 282, 94, -1,
      94, 282, 283, -1,
      94, 283, 95, -1,
      95, 283, 284, -1,
      95, 284, 91, -1,
      91, 284, 285, -1,
      91, 285, 92, -1,
      92, 285, 286, -1,
      92, 286, 93, -1,
      93, 286, 287, -1,
      93, 287, 88, -1,
      88, 287, 288, -1,
      88, 288, 89, -1,
      89, 288, 289, -1,
      89, 289, 90, -1,
      90, 289, 290, -1,
      90, 290, 85, -1,
      85, 290, 291, -1,
      85, 291, 86, -1,
      86, 291, 292, -1,
      86, 292, 87, -1,
      87, 292, 293, -1,
      87, 293, 82, -1,
      82, 293, 294, -1,
      82, 294, 83, -1,
      83, 294, 295, -1,
      83, 295, 84, -1,
      84, 295, 296, -1,
      84, 296, 79, -1,
      79, 296, 297, -1,
      79, 297, 80, -1,
      80, 297, 298, -1,
      80, 298, 81, -1,
      81, 298, 299, -1,
      81, 299, 76, -1,
      76, 299, 300, -1,
      76, 300, 77, -1,
      77, 300, 301, -1,
      77, 301, 78, -1,
      78, 301, 302, -1,
      78, 302, 73, -1,
      73, 302, 303, -1,
      73, 303, 74, -1,
      74, 303, 304, -1,
      74, 304, 75, -1,
      75, 304, 305, -1,
      75, 305, 70, -1,
      70, 305, 306, -1,
      70, 306, 71, -1,
      71, 306, 307, -1,
      71, 307, 72, -1,
      72, 307, 308, -1,
      72, 308, 68, -1,
      68, 308, 281, -1,
      308, 309, 281, -1,
      281, 309, 310, -1,
      281, 310, 282, -1,
      282, 310, 311, -1,
      282, 311, 283, -1,
      283, 311, 312, -1,
      283, 312, 284, -1,
      284, 312, 313, -1,
      284, 313, 285, -1,
      285, 313, 314, -1,
      285, 314, 286, -1,
      286, 314, 315, -1,
      286, 315, 287, -1,
      287, 315, 316, -1,
      287, 316, 288, -1,
      288, 316, 317, -1,
      288, 317, 289, -1,
      289, 317, 318, -1,
      289, 318, 290, -1,
      290, 318, 319, -1,
      290, 319, 291, -1,
      291, 319, 320, -1,
      291, 320, 292, -1,
      292, 320, 321, -1,
      292, 321, 293, -1,
      293, 321, 322, -1,
      293, 322, 294, -1,
      294, 322, 323, -1,
      294, 323, 295, -1,
      295, 323, 324, -1,
      295, 324, 296, -1,
      296, 324, 325, -1,
      296, 325, 297, -1,
      297, 325, 326, -1,
      297, 326, 298, -1,
      298, 326, 327, -1,
      298, 327, 299, -1,
      299, 327, 328, -1,
      299, 328, 300, -1,
      300, 328, 329, -1,
      300, 329, 301, -1,
      301, 329, 330, -1,
      301, 330, 302, -1,
      302, 330, 331, -1,
      302, 331, 303, -1,
      303, 331, 332, -1,
      303, 332, 304, -1,
      304, 332, 333, -1,
      304, 333, 305, -1,
      305, 333, 334, -1,
      305, 334, 306, -1,
      306, 334, 335, -1,
      306, 335, 307, -1,
      307, 335, 336, -1,
      307, 336, 308, -1,
      308, 336, 309, -1,
      336, 337, 309, -1,
      309, 337, 338, -1,
      309, 338, 310, -1,
      310, 338, 339, -1,
      310, 339, 311, -1,
      311, 339, 340, -1,
      311, 340, 312, -1,
      312, 340, 341, -1,
      312, 341, 313, -1,
      313, 341, 342, -1,
      313, 342, 314, -1,
      314, 342, 343, -1,
      314, 343, 315, -1,
      315, 343, 344, -1,
      315, 344, 316, -1,
      316, 344, 345, -1,
      316, 345, 317, -1,
      317, 345, 346, -1,
      317, 346, 318, -1,
      318, 346, 347, -1,
      318, 347, 319, -1,
      319, 347, 348, -1,
      319, 348, 320, -1,
      320, 348, 349, -1,
      320, 349, 321, -1,
      321, 349, 350, -1,
      321, 350, 322, -1,
      322, 350, 351, -1,
      322, 351, 323, -1,
      323, 351, 352, -1,
      323, 352, 324, -1,
      324, 352, 353, -1,
      324, 353, 325, -1,
      325, 353, 354, -1,
      325, 354, 326, -1,
      326, 354, 355, -1,
      326, 355, 327, -1,
      327, 355, 356, -1,
      327, 356, 328, -1,
      328, 356, 357, -1,
      328, 357, 329, -1,
      329, 357, 358, -1,
      329, 358, 330, -1,
      330, 358, 359, -1,
      330, 359, 331, -1,
      331, 359, 360, -1,
      331, 360, 332, -1,
      332, 360, 361, -1,
      332, 361, 333, -1,
      333, 361, 362, -1,
      333, 362, 334, -1,
      334, 362, 363, -1,
      334, 363, 335, -1,
      335, 363, 364, -1,
      335, 364, 336, -1,
      336, 364, 337, -1,
      364, 365, 337, -1,
      337, 365, 366, -1,
      337, 366, 338, -1,
      338, 366, 367, -1,
      338, 367, 339, -1,
      339, 367, 368, -1,
      339, 368, 340, -1,
      340, 368, 369, -1,
      340, 369, 341, -1,
      341, 369, 370, -1,
      341, 370, 342, -1,
      342, 370, 371, -1,
      342, 371, 343, -1,
      343, 371, 372, -1,
      343, 372, 344, -1,
      344, 372, 373, -1,
      344, 373, 345, -1,
      345, 373, 374, -1,
      345, 374, 346, -1,
      346, 374, 375, -1,
      346, 375, 347, -1,
      347, 375, 376, -1,
      347, 376, 348, -1,
      348, 376, 377, -1,
      348, 377, 349, -1,
      349, 377, 378, -1,
      349, 378, 350, -1,
      350, 378, 379, -1,
      350, 379, 351, -1,
      351, 379, 380, -1,
      351, 380, 352, -1,
      352, 380, 381, -1,
      352, 381, 353, -1,
      353, 381, 382, -1,
      353, 382, 354, -1,
      354, 382, 383, -1,
      354, 383, 355, -1,
      355, 383, 384, -1,
      355, 384, 356, -1,
      356, 384, 385, -1,
      356, 385, 357, -1,
      357, 385, 386, -1,
      357, 386, 358, -1,
      358, 386, 387, -1,
      358, 387, 359, -1,
      359, 387, 388, -1,
      359, 388, 360, -1,
      360, 388, 389, -1,
      360, 389, 361, -1,
      361, 389, 390, -1,
      361, 390, 362, -1,
      362, 390, 391, -1,
      362, 391, 363, -1,
      363, 391, 392, -1,
      363, 392, 364, -1,
      364, 392, 365, -1,
      392, 393, 365, -1,
      365, 393, 394, -1,
      365, 394, 366, -1,
      366, 394, 395, -1,
      366, 395, 367, -1,
      367, 395, 396, -1,
      367, 396, 368, -1,
      368, 396, 397, -1,
      368, 397, 369, -1,
      369, 397, 398, -1,
      369, 398, 370, -1,
      370, 398, 399, -1,
      370, 399, 371, -1,
      371, 399, 400, -1,
      371, 400, 372, -1,
      372, 400, 401, -1,
      372, 401, 373, -1,
      373, 401, 402, -1,
      373, 402, 374, -1,
      374, 402, 403, -1,
      374, 403, 375, -1,
      375, 403, 404, -1,
      375, 404, 376, -1,
      376, 404, 405, -1,
      376, 405, 377, -1,
      377, 405, 406, -1,
      377, 406, 378, -1,
      378, 406, 407, -1,
      378, 407, 379, -1,
      379, 407, 408, -1,
      379, 408, 380, -1,
      380, 408, 409, -1,
      380, 409, 381, -1,
      381, 409, 410, -1,
      381, 410, 382, -1,
      382, 410, 411, -1,
      382, 411, 383, -1,
      383, 411, 412, -1,
      383, 412, 384, -1,
      384, 412, 413, -1,
      384, 413, 385, -1,
      385, 413, 414, -1,
      385, 414, 386, -1,
      386, 414, 415, -1,
      386, 415, 387, -1,
      387, 415, 416, -1,
      387, 416, 388, -1,
      388, 416, 417, -1,
      388, 417, 389, -1,
      389, 417, 418, -1,
      389, 418, 390, -1,
      390, 418, 419, -1,
      390, 419, 391, -1,
      391, 419, 420, -1,
      391, 420, 392, -1,
      392, 420, 393, -1,
      420, 67, 393, -1,
      393, 67, 66, -1,
      393, 66, 394, -1,
      394, 66, 65, -1,
      394, 65, 395, -1,
      395, 65, 64, -1,
      395, 64, 396, -1,
      396, 64, 63, -1,
      396, 63, 397, -1,
      397, 63, 61, -1,
      397, 61, 398, -1,
      398, 61, 60, -1,
      398, 60, 399, -1,
      399, 60, 59, -1,
      399, 59, 400, -1,
      400, 59, 58, -1,
      400, 58, 401, -1,
      401, 58, 57, -1,
      401, 57, 402, -1,
      402, 57, 56, -1,
      402, 56, 403, -1,
      403, 56, 55, -1,
      403, 55, 404, -1,
      404, 55, 53, -1,
      404, 53, 405, -1,
      405, 53, 52, -1,
      405, 52, 406, -1,
      406, 52, 51, -1,
      406, 51, 407, -1,
      407, 51, 50, -1,
      407, 50, 408, -1,
      408, 50, 49, -1,
      408, 49, 409, -1,
      409, 49, 48, -1,
      409, 48, 410, -1,
      410, 48, 47, -1,
      410, 47, 411, -1,
      411, 47, 46, -1,
      411, 46, 412, -1,
      412, 46, 42, -1,
      412, 42, 413, -1,
      413, 42, 44, -1,
      413, 44, 414, -1,
      414, 44, 45, -1,
      414, 45, 415, -1,
      415, 45, 41, -1,
      415, 41, 416, -1,
      416, 41, 40, -1,
      416, 40, 417, -1,
      417, 40, 39, -1,
      417, 39, 418, -1,
      418, 39, 38, -1,
      418, 38, 419, -1,
      419, 38, 37, -1,
      419, 37, 420, -1,
      420, 37, 67, -1,
    ]
  }
}
