#VRML V2.0 utf8

Shape {
  appearance Appearance {
    material Material {
      diffuseColor 0.2510 0.2510 0.2510
      specularColor 0.1255 0.1255 0.1255
      ambientIntensity 0.2
      transparency 0.0000
      shininess 0.5
    }
  }
  geometry IndexedFaceSet {
    ccw TRUE
    solid FALSE
    coord DEF co Coordinate {
      point [
        -0.046243 -1.161417 -0.078740,
        -0.163386 -1.161417 -0.078740,
        -0.046243 -0.726949 -0.078740,
        -0.163386 -0.994094 -0.078740,
        -0.336614 -0.994094 -0.078740,
        -1.013780 -0.726949 -0.078740,
        -0.836614 -1.161417 -0.078740,
        -1.013780 -1.161417 -0.078740,
        -0.836614 -0.994094 -0.078740,
        -0.663386 -0.994094 -0.078740,
        -0.663386 -1.161417 -0.078740,
        -0.336614 -1.161417 -0.078740,
        1.013780 -1.161417 -0.078740,
        0.836614 -1.161417 -0.078740,
        1.013780 -0.726949 -0.078740,
        0.836614 -0.994094 -0.078740,
        0.663386 -1.161417 -0.078740,
        0.336614 -1.161417 -0.078740,
        0.663386 -0.994094 -0.078740,
        0.336614 -0.994094 -0.078740,
        0.076227 -0.726949 -0.078740,
        0.080971 -0.727614 -0.078740,
        0.163386 -0.994094 -0.078740,
        0.084200 -0.727670 -0.078740,
        0.091146 -0.726949 -0.078740,
        -0.046243 1.161417 -0.078740,
        0.163386 1.161417 -0.078740,
        0.163386 0.915354 -0.078740,
        -0.034720 -0.713266 -0.078740,
        -0.034720 -0.726229 -0.078740,
        0.028656 -0.726229 -0.078740,
        0.051702 -0.720107 -0.078740,
        0.051702 -0.707144 -0.078740,
        0.028656 -0.608119 -0.078740,
        0.163386 -1.161417 -0.078740,
        0.064292 -0.725277 -0.078740,
        0.124016 0.915354 -0.078740,
        0.124016 0.875984 -0.078740,
        -0.031839 -0.608119 -0.078740,
        0.012812 -0.672935 -0.078740,
        0.012812 -0.713266 -0.078740,
        -0.028959 -0.672935 -0.078740,
        -0.028959 -0.659972 -0.078740,
        -0.031839 -0.621082 -0.078740,
        0.012812 -0.659972 -0.078740,
        0.012812 -0.621082 -0.078740,
        0.887795 -0.393701 -0.078740,
        1.013780 -0.393701 -0.078740,
        0.887795 -0.433071 -0.078740,
        0.090992 -0.620948 -0.078740,
        0.099832 -0.624138 -0.078740,
        0.053819 -0.708317 -0.078740,
        0.108007 -0.629607 -0.078740,
        0.115139 -0.637481 -0.078740,
        0.123720 -0.668434 -0.078740,
        0.122524 -0.681220 -0.078740,
        0.119316 -0.691380 -0.078740,
        0.093034 -0.713470 -0.078740,
        0.082017 -0.714706 -0.078740,
        0.101640 -0.710302 -0.078740,
        0.108889 -0.705417 -0.078740,
        0.114431 -0.699569 -0.078740,
        0.066339 -0.712966 -0.078740,
        0.120009 -0.646601 -0.078740,
        0.123157 -0.659244 -0.078740,
        0.210143 -0.726229 -0.078740,
        0.149647 -0.726229 -0.078740,
        0.098756 -0.726160 -0.078740,
        0.110204 -0.722220 -0.078740,
        0.194298 -0.608119 -0.078740,
        0.157480 -0.433071 -0.078740,
        0.210143 -0.608119 -0.078740,
        0.157480 0.875984 -0.078740,
        0.115745 -0.617930 -0.078740,
        0.126408 -0.628185 -0.078740,
        0.133331 -0.639228 -0.078740,
        0.119704 -0.716153 -0.078740,
        0.128576 -0.706813 -0.078740,
        0.149647 -0.713266 -0.078740,
        0.134868 -0.695583 -0.078740,
        0.194298 -0.713266 -0.078740,
        0.138422 -0.683081 -0.078740,
        0.139565 -0.669402 -0.078740,
        0.137865 -0.652610 -0.078740,
        0.104527 -0.611472 -0.078740,
        0.091360 -0.607647 -0.078740,
        0.079497 -0.606678 -0.078740,
        0.065357 -0.607654 -0.078740,
        0.051702 -0.611360 -0.078740,
        0.051702 -0.627204 -0.078740,
        0.065006 -0.621507 -0.078740,
        0.079362 -0.619642 -0.078740,
        -0.089881 -0.726229 -0.078740,
        -0.057766 -0.726229 -0.078740,
        -0.057766 -0.608119 -0.078740,
        -0.221968 -0.608119 -0.078740,
        -0.268060 -0.726229 -0.078740,
        -0.161472 -0.726229 -0.078740,
        -0.146932 -0.693857 -0.078740,
        -0.140159 -0.704422 -0.078740,
        -0.163386 0.915354 -0.078740,
        -0.163386 1.161417 -0.078740,
        -0.124016 0.915354 -0.078740,
        -0.124016 0.875984 -0.078740,
        -0.250775 -0.726229 -0.078740,
        -0.130437 -0.713730 -0.078740,
        -0.118105 -0.720897 -0.078740,
        -0.104496 -0.724954 -0.078740,
        -0.091097 -0.608119 -0.078740,
        -0.157480 -0.433071 -0.078740,
        -0.157480 0.875984 -0.078740,
        -0.108161 -0.609943 -0.078740,
        -0.121980 -0.614795 -0.078740,
        -0.134835 -0.623411 -0.078740,
        -0.134959 -0.623519 -0.078740,
        -0.143311 -0.632780 -0.078740,
        -0.206124 -0.608119 -0.078740,
        -0.148800 -0.642938 -0.078740,
        -0.178757 -0.726229 -0.078740,
        -0.190032 -0.693101 -0.078740,
        -0.238825 -0.693101 -0.078740,
        -1.013780 -0.393701 -0.078740,
        -0.887795 -0.393701 -0.078740,
        -0.887795 -0.433071 -0.078740,
        -0.151972 -0.654575 -0.078740,
        -0.152830 -0.665689 -0.078740,
        -0.151173 -0.681495 -0.078740,
        -1.013780 1.161417 -0.078740,
        -0.836614 1.161417 -0.078740,
        -0.836614 0.994094 -0.078740,
        -0.897638 0.954724 -0.078740,
        -0.897638 0.836614 -0.078740,
        -1.013780 -0.295276 -0.078740,
        -0.858268 0.836614 -0.078740,
        -0.858268 -0.216535 -0.078740,
        -0.887795 -0.216535 -0.078740,
        -0.887795 -0.255906 -0.078740,
        -0.927165 -0.295276 -0.078740,
        -0.893070 -0.275591 -0.078740,
        -0.899326 -0.283744 -0.078740,
        -0.907480 -0.290001 -0.078740,
        -0.889137 -0.266095 -0.078740,
        -0.916976 -0.293934 -0.078740,
        -1.013780 1.161417 0.000000,
        -1.013780 -0.295276 0.000000,
        0.336614 1.161417 -0.078740,
        0.663386 1.161417 -0.078740,
        0.663386 1.072835 -0.078740,
        0.336614 1.072835 -0.078740,
        0.375984 1.033465 -0.078740,
        0.624016 1.033465 -0.078740,
        0.375984 0.994094 -0.078740,
        0.624016 0.994094 -0.078740,
        0.662044 1.062645 -0.078740,
        0.658111 1.053150 -0.078740,
        0.651855 1.044996 -0.078740,
        0.643701 1.038739 -0.078740,
        0.634206 1.034806 -0.078740,
        0.356299 1.038739 -0.078740,
        0.348145 1.044996 -0.078740,
        0.341889 1.053150 -0.078740,
        0.365794 1.034806 -0.078740,
        0.337956 1.062645 -0.078740,
        -0.375984 0.994094 -0.078740,
        -0.624016 0.994094 -0.078740,
        -0.375984 1.033465 -0.078740,
        -0.624016 1.033465 -0.078740,
        -0.336614 1.161417 -0.078740,
        -0.632776 1.034452 -0.078740,
        -0.641098 1.037363 -0.078740,
        -0.648563 1.042054 -0.078740,
        -0.654796 1.048288 -0.078740,
        -0.659487 1.055753 -0.078740,
        -0.662399 1.064074 -0.078740,
        -0.663386 1.072835 -0.078740,
        -0.663386 1.161417 -0.078740,
        -0.341889 1.053150 -0.078740,
        -0.348145 1.044996 -0.078740,
        -0.356299 1.038739 -0.078740,
        -0.365794 1.034806 -0.078740,
        -0.336614 1.072835 -0.078740,
        -0.337956 1.062645 -0.078740,
        1.013780 -0.393701 0.000000,
        1.013780 -1.161417 0.000000,
      ]
    }
    coordIndex [
      0, 1, 2, -1,
      2, 1, 3, -1,
      3, 4, 5, -1,
      6, 7, 8, -1,
      8, 7, 5, -1,
      8, 5, 9, -1,
      9, 5, 4, -1,
      9, 4, 10, -1,
      10, 4, 11, -1,
      12, 13, 14, -1,
      14, 13, 15, -1,
      16, 17, 18, -1,
      18, 17, 19, -1,
      20, 21, 22, -1,
      22, 21, 23, -1,
      22, 23, 19, -1,
      19, 23, 24, -1,
      19, 24, 18, -1,
      25, 26, 27, -1,
      28, 29, 2, -1,
      2, 29, 30, -1,
      31, 30, 32, -1,
      32, 30, 33, -1,
      34, 0, 22, -1,
      22, 0, 2, -1,
      22, 2, 20, -1,
      20, 2, 30, -1,
      20, 30, 35, -1,
      35, 30, 31, -1,
      27, 36, 25, -1,
      25, 36, 37, -1,
      25, 37, 38, -1,
      39, 40, 41, -1,
      41, 40, 28, -1,
      41, 28, 42, -1,
      42, 28, 43, -1,
      42, 43, 44, -1,
      44, 43, 45, -1,
      46, 47, 48, -1,
      48, 47, 14, -1,
      49, 50, 51, -1,
      51, 50, 52, -1,
      51, 52, 53, -1,
      54, 55, 51, -1,
      51, 55, 56, -1,
      57, 58, 59, -1,
      59, 58, 60, -1,
      56, 61, 51, -1,
      51, 61, 60, -1,
      51, 60, 62, -1,
      62, 60, 58, -1,
      53, 63, 51, -1,
      51, 63, 64, -1,
      51, 64, 54, -1,
      65, 24, 66, -1,
      66, 24, 67, -1,
      66, 67, 68, -1,
      69, 70, 71, -1,
      71, 70, 48, -1,
      71, 48, 65, -1,
      65, 48, 14, -1,
      65, 14, 24, -1,
      24, 14, 15, -1,
      24, 15, 18, -1,
      37, 72, 38, -1,
      38, 72, 70, -1,
      38, 70, 33, -1,
      73, 70, 74, -1,
      74, 70, 69, -1,
      74, 69, 75, -1,
      68, 76, 66, -1,
      66, 76, 77, -1,
      66, 77, 78, -1,
      78, 77, 79, -1,
      78, 79, 80, -1,
      79, 81, 80, -1,
      80, 81, 82, -1,
      80, 82, 69, -1,
      69, 82, 83, -1,
      69, 83, 75, -1,
      73, 84, 70, -1,
      70, 84, 85, -1,
      70, 85, 86, -1,
      86, 87, 70, -1,
      70, 87, 88, -1,
      70, 88, 33, -1,
      33, 88, 89, -1,
      33, 89, 32, -1,
      32, 89, 90, -1,
      32, 90, 51, -1,
      51, 90, 91, -1,
      51, 91, 49, -1,
      92, 93, 2, -1,
      93, 94, 2, -1,
      2, 94, 25, -1,
      2, 25, 28, -1,
      28, 25, 38, -1,
      28, 38, 43, -1,
      95, 96, 5, -1,
      97, 98, 99, -1,
      100, 101, 102, -1,
      102, 101, 25, -1,
      102, 25, 103, -1,
      103, 25, 94, -1,
      3, 5, 2, -1,
      2, 5, 96, -1,
      2, 96, 104, -1,
      99, 105, 97, -1,
      97, 105, 106, -1,
      97, 106, 107, -1,
      108, 109, 94, -1,
      94, 109, 110, -1,
      94, 110, 103, -1,
      108, 111, 109, -1,
      109, 111, 112, -1,
      109, 112, 113, -1,
      114, 115, 116, -1,
      116, 115, 117, -1,
      107, 92, 97, -1,
      97, 92, 2, -1,
      97, 2, 118, -1,
      118, 2, 104, -1,
      118, 104, 119, -1,
      119, 104, 120, -1,
      121, 122, 5, -1,
      5, 122, 123, -1,
      5, 123, 95, -1,
      95, 123, 109, -1,
      95, 109, 116, -1,
      116, 109, 113, -1,
      116, 113, 114, -1,
      117, 124, 116, -1,
      116, 124, 125, -1,
      116, 125, 97, -1,
      97, 125, 126, -1,
      97, 126, 98, -1,
      127, 128, 129, -1,
      129, 130, 127, -1,
      127, 130, 131, -1,
      127, 131, 132, -1,
      133, 134, 131, -1,
      131, 134, 135, -1,
      131, 135, 132, -1,
      132, 135, 136, -1,
      132, 136, 137, -1,
      138, 139, 140, -1,
      136, 141, 137, -1,
      137, 141, 138, -1,
      137, 138, 142, -1,
      142, 138, 140, -1,
      143, 127, 144, -1,
      144, 127, 132, -1,
      145, 146, 147, -1,
      148, 145, 149, -1,
      149, 145, 150, -1,
      149, 150, 151, -1,
      151, 150, 152, -1,
      147, 153, 145, -1,
      145, 153, 154, -1,
      145, 154, 155, -1,
      155, 156, 145, -1,
      145, 156, 157, -1,
      145, 157, 150, -1,
      158, 159, 160, -1,
      149, 161, 148, -1,
      148, 161, 158, -1,
      148, 158, 162, -1,
      162, 158, 160, -1,
      163, 164, 165, -1,
      165, 164, 166, -1,
      167, 168, 169, -1,
      169, 170, 167, -1,
      167, 170, 171, -1,
      167, 171, 172, -1,
      172, 173, 167, -1,
      167, 173, 174, -1,
      167, 174, 175, -1,
      176, 177, 165, -1,
      165, 177, 178, -1,
      165, 178, 179, -1,
      168, 167, 166, -1,
      166, 167, 180, -1,
      166, 180, 165, -1,
      165, 180, 181, -1,
      165, 181, 176, -1,
      47, 182, 14, -1,
      14, 182, 183, -1,
      14, 183, 12, -1,
    ]
  }
}

Shape {
  appearance Appearance {
    material Material {
      diffuseColor 1.0000 1.0000 1.0000
      specularColor 0.5020 0.5020 0.5020
      ambientIntensity 0.2
      transparency 0.0000
      shininess 0.5
    }
  }
  geometry IndexedFaceSet {
    ccw TRUE
    solid FALSE
    coord DEF co Coordinate {
      point [
        0.663386 1.269685 -0.082677,
        0.663386 1.269685 0.000000,
        0.710925 1.269685 -0.082677,
        0.710925 1.269685 0.000000,
        0.836614 1.269685 0.000000,
        0.836614 1.269685 -0.082677,
        0.789075 1.269685 0.000000,
        0.789075 1.269685 -0.082677,
        0.163386 1.269685 -0.082677,
        0.163386 1.269685 0.000000,
        0.210925 1.269685 -0.082677,
        0.210925 1.269685 0.000000,
        0.336614 1.269685 0.000000,
        0.336614 1.269685 -0.082677,
        0.289075 1.269685 0.000000,
        0.289075 1.269685 -0.082677,
        -0.336614 1.269685 -0.082677,
        -0.336614 1.269685 0.000000,
        -0.289075 1.269685 -0.082677,
        -0.289075 1.269685 0.000000,
        -0.163386 1.269685 0.000000,
        -0.163386 1.269685 -0.082677,
        -0.210925 1.269685 0.000000,
        -0.210925 1.269685 -0.082677,
        -0.836614 1.269685 -0.082677,
        -0.836614 1.269685 0.000000,
        -0.789075 1.269685 -0.082677,
        -0.789075 1.269685 0.000000,
        -0.663386 1.269685 0.000000,
        -0.663386 1.269685 -0.082677,
        -0.710925 1.269685 0.000000,
        -0.710925 1.269685 -0.082677,
      ]
    }
    coordIndex [
      0, 1, 2, -1,
      2, 1, 3, -1,
      4, 5, 6, -1,
      6, 5, 7, -1,
      8, 9, 10, -1,
      10, 9, 11, -1,
      12, 13, 14, -1,
      14, 13, 15, -1,
      16, 17, 18, -1,
      18, 17, 19, -1,
      20, 21, 22, -1,
      22, 21, 23, -1,
      24, 25, 26, -1,
      26, 25, 27, -1,
      28, 29, 30, -1,
      30, 29, 31, -1,
    ]
  }
}

Shape {
  appearance Appearance {
    material Material {
      diffuseColor 0.2510 0.2510 0.2510
      specularColor 0.1255 0.1255 0.1255
      ambientIntensity 0.2
      transparency 0.0000
      shininess 0.5
    }
  }
  geometry IndexedFaceSet {
    ccw TRUE
    solid FALSE
    coord DEF co Coordinate {
      point [
        0.163386 1.161417 -0.078740,
        -0.163386 1.161417 -0.078740,
        -1.013780 1.161417 -0.078740,
        -0.836614 1.161417 -0.078740,
        -1.013780 1.161417 0.000000,
        0.336614 1.161417 -0.078740,
        0.663386 1.161417 -0.078740,
        -0.336614 1.161417 -0.078740,
        -0.663386 1.161417 -0.078740,
        -0.836614 1.161417 0.000000,
        -0.663386 1.161417 0.000000,
        -0.336614 1.161417 0.000000,
        0.887795 -0.216535 -0.078740,
        0.858268 -0.216535 -0.078740,
        0.858268 0.836614 -0.078740,
        0.836614 0.994094 -0.078740,
        0.836614 1.161417 -0.078740,
        0.897638 0.954724 -0.078740,
        1.013780 1.161417 -0.078740,
        0.897638 0.836614 -0.078740,
        1.013780 -0.295276 -0.078740,
        0.887795 -0.255906 -0.078740,
        0.927165 -0.295276 -0.078740,
        0.889137 -0.266095 -0.078740,
        0.916976 -0.293934 -0.078740,
        0.907480 -0.290001 -0.078740,
        0.899326 -0.283744 -0.078740,
        0.893070 -0.275591 -0.078740,
        -0.163386 1.161417 0.000000,
        0.163386 1.161417 0.000000,
        0.336614 1.161417 0.000000,
        0.663386 1.161417 0.000000,
        0.836614 1.161417 0.000000,
        1.013780 1.161417 0.000000,
      ]
    }
    coordIndex [
      3, 2, 9, -1,
      9, 2, 4, -1,
      10, 11, 8, -1,
      8, 11, 7, -1,
      12, 13, 14, -1,
      15, 16, 17, -1,
      17, 16, 18, -1,
      17, 18, 19, -1,
      19, 18, 20, -1,
      14, 19, 12, -1,
      12, 19, 20, -1,
      12, 20, 21, -1,
      21, 20, 22, -1,
      21, 22, 23, -1,
      22, 24, 25, -1,
      25, 26, 22, -1,
      22, 26, 27, -1,
      22, 27, 23, -1,
      28, 29, 1, -1,
      1, 29, 0, -1,
      30, 31, 5, -1,
      5, 31, 6, -1,
      32, 33, 16, -1,
      16, 33, 18, -1,
    ]
  }
}

Shape {
  appearance Appearance {
    material Material {
      diffuseColor 1.0000 1.0000 1.0000
      specularColor 0.5020 0.5020 0.5020
      ambientIntensity 0.2
      transparency 0.0000
      shininess 0.5
    }
  }
  geometry IndexedFaceSet {
    ccw TRUE
    solid FALSE
    coord DEF co Coordinate {
      point [
        0.163386 -1.269685 0.000000,
        0.163386 -1.269685 -0.082677,
        0.210925 -1.269685 0.000000,
        0.210925 -1.269685 -0.082677,
        -0.336614 -1.269685 0.000000,
        -0.336614 -1.269685 -0.082677,
        -0.289075 -1.269685 0.000000,
        -0.289075 -1.269685 -0.082677,
        -0.836614 -1.269685 0.000000,
        -0.836614 -1.269685 -0.082677,
        -0.789075 -1.269685 0.000000,
        -0.789075 -1.269685 -0.082677,
      ]
    }
    coordIndex [
      0, 1, 2, -1,
      2, 1, 3, -1,
      4, 5, 6, -1,
      6, 5, 7, -1,
      8, 9, 10, -1,
      10, 9, 11, -1,
    ]
  }
}

Shape {
  appearance Appearance {
    material Material {
      diffuseColor 0.2510 0.2510 0.2510
      specularColor 0.1255 0.1255 0.1255
      ambientIntensity 0.2
      transparency 0.0000
      shininess 0.5
    }
  }
  geometry IndexedFaceSet {
    ccw TRUE
    solid FALSE
    coord DEF co Coordinate {
      point [
        -0.163386 -1.161417 -0.078740,
        -0.836614 -1.161417 -0.078740,
        -1.013780 -1.161417 -0.078740,
        -0.663386 -1.161417 -0.078740,
        -0.336614 -1.161417 -0.078740,
        0.163386 -1.161417 -0.078740,
        -1.013780 -1.161417 0.000000,
        -0.836614 -1.161417 0.000000,
        -0.336614 -1.161417 0.000000,
        -0.663386 -1.161417 0.000000,
        0.163386 -1.161417 0.000000,
        -0.163386 -1.161417 0.000000,
      ]
    }
    coordIndex [
      6, 2, 7, -1,
      7, 2, 1, -1,
      4, 8, 3, -1,
      3, 8, 9, -1,
      5, 10, 0, -1,
      0, 10, 11, -1,
    ]
  }
}

Shape {
  appearance Appearance {
    material Material {
      diffuseColor 1.0000 1.0000 1.0000
      specularColor 0.5020 0.5020 0.5020
      ambientIntensity 0.2
      transparency 0.0000
      shininess 0.5
    }
  }
  geometry IndexedFaceSet {
    ccw TRUE
    solid FALSE
    coord DEF co Coordinate {
      point [
        0.663386 -1.269685 0.000000,
        0.663386 -1.269685 -0.082677,
        0.710925 -1.269685 0.000000,
        0.710925 -1.269685 -0.082677,
      ]
    }
    coordIndex [
      0, 1, 2, -1,
      2, 1, 3, -1,
    ]
  }
}

Shape {
  appearance Appearance {
    material Material {
      diffuseColor 0.2510 0.2510 0.2510
      specularColor 0.1255 0.1255 0.1255
      ambientIntensity 0.2
      transparency 0.0000
      shininess 0.5
    }
  }
  geometry IndexedFaceSet {
    ccw TRUE
    solid FALSE
    coord DEF co Coordinate {
      point [
        -1.013780 -0.726949 -0.078740,
        -1.013780 -1.161417 -0.078740,
        1.013780 -1.161417 -0.078740,
        0.836614 -1.161417 -0.078740,
        0.663386 -1.161417 -0.078740,
        0.336614 -1.161417 -0.078740,
        -1.013780 -0.393701 -0.078740,
        -1.013780 1.161417 0.000000,
        -1.013780 -0.295276 0.000000,
        1.013780 -0.393701 0.000000,
        1.013780 -1.161417 0.000000,
        -0.836614 1.161417 0.000000,
        -0.663386 1.161417 0.000000,
        -0.336614 1.161417 0.000000,
        1.013780 1.161417 -0.078740,
        1.013780 -0.295276 -0.078740,
        -0.163386 1.161417 0.000000,
        0.163386 1.161417 0.000000,
        0.336614 1.161417 0.000000,
        0.663386 1.161417 0.000000,
        0.836614 1.161417 0.000000,
        1.013780 1.161417 0.000000,
        -1.013780 -1.161417 0.000000,
        -0.836614 -1.161417 0.000000,
        -0.336614 -1.161417 0.000000,
        -0.663386 -1.161417 0.000000,
        0.163386 -1.161417 0.000000,
        -0.163386 -1.161417 0.000000,
        0.663386 -1.161417 0.000000,
        0.336614 -1.161417 0.000000,
        1.013780 -0.295276 0.000000,
        0.836614 -1.161417 0.000000,
        -1.013780 -0.393701 0.000000,
        0.986224 1.133862 0.314961,
        0.986224 -1.133862 0.314961,
        -0.986224 1.133862 0.314961,
        -0.986224 -1.133862 0.314961,
        -0.764650 -0.796670 0.314961,
        -0.741772 -0.799683 0.314961,
        -0.702144 -0.822561 0.314961,
        -0.688096 -0.840869 0.314961,
        -0.676253 -0.885068 0.314961,
        -0.679265 -0.907947 0.314961,
        -0.688096 -0.929267 0.314961,
        -0.702144 -0.947574 0.314961,
        -0.679265 -0.862189 0.314961,
        -0.787529 -0.970453 0.314961,
        -0.808849 -0.961622 0.314961,
        -0.827157 -0.947574 0.314961,
        -0.841205 -0.929267 0.314961,
        -0.850036 -0.907947 0.314961,
        -0.720452 -0.808513 0.314961,
        -0.720452 -0.961622 0.314961,
        -0.741772 -0.970453 0.314961,
        -0.764650 -0.973465 0.314961,
        -0.853048 -0.885068 0.314961,
        -0.850036 -0.862189 0.314961,
        -0.841205 -0.840869 0.314961,
        -0.827157 -0.822561 0.314961,
        -0.808849 -0.808513 0.314961,
        -0.787529 -0.799683 0.314961,
      ]
    }
    coordIndex [
      4, 28, 5, -1,
      5, 28, 29, -1,
      14, 21, 15, -1,
      15, 21, 30, -1,
      2, 10, 3, -1,
      3, 10, 31, -1,
      1, 22, 0, -1,
      0, 22, 32, -1,
      0, 32, 6, -1,
      21, 33, 30, -1,
      30, 33, 34, -1,
      30, 34, 9, -1,
      9, 34, 10, -1,
      21, 20, 33, -1,
      33, 20, 19, -1,
      19, 18, 33, -1,
      33, 18, 17, -1,
      33, 17, 35, -1,
      35, 17, 16, -1,
      35, 16, 13, -1,
      13, 12, 35, -1,
      35, 12, 11, -1,
      35, 11, 7, -1,
      36, 35, 7, -1,
      7, 8, 36, -1,
      36, 8, 32, -1,
      36, 32, 22, -1,
      22, 23, 36, -1,
      36, 23, 25, -1,
      25, 24, 36, -1,
      36, 24, 27, -1,
      36, 27, 34, -1,
      34, 27, 26, -1,
      34, 26, 29, -1,
      29, 28, 34, -1,
      34, 28, 31, -1,
      34, 31, 10, -1,
      37, 38, 35, -1,
      39, 40, 33, -1,
      41, 42, 34, -1,
      34, 42, 43, -1,
      34, 43, 44, -1,
      33, 40, 34, -1,
      34, 40, 45, -1,
      34, 45, 41, -1,
      46, 47, 36, -1,
      47, 48, 36, -1,
      36, 48, 49, -1,
      36, 49, 50, -1,
      35, 38, 33, -1,
      33, 38, 51, -1,
      33, 51, 39, -1,
      44, 52, 34, -1,
      34, 52, 53, -1,
      34, 53, 36, -1,
      36, 53, 54, -1,
      36, 54, 46, -1,
      50, 55, 36, -1,
      36, 55, 56, -1,
      36, 56, 35, -1,
      35, 56, 57, -1,
      35, 57, 58, -1,
      58, 59, 35, -1,
      35, 59, 60, -1,
      35, 60, 37, -1,
    ]
  }
}

Shape {
  appearance Appearance {
    material Material {
      diffuseColor 0.7529 0.7529 0.7529
      specularColor 0.3765 0.3765 0.3765
      ambientIntensity 0.2
      transparency 0.0000
      shininess 0.5
    }
  }
  geometry IndexedFaceSet {
    ccw TRUE
    solid FALSE
    coord DEF co Coordinate {
      point [
        -0.764650 -0.796670 0.314961,
        -0.741772 -0.799683 0.314961,
        -0.702144 -0.822561 0.314961,
        -0.688096 -0.840869 0.314961,
        -0.676253 -0.885068 0.314961,
        -0.679265 -0.907947 0.314961,
        -0.688096 -0.929267 0.314961,
        -0.702144 -0.947574 0.314961,
        -0.679265 -0.862189 0.314961,
        -0.787529 -0.970453 0.314961,
        -0.808849 -0.961622 0.314961,
        -0.827157 -0.947574 0.314961,
        -0.841205 -0.929267 0.314961,
        -0.850036 -0.907947 0.314961,
        -0.720452 -0.808513 0.314961,
        -0.720452 -0.961622 0.314961,
        -0.741772 -0.970453 0.314961,
        -0.764650 -0.973465 0.314961,
        -0.853048 -0.885068 0.314961,
        -0.850036 -0.862189 0.314961,
        -0.841205 -0.840869 0.314961,
        -0.827157 -0.822561 0.314961,
        -0.808849 -0.808513 0.314961,
        -0.787529 -0.799683 0.314961,
        -0.676253 -0.885068 0.314567,
        -0.679265 -0.862189 0.314567,
        -0.688096 -0.840869 0.314567,
        -0.702144 -0.822561 0.314567,
        -0.720452 -0.808513 0.314567,
        -0.741772 -0.799683 0.314567,
        -0.764650 -0.796670 0.314567,
        -0.787529 -0.799683 0.314567,
        -0.808849 -0.808513 0.314567,
        -0.827157 -0.822561 0.314567,
        -0.841205 -0.840869 0.314567,
        -0.850036 -0.862189 0.314567,
        -0.853048 -0.885068 0.314567,
        -0.850036 -0.907947 0.314567,
        -0.841205 -0.929267 0.314567,
        -0.827157 -0.947574 0.314567,
        -0.808849 -0.961622 0.314567,
        -0.787529 -0.970453 0.314567,
        -0.764650 -0.973465 0.314567,
        -0.741772 -0.970453 0.314567,
        -0.720452 -0.961622 0.314567,
        -0.702144 -0.947574 0.314567,
        -0.688096 -0.929267 0.314567,
        -0.679265 -0.907947 0.314567,
        -0.764650 -0.885068 0.314567,
      ]
    }
    coordIndex [
      24, 4, 25, -1,
      25, 4, 8, -1,
      25, 8, 26, -1,
      26, 8, 3, -1,
      26, 3, 27, -1,
      27, 3, 2, -1,
      27, 2, 28, -1,
      28, 2, 14, -1,
      28, 14, 29, -1,
      29, 14, 1, -1,
      29, 1, 30, -1,
      30, 1, 0, -1,
      30, 0, 31, -1,
      31, 0, 23, -1,
      31, 23, 32, -1,
      32, 23, 22, -1,
      32, 22, 33, -1,
      33, 22, 21, -1,
      33, 21, 34, -1,
      34, 21, 20, -1,
      34, 20, 35, -1,
      35, 20, 19, -1,
      35, 19, 36, -1,
      36, 19, 18, -1,
      36, 18, 37, -1,
      37, 18, 13, -1,
      37, 13, 38, -1,
      38, 13, 12, -1,
      38, 12, 39, -1,
      39, 12, 11, -1,
      39, 11, 40, -1,
      40, 11, 10, -1,
      40, 10, 41, -1,
      41, 10, 9, -1,
      41, 9, 42, -1,
      42, 9, 17, -1,
      42, 17, 43, -1,
      43, 17, 16, -1,
      43, 16, 44, -1,
      44, 16, 15, -1,
      44, 15, 45, -1,
      45, 15, 7, -1,
      45, 7, 46, -1,
      46, 7, 6, -1,
      46, 6, 47, -1,
      47, 6, 5, -1,
      47, 5, 24, -1,
      24, 5, 4, -1,
      46, 47, 48, -1,
      48, 47, 24, -1,
      48, 24, 25, -1,
      43, 44, 48, -1,
      48, 44, 45, -1,
      48, 45, 46, -1,
      40, 41, 48, -1,
      48, 41, 42, -1,
      48, 42, 43, -1,
      37, 38, 48, -1,
      48, 38, 39, -1,
      48, 39, 40, -1,
      34, 35, 48, -1,
      48, 35, 36, -1,
      48, 36, 37, -1,
      31, 32, 48, -1,
      48, 32, 33, -1,
      48, 33, 34, -1,
      28, 29, 48, -1,
      48, 29, 30, -1,
      48, 30, 31, -1,
      25, 26, 48, -1,
      48, 26, 27, -1,
      48, 27, 28, -1,
    ]
  }
}

Shape {
  appearance Appearance {
    material Material {
      diffuseColor 1.0000 1.0000 1.0000
      specularColor 0.5020 0.5020 0.5020
      ambientIntensity 0.2
      transparency 0.0000
      shininess 0.5
    }
  }
  geometry IndexedFaceSet {
    ccw TRUE
    solid FALSE
    coord DEF co Coordinate {
      point [
        -0.163386 -1.161417 -0.078740,
        -0.163386 -0.994094 -0.078740,
        -0.336614 -0.994094 -0.078740,
        -0.836614 -1.161417 -0.078740,
        -0.836614 -0.994094 -0.078740,
        -0.663386 -0.994094 -0.078740,
        -0.663386 -1.161417 -0.078740,
        -0.336614 -1.161417 -0.078740,
        0.836614 -1.161417 -0.078740,
        0.836614 -0.994094 -0.078740,
        0.663386 -1.161417 -0.078740,
        0.336614 -1.161417 -0.078740,
        0.663386 -0.994094 -0.078740,
        0.336614 -0.994094 -0.078740,
        0.076227 -0.726949 -0.078740,
        0.080971 -0.727614 -0.078740,
        0.163386 -0.994094 -0.078740,
        0.084200 -0.727670 -0.078740,
        0.091146 -0.726949 -0.078740,
        0.163386 1.161417 -0.078740,
        0.163386 0.915354 -0.078740,
        -0.034720 -0.713266 -0.078740,
        -0.034720 -0.726229 -0.078740,
        0.028656 -0.726229 -0.078740,
        0.051702 -0.720107 -0.078740,
        0.051702 -0.707144 -0.078740,
        0.028656 -0.608119 -0.078740,
        0.163386 -1.161417 -0.078740,
        0.064292 -0.725277 -0.078740,
        0.124016 0.915354 -0.078740,
        0.124016 0.875984 -0.078740,
        -0.031839 -0.608119 -0.078740,
        0.012812 -0.672935 -0.078740,
        0.012812 -0.713266 -0.078740,
        -0.028959 -0.672935 -0.078740,
        -0.028959 -0.659972 -0.078740,
        -0.031839 -0.621082 -0.078740,
        0.012812 -0.659972 -0.078740,
        0.012812 -0.621082 -0.078740,
        0.887795 -0.393701 -0.078740,
        1.013780 -0.393701 -0.078740,
        0.887795 -0.433071 -0.078740,
        0.090992 -0.620948 -0.078740,
        0.099832 -0.624138 -0.078740,
        0.053819 -0.708317 -0.078740,
        0.108007 -0.629607 -0.078740,
        0.115139 -0.637481 -0.078740,
        0.123720 -0.668434 -0.078740,
        0.122524 -0.681220 -0.078740,
        0.119316 -0.691380 -0.078740,
        0.093034 -0.713470 -0.078740,
        0.082017 -0.714706 -0.078740,
        0.101640 -0.710302 -0.078740,
        0.108889 -0.705417 -0.078740,
        0.114431 -0.699569 -0.078740,
        0.066339 -0.712966 -0.078740,
        0.120009 -0.646601 -0.078740,
        0.123157 -0.659244 -0.078740,
        0.210143 -0.726229 -0.078740,
        0.149647 -0.726229 -0.078740,
        0.098756 -0.726160 -0.078740,
        0.110204 -0.722220 -0.078740,
        0.194298 -0.608119 -0.078740,
        0.157480 -0.433071 -0.078740,
        0.210143 -0.608119 -0.078740,
        0.157480 0.875984 -0.078740,
        0.115745 -0.617930 -0.078740,
        0.126408 -0.628185 -0.078740,
        0.133331 -0.639228 -0.078740,
        0.119704 -0.716153 -0.078740,
        0.128576 -0.706813 -0.078740,
        0.149647 -0.713266 -0.078740,
        0.134868 -0.695583 -0.078740,
        0.194298 -0.713266 -0.078740,
        0.138422 -0.683081 -0.078740,
        0.139565 -0.669402 -0.078740,
        0.137865 -0.652610 -0.078740,
        0.104527 -0.611472 -0.078740,
        0.091360 -0.607647 -0.078740,
        0.079497 -0.606678 -0.078740,
        0.065357 -0.607654 -0.078740,
        0.051702 -0.611360 -0.078740,
        0.051702 -0.627204 -0.078740,
        0.065006 -0.621507 -0.078740,
        0.079362 -0.619642 -0.078740,
        -0.089881 -0.726229 -0.078740,
        -0.057766 -0.726229 -0.078740,
        -0.057766 -0.608119 -0.078740,
        -0.221968 -0.608119 -0.078740,
        -0.268060 -0.726229 -0.078740,
        -0.161472 -0.726229 -0.078740,
        -0.146932 -0.693857 -0.078740,
        -0.140159 -0.704422 -0.078740,
        -0.163386 0.915354 -0.078740,
        -0.163386 1.161417 -0.078740,
        -0.124016 0.915354 -0.078740,
        -0.124016 0.875984 -0.078740,
        -0.250775 -0.726229 -0.078740,
        -0.130437 -0.713730 -0.078740,
        -0.118105 -0.720897 -0.078740,
        -0.104496 -0.724954 -0.078740,
        -0.091097 -0.608119 -0.078740,
        -0.157480 -0.433071 -0.078740,
        -0.157480 0.875984 -0.078740,
        -0.108161 -0.609943 -0.078740,
        -0.121980 -0.614795 -0.078740,
        -0.134835 -0.623411 -0.078740,
        -0.134959 -0.623519 -0.078740,
        -0.143311 -0.632780 -0.078740,
        -0.206124 -0.608119 -0.078740,
        -0.148800 -0.642938 -0.078740,
        -0.178757 -0.726229 -0.078740,
        -0.190032 -0.693101 -0.078740,
        -0.238825 -0.693101 -0.078740,
        -1.013780 -0.393701 -0.078740,
        -0.887795 -0.393701 -0.078740,
        -0.887795 -0.433071 -0.078740,
        -0.151972 -0.654575 -0.078740,
        -0.152830 -0.665689 -0.078740,
        -0.151173 -0.681495 -0.078740,
        -0.836614 1.161417 -0.078740,
        -0.836614 0.994094 -0.078740,
        -0.897638 0.954724 -0.078740,
        -0.897638 0.836614 -0.078740,
        -1.013780 -0.295276 -0.078740,
        -0.858268 0.836614 -0.078740,
        -0.858268 -0.216535 -0.078740,
        -0.887795 -0.216535 -0.078740,
        -0.887795 -0.255906 -0.078740,
        -0.927165 -0.295276 -0.078740,
        -0.893070 -0.275591 -0.078740,
        -0.899326 -0.283744 -0.078740,
        -0.907480 -0.290001 -0.078740,
        -0.889137 -0.266095 -0.078740,
        -0.916976 -0.293934 -0.078740,
        -1.013780 -0.295276 0.000000,
        0.336614 1.161417 -0.078740,
        0.663386 1.161417 -0.078740,
        0.663386 1.072835 -0.078740,
        0.336614 1.072835 -0.078740,
        0.375984 1.033465 -0.078740,
        0.624016 1.033465 -0.078740,
        0.375984 0.994094 -0.078740,
        0.624016 0.994094 -0.078740,
        0.662044 1.062645 -0.078740,
        0.658111 1.053150 -0.078740,
        0.651855 1.044996 -0.078740,
        0.643701 1.038739 -0.078740,
        0.634206 1.034806 -0.078740,
        0.356299 1.038739 -0.078740,
        0.348145 1.044996 -0.078740,
        0.341889 1.053150 -0.078740,
        0.365794 1.034806 -0.078740,
        0.337956 1.062645 -0.078740,
        -0.375984 0.994094 -0.078740,
        -0.624016 0.994094 -0.078740,
        -0.375984 1.033465 -0.078740,
        -0.624016 1.033465 -0.078740,
        -0.336614 1.161417 -0.078740,
        -0.632776 1.034452 -0.078740,
        -0.641098 1.037363 -0.078740,
        -0.648563 1.042054 -0.078740,
        -0.654796 1.048288 -0.078740,
        -0.659487 1.055753 -0.078740,
        -0.662399 1.064074 -0.078740,
        -0.663386 1.072835 -0.078740,
        -0.663386 1.161417 -0.078740,
        -0.341889 1.053150 -0.078740,
        -0.348145 1.044996 -0.078740,
        -0.356299 1.038739 -0.078740,
        -0.365794 1.034806 -0.078740,
        -0.336614 1.072835 -0.078740,
        -0.337956 1.062645 -0.078740,
        1.013780 -0.393701 0.000000,
        0.663386 1.269685 -0.082677,
        0.663386 1.269685 0.000000,
        0.710925 1.269685 -0.082677,
        0.710925 1.269685 0.000000,
        0.836614 1.269685 0.000000,
        0.836614 1.269685 -0.082677,
        0.789075 1.269685 0.000000,
        0.789075 1.269685 -0.082677,
        0.163386 1.269685 -0.082677,
        0.163386 1.269685 0.000000,
        0.210925 1.269685 -0.082677,
        0.210925 1.269685 0.000000,
        0.336614 1.269685 0.000000,
        0.336614 1.269685 -0.082677,
        0.289075 1.269685 0.000000,
        0.289075 1.269685 -0.082677,
        -0.336614 1.269685 -0.082677,
        -0.336614 1.269685 0.000000,
        -0.289075 1.269685 -0.082677,
        -0.289075 1.269685 0.000000,
        -0.163386 1.269685 0.000000,
        -0.163386 1.269685 -0.082677,
        -0.210925 1.269685 0.000000,
        -0.210925 1.269685 -0.082677,
        -0.836614 1.269685 -0.082677,
        -0.836614 1.269685 0.000000,
        -0.789075 1.269685 -0.082677,
        -0.789075 1.269685 0.000000,
        -0.663386 1.269685 0.000000,
        -0.663386 1.269685 -0.082677,
        -0.710925 1.269685 0.000000,
        -0.710925 1.269685 -0.082677,
        -0.836614 1.161417 0.000000,
        -0.663386 1.161417 0.000000,
        -0.336614 1.161417 0.000000,
        0.887795 -0.216535 -0.078740,
        0.858268 -0.216535 -0.078740,
        0.858268 0.836614 -0.078740,
        0.836614 0.994094 -0.078740,
        0.836614 1.161417 -0.078740,
        0.897638 0.954724 -0.078740,
        0.897638 0.836614 -0.078740,
        1.013780 -0.295276 -0.078740,
        0.887795 -0.255906 -0.078740,
        0.927165 -0.295276 -0.078740,
        0.889137 -0.266095 -0.078740,
        0.916976 -0.293934 -0.078740,
        0.907480 -0.290001 -0.078740,
        0.899326 -0.283744 -0.078740,
        0.893070 -0.275591 -0.078740,
        -0.163386 1.161417 0.000000,
        0.163386 1.161417 0.000000,
        0.336614 1.161417 0.000000,
        0.663386 1.161417 0.000000,
        0.836614 1.161417 0.000000,
        0.163386 -1.269685 0.000000,
        0.163386 -1.269685 -0.082677,
        0.210925 -1.269685 0.000000,
        0.210925 -1.269685 -0.082677,
        -0.336614 -1.269685 0.000000,
        -0.336614 -1.269685 -0.082677,
        -0.289075 -1.269685 0.000000,
        -0.289075 -1.269685 -0.082677,
        -0.836614 -1.269685 0.000000,
        -0.836614 -1.269685 -0.082677,
        -0.789075 -1.269685 0.000000,
        -0.789075 -1.269685 -0.082677,
        -0.836614 -1.161417 0.000000,
        -0.336614 -1.161417 0.000000,
        -0.663386 -1.161417 0.000000,
        0.163386 -1.161417 0.000000,
        -0.163386 -1.161417 0.000000,
        0.663386 -1.269685 0.000000,
        0.663386 -1.269685 -0.082677,
        0.710925 -1.269685 0.000000,
        0.710925 -1.269685 -0.082677,
        0.663386 -1.161417 0.000000,
        0.336614 -1.161417 0.000000,
        1.013780 -0.295276 0.000000,
        0.836614 -1.161417 0.000000,
        -1.013780 -0.393701 0.000000,
        0.836614 -0.994094 -0.082677,
        0.663386 -0.994094 -0.082677,
        0.712257 -1.259572 0.000000,
        0.760113 -1.231942 0.000000,
        0.769537 -1.235845 0.000000,
        0.777630 -1.242055 0.000000,
        0.783840 -1.250148 0.000000,
        0.836614 -1.269685 0.000000,
        0.787743 -1.259572 0.000000,
        0.789075 -1.269685 0.000000,
        0.716160 -1.250148 0.000000,
        0.722370 -1.242055 0.000000,
        0.730463 -1.235845 0.000000,
        0.739887 -1.231942 0.000000,
        0.750000 -1.230610 0.000000,
        0.836614 -1.269685 -0.082677,
        0.789075 -1.269685 -0.082677,
        0.787743 -1.259572 -0.082677,
        0.783840 -1.250148 -0.082677,
        0.777630 -1.242055 -0.082677,
        0.769537 -1.235845 -0.082677,
        0.730463 -1.235845 -0.082677,
        0.722370 -1.242055 -0.082677,
        0.716160 -1.250148 -0.082677,
        0.712257 -1.259572 -0.082677,
        0.760113 -1.231942 -0.082677,
        0.750000 -1.230610 -0.082677,
        0.739887 -1.231942 -0.082677,
        0.336614 -0.994094 -0.082677,
        0.163386 -0.994094 -0.082677,
        0.216160 -1.250148 0.000000,
        0.222370 -1.242055 0.000000,
        0.260113 -1.231942 0.000000,
        0.269537 -1.235845 0.000000,
        0.212257 -1.259572 0.000000,
        0.277630 -1.242055 0.000000,
        0.283840 -1.250148 0.000000,
        0.336614 -1.269685 0.000000,
        0.287743 -1.259572 0.000000,
        0.289075 -1.269685 0.000000,
        0.230463 -1.235845 0.000000,
        0.239887 -1.231942 0.000000,
        0.250000 -1.230610 0.000000,
        0.336614 -1.269685 -0.082677,
        0.289075 -1.269685 -0.082677,
        0.287743 -1.259572 -0.082677,
        0.277630 -1.242055 -0.082677,
        0.269537 -1.235845 -0.082677,
        0.283840 -1.250148 -0.082677,
        0.230463 -1.235845 -0.082677,
        0.222370 -1.242055 -0.082677,
        0.216160 -1.250148 -0.082677,
        0.212257 -1.259572 -0.082677,
        0.260113 -1.231942 -0.082677,
        0.250000 -1.230610 -0.082677,
        0.239887 -1.231942 -0.082677,
        -0.163386 -0.994094 -0.082677,
        -0.336614 -0.994094 -0.082677,
        -0.283840 -1.250148 0.000000,
        -0.277630 -1.242055 0.000000,
        -0.239887 -1.231942 0.000000,
        -0.230463 -1.235845 0.000000,
        -0.287743 -1.259572 0.000000,
        -0.222370 -1.242055 0.000000,
        -0.216160 -1.250148 0.000000,
        -0.163386 -1.269685 0.000000,
        -0.212257 -1.259572 0.000000,
        -0.210925 -1.269685 0.000000,
        -0.269537 -1.235845 0.000000,
        -0.260113 -1.231942 0.000000,
        -0.250000 -1.230610 0.000000,
        -0.163386 -1.269685 -0.082677,
        -0.210925 -1.269685 -0.082677,
        -0.212257 -1.259572 -0.082677,
        -0.222370 -1.242055 -0.082677,
        -0.230463 -1.235845 -0.082677,
        -0.216160 -1.250148 -0.082677,
        -0.269537 -1.235845 -0.082677,
        -0.277630 -1.242055 -0.082677,
        -0.283840 -1.250148 -0.082677,
        -0.287743 -1.259572 -0.082677,
        -0.239887 -1.231942 -0.082677,
        -0.250000 -1.230610 -0.082677,
        -0.260113 -1.231942 -0.082677,
        -0.663386 -0.994094 -0.082677,
        -0.836614 -0.994094 -0.082677,
        -0.787743 -1.259572 0.000000,
        -0.739887 -1.231942 0.000000,
        -0.730463 -1.235845 0.000000,
        -0.783840 -1.250148 0.000000,
        -0.777630 -1.242055 0.000000,
        -0.722370 -1.242055 0.000000,
        -0.716160 -1.250148 0.000000,
        -0.663386 -1.269685 0.000000,
        -0.712257 -1.259572 0.000000,
        -0.710925 -1.269685 0.000000,
        -0.769537 -1.235845 0.000000,
        -0.760113 -1.231942 0.000000,
        -0.750000 -1.230610 0.000000,
        -0.663386 -1.269685 -0.082677,
        -0.710925 -1.269685 -0.082677,
        -0.712257 -1.259572 -0.082677,
        -0.722370 -1.242055 -0.082677,
        -0.730463 -1.235845 -0.082677,
        -0.716160 -1.250148 -0.082677,
        -0.769537 -1.235845 -0.082677,
        -0.777630 -1.242055 -0.082677,
        -0.783840 -1.250148 -0.082677,
        -0.787743 -1.259572 -0.082677,
        -0.739887 -1.231942 -0.082677,
        -0.750000 -1.230610 -0.082677,
        -0.760113 -1.231942 -0.082677,
        0.787743 1.259572 0.000000,
        0.783840 1.250148 0.000000,
        0.777630 1.242055 0.000000,
        0.769537 1.235845 0.000000,
        0.730463 1.235845 0.000000,
        0.722370 1.242055 0.000000,
        0.716160 1.250148 0.000000,
        0.712257 1.259572 0.000000,
        0.760113 1.231942 0.000000,
        0.750000 1.230610 0.000000,
        0.739887 1.231942 0.000000,
        0.663386 1.072835 -0.082677,
        0.836614 0.994094 -0.082677,
        0.787743 1.259572 -0.082677,
        0.712257 1.259572 -0.082677,
        0.157480 0.875984 -0.082677,
        0.124016 0.875984 -0.082677,
        0.124016 0.915354 -0.082677,
        0.897638 0.954724 -0.082677,
        0.897638 0.836614 -0.082677,
        0.858268 0.836614 -0.082677,
        0.365794 1.034806 -0.082677,
        0.375984 1.033465 -0.082677,
        0.375984 0.994094 -0.082677,
        0.887795 -0.433071 -0.082677,
        0.157480 -0.433071 -0.082677,
        0.887795 -0.393701 -0.082677,
        0.163386 0.915354 -0.082677,
        0.287743 1.259572 -0.082677,
        0.716160 1.250148 -0.082677,
        0.722370 1.242055 -0.082677,
        0.662044 1.062645 -0.082677,
        0.889137 -0.266095 -0.082677,
        0.858268 -0.216535 -0.082677,
        0.887795 -0.255906 -0.082677,
        0.887795 -0.216535 -0.082677,
        0.739887 1.231942 -0.082677,
        0.750000 1.230610 -0.082677,
        0.783840 1.250148 -0.082677,
        0.777630 1.242055 -0.082677,
        0.624016 1.033465 -0.082677,
        0.634206 1.034806 -0.082677,
        0.624016 0.994094 -0.082677,
        0.760113 1.231942 -0.082677,
        0.769537 1.235845 -0.082677,
        0.893070 -0.275591 -0.082677,
        0.899326 -0.283744 -0.082677,
        0.907480 -0.290001 -0.082677,
        1.064961 -0.295276 -0.082677,
        1.064961 -0.393701 -0.082677,
        0.927165 -0.295276 -0.082677,
        0.916976 -0.293934 -0.082677,
        0.283840 1.250148 -0.082677,
        0.336614 1.072835 -0.082677,
        0.277630 1.242055 -0.082677,
        0.212257 1.259572 -0.082677,
        0.216160 1.250148 -0.082677,
        0.222370 1.242055 -0.082677,
        0.230463 1.235845 -0.082677,
        0.356299 1.038739 -0.082677,
        0.730463 1.235845 -0.082677,
        0.658111 1.053150 -0.082677,
        0.651855 1.044996 -0.082677,
        0.643701 1.038739 -0.082677,
        0.337956 1.062645 -0.082677,
        0.341889 1.053150 -0.082677,
        0.348145 1.044996 -0.082677,
        0.239887 1.231942 -0.082677,
        0.250000 1.230610 -0.082677,
        0.260113 1.231942 -0.082677,
        0.269537 1.235845 -0.082677,
        0.287743 1.259572 0.000000,
        0.277630 1.242055 0.000000,
        0.269537 1.235845 0.000000,
        0.283840 1.250148 0.000000,
        0.230463 1.235845 0.000000,
        0.222370 1.242055 0.000000,
        0.216160 1.250148 0.000000,
        0.212257 1.259572 0.000000,
        0.260113 1.231942 0.000000,
        0.250000 1.230610 0.000000,
        0.239887 1.231942 0.000000,
        -0.212257 1.259572 0.000000,
        -0.222370 1.242055 0.000000,
        -0.230463 1.235845 0.000000,
        -0.216160 1.250148 0.000000,
        -0.269537 1.235845 0.000000,
        -0.277630 1.242055 0.000000,
        -0.283840 1.250148 0.000000,
        -0.287743 1.259572 0.000000,
        -0.239887 1.231942 0.000000,
        -0.250000 1.230610 0.000000,
        -0.260113 1.231942 0.000000,
        -0.336614 1.072835 -0.082677,
        -0.163386 0.915354 -0.082677,
        -0.212257 1.259572 -0.082677,
        -0.124016 0.915354 -0.082677,
        -0.124016 0.875984 -0.082677,
        -0.157480 0.875984 -0.082677,
        -0.157480 -0.433071 -0.082677,
        -0.887795 -0.433071 -0.082677,
        -0.887795 -0.393701 -0.082677,
        -0.287743 1.259572 -0.082677,
        -0.230463 1.235845 -0.082677,
        -0.222370 1.242055 -0.082677,
        -0.632776 1.034452 -0.082677,
        -0.624016 1.033465 -0.082677,
        -0.624016 0.994094 -0.082677,
        -0.283840 1.250148 -0.082677,
        -0.277630 1.242055 -0.082677,
        -0.897638 0.836614 -0.082677,
        -0.897638 0.954724 -0.082677,
        -0.858268 0.836614 -0.082677,
        -0.836614 0.994094 -0.082677,
        -0.648563 1.042054 -0.082677,
        -0.216160 1.250148 -0.082677,
        -0.641098 1.037363 -0.082677,
        -0.787743 1.259572 -0.082677,
        -0.269537 1.235845 -0.082677,
        -0.260113 1.231942 -0.082677,
        -0.337956 1.062645 -0.082677,
        -0.250000 1.230610 -0.082677,
        -0.239887 1.231942 -0.082677,
        -0.887795 -0.216535 -0.082677,
        -0.858268 -0.216535 -0.082677,
        -0.887795 -0.255906 -0.082677,
        -0.889137 -0.266095 -0.082677,
        -0.365794 1.034806 -0.082677,
        -0.356299 1.038739 -0.082677,
        -0.739887 1.231942 -0.082677,
        -0.730463 1.235845 -0.082677,
        -0.375984 0.994094 -0.082677,
        -0.348145 1.044996 -0.082677,
        -0.341889 1.053150 -0.082677,
        -0.663386 1.072835 -0.082677,
        -0.662399 1.064074 -0.082677,
        -0.916976 -0.293934 -0.082677,
        -0.907480 -0.290001 -0.082677,
        -0.899326 -0.283744 -0.082677,
        -0.893070 -0.275591 -0.082677,
        -0.375984 1.033465 -0.082677,
        -0.783840 1.250148 -0.082677,
        -0.777630 1.242055 -0.082677,
        -0.769537 1.235845 -0.082677,
        -1.064961 -0.393701 -0.082677,
        -1.064961 -0.295276 -0.082677,
        -0.927165 -0.295276 -0.082677,
        -0.760113 1.231942 -0.082677,
        -0.750000 1.230610 -0.082677,
        -0.659487 1.055753 -0.082677,
        -0.654796 1.048288 -0.082677,
        -0.722370 1.242055 -0.082677,
        -0.716160 1.250148 -0.082677,
        -0.712257 1.259572 -0.082677,
        -0.712257 1.259572 0.000000,
        -0.760113 1.231942 0.000000,
        -0.769537 1.235845 0.000000,
        -0.777630 1.242055 0.000000,
        -0.783840 1.250148 0.000000,
        -0.787743 1.259572 0.000000,
        -0.716160 1.250148 0.000000,
        -0.722370 1.242055 0.000000,
        -0.730463 1.235845 0.000000,
        -0.739887 1.231942 0.000000,
        -0.750000 1.230610 0.000000,
        1.064961 -0.393701 0.000000,
        1.064961 -0.295276 0.000000,
        -1.064961 -0.295276 0.000000,
        -1.064961 -0.393701 0.000000,
        -0.221968 -0.608119 -0.078346,
        -0.268060 -0.726229 -0.078346,
        -0.250775 -0.726229 -0.078346,
        -0.238825 -0.693101 -0.078346,
        -0.190032 -0.693101 -0.078346,
        -0.178757 -0.726229 -0.078346,
        -0.161472 -0.726229 -0.078346,
        -0.206124 -0.608119 -0.078346,
        -0.194016 -0.680137 -0.078346,
        -0.233513 -0.680137 -0.078346,
        -0.211638 -0.630805 -0.078346,
        -0.212774 -0.626708 -0.078346,
        -0.213528 -0.622522 -0.078346,
        -0.213911 -0.622522 -0.078346,
        -0.214681 -0.626696 -0.078346,
        -0.215734 -0.630805 -0.078346,
        -0.194016 -0.680137 -0.078740,
        -0.233513 -0.680137 -0.078740,
        -0.211638 -0.630805 -0.078740,
        -0.212774 -0.626708 -0.078740,
        -0.213528 -0.622522 -0.078740,
        -0.213911 -0.622522 -0.078740,
        -0.214681 -0.626696 -0.078740,
        -0.215734 -0.630805 -0.078740,
        -0.089881 -0.726229 -0.078346,
        -0.057766 -0.726229 -0.078346,
        -0.057766 -0.608119 -0.078346,
        -0.091097 -0.608119 -0.078346,
        -0.152830 -0.665689 -0.078346,
        -0.151972 -0.654575 -0.078346,
        -0.148800 -0.642938 -0.078346,
        -0.143311 -0.632780 -0.078346,
        -0.134959 -0.623519 -0.078346,
        -0.134835 -0.623411 -0.078346,
        -0.121980 -0.614795 -0.078346,
        -0.108161 -0.609943 -0.078346,
        -0.104496 -0.724954 -0.078346,
        -0.118105 -0.720897 -0.078346,
        -0.130437 -0.713730 -0.078346,
        -0.140159 -0.704422 -0.078346,
        -0.146932 -0.693857 -0.078346,
        -0.151173 -0.681495 -0.078346,
        -0.129122 -0.637645 -0.078346,
        -0.123385 -0.631554 -0.078346,
        -0.114758 -0.625980 -0.078346,
        -0.105009 -0.622568 -0.078346,
        -0.091030 -0.621082 -0.078346,
        -0.073610 -0.621082 -0.078346,
        -0.073610 -0.713266 -0.078346,
        -0.090377 -0.713266 -0.078346,
        -0.102837 -0.712106 -0.078346,
        -0.112777 -0.709004 -0.078346,
        -0.120831 -0.704220 -0.078346,
        -0.127456 -0.697677 -0.078346,
        -0.132438 -0.689534 -0.078346,
        -0.135902 -0.678431 -0.078346,
        -0.136986 -0.666026 -0.078346,
        -0.135983 -0.654271 -0.078346,
        -0.133226 -0.644930 -0.078346,
        -0.091030 -0.621082 -0.078740,
        -0.073610 -0.621082 -0.078740,
        -0.105009 -0.622568 -0.078740,
        -0.114758 -0.625980 -0.078740,
        -0.123385 -0.631554 -0.078740,
        -0.129122 -0.637645 -0.078740,
        -0.133226 -0.644930 -0.078740,
        -0.135983 -0.654271 -0.078740,
        -0.136986 -0.666026 -0.078740,
        -0.135902 -0.678431 -0.078740,
        -0.132438 -0.689534 -0.078740,
        -0.127456 -0.697677 -0.078740,
        -0.120831 -0.704220 -0.078740,
        -0.112777 -0.709004 -0.078740,
        -0.102837 -0.712106 -0.078740,
        -0.090377 -0.713266 -0.078740,
        -0.073610 -0.713266 -0.078740,
        -0.034720 -0.713266 -0.078346,
        -0.034720 -0.726229 -0.078346,
        0.028656 -0.726229 -0.078346,
        0.028656 -0.608119 -0.078346,
        -0.031839 -0.608119 -0.078346,
        -0.031839 -0.621082 -0.078346,
        0.012812 -0.621082 -0.078346,
        0.012812 -0.659972 -0.078346,
        -0.028959 -0.659972 -0.078346,
        -0.028959 -0.672935 -0.078346,
        0.012812 -0.672935 -0.078346,
        0.012812 -0.713266 -0.078346,
        0.051702 -0.707144 -0.078346,
        0.051702 -0.720107 -0.078346,
        0.064292 -0.725277 -0.078346,
        0.084200 -0.727670 -0.078346,
        0.080971 -0.727614 -0.078346,
        0.098756 -0.726160 -0.078346,
        0.110204 -0.722220 -0.078346,
        0.119704 -0.716153 -0.078346,
        0.128576 -0.706813 -0.078346,
        0.134868 -0.695583 -0.078346,
        0.138422 -0.683081 -0.078346,
        0.139565 -0.669402 -0.078346,
        0.079497 -0.606678 -0.078346,
        0.091360 -0.607647 -0.078346,
        0.104527 -0.611472 -0.078346,
        0.115745 -0.617930 -0.078346,
        0.126408 -0.628185 -0.078346,
        0.133331 -0.639228 -0.078346,
        0.137865 -0.652610 -0.078346,
        0.051702 -0.611360 -0.078346,
        0.065357 -0.607654 -0.078346,
        0.051702 -0.627204 -0.078346,
        0.079362 -0.619642 -0.078346,
        0.065006 -0.621507 -0.078346,
        0.123720 -0.668434 -0.078346,
        0.123157 -0.659244 -0.078346,
        0.120009 -0.646601 -0.078346,
        0.115139 -0.637481 -0.078346,
        0.108007 -0.629607 -0.078346,
        0.099832 -0.624138 -0.078346,
        0.090992 -0.620948 -0.078346,
        0.082017 -0.714706 -0.078346,
        0.093034 -0.713470 -0.078346,
        0.101640 -0.710302 -0.078346,
        0.108889 -0.705417 -0.078346,
        0.114431 -0.699569 -0.078346,
        0.119316 -0.691380 -0.078346,
        0.122524 -0.681220 -0.078346,
        0.053819 -0.708317 -0.078346,
        0.066339 -0.712966 -0.078346,
        0.149647 -0.713266 -0.078346,
        0.149647 -0.726229 -0.078346,
        0.210143 -0.726229 -0.078346,
        0.210143 -0.608119 -0.078346,
        0.194298 -0.608119 -0.078346,
        0.194298 -0.713266 -0.078346,
      ]
    }
    coordIndex [
      255, 256, 9, -1,
      9, 256, 12, -1,
      246, 248, 257, -1,
      258, 259, 253, -1,
      259, 260, 253, -1,
      253, 260, 261, -1,
      253, 261, 262, -1,
      262, 261, 263, -1,
      262, 263, 264, -1,
      246, 257, 250, -1,
      250, 257, 265, -1,
      250, 265, 266, -1,
      266, 267, 250, -1,
      250, 267, 268, -1,
      250, 268, 253, -1,
      253, 268, 269, -1,
      253, 269, 258, -1,
      12, 256, 10, -1,
      10, 256, 247, -1,
      10, 247, 250, -1,
      250, 247, 246, -1,
      270, 262, 271, -1,
      271, 262, 264, -1,
      255, 9, 8, -1,
      253, 262, 8, -1,
      8, 262, 270, -1,
      8, 270, 255, -1,
      270, 271, 272, -1,
      270, 272, 255, -1,
      272, 273, 255, -1,
      255, 273, 274, -1,
      255, 274, 275, -1,
      276, 277, 256, -1,
      256, 277, 278, -1,
      256, 278, 247, -1,
      247, 278, 279, -1,
      247, 279, 249, -1,
      275, 280, 255, -1,
      255, 280, 281, -1,
      255, 281, 256, -1,
      256, 281, 282, -1,
      256, 282, 276, -1,
      248, 249, 257, -1,
      257, 249, 279, -1,
      257, 279, 265, -1,
      265, 279, 278, -1,
      265, 278, 266, -1,
      266, 278, 277, -1,
      266, 277, 267, -1,
      267, 277, 276, -1,
      267, 276, 268, -1,
      268, 276, 282, -1,
      268, 282, 269, -1,
      269, 282, 281, -1,
      269, 281, 258, -1,
      258, 281, 280, -1,
      258, 280, 259, -1,
      259, 280, 275, -1,
      259, 275, 260, -1,
      260, 275, 274, -1,
      260, 274, 261, -1,
      261, 274, 273, -1,
      261, 273, 263, -1,
      263, 273, 272, -1,
      263, 272, 264, -1,
      264, 272, 271, -1,
      283, 284, 13, -1,
      13, 284, 16, -1,
      285, 286, 244, -1,
      287, 288, 251, -1,
      285, 244, 289, -1,
      289, 244, 229, -1,
      289, 229, 231, -1,
      288, 290, 251, -1,
      251, 290, 291, -1,
      251, 291, 292, -1,
      292, 291, 293, -1,
      292, 293, 294, -1,
      286, 295, 244, -1,
      244, 295, 296, -1,
      244, 296, 251, -1,
      251, 296, 297, -1,
      251, 297, 287, -1,
      16, 284, 27, -1,
      27, 284, 230, -1,
      27, 230, 244, -1,
      244, 230, 229, -1,
      298, 292, 299, -1,
      299, 292, 294, -1,
      283, 13, 11, -1,
      251, 292, 11, -1,
      11, 292, 298, -1,
      11, 298, 283, -1,
      298, 299, 300, -1,
      301, 302, 283, -1,
      298, 300, 283, -1,
      283, 300, 303, -1,
      283, 303, 301, -1,
      304, 305, 284, -1,
      284, 305, 306, -1,
      284, 306, 230, -1,
      230, 306, 307, -1,
      230, 307, 232, -1,
      302, 308, 283, -1,
      283, 308, 309, -1,
      283, 309, 284, -1,
      284, 309, 310, -1,
      284, 310, 304, -1,
      311, 312, 1, -1,
      1, 312, 2, -1,
      313, 314, 242, -1,
      315, 316, 245, -1,
      313, 242, 317, -1,
      317, 242, 233, -1,
      317, 233, 235, -1,
      316, 318, 245, -1,
      245, 318, 319, -1,
      245, 319, 320, -1,
      320, 319, 321, -1,
      320, 321, 322, -1,
      314, 323, 242, -1,
      242, 323, 324, -1,
      242, 324, 245, -1,
      245, 324, 325, -1,
      245, 325, 315, -1,
      2, 312, 7, -1,
      7, 312, 234, -1,
      7, 234, 242, -1,
      242, 234, 233, -1,
      326, 320, 327, -1,
      327, 320, 322, -1,
      311, 1, 0, -1,
      245, 320, 0, -1,
      0, 320, 326, -1,
      0, 326, 311, -1,
      326, 327, 328, -1,
      329, 330, 311, -1,
      326, 328, 311, -1,
      311, 328, 331, -1,
      311, 331, 329, -1,
      332, 333, 312, -1,
      312, 333, 334, -1,
      312, 334, 234, -1,
      234, 334, 335, -1,
      234, 335, 236, -1,
      330, 336, 311, -1,
      311, 336, 337, -1,
      311, 337, 312, -1,
      312, 337, 338, -1,
      312, 338, 332, -1,
      339, 340, 5, -1,
      5, 340, 4, -1,
      237, 239, 341, -1,
      342, 343, 243, -1,
      237, 341, 241, -1,
      241, 341, 344, -1,
      241, 344, 345, -1,
      343, 346, 243, -1,
      243, 346, 347, -1,
      243, 347, 348, -1,
      348, 347, 349, -1,
      348, 349, 350, -1,
      345, 351, 241, -1,
      241, 351, 352, -1,
      241, 352, 243, -1,
      243, 352, 353, -1,
      243, 353, 342, -1,
      4, 340, 3, -1,
      3, 340, 238, -1,
      3, 238, 241, -1,
      241, 238, 237, -1,
      354, 348, 355, -1,
      355, 348, 350, -1,
      339, 5, 6, -1,
      243, 348, 6, -1,
      6, 348, 354, -1,
      6, 354, 339, -1,
      354, 355, 356, -1,
      357, 358, 339, -1,
      354, 356, 339, -1,
      339, 356, 359, -1,
      339, 359, 357, -1,
      360, 361, 340, -1,
      340, 361, 362, -1,
      340, 362, 238, -1,
      238, 362, 363, -1,
      238, 363, 240, -1,
      358, 364, 339, -1,
      339, 364, 365, -1,
      339, 365, 340, -1,
      340, 365, 366, -1,
      340, 366, 360, -1,
      239, 240, 341, -1,
      341, 240, 363, -1,
      341, 363, 344, -1,
      344, 363, 362, -1,
      344, 362, 345, -1,
      345, 362, 361, -1,
      345, 361, 351, -1,
      351, 361, 360, -1,
      351, 360, 352, -1,
      352, 360, 366, -1,
      352, 366, 353, -1,
      353, 366, 365, -1,
      353, 365, 342, -1,
      342, 365, 364, -1,
      342, 364, 343, -1,
      343, 364, 358, -1,
      343, 358, 346, -1,
      346, 358, 357, -1,
      346, 357, 347, -1,
      347, 357, 359, -1,
      347, 359, 349, -1,
      349, 359, 356, -1,
      349, 356, 350, -1,
      350, 356, 355, -1,
      235, 236, 317, -1,
      317, 236, 335, -1,
      317, 335, 313, -1,
      313, 335, 334, -1,
      313, 334, 314, -1,
      314, 334, 333, -1,
      314, 333, 323, -1,
      323, 333, 332, -1,
      323, 332, 324, -1,
      324, 332, 338, -1,
      324, 338, 325, -1,
      325, 338, 337, -1,
      325, 337, 315, -1,
      315, 337, 336, -1,
      315, 336, 316, -1,
      316, 336, 330, -1,
      316, 330, 318, -1,
      318, 330, 329, -1,
      318, 329, 319, -1,
      319, 329, 331, -1,
      319, 331, 321, -1,
      321, 331, 328, -1,
      321, 328, 322, -1,
      322, 328, 327, -1,
      231, 232, 289, -1,
      289, 232, 307, -1,
      289, 307, 285, -1,
      285, 307, 306, -1,
      285, 306, 286, -1,
      286, 306, 305, -1,
      286, 305, 295, -1,
      295, 305, 304, -1,
      295, 304, 296, -1,
      296, 304, 310, -1,
      296, 310, 297, -1,
      297, 310, 309, -1,
      297, 309, 287, -1,
      287, 309, 308, -1,
      287, 308, 288, -1,
      288, 308, 302, -1,
      288, 302, 290, -1,
      290, 302, 301, -1,
      290, 301, 291, -1,
      291, 301, 303, -1,
      291, 303, 293, -1,
      293, 303, 300, -1,
      293, 300, 294, -1,
      294, 300, 299, -1,
      178, 180, 367, -1,
      178, 367, 228, -1,
      367, 368, 228, -1,
      228, 368, 369, -1,
      228, 369, 370, -1,
      371, 372, 227, -1,
      227, 372, 373, -1,
      227, 373, 175, -1,
      175, 373, 374, -1,
      175, 374, 177, -1,
      370, 375, 228, -1,
      228, 375, 376, -1,
      228, 376, 227, -1,
      227, 376, 377, -1,
      227, 377, 371, -1,
      378, 138, 137, -1,
      227, 175, 137, -1,
      137, 175, 174, -1,
      137, 174, 378, -1,
      212, 379, 213, -1,
      213, 379, 179, -1,
      213, 179, 228, -1,
      228, 179, 178, -1,
      380, 181, 179, -1,
      174, 176, 381, -1,
      382, 383, 384, -1,
      385, 386, 379, -1,
      379, 386, 387, -1,
      388, 389, 390, -1,
      174, 381, 378, -1,
      391, 392, 393, -1,
      393, 392, 382, -1,
      393, 382, 394, -1,
      394, 382, 384, -1,
      395, 189, 187, -1,
      381, 396, 378, -1,
      378, 396, 397, -1,
      378, 397, 398, -1,
      399, 400, 401, -1,
      401, 400, 402, -1,
      403, 404, 379, -1,
      380, 179, 405, -1,
      405, 179, 379, -1,
      405, 379, 406, -1,
      407, 408, 409, -1,
      409, 408, 387, -1,
      409, 387, 390, -1,
      390, 387, 400, -1,
      404, 410, 379, -1,
      379, 410, 411, -1,
      379, 411, 406, -1,
      399, 412, 393, -1,
      393, 412, 413, -1,
      393, 413, 414, -1,
      415, 416, 417, -1,
      417, 416, 393, -1,
      417, 393, 418, -1,
      418, 393, 414, -1,
      395, 187, 419, -1,
      419, 187, 420, -1,
      419, 420, 421, -1,
      184, 422, 182, -1,
      182, 422, 423, -1,
      182, 423, 394, -1,
      394, 423, 424, -1,
      394, 424, 425, -1,
      399, 393, 400, -1,
      400, 393, 394, -1,
      400, 394, 390, -1,
      390, 394, 426, -1,
      390, 426, 388, -1,
      397, 427, 398, -1,
      398, 427, 403, -1,
      398, 403, 428, -1,
      428, 403, 379, -1,
      428, 379, 429, -1,
      429, 379, 387, -1,
      429, 387, 430, -1,
      430, 387, 408, -1,
      431, 432, 394, -1,
      394, 432, 433, -1,
      394, 433, 426, -1,
      425, 434, 394, -1,
      394, 434, 435, -1,
      394, 435, 431, -1,
      431, 435, 436, -1,
      431, 436, 420, -1,
      420, 436, 437, -1,
      420, 437, 421, -1,
      186, 188, 438, -1,
      439, 440, 226, -1,
      186, 438, 226, -1,
      226, 438, 441, -1,
      226, 441, 439, -1,
      442, 443, 225, -1,
      225, 443, 444, -1,
      225, 444, 183, -1,
      183, 444, 445, -1,
      183, 445, 185, -1,
      440, 446, 226, -1,
      226, 446, 447, -1,
      226, 447, 225, -1,
      225, 447, 448, -1,
      225, 448, 442, -1,
      394, 20, 19, -1,
      225, 183, 19, -1,
      19, 183, 182, -1,
      19, 182, 394, -1,
      139, 420, 136, -1,
      136, 420, 187, -1,
      136, 187, 226, -1,
      226, 187, 186, -1,
      194, 196, 449, -1,
      450, 451, 224, -1,
      194, 449, 224, -1,
      224, 449, 452, -1,
      224, 452, 450, -1,
      453, 454, 208, -1,
      208, 454, 455, -1,
      208, 455, 191, -1,
      191, 455, 456, -1,
      191, 456, 193, -1,
      451, 457, 224, -1,
      224, 457, 458, -1,
      224, 458, 208, -1,
      208, 458, 459, -1,
      208, 459, 453, -1,
      460, 171, 158, -1,
      208, 191, 158, -1,
      158, 191, 190, -1,
      158, 190, 460, -1,
      93, 461, 94, -1,
      94, 461, 195, -1,
      94, 195, 224, -1,
      224, 195, 194, -1,
      462, 197, 195, -1,
      463, 464, 461, -1,
      461, 464, 465, -1,
      466, 467, 465, -1,
      465, 467, 468, -1,
      190, 192, 469, -1,
      470, 471, 461, -1,
      472, 473, 474, -1,
      190, 469, 460, -1,
      460, 469, 475, -1,
      460, 475, 476, -1,
      477, 478, 479, -1,
      479, 478, 480, -1,
      479, 480, 481, -1,
      461, 471, 195, -1,
      195, 471, 482, -1,
      195, 482, 462, -1,
      472, 474, 483, -1,
      198, 200, 484, -1,
      476, 485, 460, -1,
      460, 485, 486, -1,
      460, 486, 487, -1,
      487, 486, 465, -1,
      465, 486, 488, -1,
      465, 488, 461, -1,
      461, 488, 489, -1,
      461, 489, 470, -1,
      490, 491, 492, -1,
      492, 491, 493, -1,
      494, 495, 465, -1,
      198, 484, 480, -1,
      496, 497, 480, -1,
      481, 483, 479, -1,
      479, 483, 474, -1,
      479, 474, 491, -1,
      491, 474, 498, -1,
      495, 499, 465, -1,
      465, 499, 500, -1,
      465, 500, 487, -1,
      501, 502, 480, -1,
      503, 504, 468, -1,
      468, 504, 505, -1,
      468, 505, 506, -1,
      507, 494, 498, -1,
      498, 494, 465, -1,
      498, 465, 491, -1,
      491, 465, 468, -1,
      491, 468, 493, -1,
      493, 468, 506, -1,
      484, 508, 480, -1,
      480, 508, 509, -1,
      480, 509, 510, -1,
      511, 512, 468, -1,
      468, 512, 513, -1,
      468, 513, 503, -1,
      510, 514, 480, -1,
      480, 514, 515, -1,
      480, 515, 496, -1,
      501, 480, 203, -1,
      502, 516, 480, -1,
      480, 516, 517, -1,
      480, 517, 481, -1,
      497, 518, 480, -1,
      480, 518, 519, -1,
      480, 519, 203, -1,
      203, 519, 520, -1,
      203, 520, 205, -1,
      202, 204, 521, -1,
      522, 523, 206, -1,
      523, 524, 206, -1,
      206, 524, 525, -1,
      206, 525, 199, -1,
      199, 525, 526, -1,
      199, 526, 201, -1,
      202, 521, 207, -1,
      207, 521, 527, -1,
      207, 527, 528, -1,
      528, 529, 207, -1,
      207, 529, 530, -1,
      207, 530, 206, -1,
      206, 530, 531, -1,
      206, 531, 522, -1,
      480, 121, 120, -1,
      206, 199, 120, -1,
      120, 199, 198, -1,
      120, 198, 480, -1,
      165, 501, 166, -1,
      166, 501, 203, -1,
      166, 203, 207, -1,
      207, 203, 202, -1,
      204, 205, 521, -1,
      521, 205, 520, -1,
      521, 520, 527, -1,
      527, 520, 519, -1,
      527, 519, 528, -1,
      528, 519, 518, -1,
      528, 518, 529, -1,
      529, 518, 497, -1,
      529, 497, 530, -1,
      530, 497, 496, -1,
      530, 496, 531, -1,
      531, 496, 515, -1,
      531, 515, 522, -1,
      522, 515, 514, -1,
      522, 514, 523, -1,
      523, 514, 510, -1,
      523, 510, 524, -1,
      524, 510, 509, -1,
      524, 509, 525, -1,
      525, 509, 508, -1,
      525, 508, 526, -1,
      526, 508, 484, -1,
      526, 484, 201, -1,
      201, 484, 200, -1,
      196, 197, 449, -1,
      449, 197, 462, -1,
      449, 462, 452, -1,
      452, 462, 482, -1,
      452, 482, 450, -1,
      450, 482, 471, -1,
      450, 471, 451, -1,
      451, 471, 470, -1,
      451, 470, 457, -1,
      457, 470, 489, -1,
      457, 489, 458, -1,
      458, 489, 488, -1,
      458, 488, 459, -1,
      459, 488, 486, -1,
      459, 486, 453, -1,
      453, 486, 485, -1,
      453, 485, 454, -1,
      454, 485, 476, -1,
      454, 476, 455, -1,
      455, 476, 475, -1,
      455, 475, 456, -1,
      456, 475, 469, -1,
      456, 469, 193, -1,
      193, 469, 192, -1,
      188, 189, 438, -1,
      438, 189, 395, -1,
      438, 395, 441, -1,
      441, 395, 419, -1,
      441, 419, 439, -1,
      439, 419, 421, -1,
      439, 421, 440, -1,
      440, 421, 437, -1,
      440, 437, 446, -1,
      446, 437, 436, -1,
      446, 436, 447, -1,
      447, 436, 435, -1,
      447, 435, 448, -1,
      448, 435, 434, -1,
      448, 434, 442, -1,
      442, 434, 425, -1,
      442, 425, 443, -1,
      443, 425, 424, -1,
      443, 424, 444, -1,
      444, 424, 423, -1,
      444, 423, 445, -1,
      445, 423, 422, -1,
      445, 422, 185, -1,
      185, 422, 184, -1,
      180, 181, 367, -1,
      367, 181, 380, -1,
      367, 380, 368, -1,
      368, 380, 405, -1,
      368, 405, 369, -1,
      369, 405, 406, -1,
      369, 406, 370, -1,
      370, 406, 411, -1,
      370, 411, 375, -1,
      375, 411, 410, -1,
      375, 410, 376, -1,
      376, 410, 404, -1,
      376, 404, 377, -1,
      377, 404, 403, -1,
      377, 403, 371, -1,
      371, 403, 427, -1,
      371, 427, 372, -1,
      372, 427, 397, -1,
      372, 397, 373, -1,
      373, 397, 396, -1,
      373, 396, 374, -1,
      374, 396, 381, -1,
      374, 381, 177, -1,
      177, 381, 176, -1,
      407, 409, 141, -1,
      141, 409, 143, -1,
      409, 390, 143, -1,
      143, 390, 142, -1,
      390, 389, 142, -1,
      142, 389, 140, -1,
      394, 384, 20, -1,
      20, 384, 29, -1,
      384, 383, 29, -1,
      29, 383, 30, -1,
      383, 382, 30, -1,
      30, 382, 65, -1,
      382, 392, 65, -1,
      65, 392, 63, -1,
      392, 391, 63, -1,
      63, 391, 41, -1,
      391, 393, 41, -1,
      41, 393, 39, -1,
      401, 402, 217, -1,
      217, 402, 209, -1,
      402, 400, 209, -1,
      209, 400, 210, -1,
      400, 387, 210, -1,
      210, 387, 211, -1,
      387, 386, 211, -1,
      211, 386, 215, -1,
      386, 385, 215, -1,
      215, 385, 214, -1,
      39, 393, 40, -1,
      40, 393, 416, -1,
      40, 416, 173, -1,
      173, 416, 532, -1,
      417, 218, 216, -1,
      252, 533, 216, -1,
      216, 533, 415, -1,
      216, 415, 417, -1,
      173, 532, 252, -1,
      252, 532, 533, -1,
      385, 379, 214, -1,
      214, 379, 212, -1,
      415, 533, 416, -1,
      416, 533, 532, -1,
      478, 477, 122, -1,
      122, 477, 123, -1,
      477, 479, 123, -1,
      123, 479, 125, -1,
      479, 491, 125, -1,
      125, 491, 126, -1,
      491, 490, 126, -1,
      126, 490, 127, -1,
      128, 127, 492, -1,
      492, 127, 490, -1,
      468, 467, 115, -1,
      115, 467, 116, -1,
      467, 466, 116, -1,
      116, 466, 102, -1,
      466, 465, 102, -1,
      102, 465, 103, -1,
      465, 464, 103, -1,
      103, 464, 96, -1,
      464, 463, 96, -1,
      96, 463, 95, -1,
      463, 461, 95, -1,
      95, 461, 93, -1,
      507, 498, 156, -1,
      156, 498, 154, -1,
      498, 474, 154, -1,
      154, 474, 155, -1,
      474, 473, 155, -1,
      155, 473, 157, -1,
      129, 513, 124, -1,
      124, 513, 512, -1,
      124, 512, 135, -1,
      135, 512, 534, -1,
      468, 115, 114, -1,
      254, 535, 114, -1,
      114, 535, 511, -1,
      114, 511, 468, -1,
      135, 534, 254, -1,
      254, 534, 535, -1,
      480, 478, 121, -1,
      121, 478, 122, -1,
      511, 535, 512, -1,
      512, 535, 534, -1,
      157, 473, 159, -1,
      159, 473, 472, -1,
      159, 472, 160, -1,
      160, 472, 483, -1,
      160, 483, 161, -1,
      161, 483, 481, -1,
      161, 481, 162, -1,
      162, 481, 517, -1,
      162, 517, 163, -1,
      163, 517, 516, -1,
      163, 516, 164, -1,
      164, 516, 502, -1,
      164, 502, 165, -1,
      165, 502, 501, -1,
      171, 460, 172, -1,
      172, 460, 487, -1,
      172, 487, 167, -1,
      167, 487, 500, -1,
      167, 500, 168, -1,
      168, 500, 499, -1,
      168, 499, 169, -1,
      169, 499, 495, -1,
      169, 495, 170, -1,
      170, 495, 494, -1,
      170, 494, 156, -1,
      156, 494, 507, -1,
      513, 129, 503, -1,
      503, 129, 134, -1,
      503, 134, 504, -1,
      504, 134, 132, -1,
      504, 132, 505, -1,
      505, 132, 131, -1,
      505, 131, 506, -1,
      506, 131, 130, -1,
      506, 130, 493, -1,
      493, 130, 133, -1,
      493, 133, 492, -1,
      492, 133, 128, -1,
      140, 389, 152, -1,
      152, 389, 388, -1,
      152, 388, 149, -1,
      149, 388, 426, -1,
      149, 426, 150, -1,
      150, 426, 433, -1,
      150, 433, 151, -1,
      151, 433, 432, -1,
      151, 432, 153, -1,
      153, 432, 431, -1,
      153, 431, 139, -1,
      139, 431, 420, -1,
      138, 378, 144, -1,
      144, 378, 398, -1,
      144, 398, 145, -1,
      145, 398, 428, -1,
      145, 428, 146, -1,
      146, 428, 429, -1,
      146, 429, 147, -1,
      147, 429, 430, -1,
      147, 430, 148, -1,
      148, 430, 408, -1,
      148, 408, 141, -1,
      141, 408, 407, -1,
      401, 217, 399, -1,
      399, 217, 219, -1,
      399, 219, 412, -1,
      412, 219, 223, -1,
      412, 223, 413, -1,
      413, 223, 222, -1,
      413, 222, 414, -1,
      414, 222, 221, -1,
      414, 221, 418, -1,
      418, 221, 220, -1,
      418, 220, 417, -1,
      417, 220, 218, -1,
      536, 537, 88, -1,
      88, 537, 89, -1,
      537, 538, 89, -1,
      89, 538, 97, -1,
      538, 539, 97, -1,
      97, 539, 113, -1,
      539, 540, 113, -1,
      113, 540, 112, -1,
      540, 541, 112, -1,
      112, 541, 111, -1,
      541, 542, 111, -1,
      111, 542, 90, -1,
      542, 543, 90, -1,
      90, 543, 109, -1,
      543, 536, 109, -1,
      109, 536, 88, -1,
      544, 540, 545, -1,
      545, 540, 539, -1,
      546, 543, 544, -1,
      544, 543, 542, -1,
      544, 542, 540, -1,
      540, 542, 541, -1,
      546, 547, 543, -1,
      543, 547, 548, -1,
      543, 548, 536, -1,
      536, 548, 549, -1,
      536, 549, 550, -1,
      550, 551, 536, -1,
      536, 551, 545, -1,
      536, 545, 537, -1,
      537, 545, 539, -1,
      537, 539, 538, -1,
      544, 545, 552, -1,
      552, 545, 553, -1,
      546, 544, 554, -1,
      554, 544, 552, -1,
      546, 554, 555, -1,
      546, 555, 547, -1,
      547, 555, 556, -1,
      547, 556, 548, -1,
      549, 548, 557, -1,
      557, 548, 556, -1,
      549, 557, 558, -1,
      549, 558, 550, -1,
      550, 558, 559, -1,
      550, 559, 551, -1,
      545, 551, 553, -1,
      553, 551, 559, -1,
      560, 561, 85, -1,
      85, 561, 86, -1,
      561, 562, 86, -1,
      86, 562, 87, -1,
      562, 563, 87, -1,
      87, 563, 101, -1,
      564, 118, 117, -1,
      564, 117, 565, -1,
      565, 117, 110, -1,
      565, 110, 566, -1,
      566, 110, 108, -1,
      566, 108, 567, -1,
      567, 108, 107, -1,
      567, 107, 568, -1,
      568, 107, 106, -1,
      568, 106, 569, -1,
      569, 106, 105, -1,
      569, 105, 570, -1,
      570, 105, 104, -1,
      570, 104, 571, -1,
      571, 104, 101, -1,
      571, 101, 563, -1,
      560, 85, 100, -1,
      560, 100, 572, -1,
      572, 100, 99, -1,
      572, 99, 573, -1,
      573, 99, 98, -1,
      573, 98, 574, -1,
      574, 98, 92, -1,
      574, 92, 575, -1,
      575, 92, 91, -1,
      575, 91, 576, -1,
      576, 91, 119, -1,
      576, 119, 577, -1,
      577, 119, 118, -1,
      577, 118, 564, -1,
      566, 567, 578, -1,
      578, 567, 568, -1,
      578, 568, 579, -1,
      579, 568, 569, -1,
      579, 569, 580, -1,
      580, 569, 570, -1,
      580, 570, 581, -1,
      581, 570, 571, -1,
      581, 571, 582, -1,
      582, 571, 563, -1,
      582, 563, 583, -1,
      583, 563, 562, -1,
      583, 562, 584, -1,
      584, 562, 561, -1,
      584, 561, 585, -1,
      585, 561, 560, -1,
      585, 560, 586, -1,
      586, 560, 572, -1,
      586, 572, 587, -1,
      587, 572, 573, -1,
      587, 573, 588, -1,
      588, 573, 574, -1,
      588, 574, 589, -1,
      589, 574, 575, -1,
      589, 575, 590, -1,
      590, 575, 576, -1,
      590, 576, 591, -1,
      591, 576, 577, -1,
      591, 577, 592, -1,
      592, 577, 564, -1,
      592, 564, 593, -1,
      593, 564, 565, -1,
      593, 565, 594, -1,
      594, 565, 566, -1,
      594, 566, 578, -1,
      582, 583, 595, -1,
      595, 583, 596, -1,
      582, 595, 597, -1,
      582, 597, 581, -1,
      581, 597, 598, -1,
      581, 598, 580, -1,
      580, 598, 599, -1,
      580, 599, 579, -1,
      579, 599, 600, -1,
      579, 600, 578, -1,
      578, 600, 601, -1,
      578, 601, 594, -1,
      594, 601, 602, -1,
      594, 602, 593, -1,
      593, 602, 603, -1,
      593, 603, 592, -1,
      592, 603, 604, -1,
      592, 604, 591, -1,
      591, 604, 605, -1,
      591, 605, 590, -1,
      590, 605, 606, -1,
      590, 606, 589, -1,
      589, 606, 607, -1,
      589, 607, 588, -1,
      588, 607, 608, -1,
      588, 608, 587, -1,
      587, 608, 609, -1,
      587, 609, 586, -1,
      586, 609, 610, -1,
      586, 610, 585, -1,
      584, 585, 611, -1,
      611, 585, 610, -1,
      583, 584, 596, -1,
      596, 584, 611, -1,
      612, 613, 21, -1,
      21, 613, 22, -1,
      613, 614, 22, -1,
      22, 614, 23, -1,
      614, 615, 23, -1,
      23, 615, 26, -1,
      615, 616, 26, -1,
      26, 616, 31, -1,
      616, 617, 31, -1,
      31, 617, 36, -1,
      617, 618, 36, -1,
      36, 618, 38, -1,
      618, 619, 38, -1,
      38, 619, 37, -1,
      619, 620, 37, -1,
      37, 620, 35, -1,
      620, 621, 35, -1,
      35, 621, 34, -1,
      621, 622, 34, -1,
      34, 622, 32, -1,
      622, 623, 32, -1,
      32, 623, 33, -1,
      623, 612, 33, -1,
      33, 612, 21, -1,
      614, 613, 612, -1,
      612, 623, 614, -1,
      614, 623, 622, -1,
      614, 622, 615, -1,
      617, 616, 618, -1,
      618, 616, 615, -1,
      618, 615, 619, -1,
      619, 615, 622, -1,
      619, 622, 620, -1,
      620, 622, 621, -1,
      624, 625, 25, -1,
      25, 625, 24, -1,
      24, 625, 626, -1,
      627, 17, 15, -1,
      627, 15, 628, -1,
      628, 15, 14, -1,
      628, 14, 626, -1,
      626, 14, 28, -1,
      626, 28, 24, -1,
      17, 627, 18, -1,
      18, 627, 629, -1,
      18, 629, 60, -1,
      60, 629, 630, -1,
      60, 630, 61, -1,
      61, 630, 631, -1,
      61, 631, 69, -1,
      69, 631, 632, -1,
      69, 632, 70, -1,
      70, 632, 633, -1,
      70, 633, 72, -1,
      72, 633, 634, -1,
      72, 634, 74, -1,
      74, 634, 635, -1,
      74, 635, 75, -1,
      636, 79, 78, -1,
      636, 78, 637, -1,
      637, 78, 77, -1,
      637, 77, 638, -1,
      638, 77, 66, -1,
      638, 66, 639, -1,
      639, 66, 67, -1,
      639, 67, 640, -1,
      640, 67, 68, -1,
      640, 68, 641, -1,
      641, 68, 76, -1,
      641, 76, 642, -1,
      642, 76, 75, -1,
      642, 75, 635, -1,
      643, 81, 80, -1,
      643, 80, 644, -1,
      644, 80, 79, -1,
      644, 79, 636, -1,
      643, 645, 81, -1,
      81, 645, 82, -1,
      646, 84, 83, -1,
      646, 83, 647, -1,
      647, 83, 82, -1,
      647, 82, 645, -1,
      648, 47, 57, -1,
      648, 57, 649, -1,
      649, 57, 56, -1,
      649, 56, 650, -1,
      650, 56, 46, -1,
      650, 46, 651, -1,
      651, 46, 45, -1,
      651, 45, 652, -1,
      652, 45, 43, -1,
      652, 43, 653, -1,
      653, 43, 42, -1,
      653, 42, 654, -1,
      654, 42, 84, -1,
      654, 84, 646, -1,
      655, 51, 50, -1,
      655, 50, 656, -1,
      656, 50, 52, -1,
      656, 52, 657, -1,
      657, 52, 53, -1,
      657, 53, 658, -1,
      658, 53, 54, -1,
      658, 54, 659, -1,
      659, 54, 49, -1,
      659, 49, 660, -1,
      660, 49, 48, -1,
      660, 48, 661, -1,
      661, 48, 47, -1,
      661, 47, 648, -1,
      624, 25, 44, -1,
      624, 44, 662, -1,
      662, 44, 55, -1,
      662, 55, 663, -1,
      663, 55, 51, -1,
      663, 51, 655, -1,
      656, 627, 655, -1,
      655, 627, 628, -1,
      655, 628, 663, -1,
      663, 628, 626, -1,
      663, 626, 662, -1,
      662, 626, 625, -1,
      662, 625, 624, -1,
      645, 643, 647, -1,
      647, 643, 644, -1,
      647, 644, 646, -1,
      646, 644, 636, -1,
      646, 636, 654, -1,
      654, 636, 637, -1,
      654, 637, 653, -1,
      653, 637, 638, -1,
      653, 638, 652, -1,
      652, 638, 639, -1,
      652, 639, 651, -1,
      651, 639, 640, -1,
      651, 640, 650, -1,
      650, 640, 641, -1,
      650, 641, 649, -1,
      649, 641, 642, -1,
      649, 642, 648, -1,
      648, 642, 635, -1,
      648, 635, 661, -1,
      661, 635, 634, -1,
      661, 634, 660, -1,
      660, 634, 633, -1,
      660, 633, 659, -1,
      659, 633, 632, -1,
      659, 632, 658, -1,
      658, 632, 631, -1,
      658, 631, 657, -1,
      657, 631, 630, -1,
      657, 630, 656, -1,
      656, 630, 629, -1,
      656, 629, 627, -1,
      664, 665, 71, -1,
      71, 665, 59, -1,
      665, 666, 59, -1,
      59, 666, 58, -1,
      666, 667, 58, -1,
      58, 667, 64, -1,
      667, 668, 64, -1,
      64, 668, 62, -1,
      668, 669, 62, -1,
      62, 669, 73, -1,
      669, 664, 73, -1,
      73, 664, 71, -1,
      668, 667, 669, -1,
      669, 667, 666, -1,
      669, 666, 664, -1,
      664, 666, 665, -1,
    ]
  }
}

Shape {
  appearance Appearance {
    material Material {
      diffuseColor 0.2510 0.2510 0.2510
      specularColor 0.1255 0.1255 0.1255
      ambientIntensity 0.2
      transparency 0.0000
      shininess 0.5
    }
  }
  geometry IndexedFaceSet {
    ccw TRUE
    solid FALSE
    coord DEF co Coordinate {
      point [
        -0.194016 -0.680137 -0.078740,
        -0.233513 -0.680137 -0.078740,
        -0.211638 -0.630805 -0.078740,
        -0.212774 -0.626708 -0.078740,
        -0.213528 -0.622522 -0.078740,
        -0.213911 -0.622522 -0.078740,
        -0.214681 -0.626696 -0.078740,
        -0.215734 -0.630805 -0.078740,
        -0.091030 -0.621082 -0.078740,
        -0.073610 -0.621082 -0.078740,
        -0.105009 -0.622568 -0.078740,
        -0.114758 -0.625980 -0.078740,
        -0.123385 -0.631554 -0.078740,
        -0.129122 -0.637645 -0.078740,
        -0.133226 -0.644930 -0.078740,
        -0.135983 -0.654271 -0.078740,
        -0.136986 -0.666026 -0.078740,
        -0.135902 -0.678431 -0.078740,
        -0.132438 -0.689534 -0.078740,
        -0.127456 -0.697677 -0.078740,
        -0.120831 -0.704220 -0.078740,
        -0.112777 -0.709004 -0.078740,
        -0.102837 -0.712106 -0.078740,
        -0.090377 -0.713266 -0.078740,
        -0.073610 -0.713266 -0.078740,
      ]
    }
    coordIndex [
      0, 1, 2, -1,
      2, 1, 7, -1,
      2, 7, 3, -1,
      3, 7, 6, -1,
      3, 6, 4, -1,
      4, 6, 5, -1,
      9, 24, 8, -1,
      8, 24, 23, -1,
      8, 23, 22, -1,
      16, 15, 8, -1,
      8, 15, 14, -1,
      8, 14, 10, -1,
      22, 21, 8, -1,
      8, 21, 20, -1,
      8, 20, 19, -1,
      19, 18, 8, -1,
      8, 18, 17, -1,
      8, 17, 16, -1,
      13, 12, 14, -1,
      14, 12, 11, -1,
      14, 11, 10, -1,
    ]
  }
}
