#VRML V2.0 utf8

Shape {
  appearance Appearance {
    material Material {
      diffuseColor 0.5020 0.5020 0.5020
      specularColor 0.2510 0.2510 0.2510
      ambientIntensity 0.2
      transparency 0.0000
      shininess 0.5
    }
  }
  geometry IndexedFaceSet {
    ccw TRUE
    solid FALSE
    coord DEF co Coordinate {
      point [
        -0.013649 -0.353209 0.000000,
        -0.013649 -0.357530 0.000000,
        -0.017490 -0.357770 0.000000,
        0.007476 -0.357530 0.000000,
        0.015158 -0.355489 0.000000,
        0.015158 -0.351168 0.000000,
        0.007476 -0.318160 0.000000,
        0.649606 -0.357770 0.000000,
        0.442913 -0.236220 0.000000,
        0.649606 0.645669 0.000000,
        0.442913 0.649606 0.000000,
        0.002195 -0.322481 0.000000,
        0.002195 -0.335444 0.000000,
        -0.012689 -0.322481 0.000000,
        -0.011728 -0.335444 0.000000,
        0.002195 -0.339765 0.000000,
        0.002195 -0.353209 0.000000,
        -0.011728 -0.339765 0.000000,
        0.067972 -0.357530 0.000000,
        0.028306 -0.357770 0.000000,
        0.047807 -0.357530 0.000000,
        0.030843 -0.357507 0.000000,
        0.034659 -0.356193 0.000000,
        -0.012689 -0.318160 0.000000,
        -0.017490 -0.236220 0.000000,
        0.028255 -0.322436 0.000000,
        0.031202 -0.323500 0.000000,
        0.015864 -0.351559 0.000000,
        0.033927 -0.325322 0.000000,
        0.036304 -0.327947 0.000000,
        0.039165 -0.338265 0.000000,
        0.038766 -0.342527 0.000000,
        0.037696 -0.345913 0.000000,
        0.028936 -0.353277 0.000000,
        0.025263 -0.353689 0.000000,
        0.031804 -0.352221 0.000000,
        0.034220 -0.350592 0.000000,
        0.036068 -0.348643 0.000000,
        0.020037 -0.353109 0.000000,
        0.042368 -0.328529 0.000000,
        0.040061 -0.324848 0.000000,
        0.062691 -0.318160 0.000000,
        0.645669 0.649606 0.000000,
        0.646688 0.649472 0.000000,
        0.649472 0.646688 0.000000,
        0.647638 0.649079 0.000000,
        0.649079 0.647638 0.000000,
        0.648453 0.648453 0.000000,
        0.037927 -0.330987 0.000000,
        0.038977 -0.335202 0.000000,
        0.037826 -0.354171 0.000000,
        0.040783 -0.351058 0.000000,
        0.047807 -0.353209 0.000000,
        0.042880 -0.347314 0.000000,
        0.062691 -0.353209 0.000000,
        0.044065 -0.343147 0.000000,
        0.044446 -0.338587 0.000000,
        0.043880 -0.332990 0.000000,
        0.036506 -0.321430 0.000000,
        0.032767 -0.319278 0.000000,
        0.028378 -0.318002 0.000000,
        0.024423 -0.317680 0.000000,
        0.019710 -0.318005 0.000000,
        0.015158 -0.319240 0.000000,
        0.015158 -0.324521 0.000000,
        0.019593 -0.322622 0.000000,
        0.024378 -0.322001 0.000000,
        -0.061661 -0.357530 0.000000,
        -0.055900 -0.357530 0.000000,
        -0.038129 -0.318768 0.000000,
        -0.042735 -0.320385 0.000000,
        -0.091429 -0.357530 0.000000,
        -0.085667 -0.357530 0.000000,
        -0.051053 -0.346739 0.000000,
        -0.048795 -0.350261 0.000000,
        -0.045555 -0.353363 0.000000,
        -0.041444 -0.355752 0.000000,
        -0.032441 -0.318160 0.000000,
        -0.081684 -0.346487 0.000000,
        -0.065420 -0.346487 0.000000,
        -0.021331 -0.318160 0.000000,
        -0.047020 -0.323257 0.000000,
        -0.047062 -0.323293 0.000000,
        -0.070783 -0.318160 0.000000,
        -0.049846 -0.326380 0.000000,
        -0.051676 -0.329766 0.000000,
        -0.649606 -0.357770 0.000000,
        -0.364173 -0.236220 0.000000,
        -0.076065 -0.318160 0.000000,
        -0.036907 -0.357105 0.000000,
        -0.032036 -0.357530 0.000000,
        -0.021331 -0.357530 0.000000,
        -0.052733 -0.333645 0.000000,
        -0.053019 -0.337350 0.000000,
        -0.052467 -0.342619 0.000000,
        -0.648453 0.648453 0.000000,
        -0.647638 0.649079 0.000000,
        -0.649079 0.647638 0.000000,
        -0.646688 0.649472 0.000000,
        -0.649472 0.646688 0.000000,
        -0.645669 0.649606 0.000000,
        -0.649606 0.645669 0.000000,
        -0.442913 0.649606 0.000000,
        -0.442913 -0.157480 0.000000,
        -0.017490 -0.649606 0.000000,
        -0.068898 -0.649606 0.000000,
        -0.187008 -0.649606 0.000000,
        -0.324803 -0.649606 0.000000,
        -0.187008 -0.492126 0.000000,
        -0.324803 -0.492126 0.000000,
        -0.068898 -0.492126 0.000000,
        -0.442913 -0.492126 0.000000,
        -0.442913 -0.649606 0.000000,
        -0.645669 -0.649606 0.000000,
        -0.649606 -0.645669 0.000000,
        -0.649472 -0.646688 0.000000,
        -0.646688 -0.649472 0.000000,
        -0.647638 -0.649079 0.000000,
        -0.649079 -0.647638 0.000000,
        -0.648453 -0.648453 0.000000,
        0.324803 -0.649606 0.000000,
        0.187008 -0.649606 0.000000,
        0.324803 -0.492126 0.000000,
        0.187008 -0.492126 0.000000,
        0.019355 -0.357212 0.000000,
        0.023333 -0.357770 0.000000,
        0.068898 -0.492126 0.000000,
        0.068898 -0.649606 0.000000,
        0.024915 -0.357991 0.000000,
        0.025991 -0.358010 0.000000,
        0.648453 -0.648453 0.000000,
        0.647638 -0.649079 0.000000,
        0.649079 -0.647638 0.000000,
        0.646688 -0.649472 0.000000,
        0.649472 -0.646688 0.000000,
        0.645669 -0.649606 0.000000,
        0.649606 -0.645669 0.000000,
        0.442913 -0.649606 0.000000,
        0.442913 -0.492126 0.000000,
        0.067972 -0.318160 0.000000,
        0.645669 0.649606 0.291339,
        0.442913 0.649606 0.074803,
        0.324803 0.649606 0.074803,
        -0.645669 0.649606 0.291339,
        0.068898 0.649606 0.074803,
        0.068898 0.649606 0.000000,
        -0.068898 0.649606 0.000000,
        -0.068898 0.649606 0.074803,
        -0.187008 0.649606 0.074803,
        0.187008 0.649606 0.074803,
        0.187008 0.649606 0.000000,
        0.324803 0.649606 0.000000,
        -0.442913 0.649606 0.074803,
        -0.324803 0.649606 0.074803,
        -0.324803 0.649606 0.000000,
        -0.187008 0.649606 0.000000,
        0.068898 0.492126 0.000000,
        -0.068898 0.492126 0.000000,
        -0.187008 0.492126 0.000000,
        -0.324803 0.492126 0.000000,
        0.649606 -0.645669 0.291339,
        0.649606 0.645669 0.291339,
        -0.649606 -0.645669 0.291339,
        -0.649606 0.645669 0.291339,
        -0.645669 -0.649606 0.291339,
        -0.442913 -0.649606 0.074803,
        -0.324803 -0.649606 0.074803,
        0.645669 -0.649606 0.291339,
        -0.068898 -0.649606 0.074803,
        0.068898 -0.649606 0.074803,
        0.187008 -0.649606 0.074803,
        -0.187008 -0.649606 0.074803,
        0.442913 -0.649606 0.074803,
        0.324803 -0.649606 0.074803,
        -0.458387 -0.522613 0.295276,
        -0.459974 -0.534672 0.295276,
        0.645669 -0.645669 0.295276,
        -0.464629 -0.545910 0.295276,
        -0.472033 -0.555559 0.295276,
        -0.645669 -0.645669 0.295276,
        -0.517039 -0.567619 0.295276,
        -0.528276 -0.562964 0.295276,
        -0.537926 -0.489667 0.295276,
        -0.528276 -0.482263 0.295276,
        -0.645669 0.645669 0.295276,
        -0.517039 -0.477608 0.295276,
        -0.537926 -0.555559 0.295276,
        -0.545330 -0.545910 0.295276,
        -0.549985 -0.534672 0.295276,
        -0.551572 -0.522613 0.295276,
        -0.549985 -0.510554 0.295276,
        -0.545330 -0.499317 0.295276,
        -0.481683 -0.562964 0.295276,
        -0.492920 -0.567619 0.295276,
        -0.504980 -0.569206 0.295276,
        -0.481683 -0.482263 0.295276,
        0.645669 0.645669 0.295276,
        -0.492920 -0.477608 0.295276,
        -0.504980 -0.476021 0.295276,
        -0.472033 -0.489667 0.295276,
        -0.464629 -0.499317 0.295276,
        -0.459974 -0.510554 0.295276,
        0.187008 0.492126 0.000000,
        0.324803 0.492126 0.000000,
      ]
    }
    coordIndex [
      0, 1, 2, -1,
      2, 1, 3, -1,
      4, 3, 5, -1,
      5, 3, 6, -1,
      7, 8, 9, -1,
      9, 8, 10, -1,
      11, 12, 13, -1,
      13, 12, 14, -1,
      15, 16, 17, -1,
      17, 16, 0, -1,
      18, 19, 20, -1,
      20, 19, 21, -1,
      20, 21, 22, -1,
      6, 23, 24, -1,
      24, 23, 13, -1,
      24, 13, 0, -1,
      0, 13, 14, -1,
      0, 14, 17, -1,
      25, 26, 27, -1,
      27, 26, 28, -1,
      27, 28, 29, -1,
      30, 31, 27, -1,
      27, 31, 32, -1,
      33, 34, 35, -1,
      35, 34, 36, -1,
      32, 37, 27, -1,
      27, 37, 36, -1,
      27, 36, 38, -1,
      38, 36, 34, -1,
      39, 40, 41, -1,
      10, 42, 9, -1,
      9, 42, 43, -1,
      9, 43, 44, -1,
      44, 43, 45, -1,
      44, 45, 46, -1,
      46, 45, 47, -1,
      29, 48, 27, -1,
      27, 48, 49, -1,
      27, 49, 30, -1,
      22, 50, 20, -1,
      20, 50, 51, -1,
      20, 51, 52, -1,
      52, 51, 53, -1,
      52, 53, 54, -1,
      53, 55, 54, -1,
      54, 55, 56, -1,
      54, 56, 41, -1,
      41, 56, 57, -1,
      41, 57, 39, -1,
      58, 59, 24, -1,
      24, 59, 60, -1,
      24, 60, 61, -1,
      61, 62, 24, -1,
      24, 62, 63, -1,
      24, 63, 6, -1,
      6, 63, 64, -1,
      6, 64, 5, -1,
      5, 64, 65, -1,
      5, 65, 27, -1,
      27, 65, 66, -1,
      27, 66, 25, -1,
      67, 68, 2, -1,
      69, 70, 24, -1,
      71, 72, 2, -1,
      73, 74, 68, -1,
      68, 74, 75, -1,
      68, 75, 76, -1,
      69, 24, 77, -1,
      2, 72, 67, -1,
      67, 72, 78, -1,
      67, 78, 79, -1,
      0, 2, 24, -1,
      24, 2, 80, -1,
      24, 80, 77, -1,
      81, 82, 83, -1,
      83, 82, 84, -1,
      83, 84, 85, -1,
      2, 86, 71, -1,
      71, 86, 87, -1,
      71, 87, 88, -1,
      88, 87, 24, -1,
      88, 24, 83, -1,
      83, 24, 70, -1,
      83, 70, 81, -1,
      76, 89, 68, -1,
      68, 89, 90, -1,
      68, 90, 2, -1,
      2, 90, 91, -1,
      2, 91, 80, -1,
      85, 92, 83, -1,
      83, 92, 93, -1,
      83, 93, 68, -1,
      68, 93, 94, -1,
      68, 94, 73, -1,
      95, 96, 97, -1,
      97, 96, 98, -1,
      97, 98, 99, -1,
      99, 98, 100, -1,
      99, 100, 101, -1,
      101, 100, 102, -1,
      101, 102, 86, -1,
      86, 102, 103, -1,
      86, 103, 87, -1,
      2, 104, 105, -1,
      106, 107, 108, -1,
      108, 107, 109, -1,
      105, 110, 2, -1,
      2, 110, 108, -1,
      2, 108, 86, -1,
      86, 108, 109, -1,
      86, 109, 111, -1,
      111, 112, 86, -1,
      86, 112, 113, -1,
      86, 113, 114, -1,
      114, 113, 115, -1,
      113, 116, 115, -1,
      115, 116, 117, -1,
      115, 117, 118, -1,
      118, 117, 119, -1,
      120, 121, 122, -1,
      122, 121, 123, -1,
      122, 123, 7, -1,
      4, 124, 3, -1,
      3, 124, 125, -1,
      3, 125, 2, -1,
      2, 125, 126, -1,
      2, 126, 104, -1,
      104, 126, 127, -1,
      125, 128, 126, -1,
      126, 128, 129, -1,
      126, 129, 19, -1,
      130, 131, 132, -1,
      132, 131, 133, -1,
      132, 133, 134, -1,
      134, 133, 135, -1,
      134, 135, 136, -1,
      136, 135, 137, -1,
      136, 137, 7, -1,
      7, 137, 138, -1,
      7, 138, 122, -1,
      40, 58, 41, -1,
      41, 58, 24, -1,
      41, 24, 139, -1,
      139, 24, 8, -1,
      139, 8, 18, -1,
      18, 8, 7, -1,
      18, 7, 19, -1,
      19, 7, 123, -1,
      19, 123, 126, -1,
      140, 42, 10, -1,
      10, 141, 140, -1,
      140, 141, 142, -1,
      140, 142, 143, -1,
      144, 145, 146, -1,
      147, 148, 143, -1,
      146, 147, 144, -1,
      144, 147, 143, -1,
      144, 143, 149, -1,
      149, 143, 142, -1,
      149, 142, 150, -1,
      150, 142, 151, -1,
      102, 100, 152, -1,
      152, 100, 143, -1,
      152, 143, 153, -1,
      153, 143, 148, -1,
      153, 148, 154, -1,
      154, 148, 155, -1,
      156, 157, 145, -1,
      145, 157, 146, -1,
      158, 159, 155, -1,
      155, 159, 154, -1,
      136, 9, 160, -1,
      160, 9, 161, -1,
      162, 163, 114, -1,
      114, 163, 101, -1,
      164, 113, 112, -1,
      112, 165, 164, -1,
      164, 165, 166, -1,
      164, 166, 167, -1,
      168, 105, 127, -1,
      169, 170, 167, -1,
      127, 169, 168, -1,
      168, 169, 167, -1,
      168, 167, 171, -1,
      171, 167, 166, -1,
      171, 166, 106, -1,
      106, 166, 107, -1,
      137, 135, 172, -1,
      172, 135, 167, -1,
      172, 167, 173, -1,
      173, 167, 170, -1,
      173, 170, 120, -1,
      120, 170, 121, -1,
      174, 175, 176, -1,
      176, 175, 177, -1,
      176, 177, 178, -1,
      179, 180, 181, -1,
      182, 183, 184, -1,
      184, 183, 185, -1,
      181, 186, 179, -1,
      179, 186, 187, -1,
      179, 187, 188, -1,
      188, 189, 179, -1,
      179, 189, 190, -1,
      179, 190, 184, -1,
      184, 190, 191, -1,
      184, 191, 182, -1,
      178, 192, 176, -1,
      176, 192, 193, -1,
      176, 193, 179, -1,
      179, 193, 194, -1,
      179, 194, 180, -1,
      195, 196, 197, -1,
      197, 196, 184, -1,
      197, 184, 198, -1,
      198, 184, 185, -1,
      195, 199, 196, -1,
      196, 199, 200, -1,
      196, 200, 176, -1,
      176, 200, 201, -1,
      176, 201, 174, -1,
      150, 151, 202, -1,
      202, 151, 203, -1,
    ]
  }
}

Shape {
  appearance Appearance {
    material Material {
      diffuseColor 1.0000 1.0000 1.0000
      specularColor 0.5020 0.5020 0.5020
      ambientIntensity 0.2
      transparency 0.0000
      shininess 0.5
    }
  }
  geometry IndexedFaceSet {
    ccw TRUE
    solid FALSE
    coord DEF co Coordinate {
      point [
        0.442913 -0.236220 0.000000,
        0.442913 0.649606 0.000000,
        -0.364173 -0.236220 0.000000,
        -0.442913 0.649606 0.000000,
        -0.442913 -0.157480 0.000000,
        -0.068898 -0.649606 0.000000,
        -0.187008 -0.649606 0.000000,
        -0.324803 -0.649606 0.000000,
        -0.187008 -0.492126 0.000000,
        -0.324803 -0.492126 0.000000,
        -0.068898 -0.492126 0.000000,
        -0.442913 -0.492126 0.000000,
        -0.442913 -0.649606 0.000000,
        0.324803 -0.649606 0.000000,
        0.187008 -0.649606 0.000000,
        0.324803 -0.492126 0.000000,
        0.187008 -0.492126 0.000000,
        0.068898 -0.492126 0.000000,
        0.068898 -0.649606 0.000000,
        0.442913 -0.649606 0.000000,
        0.442913 -0.492126 0.000000,
        0.442913 0.649606 0.074803,
        0.324803 0.649606 0.074803,
        0.068898 0.649606 0.074803,
        0.068898 0.649606 0.000000,
        -0.068898 0.649606 0.000000,
        -0.068898 0.649606 0.074803,
        -0.187008 0.649606 0.074803,
        0.187008 0.649606 0.074803,
        0.187008 0.649606 0.000000,
        0.324803 0.649606 0.000000,
        -0.442913 0.649606 0.074803,
        -0.324803 0.649606 0.074803,
        -0.324803 0.649606 0.000000,
        -0.187008 0.649606 0.000000,
        0.068898 0.492126 0.000000,
        -0.068898 0.492126 0.000000,
        -0.187008 0.492126 0.000000,
        -0.324803 0.492126 0.000000,
        -0.442913 -0.649606 0.074803,
        -0.324803 -0.649606 0.074803,
        -0.068898 -0.649606 0.074803,
        0.068898 -0.649606 0.074803,
        0.187008 -0.649606 0.074803,
        -0.187008 -0.649606 0.074803,
        0.442913 -0.649606 0.074803,
        0.324803 -0.649606 0.074803,
        0.187008 0.492126 0.000000,
        0.324803 0.492126 0.000000,
        0.068898 -0.492126 -0.003937,
        0.068898 -0.653543 -0.003937,
        0.068898 -0.653543 0.074803,
        0.187008 -0.653543 0.074803,
        0.187008 -0.653543 -0.003937,
        0.187008 -0.492126 -0.003937,
        -0.187008 -0.492126 -0.003937,
        -0.187008 -0.653543 -0.003937,
        -0.187008 -0.653543 0.074803,
        -0.068898 -0.653543 0.074803,
        -0.068898 -0.653543 -0.003937,
        -0.068898 -0.492126 -0.003937,
        0.442913 -0.492126 -0.003937,
        0.324803 -0.492126 -0.003937,
        0.324803 -0.653543 -0.003937,
        0.324803 -0.653543 0.074803,
        0.442913 -0.653543 0.074803,
        0.442913 -0.653543 -0.003937,
        -0.442913 -0.492126 -0.003937,
        -0.442913 -0.653543 -0.003937,
        -0.442913 -0.653543 0.074803,
        -0.324803 -0.653543 0.074803,
        -0.324803 -0.653543 -0.003937,
        -0.324803 -0.492126 -0.003937,
        0.187008 0.492126 -0.003937,
        0.187008 0.653543 -0.003937,
        0.187008 0.653543 0.074803,
        0.068898 0.653543 0.074803,
        0.068898 0.653543 -0.003937,
        0.068898 0.492126 -0.003937,
        -0.068898 0.492126 -0.003937,
        -0.068898 0.653543 -0.003937,
        -0.068898 0.653543 0.074803,
        -0.187008 0.653543 0.074803,
        -0.187008 0.653543 -0.003937,
        -0.187008 0.492126 -0.003937,
        -0.324803 0.492126 -0.003937,
        -0.324803 0.653543 -0.003937,
        -0.324803 0.653543 0.074803,
        -0.442913 0.653543 0.074803,
        -0.442913 0.653543 -0.003937,
        -0.442913 -0.157480 -0.003937,
        -0.364173 -0.236220 -0.003937,
        0.442913 -0.236220 -0.003937,
        0.442913 0.653543 -0.003937,
        0.442913 0.653543 0.074803,
        0.324803 0.653543 0.074803,
        0.324803 0.653543 -0.003937,
        0.324803 0.492126 -0.003937,
      ]
    }
    coordIndex [
      17, 49, 18, -1,
      18, 49, 50, -1,
      18, 50, 42, -1,
      42, 50, 51, -1,
      43, 52, 14, -1,
      14, 52, 53, -1,
      14, 53, 16, -1,
      16, 53, 54, -1,
      54, 49, 16, -1,
      16, 49, 17, -1,
      54, 53, 49, -1,
      49, 53, 50, -1,
      8, 55, 6, -1,
      6, 55, 56, -1,
      6, 56, 44, -1,
      44, 56, 57, -1,
      41, 58, 5, -1,
      5, 58, 59, -1,
      5, 59, 10, -1,
      10, 59, 60, -1,
      60, 55, 10, -1,
      10, 55, 8, -1,
      60, 59, 55, -1,
      55, 59, 56, -1,
      61, 62, 20, -1,
      20, 62, 15, -1,
      15, 62, 13, -1,
      13, 62, 63, -1,
      13, 63, 46, -1,
      46, 63, 64, -1,
      45, 65, 19, -1,
      19, 65, 66, -1,
      19, 66, 20, -1,
      20, 66, 61, -1,
      66, 63, 61, -1,
      61, 63, 62, -1,
      11, 67, 12, -1,
      12, 67, 68, -1,
      12, 68, 39, -1,
      39, 68, 69, -1,
      40, 70, 7, -1,
      7, 70, 71, -1,
      7, 71, 9, -1,
      9, 71, 72, -1,
      72, 67, 9, -1,
      9, 67, 11, -1,
      72, 71, 67, -1,
      67, 71, 68, -1,
      47, 73, 29, -1,
      29, 73, 74, -1,
      29, 74, 28, -1,
      28, 74, 75, -1,
      23, 76, 24, -1,
      24, 76, 77, -1,
      24, 77, 35, -1,
      35, 77, 78, -1,
      78, 79, 35, -1,
      35, 79, 36, -1,
      36, 79, 25, -1,
      25, 79, 80, -1,
      25, 80, 26, -1,
      26, 80, 81, -1,
      27, 82, 34, -1,
      34, 82, 83, -1,
      34, 83, 37, -1,
      37, 83, 84, -1,
      84, 85, 37, -1,
      37, 85, 38, -1,
      38, 85, 33, -1,
      33, 85, 86, -1,
      33, 86, 32, -1,
      32, 86, 87, -1,
      31, 88, 3, -1,
      3, 88, 89, -1,
      3, 89, 4, -1,
      4, 89, 90, -1,
      90, 91, 4, -1,
      4, 91, 2, -1,
      91, 92, 2, -1,
      2, 92, 0, -1,
      0, 92, 1, -1,
      1, 92, 93, -1,
      1, 93, 21, -1,
      21, 93, 94, -1,
      22, 95, 30, -1,
      30, 95, 96, -1,
      30, 96, 48, -1,
      48, 96, 97, -1,
      97, 73, 48, -1,
      48, 73, 47, -1,
      96, 93, 97, -1,
      97, 93, 92, -1,
      90, 89, 85, -1,
      85, 89, 86, -1,
      83, 80, 84, -1,
      84, 80, 79, -1,
      77, 74, 78, -1,
      78, 74, 73, -1,
      85, 84, 90, -1,
      90, 84, 79, -1,
      90, 79, 91, -1,
      91, 79, 78, -1,
      91, 78, 92, -1,
      92, 78, 73, -1,
      92, 73, 97, -1,
    ]
  }
}

Shape {
  appearance Appearance {
    material Material {
      diffuseColor 0.7529 0.7529 0.7529
      specularColor 0.3765 0.3765 0.3765
      ambientIntensity 0.2
      transparency 0.0000
      shininess 0.5
    }
  }
  geometry IndexedFaceSet {
    ccw TRUE
    solid FALSE
    coord DEF co Coordinate {
      point [
        -0.458387 -0.522613 0.295276,
        -0.459974 -0.534672 0.295276,
        -0.464629 -0.545910 0.295276,
        -0.472033 -0.555559 0.295276,
        -0.517039 -0.567619 0.295276,
        -0.528276 -0.562964 0.295276,
        -0.537926 -0.489667 0.295276,
        -0.528276 -0.482263 0.295276,
        -0.517039 -0.477608 0.295276,
        -0.537926 -0.555559 0.295276,
        -0.545330 -0.545910 0.295276,
        -0.549985 -0.534672 0.295276,
        -0.551572 -0.522613 0.295276,
        -0.549985 -0.510554 0.295276,
        -0.545330 -0.499317 0.295276,
        -0.481683 -0.562964 0.295276,
        -0.492920 -0.567619 0.295276,
        -0.504980 -0.569206 0.295276,
        -0.481683 -0.482263 0.295276,
        -0.492920 -0.477608 0.295276,
        -0.504980 -0.476021 0.295276,
        -0.472033 -0.489667 0.295276,
        -0.464629 -0.499317 0.295276,
        -0.459974 -0.510554 0.295276,
        -0.458387 -0.522613 0.291339,
        -0.459974 -0.510554 0.291339,
        -0.464629 -0.499317 0.291339,
        -0.472033 -0.489667 0.291339,
        -0.481683 -0.482263 0.291339,
        -0.492920 -0.477608 0.291339,
        -0.504980 -0.476021 0.291339,
        -0.517039 -0.477608 0.291339,
        -0.528276 -0.482263 0.291339,
        -0.537926 -0.489667 0.291339,
        -0.545330 -0.499317 0.291339,
        -0.549985 -0.510554 0.291339,
        -0.551572 -0.522613 0.291339,
        -0.549985 -0.534672 0.291339,
        -0.545330 -0.545910 0.291339,
        -0.537926 -0.555559 0.291339,
        -0.528276 -0.562964 0.291339,
        -0.517039 -0.567619 0.291339,
        -0.504980 -0.569206 0.291339,
        -0.492920 -0.567619 0.291339,
        -0.481683 -0.562964 0.291339,
        -0.472033 -0.555559 0.291339,
        -0.464629 -0.545910 0.291339,
        -0.459974 -0.534672 0.291339,
        -0.504980 -0.522613 0.291339,
      ]
    }
    coordIndex [
      24, 0, 25, -1,
      25, 0, 23, -1,
      25, 23, 26, -1,
      26, 23, 22, -1,
      26, 22, 27, -1,
      27, 22, 21, -1,
      27, 21, 28, -1,
      28, 21, 18, -1,
      28, 18, 29, -1,
      29, 18, 19, -1,
      29, 19, 30, -1,
      30, 19, 20, -1,
      30, 20, 31, -1,
      31, 20, 8, -1,
      31, 8, 32, -1,
      32, 8, 7, -1,
      32, 7, 33, -1,
      33, 7, 6, -1,
      33, 6, 34, -1,
      34, 6, 14, -1,
      34, 14, 35, -1,
      35, 14, 13, -1,
      35, 13, 36, -1,
      36, 13, 12, -1,
      36, 12, 37, -1,
      37, 12, 11, -1,
      37, 11, 38, -1,
      38, 11, 10, -1,
      38, 10, 39, -1,
      39, 10, 9, -1,
      39, 9, 40, -1,
      40, 9, 5, -1,
      40, 5, 41, -1,
      41, 5, 4, -1,
      41, 4, 42, -1,
      42, 4, 17, -1,
      42, 17, 43, -1,
      43, 17, 16, -1,
      43, 16, 44, -1,
      44, 16, 15, -1,
      44, 15, 45, -1,
      45, 15, 3, -1,
      45, 3, 46, -1,
      46, 3, 2, -1,
      46, 2, 47, -1,
      47, 2, 1, -1,
      47, 1, 24, -1,
      24, 1, 0, -1,
      46, 47, 48, -1,
      48, 47, 24, -1,
      48, 24, 25, -1,
      43, 44, 48, -1,
      48, 44, 45, -1,
      48, 45, 46, -1,
      40, 41, 48, -1,
      48, 41, 42, -1,
      48, 42, 43, -1,
      37, 38, 48, -1,
      48, 38, 39, -1,
      48, 39, 40, -1,
      34, 35, 48, -1,
      48, 35, 36, -1,
      48, 36, 37, -1,
      31, 32, 48, -1,
      48, 32, 33, -1,
      48, 33, 34, -1,
      28, 29, 48, -1,
      48, 29, 30, -1,
      48, 30, 31, -1,
      25, 26, 48, -1,
      48, 26, 27, -1,
      48, 27, 28, -1,
    ]
  }
}

Shape {
  appearance Appearance {
    material Material {
      diffuseColor 0.5020 0.5020 0.5020
      specularColor 0.2510 0.2510 0.2510
      ambientIntensity 0.2
      transparency 0.0000
      shininess 0.5
    }
  }
  geometry IndexedFaceSet {
    ccw TRUE
    solid FALSE
    coord DEF co Coordinate {
      point [
        0.649606 0.645669 0.000000,
        0.645669 0.649606 0.000000,
        0.646688 0.649472 0.000000,
        0.649472 0.646688 0.000000,
        0.647638 0.649079 0.000000,
        0.649079 0.647638 0.000000,
        0.648453 0.648453 0.000000,
        -0.648453 0.648453 0.000000,
        -0.647638 0.649079 0.000000,
        -0.649079 0.647638 0.000000,
        -0.646688 0.649472 0.000000,
        -0.649472 0.646688 0.000000,
        -0.645669 0.649606 0.000000,
        -0.649606 0.645669 0.000000,
        -0.645669 -0.649606 0.000000,
        -0.649606 -0.645669 0.000000,
        -0.649472 -0.646688 0.000000,
        -0.646688 -0.649472 0.000000,
        -0.647638 -0.649079 0.000000,
        -0.649079 -0.647638 0.000000,
        -0.648453 -0.648453 0.000000,
        0.648453 -0.648453 0.000000,
        0.647638 -0.649079 0.000000,
        0.649079 -0.647638 0.000000,
        0.646688 -0.649472 0.000000,
        0.649472 -0.646688 0.000000,
        0.645669 -0.649606 0.000000,
        0.649606 -0.645669 0.000000,
        0.645669 0.649606 0.291339,
        -0.645669 0.649606 0.291339,
        0.649606 -0.645669 0.291339,
        0.649606 0.645669 0.291339,
        -0.649606 -0.645669 0.291339,
        -0.649606 0.645669 0.291339,
        -0.645669 -0.649606 0.291339,
        0.645669 -0.649606 0.291339,
        0.645669 -0.645669 0.295276,
        -0.645669 -0.645669 0.295276,
        -0.645669 0.645669 0.295276,
        0.645669 0.645669 0.295276,
        -0.646688 0.649472 0.291339,
        -0.647638 0.649079 0.291339,
        -0.648453 0.648453 0.291339,
        -0.649079 0.647638 0.291339,
        -0.649472 0.646688 0.291339,
        -0.649472 0.645669 0.292357,
        -0.649343 0.646654 0.292357,
        -0.647374 0.646654 0.294748,
        -0.646552 0.646179 0.295141,
        -0.646390 0.646390 0.295141,
        -0.645669 0.646688 0.295141,
        -0.645933 0.646654 0.295141,
        -0.646654 0.645933 0.295141,
        -0.647571 0.646179 0.294748,
        -0.648358 0.646390 0.294122,
        -0.646688 0.645669 0.295141,
        -0.647061 0.647061 0.294748,
        -0.646179 0.646552 0.295141,
        -0.646654 0.647374 0.294748,
        -0.646179 0.647571 0.294748,
        -0.645669 0.647638 0.294748,
        -0.647638 0.645669 0.294748,
        -0.648453 0.645669 0.294122,
        -0.649079 0.645669 0.293307,
        -0.648080 0.647061 0.294122,
        -0.647638 0.647638 0.294122,
        -0.647061 0.648080 0.294122,
        -0.646390 0.648358 0.294122,
        -0.645669 0.648453 0.294122,
        -0.648963 0.646552 0.293307,
        -0.648622 0.647374 0.293307,
        -0.648080 0.648080 0.293307,
        -0.647374 0.648622 0.293307,
        -0.646552 0.648963 0.293307,
        -0.645669 0.649079 0.293307,
        -0.648963 0.647571 0.292357,
        -0.648358 0.648358 0.292357,
        -0.647571 0.648963 0.292357,
        -0.646654 0.649343 0.292357,
        -0.645669 0.649472 0.292357,
        -0.649472 -0.646688 0.291339,
        -0.649079 -0.647638 0.291339,
        -0.648453 -0.648453 0.291339,
        -0.647638 -0.649079 0.291339,
        -0.646688 -0.649472 0.291339,
        -0.646688 -0.645669 0.295141,
        -0.647638 -0.645669 0.294748,
        -0.648453 -0.645669 0.294122,
        -0.649079 -0.645669 0.293307,
        -0.649472 -0.645669 0.292357,
        0.645669 0.646688 0.295141,
        0.645669 0.647638 0.294748,
        0.645669 0.648453 0.294122,
        0.645669 0.649079 0.293307,
        0.645669 0.649472 0.292357,
        0.649472 0.646688 0.291339,
        0.649079 0.647638 0.291339,
        0.648453 0.648453 0.291339,
        0.647638 0.649079 0.291339,
        0.646688 0.649472 0.291339,
        -0.645669 -0.649472 0.292357,
        -0.646654 -0.649343 0.292357,
        -0.646654 -0.647374 0.294748,
        -0.646179 -0.646552 0.295141,
        -0.646390 -0.646390 0.295141,
        -0.646654 -0.645933 0.295141,
        -0.645933 -0.646654 0.295141,
        -0.646179 -0.647571 0.294748,
        -0.646390 -0.648358 0.294122,
        -0.645669 -0.646688 0.295141,
        -0.647061 -0.647061 0.294748,
        -0.646552 -0.646179 0.295141,
        -0.647374 -0.646654 0.294748,
        -0.647571 -0.646179 0.294748,
        -0.645669 -0.647638 0.294748,
        -0.645669 -0.648453 0.294122,
        -0.645669 -0.649079 0.293307,
        -0.647061 -0.648080 0.294122,
        -0.647638 -0.647638 0.294122,
        -0.648080 -0.647061 0.294122,
        -0.648358 -0.646390 0.294122,
        -0.646552 -0.648963 0.293307,
        -0.647374 -0.648622 0.293307,
        -0.648080 -0.648080 0.293307,
        -0.648622 -0.647374 0.293307,
        -0.648963 -0.646552 0.293307,
        -0.647571 -0.648963 0.292357,
        -0.648358 -0.648358 0.292357,
        -0.648963 -0.647571 0.292357,
        -0.649343 -0.646654 0.292357,
        0.646654 0.649343 0.292357,
        0.646654 0.647374 0.294748,
        0.646179 0.646552 0.295141,
        0.646390 0.646390 0.295141,
        0.646688 0.645669 0.295141,
        0.646654 0.645933 0.295141,
        0.645933 0.646654 0.295141,
        0.646179 0.647571 0.294748,
        0.646390 0.648358 0.294122,
        0.647061 0.647061 0.294748,
        0.646552 0.646179 0.295141,
        0.647374 0.646654 0.294748,
        0.647571 0.646179 0.294748,
        0.647638 0.645669 0.294748,
        0.647061 0.648080 0.294122,
        0.647638 0.647638 0.294122,
        0.648080 0.647061 0.294122,
        0.648358 0.646390 0.294122,
        0.648453 0.645669 0.294122,
        0.646552 0.648963 0.293307,
        0.647374 0.648622 0.293307,
        0.648080 0.648080 0.293307,
        0.648622 0.647374 0.293307,
        0.648963 0.646552 0.293307,
        0.649079 0.645669 0.293307,
        0.647571 0.648963 0.292357,
        0.648358 0.648358 0.292357,
        0.648963 0.647571 0.292357,
        0.649343 0.646654 0.292357,
        0.649472 0.645669 0.292357,
        0.645669 -0.646688 0.295141,
        0.645669 -0.647638 0.294748,
        0.645669 -0.648453 0.294122,
        0.645669 -0.649079 0.293307,
        0.645669 -0.649472 0.292357,
        0.646688 -0.645669 0.295141,
        0.647638 -0.645669 0.294748,
        0.648453 -0.645669 0.294122,
        0.649079 -0.645669 0.293307,
        0.649472 -0.645669 0.292357,
        0.649343 -0.646654 0.292357,
        0.647374 -0.646654 0.294748,
        0.646552 -0.646179 0.295141,
        0.646390 -0.646390 0.295141,
        0.645933 -0.646654 0.295141,
        0.646654 -0.645933 0.295141,
        0.647571 -0.646179 0.294748,
        0.648358 -0.646390 0.294122,
        0.647061 -0.647061 0.294748,
        0.646179 -0.646552 0.295141,
        0.646654 -0.647374 0.294748,
        0.646179 -0.647571 0.294748,
        0.648080 -0.647061 0.294122,
        0.647638 -0.647638 0.294122,
        0.647061 -0.648080 0.294122,
        0.646390 -0.648358 0.294122,
        0.648963 -0.646552 0.293307,
        0.648622 -0.647374 0.293307,
        0.648080 -0.648080 0.293307,
        0.647374 -0.648622 0.293307,
        0.646552 -0.648963 0.293307,
        0.648963 -0.647571 0.292357,
        0.648358 -0.648358 0.292357,
        0.647571 -0.648963 0.292357,
        0.646654 -0.649343 0.292357,
        0.649472 -0.646688 0.291339,
        0.649079 -0.647638 0.291339,
        0.648453 -0.648453 0.291339,
        0.647638 -0.649079 0.291339,
        0.646688 -0.649472 0.291339,
      ]
    }
    coordIndex [
      29, 12, 10, -1,
      29, 10, 40, -1,
      40, 10, 8, -1,
      40, 8, 41, -1,
      41, 8, 7, -1,
      41, 7, 42, -1,
      42, 7, 9, -1,
      42, 9, 43, -1,
      43, 9, 11, -1,
      43, 11, 44, -1,
      44, 11, 13, -1,
      44, 13, 33, -1,
      33, 45, 46, -1,
      47, 48, 49, -1,
      38, 50, 51, -1,
      49, 48, 38, -1,
      52, 38, 48, -1,
      52, 48, 53, -1,
      53, 48, 47, -1,
      53, 47, 54, -1,
      55, 38, 52, -1,
      56, 57, 58, -1,
      58, 57, 51, -1,
      58, 51, 59, -1,
      59, 51, 50, -1,
      59, 50, 60, -1,
      55, 52, 61, -1,
      61, 52, 53, -1,
      61, 53, 62, -1,
      62, 53, 54, -1,
      62, 54, 63, -1,
      64, 56, 65, -1,
      65, 56, 58, -1,
      65, 58, 66, -1,
      66, 58, 59, -1,
      66, 59, 67, -1,
      67, 59, 60, -1,
      67, 60, 68, -1,
      69, 64, 70, -1,
      70, 64, 65, -1,
      70, 65, 71, -1,
      71, 65, 66, -1,
      71, 66, 72, -1,
      72, 66, 67, -1,
      72, 67, 73, -1,
      73, 67, 68, -1,
      73, 68, 74, -1,
      45, 69, 46, -1,
      46, 69, 70, -1,
      46, 70, 75, -1,
      75, 70, 71, -1,
      75, 71, 76, -1,
      76, 71, 72, -1,
      76, 72, 77, -1,
      77, 72, 73, -1,
      77, 73, 78, -1,
      78, 73, 74, -1,
      78, 74, 79, -1,
      33, 46, 44, -1,
      44, 46, 75, -1,
      44, 75, 43, -1,
      43, 75, 76, -1,
      43, 76, 42, -1,
      42, 76, 77, -1,
      42, 77, 41, -1,
      41, 77, 78, -1,
      41, 78, 40, -1,
      40, 78, 79, -1,
      40, 79, 29, -1,
      57, 38, 51, -1,
      45, 63, 69, -1,
      69, 63, 54, -1,
      69, 54, 64, -1,
      64, 54, 47, -1,
      64, 47, 56, -1,
      56, 47, 49, -1,
      56, 49, 57, -1,
      57, 49, 38, -1,
      32, 15, 16, -1,
      32, 16, 80, -1,
      80, 16, 19, -1,
      80, 19, 81, -1,
      81, 19, 20, -1,
      81, 20, 82, -1,
      82, 20, 18, -1,
      82, 18, 83, -1,
      83, 18, 17, -1,
      83, 17, 84, -1,
      84, 17, 14, -1,
      84, 14, 34, -1,
      37, 38, 55, -1,
      37, 55, 85, -1,
      85, 55, 61, -1,
      85, 61, 86, -1,
      86, 61, 62, -1,
      86, 62, 87, -1,
      87, 62, 63, -1,
      87, 63, 88, -1,
      88, 63, 45, -1,
      88, 45, 89, -1,
      89, 45, 33, -1,
      89, 33, 32, -1,
      38, 39, 90, -1,
      38, 90, 50, -1,
      50, 90, 91, -1,
      50, 91, 60, -1,
      60, 91, 92, -1,
      60, 92, 68, -1,
      68, 92, 93, -1,
      68, 93, 74, -1,
      74, 93, 94, -1,
      74, 94, 79, -1,
      79, 94, 28, -1,
      79, 28, 29, -1,
      31, 0, 3, -1,
      31, 3, 95, -1,
      95, 3, 5, -1,
      95, 5, 96, -1,
      96, 5, 6, -1,
      96, 6, 97, -1,
      97, 6, 4, -1,
      97, 4, 98, -1,
      98, 4, 2, -1,
      98, 2, 99, -1,
      99, 2, 1, -1,
      99, 1, 28, -1,
      34, 100, 101, -1,
      102, 103, 104, -1,
      37, 85, 105, -1,
      104, 103, 37, -1,
      106, 37, 103, -1,
      106, 103, 107, -1,
      107, 103, 102, -1,
      107, 102, 108, -1,
      109, 37, 106, -1,
      110, 111, 112, -1,
      112, 111, 105, -1,
      112, 105, 113, -1,
      113, 105, 85, -1,
      113, 85, 86, -1,
      109, 106, 114, -1,
      114, 106, 107, -1,
      114, 107, 115, -1,
      115, 107, 108, -1,
      115, 108, 116, -1,
      117, 110, 118, -1,
      118, 110, 112, -1,
      118, 112, 119, -1,
      119, 112, 113, -1,
      119, 113, 120, -1,
      120, 113, 86, -1,
      120, 86, 87, -1,
      121, 117, 122, -1,
      122, 117, 118, -1,
      122, 118, 123, -1,
      123, 118, 119, -1,
      123, 119, 124, -1,
      124, 119, 120, -1,
      124, 120, 125, -1,
      125, 120, 87, -1,
      125, 87, 88, -1,
      100, 121, 101, -1,
      101, 121, 122, -1,
      101, 122, 126, -1,
      126, 122, 123, -1,
      126, 123, 127, -1,
      127, 123, 124, -1,
      127, 124, 128, -1,
      128, 124, 125, -1,
      128, 125, 129, -1,
      129, 125, 88, -1,
      129, 88, 89, -1,
      34, 101, 84, -1,
      84, 101, 126, -1,
      84, 126, 83, -1,
      83, 126, 127, -1,
      83, 127, 82, -1,
      82, 127, 128, -1,
      82, 128, 81, -1,
      81, 128, 129, -1,
      81, 129, 80, -1,
      80, 129, 89, -1,
      80, 89, 32, -1,
      111, 37, 105, -1,
      100, 116, 121, -1,
      121, 116, 108, -1,
      121, 108, 117, -1,
      117, 108, 102, -1,
      117, 102, 110, -1,
      110, 102, 104, -1,
      110, 104, 111, -1,
      111, 104, 37, -1,
      28, 94, 130, -1,
      131, 132, 133, -1,
      39, 134, 135, -1,
      133, 132, 39, -1,
      136, 39, 132, -1,
      136, 132, 137, -1,
      137, 132, 131, -1,
      137, 131, 138, -1,
      90, 39, 136, -1,
      139, 140, 141, -1,
      141, 140, 135, -1,
      141, 135, 142, -1,
      142, 135, 134, -1,
      142, 134, 143, -1,
      90, 136, 91, -1,
      91, 136, 137, -1,
      91, 137, 92, -1,
      92, 137, 138, -1,
      92, 138, 93, -1,
      144, 139, 145, -1,
      145, 139, 141, -1,
      145, 141, 146, -1,
      146, 141, 142, -1,
      146, 142, 147, -1,
      147, 142, 143, -1,
      147, 143, 148, -1,
      149, 144, 150, -1,
      150, 144, 145, -1,
      150, 145, 151, -1,
      151, 145, 146, -1,
      151, 146, 152, -1,
      152, 146, 147, -1,
      152, 147, 153, -1,
      153, 147, 148, -1,
      153, 148, 154, -1,
      94, 149, 130, -1,
      130, 149, 150, -1,
      130, 150, 155, -1,
      155, 150, 151, -1,
      155, 151, 156, -1,
      156, 151, 152, -1,
      156, 152, 157, -1,
      157, 152, 153, -1,
      157, 153, 158, -1,
      158, 153, 154, -1,
      158, 154, 159, -1,
      28, 130, 99, -1,
      99, 130, 155, -1,
      99, 155, 98, -1,
      98, 155, 156, -1,
      98, 156, 97, -1,
      97, 156, 157, -1,
      97, 157, 96, -1,
      96, 157, 158, -1,
      96, 158, 95, -1,
      95, 158, 159, -1,
      95, 159, 31, -1,
      140, 39, 135, -1,
      94, 93, 149, -1,
      149, 93, 138, -1,
      149, 138, 144, -1,
      144, 138, 131, -1,
      144, 131, 139, -1,
      139, 131, 133, -1,
      139, 133, 140, -1,
      140, 133, 39, -1,
      36, 37, 109, -1,
      36, 109, 160, -1,
      160, 109, 114, -1,
      160, 114, 161, -1,
      161, 114, 115, -1,
      161, 115, 162, -1,
      162, 115, 116, -1,
      162, 116, 163, -1,
      163, 116, 100, -1,
      163, 100, 164, -1,
      164, 100, 34, -1,
      164, 34, 35, -1,
      39, 36, 165, -1,
      39, 165, 134, -1,
      134, 165, 166, -1,
      134, 166, 143, -1,
      143, 166, 167, -1,
      143, 167, 148, -1,
      148, 167, 168, -1,
      148, 168, 154, -1,
      154, 168, 169, -1,
      154, 169, 159, -1,
      159, 169, 30, -1,
      159, 30, 31, -1,
      30, 169, 170, -1,
      171, 172, 173, -1,
      36, 160, 174, -1,
      173, 172, 36, -1,
      175, 36, 172, -1,
      175, 172, 176, -1,
      176, 172, 171, -1,
      176, 171, 177, -1,
      165, 36, 175, -1,
      178, 179, 180, -1,
      180, 179, 174, -1,
      180, 174, 181, -1,
      181, 174, 160, -1,
      181, 160, 161, -1,
      165, 175, 166, -1,
      166, 175, 176, -1,
      166, 176, 167, -1,
      167, 176, 177, -1,
      167, 177, 168, -1,
      182, 178, 183, -1,
      183, 178, 180, -1,
      183, 180, 184, -1,
      184, 180, 181, -1,
      184, 181, 185, -1,
      185, 181, 161, -1,
      185, 161, 162, -1,
      186, 182, 187, -1,
      187, 182, 183, -1,
      187, 183, 188, -1,
      188, 183, 184, -1,
      188, 184, 189, -1,
      189, 184, 185, -1,
      189, 185, 190, -1,
      190, 185, 162, -1,
      190, 162, 163, -1,
      169, 186, 170, -1,
      170, 186, 187, -1,
      170, 187, 191, -1,
      191, 187, 188, -1,
      191, 188, 192, -1,
      192, 188, 189, -1,
      192, 189, 193, -1,
      193, 189, 190, -1,
      193, 190, 194, -1,
      194, 190, 163, -1,
      194, 163, 164, -1,
      30, 170, 195, -1,
      195, 170, 191, -1,
      195, 191, 196, -1,
      196, 191, 192, -1,
      196, 192, 197, -1,
      197, 192, 193, -1,
      197, 193, 198, -1,
      198, 193, 194, -1,
      198, 194, 199, -1,
      199, 194, 164, -1,
      199, 164, 35, -1,
      179, 36, 174, -1,
      169, 168, 186, -1,
      186, 168, 177, -1,
      186, 177, 182, -1,
      182, 177, 171, -1,
      182, 171, 178, -1,
      178, 171, 173, -1,
      178, 173, 179, -1,
      179, 173, 36, -1,
      35, 26, 24, -1,
      35, 24, 199, -1,
      199, 24, 22, -1,
      199, 22, 198, -1,
      198, 22, 21, -1,
      198, 21, 197, -1,
      197, 21, 23, -1,
      197, 23, 196, -1,
      196, 23, 25, -1,
      196, 25, 195, -1,
      195, 25, 27, -1,
      195, 27, 30, -1,
    ]
  }
}

Shape {
  appearance Appearance {
    material Material {
      diffuseColor 1.0000 1.0000 1.0000
      specularColor 0.5020 0.5020 0.5020
      ambientIntensity 0.2
      transparency 0.0000
      shininess 0.5
    }
  }
  geometry IndexedFaceSet {
    ccw TRUE
    solid FALSE
    coord DEF co Coordinate {
      point [
        -0.013649 -0.353209 0.000000,
        -0.013649 -0.357530 0.000000,
        0.007476 -0.357530 0.000000,
        0.015158 -0.355489 0.000000,
        0.015158 -0.351168 0.000000,
        0.007476 -0.318160 0.000000,
        0.002195 -0.322481 0.000000,
        0.002195 -0.335444 0.000000,
        -0.012689 -0.322481 0.000000,
        -0.011728 -0.335444 0.000000,
        0.002195 -0.339765 0.000000,
        0.002195 -0.353209 0.000000,
        -0.011728 -0.339765 0.000000,
        0.067972 -0.357530 0.000000,
        0.028306 -0.357770 0.000000,
        0.047807 -0.357530 0.000000,
        0.030843 -0.357507 0.000000,
        0.034659 -0.356193 0.000000,
        -0.012689 -0.318160 0.000000,
        0.028255 -0.322436 0.000000,
        0.031202 -0.323500 0.000000,
        0.015864 -0.351559 0.000000,
        0.033927 -0.325322 0.000000,
        0.036304 -0.327947 0.000000,
        0.039165 -0.338265 0.000000,
        0.038766 -0.342527 0.000000,
        0.037696 -0.345913 0.000000,
        0.028936 -0.353277 0.000000,
        0.025263 -0.353689 0.000000,
        0.031804 -0.352221 0.000000,
        0.034220 -0.350592 0.000000,
        0.036068 -0.348643 0.000000,
        0.020037 -0.353109 0.000000,
        0.042368 -0.328529 0.000000,
        0.040061 -0.324848 0.000000,
        0.062691 -0.318160 0.000000,
        0.037927 -0.330987 0.000000,
        0.038977 -0.335202 0.000000,
        0.037826 -0.354171 0.000000,
        0.040783 -0.351058 0.000000,
        0.047807 -0.353209 0.000000,
        0.042880 -0.347314 0.000000,
        0.062691 -0.353209 0.000000,
        0.044065 -0.343147 0.000000,
        0.044446 -0.338587 0.000000,
        0.043880 -0.332990 0.000000,
        0.036506 -0.321430 0.000000,
        0.032767 -0.319278 0.000000,
        0.028378 -0.318002 0.000000,
        0.024423 -0.317680 0.000000,
        0.019710 -0.318005 0.000000,
        0.015158 -0.319240 0.000000,
        0.015158 -0.324521 0.000000,
        0.019593 -0.322622 0.000000,
        0.024378 -0.322001 0.000000,
        -0.061661 -0.357530 0.000000,
        -0.055900 -0.357530 0.000000,
        -0.038129 -0.318768 0.000000,
        -0.042735 -0.320385 0.000000,
        -0.091429 -0.357530 0.000000,
        -0.085667 -0.357530 0.000000,
        -0.051053 -0.346739 0.000000,
        -0.048795 -0.350261 0.000000,
        -0.045555 -0.353363 0.000000,
        -0.041444 -0.355752 0.000000,
        -0.032441 -0.318160 0.000000,
        -0.081684 -0.346487 0.000000,
        -0.065420 -0.346487 0.000000,
        -0.021331 -0.318160 0.000000,
        -0.047020 -0.323257 0.000000,
        -0.047062 -0.323293 0.000000,
        -0.070783 -0.318160 0.000000,
        -0.049846 -0.326380 0.000000,
        -0.051676 -0.329766 0.000000,
        -0.076065 -0.318160 0.000000,
        -0.036907 -0.357105 0.000000,
        -0.032036 -0.357530 0.000000,
        -0.021331 -0.357530 0.000000,
        -0.052733 -0.333645 0.000000,
        -0.053019 -0.337350 0.000000,
        -0.052467 -0.342619 0.000000,
        0.019355 -0.357212 0.000000,
        0.023333 -0.357770 0.000000,
        0.024915 -0.357991 0.000000,
        0.025991 -0.358010 0.000000,
        0.067972 -0.318160 0.000000,
        0.442913 0.649606 0.074803,
        0.324803 0.649606 0.074803,
        0.068898 0.649606 0.074803,
        -0.068898 0.649606 0.074803,
        -0.187008 0.649606 0.074803,
        0.187008 0.649606 0.074803,
        -0.442913 0.649606 0.074803,
        -0.324803 0.649606 0.074803,
        -0.442913 -0.649606 0.074803,
        -0.324803 -0.649606 0.074803,
        -0.068898 -0.649606 0.074803,
        0.068898 -0.649606 0.074803,
        0.187008 -0.649606 0.074803,
        -0.187008 -0.649606 0.074803,
        0.442913 -0.649606 0.074803,
        0.324803 -0.649606 0.074803,
        0.068898 -0.653543 -0.003937,
        0.068898 -0.653543 0.074803,
        0.187008 -0.653543 0.074803,
        0.187008 -0.653543 -0.003937,
        -0.187008 -0.653543 -0.003937,
        -0.187008 -0.653543 0.074803,
        -0.068898 -0.653543 0.074803,
        -0.068898 -0.653543 -0.003937,
        0.324803 -0.653543 -0.003937,
        0.324803 -0.653543 0.074803,
        0.442913 -0.653543 0.074803,
        0.442913 -0.653543 -0.003937,
        -0.442913 -0.653543 -0.003937,
        -0.442913 -0.653543 0.074803,
        -0.324803 -0.653543 0.074803,
        -0.324803 -0.653543 -0.003937,
        0.187008 0.653543 -0.003937,
        0.187008 0.653543 0.074803,
        0.068898 0.653543 0.074803,
        0.068898 0.653543 -0.003937,
        -0.068898 0.653543 -0.003937,
        -0.068898 0.653543 0.074803,
        -0.187008 0.653543 0.074803,
        -0.187008 0.653543 -0.003937,
        -0.324803 0.653543 -0.003937,
        -0.324803 0.653543 0.074803,
        -0.442913 0.653543 0.074803,
        -0.442913 0.653543 -0.003937,
        0.442913 0.653543 -0.003937,
        0.442913 0.653543 0.074803,
        0.324803 0.653543 0.074803,
        0.324803 0.653543 -0.003937,
        -0.076065 -0.318160 0.000394,
        -0.091429 -0.357530 0.000394,
        -0.085667 -0.357530 0.000394,
        -0.081684 -0.346487 0.000394,
        -0.065420 -0.346487 0.000394,
        -0.061661 -0.357530 0.000394,
        -0.055900 -0.357530 0.000394,
        -0.070783 -0.318160 0.000394,
        -0.066748 -0.342166 0.000394,
        -0.079913 -0.342166 0.000394,
        -0.072622 -0.325722 0.000394,
        -0.073000 -0.324356 0.000394,
        -0.073252 -0.322961 0.000394,
        -0.073379 -0.322961 0.000394,
        -0.073636 -0.324352 0.000394,
        -0.073987 -0.325722 0.000394,
        -0.066748 -0.342166 0.000000,
        -0.079913 -0.342166 0.000000,
        -0.072622 -0.325722 -0.000000,
        -0.073000 -0.324356 -0.000000,
        -0.073252 -0.322961 0.000000,
        -0.073379 -0.322961 0.000000,
        -0.073636 -0.324352 0.000000,
        -0.073987 -0.325722 0.000000,
        -0.032036 -0.357530 0.000394,
        -0.021331 -0.357530 0.000394,
        -0.021331 -0.318160 0.000394,
        -0.032441 -0.318160 0.000394,
        -0.053019 -0.337350 0.000394,
        -0.052733 -0.333645 0.000394,
        -0.051676 -0.329766 0.000394,
        -0.049846 -0.326380 0.000394,
        -0.047062 -0.323293 0.000394,
        -0.047020 -0.323257 0.000394,
        -0.042735 -0.320385 0.000394,
        -0.038129 -0.318768 0.000394,
        -0.036907 -0.357105 0.000394,
        -0.041444 -0.355752 0.000394,
        -0.045555 -0.353363 0.000394,
        -0.048795 -0.350261 0.000394,
        -0.051053 -0.346739 0.000394,
        -0.052467 -0.342619 0.000394,
        -0.045117 -0.328002 0.000394,
        -0.043204 -0.325971 0.000394,
        -0.040328 -0.324113 0.000394,
        -0.037079 -0.322976 0.000394,
        -0.032419 -0.322481 0.000394,
        -0.026612 -0.322481 0.000394,
        -0.026612 -0.353209 0.000394,
        -0.032201 -0.353209 0.000394,
        -0.036355 -0.352822 0.000394,
        -0.039668 -0.351788 0.000394,
        -0.042353 -0.350194 0.000394,
        -0.044561 -0.348013 0.000394,
        -0.046222 -0.345298 0.000394,
        -0.047376 -0.341597 0.000394,
        -0.047738 -0.337462 0.000394,
        -0.047403 -0.333544 0.000394,
        -0.046484 -0.330430 0.000394,
        -0.032419 -0.322481 0.000000,
        -0.026612 -0.322481 0.000000,
        -0.037079 -0.322976 0.000000,
        -0.040328 -0.324113 0.000000,
        -0.043204 -0.325971 0.000000,
        -0.045117 -0.328002 0.000000,
        -0.046484 -0.330430 0.000000,
        -0.047403 -0.333544 0.000000,
        -0.047738 -0.337462 0.000000,
        -0.047376 -0.341597 0.000000,
        -0.046222 -0.345298 0.000000,
        -0.044561 -0.348013 -0.000000,
        -0.042353 -0.350194 0.000000,
        -0.039668 -0.351788 0.000000,
        -0.036355 -0.352822 -0.000000,
        -0.032201 -0.353209 0.000000,
        -0.026612 -0.353209 0.000000,
        -0.013649 -0.353209 0.000394,
        -0.013649 -0.357530 0.000394,
        0.007476 -0.357530 0.000394,
        0.007476 -0.318160 0.000394,
        -0.012689 -0.318160 0.000394,
        -0.012689 -0.322481 0.000394,
        0.002195 -0.322481 0.000394,
        0.002195 -0.335444 0.000394,
        -0.011728 -0.335444 0.000394,
        -0.011728 -0.339765 0.000394,
        0.002195 -0.339765 0.000394,
        0.002195 -0.353209 0.000394,
        0.015158 -0.351168 0.000394,
        0.015158 -0.355489 0.000394,
        0.019355 -0.357212 0.000394,
        0.025991 -0.358010 0.000394,
        0.024915 -0.357991 0.000394,
        0.030843 -0.357507 0.000394,
        0.034659 -0.356193 0.000394,
        0.037826 -0.354171 0.000394,
        0.040783 -0.351058 0.000394,
        0.042880 -0.347314 0.000394,
        0.044065 -0.343147 0.000394,
        0.044446 -0.338587 0.000394,
        0.024423 -0.317680 0.000394,
        0.028378 -0.318002 0.000394,
        0.032767 -0.319278 0.000394,
        0.036506 -0.321430 0.000394,
        0.040061 -0.324848 0.000394,
        0.042368 -0.328529 0.000394,
        0.043880 -0.332990 0.000394,
        0.015158 -0.319240 0.000394,
        0.019710 -0.318005 0.000394,
        0.015158 -0.324521 0.000394,
        0.024378 -0.322001 0.000394,
        0.019593 -0.322622 0.000394,
        0.039165 -0.338265 0.000394,
        0.038977 -0.335202 0.000394,
        0.037927 -0.330987 0.000394,
        0.036304 -0.327947 0.000394,
        0.033927 -0.325322 0.000394,
        0.031202 -0.323500 0.000394,
        0.028255 -0.322436 0.000394,
        0.025263 -0.353689 0.000394,
        0.028936 -0.353277 0.000394,
        0.031804 -0.352221 0.000394,
        0.034220 -0.350592 0.000394,
        0.036068 -0.348643 0.000394,
        0.037696 -0.345913 0.000394,
        0.038766 -0.342527 0.000394,
        0.015864 -0.351559 0.000394,
        0.020037 -0.353109 0.000394,
        0.047807 -0.353209 0.000394,
        0.047807 -0.357530 0.000394,
        0.067972 -0.357530 0.000394,
        0.067972 -0.318160 0.000394,
        0.062691 -0.318160 0.000394,
        0.062691 -0.353209 0.000394,
      ]
    }
    coordIndex [
      131, 132, 86, -1,
      86, 132, 87, -1,
      133, 132, 130, -1,
      130, 132, 131, -1,
      119, 120, 91, -1,
      91, 120, 88, -1,
      120, 119, 121, -1,
      121, 119, 118, -1,
      123, 124, 89, -1,
      89, 124, 90, -1,
      124, 123, 125, -1,
      125, 123, 122, -1,
      127, 128, 93, -1,
      93, 128, 92, -1,
      128, 127, 129, -1,
      129, 127, 126, -1,
      111, 112, 101, -1,
      101, 112, 100, -1,
      111, 110, 112, -1,
      112, 110, 113, -1,
      103, 104, 97, -1,
      97, 104, 98, -1,
      104, 103, 105, -1,
      105, 103, 102, -1,
      107, 108, 99, -1,
      99, 108, 96, -1,
      108, 107, 109, -1,
      109, 107, 106, -1,
      115, 116, 94, -1,
      94, 116, 95, -1,
      116, 115, 117, -1,
      117, 115, 114, -1,
      134, 135, 74, -1,
      74, 135, 59, -1,
      135, 136, 59, -1,
      59, 136, 60, -1,
      136, 137, 60, -1,
      60, 137, 66, -1,
      137, 138, 66, -1,
      66, 138, 67, -1,
      138, 139, 67, -1,
      67, 139, 55, -1,
      139, 140, 55, -1,
      55, 140, 56, -1,
      140, 141, 56, -1,
      56, 141, 71, -1,
      141, 134, 71, -1,
      71, 134, 74, -1,
      142, 138, 143, -1,
      143, 138, 137, -1,
      144, 141, 142, -1,
      142, 141, 140, -1,
      142, 140, 138, -1,
      138, 140, 139, -1,
      144, 145, 141, -1,
      141, 145, 146, -1,
      141, 146, 134, -1,
      134, 146, 147, -1,
      134, 147, 148, -1,
      148, 149, 134, -1,
      134, 149, 143, -1,
      134, 143, 135, -1,
      135, 143, 137, -1,
      135, 137, 136, -1,
      142, 143, 150, -1,
      150, 143, 151, -1,
      144, 142, 152, -1,
      152, 142, 150, -1,
      144, 152, 153, -1,
      144, 153, 145, -1,
      145, 153, 154, -1,
      145, 154, 146, -1,
      147, 146, 155, -1,
      155, 146, 154, -1,
      147, 155, 156, -1,
      147, 156, 148, -1,
      148, 156, 157, -1,
      148, 157, 149, -1,
      143, 149, 151, -1,
      151, 149, 157, -1,
      158, 159, 76, -1,
      76, 159, 77, -1,
      159, 160, 77, -1,
      77, 160, 68, -1,
      160, 161, 68, -1,
      68, 161, 65, -1,
      162, 79, 78, -1,
      162, 78, 163, -1,
      163, 78, 73, -1,
      163, 73, 164, -1,
      164, 73, 72, -1,
      164, 72, 165, -1,
      165, 72, 70, -1,
      165, 70, 166, -1,
      166, 70, 69, -1,
      166, 69, 167, -1,
      167, 69, 58, -1,
      167, 58, 168, -1,
      168, 58, 57, -1,
      168, 57, 169, -1,
      169, 57, 65, -1,
      169, 65, 161, -1,
      158, 76, 75, -1,
      158, 75, 170, -1,
      170, 75, 64, -1,
      170, 64, 171, -1,
      171, 64, 63, -1,
      171, 63, 172, -1,
      172, 63, 62, -1,
      172, 62, 173, -1,
      173, 62, 61, -1,
      173, 61, 174, -1,
      174, 61, 80, -1,
      174, 80, 175, -1,
      175, 80, 79, -1,
      175, 79, 162, -1,
      164, 165, 176, -1,
      176, 165, 166, -1,
      176, 166, 177, -1,
      177, 166, 167, -1,
      177, 167, 178, -1,
      178, 167, 168, -1,
      178, 168, 179, -1,
      179, 168, 169, -1,
      179, 169, 180, -1,
      180, 169, 161, -1,
      180, 161, 181, -1,
      181, 161, 160, -1,
      181, 160, 182, -1,
      182, 160, 159, -1,
      182, 159, 183, -1,
      183, 159, 158, -1,
      183, 158, 184, -1,
      184, 158, 170, -1,
      184, 170, 185, -1,
      185, 170, 171, -1,
      185, 171, 186, -1,
      186, 171, 172, -1,
      186, 172, 187, -1,
      187, 172, 173, -1,
      187, 173, 188, -1,
      188, 173, 174, -1,
      188, 174, 189, -1,
      189, 174, 175, -1,
      189, 175, 190, -1,
      190, 175, 162, -1,
      190, 162, 191, -1,
      191, 162, 163, -1,
      191, 163, 192, -1,
      192, 163, 164, -1,
      192, 164, 176, -1,
      180, 181, 193, -1,
      193, 181, 194, -1,
      180, 193, 195, -1,
      180, 195, 179, -1,
      179, 195, 196, -1,
      179, 196, 178, -1,
      178, 196, 197, -1,
      178, 197, 177, -1,
      177, 197, 198, -1,
      177, 198, 176, -1,
      176, 198, 199, -1,
      176, 199, 192, -1,
      192, 199, 200, -1,
      192, 200, 191, -1,
      191, 200, 201, -1,
      191, 201, 190, -1,
      190, 201, 202, -1,
      190, 202, 189, -1,
      189, 202, 203, -1,
      189, 203, 188, -1,
      188, 203, 204, -1,
      188, 204, 187, -1,
      187, 204, 205, -1,
      187, 205, 186, -1,
      186, 205, 206, -1,
      186, 206, 185, -1,
      185, 206, 207, -1,
      185, 207, 184, -1,
      184, 207, 208, -1,
      184, 208, 183, -1,
      182, 183, 209, -1,
      209, 183, 208, -1,
      181, 182, 194, -1,
      194, 182, 209, -1,
      210, 211, 0, -1,
      0, 211, 1, -1,
      211, 212, 1, -1,
      1, 212, 2, -1,
      212, 213, 2, -1,
      2, 213, 5, -1,
      213, 214, 5, -1,
      5, 214, 18, -1,
      214, 215, 18, -1,
      18, 215, 8, -1,
      215, 216, 8, -1,
      8, 216, 6, -1,
      216, 217, 6, -1,
      6, 217, 7, -1,
      217, 218, 7, -1,
      7, 218, 9, -1,
      218, 219, 9, -1,
      9, 219, 12, -1,
      219, 220, 12, -1,
      12, 220, 10, -1,
      220, 221, 10, -1,
      10, 221, 11, -1,
      221, 210, 11, -1,
      11, 210, 0, -1,
      212, 211, 210, -1,
      210, 221, 212, -1,
      212, 221, 220, -1,
      212, 220, 213, -1,
      215, 214, 216, -1,
      216, 214, 213, -1,
      216, 213, 217, -1,
      217, 213, 220, -1,
      217, 220, 218, -1,
      218, 220, 219, -1,
      222, 223, 4, -1,
      4, 223, 3, -1,
      3, 223, 224, -1,
      225, 84, 83, -1,
      225, 83, 226, -1,
      226, 83, 82, -1,
      226, 82, 224, -1,
      224, 82, 81, -1,
      224, 81, 3, -1,
      84, 225, 14, -1,
      14, 225, 227, -1,
      14, 227, 16, -1,
      16, 227, 228, -1,
      16, 228, 17, -1,
      17, 228, 229, -1,
      17, 229, 38, -1,
      38, 229, 230, -1,
      38, 230, 39, -1,
      39, 230, 231, -1,
      39, 231, 41, -1,
      41, 231, 232, -1,
      41, 232, 43, -1,
      43, 232, 233, -1,
      43, 233, 44, -1,
      234, 49, 48, -1,
      234, 48, 235, -1,
      235, 48, 47, -1,
      235, 47, 236, -1,
      236, 47, 46, -1,
      236, 46, 237, -1,
      237, 46, 34, -1,
      237, 34, 238, -1,
      238, 34, 33, -1,
      238, 33, 239, -1,
      239, 33, 45, -1,
      239, 45, 240, -1,
      240, 45, 44, -1,
      240, 44, 233, -1,
      241, 51, 50, -1,
      241, 50, 242, -1,
      242, 50, 49, -1,
      242, 49, 234, -1,
      241, 243, 51, -1,
      51, 243, 52, -1,
      244, 54, 53, -1,
      244, 53, 245, -1,
      245, 53, 52, -1,
      245, 52, 243, -1,
      246, 24, 37, -1,
      246, 37, 247, -1,
      247, 37, 36, -1,
      247, 36, 248, -1,
      248, 36, 23, -1,
      248, 23, 249, -1,
      249, 23, 22, -1,
      249, 22, 250, -1,
      250, 22, 20, -1,
      250, 20, 251, -1,
      251, 20, 19, -1,
      251, 19, 252, -1,
      252, 19, 54, -1,
      252, 54, 244, -1,
      253, 28, 27, -1,
      253, 27, 254, -1,
      254, 27, 29, -1,
      254, 29, 255, -1,
      255, 29, 30, -1,
      255, 30, 256, -1,
      256, 30, 31, -1,
      256, 31, 257, -1,
      257, 31, 26, -1,
      257, 26, 258, -1,
      258, 26, 25, -1,
      258, 25, 259, -1,
      259, 25, 24, -1,
      259, 24, 246, -1,
      222, 4, 21, -1,
      222, 21, 260, -1,
      260, 21, 32, -1,
      260, 32, 261, -1,
      261, 32, 28, -1,
      261, 28, 253, -1,
      254, 225, 253, -1,
      253, 225, 226, -1,
      253, 226, 261, -1,
      261, 226, 224, -1,
      261, 224, 260, -1,
      260, 224, 223, -1,
      260, 223, 222, -1,
      243, 241, 245, -1,
      245, 241, 242, -1,
      245, 242, 244, -1,
      244, 242, 234, -1,
      244, 234, 252, -1,
      252, 234, 235, -1,
      252, 235, 251, -1,
      251, 235, 236, -1,
      251, 236, 250, -1,
      250, 236, 237, -1,
      250, 237, 249, -1,
      249, 237, 238, -1,
      249, 238, 248, -1,
      248, 238, 239, -1,
      248, 239, 247, -1,
      247, 239, 240, -1,
      247, 240, 246, -1,
      246, 240, 233, -1,
      246, 233, 259, -1,
      259, 233, 232, -1,
      259, 232, 258, -1,
      258, 232, 231, -1,
      258, 231, 257, -1,
      257, 231, 230, -1,
      257, 230, 256, -1,
      256, 230, 229, -1,
      256, 229, 255, -1,
      255, 229, 228, -1,
      255, 228, 254, -1,
      254, 228, 227, -1,
      254, 227, 225, -1,
      262, 263, 40, -1,
      40, 263, 15, -1,
      263, 264, 15, -1,
      15, 264, 13, -1,
      264, 265, 13, -1,
      13, 265, 85, -1,
      265, 266, 85, -1,
      85, 266, 35, -1,
      266, 267, 35, -1,
      35, 267, 42, -1,
      267, 262, 42, -1,
      42, 262, 40, -1,
      266, 265, 267, -1,
      267, 265, 264, -1,
      267, 264, 262, -1,
      262, 264, 263, -1,
    ]
  }
}

Shape {
  appearance Appearance {
    material Material {
      diffuseColor 0.5020 0.5020 0.5020
      specularColor 0.2510 0.2510 0.2510
      ambientIntensity 0.2
      transparency 0.0000
      shininess 0.5
    }
  }
  geometry IndexedFaceSet {
    ccw TRUE
    solid FALSE
    coord DEF co Coordinate {
      point [
        -0.066748 -0.342166 0.000000,
        -0.079913 -0.342166 0.000000,
        -0.072622 -0.325722 -0.000000,
        -0.073000 -0.324356 -0.000000,
        -0.073252 -0.322961 0.000000,
        -0.073379 -0.322961 0.000000,
        -0.073636 -0.324352 0.000000,
        -0.073987 -0.325722 0.000000,
        -0.032419 -0.322481 0.000000,
        -0.026612 -0.322481 0.000000,
        -0.037079 -0.322976 0.000000,
        -0.040328 -0.324113 0.000000,
        -0.043204 -0.325971 0.000000,
        -0.045117 -0.328002 0.000000,
        -0.046484 -0.330430 0.000000,
        -0.047403 -0.333544 0.000000,
        -0.047738 -0.337462 0.000000,
        -0.047376 -0.341597 0.000000,
        -0.046222 -0.345298 0.000000,
        -0.044561 -0.348013 -0.000000,
        -0.042353 -0.350194 0.000000,
        -0.039668 -0.351788 0.000000,
        -0.036355 -0.352822 -0.000000,
        -0.032201 -0.353209 0.000000,
        -0.026612 -0.353209 0.000000,
      ]
    }
    coordIndex [
      0, 1, 2, -1,
      2, 1, 7, -1,
      2, 7, 3, -1,
      3, 7, 6, -1,
      3, 6, 4, -1,
      4, 6, 5, -1,
      9, 24, 8, -1,
      8, 24, 23, -1,
      8, 23, 22, -1,
      16, 15, 8, -1,
      8, 15, 14, -1,
      8, 14, 10, -1,
      22, 21, 8, -1,
      8, 21, 20, -1,
      8, 20, 19, -1,
      19, 18, 8, -1,
      8, 18, 17, -1,
      8, 17, 16, -1,
      13, 12, 14, -1,
      14, 12, 11, -1,
      14, 11, 10, -1,
    ]
  }
}

Shape {
  appearance Appearance {
    material Material {
      diffuseColor 1.0000 1.0000 1.0000
      specularColor 0.5020 0.5020 0.5020
      ambientIntensity 0.2
      transparency 0.0000
      shininess 0.5
    }
  }
  geometry IndexedFaceSet {
    ccw TRUE
    solid FALSE
    coord DEF co Coordinate {
      point [
        0.054811 0.360717 0.000394,
        0.054811 0.356396 0.000394,
        0.054811 0.360717 0.000000,
        0.054811 0.356396 0.000000,
        0.074976 0.356396 0.000394,
        0.074976 0.356396 0.000000,
        0.074976 0.395766 0.000394,
        0.074976 0.395766 0.000000,
        0.069694 0.395766 0.000394,
        0.069694 0.395766 0.000000,
        0.069694 0.360717 0.000394,
        0.069694 0.360717 0.000000,
        0.022162 0.362758 0.000394,
        0.022162 0.358437 0.000394,
        0.022162 0.362758 0.000000,
        0.022162 0.358437 0.000000,
        0.032995 0.355916 0.000394,
        0.032995 0.355916 0.000000,
        0.031919 0.355935 0.000000,
        0.031919 0.355935 0.000394,
        0.026359 0.356713 0.000000,
        0.026359 0.356713 0.000394,
        0.051450 0.375339 0.000394,
        0.051450 0.375339 0.000000,
        0.051069 0.370779 0.000000,
        0.051069 0.370779 0.000394,
        0.049884 0.366612 0.000000,
        0.049884 0.366612 0.000394,
        0.047787 0.362868 -0.000000,
        0.047787 0.362868 0.000394,
        0.044830 0.359755 0.000000,
        0.044830 0.359755 0.000394,
        0.041663 0.357733 0.000000,
        0.041663 0.357733 0.000394,
        0.037847 0.356419 0.000000,
        0.037847 0.356419 0.000394,
        0.031427 0.396246 0.000394,
        0.031427 0.396246 0.000000,
        0.035381 0.395924 0.000000,
        0.035381 0.395924 0.000394,
        0.039770 0.394648 0.000000,
        0.039770 0.394648 0.000394,
        0.043510 0.392496 -0.000000,
        0.043510 0.392496 0.000394,
        0.047065 0.389078 0.000000,
        0.047065 0.389078 0.000394,
        0.049372 0.385397 0.000000,
        0.049372 0.385397 0.000394,
        0.050883 0.380936 0.000000,
        0.050883 0.380936 0.000394,
        0.022162 0.394686 0.000394,
        0.022162 0.394686 0.000000,
        0.026714 0.395921 0.000000,
        0.026714 0.395921 0.000394,
        0.022162 0.389405 0.000394,
        0.022162 0.389405 0.000000,
        0.031382 0.391925 0.000394,
        0.031382 0.391925 0.000000,
        0.026597 0.391304 0.000000,
        0.026597 0.391304 0.000394,
        0.046169 0.375661 0.000394,
        0.046169 0.375661 0.000000,
        0.045981 0.378724 0.000000,
        0.045981 0.378724 0.000394,
        0.044931 0.382939 0.000000,
        0.044931 0.382939 0.000394,
        0.043308 0.385979 0.000000,
        0.043308 0.385979 0.000394,
        0.040931 0.388604 0.000000,
        0.040931 0.388604 0.000394,
        0.038206 0.390426 0.000000,
        0.038206 0.390426 0.000394,
        0.035259 0.391490 0.000000,
        0.035259 0.391490 0.000394,
        0.032267 0.360237 0.000394,
        0.032267 0.360237 0.000000,
        0.035939 0.360649 0.000000,
        0.035939 0.360649 0.000394,
        0.038808 0.361705 0.000000,
        0.038808 0.361705 0.000394,
        0.041224 0.363334 0.000000,
        0.041224 0.363334 0.000394,
        0.043072 0.365283 0.000000,
        0.043072 0.365283 0.000394,
        0.044700 0.368013 0.000000,
        0.044700 0.368013 0.000394,
        0.045770 0.371399 0.000000,
        0.045770 0.371399 0.000394,
        0.022868 0.362367 0.000000,
        0.022868 0.362367 0.000394,
        0.027041 0.360817 0.000000,
        0.027041 0.360817 0.000394,
        -0.006645 0.360717 0.000394,
        -0.006645 0.356396 0.000394,
        -0.006645 0.360717 0.000000,
        -0.006645 0.356396 0.000000,
        0.014480 0.356396 0.000394,
        0.014480 0.356396 0.000000,
        0.014480 0.395766 0.000394,
        0.014480 0.395766 0.000000,
        -0.005685 0.395766 0.000394,
        -0.005685 0.395766 0.000000,
        -0.005685 0.391445 0.000394,
        -0.005685 0.391445 0.000000,
        0.009199 0.391445 0.000394,
        0.009199 0.391445 0.000000,
        0.009199 0.378482 0.000394,
        0.009199 0.378482 0.000000,
        -0.004724 0.378482 0.000394,
        -0.004724 0.378482 0.000000,
        -0.004724 0.374161 0.000394,
        -0.004724 0.374161 0.000000,
        0.009199 0.374161 0.000394,
        0.009199 0.374161 0.000000,
        0.009199 0.360717 0.000394,
        0.009199 0.360717 0.000000,
        -0.025032 0.356396 0.000394,
        -0.014327 0.356396 0.000394,
        -0.025032 0.356396 0.000000,
        -0.014327 0.356396 0.000000,
        -0.014327 0.395766 0.000394,
        -0.014327 0.395766 0.000000,
        -0.025437 0.395766 0.000394,
        -0.025437 0.395766 0.000000,
        -0.046015 0.376576 0.000394,
        -0.046015 0.376576 0.000000,
        -0.045729 0.380281 0.000000,
        -0.045729 0.380281 0.000394,
        -0.044672 0.384160 0.000000,
        -0.044672 0.384160 0.000394,
        -0.042842 0.387546 0.000000,
        -0.042842 0.387546 0.000394,
        -0.040058 0.390633 0.000000,
        -0.040058 0.390633 0.000394,
        -0.040017 0.390669 -0.000000,
        -0.040017 0.390669 0.000394,
        -0.035731 0.393541 -0.000000,
        -0.035731 0.393541 0.000394,
        -0.031125 0.395158 0.000000,
        -0.031125 0.395158 0.000394,
        -0.029904 0.356821 0.000000,
        -0.029904 0.356821 0.000394,
        -0.034440 0.358174 0.000000,
        -0.034440 0.358174 0.000394,
        -0.038551 0.360563 0.000000,
        -0.038551 0.360563 0.000394,
        -0.041791 0.363665 0.000000,
        -0.041791 0.363665 0.000394,
        -0.044049 0.367187 0.000000,
        -0.044049 0.367187 0.000394,
        -0.045463 0.371307 0.000000,
        -0.045463 0.371307 0.000394,
        -0.038113 0.385924 0.000394,
        -0.036200 0.387955 0.000394,
        -0.033324 0.389813 0.000394,
        -0.030075 0.390950 0.000394,
        -0.025415 0.391445 0.000394,
        -0.019608 0.391445 0.000394,
        -0.019608 0.360717 0.000394,
        -0.025197 0.360717 0.000394,
        -0.029351 0.361104 0.000394,
        -0.032664 0.362138 0.000394,
        -0.035349 0.363732 0.000394,
        -0.037557 0.365913 0.000394,
        -0.039218 0.368628 0.000394,
        -0.040372 0.372329 0.000394,
        -0.040734 0.376464 0.000394,
        -0.040399 0.380382 0.000394,
        -0.039480 0.383496 0.000394,
        -0.036200 0.387955 0.000000,
        -0.038113 0.385924 0.000000,
        -0.039480 0.383496 0.000000,
        -0.040399 0.380382 0.000000,
        -0.040734 0.376464 0.000000,
        -0.040372 0.372329 0.000000,
        -0.039218 0.368628 0.000000,
        -0.037557 0.365913 0.000000,
        -0.035349 0.363732 0.000000,
        -0.032664 0.362138 0.000000,
        -0.029351 0.361104 0.000000,
        -0.025197 0.360717 0.000000,
        -0.019608 0.360717 0.000000,
        -0.019608 0.391445 0.000000,
        -0.025415 0.391445 0.000000,
        -0.030075 0.390950 0.000000,
        -0.033324 0.389813 0.000000,
        -0.069061 0.395766 0.000394,
        -0.084425 0.356396 0.000394,
        -0.069061 0.395766 0.000000,
        -0.084425 0.356396 0.000000,
        -0.078663 0.356396 0.000394,
        -0.078663 0.356396 0.000000,
        -0.074680 0.367439 0.000394,
        -0.074680 0.367439 -0.000000,
        -0.058416 0.367439 0.000394,
        -0.058416 0.367439 0.000000,
        -0.054657 0.356396 0.000394,
        -0.054657 0.356396 0.000000,
        -0.048896 0.356396 0.000394,
        -0.048896 0.356396 0.000000,
        -0.063780 0.395766 0.000394,
        -0.063780 0.395766 -0.000000,
        -0.059744 0.371760 0.000394,
        -0.072909 0.371760 0.000394,
        -0.065618 0.388204 0.000394,
        -0.065996 0.389570 0.000394,
        -0.066248 0.390965 0.000394,
        -0.066375 0.390965 0.000394,
        -0.066632 0.389574 0.000394,
        -0.066983 0.388204 0.000394,
        -0.066375 0.390965 0.000000,
        -0.066248 0.390965 0.000000,
        -0.065996 0.389570 0.000000,
        -0.065618 0.388204 0.000000,
        -0.059744 0.371760 0.000000,
        -0.072909 0.371760 0.000000,
        -0.066983 0.388204 0.000000,
        -0.066632 0.389574 0.000000,
      ]
    }
    coordIndex [
      0, 1, 2, -1,
      2, 1, 3, -1,
      1, 4, 3, -1,
      3, 4, 5, -1,
      4, 6, 5, -1,
      5, 6, 7, -1,
      6, 8, 7, -1,
      7, 8, 9, -1,
      8, 10, 9, -1,
      9, 10, 11, -1,
      10, 0, 11, -1,
      11, 0, 2, -1,
      8, 6, 10, -1,
      10, 6, 4, -1,
      10, 4, 0, -1,
      0, 4, 1, -1,
      2, 3, 11, -1,
      11, 3, 5, -1,
      11, 5, 9, -1,
      9, 5, 7, -1,
      12, 13, 14, -1,
      14, 13, 15, -1,
      16, 17, 18, -1,
      16, 18, 19, -1,
      19, 18, 20, -1,
      19, 20, 21, -1,
      21, 20, 15, -1,
      21, 15, 13, -1,
      22, 23, 24, -1,
      22, 24, 25, -1,
      25, 24, 26, -1,
      25, 26, 27, -1,
      27, 26, 28, -1,
      27, 28, 29, -1,
      29, 28, 30, -1,
      29, 30, 31, -1,
      31, 30, 32, -1,
      31, 32, 33, -1,
      33, 32, 34, -1,
      33, 34, 35, -1,
      35, 34, 17, -1,
      35, 17, 16, -1,
      36, 37, 38, -1,
      36, 38, 39, -1,
      39, 38, 40, -1,
      39, 40, 41, -1,
      41, 40, 42, -1,
      41, 42, 43, -1,
      43, 42, 44, -1,
      43, 44, 45, -1,
      45, 44, 46, -1,
      45, 46, 47, -1,
      47, 46, 48, -1,
      47, 48, 49, -1,
      49, 48, 23, -1,
      49, 23, 22, -1,
      50, 51, 52, -1,
      50, 52, 53, -1,
      53, 52, 37, -1,
      53, 37, 36, -1,
      50, 54, 51, -1,
      51, 54, 55, -1,
      56, 57, 58, -1,
      56, 58, 59, -1,
      59, 58, 55, -1,
      59, 55, 54, -1,
      60, 61, 62, -1,
      60, 62, 63, -1,
      63, 62, 64, -1,
      63, 64, 65, -1,
      65, 64, 66, -1,
      65, 66, 67, -1,
      67, 66, 68, -1,
      67, 68, 69, -1,
      69, 68, 70, -1,
      69, 70, 71, -1,
      71, 70, 72, -1,
      71, 72, 73, -1,
      73, 72, 57, -1,
      73, 57, 56, -1,
      74, 75, 76, -1,
      74, 76, 77, -1,
      77, 76, 78, -1,
      77, 78, 79, -1,
      79, 78, 80, -1,
      79, 80, 81, -1,
      81, 80, 82, -1,
      81, 82, 83, -1,
      83, 82, 84, -1,
      83, 84, 85, -1,
      85, 84, 86, -1,
      85, 86, 87, -1,
      87, 86, 61, -1,
      87, 61, 60, -1,
      12, 14, 88, -1,
      12, 88, 89, -1,
      89, 88, 90, -1,
      89, 90, 91, -1,
      91, 90, 75, -1,
      91, 75, 74, -1,
      77, 16, 74, -1,
      74, 16, 19, -1,
      74, 19, 91, -1,
      91, 19, 21, -1,
      91, 21, 89, -1,
      89, 21, 13, -1,
      89, 13, 12, -1,
      54, 50, 59, -1,
      59, 50, 53, -1,
      59, 53, 56, -1,
      56, 53, 36, -1,
      56, 36, 73, -1,
      73, 36, 39, -1,
      73, 39, 71, -1,
      71, 39, 41, -1,
      71, 41, 69, -1,
      69, 41, 43, -1,
      69, 43, 67, -1,
      67, 43, 45, -1,
      67, 45, 65, -1,
      65, 45, 47, -1,
      65, 47, 63, -1,
      63, 47, 49, -1,
      63, 49, 60, -1,
      60, 49, 22, -1,
      60, 22, 87, -1,
      87, 22, 25, -1,
      87, 25, 85, -1,
      85, 25, 27, -1,
      85, 27, 83, -1,
      83, 27, 29, -1,
      83, 29, 81, -1,
      81, 29, 31, -1,
      81, 31, 79, -1,
      79, 31, 33, -1,
      79, 33, 77, -1,
      77, 33, 35, -1,
      77, 35, 16, -1,
      75, 90, 20, -1,
      20, 90, 15, -1,
      15, 90, 88, -1,
      15, 88, 14, -1,
      20, 18, 75, -1,
      75, 18, 17, -1,
      75, 17, 76, -1,
      76, 17, 34, -1,
      76, 34, 78, -1,
      78, 34, 32, -1,
      78, 32, 80, -1,
      80, 32, 30, -1,
      80, 30, 82, -1,
      82, 30, 28, -1,
      82, 28, 84, -1,
      84, 28, 26, -1,
      84, 26, 86, -1,
      86, 26, 24, -1,
      86, 24, 61, -1,
      61, 24, 23, -1,
      61, 23, 62, -1,
      62, 23, 48, -1,
      62, 48, 64, -1,
      64, 48, 46, -1,
      64, 46, 66, -1,
      66, 46, 44, -1,
      66, 44, 68, -1,
      68, 44, 42, -1,
      68, 42, 70, -1,
      70, 42, 40, -1,
      70, 40, 72, -1,
      72, 40, 38, -1,
      72, 38, 57, -1,
      57, 38, 37, -1,
      57, 37, 58, -1,
      58, 37, 52, -1,
      58, 52, 55, -1,
      55, 52, 51, -1,
      92, 93, 94, -1,
      94, 93, 95, -1,
      93, 96, 95, -1,
      95, 96, 97, -1,
      96, 98, 97, -1,
      97, 98, 99, -1,
      98, 100, 99, -1,
      99, 100, 101, -1,
      100, 102, 101, -1,
      101, 102, 103, -1,
      102, 104, 103, -1,
      103, 104, 105, -1,
      104, 106, 105, -1,
      105, 106, 107, -1,
      106, 108, 107, -1,
      107, 108, 109, -1,
      108, 110, 109, -1,
      109, 110, 111, -1,
      110, 112, 111, -1,
      111, 112, 113, -1,
      112, 114, 113, -1,
      113, 114, 115, -1,
      114, 92, 115, -1,
      115, 92, 94, -1,
      96, 93, 92, -1,
      92, 114, 96, -1,
      96, 114, 112, -1,
      96, 112, 98, -1,
      102, 100, 104, -1,
      104, 100, 98, -1,
      104, 98, 106, -1,
      106, 98, 112, -1,
      106, 112, 108, -1,
      108, 112, 110, -1,
      99, 101, 103, -1,
      103, 105, 99, -1,
      99, 105, 107, -1,
      99, 107, 97, -1,
      94, 95, 115, -1,
      115, 95, 97, -1,
      115, 97, 113, -1,
      113, 97, 107, -1,
      113, 107, 111, -1,
      111, 107, 109, -1,
      116, 117, 118, -1,
      118, 117, 119, -1,
      117, 120, 119, -1,
      119, 120, 121, -1,
      120, 122, 121, -1,
      121, 122, 123, -1,
      124, 125, 126, -1,
      124, 126, 127, -1,
      127, 126, 128, -1,
      127, 128, 129, -1,
      129, 128, 130, -1,
      129, 130, 131, -1,
      131, 130, 132, -1,
      131, 132, 133, -1,
      133, 132, 134, -1,
      133, 134, 135, -1,
      135, 134, 136, -1,
      135, 136, 137, -1,
      137, 136, 138, -1,
      137, 138, 139, -1,
      139, 138, 123, -1,
      139, 123, 122, -1,
      116, 118, 140, -1,
      116, 140, 141, -1,
      141, 140, 142, -1,
      141, 142, 143, -1,
      143, 142, 144, -1,
      143, 144, 145, -1,
      145, 144, 146, -1,
      145, 146, 147, -1,
      147, 146, 148, -1,
      147, 148, 149, -1,
      149, 148, 150, -1,
      149, 150, 151, -1,
      151, 150, 125, -1,
      151, 125, 124, -1,
      129, 131, 152, -1,
      152, 131, 133, -1,
      152, 133, 153, -1,
      153, 133, 135, -1,
      153, 135, 154, -1,
      154, 135, 137, -1,
      154, 137, 155, -1,
      155, 137, 139, -1,
      155, 139, 156, -1,
      156, 139, 122, -1,
      156, 122, 157, -1,
      157, 122, 120, -1,
      157, 120, 158, -1,
      158, 120, 117, -1,
      158, 117, 159, -1,
      159, 117, 116, -1,
      159, 116, 160, -1,
      160, 116, 141, -1,
      160, 141, 161, -1,
      161, 141, 143, -1,
      161, 143, 162, -1,
      162, 143, 145, -1,
      162, 145, 163, -1,
      163, 145, 147, -1,
      163, 147, 164, -1,
      164, 147, 149, -1,
      164, 149, 165, -1,
      165, 149, 151, -1,
      165, 151, 166, -1,
      166, 151, 124, -1,
      166, 124, 167, -1,
      167, 124, 127, -1,
      167, 127, 168, -1,
      168, 127, 129, -1,
      168, 129, 152, -1,
      136, 134, 169, -1,
      169, 134, 132, -1,
      169, 132, 170, -1,
      170, 132, 130, -1,
      170, 130, 171, -1,
      171, 130, 128, -1,
      171, 128, 172, -1,
      172, 128, 126, -1,
      172, 126, 173, -1,
      173, 126, 125, -1,
      173, 125, 174, -1,
      174, 125, 150, -1,
      174, 150, 175, -1,
      175, 150, 148, -1,
      175, 148, 176, -1,
      176, 148, 146, -1,
      176, 146, 177, -1,
      177, 146, 144, -1,
      177, 144, 178, -1,
      178, 144, 142, -1,
      178, 142, 179, -1,
      179, 142, 140, -1,
      179, 140, 180, -1,
      180, 140, 118, -1,
      180, 118, 181, -1,
      181, 118, 119, -1,
      181, 119, 182, -1,
      182, 119, 121, -1,
      182, 121, 183, -1,
      183, 121, 123, -1,
      183, 123, 184, -1,
      184, 123, 138, -1,
      184, 138, 185, -1,
      185, 138, 136, -1,
      185, 136, 169, -1,
      156, 157, 183, -1,
      183, 157, 182, -1,
      156, 183, 184, -1,
      156, 184, 155, -1,
      155, 184, 185, -1,
      155, 185, 154, -1,
      154, 185, 169, -1,
      154, 169, 153, -1,
      153, 169, 170, -1,
      153, 170, 152, -1,
      152, 170, 171, -1,
      152, 171, 168, -1,
      168, 171, 172, -1,
      168, 172, 167, -1,
      167, 172, 173, -1,
      167, 173, 166, -1,
      166, 173, 174, -1,
      166, 174, 165, -1,
      165, 174, 175, -1,
      165, 175, 164, -1,
      164, 175, 176, -1,
      164, 176, 163, -1,
      163, 176, 177, -1,
      163, 177, 162, -1,
      162, 177, 178, -1,
      162, 178, 161, -1,
      161, 178, 179, -1,
      161, 179, 160, -1,
      160, 179, 180, -1,
      160, 180, 159, -1,
      158, 159, 181, -1,
      181, 159, 180, -1,
      157, 158, 182, -1,
      182, 158, 181, -1,
      186, 187, 188, -1,
      188, 187, 189, -1,
      187, 190, 189, -1,
      189, 190, 191, -1,
      190, 192, 191, -1,
      191, 192, 193, -1,
      192, 194, 193, -1,
      193, 194, 195, -1,
      194, 196, 195, -1,
      195, 196, 197, -1,
      196, 198, 197, -1,
      197, 198, 199, -1,
      198, 200, 199, -1,
      199, 200, 201, -1,
      200, 186, 201, -1,
      201, 186, 188, -1,
      202, 194, 203, -1,
      203, 194, 192, -1,
      204, 200, 202, -1,
      202, 200, 198, -1,
      202, 198, 194, -1,
      194, 198, 196, -1,
      204, 205, 200, -1,
      200, 205, 206, -1,
      200, 206, 186, -1,
      186, 206, 207, -1,
      186, 207, 208, -1,
      208, 209, 186, -1,
      186, 209, 203, -1,
      186, 203, 187, -1,
      187, 203, 192, -1,
      187, 192, 190, -1,
      189, 191, 193, -1,
      188, 210, 201, -1,
      201, 210, 211, -1,
      201, 211, 212, -1,
      212, 213, 201, -1,
      201, 213, 214, -1,
      201, 214, 199, -1,
      215, 216, 188, -1,
      188, 216, 217, -1,
      188, 217, 210, -1,
      197, 199, 195, -1,
      195, 199, 214, -1,
      195, 214, 193, -1,
      193, 214, 215, -1,
      193, 215, 189, -1,
      189, 215, 188, -1,
      202, 203, 214, -1,
      214, 203, 215, -1,
      204, 202, 213, -1,
      213, 202, 214, -1,
      204, 213, 212, -1,
      204, 212, 205, -1,
      205, 212, 211, -1,
      205, 211, 206, -1,
      207, 206, 210, -1,
      210, 206, 211, -1,
      207, 210, 217, -1,
      207, 217, 208, -1,
      208, 217, 216, -1,
      208, 216, 209, -1,
      203, 209, 215, -1,
      215, 209, 216, -1,
    ]
  }
}
