#VRML V2.0 utf8

Shape {
  appearance Appearance {
    material Material {
      diffuseColor 0.7529 0.7529 0.7529
      specularColor 0.3765 0.3765 0.3765
      ambientIntensity 0.2
      transparency 0.0000
      shininess 0.5
    }
  }
  geometry IndexedFaceSet {
    ccw TRUE
    solid FALSE
    coord DEF co Coordinate {
      point [
        -0.295276 -0.216535 -0.007874,
        -0.295276 -0.044888 -0.007874,
        0.012288 -0.044888 -0.007874,
        0.038410 0.026650 -0.007874,
        0.046163 0.025780 -0.007874,
        0.021381 -0.032467 -0.007874,
        0.019970 -0.031685 -0.007874,
        0.019970 -0.040327 -0.007874,
        0.028363 -0.043773 -0.007874,
        0.036320 -0.044888 -0.007874,
        0.125597 -0.044408 -0.007874,
        0.046266 -0.044888 -0.007874,
        0.085267 -0.044408 -0.007874,
        0.051339 -0.044362 -0.007874,
        0.058971 -0.041735 -0.007874,
        0.074390 0.013593 -0.007874,
        0.069774 0.020955 -0.007874,
        0.115035 0.034332 -0.007874,
        0.028839 0.025407 -0.007874,
        0.019970 0.021609 -0.007874,
        0.012288 0.314961 -0.007874,
        0.019970 0.032172 -0.007874,
        0.052057 0.023652 -0.007874,
        0.057507 0.020007 -0.007874,
        0.062262 0.014757 -0.007874,
        0.067983 -0.005878 -0.007874,
        0.067185 -0.014402 -0.007874,
        0.065046 -0.021175 -0.007874,
        0.047525 -0.035902 -0.007874,
        0.040180 -0.036726 -0.007874,
        0.053262 -0.033790 -0.007874,
        0.058094 -0.030533 -0.007874,
        0.061789 -0.026635 -0.007874,
        0.029728 -0.035566 -0.007874,
        0.065508 0.008678 -0.007874,
        0.067607 0.000248 -0.007874,
        0.065305 -0.037691 -0.007874,
        0.071219 -0.031464 -0.007874,
        0.085267 -0.035766 -0.007874,
        0.075414 -0.023977 -0.007874,
        0.115035 -0.035766 -0.007874,
        0.062666 0.027792 -0.007874,
        0.055187 0.032097 -0.007874,
        0.046409 0.034647 -0.007874,
        0.077784 -0.015643 -0.007874,
        0.078545 -0.006523 -0.007874,
        0.077413 0.004671 -0.007874,
        0.038500 0.035293 -0.007874,
        0.029074 0.034642 -0.007874,
        0.039483 -0.045331 -0.007874,
        0.012288 -0.314961 -0.007874,
        0.041636 -0.045368 -0.007874,
        0.125597 0.034332 -0.007874,
        0.295276 0.314961 -0.007874,
        0.295276 -0.044888 -0.007874,
        0.295276 -0.314961 -0.007874,
        -0.196850 -0.314961 -0.007874,
        -0.173714 -0.022322 -0.007874,
        -0.141186 -0.022322 -0.007874,
        -0.181681 -0.044408 -0.007874,
        -0.133669 -0.044408 -0.007874,
        -0.122146 -0.044408 -0.007874,
        -0.112453 -0.022827 -0.007874,
        -0.107937 -0.029870 -0.007874,
        -0.037644 -0.044408 -0.007874,
        0.004606 -0.044408 -0.007874,
        0.004606 0.034332 -0.007874,
        -0.035724 0.025690 -0.007874,
        -0.005956 0.025690 -0.007874,
        -0.005956 -0.000237 -0.007874,
        -0.101456 -0.036075 -0.007874,
        -0.093235 -0.040853 -0.007874,
        -0.084162 -0.043557 -0.007874,
        -0.295276 0.314961 -0.007874,
        -0.035724 0.034332 -0.007874,
        -0.193204 -0.044408 -0.007874,
        -0.162476 0.034332 -0.007874,
        -0.151914 0.034332 -0.007874,
        -0.053008 0.034332 -0.007874,
        -0.033804 -0.000237 -0.007874,
        -0.033804 -0.008879 -0.007874,
        -0.005956 -0.008879 -0.007874,
        -0.005956 -0.035766 -0.007874,
        -0.037644 -0.035766 -0.007874,
        -0.053008 -0.044408 -0.007874,
        -0.074419 -0.044408 -0.007874,
        -0.095818 0.029881 -0.007874,
        -0.104388 0.024138 -0.007874,
        -0.104470 0.024065 -0.007874,
        -0.110038 0.017891 -0.007874,
        -0.113698 0.011119 -0.007874,
        -0.075229 0.034332 -0.007874,
        -0.086605 0.033116 -0.007874,
        -0.115813 0.003361 -0.007874,
        -0.116385 -0.004048 -0.007874,
        -0.115280 -0.014585 -0.007874,
      ]
    }
    coordIndex [
      0, 1, 2, -1,
      3, 4, 5, -1,
      6, 7, 2, -1,
      2, 7, 8, -1,
      2, 8, 9, -1,
      10, 11, 12, -1,
      12, 11, 13, -1,
      12, 13, 14, -1,
      15, 16, 17, -1,
      3, 5, 18, -1,
      18, 5, 6, -1,
      18, 6, 19, -1,
      19, 6, 20, -1,
      19, 20, 21, -1,
      4, 22, 5, -1,
      5, 22, 23, -1,
      5, 23, 24, -1,
      25, 26, 5, -1,
      5, 26, 27, -1,
      28, 29, 30, -1,
      30, 29, 31, -1,
      27, 32, 5, -1,
      5, 32, 31, -1,
      5, 31, 33, -1,
      33, 31, 29, -1,
      24, 34, 5, -1,
      5, 34, 35, -1,
      5, 35, 25, -1,
      14, 36, 12, -1,
      12, 36, 37, -1,
      12, 37, 38, -1,
      38, 37, 39, -1,
      38, 39, 40, -1,
      41, 42, 20, -1,
      20, 42, 43, -1,
      39, 44, 40, -1,
      40, 44, 45, -1,
      40, 45, 17, -1,
      17, 45, 46, -1,
      17, 46, 15, -1,
      43, 47, 20, -1,
      20, 47, 48, -1,
      20, 48, 21, -1,
      9, 49, 50, -1,
      50, 49, 51, -1,
      50, 51, 11, -1,
      16, 41, 17, -1,
      17, 41, 20, -1,
      17, 20, 52, -1,
      52, 20, 53, -1,
      52, 53, 10, -1,
      10, 53, 54, -1,
      10, 54, 11, -1,
      11, 54, 55, -1,
      11, 55, 50, -1,
      9, 50, 2, -1,
      2, 50, 56, -1,
      2, 56, 0, -1,
      57, 58, 59, -1,
      59, 58, 60, -1,
      61, 62, 63, -1,
      64, 65, 2, -1,
      2, 65, 66, -1,
      67, 68, 69, -1,
      63, 70, 61, -1,
      61, 70, 71, -1,
      61, 71, 72, -1,
      6, 2, 20, -1,
      20, 2, 66, -1,
      20, 66, 73, -1,
      73, 66, 74, -1,
      73, 74, 67, -1,
      75, 1, 76, -1,
      76, 1, 73, -1,
      76, 73, 77, -1,
      78, 79, 80, -1,
      81, 82, 80, -1,
      80, 82, 83, -1,
      80, 83, 78, -1,
      78, 83, 64, -1,
      78, 64, 84, -1,
      84, 64, 2, -1,
      84, 2, 85, -1,
      77, 86, 87, -1,
      87, 88, 77, -1,
      77, 88, 89, -1,
      77, 89, 90, -1,
      69, 79, 67, -1,
      67, 79, 78, -1,
      67, 78, 73, -1,
      73, 78, 91, -1,
      73, 91, 77, -1,
      77, 91, 92, -1,
      77, 92, 86, -1,
      90, 93, 77, -1,
      77, 93, 94, -1,
      77, 94, 61, -1,
      61, 94, 95, -1,
      61, 95, 62, -1,
      75, 59, 1, -1,
      1, 59, 60, -1,
      1, 60, 2, -1,
      2, 60, 61, -1,
      2, 61, 85, -1,
      85, 61, 72, -1,
    ]
  }
}

Shape {
  appearance Appearance {
    material Material {
      diffuseColor 0.2510 0.2510 0.2510
      specularColor 0.1255 0.1255 0.1255
      ambientIntensity 0.2
      transparency 0.0000
      shininess 0.5
    }
  }
  geometry IndexedFaceSet {
    ccw TRUE
    solid FALSE
    coord DEF co Coordinate {
      point [
        0.393701 0.590551 0.287402,
        0.393701 -0.590551 0.287402,
        0.393701 0.590551 0.000000,
        0.393701 -0.590551 0.000000,
        0.246063 0.590551 0.072047,
        0.246063 0.590551 0.000000,
        0.147638 0.590551 0.000000,
        -0.147638 0.590551 0.072047,
        -0.147638 0.590551 0.000000,
        -0.246063 0.590551 0.000000,
        0.049213 0.590551 0.000000,
        -0.049213 0.590551 0.000000,
        0.049213 0.590551 0.072047,
        -0.049213 0.590551 0.072047,
        -0.344488 0.590551 0.000000,
        -0.393701 0.590551 0.000000,
        -0.344488 0.590551 0.072047,
        -0.393701 0.590551 0.287402,
        -0.246063 0.590551 0.072047,
        0.147638 0.590551 0.072047,
        0.344488 0.590551 0.072047,
        0.344488 0.590551 0.000000,
        -0.393701 -0.590551 0.287402,
        -0.393701 -0.590551 0.000000,
        -0.344488 -0.590551 0.000000,
        -0.344488 -0.590551 0.072047,
        -0.246063 -0.590551 0.072047,
        -0.049213 -0.590551 0.072047,
        -0.049213 -0.590551 0.000000,
        0.049213 -0.590551 0.000000,
        0.049213 -0.590551 0.072047,
        0.147638 -0.590551 0.072047,
        -0.147638 -0.590551 0.072047,
        -0.147638 -0.590551 0.000000,
        -0.246063 -0.590551 0.000000,
        0.344488 -0.590551 0.000000,
        0.344488 -0.590551 0.072047,
        0.246063 -0.590551 0.072047,
        0.246063 -0.590551 0.000000,
        0.147638 -0.590551 0.000000,
        -0.340910 -0.496889 0.287402,
        -0.335776 -0.492949 0.287402,
        -0.310985 -0.492949 0.287402,
        -0.305850 -0.496889 0.287402,
        -0.301910 -0.502023 0.287402,
        -0.299434 -0.508002 0.287402,
        -0.298589 -0.514419 0.287402,
        -0.299434 -0.520835 0.287402,
        -0.316964 -0.538365 0.287402,
        -0.310985 -0.535889 0.287402,
        -0.323380 -0.539210 0.287402,
        -0.329797 -0.538365 0.287402,
        -0.335776 -0.535889 0.287402,
        -0.329797 -0.490472 0.287402,
        -0.323380 -0.489628 0.287402,
        -0.316964 -0.490472 0.287402,
        -0.301910 -0.526815 0.287402,
        -0.305850 -0.531949 0.287402,
        -0.340910 -0.531949 0.287402,
        -0.344850 -0.526815 0.287402,
        -0.347327 -0.520835 0.287402,
        -0.348172 -0.514419 0.287402,
        -0.347327 -0.508002 0.287402,
        -0.344850 -0.502023 0.287402,
        0.295276 -0.314961 0.000000,
        0.295276 0.314961 0.000000,
        -0.111162 0.434748 0.000000,
        -0.098425 0.433071 0.000000,
        -0.260477 0.447485 0.000000,
        -0.270669 0.439664 0.000000,
        -0.319882 -0.439664 0.000000,
        -0.295276 -0.216535 0.000000,
        -0.308013 -0.434748 0.000000,
        -0.295276 -0.433071 0.000000,
        0.330074 -0.447485 0.000000,
        0.319882 -0.439664 0.000000,
        0.308013 -0.434748 0.000000,
        0.295276 -0.433071 0.000000,
        0.282539 0.434748 0.000000,
        0.295276 0.433071 0.000000,
        -0.252656 -0.457677 0.000000,
        -0.260477 -0.447485 0.000000,
        -0.196850 -0.314961 0.000000,
        -0.270669 -0.439664 0.000000,
        -0.282539 -0.434748 0.000000,
        -0.098425 -0.433071 0.000000,
        -0.111162 -0.434748 0.000000,
        -0.295276 0.314961 0.000000,
        -0.295276 0.433071 0.000000,
        -0.282539 0.434748 0.000000,
        -0.085688 0.434748 0.000000,
        -0.073819 0.439664 0.000000,
        -0.330074 -0.447485 0.000000,
        -0.337895 -0.457677 0.000000,
        -0.342811 -0.469546 0.000000,
        -0.344488 -0.482283 0.000000,
        0.344488 -0.482283 0.000000,
        0.342811 -0.469546 0.000000,
        0.337895 -0.457677 0.000000,
        -0.342811 0.469546 0.000000,
        -0.344488 0.482283 0.000000,
        -0.337895 0.457677 0.000000,
        -0.330074 0.447485 0.000000,
        0.055806 0.457677 0.000000,
        0.063627 0.447485 0.000000,
        -0.050889 0.469546 0.000000,
        0.308013 0.434748 0.000000,
        0.319882 0.439664 0.000000,
        0.330074 0.447485 0.000000,
        0.337895 0.457677 0.000000,
        0.342811 0.469546 0.000000,
        0.344488 0.482283 0.000000,
        0.123031 -0.439664 0.000000,
        0.111162 -0.434748 0.000000,
        0.098425 -0.433071 0.000000,
        0.085688 -0.434748 0.000000,
        -0.123031 -0.439664 0.000000,
        -0.133224 -0.447485 0.000000,
        -0.141044 -0.457677 0.000000,
        -0.145961 -0.469546 0.000000,
        -0.319882 0.439664 0.000000,
        -0.308013 0.434748 0.000000,
        -0.145961 0.469546 0.000000,
        -0.141044 0.457677 0.000000,
        -0.252656 0.457677 0.000000,
        -0.133224 0.447485 0.000000,
        -0.123031 0.439664 0.000000,
        0.098425 0.433071 0.000000,
        0.111162 0.434748 0.000000,
        0.123031 0.439664 0.000000,
        0.133224 0.447485 0.000000,
        -0.085688 -0.434748 0.000000,
        -0.073819 -0.439664 0.000000,
        0.073819 -0.439664 0.000000,
        0.085688 0.434748 0.000000,
        0.073819 0.439664 0.000000,
        -0.063627 0.447485 0.000000,
        -0.055806 0.457677 0.000000,
        0.282539 -0.434748 0.000000,
        0.270669 -0.439664 0.000000,
        0.260477 -0.447485 0.000000,
        0.252656 -0.457677 0.000000,
        -0.246063 0.482283 0.000000,
        -0.055806 -0.457677 0.000000,
        0.055806 -0.457677 0.000000,
        0.050889 -0.469546 0.000000,
        0.063627 -0.447485 0.000000,
        -0.063627 -0.447485 0.000000,
        -0.147638 -0.482283 0.000000,
        -0.246063 -0.482283 0.000000,
        -0.247740 -0.469546 0.000000,
        -0.247740 0.469546 0.000000,
        -0.147638 0.482283 0.000000,
        0.247740 0.469546 0.000000,
        0.252656 0.457677 0.000000,
        0.260477 0.447485 0.000000,
        0.270669 0.439664 0.000000,
        0.246063 -0.482283 0.000000,
        -0.049213 0.482283 0.000000,
        0.049213 0.482283 0.000000,
        0.050889 0.469546 0.000000,
        0.147638 0.482283 0.000000,
        0.246063 0.482283 0.000000,
        0.145961 0.469546 0.000000,
        0.141044 0.457677 0.000000,
        0.147638 -0.482283 0.000000,
        0.145961 -0.469546 0.000000,
        0.247740 -0.469546 0.000000,
        0.141044 -0.457677 0.000000,
        0.133224 -0.447485 0.000000,
        0.049213 -0.482283 0.000000,
        -0.049213 -0.482283 0.000000,
        -0.050889 -0.469546 0.000000,
      ]
    }
    coordIndex [
      0, 1, 2, -1,
      2, 1, 3, -1,
      4, 5, 6, -1,
      7, 8, 9, -1,
      10, 11, 12, -1,
      12, 11, 13, -1,
      14, 15, 16, -1,
      16, 15, 17, -1,
      16, 17, 18, -1,
      6, 19, 4, -1,
      4, 19, 0, -1,
      4, 0, 20, -1,
      20, 0, 2, -1,
      20, 2, 21, -1,
      9, 18, 7, -1,
      7, 18, 17, -1,
      7, 17, 13, -1,
      13, 17, 0, -1,
      13, 0, 12, -1,
      12, 0, 19, -1,
      22, 17, 23, -1,
      23, 17, 15, -1,
      23, 24, 25, -1,
      26, 1, 25, -1,
      25, 1, 22, -1,
      25, 22, 23, -1,
      27, 28, 29, -1,
      30, 31, 1, -1,
      29, 30, 27, -1,
      27, 30, 1, -1,
      27, 1, 32, -1,
      32, 1, 26, -1,
      32, 26, 33, -1,
      33, 26, 34, -1,
      35, 3, 36, -1,
      36, 3, 1, -1,
      36, 1, 37, -1,
      37, 1, 31, -1,
      37, 31, 38, -1,
      38, 31, 39, -1,
      40, 41, 17, -1,
      42, 43, 0, -1,
      0, 43, 44, -1,
      0, 44, 1, -1,
      44, 45, 1, -1,
      1, 45, 46, -1,
      1, 46, 47, -1,
      22, 1, 48, -1,
      48, 1, 49, -1,
      48, 50, 22, -1,
      22, 50, 51, -1,
      22, 51, 52, -1,
      41, 53, 17, -1,
      17, 53, 54, -1,
      17, 54, 0, -1,
      0, 54, 55, -1,
      0, 55, 42, -1,
      47, 56, 1, -1,
      1, 56, 57, -1,
      1, 57, 49, -1,
      52, 58, 22, -1,
      22, 58, 59, -1,
      22, 59, 60, -1,
      60, 61, 22, -1,
      22, 61, 62, -1,
      22, 62, 17, -1,
      17, 62, 63, -1,
      17, 63, 40, -1,
      3, 64, 2, -1,
      2, 64, 65, -1,
      66, 67, 68, -1,
      68, 67, 69, -1,
      70, 71, 72, -1,
      72, 71, 73, -1,
      74, 75, 64, -1,
      64, 75, 76, -1,
      64, 76, 77, -1,
      78, 79, 65, -1,
      80, 81, 82, -1,
      82, 81, 83, -1,
      82, 83, 71, -1,
      71, 83, 84, -1,
      71, 84, 73, -1,
      82, 85, 86, -1,
      87, 88, 89, -1,
      89, 69, 87, -1,
      87, 69, 67, -1,
      87, 67, 65, -1,
      65, 67, 90, -1,
      65, 90, 91, -1,
      70, 92, 71, -1,
      71, 92, 93, -1,
      71, 93, 94, -1,
      24, 23, 95, -1,
      95, 23, 94, -1,
      35, 96, 3, -1,
      3, 96, 97, -1,
      3, 97, 64, -1,
      64, 97, 98, -1,
      64, 98, 74, -1,
      99, 15, 100, -1,
      100, 15, 14, -1,
      101, 102, 87, -1,
      103, 104, 105, -1,
      79, 106, 65, -1,
      65, 106, 107, -1,
      65, 107, 108, -1,
      108, 109, 65, -1,
      65, 109, 110, -1,
      65, 110, 2, -1,
      2, 110, 111, -1,
      2, 111, 21, -1,
      112, 113, 64, -1,
      64, 113, 114, -1,
      64, 114, 115, -1,
      86, 116, 82, -1,
      82, 116, 117, -1,
      82, 117, 80, -1,
      80, 117, 118, -1,
      80, 118, 119, -1,
      102, 120, 87, -1,
      87, 120, 121, -1,
      87, 121, 88, -1,
      122, 123, 124, -1,
      124, 123, 125, -1,
      124, 125, 68, -1,
      68, 125, 126, -1,
      68, 126, 66, -1,
      127, 128, 65, -1,
      65, 128, 129, -1,
      65, 129, 130, -1,
      85, 82, 131, -1,
      131, 82, 64, -1,
      131, 64, 132, -1,
      132, 64, 115, -1,
      132, 115, 133, -1,
      94, 23, 71, -1,
      71, 23, 15, -1,
      71, 15, 87, -1,
      87, 15, 99, -1,
      87, 99, 101, -1,
      127, 65, 134, -1,
      134, 65, 91, -1,
      134, 91, 135, -1,
      135, 91, 136, -1,
      135, 136, 104, -1,
      104, 136, 137, -1,
      104, 137, 105, -1,
      77, 138, 64, -1,
      64, 138, 139, -1,
      64, 139, 112, -1,
      112, 139, 140, -1,
      112, 140, 141, -1,
      142, 9, 8, -1,
      143, 144, 145, -1,
      133, 146, 132, -1,
      132, 146, 144, -1,
      132, 144, 147, -1,
      147, 144, 143, -1,
      33, 34, 148, -1,
      148, 34, 149, -1,
      148, 149, 119, -1,
      119, 149, 150, -1,
      119, 150, 80, -1,
      124, 151, 122, -1,
      122, 151, 142, -1,
      122, 142, 152, -1,
      152, 142, 8, -1,
      153, 154, 130, -1,
      130, 154, 155, -1,
      130, 155, 65, -1,
      65, 155, 156, -1,
      65, 156, 78, -1,
      157, 38, 39, -1,
      11, 10, 158, -1,
      158, 10, 159, -1,
      158, 159, 105, -1,
      105, 159, 160, -1,
      105, 160, 103, -1,
      6, 5, 161, -1,
      161, 5, 162, -1,
      161, 162, 163, -1,
      163, 162, 153, -1,
      163, 153, 164, -1,
      164, 153, 130, -1,
      39, 165, 157, -1,
      157, 165, 166, -1,
      157, 166, 167, -1,
      167, 166, 168, -1,
      167, 168, 141, -1,
      141, 168, 169, -1,
      141, 169, 112, -1,
      29, 28, 170, -1,
      170, 28, 171, -1,
      170, 171, 145, -1,
      145, 171, 172, -1,
      145, 172, 143, -1,
    ]
  }
}

Shape {
  appearance Appearance {
    material Material {
      diffuseColor 0.0000 0.0000 0.0000
      specularColor 0.0000 0.0000 0.0000
      ambientIntensity 0.2
      transparency 0.0000
      shininess 0.5
    }
  }
  geometry IndexedFaceSet {
    ccw TRUE
    solid FALSE
    coord DEF co Coordinate {
      point [
        -0.340910 -0.496889 0.287402,
        -0.335776 -0.492949 0.287402,
        -0.310985 -0.492949 0.287402,
        -0.305850 -0.496889 0.287402,
        -0.301910 -0.502023 0.287402,
        -0.299434 -0.508002 0.287402,
        -0.298589 -0.514419 0.287402,
        -0.299434 -0.520835 0.287402,
        -0.316964 -0.538365 0.287402,
        -0.310985 -0.535889 0.287402,
        -0.323380 -0.539210 0.287402,
        -0.329797 -0.538365 0.287402,
        -0.335776 -0.535889 0.287402,
        -0.329797 -0.490472 0.287402,
        -0.323380 -0.489628 0.287402,
        -0.316964 -0.490472 0.287402,
        -0.301910 -0.526815 0.287402,
        -0.305850 -0.531949 0.287402,
        -0.340910 -0.531949 0.287402,
        -0.344850 -0.526815 0.287402,
        -0.347327 -0.520835 0.287402,
        -0.348172 -0.514419 0.287402,
        -0.347327 -0.508002 0.287402,
        -0.344850 -0.502023 0.287402,
        -0.298589 -0.514419 0.283465,
        -0.299434 -0.508002 0.283465,
        -0.301910 -0.502023 0.283465,
        -0.305850 -0.496889 0.283465,
        -0.310985 -0.492949 0.283465,
        -0.316964 -0.490472 0.283465,
        -0.323380 -0.489628 0.283465,
        -0.329797 -0.490472 0.283465,
        -0.335776 -0.492949 0.283465,
        -0.340910 -0.496889 0.283465,
        -0.344850 -0.502023 0.283465,
        -0.347327 -0.508002 0.283465,
        -0.348172 -0.514419 0.283465,
        -0.347327 -0.520835 0.283465,
        -0.344850 -0.526815 0.283465,
        -0.340910 -0.531949 0.283465,
        -0.335776 -0.535889 0.283465,
        -0.329797 -0.538365 0.283465,
        -0.323380 -0.539210 0.283465,
        -0.316964 -0.538365 0.283465,
        -0.310985 -0.535889 0.283465,
        -0.305850 -0.531949 0.283465,
        -0.301910 -0.526815 0.283465,
        -0.299434 -0.520835 0.283465,
        -0.323380 -0.514419 0.283465,
      ]
    }
    coordIndex [
      24, 6, 25, -1,
      25, 6, 5, -1,
      25, 5, 26, -1,
      26, 5, 4, -1,
      26, 4, 27, -1,
      27, 4, 3, -1,
      27, 3, 28, -1,
      28, 3, 2, -1,
      28, 2, 29, -1,
      29, 2, 15, -1,
      29, 15, 30, -1,
      30, 15, 14, -1,
      30, 14, 31, -1,
      31, 14, 13, -1,
      31, 13, 32, -1,
      32, 13, 1, -1,
      32, 1, 33, -1,
      33, 1, 0, -1,
      33, 0, 34, -1,
      34, 0, 23, -1,
      34, 23, 35, -1,
      35, 23, 22, -1,
      35, 22, 36, -1,
      36, 22, 21, -1,
      36, 21, 37, -1,
      37, 21, 20, -1,
      37, 20, 38, -1,
      38, 20, 19, -1,
      38, 19, 39, -1,
      39, 19, 18, -1,
      39, 18, 40, -1,
      40, 18, 12, -1,
      40, 12, 41, -1,
      41, 12, 11, -1,
      41, 11, 42, -1,
      42, 11, 10, -1,
      42, 10, 43, -1,
      43, 10, 8, -1,
      43, 8, 44, -1,
      44, 8, 9, -1,
      44, 9, 45, -1,
      45, 9, 17, -1,
      45, 17, 46, -1,
      46, 17, 16, -1,
      46, 16, 47, -1,
      47, 16, 7, -1,
      47, 7, 24, -1,
      24, 7, 6, -1,
      46, 47, 48, -1,
      48, 47, 24, -1,
      48, 24, 25, -1,
      43, 44, 48, -1,
      48, 44, 45, -1,
      48, 45, 46, -1,
      40, 41, 48, -1,
      48, 41, 42, -1,
      48, 42, 43, -1,
      37, 38, 48, -1,
      48, 38, 39, -1,
      48, 39, 40, -1,
      34, 35, 48, -1,
      48, 35, 36, -1,
      48, 36, 37, -1,
      31, 32, 48, -1,
      48, 32, 33, -1,
      48, 33, 34, -1,
      28, 29, 48, -1,
      48, 29, 30, -1,
      48, 30, 31, -1,
      25, 26, 48, -1,
      48, 26, 27, -1,
      48, 27, 28, -1,
    ]
  }
}

Shape {
  appearance Appearance {
    material Material {
      diffuseColor 0.7529 0.7529 0.7529
      specularColor 0.3765 0.3765 0.3765
      ambientIntensity 0.2
      transparency 0.0000
      shininess 0.5
    }
  }
  geometry IndexedFaceSet {
    ccw TRUE
    solid FALSE
    coord DEF co Coordinate {
      point [
        -0.295276 -0.216535 -0.007874,
        -0.295276 -0.044888 -0.007874,
        0.012288 0.314961 -0.007874,
        0.012288 -0.314961 -0.007874,
        0.295276 0.314961 -0.007874,
        0.295276 -0.044888 -0.007874,
        0.295276 -0.314961 -0.007874,
        -0.196850 -0.314961 -0.007874,
        -0.295276 0.314961 -0.007874,
        0.246063 0.590551 0.072047,
        0.246063 0.590551 0.000000,
        0.147638 0.590551 0.000000,
        -0.147638 0.590551 0.072047,
        -0.147638 0.590551 0.000000,
        -0.246063 0.590551 0.000000,
        0.049213 0.590551 0.000000,
        -0.049213 0.590551 0.000000,
        0.049213 0.590551 0.072047,
        -0.049213 0.590551 0.072047,
        -0.344488 0.590551 0.000000,
        -0.344488 0.590551 0.072047,
        -0.246063 0.590551 0.072047,
        0.147638 0.590551 0.072047,
        0.344488 0.590551 0.072047,
        0.344488 0.590551 0.000000,
        -0.344488 -0.590551 0.000000,
        -0.344488 -0.590551 0.072047,
        -0.246063 -0.590551 0.072047,
        -0.049213 -0.590551 0.072047,
        -0.049213 -0.590551 0.000000,
        0.049213 -0.590551 0.000000,
        0.049213 -0.590551 0.072047,
        0.147638 -0.590551 0.072047,
        -0.147638 -0.590551 0.072047,
        -0.147638 -0.590551 0.000000,
        -0.246063 -0.590551 0.000000,
        0.344488 -0.590551 0.000000,
        0.344488 -0.590551 0.072047,
        0.246063 -0.590551 0.072047,
        0.246063 -0.590551 0.000000,
        0.147638 -0.590551 0.000000,
        0.295276 -0.314961 0.000000,
        0.295276 0.314961 0.000000,
        -0.111162 0.434748 0.000000,
        -0.098425 0.433071 0.000000,
        -0.260477 0.447485 0.000000,
        -0.270669 0.439664 0.000000,
        -0.319882 -0.439664 0.000000,
        -0.295276 -0.216535 0.000000,
        -0.308013 -0.434748 0.000000,
        -0.295276 -0.433071 0.000000,
        0.330074 -0.447485 0.000000,
        0.319882 -0.439664 0.000000,
        0.308013 -0.434748 0.000000,
        0.295276 -0.433071 0.000000,
        0.282539 0.434748 0.000000,
        0.295276 0.433071 0.000000,
        -0.252656 -0.457677 0.000000,
        -0.260477 -0.447485 0.000000,
        -0.196850 -0.314961 0.000000,
        -0.270669 -0.439664 0.000000,
        -0.282539 -0.434748 0.000000,
        -0.098425 -0.433071 0.000000,
        -0.111162 -0.434748 0.000000,
        -0.295276 0.314961 0.000000,
        -0.295276 0.433071 0.000000,
        -0.282539 0.434748 0.000000,
        -0.085688 0.434748 0.000000,
        -0.073819 0.439664 0.000000,
        -0.330074 -0.447485 0.000000,
        -0.337895 -0.457677 0.000000,
        -0.342811 -0.469546 0.000000,
        -0.344488 -0.482283 0.000000,
        0.344488 -0.482283 0.000000,
        0.342811 -0.469546 0.000000,
        0.337895 -0.457677 0.000000,
        -0.342811 0.469546 0.000000,
        -0.344488 0.482283 0.000000,
        -0.337895 0.457677 0.000000,
        -0.330074 0.447485 0.000000,
        0.055806 0.457677 0.000000,
        0.063627 0.447485 0.000000,
        -0.050889 0.469546 0.000000,
        0.308013 0.434748 0.000000,
        0.319882 0.439664 0.000000,
        0.330074 0.447485 0.000000,
        0.337895 0.457677 0.000000,
        0.342811 0.469546 0.000000,
        0.344488 0.482283 0.000000,
        0.123031 -0.439664 0.000000,
        0.111162 -0.434748 0.000000,
        0.098425 -0.433071 0.000000,
        0.085688 -0.434748 0.000000,
        -0.123031 -0.439664 0.000000,
        -0.133224 -0.447485 0.000000,
        -0.141044 -0.457677 0.000000,
        -0.145961 -0.469546 0.000000,
        -0.319882 0.439664 0.000000,
        -0.308013 0.434748 0.000000,
        -0.145961 0.469546 0.000000,
        -0.141044 0.457677 0.000000,
        -0.252656 0.457677 0.000000,
        -0.133224 0.447485 0.000000,
        -0.123031 0.439664 0.000000,
        0.098425 0.433071 0.000000,
        0.111162 0.434748 0.000000,
        0.123031 0.439664 0.000000,
        0.133224 0.447485 0.000000,
        -0.085688 -0.434748 0.000000,
        -0.073819 -0.439664 0.000000,
        0.073819 -0.439664 0.000000,
        0.085688 0.434748 0.000000,
        0.073819 0.439664 0.000000,
        -0.063627 0.447485 0.000000,
        -0.055806 0.457677 0.000000,
        0.282539 -0.434748 0.000000,
        0.270669 -0.439664 0.000000,
        0.260477 -0.447485 0.000000,
        0.252656 -0.457677 0.000000,
        -0.246063 0.482283 0.000000,
        -0.055806 -0.457677 0.000000,
        0.055806 -0.457677 0.000000,
        0.050889 -0.469546 0.000000,
        0.063627 -0.447485 0.000000,
        -0.063627 -0.447485 0.000000,
        -0.147638 -0.482283 0.000000,
        -0.246063 -0.482283 0.000000,
        -0.247740 -0.469546 0.000000,
        -0.247740 0.469546 0.000000,
        -0.147638 0.482283 0.000000,
        0.247740 0.469546 0.000000,
        0.252656 0.457677 0.000000,
        0.260477 0.447485 0.000000,
        0.270669 0.439664 0.000000,
        0.246063 -0.482283 0.000000,
        -0.049213 0.482283 0.000000,
        0.049213 0.482283 0.000000,
        0.050889 0.469546 0.000000,
        0.147638 0.482283 0.000000,
        0.246063 0.482283 0.000000,
        0.145961 0.469546 0.000000,
        0.141044 0.457677 0.000000,
        0.147638 -0.482283 0.000000,
        0.145961 -0.469546 0.000000,
        0.247740 -0.469546 0.000000,
        0.141044 -0.457677 0.000000,
        0.133224 -0.447485 0.000000,
        0.049213 -0.482283 0.000000,
        -0.049213 -0.482283 0.000000,
        -0.050889 -0.469546 0.000000,
        0.147638 0.594488 0.072047,
        0.049213 0.594488 0.072047,
        0.049213 0.594488 -0.007874,
        0.049213 0.482283 -0.007874,
        0.050889 0.469546 -0.007874,
        0.055806 0.457677 -0.007874,
        0.063627 0.447485 -0.007874,
        0.073819 0.439664 -0.007874,
        0.085688 0.434748 -0.007874,
        0.098425 0.433071 -0.007874,
        0.111162 0.434748 -0.007874,
        0.123031 0.439664 -0.007874,
        0.133224 0.447485 -0.007874,
        0.141044 0.457677 -0.007874,
        0.145961 0.469546 -0.007874,
        0.147638 0.482283 -0.007874,
        0.147638 0.594488 -0.007874,
        0.344488 0.594488 0.072047,
        0.246063 0.594488 0.072047,
        0.246063 0.594488 -0.007874,
        0.246063 0.482283 -0.007874,
        0.247740 0.469546 -0.007874,
        0.252656 0.457677 -0.007874,
        0.260477 0.447485 -0.007874,
        0.270669 0.439664 -0.007874,
        0.282539 0.434748 -0.007874,
        0.295276 0.433071 -0.007874,
        0.308013 0.434748 -0.007874,
        0.319882 0.439664 -0.007874,
        0.330074 0.447485 -0.007874,
        0.337895 0.457677 -0.007874,
        0.342811 0.469546 -0.007874,
        0.344488 0.482283 -0.007874,
        0.344488 0.594488 -0.007874,
        -0.246063 0.594488 0.072047,
        -0.344488 0.594488 0.072047,
        -0.344488 0.482283 -0.007874,
        -0.342811 0.469546 -0.007874,
        -0.337895 0.457677 -0.007874,
        -0.330074 0.447485 -0.007874,
        -0.319882 0.439664 -0.007874,
        -0.308013 0.434748 -0.007874,
        -0.295276 0.433071 -0.007874,
        -0.282539 0.434748 -0.007874,
        -0.270669 0.439664 -0.007874,
        -0.260477 0.447485 -0.007874,
        -0.252656 0.457677 -0.007874,
        -0.247740 0.469546 -0.007874,
        -0.246063 0.482283 -0.007874,
        -0.246063 0.594488 -0.007874,
        -0.344488 0.594488 -0.007874,
        -0.049213 0.594488 0.072047,
        -0.147638 0.594488 0.072047,
        -0.147638 0.482283 -0.007874,
        -0.145961 0.469546 -0.007874,
        -0.141044 0.457677 -0.007874,
        -0.133224 0.447485 -0.007874,
        -0.123031 0.439664 -0.007874,
        -0.111162 0.434748 -0.007874,
        -0.098425 0.433071 -0.007874,
        -0.085688 0.434748 -0.007874,
        -0.073819 0.439664 -0.007874,
        -0.063627 0.447485 -0.007874,
        -0.055806 0.457677 -0.007874,
        -0.050889 0.469546 -0.007874,
        -0.049213 0.482283 -0.007874,
        -0.049213 0.594488 -0.007874,
        -0.147638 0.594488 -0.007874,
        0.049213 -0.594488 0.072047,
        0.147638 -0.594488 0.072047,
        0.147638 -0.482283 -0.007874,
        0.145961 -0.469546 -0.007874,
        0.141044 -0.457677 -0.007874,
        0.133224 -0.447485 -0.007874,
        0.123031 -0.439664 -0.007874,
        0.111162 -0.434748 -0.007874,
        0.098425 -0.433071 -0.007874,
        0.085688 -0.434748 -0.007874,
        0.073819 -0.439664 -0.007874,
        0.063627 -0.447485 -0.007874,
        0.055806 -0.457677 -0.007874,
        0.050889 -0.469546 -0.007874,
        0.049213 -0.482283 -0.007874,
        0.049213 -0.594488 -0.007874,
        0.147638 -0.594488 -0.007874,
        0.246063 -0.594488 0.072047,
        0.344488 -0.594488 0.072047,
        0.344488 -0.482283 -0.007874,
        0.342811 -0.469546 -0.007874,
        0.337895 -0.457677 -0.007874,
        0.330074 -0.447485 -0.007874,
        0.319882 -0.439664 -0.007874,
        0.308013 -0.434748 -0.007874,
        0.295276 -0.433071 -0.007874,
        0.282539 -0.434748 -0.007874,
        0.270669 -0.439664 -0.007874,
        0.260477 -0.447485 -0.007874,
        0.252656 -0.457677 -0.007874,
        0.247740 -0.469546 -0.007874,
        0.246063 -0.482283 -0.007874,
        0.246063 -0.594488 -0.007874,
        0.344488 -0.594488 -0.007874,
        -0.147638 -0.594488 0.072047,
        -0.049213 -0.594488 0.072047,
        -0.049213 -0.482283 -0.007874,
        -0.050889 -0.469546 -0.007874,
        -0.055806 -0.457677 -0.007874,
        -0.063627 -0.447485 -0.007874,
        -0.073819 -0.439664 -0.007874,
        -0.085688 -0.434748 -0.007874,
        -0.098425 -0.433071 -0.007874,
        -0.111162 -0.434748 -0.007874,
        -0.123031 -0.439664 -0.007874,
        -0.133224 -0.447485 -0.007874,
        -0.141044 -0.457677 -0.007874,
        -0.145961 -0.469546 -0.007874,
        -0.147638 -0.482283 -0.007874,
        -0.147638 -0.594488 -0.007874,
        -0.049213 -0.594488 -0.007874,
        -0.344488 -0.594488 0.072047,
        -0.246063 -0.594488 0.072047,
        -0.246063 -0.482283 -0.007874,
        -0.247740 -0.469546 -0.007874,
        -0.252656 -0.457677 -0.007874,
        -0.260477 -0.447485 -0.007874,
        -0.270669 -0.439664 -0.007874,
        -0.282539 -0.434748 -0.007874,
        -0.295276 -0.433071 -0.007874,
        -0.308013 -0.434748 -0.007874,
        -0.319882 -0.439664 -0.007874,
        -0.330074 -0.447485 -0.007874,
        -0.337895 -0.457677 -0.007874,
        -0.342811 -0.469546 -0.007874,
        -0.344488 -0.482283 -0.007874,
        -0.344488 -0.594488 -0.007874,
        -0.246063 -0.594488 -0.007874,
      ]
    }
    coordIndex [
      22, 150, 17, -1,
      17, 150, 151, -1,
      17, 151, 15, -1,
      15, 151, 152, -1,
      15, 152, 136, -1,
      136, 152, 153, -1,
      136, 153, 154, -1,
      136, 154, 137, -1,
      137, 154, 155, -1,
      137, 155, 80, -1,
      80, 155, 156, -1,
      80, 156, 81, -1,
      81, 156, 157, -1,
      81, 157, 112, -1,
      112, 157, 158, -1,
      112, 158, 111, -1,
      111, 158, 159, -1,
      111, 159, 104, -1,
      104, 159, 160, -1,
      104, 160, 105, -1,
      105, 160, 161, -1,
      105, 161, 106, -1,
      106, 161, 162, -1,
      106, 162, 107, -1,
      107, 162, 163, -1,
      107, 163, 141, -1,
      141, 163, 164, -1,
      141, 164, 140, -1,
      140, 164, 165, -1,
      140, 165, 138, -1,
      138, 165, 11, -1,
      11, 165, 166, -1,
      11, 166, 22, -1,
      22, 166, 150, -1,
      152, 151, 166, -1,
      166, 151, 150, -1,
      152, 166, 153, -1,
      153, 166, 165, -1,
      153, 165, 154, -1,
      154, 165, 155, -1,
      158, 165, 159, -1,
      159, 165, 160, -1,
      165, 164, 160, -1,
      160, 164, 163, -1,
      160, 163, 161, -1,
      161, 163, 162, -1,
      158, 157, 165, -1,
      165, 157, 156, -1,
      165, 156, 155, -1,
      23, 167, 9, -1,
      9, 167, 168, -1,
      9, 168, 10, -1,
      10, 168, 169, -1,
      10, 169, 139, -1,
      139, 169, 170, -1,
      139, 170, 171, -1,
      139, 171, 130, -1,
      130, 171, 172, -1,
      130, 172, 131, -1,
      131, 172, 173, -1,
      131, 173, 132, -1,
      132, 173, 174, -1,
      132, 174, 133, -1,
      133, 174, 175, -1,
      133, 175, 55, -1,
      55, 175, 176, -1,
      55, 176, 56, -1,
      56, 176, 177, -1,
      56, 177, 83, -1,
      83, 177, 178, -1,
      83, 178, 84, -1,
      84, 178, 179, -1,
      84, 179, 85, -1,
      85, 179, 180, -1,
      85, 180, 86, -1,
      86, 180, 181, -1,
      86, 181, 87, -1,
      87, 181, 182, -1,
      87, 182, 88, -1,
      88, 182, 24, -1,
      24, 182, 183, -1,
      24, 183, 23, -1,
      23, 183, 167, -1,
      169, 168, 183, -1,
      183, 168, 167, -1,
      171, 170, 177, -1,
      170, 169, 183, -1,
      183, 182, 170, -1,
      170, 182, 181, -1,
      170, 181, 180, -1,
      174, 177, 175, -1,
      175, 177, 176, -1,
      174, 173, 177, -1,
      177, 173, 172, -1,
      177, 172, 171, -1,
      180, 179, 170, -1,
      170, 179, 178, -1,
      170, 178, 177, -1,
      184, 185, 21, -1,
      21, 185, 20, -1,
      77, 186, 187, -1,
      77, 187, 76, -1,
      76, 187, 188, -1,
      76, 188, 78, -1,
      78, 188, 189, -1,
      78, 189, 79, -1,
      79, 189, 190, -1,
      79, 190, 97, -1,
      97, 190, 191, -1,
      97, 191, 98, -1,
      98, 191, 192, -1,
      98, 192, 65, -1,
      65, 192, 193, -1,
      65, 193, 66, -1,
      66, 193, 194, -1,
      66, 194, 46, -1,
      46, 194, 195, -1,
      46, 195, 45, -1,
      45, 195, 196, -1,
      45, 196, 101, -1,
      101, 196, 197, -1,
      101, 197, 128, -1,
      128, 197, 198, -1,
      128, 198, 119, -1,
      119, 198, 14, -1,
      14, 198, 199, -1,
      14, 199, 21, -1,
      21, 199, 184, -1,
      20, 185, 19, -1,
      19, 185, 200, -1,
      19, 200, 77, -1,
      77, 200, 186, -1,
      200, 185, 199, -1,
      199, 185, 184, -1,
      186, 200, 199, -1,
      187, 186, 193, -1,
      199, 198, 186, -1,
      186, 198, 197, -1,
      186, 197, 196, -1,
      190, 193, 191, -1,
      191, 193, 192, -1,
      190, 189, 193, -1,
      193, 189, 188, -1,
      193, 188, 187, -1,
      196, 195, 186, -1,
      186, 195, 194, -1,
      186, 194, 193, -1,
      201, 202, 18, -1,
      18, 202, 12, -1,
      129, 203, 204, -1,
      129, 204, 99, -1,
      99, 204, 205, -1,
      99, 205, 100, -1,
      100, 205, 206, -1,
      100, 206, 102, -1,
      102, 206, 207, -1,
      102, 207, 103, -1,
      103, 207, 208, -1,
      103, 208, 43, -1,
      43, 208, 209, -1,
      43, 209, 44, -1,
      44, 209, 210, -1,
      44, 210, 67, -1,
      67, 210, 211, -1,
      67, 211, 68, -1,
      68, 211, 212, -1,
      68, 212, 113, -1,
      113, 212, 213, -1,
      113, 213, 114, -1,
      114, 213, 214, -1,
      114, 214, 82, -1,
      82, 214, 215, -1,
      82, 215, 135, -1,
      135, 215, 16, -1,
      16, 215, 216, -1,
      16, 216, 18, -1,
      18, 216, 201, -1,
      12, 202, 13, -1,
      13, 202, 217, -1,
      13, 217, 129, -1,
      129, 217, 203, -1,
      217, 202, 216, -1,
      216, 202, 201, -1,
      217, 216, 203, -1,
      203, 216, 215, -1,
      203, 215, 204, -1,
      204, 215, 205, -1,
      214, 210, 215, -1,
      215, 210, 209, -1,
      215, 209, 208, -1,
      214, 213, 210, -1,
      210, 213, 212, -1,
      210, 212, 211, -1,
      208, 207, 215, -1,
      215, 207, 206, -1,
      215, 206, 205, -1,
      218, 219, 31, -1,
      31, 219, 32, -1,
      142, 220, 221, -1,
      142, 221, 143, -1,
      143, 221, 222, -1,
      143, 222, 145, -1,
      145, 222, 223, -1,
      145, 223, 146, -1,
      146, 223, 224, -1,
      146, 224, 89, -1,
      89, 224, 225, -1,
      89, 225, 90, -1,
      90, 225, 226, -1,
      90, 226, 91, -1,
      91, 226, 227, -1,
      91, 227, 92, -1,
      92, 227, 228, -1,
      92, 228, 110, -1,
      110, 228, 229, -1,
      110, 229, 123, -1,
      123, 229, 230, -1,
      123, 230, 121, -1,
      121, 230, 231, -1,
      121, 231, 122, -1,
      122, 231, 232, -1,
      122, 232, 147, -1,
      147, 232, 30, -1,
      30, 232, 233, -1,
      30, 233, 31, -1,
      31, 233, 218, -1,
      32, 219, 40, -1,
      40, 219, 234, -1,
      40, 234, 142, -1,
      142, 234, 220, -1,
      234, 219, 233, -1,
      233, 219, 218, -1,
      234, 233, 220, -1,
      220, 233, 232, -1,
      226, 225, 220, -1,
      232, 231, 220, -1,
      220, 231, 230, -1,
      220, 230, 229, -1,
      225, 224, 223, -1,
      229, 228, 220, -1,
      220, 228, 227, -1,
      220, 227, 226, -1,
      223, 222, 225, -1,
      225, 222, 221, -1,
      225, 221, 220, -1,
      235, 236, 38, -1,
      38, 236, 37, -1,
      73, 237, 238, -1,
      73, 238, 74, -1,
      74, 238, 239, -1,
      74, 239, 75, -1,
      75, 239, 240, -1,
      75, 240, 51, -1,
      51, 240, 241, -1,
      51, 241, 52, -1,
      52, 241, 242, -1,
      52, 242, 53, -1,
      53, 242, 243, -1,
      53, 243, 54, -1,
      54, 243, 244, -1,
      54, 244, 115, -1,
      115, 244, 245, -1,
      115, 245, 116, -1,
      116, 245, 246, -1,
      116, 246, 117, -1,
      117, 246, 247, -1,
      117, 247, 118, -1,
      118, 247, 248, -1,
      118, 248, 144, -1,
      144, 248, 249, -1,
      144, 249, 134, -1,
      134, 249, 39, -1,
      39, 249, 250, -1,
      39, 250, 38, -1,
      38, 250, 235, -1,
      37, 236, 36, -1,
      36, 236, 251, -1,
      36, 251, 73, -1,
      73, 251, 237, -1,
      251, 236, 250, -1,
      250, 236, 235, -1,
      251, 250, 237, -1,
      237, 250, 249, -1,
      243, 242, 237, -1,
      249, 248, 237, -1,
      237, 248, 247, -1,
      237, 247, 246, -1,
      246, 245, 237, -1,
      237, 245, 244, -1,
      237, 244, 243, -1,
      242, 241, 237, -1,
      237, 241, 240, -1,
      237, 240, 238, -1,
      238, 240, 239, -1,
      33, 252, 28, -1,
      28, 252, 253, -1,
      148, 254, 255, -1,
      148, 255, 149, -1,
      149, 255, 256, -1,
      149, 256, 120, -1,
      120, 256, 257, -1,
      120, 257, 124, -1,
      124, 257, 258, -1,
      124, 258, 109, -1,
      109, 258, 259, -1,
      109, 259, 108, -1,
      108, 259, 260, -1,
      108, 260, 62, -1,
      62, 260, 261, -1,
      62, 261, 63, -1,
      63, 261, 262, -1,
      63, 262, 93, -1,
      93, 262, 263, -1,
      93, 263, 94, -1,
      94, 263, 264, -1,
      94, 264, 95, -1,
      95, 264, 265, -1,
      95, 265, 96, -1,
      96, 265, 266, -1,
      96, 266, 125, -1,
      125, 266, 34, -1,
      34, 266, 267, -1,
      34, 267, 33, -1,
      33, 267, 252, -1,
      28, 253, 29, -1,
      29, 253, 268, -1,
      29, 268, 148, -1,
      148, 268, 254, -1,
      268, 253, 267, -1,
      267, 253, 252, -1,
      268, 267, 254, -1,
      254, 267, 266, -1,
      260, 259, 254, -1,
      266, 265, 254, -1,
      254, 265, 264, -1,
      254, 264, 263, -1,
      263, 262, 254, -1,
      254, 262, 261, -1,
      254, 261, 260, -1,
      259, 258, 257, -1,
      257, 256, 259, -1,
      259, 256, 255, -1,
      259, 255, 254, -1,
      26, 269, 27, -1,
      27, 269, 270, -1,
      126, 271, 272, -1,
      126, 272, 127, -1,
      127, 272, 273, -1,
      127, 273, 57, -1,
      57, 273, 274, -1,
      57, 274, 58, -1,
      58, 274, 275, -1,
      58, 275, 60, -1,
      60, 275, 276, -1,
      60, 276, 61, -1,
      61, 276, 277, -1,
      61, 277, 50, -1,
      50, 277, 278, -1,
      50, 278, 49, -1,
      49, 278, 279, -1,
      49, 279, 47, -1,
      47, 279, 280, -1,
      47, 280, 69, -1,
      69, 280, 281, -1,
      69, 281, 70, -1,
      70, 281, 282, -1,
      70, 282, 71, -1,
      71, 282, 283, -1,
      71, 283, 72, -1,
      72, 283, 25, -1,
      25, 283, 284, -1,
      25, 284, 26, -1,
      26, 284, 269, -1,
      27, 270, 35, -1,
      35, 270, 285, -1,
      35, 285, 126, -1,
      126, 285, 271, -1,
      285, 270, 284, -1,
      284, 270, 269, -1,
      285, 284, 271, -1,
      271, 284, 283, -1,
      271, 283, 282, -1,
      279, 278, 271, -1,
      271, 278, 277, -1,
      271, 277, 276, -1,
      282, 281, 271, -1,
      271, 281, 280, -1,
      271, 280, 279, -1,
      276, 275, 274, -1,
      274, 273, 276, -1,
      276, 273, 272, -1,
      276, 272, 271, -1,
      4, 42, 5, -1,
      5, 42, 41, -1,
      5, 41, 6, -1,
      8, 64, 2, -1,
      2, 64, 42, -1,
      2, 42, 4, -1,
      0, 48, 1, -1,
      1, 48, 64, -1,
      1, 64, 8, -1,
      0, 7, 48, -1,
      48, 7, 59, -1,
      6, 41, 3, -1,
      3, 41, 59, -1,
      3, 59, 7, -1,
    ]
  }
}

Shape {
  appearance Appearance {
    material Material {
      diffuseColor 0.0000 0.0000 0.0000
      specularColor 0.0000 0.0000 0.0000
      ambientIntensity 0.2
      transparency 0.0000
      shininess 0.5
    }
  }
  geometry IndexedFaceSet {
    ccw TRUE
    solid FALSE
    coord DEF co Coordinate {
      point [
        0.038410 0.026650 -0.007874,
        0.046163 0.025780 -0.007874,
        0.021381 -0.032467 -0.007874,
        0.019970 -0.031685 -0.007874,
        0.019970 -0.040327 -0.007874,
        0.028363 -0.043773 -0.007874,
        0.036320 -0.044888 -0.007874,
        0.125597 -0.044408 -0.007874,
        0.046266 -0.044888 -0.007874,
        0.085267 -0.044408 -0.007874,
        0.051339 -0.044362 -0.007874,
        0.058971 -0.041735 -0.007874,
        0.074390 0.013593 -0.007874,
        0.069774 0.020955 -0.007874,
        0.115035 0.034332 -0.007874,
        0.028839 0.025407 -0.007874,
        0.019970 0.021609 -0.007874,
        0.019970 0.032172 -0.007874,
        0.052057 0.023652 -0.007874,
        0.057507 0.020007 -0.007874,
        0.062262 0.014757 -0.007874,
        0.067983 -0.005878 -0.007874,
        0.067185 -0.014402 -0.007874,
        0.065046 -0.021175 -0.007874,
        0.047525 -0.035902 -0.007874,
        0.040180 -0.036726 -0.007874,
        0.053262 -0.033790 -0.007874,
        0.058094 -0.030533 -0.007874,
        0.061789 -0.026635 -0.007874,
        0.029728 -0.035566 -0.007874,
        0.065508 0.008678 -0.007874,
        0.067607 0.000248 -0.007874,
        0.065305 -0.037691 -0.007874,
        0.071219 -0.031464 -0.007874,
        0.085267 -0.035766 -0.007874,
        0.075414 -0.023977 -0.007874,
        0.115035 -0.035766 -0.007874,
        0.062666 0.027792 -0.007874,
        0.055187 0.032097 -0.007874,
        0.046409 0.034647 -0.007874,
        0.077784 -0.015643 -0.007874,
        0.078545 -0.006523 -0.007874,
        0.077413 0.004671 -0.007874,
        0.038500 0.035293 -0.007874,
        0.029074 0.034642 -0.007874,
        0.039483 -0.045331 -0.007874,
        0.041636 -0.045368 -0.007874,
        0.125597 0.034332 -0.007874,
        -0.173714 -0.022322 -0.007874,
        -0.141186 -0.022322 -0.007874,
        -0.181681 -0.044408 -0.007874,
        -0.133669 -0.044408 -0.007874,
        -0.122146 -0.044408 -0.007874,
        -0.112453 -0.022827 -0.007874,
        -0.107937 -0.029870 -0.007874,
        -0.037644 -0.044408 -0.007874,
        0.004606 -0.044408 -0.007874,
        0.004606 0.034332 -0.007874,
        -0.035724 0.025690 -0.007874,
        -0.005956 0.025690 -0.007874,
        -0.005956 -0.000237 -0.007874,
        -0.101456 -0.036075 -0.007874,
        -0.093235 -0.040853 -0.007874,
        -0.084162 -0.043557 -0.007874,
        -0.035724 0.034332 -0.007874,
        -0.193204 -0.044408 -0.007874,
        -0.162476 0.034332 -0.007874,
        -0.151914 0.034332 -0.007874,
        -0.053008 0.034332 -0.007874,
        -0.033804 -0.000237 -0.007874,
        -0.033804 -0.008879 -0.007874,
        -0.005956 -0.008879 -0.007874,
        -0.005956 -0.035766 -0.007874,
        -0.037644 -0.035766 -0.007874,
        -0.053008 -0.044408 -0.007874,
        -0.074419 -0.044408 -0.007874,
        -0.095818 0.029881 -0.007874,
        -0.104388 0.024138 -0.007874,
        -0.104470 0.024065 -0.007874,
        -0.110038 0.017891 -0.007874,
        -0.113698 0.011119 -0.007874,
        -0.075229 0.034332 -0.007874,
        -0.086605 0.033116 -0.007874,
        -0.115813 0.003361 -0.007874,
        -0.116385 -0.004048 -0.007874,
        -0.115280 -0.014585 -0.007874,
        -0.173714 -0.022322 -0.003937,
        -0.181681 -0.044408 -0.003937,
        -0.141186 -0.022322 -0.003937,
        -0.133669 -0.044408 -0.003937,
        -0.122146 -0.044408 -0.003937,
        -0.151914 0.034332 -0.003937,
        -0.162476 0.034332 -0.003937,
        -0.193204 -0.044408 -0.003937,
        -0.143842 -0.013680 -0.003937,
        -0.170174 -0.013680 -0.003937,
        -0.155590 0.019208 -0.003937,
        -0.156348 0.021939 -0.003937,
        -0.156850 0.024730 -0.003937,
        -0.157105 0.024730 -0.003937,
        -0.157619 0.021948 -0.003937,
        -0.158320 0.019208 -0.003937,
        -0.157105 0.024730 -0.007874,
        -0.157619 0.021948 -0.007874,
        -0.158320 0.019208 -0.007874,
        -0.156850 0.024730 -0.007874,
        -0.155590 0.019208 -0.007874,
        -0.156348 0.021939 -0.007874,
        -0.143842 -0.013680 -0.007874,
        -0.170174 -0.013680 -0.007874,
        -0.075229 0.034332 -0.003937,
        -0.053008 0.034332 -0.003937,
        -0.116385 -0.004048 -0.003937,
        -0.115813 0.003361 -0.003937,
        -0.113698 0.011119 -0.003937,
        -0.110038 0.017891 -0.003937,
        -0.104470 0.024065 -0.003937,
        -0.104388 0.024138 -0.003937,
        -0.095818 0.029881 -0.003937,
        -0.086605 0.033116 -0.003937,
        -0.074419 -0.044408 -0.003937,
        -0.084162 -0.043557 -0.003937,
        -0.093235 -0.040853 -0.003937,
        -0.101456 -0.036075 -0.003937,
        -0.107937 -0.029870 -0.003937,
        -0.112453 -0.022827 -0.003937,
        -0.115280 -0.014585 -0.003937,
        -0.053008 -0.044408 -0.003937,
        -0.100580 0.014648 -0.003937,
        -0.096755 0.018709 -0.003937,
        -0.091003 0.022425 -0.003937,
        -0.084504 0.024699 -0.003937,
        -0.075184 0.025690 -0.003937,
        -0.063571 0.025690 -0.003937,
        -0.063571 -0.035766 -0.003937,
        -0.074749 -0.035766 -0.003937,
        -0.083056 -0.034993 -0.003937,
        -0.089682 -0.032924 -0.003937,
        -0.095052 -0.029735 -0.003937,
        -0.099469 -0.025374 -0.003937,
        -0.102790 -0.019944 -0.003937,
        -0.105099 -0.012543 -0.003937,
        -0.105822 -0.004273 -0.003937,
        -0.105153 0.003564 -0.003937,
        -0.103315 0.009792 -0.003937,
        -0.074749 -0.035766 -0.007874,
        -0.063571 -0.035766 -0.007874,
        -0.105822 -0.004273 -0.007874,
        -0.105099 -0.012543 -0.007874,
        -0.102790 -0.019944 -0.007874,
        -0.099469 -0.025374 -0.007874,
        -0.095052 -0.029735 -0.007874,
        -0.089682 -0.032924 -0.007874,
        -0.083056 -0.034993 -0.007874,
        -0.075184 0.025690 -0.007874,
        -0.084504 0.024699 -0.007874,
        -0.091003 0.022425 -0.007874,
        -0.096755 0.018709 -0.007874,
        -0.100580 0.014648 -0.007874,
        -0.103315 0.009792 -0.007874,
        -0.105153 0.003564 -0.007874,
        -0.063571 0.025690 -0.007874,
        0.004606 0.034332 -0.003937,
        0.004606 -0.044408 -0.003937,
        -0.035724 0.034332 -0.003937,
        -0.035724 0.025690 -0.003937,
        -0.005956 0.025690 -0.003937,
        -0.005956 -0.000237 -0.003937,
        -0.033804 -0.000237 -0.003937,
        -0.033804 -0.008879 -0.003937,
        -0.005956 -0.008879 -0.003937,
        -0.005956 -0.035766 -0.003937,
        -0.037644 -0.035766 -0.003937,
        -0.037644 -0.044408 -0.003937,
        0.078545 -0.006523 -0.003937,
        0.077784 -0.015643 -0.003937,
        0.075414 -0.023977 -0.003937,
        0.071219 -0.031464 -0.003937,
        0.065305 -0.037691 -0.003937,
        0.058971 -0.041735 -0.003937,
        0.051339 -0.044362 -0.003937,
        0.041636 -0.045368 -0.003937,
        0.038500 0.035293 -0.003937,
        0.046409 0.034647 -0.003937,
        0.055187 0.032097 -0.003937,
        0.062666 0.027792 -0.003937,
        0.069774 0.020955 -0.003937,
        0.074390 0.013593 -0.003937,
        0.077413 0.004671 -0.003937,
        0.019970 0.032172 -0.003937,
        0.029074 0.034642 -0.003937,
        0.019970 0.021609 -0.003937,
        0.038410 0.026650 -0.003937,
        0.028839 0.025407 -0.003937,
        0.067983 -0.005878 -0.003937,
        0.067607 0.000248 -0.003937,
        0.065508 0.008678 -0.003937,
        0.062262 0.014757 -0.003937,
        0.057507 0.020007 -0.003937,
        0.052057 0.023652 -0.003937,
        0.046163 0.025780 -0.003937,
        0.040180 -0.036726 -0.003937,
        0.047525 -0.035902 -0.003937,
        0.053262 -0.033790 -0.003937,
        0.058094 -0.030533 -0.003937,
        0.061789 -0.026635 -0.003937,
        0.065046 -0.021175 -0.003937,
        0.067185 -0.014402 -0.003937,
        0.019970 -0.031685 -0.003937,
        0.021381 -0.032467 -0.003937,
        0.029728 -0.035566 -0.003937,
        0.019970 -0.040327 -0.003937,
        0.028363 -0.043773 -0.003937,
        0.039483 -0.045331 -0.003937,
        0.125597 0.034332 -0.003937,
        0.125597 -0.044408 -0.003937,
        0.115035 0.034332 -0.003937,
        0.115035 -0.035766 -0.003937,
        0.085267 -0.035766 -0.003937,
        0.085267 -0.044408 -0.003937,
      ]
    }
    coordIndex [
      86, 48, 87, -1,
      87, 48, 50, -1,
      88, 49, 86, -1,
      86, 49, 48, -1,
      89, 51, 88, -1,
      88, 51, 49, -1,
      90, 52, 89, -1,
      89, 52, 51, -1,
      91, 67, 90, -1,
      90, 67, 52, -1,
      92, 66, 91, -1,
      91, 66, 67, -1,
      93, 65, 92, -1,
      92, 65, 66, -1,
      93, 87, 65, -1,
      65, 87, 50, -1,
      94, 88, 95, -1,
      95, 88, 86, -1,
      96, 91, 94, -1,
      94, 91, 90, -1,
      94, 90, 88, -1,
      88, 90, 89, -1,
      96, 97, 91, -1,
      91, 97, 98, -1,
      91, 98, 92, -1,
      92, 98, 99, -1,
      92, 99, 100, -1,
      100, 101, 92, -1,
      92, 101, 95, -1,
      92, 95, 93, -1,
      93, 95, 86, -1,
      93, 86, 87, -1,
      99, 102, 103, -1,
      99, 103, 100, -1,
      100, 103, 104, -1,
      100, 104, 101, -1,
      98, 105, 99, -1,
      99, 105, 102, -1,
      96, 106, 107, -1,
      96, 107, 97, -1,
      97, 107, 105, -1,
      97, 105, 98, -1,
      94, 108, 96, -1,
      96, 108, 106, -1,
      95, 109, 94, -1,
      94, 109, 108, -1,
      104, 109, 101, -1,
      101, 109, 95, -1,
      110, 81, 111, -1,
      111, 81, 68, -1,
      112, 84, 83, -1,
      112, 83, 113, -1,
      113, 83, 80, -1,
      113, 80, 114, -1,
      114, 80, 79, -1,
      114, 79, 115, -1,
      115, 79, 78, -1,
      115, 78, 116, -1,
      116, 78, 77, -1,
      116, 77, 117, -1,
      117, 77, 76, -1,
      117, 76, 118, -1,
      118, 76, 82, -1,
      118, 82, 119, -1,
      119, 82, 81, -1,
      119, 81, 110, -1,
      120, 75, 63, -1,
      120, 63, 121, -1,
      121, 63, 62, -1,
      121, 62, 122, -1,
      122, 62, 61, -1,
      122, 61, 123, -1,
      123, 61, 54, -1,
      123, 54, 124, -1,
      124, 54, 53, -1,
      124, 53, 125, -1,
      125, 53, 85, -1,
      125, 85, 126, -1,
      126, 85, 84, -1,
      126, 84, 112, -1,
      127, 74, 120, -1,
      120, 74, 75, -1,
      127, 111, 74, -1,
      74, 111, 68, -1,
      114, 115, 128, -1,
      128, 115, 116, -1,
      128, 116, 129, -1,
      129, 116, 117, -1,
      129, 117, 130, -1,
      130, 117, 118, -1,
      130, 118, 131, -1,
      131, 118, 119, -1,
      131, 119, 132, -1,
      132, 119, 110, -1,
      132, 110, 133, -1,
      133, 110, 111, -1,
      133, 111, 134, -1,
      134, 111, 127, -1,
      134, 127, 135, -1,
      135, 127, 120, -1,
      135, 120, 136, -1,
      136, 120, 121, -1,
      136, 121, 137, -1,
      137, 121, 122, -1,
      137, 122, 138, -1,
      138, 122, 123, -1,
      138, 123, 139, -1,
      139, 123, 124, -1,
      139, 124, 140, -1,
      140, 124, 125, -1,
      140, 125, 141, -1,
      141, 125, 126, -1,
      141, 126, 142, -1,
      142, 126, 112, -1,
      142, 112, 143, -1,
      143, 112, 113, -1,
      143, 113, 144, -1,
      144, 113, 114, -1,
      144, 114, 128, -1,
      135, 145, 134, -1,
      134, 145, 146, -1,
      142, 147, 148, -1,
      142, 148, 141, -1,
      141, 148, 149, -1,
      141, 149, 140, -1,
      140, 149, 150, -1,
      140, 150, 139, -1,
      139, 150, 151, -1,
      139, 151, 138, -1,
      138, 151, 152, -1,
      138, 152, 137, -1,
      137, 152, 153, -1,
      137, 153, 136, -1,
      136, 153, 145, -1,
      136, 145, 135, -1,
      132, 154, 155, -1,
      132, 155, 131, -1,
      131, 155, 156, -1,
      131, 156, 130, -1,
      130, 156, 157, -1,
      130, 157, 129, -1,
      129, 157, 158, -1,
      129, 158, 128, -1,
      128, 158, 159, -1,
      128, 159, 144, -1,
      144, 159, 160, -1,
      144, 160, 143, -1,
      143, 160, 147, -1,
      143, 147, 142, -1,
      133, 161, 132, -1,
      132, 161, 154, -1,
      146, 161, 134, -1,
      134, 161, 133, -1,
      162, 57, 163, -1,
      163, 57, 56, -1,
      164, 64, 162, -1,
      162, 64, 57, -1,
      165, 58, 164, -1,
      164, 58, 64, -1,
      166, 59, 165, -1,
      165, 59, 58, -1,
      167, 60, 166, -1,
      166, 60, 59, -1,
      168, 69, 167, -1,
      167, 69, 60, -1,
      169, 70, 168, -1,
      168, 70, 69, -1,
      170, 71, 169, -1,
      169, 71, 70, -1,
      171, 72, 170, -1,
      170, 72, 71, -1,
      172, 73, 171, -1,
      171, 73, 72, -1,
      173, 55, 172, -1,
      172, 55, 73, -1,
      173, 163, 55, -1,
      55, 163, 56, -1,
      163, 173, 172, -1,
      172, 171, 163, -1,
      163, 171, 170, -1,
      163, 170, 162, -1,
      165, 164, 166, -1,
      166, 164, 162, -1,
      166, 162, 167, -1,
      167, 162, 170, -1,
      167, 170, 168, -1,
      168, 170, 169, -1,
      174, 41, 40, -1,
      174, 40, 175, -1,
      175, 40, 35, -1,
      175, 35, 176, -1,
      176, 35, 33, -1,
      176, 33, 177, -1,
      177, 33, 32, -1,
      177, 32, 178, -1,
      178, 32, 11, -1,
      178, 11, 179, -1,
      179, 11, 10, -1,
      179, 10, 180, -1,
      180, 10, 181, -1,
      181, 10, 8, -1,
      181, 8, 46, -1,
      182, 43, 39, -1,
      182, 39, 183, -1,
      183, 39, 38, -1,
      183, 38, 184, -1,
      184, 38, 37, -1,
      184, 37, 185, -1,
      185, 37, 13, -1,
      185, 13, 186, -1,
      186, 13, 12, -1,
      186, 12, 187, -1,
      187, 12, 42, -1,
      187, 42, 188, -1,
      188, 42, 41, -1,
      188, 41, 174, -1,
      189, 17, 44, -1,
      189, 44, 190, -1,
      190, 44, 43, -1,
      190, 43, 182, -1,
      191, 16, 189, -1,
      189, 16, 17, -1,
      192, 0, 15, -1,
      192, 15, 193, -1,
      193, 15, 16, -1,
      193, 16, 191, -1,
      194, 21, 31, -1,
      194, 31, 195, -1,
      195, 31, 30, -1,
      195, 30, 196, -1,
      196, 30, 20, -1,
      196, 20, 197, -1,
      197, 20, 19, -1,
      197, 19, 198, -1,
      198, 19, 18, -1,
      198, 18, 199, -1,
      199, 18, 1, -1,
      199, 1, 200, -1,
      200, 1, 0, -1,
      200, 0, 192, -1,
      201, 25, 24, -1,
      201, 24, 202, -1,
      202, 24, 26, -1,
      202, 26, 203, -1,
      203, 26, 27, -1,
      203, 27, 204, -1,
      204, 27, 28, -1,
      204, 28, 205, -1,
      205, 28, 23, -1,
      205, 23, 206, -1,
      206, 23, 22, -1,
      206, 22, 207, -1,
      207, 22, 21, -1,
      207, 21, 194, -1,
      208, 3, 2, -1,
      208, 2, 209, -1,
      209, 2, 29, -1,
      209, 29, 210, -1,
      210, 29, 25, -1,
      210, 25, 201, -1,
      211, 4, 208, -1,
      208, 4, 3, -1,
      4, 211, 212, -1,
      181, 46, 45, -1,
      181, 45, 213, -1,
      213, 45, 6, -1,
      213, 6, 212, -1,
      212, 6, 5, -1,
      212, 5, 4, -1,
      202, 181, 201, -1,
      201, 181, 213, -1,
      201, 213, 210, -1,
      210, 213, 212, -1,
      210, 212, 209, -1,
      209, 212, 211, -1,
      209, 211, 208, -1,
      191, 189, 193, -1,
      193, 189, 190, -1,
      193, 190, 192, -1,
      192, 190, 182, -1,
      192, 182, 200, -1,
      200, 182, 183, -1,
      200, 183, 199, -1,
      199, 183, 184, -1,
      199, 184, 198, -1,
      198, 184, 185, -1,
      198, 185, 197, -1,
      197, 185, 186, -1,
      197, 186, 196, -1,
      196, 186, 187, -1,
      196, 187, 195, -1,
      195, 187, 188, -1,
      195, 188, 194, -1,
      194, 188, 174, -1,
      194, 174, 207, -1,
      207, 174, 175, -1,
      207, 175, 206, -1,
      206, 175, 176, -1,
      206, 176, 205, -1,
      205, 176, 177, -1,
      205, 177, 204, -1,
      204, 177, 178, -1,
      204, 178, 203, -1,
      203, 178, 179, -1,
      203, 179, 202, -1,
      202, 179, 180, -1,
      202, 180, 181, -1,
      214, 47, 215, -1,
      215, 47, 7, -1,
      216, 14, 214, -1,
      214, 14, 47, -1,
      217, 36, 216, -1,
      216, 36, 14, -1,
      218, 34, 217, -1,
      217, 34, 36, -1,
      219, 9, 218, -1,
      218, 9, 34, -1,
      219, 215, 9, -1,
      9, 215, 7, -1,
      216, 214, 217, -1,
      217, 214, 215, -1,
      217, 215, 218, -1,
      218, 215, 219, -1,
    ]
  }
}

Shape {
  appearance Appearance {
    material Material {
      diffuseColor 0.7529 0.7529 0.7529
      specularColor 0.3765 0.3765 0.3765
      ambientIntensity 0.2
      transparency 0.0000
      shininess 0.5
    }
  }
  geometry IndexedFaceSet {
    ccw TRUE
    solid FALSE
    coord DEF co Coordinate {
      point [
        -0.157105 0.024730 -0.007874,
        -0.157619 0.021948 -0.007874,
        -0.158320 0.019208 -0.007874,
        -0.156850 0.024730 -0.007874,
        -0.155590 0.019208 -0.007874,
        -0.156348 0.021939 -0.007874,
        -0.143842 -0.013680 -0.007874,
        -0.170174 -0.013680 -0.007874,
        -0.074749 -0.035766 -0.007874,
        -0.063571 -0.035766 -0.007874,
        -0.105822 -0.004273 -0.007874,
        -0.105099 -0.012543 -0.007874,
        -0.102790 -0.019944 -0.007874,
        -0.099469 -0.025374 -0.007874,
        -0.095052 -0.029735 -0.007874,
        -0.089682 -0.032924 -0.007874,
        -0.083056 -0.034993 -0.007874,
        -0.075184 0.025690 -0.007874,
        -0.084504 0.024699 -0.007874,
        -0.091003 0.022425 -0.007874,
        -0.096755 0.018709 -0.007874,
        -0.100580 0.014648 -0.007874,
        -0.103315 0.009792 -0.007874,
        -0.105153 0.003564 -0.007874,
        -0.063571 0.025690 -0.007874,
      ]
    }
    coordIndex [
      6, 7, 4, -1,
      4, 7, 2, -1,
      4, 2, 5, -1,
      5, 2, 1, -1,
      5, 1, 3, -1,
      3, 1, 0, -1,
      24, 9, 17, -1,
      17, 9, 8, -1,
      17, 8, 16, -1,
      10, 23, 17, -1,
      17, 23, 22, -1,
      17, 22, 18, -1,
      16, 15, 17, -1,
      17, 15, 14, -1,
      17, 14, 13, -1,
      13, 12, 17, -1,
      17, 12, 11, -1,
      17, 11, 10, -1,
      21, 20, 22, -1,
      22, 20, 19, -1,
      22, 19, 18, -1,
    ]
  }
}
