#VRML V2.0 utf8

Shape {
  appearance Appearance {
    material Material {
      diffuseColor 0.6667 0.6667 0.6667
      specularColor 0.4667 0.4667 0.4667
      ambientIntensity 0.2
      transparency 0.0000
      shininess 0.5
    }
  }
  geometry IndexedFaceSet {
    ccw TRUE
    solid FALSE
    coord DEF co Coordinate {
      point [
        -0.413386 -0.137795 -0.007874,
        -0.413386 -0.037508 -0.007874,
        -0.016324 -0.037508 -0.007874,
        -0.255906 -0.295276 -0.007874,
        -0.016324 0.295276 -0.007874,
        -0.008642 -0.028386 -0.007874,
        -0.008642 -0.037028 -0.007874,
        0.033609 -0.037028 -0.007874,
        0.048972 -0.032947 -0.007874,
        0.048972 -0.024305 -0.007874,
        0.033609 0.041712 -0.007874,
        0.023046 0.033070 -0.007874,
        0.023046 0.007143 -0.007874,
        -0.006722 0.033070 -0.007874,
        -0.004801 0.007143 -0.007874,
        0.023046 -0.001499 -0.007874,
        0.023046 -0.028386 -0.007874,
        -0.004801 -0.001499 -0.007874,
        0.154600 -0.037028 -0.007874,
        0.075269 -0.037508 -0.007874,
        0.114269 -0.037028 -0.007874,
        0.080342 -0.036982 -0.007874,
        0.087974 -0.034355 -0.007874,
        -0.006722 0.041712 -0.007874,
        0.103392 0.020973 -0.007874,
        0.098777 0.028335 -0.007874,
        0.144037 0.041712 -0.007874,
        0.075166 0.033159 -0.007874,
        0.081059 0.031033 -0.007874,
        0.050384 -0.025086 -0.007874,
        0.086509 0.027387 -0.007874,
        0.091264 0.022137 -0.007874,
        0.096985 0.001502 -0.007874,
        0.096187 -0.007022 -0.007874,
        0.094048 -0.013795 -0.007874,
        0.076527 -0.028522 -0.007874,
        0.069183 -0.029346 -0.007874,
        0.082264 -0.026410 -0.007874,
        0.087097 -0.023153 -0.007874,
        0.090792 -0.019255 -0.007874,
        0.058731 -0.028186 -0.007874,
        0.094510 0.016058 -0.007874,
        0.096609 0.007628 -0.007874,
        0.094307 -0.030311 -0.007874,
        0.100222 -0.024084 -0.007874,
        0.114269 -0.028386 -0.007874,
        0.104417 -0.016597 -0.007874,
        0.144037 -0.028386 -0.007874,
        0.106786 -0.008262 -0.007874,
        0.107548 0.000857 -0.007874,
        0.106415 0.012051 -0.007874,
        0.091668 0.035172 -0.007874,
        0.084189 0.039477 -0.007874,
        0.075411 0.042027 -0.007874,
        0.067502 0.042672 -0.007874,
        0.058076 0.042022 -0.007874,
        0.048972 0.039552 -0.007874,
        0.048972 0.028989 -0.007874,
        0.057842 0.032787 -0.007874,
        0.067412 0.034030 -0.007874,
        0.057366 -0.036393 -0.007874,
        0.065322 -0.037508 -0.007874,
        -0.016324 -0.295276 -0.007874,
        0.068485 -0.037951 -0.007874,
        0.070638 -0.037988 -0.007874,
        0.154600 0.041712 -0.007874,
        0.413386 0.295276 -0.007874,
        0.413386 -0.037508 -0.007874,
        0.413386 -0.295276 -0.007874,
        -0.093144 -0.037028 -0.007874,
        -0.083450 -0.015447 -0.007874,
        -0.078935 -0.022490 -0.007874,
        -0.152679 -0.037028 -0.007874,
        -0.164202 -0.037028 -0.007874,
        -0.133474 0.041712 -0.007874,
        -0.413386 0.295276 -0.007874,
        -0.122911 0.041712 -0.007874,
        -0.072454 -0.028695 -0.007874,
        -0.064232 -0.033473 -0.007874,
        -0.055159 -0.036178 -0.007874,
        -0.045417 -0.037028 -0.007874,
        -0.024006 -0.037028 -0.007874,
        -0.024006 0.041712 -0.007874,
        -0.046227 0.041712 -0.007874,
        -0.075468 0.031445 -0.007874,
        -0.081036 0.025271 -0.007874,
        -0.084695 0.018500 -0.007874,
        -0.057603 0.040496 -0.007874,
        -0.066815 0.037261 -0.007874,
        -0.075385 0.031518 -0.007874,
        -0.104667 -0.037028 -0.007874,
        -0.112184 -0.014942 -0.007874,
        -0.144712 -0.014942 -0.007874,
        -0.086810 0.010741 -0.007874,
        -0.087382 0.003332 -0.007874,
        -0.086278 -0.007205 -0.007874,
      ]
    }
    coordIndex [
      0, 1, 2, -1,
      0, 2, 3, -1,
      4, 5, 2, -1,
      2, 5, 6, -1,
      2, 6, 7, -1,
      8, 7, 9, -1,
      9, 7, 10, -1,
      11, 12, 13, -1,
      13, 12, 14, -1,
      15, 16, 17, -1,
      17, 16, 5, -1,
      18, 19, 20, -1,
      20, 19, 21, -1,
      20, 21, 22, -1,
      10, 23, 4, -1,
      4, 23, 13, -1,
      4, 13, 5, -1,
      5, 13, 14, -1,
      5, 14, 17, -1,
      24, 25, 26, -1,
      27, 28, 29, -1,
      29, 28, 30, -1,
      29, 30, 31, -1,
      32, 33, 29, -1,
      29, 33, 34, -1,
      35, 36, 37, -1,
      37, 36, 38, -1,
      34, 39, 29, -1,
      29, 39, 38, -1,
      29, 38, 40, -1,
      40, 38, 36, -1,
      31, 41, 29, -1,
      29, 41, 42, -1,
      29, 42, 32, -1,
      22, 43, 20, -1,
      20, 43, 44, -1,
      20, 44, 45, -1,
      45, 44, 46, -1,
      45, 46, 47, -1,
      46, 48, 47, -1,
      47, 48, 49, -1,
      47, 49, 26, -1,
      26, 49, 50, -1,
      26, 50, 24, -1,
      51, 52, 4, -1,
      4, 52, 53, -1,
      4, 53, 54, -1,
      54, 55, 4, -1,
      4, 55, 56, -1,
      4, 56, 10, -1,
      10, 56, 57, -1,
      10, 57, 9, -1,
      9, 57, 58, -1,
      9, 58, 29, -1,
      29, 58, 59, -1,
      29, 59, 27, -1,
      8, 60, 7, -1,
      7, 60, 61, -1,
      7, 61, 2, -1,
      2, 61, 62, -1,
      2, 62, 3, -1,
      61, 63, 62, -1,
      62, 63, 64, -1,
      62, 64, 19, -1,
      25, 51, 26, -1,
      26, 51, 4, -1,
      26, 4, 65, -1,
      65, 4, 66, -1,
      65, 66, 18, -1,
      18, 66, 67, -1,
      18, 67, 19, -1,
      19, 67, 68, -1,
      19, 68, 62, -1,
      69, 70, 71, -1,
      72, 2, 73, -1,
      73, 2, 1, -1,
      73, 1, 74, -1,
      74, 1, 75, -1,
      74, 75, 76, -1,
      76, 75, 4, -1,
      71, 77, 69, -1,
      69, 77, 78, -1,
      69, 78, 79, -1,
      80, 81, 2, -1,
      2, 81, 82, -1,
      2, 82, 4, -1,
      4, 82, 83, -1,
      84, 85, 76, -1,
      76, 85, 86, -1,
      83, 87, 4, -1,
      4, 87, 88, -1,
      4, 88, 76, -1,
      76, 88, 89, -1,
      76, 89, 84, -1,
      79, 80, 69, -1,
      69, 80, 2, -1,
      69, 2, 90, -1,
      90, 2, 72, -1,
      90, 72, 91, -1,
      91, 72, 92, -1,
      86, 93, 76, -1,
      76, 93, 94, -1,
      76, 94, 69, -1,
      69, 94, 95, -1,
      69, 95, 70, -1,
    ]
  }
}

Shape {
  appearance Appearance {
    material Material {
      diffuseColor 0.2078 0.2078 0.2078
      specularColor 0.0157 0.0157 0.0157
      ambientIntensity 0.2
      transparency 0.0000
      shininess 0.5
    }
  }
  geometry IndexedFaceSet {
    ccw TRUE
    solid FALSE
    coord DEF co Coordinate {
      point [
        -0.242126 -0.413780 0.000000,
        -0.242126 -0.492126 0.000000,
        -0.348425 -0.492126 0.000000,
        0.492126 -0.492126 0.000000,
        0.413386 -0.295276 0.000000,
        0.492126 0.492126 0.000000,
        0.413386 0.295276 0.000000,
        -0.212946 0.375751 0.000000,
        -0.202756 0.374409 0.000000,
        -0.353700 0.394094 0.000000,
        -0.348425 -0.413780 0.000000,
        -0.255906 -0.295276 0.000000,
        -0.349767 -0.403590 0.000000,
        -0.353700 -0.394094 0.000000,
        0.437635 0.403590 0.000000,
        0.438976 0.413780 0.000000,
        0.438976 0.492126 0.000000,
        -0.016095 -0.375751 0.000000,
        -0.025591 -0.379684 0.000000,
        -0.240785 0.403590 0.000000,
        -0.236852 0.394094 0.000000,
        0.180755 -0.375751 0.000000,
        0.171260 -0.379684 0.000000,
        0.163106 -0.385941 0.000000,
        0.156849 -0.394094 0.000000,
        -0.230595 0.385941 0.000000,
        -0.222441 0.379684 0.000000,
        -0.359956 -0.385941 0.000000,
        -0.368110 -0.379684 0.000000,
        -0.413386 -0.137795 0.000000,
        -0.377606 -0.375751 0.000000,
        -0.387795 -0.374409 0.000000,
        -0.438976 -0.492126 0.000000,
        -0.492126 -0.492126 0.000000,
        -0.438976 -0.413780 0.000000,
        -0.437635 -0.403590 0.000000,
        0.438976 -0.492126 0.000000,
        0.438976 -0.413780 0.000000,
        0.437635 -0.403590 0.000000,
        0.433702 -0.394094 0.000000,
        0.427445 -0.385941 0.000000,
        0.419291 -0.379684 0.000000,
        0.409796 -0.375751 0.000000,
        0.399606 -0.374409 0.000000,
        0.409796 0.375751 0.000000,
        0.419291 0.379684 0.000000,
        -0.348425 0.413780 0.000000,
        -0.348425 0.492126 0.000000,
        -0.242126 0.492126 0.000000,
        -0.399606 -0.374409 0.000000,
        -0.409796 -0.375751 0.000000,
        -0.419291 -0.379684 0.000000,
        -0.427445 -0.385941 0.000000,
        -0.433702 -0.394094 0.000000,
        0.368110 -0.379684 0.000000,
        0.377606 -0.375751 0.000000,
        0.387795 -0.374409 0.000000,
        0.359956 -0.385941 0.000000,
        0.240785 -0.403590 0.000000,
        0.353700 -0.394094 0.000000,
        0.348425 -0.413780 0.000000,
        0.348425 -0.492126 0.000000,
        0.242126 -0.492126 0.000000,
        -0.005906 -0.374409 0.000000,
        -0.156849 -0.394094 0.000000,
        -0.152916 -0.403590 0.000000,
        -0.033744 -0.385941 0.000000,
        -0.040001 -0.394094 0.000000,
        -0.437635 0.403590 0.000000,
        -0.492126 0.492126 0.000000,
        -0.438976 0.413780 0.000000,
        -0.438976 0.492126 0.000000,
        -0.433702 0.394094 0.000000,
        -0.427445 0.385941 0.000000,
        -0.413386 0.295276 0.000000,
        -0.419291 0.379684 0.000000,
        -0.016095 0.375751 0.000000,
        -0.025591 0.379684 0.000000,
        -0.033744 0.385941 0.000000,
        0.163106 0.385941 0.000000,
        0.171260 0.379684 0.000000,
        0.212946 0.375751 0.000000,
        0.222441 0.379684 0.000000,
        0.230595 0.385941 0.000000,
        0.236852 0.394094 0.000000,
        0.242126 0.413780 0.000000,
        0.242126 0.492126 0.000000,
        0.348425 0.492126 0.000000,
        0.349767 0.403590 0.000000,
        0.353700 0.394094 0.000000,
        0.359956 0.385941 0.000000,
        0.368110 0.379684 0.000000,
        0.377606 0.375751 0.000000,
        0.387795 0.374409 0.000000,
        0.399606 0.374409 0.000000,
        0.427445 0.385941 0.000000,
        0.433702 0.394094 0.000000,
        -0.349767 0.403590 0.000000,
        -0.242126 0.413780 0.000000,
        0.349767 -0.403590 0.000000,
        0.242126 -0.413780 0.000000,
        0.236852 -0.394094 0.000000,
        0.230595 -0.385941 0.000000,
        0.222441 -0.379684 0.000000,
        0.043934 -0.403590 0.000000,
        0.040001 -0.394094 0.000000,
        0.033744 -0.385941 0.000000,
        -0.222441 -0.379684 0.000000,
        -0.230595 -0.385941 0.000000,
        -0.236852 -0.394094 0.000000,
        -0.240785 -0.403590 0.000000,
        -0.409796 0.375751 0.000000,
        -0.399606 0.374409 0.000000,
        -0.387795 0.374409 0.000000,
        -0.043934 0.403590 0.000000,
        -0.040001 0.394094 0.000000,
        -0.156849 0.394094 0.000000,
        -0.163106 0.385941 0.000000,
        0.240785 0.403590 0.000000,
        0.348425 0.413780 0.000000,
        0.212946 -0.375751 0.000000,
        0.202756 -0.374409 0.000000,
        0.190945 -0.374409 0.000000,
        0.151575 -0.413780 0.000000,
        0.151575 -0.492126 0.000000,
        0.045276 -0.492126 0.000000,
        0.025591 -0.379684 0.000000,
        0.016095 -0.375751 0.000000,
        0.005906 -0.374409 0.000000,
        -0.045276 -0.413780 0.000000,
        -0.045276 -0.492126 0.000000,
        -0.151575 -0.492126 0.000000,
        -0.005906 0.374409 0.000000,
        0.005906 0.374409 0.000000,
        0.016095 0.375751 0.000000,
        0.025591 0.379684 0.000000,
        0.152916 0.403590 0.000000,
        0.156849 0.394094 0.000000,
        0.040001 0.394094 0.000000,
        0.033744 0.385941 0.000000,
        0.180755 0.375751 0.000000,
        0.190945 0.374409 0.000000,
        0.202756 0.374409 0.000000,
        0.152916 -0.403590 0.000000,
        0.045276 -0.413780 0.000000,
        -0.043934 -0.403590 0.000000,
        -0.151575 -0.413780 0.000000,
        -0.163106 -0.385941 0.000000,
        -0.171260 -0.379684 0.000000,
        -0.180755 -0.375751 0.000000,
        -0.190945 -0.374409 0.000000,
        -0.190945 0.374409 0.000000,
        -0.180755 0.375751 0.000000,
        -0.171260 0.379684 0.000000,
        -0.151575 0.413780 0.000000,
        -0.151575 0.492126 0.000000,
        -0.045276 0.492126 0.000000,
        0.045276 0.413780 0.000000,
        0.045276 0.492126 0.000000,
        0.151575 0.492126 0.000000,
        -0.202756 -0.374409 0.000000,
        -0.212946 -0.375751 0.000000,
        -0.377606 0.375751 0.000000,
        -0.368110 0.379684 0.000000,
        -0.359956 0.385941 0.000000,
        -0.152916 0.403590 0.000000,
        -0.045276 0.413780 0.000000,
        0.043934 0.403590 0.000000,
        0.151575 0.413780 0.000000,
        -0.438976 -0.492126 0.070866,
        -0.348425 -0.492126 0.070866,
        -0.242126 -0.492126 0.070866,
        -0.492126 -0.492126 0.287402,
        0.492126 -0.492126 0.287402,
        -0.151575 -0.492126 0.070866,
        0.045276 -0.492126 0.070866,
        0.151575 -0.492126 0.070866,
        0.242126 -0.492126 0.070866,
        -0.045276 -0.492126 0.070866,
        0.438976 -0.492126 0.070866,
        0.348425 -0.492126 0.070866,
        0.492126 0.492126 0.287402,
        0.438976 0.492126 0.070866,
        0.348425 0.492126 0.070866,
        0.242126 0.492126 0.070866,
        -0.492126 0.492126 0.287402,
        0.151575 0.492126 0.070866,
        -0.151575 0.492126 0.070866,
        -0.242126 0.492126 0.070866,
        -0.045276 0.492126 0.070866,
        0.045276 0.492126 0.070866,
        -0.438976 0.492126 0.070866,
        -0.348425 0.492126 0.070866,
        -0.296617 -0.324456 0.287402,
        -0.295276 -0.334646 0.287402,
        -0.344835 -0.372674 0.287402,
        -0.354331 -0.368741 0.287402,
        -0.296617 -0.344835 0.287402,
        -0.300550 -0.354331 0.287402,
        -0.306807 -0.362485 0.287402,
        -0.362485 -0.362485 0.287402,
        -0.368741 -0.354331 0.287402,
        -0.372674 -0.344835 0.287402,
        -0.300550 -0.314961 0.287402,
        -0.306807 -0.306807 0.287402,
        -0.362485 -0.306807 0.287402,
        -0.354331 -0.300550 0.287402,
        -0.344835 -0.296617 0.287402,
        -0.334646 -0.295276 0.287402,
        -0.324456 -0.296617 0.287402,
        -0.314961 -0.300550 0.287402,
        -0.314961 -0.368741 0.287402,
        -0.324456 -0.372674 0.287402,
        -0.334646 -0.374016 0.287402,
        -0.374016 -0.334646 0.287402,
        -0.372674 -0.324456 0.287402,
        -0.368741 -0.314961 0.287402,
      ]
    }
    coordIndex [
      0, 1, 2, -1,
      3, 4, 5, -1,
      5, 4, 6, -1,
      7, 8, 9, -1,
      2, 10, 11, -1,
      11, 10, 12, -1,
      11, 12, 13, -1,
      6, 14, 5, -1,
      5, 14, 15, -1,
      5, 15, 16, -1,
      17, 18, 11, -1,
      9, 19, 20, -1,
      21, 22, 11, -1,
      11, 22, 23, -1,
      11, 23, 24, -1,
      20, 25, 9, -1,
      9, 25, 26, -1,
      9, 26, 7, -1,
      13, 27, 11, -1,
      11, 27, 28, -1,
      11, 28, 29, -1,
      29, 28, 30, -1,
      29, 30, 31, -1,
      32, 33, 34, -1,
      34, 33, 35, -1,
      36, 37, 3, -1,
      3, 37, 38, -1,
      3, 38, 4, -1,
      4, 38, 39, -1,
      4, 39, 40, -1,
      40, 41, 4, -1,
      4, 41, 42, -1,
      4, 42, 43, -1,
      6, 44, 45, -1,
      46, 47, 48, -1,
      31, 49, 29, -1,
      29, 49, 50, -1,
      29, 50, 51, -1,
      51, 52, 29, -1,
      29, 52, 53, -1,
      29, 53, 35, -1,
      54, 11, 55, -1,
      55, 11, 4, -1,
      55, 4, 56, -1,
      56, 4, 43, -1,
      54, 57, 58, -1,
      58, 57, 59, -1,
      60, 61, 62, -1,
      17, 11, 63, -1,
      64, 18, 65, -1,
      65, 18, 66, -1,
      65, 66, 67, -1,
      68, 69, 70, -1,
      70, 69, 71, -1,
      72, 73, 74, -1,
      74, 73, 75, -1,
      76, 74, 77, -1,
      77, 74, 78, -1,
      74, 79, 80, -1,
      81, 82, 6, -1,
      6, 82, 83, -1,
      6, 83, 84, -1,
      85, 86, 87, -1,
      88, 89, 84, -1,
      84, 89, 90, -1,
      84, 90, 6, -1,
      6, 90, 91, -1,
      6, 91, 92, -1,
      92, 93, 6, -1,
      6, 93, 94, -1,
      6, 94, 44, -1,
      45, 95, 6, -1,
      6, 95, 96, -1,
      6, 96, 14, -1,
      9, 97, 19, -1,
      19, 97, 46, -1,
      19, 46, 98, -1,
      98, 46, 48, -1,
      59, 99, 58, -1,
      58, 99, 60, -1,
      58, 60, 100, -1,
      100, 60, 62, -1,
      58, 101, 54, -1,
      54, 101, 102, -1,
      54, 102, 103, -1,
      104, 105, 24, -1,
      24, 105, 106, -1,
      107, 108, 11, -1,
      11, 108, 109, -1,
      11, 109, 2, -1,
      2, 109, 110, -1,
      2, 110, 0, -1,
      35, 33, 29, -1,
      29, 33, 69, -1,
      29, 69, 74, -1,
      74, 69, 68, -1,
      74, 68, 72, -1,
      75, 111, 74, -1,
      74, 111, 112, -1,
      74, 112, 113, -1,
      114, 115, 116, -1,
      116, 115, 78, -1,
      116, 78, 117, -1,
      84, 118, 88, -1,
      88, 118, 85, -1,
      88, 85, 119, -1,
      119, 85, 87, -1,
      103, 120, 54, -1,
      54, 120, 121, -1,
      54, 121, 11, -1,
      11, 121, 122, -1,
      11, 122, 21, -1,
      123, 124, 125, -1,
      106, 126, 24, -1,
      24, 126, 127, -1,
      24, 127, 11, -1,
      11, 127, 128, -1,
      11, 128, 63, -1,
      129, 130, 131, -1,
      76, 132, 74, -1,
      74, 132, 133, -1,
      74, 133, 79, -1,
      79, 133, 134, -1,
      79, 134, 135, -1,
      136, 137, 138, -1,
      138, 137, 79, -1,
      138, 79, 139, -1,
      139, 79, 135, -1,
      80, 140, 74, -1,
      74, 140, 141, -1,
      74, 141, 6, -1,
      6, 141, 142, -1,
      6, 142, 81, -1,
      24, 143, 104, -1,
      104, 143, 123, -1,
      104, 123, 144, -1,
      144, 123, 125, -1,
      67, 145, 65, -1,
      65, 145, 129, -1,
      65, 129, 146, -1,
      146, 129, 131, -1,
      64, 147, 18, -1,
      18, 147, 148, -1,
      18, 148, 11, -1,
      11, 148, 149, -1,
      11, 149, 150, -1,
      8, 151, 74, -1,
      74, 151, 152, -1,
      74, 152, 78, -1,
      78, 152, 153, -1,
      78, 153, 117, -1,
      154, 155, 156, -1,
      157, 158, 159, -1,
      150, 160, 11, -1,
      11, 160, 161, -1,
      11, 161, 107, -1,
      113, 162, 74, -1,
      74, 162, 163, -1,
      74, 163, 8, -1,
      8, 163, 164, -1,
      8, 164, 9, -1,
      116, 165, 114, -1,
      114, 165, 154, -1,
      114, 154, 166, -1,
      166, 154, 156, -1,
      138, 167, 136, -1,
      136, 167, 157, -1,
      136, 157, 168, -1,
      168, 157, 159, -1,
      33, 32, 169, -1,
      2, 1, 170, -1,
      170, 1, 171, -1,
      33, 169, 172, -1,
      172, 169, 170, -1,
      172, 170, 173, -1,
      173, 170, 171, -1,
      173, 171, 174, -1,
      175, 125, 124, -1,
      176, 177, 173, -1,
      124, 176, 175, -1,
      175, 176, 173, -1,
      175, 173, 178, -1,
      178, 173, 174, -1,
      178, 174, 130, -1,
      130, 174, 131, -1,
      36, 3, 179, -1,
      179, 3, 173, -1,
      179, 173, 180, -1,
      180, 173, 177, -1,
      180, 177, 61, -1,
      61, 177, 62, -1,
      181, 173, 5, -1,
      5, 173, 3, -1,
      5, 16, 182, -1,
      87, 86, 183, -1,
      183, 86, 184, -1,
      5, 182, 181, -1,
      181, 182, 183, -1,
      181, 183, 185, -1,
      185, 183, 184, -1,
      185, 184, 186, -1,
      187, 188, 185, -1,
      189, 156, 155, -1,
      155, 187, 189, -1,
      189, 187, 185, -1,
      189, 185, 190, -1,
      190, 185, 186, -1,
      190, 186, 158, -1,
      158, 186, 159, -1,
      71, 69, 191, -1,
      191, 69, 185, -1,
      191, 185, 192, -1,
      192, 185, 188, -1,
      192, 188, 47, -1,
      47, 188, 48, -1,
      172, 185, 33, -1,
      33, 185, 69, -1,
      193, 194, 173, -1,
      195, 196, 172, -1,
      194, 197, 173, -1,
      173, 197, 198, -1,
      173, 198, 199, -1,
      196, 200, 172, -1,
      172, 200, 201, -1,
      172, 201, 202, -1,
      193, 173, 203, -1,
      203, 173, 181, -1,
      203, 181, 204, -1,
      205, 206, 185, -1,
      185, 206, 207, -1,
      207, 208, 185, -1,
      185, 208, 209, -1,
      185, 209, 181, -1,
      181, 209, 210, -1,
      181, 210, 204, -1,
      199, 211, 173, -1,
      173, 211, 212, -1,
      173, 212, 172, -1,
      172, 212, 213, -1,
      172, 213, 195, -1,
      202, 214, 172, -1,
      172, 214, 215, -1,
      172, 215, 185, -1,
      185, 215, 216, -1,
      185, 216, 205, -1,
    ]
  }
}

Shape {
  appearance Appearance {
    material Material {
      diffuseColor 0.3490 0.3490 0.3490
      specularColor 0.0235 0.0235 0.0235
      ambientIntensity 0.2
      transparency 0.0000
      shininess 0.5
    }
  }
  geometry IndexedFaceSet {
    ccw TRUE
    solid FALSE
    coord DEF co Coordinate {
      point [
        -0.296617 -0.324456 0.287402,
        -0.295276 -0.334646 0.287402,
        -0.344835 -0.372674 0.287402,
        -0.354331 -0.368741 0.287402,
        -0.296617 -0.344835 0.287402,
        -0.300550 -0.354331 0.287402,
        -0.306807 -0.362485 0.287402,
        -0.362485 -0.362485 0.287402,
        -0.368741 -0.354331 0.287402,
        -0.372674 -0.344835 0.287402,
        -0.300550 -0.314961 0.287402,
        -0.306807 -0.306807 0.287402,
        -0.362485 -0.306807 0.287402,
        -0.354331 -0.300550 0.287402,
        -0.344835 -0.296617 0.287402,
        -0.334646 -0.295276 0.287402,
        -0.324456 -0.296617 0.287402,
        -0.314961 -0.300550 0.287402,
        -0.314961 -0.368741 0.287402,
        -0.324456 -0.372674 0.287402,
        -0.334646 -0.374016 0.287402,
        -0.374016 -0.334646 0.287402,
        -0.372674 -0.324456 0.287402,
        -0.368741 -0.314961 0.287402,
        -0.295276 -0.334646 0.279528,
        -0.296617 -0.324456 0.279528,
        -0.300550 -0.314961 0.279528,
        -0.306807 -0.306807 0.279528,
        -0.314961 -0.300550 0.279528,
        -0.324456 -0.296617 0.279528,
        -0.334646 -0.295276 0.279528,
        -0.344835 -0.296617 0.279528,
        -0.354331 -0.300550 0.279528,
        -0.362485 -0.306807 0.279528,
        -0.368741 -0.314961 0.279528,
        -0.372674 -0.324456 0.279528,
        -0.374016 -0.334646 0.279528,
        -0.372674 -0.344835 0.279528,
        -0.368741 -0.354331 0.279528,
        -0.362485 -0.362485 0.279528,
        -0.354331 -0.368741 0.279528,
        -0.344835 -0.372674 0.279528,
        -0.334646 -0.374016 0.279528,
        -0.324456 -0.372674 0.279528,
        -0.314961 -0.368741 0.279528,
        -0.306807 -0.362485 0.279528,
        -0.300550 -0.354331 0.279528,
        -0.296617 -0.344835 0.279528,
        -0.334646 -0.334646 0.279528,
      ]
    }
    coordIndex [
      24, 1, 25, -1,
      25, 1, 0, -1,
      25, 0, 26, -1,
      26, 0, 10, -1,
      26, 10, 27, -1,
      27, 10, 11, -1,
      27, 11, 28, -1,
      28, 11, 17, -1,
      28, 17, 29, -1,
      29, 17, 16, -1,
      29, 16, 30, -1,
      30, 16, 15, -1,
      30, 15, 31, -1,
      31, 15, 14, -1,
      31, 14, 32, -1,
      32, 14, 13, -1,
      32, 13, 33, -1,
      33, 13, 12, -1,
      33, 12, 34, -1,
      34, 12, 23, -1,
      34, 23, 35, -1,
      35, 23, 22, -1,
      35, 22, 36, -1,
      36, 22, 21, -1,
      36, 21, 37, -1,
      37, 21, 9, -1,
      37, 9, 38, -1,
      38, 9, 8, -1,
      38, 8, 39, -1,
      39, 8, 7, -1,
      39, 7, 40, -1,
      40, 7, 3, -1,
      40, 3, 41, -1,
      41, 3, 2, -1,
      41, 2, 42, -1,
      42, 2, 20, -1,
      42, 20, 43, -1,
      43, 20, 19, -1,
      43, 19, 44, -1,
      44, 19, 18, -1,
      44, 18, 45, -1,
      45, 18, 6, -1,
      45, 6, 46, -1,
      46, 6, 5, -1,
      46, 5, 47, -1,
      47, 5, 4, -1,
      47, 4, 24, -1,
      24, 4, 1, -1,
      46, 47, 48, -1,
      48, 47, 24, -1,
      48, 24, 25, -1,
      43, 44, 48, -1,
      48, 44, 45, -1,
      48, 45, 46, -1,
      40, 41, 48, -1,
      48, 41, 42, -1,
      48, 42, 43, -1,
      37, 38, 48, -1,
      48, 38, 39, -1,
      48, 39, 40, -1,
      34, 35, 48, -1,
      48, 35, 36, -1,
      48, 36, 37, -1,
      31, 32, 48, -1,
      48, 32, 33, -1,
      48, 33, 34, -1,
      28, 29, 48, -1,
      48, 29, 30, -1,
      48, 30, 31, -1,
      25, 26, 48, -1,
      48, 26, 27, -1,
      48, 27, 28, -1,
    ]
  }
}

Shape {
  appearance Appearance {
    material Material {
      diffuseColor 0.6667 0.6667 0.6667
      specularColor 0.4667 0.4667 0.4667
      ambientIntensity 0.2
      transparency 0.0000
      shininess 0.5
    }
  }
  geometry IndexedFaceSet {
    ccw TRUE
    solid FALSE
    coord DEF co Coordinate {
      point [
        -0.413386 -0.137795 -0.007874,
        -0.413386 -0.037508 -0.007874,
        -0.255906 -0.295276 -0.007874,
        -0.016324 0.295276 -0.007874,
        -0.016324 -0.295276 -0.007874,
        0.413386 0.295276 -0.007874,
        0.413386 -0.037508 -0.007874,
        0.413386 -0.295276 -0.007874,
        -0.413386 0.295276 -0.007874,
        -0.242126 -0.413780 0.000000,
        -0.242126 -0.492126 0.000000,
        -0.348425 -0.492126 0.000000,
        0.413386 -0.295276 0.000000,
        0.413386 0.295276 0.000000,
        -0.212946 0.375751 0.000000,
        -0.202756 0.374409 0.000000,
        -0.353700 0.394094 0.000000,
        -0.348425 -0.413780 0.000000,
        -0.255906 -0.295276 0.000000,
        -0.349767 -0.403590 0.000000,
        -0.353700 -0.394094 0.000000,
        0.437635 0.403590 0.000000,
        0.438976 0.413780 0.000000,
        0.438976 0.492126 0.000000,
        -0.016095 -0.375751 0.000000,
        -0.025591 -0.379684 0.000000,
        -0.240785 0.403590 0.000000,
        -0.236852 0.394094 0.000000,
        0.180755 -0.375751 0.000000,
        0.171260 -0.379684 0.000000,
        0.163106 -0.385941 0.000000,
        0.156849 -0.394094 0.000000,
        -0.230595 0.385941 0.000000,
        -0.222441 0.379684 0.000000,
        -0.359956 -0.385941 0.000000,
        -0.368110 -0.379684 0.000000,
        -0.413386 -0.137795 0.000000,
        -0.377606 -0.375751 0.000000,
        -0.387795 -0.374409 0.000000,
        -0.438976 -0.492126 0.000000,
        -0.438976 -0.413780 0.000000,
        -0.437635 -0.403590 0.000000,
        0.438976 -0.492126 0.000000,
        0.438976 -0.413780 0.000000,
        0.437635 -0.403590 0.000000,
        0.433702 -0.394094 0.000000,
        0.427445 -0.385941 0.000000,
        0.419291 -0.379684 0.000000,
        0.409796 -0.375751 0.000000,
        0.399606 -0.374409 0.000000,
        0.409796 0.375751 0.000000,
        0.419291 0.379684 0.000000,
        -0.348425 0.413780 0.000000,
        -0.348425 0.492126 0.000000,
        -0.242126 0.492126 0.000000,
        -0.399606 -0.374409 0.000000,
        -0.409796 -0.375751 0.000000,
        -0.419291 -0.379684 0.000000,
        -0.427445 -0.385941 0.000000,
        -0.433702 -0.394094 0.000000,
        0.368110 -0.379684 0.000000,
        0.377606 -0.375751 0.000000,
        0.387795 -0.374409 0.000000,
        0.359956 -0.385941 0.000000,
        0.240785 -0.403590 0.000000,
        0.353700 -0.394094 0.000000,
        0.348425 -0.413780 0.000000,
        0.348425 -0.492126 0.000000,
        0.242126 -0.492126 0.000000,
        -0.005906 -0.374409 0.000000,
        -0.156849 -0.394094 0.000000,
        -0.152916 -0.403590 0.000000,
        -0.033744 -0.385941 0.000000,
        -0.040001 -0.394094 0.000000,
        -0.437635 0.403590 0.000000,
        -0.438976 0.413780 0.000000,
        -0.438976 0.492126 0.000000,
        -0.433702 0.394094 0.000000,
        -0.427445 0.385941 0.000000,
        -0.413386 0.295276 0.000000,
        -0.419291 0.379684 0.000000,
        -0.016095 0.375751 0.000000,
        -0.025591 0.379684 0.000000,
        -0.033744 0.385941 0.000000,
        0.163106 0.385941 0.000000,
        0.171260 0.379684 0.000000,
        0.212946 0.375751 0.000000,
        0.222441 0.379684 0.000000,
        0.230595 0.385941 0.000000,
        0.236852 0.394094 0.000000,
        0.242126 0.413780 0.000000,
        0.242126 0.492126 0.000000,
        0.348425 0.492126 0.000000,
        0.349767 0.403590 0.000000,
        0.353700 0.394094 0.000000,
        0.359956 0.385941 0.000000,
        0.368110 0.379684 0.000000,
        0.377606 0.375751 0.000000,
        0.387795 0.374409 0.000000,
        0.399606 0.374409 0.000000,
        0.427445 0.385941 0.000000,
        0.433702 0.394094 0.000000,
        -0.349767 0.403590 0.000000,
        -0.242126 0.413780 0.000000,
        0.349767 -0.403590 0.000000,
        0.242126 -0.413780 0.000000,
        0.236852 -0.394094 0.000000,
        0.230595 -0.385941 0.000000,
        0.222441 -0.379684 0.000000,
        0.043934 -0.403590 0.000000,
        0.040001 -0.394094 0.000000,
        0.033744 -0.385941 0.000000,
        -0.222441 -0.379684 0.000000,
        -0.230595 -0.385941 0.000000,
        -0.236852 -0.394094 0.000000,
        -0.240785 -0.403590 0.000000,
        -0.409796 0.375751 0.000000,
        -0.399606 0.374409 0.000000,
        -0.387795 0.374409 0.000000,
        -0.043934 0.403590 0.000000,
        -0.040001 0.394094 0.000000,
        -0.156849 0.394094 0.000000,
        -0.163106 0.385941 0.000000,
        0.240785 0.403590 0.000000,
        0.348425 0.413780 0.000000,
        0.212946 -0.375751 0.000000,
        0.202756 -0.374409 0.000000,
        0.190945 -0.374409 0.000000,
        0.151575 -0.413780 0.000000,
        0.151575 -0.492126 0.000000,
        0.045276 -0.492126 0.000000,
        0.025591 -0.379684 0.000000,
        0.016095 -0.375751 0.000000,
        0.005906 -0.374409 0.000000,
        -0.045276 -0.413780 0.000000,
        -0.045276 -0.492126 0.000000,
        -0.151575 -0.492126 0.000000,
        -0.005906 0.374409 0.000000,
        0.005906 0.374409 0.000000,
        0.016095 0.375751 0.000000,
        0.025591 0.379684 0.000000,
        0.152916 0.403590 0.000000,
        0.156849 0.394094 0.000000,
        0.040001 0.394094 0.000000,
        0.033744 0.385941 0.000000,
        0.180755 0.375751 0.000000,
        0.190945 0.374409 0.000000,
        0.202756 0.374409 0.000000,
        0.152916 -0.403590 0.000000,
        0.045276 -0.413780 0.000000,
        -0.043934 -0.403590 0.000000,
        -0.151575 -0.413780 0.000000,
        -0.163106 -0.385941 0.000000,
        -0.171260 -0.379684 0.000000,
        -0.180755 -0.375751 0.000000,
        -0.190945 -0.374409 0.000000,
        -0.190945 0.374409 0.000000,
        -0.180755 0.375751 0.000000,
        -0.171260 0.379684 0.000000,
        -0.151575 0.413780 0.000000,
        -0.151575 0.492126 0.000000,
        -0.045276 0.492126 0.000000,
        0.045276 0.413780 0.000000,
        0.045276 0.492126 0.000000,
        0.151575 0.492126 0.000000,
        -0.202756 -0.374409 0.000000,
        -0.212946 -0.375751 0.000000,
        -0.377606 0.375751 0.000000,
        -0.368110 0.379684 0.000000,
        -0.359956 0.385941 0.000000,
        -0.152916 0.403590 0.000000,
        -0.045276 0.413780 0.000000,
        0.043934 0.403590 0.000000,
        0.151575 0.413780 0.000000,
        -0.438976 -0.492126 0.070866,
        -0.348425 -0.492126 0.070866,
        -0.242126 -0.492126 0.070866,
        -0.151575 -0.492126 0.070866,
        0.045276 -0.492126 0.070866,
        0.151575 -0.492126 0.070866,
        0.242126 -0.492126 0.070866,
        -0.045276 -0.492126 0.070866,
        0.438976 -0.492126 0.070866,
        0.348425 -0.492126 0.070866,
        0.438976 0.492126 0.070866,
        0.348425 0.492126 0.070866,
        0.242126 0.492126 0.070866,
        0.151575 0.492126 0.070866,
        -0.151575 0.492126 0.070866,
        -0.242126 0.492126 0.070866,
        -0.045276 0.492126 0.070866,
        0.045276 0.492126 0.070866,
        -0.438976 0.492126 0.070866,
        -0.348425 0.492126 0.070866,
        0.438976 0.492520 0.070866,
        0.348425 0.492520 0.070866,
        0.348425 0.492520 -0.007874,
        0.348425 0.413780 -0.007874,
        0.438976 0.413780 -0.007874,
        0.438976 0.492520 -0.007874,
        0.349767 0.403590 -0.007874,
        0.353700 0.394094 -0.007874,
        0.359956 0.385941 -0.007874,
        0.368110 0.379684 -0.007874,
        0.377606 0.375751 -0.007874,
        0.387795 0.374409 -0.007874,
        0.399606 0.374409 -0.007874,
        0.409796 0.375751 -0.007874,
        0.419291 0.379684 -0.007874,
        0.427445 0.385941 -0.007874,
        0.433702 0.394094 -0.007874,
        0.437635 0.403590 -0.007874,
        0.242126 0.492520 0.070866,
        0.151575 0.492520 0.070866,
        0.151575 0.492520 -0.007874,
        0.151575 0.413780 -0.007874,
        0.242126 0.413780 -0.007874,
        0.242126 0.492520 -0.007874,
        0.152916 0.403590 -0.007874,
        0.156849 0.394094 -0.007874,
        0.163106 0.385941 -0.007874,
        0.171260 0.379684 -0.007874,
        0.180755 0.375751 -0.007874,
        0.190945 0.374409 -0.007874,
        0.202756 0.374409 -0.007874,
        0.212946 0.375751 -0.007874,
        0.222441 0.379684 -0.007874,
        0.230595 0.385941 -0.007874,
        0.236852 0.394094 -0.007874,
        0.240785 0.403590 -0.007874,
        0.045276 0.492520 0.070866,
        -0.045276 0.492520 0.070866,
        -0.045276 0.492520 -0.007874,
        -0.045276 0.413780 -0.007874,
        0.045276 0.413780 -0.007874,
        0.045276 0.492520 -0.007874,
        -0.043934 0.403590 -0.007874,
        -0.040001 0.394094 -0.007874,
        -0.033744 0.385941 -0.007874,
        -0.025591 0.379684 -0.007874,
        -0.016095 0.375751 -0.007874,
        -0.005906 0.374409 -0.007874,
        0.005906 0.374409 -0.007874,
        0.016095 0.375751 -0.007874,
        0.025591 0.379684 -0.007874,
        0.033744 0.385941 -0.007874,
        0.040001 0.394094 -0.007874,
        0.043934 0.403590 -0.007874,
        -0.151575 0.492520 0.070866,
        -0.242126 0.492520 0.070866,
        -0.242126 0.492520 -0.007874,
        -0.242126 0.413780 -0.007874,
        -0.151575 0.413780 -0.007874,
        -0.151575 0.492520 -0.007874,
        -0.240785 0.403590 -0.007874,
        -0.236852 0.394094 -0.007874,
        -0.230595 0.385941 -0.007874,
        -0.222441 0.379684 -0.007874,
        -0.212946 0.375751 -0.007874,
        -0.202756 0.374409 -0.007874,
        -0.190945 0.374409 -0.007874,
        -0.180755 0.375751 -0.007874,
        -0.171260 0.379684 -0.007874,
        -0.163106 0.385941 -0.007874,
        -0.156849 0.394094 -0.007874,
        -0.152916 0.403590 -0.007874,
        -0.348425 0.492520 0.070866,
        -0.438976 0.492520 0.070866,
        -0.438976 0.492520 -0.007874,
        -0.438976 0.413780 -0.007874,
        -0.348425 0.413780 -0.007874,
        -0.348425 0.492520 -0.007874,
        -0.437635 0.403590 -0.007874,
        -0.433702 0.394094 -0.007874,
        -0.427445 0.385941 -0.007874,
        -0.419291 0.379684 -0.007874,
        -0.409796 0.375751 -0.007874,
        -0.399606 0.374409 -0.007874,
        -0.387795 0.374409 -0.007874,
        -0.377606 0.375751 -0.007874,
        -0.368110 0.379684 -0.007874,
        -0.359956 0.385941 -0.007874,
        -0.353700 0.394094 -0.007874,
        -0.349767 0.403590 -0.007874,
        0.348425 -0.492520 0.070866,
        0.438976 -0.492520 0.070866,
        0.348425 -0.413780 -0.007874,
        0.348425 -0.492520 -0.007874,
        0.438976 -0.492520 -0.007874,
        0.438976 -0.413780 -0.007874,
        0.437635 -0.403590 -0.007874,
        0.433702 -0.394094 -0.007874,
        0.427445 -0.385941 -0.007874,
        0.419291 -0.379684 -0.007874,
        0.409796 -0.375751 -0.007874,
        0.399606 -0.374409 -0.007874,
        0.387795 -0.374409 -0.007874,
        0.377606 -0.375751 -0.007874,
        0.368110 -0.379684 -0.007874,
        0.359956 -0.385941 -0.007874,
        0.353700 -0.394094 -0.007874,
        0.349767 -0.403590 -0.007874,
        0.151575 -0.492520 0.070866,
        0.242126 -0.492520 0.070866,
        0.151575 -0.413780 -0.007874,
        0.151575 -0.492520 -0.007874,
        0.242126 -0.492520 -0.007874,
        0.242126 -0.413780 -0.007874,
        0.240785 -0.403590 -0.007874,
        0.236852 -0.394094 -0.007874,
        0.230595 -0.385941 -0.007874,
        0.222441 -0.379684 -0.007874,
        0.212946 -0.375751 -0.007874,
        0.202756 -0.374409 -0.007874,
        0.190945 -0.374409 -0.007874,
        0.180755 -0.375751 -0.007874,
        0.171260 -0.379684 -0.007874,
        0.163106 -0.385941 -0.007874,
        0.156849 -0.394094 -0.007874,
        0.152916 -0.403590 -0.007874,
        -0.045276 -0.492520 0.070866,
        0.045276 -0.492520 0.070866,
        -0.045276 -0.413780 -0.007874,
        -0.045276 -0.492520 -0.007874,
        0.045276 -0.492520 -0.007874,
        0.045276 -0.413780 -0.007874,
        0.043934 -0.403590 -0.007874,
        0.040001 -0.394094 -0.007874,
        0.033744 -0.385941 -0.007874,
        0.025591 -0.379684 -0.007874,
        0.016095 -0.375751 -0.007874,
        0.005906 -0.374409 -0.007874,
        -0.005906 -0.374409 -0.007874,
        -0.016095 -0.375751 -0.007874,
        -0.025591 -0.379684 -0.007874,
        -0.033744 -0.385941 -0.007874,
        -0.040001 -0.394094 -0.007874,
        -0.043934 -0.403590 -0.007874,
        -0.242126 -0.492520 0.070866,
        -0.151575 -0.492520 0.070866,
        -0.242126 -0.413780 -0.007874,
        -0.242126 -0.492520 -0.007874,
        -0.151575 -0.492520 -0.007874,
        -0.151575 -0.413780 -0.007874,
        -0.152916 -0.403590 -0.007874,
        -0.156849 -0.394094 -0.007874,
        -0.163106 -0.385941 -0.007874,
        -0.171260 -0.379684 -0.007874,
        -0.180755 -0.375751 -0.007874,
        -0.190945 -0.374409 -0.007874,
        -0.202756 -0.374409 -0.007874,
        -0.212946 -0.375751 -0.007874,
        -0.222441 -0.379684 -0.007874,
        -0.230595 -0.385941 -0.007874,
        -0.236852 -0.394094 -0.007874,
        -0.240785 -0.403590 -0.007874,
        -0.438976 -0.492520 0.070866,
        -0.348425 -0.492520 0.070866,
        -0.438976 -0.413780 -0.007874,
        -0.438976 -0.492520 -0.007874,
        -0.348425 -0.492520 -0.007874,
        -0.348425 -0.413780 -0.007874,
        -0.349767 -0.403590 -0.007874,
        -0.353700 -0.394094 -0.007874,
        -0.359956 -0.385941 -0.007874,
        -0.368110 -0.379684 -0.007874,
        -0.377606 -0.375751 -0.007874,
        -0.387795 -0.374409 -0.007874,
        -0.399606 -0.374409 -0.007874,
        -0.409796 -0.375751 -0.007874,
        -0.419291 -0.379684 -0.007874,
        -0.427445 -0.385941 -0.007874,
        -0.433702 -0.394094 -0.007874,
        -0.437635 -0.403590 -0.007874,
      ]
    }
    coordIndex [
      194, 195, 184, -1,
      184, 195, 185, -1,
      185, 195, 92, -1,
      92, 195, 196, -1,
      92, 196, 124, -1,
      124, 196, 197, -1,
      194, 184, 23, -1,
      22, 198, 23, -1,
      23, 198, 199, -1,
      23, 199, 194, -1,
      124, 197, 200, -1,
      124, 200, 93, -1,
      93, 200, 201, -1,
      93, 201, 94, -1,
      94, 201, 202, -1,
      94, 202, 95, -1,
      95, 202, 203, -1,
      95, 203, 96, -1,
      96, 203, 204, -1,
      96, 204, 97, -1,
      97, 204, 205, -1,
      97, 205, 98, -1,
      98, 205, 99, -1,
      99, 205, 206, -1,
      99, 206, 207, -1,
      99, 207, 50, -1,
      50, 207, 208, -1,
      50, 208, 51, -1,
      51, 208, 209, -1,
      51, 209, 100, -1,
      100, 209, 210, -1,
      100, 210, 101, -1,
      101, 210, 211, -1,
      101, 211, 21, -1,
      21, 211, 198, -1,
      21, 198, 22, -1,
      196, 195, 199, -1,
      199, 195, 194, -1,
      211, 210, 209, -1,
      203, 202, 199, -1,
      199, 202, 201, -1,
      207, 206, 198, -1,
      198, 206, 205, -1,
      198, 205, 199, -1,
      199, 205, 204, -1,
      199, 204, 203, -1,
      201, 200, 199, -1,
      199, 200, 197, -1,
      199, 197, 196, -1,
      211, 209, 198, -1,
      198, 209, 208, -1,
      198, 208, 207, -1,
      212, 213, 186, -1,
      186, 213, 187, -1,
      187, 213, 164, -1,
      164, 213, 214, -1,
      164, 214, 173, -1,
      173, 214, 215, -1,
      212, 186, 91, -1,
      90, 216, 91, -1,
      91, 216, 217, -1,
      91, 217, 212, -1,
      173, 215, 218, -1,
      173, 218, 141, -1,
      141, 218, 219, -1,
      141, 219, 142, -1,
      142, 219, 220, -1,
      142, 220, 84, -1,
      84, 220, 221, -1,
      84, 221, 85, -1,
      85, 221, 222, -1,
      85, 222, 145, -1,
      145, 222, 223, -1,
      145, 223, 146, -1,
      146, 223, 147, -1,
      147, 223, 224, -1,
      147, 224, 225, -1,
      147, 225, 86, -1,
      86, 225, 226, -1,
      86, 226, 87, -1,
      87, 226, 227, -1,
      87, 227, 88, -1,
      88, 227, 228, -1,
      88, 228, 89, -1,
      89, 228, 229, -1,
      89, 229, 123, -1,
      123, 229, 216, -1,
      123, 216, 90, -1,
      214, 213, 217, -1,
      217, 213, 212, -1,
      215, 214, 217, -1,
      224, 223, 216, -1,
      215, 217, 218, -1,
      216, 223, 217, -1,
      217, 223, 222, -1,
      217, 222, 221, -1,
      228, 227, 229, -1,
      229, 227, 226, -1,
      229, 226, 216, -1,
      216, 226, 225, -1,
      216, 225, 224, -1,
      221, 220, 217, -1,
      217, 220, 219, -1,
      217, 219, 218, -1,
      230, 231, 191, -1,
      191, 231, 190, -1,
      190, 231, 161, -1,
      161, 231, 232, -1,
      161, 232, 171, -1,
      171, 232, 233, -1,
      230, 191, 163, -1,
      162, 234, 163, -1,
      163, 234, 235, -1,
      163, 235, 230, -1,
      171, 233, 236, -1,
      171, 236, 119, -1,
      119, 236, 237, -1,
      119, 237, 120, -1,
      120, 237, 238, -1,
      120, 238, 83, -1,
      83, 238, 239, -1,
      83, 239, 82, -1,
      82, 239, 240, -1,
      82, 240, 81, -1,
      81, 240, 241, -1,
      81, 241, 137, -1,
      137, 241, 138, -1,
      138, 241, 242, -1,
      138, 242, 243, -1,
      138, 243, 139, -1,
      139, 243, 244, -1,
      139, 244, 140, -1,
      140, 244, 245, -1,
      140, 245, 144, -1,
      144, 245, 246, -1,
      144, 246, 143, -1,
      143, 246, 247, -1,
      143, 247, 172, -1,
      172, 247, 234, -1,
      172, 234, 162, -1,
      232, 231, 235, -1,
      235, 231, 230, -1,
      247, 246, 245, -1,
      243, 242, 234, -1,
      234, 242, 241, -1,
      234, 241, 235, -1,
      235, 241, 240, -1,
      240, 239, 235, -1,
      235, 239, 238, -1,
      235, 238, 237, -1,
      237, 236, 235, -1,
      235, 236, 233, -1,
      235, 233, 232, -1,
      247, 245, 234, -1,
      234, 245, 244, -1,
      234, 244, 243, -1,
      248, 249, 188, -1,
      188, 249, 189, -1,
      189, 249, 54, -1,
      54, 249, 250, -1,
      54, 250, 103, -1,
      103, 250, 251, -1,
      248, 188, 160, -1,
      159, 252, 160, -1,
      160, 252, 253, -1,
      160, 253, 248, -1,
      103, 251, 254, -1,
      103, 254, 26, -1,
      26, 254, 255, -1,
      26, 255, 27, -1,
      27, 255, 256, -1,
      27, 256, 32, -1,
      32, 256, 257, -1,
      32, 257, 33, -1,
      33, 257, 258, -1,
      33, 258, 14, -1,
      14, 258, 259, -1,
      14, 259, 15, -1,
      15, 259, 156, -1,
      156, 259, 260, -1,
      156, 260, 261, -1,
      156, 261, 157, -1,
      157, 261, 262, -1,
      157, 262, 158, -1,
      158, 262, 263, -1,
      158, 263, 122, -1,
      122, 263, 264, -1,
      122, 264, 121, -1,
      121, 264, 265, -1,
      121, 265, 170, -1,
      170, 265, 252, -1,
      170, 252, 159, -1,
      250, 249, 253, -1,
      253, 249, 248, -1,
      265, 264, 263, -1,
      257, 256, 253, -1,
      253, 256, 255, -1,
      261, 260, 252, -1,
      252, 260, 259, -1,
      252, 259, 253, -1,
      253, 259, 258, -1,
      253, 258, 257, -1,
      255, 254, 253, -1,
      253, 254, 251, -1,
      253, 251, 250, -1,
      265, 263, 252, -1,
      252, 263, 262, -1,
      252, 262, 261, -1,
      266, 267, 193, -1,
      193, 267, 192, -1,
      192, 267, 76, -1,
      76, 267, 268, -1,
      76, 268, 75, -1,
      75, 268, 269, -1,
      266, 193, 53, -1,
      52, 270, 53, -1,
      53, 270, 271, -1,
      53, 271, 266, -1,
      75, 269, 272, -1,
      75, 272, 74, -1,
      74, 272, 273, -1,
      74, 273, 77, -1,
      77, 273, 274, -1,
      77, 274, 78, -1,
      78, 274, 275, -1,
      78, 275, 80, -1,
      80, 275, 276, -1,
      80, 276, 116, -1,
      116, 276, 277, -1,
      116, 277, 117, -1,
      117, 277, 118, -1,
      118, 277, 278, -1,
      118, 278, 279, -1,
      118, 279, 167, -1,
      167, 279, 280, -1,
      167, 280, 168, -1,
      168, 280, 281, -1,
      168, 281, 169, -1,
      169, 281, 282, -1,
      169, 282, 16, -1,
      16, 282, 283, -1,
      16, 283, 102, -1,
      102, 283, 270, -1,
      102, 270, 52, -1,
      268, 267, 271, -1,
      271, 267, 266, -1,
      276, 271, 277, -1,
      277, 271, 270, -1,
      277, 270, 278, -1,
      276, 275, 271, -1,
      271, 275, 274, -1,
      271, 274, 273, -1,
      273, 272, 271, -1,
      271, 272, 269, -1,
      271, 269, 268, -1,
      282, 281, 283, -1,
      283, 281, 280, -1,
      283, 280, 270, -1,
      270, 280, 279, -1,
      270, 279, 278, -1,
      284, 285, 183, -1,
      183, 285, 182, -1,
      284, 183, 67, -1,
      66, 286, 67, -1,
      67, 286, 287, -1,
      67, 287, 284, -1,
      182, 285, 42, -1,
      42, 285, 288, -1,
      42, 288, 43, -1,
      43, 288, 289, -1,
      288, 285, 287, -1,
      287, 285, 284, -1,
      43, 289, 290, -1,
      43, 290, 44, -1,
      44, 290, 291, -1,
      44, 291, 45, -1,
      45, 291, 292, -1,
      45, 292, 46, -1,
      46, 292, 293, -1,
      46, 293, 47, -1,
      47, 293, 294, -1,
      47, 294, 48, -1,
      48, 294, 295, -1,
      48, 295, 49, -1,
      295, 296, 49, -1,
      49, 296, 62, -1,
      62, 296, 297, -1,
      62, 297, 61, -1,
      61, 297, 298, -1,
      61, 298, 60, -1,
      60, 298, 299, -1,
      60, 299, 63, -1,
      63, 299, 300, -1,
      63, 300, 65, -1,
      65, 300, 301, -1,
      65, 301, 104, -1,
      104, 301, 286, -1,
      104, 286, 66, -1,
      288, 287, 286, -1,
      289, 288, 295, -1,
      295, 288, 296, -1,
      286, 301, 288, -1,
      288, 301, 300, -1,
      288, 300, 299, -1,
      299, 298, 288, -1,
      288, 298, 297, -1,
      288, 297, 296, -1,
      292, 295, 293, -1,
      293, 295, 294, -1,
      292, 291, 295, -1,
      295, 291, 290, -1,
      295, 290, 289, -1,
      302, 303, 179, -1,
      179, 303, 180, -1,
      302, 179, 129, -1,
      128, 304, 129, -1,
      129, 304, 305, -1,
      129, 305, 302, -1,
      180, 303, 68, -1,
      68, 303, 306, -1,
      68, 306, 105, -1,
      105, 306, 307, -1,
      306, 303, 305, -1,
      305, 303, 302, -1,
      105, 307, 308, -1,
      105, 308, 64, -1,
      64, 308, 309, -1,
      64, 309, 106, -1,
      106, 309, 310, -1,
      106, 310, 107, -1,
      107, 310, 311, -1,
      107, 311, 108, -1,
      108, 311, 312, -1,
      108, 312, 125, -1,
      125, 312, 313, -1,
      125, 313, 126, -1,
      313, 314, 126, -1,
      126, 314, 127, -1,
      127, 314, 315, -1,
      127, 315, 28, -1,
      28, 315, 316, -1,
      28, 316, 29, -1,
      29, 316, 317, -1,
      29, 317, 30, -1,
      30, 317, 318, -1,
      30, 318, 31, -1,
      31, 318, 319, -1,
      31, 319, 148, -1,
      148, 319, 304, -1,
      148, 304, 128, -1,
      316, 315, 306, -1,
      306, 315, 314, -1,
      306, 314, 313, -1,
      305, 304, 306, -1,
      306, 304, 319, -1,
      319, 318, 306, -1,
      306, 318, 317, -1,
      306, 317, 316, -1,
      312, 308, 313, -1,
      313, 308, 307, -1,
      313, 307, 306, -1,
      312, 311, 308, -1,
      308, 311, 310, -1,
      308, 310, 309, -1,
      320, 321, 181, -1,
      181, 321, 178, -1,
      320, 181, 135, -1,
      134, 322, 135, -1,
      135, 322, 323, -1,
      135, 323, 320, -1,
      178, 321, 130, -1,
      130, 321, 324, -1,
      130, 324, 149, -1,
      149, 324, 325, -1,
      324, 321, 323, -1,
      323, 321, 320, -1,
      149, 325, 326, -1,
      149, 326, 109, -1,
      109, 326, 327, -1,
      109, 327, 110, -1,
      110, 327, 328, -1,
      110, 328, 111, -1,
      111, 328, 329, -1,
      111, 329, 131, -1,
      131, 329, 330, -1,
      131, 330, 132, -1,
      132, 330, 331, -1,
      132, 331, 133, -1,
      331, 332, 133, -1,
      133, 332, 69, -1,
      69, 332, 333, -1,
      69, 333, 24, -1,
      24, 333, 334, -1,
      24, 334, 25, -1,
      25, 334, 335, -1,
      25, 335, 72, -1,
      72, 335, 336, -1,
      72, 336, 73, -1,
      73, 336, 337, -1,
      73, 337, 150, -1,
      150, 337, 322, -1,
      150, 322, 134, -1,
      325, 324, 331, -1,
      334, 333, 324, -1,
      324, 333, 332, -1,
      324, 332, 331, -1,
      323, 322, 324, -1,
      324, 322, 337, -1,
      337, 336, 324, -1,
      324, 336, 335, -1,
      324, 335, 334, -1,
      328, 331, 329, -1,
      329, 331, 330, -1,
      328, 327, 331, -1,
      331, 327, 326, -1,
      331, 326, 325, -1,
      338, 339, 176, -1,
      176, 339, 177, -1,
      338, 176, 10, -1,
      9, 340, 10, -1,
      10, 340, 341, -1,
      10, 341, 338, -1,
      177, 339, 136, -1,
      136, 339, 342, -1,
      136, 342, 151, -1,
      151, 342, 343, -1,
      342, 339, 341, -1,
      341, 339, 338, -1,
      151, 343, 344, -1,
      151, 344, 71, -1,
      71, 344, 345, -1,
      71, 345, 70, -1,
      70, 345, 346, -1,
      70, 346, 152, -1,
      152, 346, 347, -1,
      152, 347, 153, -1,
      153, 347, 348, -1,
      153, 348, 154, -1,
      154, 348, 349, -1,
      154, 349, 155, -1,
      349, 350, 155, -1,
      155, 350, 165, -1,
      165, 350, 351, -1,
      165, 351, 166, -1,
      166, 351, 352, -1,
      166, 352, 112, -1,
      112, 352, 353, -1,
      112, 353, 113, -1,
      113, 353, 354, -1,
      113, 354, 114, -1,
      114, 354, 355, -1,
      114, 355, 115, -1,
      115, 355, 340, -1,
      115, 340, 9, -1,
      342, 341, 340, -1,
      344, 343, 349, -1,
      349, 343, 342, -1,
      349, 342, 350, -1,
      348, 347, 346, -1,
      340, 355, 342, -1,
      342, 355, 354, -1,
      342, 354, 353, -1,
      353, 352, 342, -1,
      342, 352, 351, -1,
      342, 351, 350, -1,
      348, 346, 349, -1,
      349, 346, 345, -1,
      349, 345, 344, -1,
      356, 357, 174, -1,
      174, 357, 175, -1,
      356, 174, 39, -1,
      40, 358, 39, -1,
      39, 358, 359, -1,
      39, 359, 356, -1,
      175, 357, 11, -1,
      11, 357, 360, -1,
      11, 360, 17, -1,
      17, 360, 361, -1,
      360, 357, 359, -1,
      359, 357, 356, -1,
      17, 361, 362, -1,
      17, 362, 19, -1,
      19, 362, 363, -1,
      19, 363, 20, -1,
      20, 363, 364, -1,
      20, 364, 34, -1,
      34, 364, 365, -1,
      34, 365, 35, -1,
      35, 365, 366, -1,
      35, 366, 37, -1,
      37, 366, 367, -1,
      37, 367, 38, -1,
      367, 368, 38, -1,
      38, 368, 55, -1,
      55, 368, 369, -1,
      55, 369, 56, -1,
      56, 369, 370, -1,
      56, 370, 57, -1,
      57, 370, 371, -1,
      57, 371, 58, -1,
      58, 371, 372, -1,
      58, 372, 59, -1,
      59, 372, 373, -1,
      59, 373, 41, -1,
      41, 373, 358, -1,
      41, 358, 40, -1,
      359, 358, 360, -1,
      360, 358, 373, -1,
      373, 372, 360, -1,
      360, 372, 371, -1,
      360, 371, 370, -1,
      370, 369, 360, -1,
      360, 369, 368, -1,
      360, 368, 367, -1,
      366, 362, 367, -1,
      367, 362, 361, -1,
      367, 361, 360, -1,
      366, 365, 362, -1,
      362, 365, 364, -1,
      362, 364, 363, -1,
      0, 36, 1, -1,
      1, 36, 79, -1,
      1, 79, 8, -1,
      8, 79, 3, -1,
      3, 79, 13, -1,
      3, 13, 5, -1,
      5, 13, 6, -1,
      6, 13, 12, -1,
      6, 12, 7, -1,
      7, 12, 4, -1,
      4, 12, 18, -1,
      4, 18, 2, -1,
      0, 2, 36, -1,
      36, 2, 18, -1,
    ]
  }
}

Shape {
  appearance Appearance {
    material Material {
      diffuseColor 1.0000 1.0000 1.0000
      specularColor 0.8784 0.8784 0.8784
      ambientIntensity 0.2
      transparency 0.0000
      shininess 0.5
    }
  }
  geometry IndexedFaceSet {
    ccw TRUE
    solid FALSE
    coord DEF co Coordinate {
      point [
        -0.008642 -0.028386 -0.007874,
        -0.008642 -0.037028 -0.007874,
        0.033609 -0.037028 -0.007874,
        0.048972 -0.032947 -0.007874,
        0.048972 -0.024305 -0.007874,
        0.033609 0.041712 -0.007874,
        0.023046 0.033070 -0.007874,
        0.023046 0.007143 -0.007874,
        -0.006722 0.033070 -0.007874,
        -0.004801 0.007143 -0.007874,
        0.023046 -0.001499 -0.007874,
        0.023046 -0.028386 -0.007874,
        -0.004801 -0.001499 -0.007874,
        0.154600 -0.037028 -0.007874,
        0.075269 -0.037508 -0.007874,
        0.114269 -0.037028 -0.007874,
        0.080342 -0.036982 -0.007874,
        0.087974 -0.034355 -0.007874,
        -0.006722 0.041712 -0.007874,
        0.103392 0.020973 -0.007874,
        0.098777 0.028335 -0.007874,
        0.144037 0.041712 -0.007874,
        0.075166 0.033159 -0.007874,
        0.081059 0.031033 -0.007874,
        0.050384 -0.025086 -0.007874,
        0.086509 0.027387 -0.007874,
        0.091264 0.022137 -0.007874,
        0.096985 0.001502 -0.007874,
        0.096187 -0.007022 -0.007874,
        0.094048 -0.013795 -0.007874,
        0.076527 -0.028522 -0.007874,
        0.069183 -0.029346 -0.007874,
        0.082264 -0.026410 -0.007874,
        0.087097 -0.023153 -0.007874,
        0.090792 -0.019255 -0.007874,
        0.058731 -0.028186 -0.007874,
        0.094510 0.016058 -0.007874,
        0.096609 0.007628 -0.007874,
        0.094307 -0.030311 -0.007874,
        0.100222 -0.024084 -0.007874,
        0.114269 -0.028386 -0.007874,
        0.104417 -0.016597 -0.007874,
        0.144037 -0.028386 -0.007874,
        0.106786 -0.008262 -0.007874,
        0.107548 0.000857 -0.007874,
        0.106415 0.012051 -0.007874,
        0.091668 0.035172 -0.007874,
        0.084189 0.039477 -0.007874,
        0.075411 0.042027 -0.007874,
        0.067502 0.042672 -0.007874,
        0.058076 0.042022 -0.007874,
        0.048972 0.039552 -0.007874,
        0.048972 0.028989 -0.007874,
        0.057842 0.032787 -0.007874,
        0.067412 0.034030 -0.007874,
        0.057366 -0.036393 -0.007874,
        0.065322 -0.037508 -0.007874,
        0.068485 -0.037951 -0.007874,
        0.070638 -0.037988 -0.007874,
        0.154600 0.041712 -0.007874,
        -0.093144 -0.037028 -0.007874,
        -0.083450 -0.015447 -0.007874,
        -0.078935 -0.022490 -0.007874,
        -0.152679 -0.037028 -0.007874,
        -0.164202 -0.037028 -0.007874,
        -0.133474 0.041712 -0.007874,
        -0.122911 0.041712 -0.007874,
        -0.072454 -0.028695 -0.007874,
        -0.064232 -0.033473 -0.007874,
        -0.055159 -0.036178 -0.007874,
        -0.045417 -0.037028 -0.007874,
        -0.024006 -0.037028 -0.007874,
        -0.024006 0.041712 -0.007874,
        -0.046227 0.041712 -0.007874,
        -0.075468 0.031445 -0.007874,
        -0.081036 0.025271 -0.007874,
        -0.084695 0.018500 -0.007874,
        -0.057603 0.040496 -0.007874,
        -0.066815 0.037261 -0.007874,
        -0.075385 0.031518 -0.007874,
        -0.104667 -0.037028 -0.007874,
        -0.112184 -0.014942 -0.007874,
        -0.144712 -0.014942 -0.007874,
        -0.086810 0.010741 -0.007874,
        -0.087382 0.003332 -0.007874,
        -0.086278 -0.007205 -0.007874,
        -0.133474 0.041712 0.031496,
        -0.164202 -0.037028 0.031496,
        -0.152679 -0.037028 0.031496,
        -0.144712 -0.014942 0.031496,
        -0.112184 -0.014942 0.031496,
        -0.104667 -0.037028 0.031496,
        -0.093144 -0.037028 0.031496,
        -0.122911 0.041712 0.031496,
        -0.114839 -0.006300 0.031496,
        -0.141171 -0.006300 0.031496,
        -0.126587 0.026588 0.031496,
        -0.127345 0.029319 0.031496,
        -0.127848 0.032110 0.031496,
        -0.128103 0.032110 0.031496,
        -0.128617 0.029328 0.031496,
        -0.129318 0.026588 0.031496,
        -0.114839 -0.006300 -0.007874,
        -0.141171 -0.006300 -0.007874,
        -0.126587 0.026588 -0.007874,
        -0.127345 0.029319 -0.007874,
        -0.127848 0.032110 -0.007874,
        -0.128103 0.032110 -0.007874,
        -0.128617 0.029328 -0.007874,
        -0.129318 0.026588 -0.007874,
        -0.045417 -0.037028 0.031496,
        -0.024006 -0.037028 0.031496,
        -0.024006 0.041712 0.031496,
        -0.046227 0.041712 0.031496,
        -0.087382 0.003332 0.031496,
        -0.086810 0.010741 0.031496,
        -0.084695 0.018500 0.031496,
        -0.081036 0.025271 0.031496,
        -0.075468 0.031445 0.031496,
        -0.075385 0.031518 0.031496,
        -0.066815 0.037261 0.031496,
        -0.057603 0.040496 0.031496,
        -0.055159 -0.036178 0.031496,
        -0.064232 -0.033473 0.031496,
        -0.072454 -0.028695 0.031496,
        -0.078935 -0.022490 0.031496,
        -0.083450 -0.015447 0.031496,
        -0.086278 -0.007205 0.031496,
        -0.071577 0.022028 0.031496,
        -0.067752 0.026089 0.031496,
        -0.062001 0.029805 0.031496,
        -0.055502 0.032080 0.031496,
        -0.046182 0.033070 0.031496,
        -0.034569 0.033070 0.031496,
        -0.034569 -0.028386 0.031496,
        -0.045747 -0.028386 0.031496,
        -0.054054 -0.027613 0.031496,
        -0.060680 -0.025544 0.031496,
        -0.066050 -0.022356 0.031496,
        -0.070466 -0.017993 0.031496,
        -0.073787 -0.012565 0.031496,
        -0.076097 -0.005163 0.031496,
        -0.076820 0.003107 0.031496,
        -0.076151 0.010944 0.031496,
        -0.074313 0.017172 0.031496,
        -0.046182 0.033070 -0.007874,
        -0.034569 0.033070 -0.007874,
        -0.055502 0.032080 -0.007874,
        -0.062001 0.029805 -0.007874,
        -0.067752 0.026089 -0.007874,
        -0.071577 0.022028 -0.007874,
        -0.074313 0.017172 -0.007874,
        -0.076151 0.010944 -0.007874,
        -0.076820 0.003107 -0.007874,
        -0.076097 -0.005163 -0.007874,
        -0.073787 -0.012565 -0.007874,
        -0.070466 -0.017993 -0.007874,
        -0.066050 -0.022356 -0.007874,
        -0.060680 -0.025544 -0.007874,
        -0.054054 -0.027613 -0.007874,
        -0.045747 -0.028386 -0.007874,
        -0.034569 -0.028386 -0.007874,
        -0.008642 -0.028386 0.031496,
        -0.008642 -0.037028 0.031496,
        0.033609 -0.037028 0.031496,
        0.033609 0.041712 0.031496,
        -0.006722 0.041712 0.031496,
        -0.006722 0.033070 0.031496,
        0.023046 0.033070 0.031496,
        0.023046 0.007143 0.031496,
        -0.004801 0.007143 0.031496,
        -0.004801 -0.001499 0.031496,
        0.023046 -0.001499 0.031496,
        0.023046 -0.028386 0.031496,
        0.048972 -0.024305 0.031496,
        0.048972 -0.032947 0.031496,
        0.057366 -0.036393 0.031496,
        0.070638 -0.037988 0.031496,
        0.068485 -0.037951 0.031496,
        0.080342 -0.036982 0.031496,
        0.087974 -0.034355 0.031496,
        0.094307 -0.030311 0.031496,
        0.100222 -0.024084 0.031496,
        0.104417 -0.016597 0.031496,
        0.106786 -0.008262 0.031496,
        0.107548 0.000857 0.031496,
        0.067502 0.042672 0.031496,
        0.075411 0.042027 0.031496,
        0.084189 0.039477 0.031496,
        0.091668 0.035172 0.031496,
        0.098777 0.028335 0.031496,
        0.103392 0.020973 0.031496,
        0.106415 0.012051 0.031496,
        0.048972 0.039552 0.031496,
        0.058076 0.042022 0.031496,
        0.048972 0.028989 0.031496,
        0.067412 0.034030 0.031496,
        0.057842 0.032787 0.031496,
        0.096985 0.001502 0.031496,
        0.096609 0.007628 0.031496,
        0.094510 0.016058 0.031496,
        0.091264 0.022137 0.031496,
        0.086509 0.027387 0.031496,
        0.081059 0.031033 0.031496,
        0.075166 0.033159 0.031496,
        0.069183 -0.029346 0.031496,
        0.076527 -0.028522 0.031496,
        0.082264 -0.026410 0.031496,
        0.087097 -0.023153 0.031496,
        0.090792 -0.019255 0.031496,
        0.094048 -0.013795 0.031496,
        0.096187 -0.007022 0.031496,
        0.050384 -0.025086 0.031496,
        0.058731 -0.028186 0.031496,
        0.114269 -0.028386 0.031496,
        0.114269 -0.037028 0.031496,
        0.154600 -0.037028 0.031496,
        0.154600 0.041712 0.031496,
        0.144037 0.041712 0.031496,
        0.144037 -0.028386 0.031496,
      ]
    }
    coordIndex [
      86, 87, 65, -1,
      65, 87, 64, -1,
      87, 88, 64, -1,
      64, 88, 63, -1,
      88, 89, 63, -1,
      63, 89, 82, -1,
      89, 90, 82, -1,
      82, 90, 81, -1,
      90, 91, 81, -1,
      81, 91, 80, -1,
      91, 92, 80, -1,
      80, 92, 60, -1,
      92, 93, 60, -1,
      60, 93, 66, -1,
      93, 86, 66, -1,
      66, 86, 65, -1,
      94, 90, 95, -1,
      95, 90, 89, -1,
      96, 93, 94, -1,
      94, 93, 92, -1,
      94, 92, 90, -1,
      90, 92, 91, -1,
      96, 97, 93, -1,
      93, 97, 98, -1,
      93, 98, 86, -1,
      86, 98, 99, -1,
      86, 99, 100, -1,
      100, 101, 86, -1,
      86, 101, 95, -1,
      86, 95, 87, -1,
      87, 95, 89, -1,
      87, 89, 88, -1,
      94, 95, 102, -1,
      102, 95, 103, -1,
      96, 94, 104, -1,
      104, 94, 102, -1,
      96, 104, 105, -1,
      96, 105, 97, -1,
      97, 105, 106, -1,
      97, 106, 98, -1,
      99, 98, 107, -1,
      107, 98, 106, -1,
      99, 107, 108, -1,
      99, 108, 100, -1,
      100, 108, 109, -1,
      100, 109, 101, -1,
      95, 101, 103, -1,
      103, 101, 109, -1,
      110, 111, 70, -1,
      70, 111, 71, -1,
      111, 112, 71, -1,
      71, 112, 72, -1,
      112, 113, 72, -1,
      72, 113, 73, -1,
      114, 84, 83, -1,
      114, 83, 115, -1,
      115, 83, 76, -1,
      115, 76, 116, -1,
      116, 76, 75, -1,
      116, 75, 117, -1,
      117, 75, 74, -1,
      117, 74, 118, -1,
      118, 74, 79, -1,
      118, 79, 119, -1,
      119, 79, 78, -1,
      119, 78, 120, -1,
      120, 78, 77, -1,
      120, 77, 121, -1,
      121, 77, 73, -1,
      121, 73, 113, -1,
      110, 70, 69, -1,
      110, 69, 122, -1,
      122, 69, 68, -1,
      122, 68, 123, -1,
      123, 68, 67, -1,
      123, 67, 124, -1,
      124, 67, 62, -1,
      124, 62, 125, -1,
      125, 62, 61, -1,
      125, 61, 126, -1,
      126, 61, 85, -1,
      126, 85, 127, -1,
      127, 85, 84, -1,
      127, 84, 114, -1,
      116, 117, 128, -1,
      128, 117, 118, -1,
      128, 118, 129, -1,
      129, 118, 119, -1,
      129, 119, 130, -1,
      130, 119, 120, -1,
      130, 120, 131, -1,
      131, 120, 121, -1,
      131, 121, 132, -1,
      132, 121, 113, -1,
      132, 113, 133, -1,
      133, 113, 112, -1,
      133, 112, 134, -1,
      134, 112, 111, -1,
      134, 111, 135, -1,
      135, 111, 110, -1,
      135, 110, 136, -1,
      136, 110, 122, -1,
      136, 122, 137, -1,
      137, 122, 123, -1,
      137, 123, 138, -1,
      138, 123, 124, -1,
      138, 124, 139, -1,
      139, 124, 125, -1,
      139, 125, 140, -1,
      140, 125, 126, -1,
      140, 126, 141, -1,
      141, 126, 127, -1,
      141, 127, 142, -1,
      142, 127, 114, -1,
      142, 114, 143, -1,
      143, 114, 115, -1,
      143, 115, 144, -1,
      144, 115, 116, -1,
      144, 116, 128, -1,
      132, 133, 145, -1,
      145, 133, 146, -1,
      132, 145, 147, -1,
      132, 147, 131, -1,
      131, 147, 148, -1,
      131, 148, 130, -1,
      130, 148, 149, -1,
      130, 149, 129, -1,
      129, 149, 150, -1,
      129, 150, 128, -1,
      128, 150, 151, -1,
      128, 151, 144, -1,
      144, 151, 152, -1,
      144, 152, 143, -1,
      143, 152, 153, -1,
      143, 153, 142, -1,
      142, 153, 154, -1,
      142, 154, 141, -1,
      141, 154, 155, -1,
      141, 155, 140, -1,
      140, 155, 156, -1,
      140, 156, 139, -1,
      139, 156, 157, -1,
      139, 157, 138, -1,
      138, 157, 158, -1,
      138, 158, 137, -1,
      137, 158, 159, -1,
      137, 159, 136, -1,
      136, 159, 160, -1,
      136, 160, 135, -1,
      134, 135, 161, -1,
      161, 135, 160, -1,
      133, 134, 146, -1,
      146, 134, 161, -1,
      162, 163, 0, -1,
      0, 163, 1, -1,
      163, 164, 1, -1,
      1, 164, 2, -1,
      164, 165, 2, -1,
      2, 165, 5, -1,
      165, 166, 5, -1,
      5, 166, 18, -1,
      166, 167, 18, -1,
      18, 167, 8, -1,
      167, 168, 8, -1,
      8, 168, 6, -1,
      168, 169, 6, -1,
      6, 169, 7, -1,
      169, 170, 7, -1,
      7, 170, 9, -1,
      170, 171, 9, -1,
      9, 171, 12, -1,
      171, 172, 12, -1,
      12, 172, 10, -1,
      172, 173, 10, -1,
      10, 173, 11, -1,
      173, 162, 11, -1,
      11, 162, 0, -1,
      164, 163, 162, -1,
      162, 173, 164, -1,
      164, 173, 172, -1,
      164, 172, 165, -1,
      167, 166, 168, -1,
      168, 166, 165, -1,
      168, 165, 169, -1,
      169, 165, 172, -1,
      169, 172, 170, -1,
      170, 172, 171, -1,
      174, 175, 4, -1,
      4, 175, 3, -1,
      3, 175, 176, -1,
      177, 58, 57, -1,
      177, 57, 178, -1,
      178, 57, 56, -1,
      178, 56, 176, -1,
      176, 56, 55, -1,
      176, 55, 3, -1,
      58, 177, 14, -1,
      14, 177, 179, -1,
      14, 179, 16, -1,
      16, 179, 180, -1,
      16, 180, 17, -1,
      17, 180, 181, -1,
      17, 181, 38, -1,
      38, 181, 182, -1,
      38, 182, 39, -1,
      39, 182, 183, -1,
      39, 183, 41, -1,
      41, 183, 184, -1,
      41, 184, 43, -1,
      43, 184, 185, -1,
      43, 185, 44, -1,
      186, 49, 48, -1,
      186, 48, 187, -1,
      187, 48, 47, -1,
      187, 47, 188, -1,
      188, 47, 46, -1,
      188, 46, 189, -1,
      189, 46, 20, -1,
      189, 20, 190, -1,
      190, 20, 19, -1,
      190, 19, 191, -1,
      191, 19, 45, -1,
      191, 45, 192, -1,
      192, 45, 44, -1,
      192, 44, 185, -1,
      193, 51, 50, -1,
      193, 50, 194, -1,
      194, 50, 49, -1,
      194, 49, 186, -1,
      193, 195, 51, -1,
      51, 195, 52, -1,
      196, 54, 53, -1,
      196, 53, 197, -1,
      197, 53, 52, -1,
      197, 52, 195, -1,
      198, 27, 37, -1,
      198, 37, 199, -1,
      199, 37, 36, -1,
      199, 36, 200, -1,
      200, 36, 26, -1,
      200, 26, 201, -1,
      201, 26, 25, -1,
      201, 25, 202, -1,
      202, 25, 23, -1,
      202, 23, 203, -1,
      203, 23, 22, -1,
      203, 22, 204, -1,
      204, 22, 54, -1,
      204, 54, 196, -1,
      205, 31, 30, -1,
      205, 30, 206, -1,
      206, 30, 32, -1,
      206, 32, 207, -1,
      207, 32, 33, -1,
      207, 33, 208, -1,
      208, 33, 34, -1,
      208, 34, 209, -1,
      209, 34, 29, -1,
      209, 29, 210, -1,
      210, 29, 28, -1,
      210, 28, 211, -1,
      211, 28, 27, -1,
      211, 27, 198, -1,
      174, 4, 24, -1,
      174, 24, 212, -1,
      212, 24, 35, -1,
      212, 35, 213, -1,
      213, 35, 31, -1,
      213, 31, 205, -1,
      206, 177, 205, -1,
      205, 177, 178, -1,
      205, 178, 213, -1,
      213, 178, 176, -1,
      213, 176, 212, -1,
      212, 176, 175, -1,
      212, 175, 174, -1,
      195, 193, 197, -1,
      197, 193, 194, -1,
      197, 194, 196, -1,
      196, 194, 186, -1,
      196, 186, 204, -1,
      204, 186, 187, -1,
      204, 187, 203, -1,
      203, 187, 188, -1,
      203, 188, 202, -1,
      202, 188, 189, -1,
      202, 189, 201, -1,
      201, 189, 190, -1,
      201, 190, 200, -1,
      200, 190, 191, -1,
      200, 191, 199, -1,
      199, 191, 192, -1,
      199, 192, 198, -1,
      198, 192, 185, -1,
      198, 185, 211, -1,
      211, 185, 184, -1,
      211, 184, 210, -1,
      210, 184, 183, -1,
      210, 183, 209, -1,
      209, 183, 182, -1,
      209, 182, 208, -1,
      208, 182, 181, -1,
      208, 181, 207, -1,
      207, 181, 180, -1,
      207, 180, 206, -1,
      206, 180, 179, -1,
      206, 179, 177, -1,
      214, 215, 40, -1,
      40, 215, 15, -1,
      215, 216, 15, -1,
      15, 216, 13, -1,
      216, 217, 13, -1,
      13, 217, 59, -1,
      217, 218, 59, -1,
      59, 218, 21, -1,
      218, 219, 21, -1,
      21, 219, 42, -1,
      219, 214, 42, -1,
      42, 214, 40, -1,
      218, 217, 219, -1,
      219, 217, 216, -1,
      219, 216, 214, -1,
      214, 216, 215, -1,
    ]
  }
}

Shape {
  appearance Appearance {
    material Material {
      diffuseColor 0.6667 0.6667 0.6667
      specularColor 0.4667 0.4667 0.4667
      ambientIntensity 0.2
      transparency 0.0000
      shininess 0.5
    }
  }
  geometry IndexedFaceSet {
    ccw TRUE
    solid FALSE
    coord DEF co Coordinate {
      point [
        -0.114839 -0.006300 -0.007874,
        -0.141171 -0.006300 -0.007874,
        -0.126587 0.026588 -0.007874,
        -0.127345 0.029319 -0.007874,
        -0.127848 0.032110 -0.007874,
        -0.128103 0.032110 -0.007874,
        -0.128617 0.029328 -0.007874,
        -0.129318 0.026588 -0.007874,
        -0.046182 0.033070 -0.007874,
        -0.034569 0.033070 -0.007874,
        -0.055502 0.032080 -0.007874,
        -0.062001 0.029805 -0.007874,
        -0.067752 0.026089 -0.007874,
        -0.071577 0.022028 -0.007874,
        -0.074313 0.017172 -0.007874,
        -0.076151 0.010944 -0.007874,
        -0.076820 0.003107 -0.007874,
        -0.076097 -0.005163 -0.007874,
        -0.073787 -0.012565 -0.007874,
        -0.070466 -0.017993 -0.007874,
        -0.066050 -0.022356 -0.007874,
        -0.060680 -0.025544 -0.007874,
        -0.054054 -0.027613 -0.007874,
        -0.045747 -0.028386 -0.007874,
        -0.034569 -0.028386 -0.007874,
      ]
    }
    coordIndex [
      0, 1, 2, -1,
      2, 1, 7, -1,
      2, 7, 3, -1,
      3, 7, 6, -1,
      3, 6, 4, -1,
      4, 6, 5, -1,
      9, 24, 8, -1,
      8, 24, 23, -1,
      8, 23, 22, -1,
      16, 15, 8, -1,
      8, 15, 14, -1,
      8, 14, 10, -1,
      22, 21, 8, -1,
      8, 21, 20, -1,
      8, 20, 19, -1,
      19, 18, 8, -1,
      8, 18, 17, -1,
      8, 17, 16, -1,
      13, 12, 14, -1,
      14, 12, 11, -1,
      14, 11, 10, -1,
    ]
  }
}
