#VRML V2.0 utf8

Shape {
  appearance Appearance {
    material Material {
      diffuseColor 0.2510 0.2510 0.2510
      specularColor 0.1255 0.1255 0.1255
      ambientIntensity 0.2
      transparency 0.0000
      shininess 0.5
    }
  }
  geometry IndexedFaceSet {
    ccw TRUE
    solid FALSE
    coord DEF co Coordinate {
      point [
        -0.024606 0.439664 0.000000,
        -0.018192 0.437007 0.000000,
        -0.018192 0.397302 0.000000,
        0.000000 0.433071 0.000000,
        0.010616 0.434469 0.000000,
        0.010616 0.397302 0.000000,
        -0.344488 0.482283 0.000000,
        -0.344488 0.590551 0.000000,
        -0.292128 0.590551 0.000000,
        -0.049213 -0.482283 0.000000,
        -0.049213 -0.590551 0.000000,
        -0.055161 -0.590551 0.000000,
        -0.590551 -0.590551 0.000000,
        -0.590551 0.316401 0.000000,
        -0.492126 -0.236220 0.000000,
        -0.492126 0.275591 0.000000,
        -0.442913 -0.482283 0.000000,
        -0.442913 -0.590551 0.000000,
        -0.428499 -0.447485 0.000000,
        -0.436320 -0.457677 0.000000,
        -0.346165 -0.469546 0.000000,
        -0.351081 -0.457677 0.000000,
        -0.292128 -0.354331 0.000000,
        -0.441237 -0.469546 0.000000,
        -0.358902 -0.447485 0.000000,
        -0.369094 -0.439664 0.000000,
        -0.374016 -0.354331 0.000000,
        -0.380964 -0.434748 0.000000,
        -0.393701 -0.433071 0.000000,
        -0.406438 -0.434748 0.000000,
        -0.418307 -0.439664 0.000000,
        -0.292128 -0.590551 0.000000,
        -0.344488 -0.590551 0.000000,
        -0.344488 -0.482283 0.000000,
        -0.292128 0.275591 0.000000,
        -0.292128 0.316401 0.000000,
        -0.055161 0.275591 0.000000,
        -0.055161 0.316401 0.000000,
        -0.018192 0.275591 0.000000,
        -0.018192 0.316401 0.000000,
        0.010616 0.275591 0.000000,
        0.010616 0.316401 0.000000,
        0.045425 0.275591 0.000000,
        0.442913 -0.482283 0.000000,
        0.441237 -0.469546 0.000000,
        0.492126 -0.354331 0.000000,
        0.442913 -0.590551 0.000000,
        0.590551 -0.590551 0.000000,
        0.590551 0.316401 0.000000,
        0.492126 0.275591 0.000000,
        0.436320 -0.457677 0.000000,
        0.428499 -0.447485 0.000000,
        0.418307 -0.439664 0.000000,
        0.184113 -0.434748 0.000000,
        0.172244 -0.439664 0.000000,
        0.045425 -0.354331 0.000000,
        0.162052 -0.447485 0.000000,
        0.154231 -0.457677 0.000000,
        0.369094 -0.439664 0.000000,
        0.239470 -0.457677 0.000000,
        0.231649 -0.447485 0.000000,
        0.406438 -0.434748 0.000000,
        0.393701 -0.433071 0.000000,
        0.380964 -0.434748 0.000000,
        0.358902 -0.447485 0.000000,
        0.351081 -0.457677 0.000000,
        0.346165 -0.469546 0.000000,
        0.221457 -0.439664 0.000000,
        0.209587 -0.434748 0.000000,
        0.196850 -0.433071 0.000000,
        0.147638 -0.482283 0.000000,
        0.147638 -0.590551 0.000000,
        0.049213 -0.590551 0.000000,
        0.149315 -0.469546 0.000000,
        0.047536 -0.469546 0.000000,
        0.049213 -0.482283 0.000000,
        0.344488 -0.590551 0.000000,
        0.246063 -0.590551 0.000000,
        0.344488 -0.482283 0.000000,
        0.246063 -0.482283 0.000000,
        0.244386 -0.469546 0.000000,
        0.042619 -0.457677 0.000000,
        0.034798 -0.447485 0.000000,
        0.045425 -0.464450 0.000000,
        0.024606 -0.439664 0.000000,
        0.012737 -0.434748 0.000000,
        0.010616 -0.354331 0.000000,
        0.010616 -0.434469 0.000000,
        -0.000000 -0.433071 0.000000,
        -0.018192 -0.354331 0.000000,
        -0.034798 -0.447485 0.000000,
        -0.042619 -0.457677 0.000000,
        -0.055161 -0.354331 0.000000,
        -0.047536 -0.469546 0.000000,
        -0.012737 -0.434748 0.000000,
        -0.018192 -0.437007 0.000000,
        -0.024606 -0.439664 0.000000,
        -0.209587 -0.434748 0.000000,
        -0.221457 -0.439664 0.000000,
        -0.231649 -0.447485 0.000000,
        -0.239470 -0.457677 0.000000,
        -0.147638 -0.482283 0.000000,
        -0.149315 -0.469546 0.000000,
        -0.154231 -0.457677 0.000000,
        -0.162052 -0.447485 0.000000,
        -0.246063 -0.590551 0.000000,
        -0.246063 -0.482283 0.000000,
        -0.244386 -0.469546 0.000000,
        -0.147638 -0.590551 0.000000,
        -0.172244 -0.439664 0.000000,
        -0.184113 -0.434748 0.000000,
        -0.196850 -0.433071 0.000000,
        -0.428499 0.447485 0.000000,
        -0.590551 0.397302 0.000000,
        -0.436320 0.457677 0.000000,
        -0.441237 0.469546 0.000000,
        -0.590551 0.590551 0.000000,
        -0.442913 0.590551 0.000000,
        -0.442913 0.482283 0.000000,
        -0.418307 0.439664 0.000000,
        -0.406438 0.434748 0.000000,
        -0.393701 0.433071 0.000000,
        -0.380964 0.434748 0.000000,
        -0.292128 0.397302 0.000000,
        -0.369094 0.439664 0.000000,
        -0.358902 0.447485 0.000000,
        -0.351081 0.457677 0.000000,
        -0.346165 0.469546 0.000000,
        0.221457 0.439664 0.000000,
        0.231649 0.447485 0.000000,
        0.590551 0.397302 0.000000,
        0.442913 0.590551 0.000000,
        0.590551 0.590551 0.000000,
        0.442913 0.482283 0.000000,
        0.441237 0.469546 0.000000,
        0.436320 0.457677 0.000000,
        0.209587 0.434748 0.000000,
        0.351081 0.457677 0.000000,
        0.358902 0.447485 0.000000,
        0.047536 0.469546 0.000000,
        0.154231 0.457677 0.000000,
        0.162052 0.447485 0.000000,
        0.406438 0.434748 0.000000,
        0.418307 0.439664 0.000000,
        0.428499 0.447485 0.000000,
        0.196850 0.433071 0.000000,
        0.045425 0.397302 0.000000,
        0.184113 0.434748 0.000000,
        0.369094 0.439664 0.000000,
        0.380964 0.434748 0.000000,
        0.393701 0.433071 0.000000,
        0.049213 0.590551 0.000000,
        0.147638 0.590551 0.000000,
        0.049213 0.482283 0.000000,
        0.147638 0.482283 0.000000,
        0.149315 0.469546 0.000000,
        0.246063 0.482283 0.000000,
        0.246063 0.590551 0.000000,
        0.344488 0.590551 0.000000,
        0.239470 0.457677 0.000000,
        0.244386 0.469546 0.000000,
        0.346165 0.469546 0.000000,
        0.344488 0.482283 0.000000,
        0.012737 0.434748 0.000000,
        0.023722 0.397542 0.000000,
        0.020243 0.397302 0.000000,
        0.024606 0.439664 0.000000,
        0.034798 0.447485 0.000000,
        0.026662 0.397302 0.000000,
        0.172244 0.439664 0.000000,
        0.045425 0.464450 0.000000,
        0.042619 0.457677 0.000000,
        -0.012737 0.434748 0.000000,
        -0.042619 0.457677 0.000000,
        -0.034798 0.447485 0.000000,
        -0.055161 0.397302 0.000000,
        -0.047536 0.469546 0.000000,
        -0.049213 0.482283 0.000000,
        -0.055161 0.590551 0.000000,
        -0.049213 0.590551 0.000000,
        -0.184113 0.434748 0.000000,
        -0.172244 0.439664 0.000000,
        -0.162052 0.447485 0.000000,
        -0.154231 0.457677 0.000000,
        -0.147638 0.590551 0.000000,
        -0.147638 0.482283 0.000000,
        -0.149315 0.469546 0.000000,
        -0.246063 0.590551 0.000000,
        -0.246063 0.482283 0.000000,
        -0.244386 0.469546 0.000000,
        -0.239470 0.457677 0.000000,
        -0.231649 0.447485 0.000000,
        -0.221457 0.439664 0.000000,
        -0.209587 0.434748 0.000000,
        -0.196850 0.433071 0.000000,
        0.014457 0.364053 0.000000,
        0.010616 0.357452 0.000000,
        0.014457 0.359732 0.000000,
        0.018653 0.358009 0.000000,
        0.019009 0.397217 0.000000,
        0.014457 0.395981 0.000000,
        0.014457 0.390700 0.000000,
        0.018891 0.392599 0.000000,
        0.015162 0.363662 0.000000,
        0.023676 0.393220 0.000000,
        0.027553 0.392785 0.000000,
        0.030500 0.391722 0.000000,
        0.033225 0.389899 0.000000,
        0.035602 0.387274 0.000000,
        0.038463 0.376957 0.000000,
        0.038064 0.372694 0.000000,
        0.036994 0.369308 0.000000,
        0.028234 0.361944 0.000000,
        0.024562 0.361533 0.000000,
        0.031103 0.363000 0.000000,
        0.033519 0.364629 0.000000,
        0.035366 0.366578 0.000000,
        0.019336 0.362113 0.000000,
        0.037226 0.384234 0.000000,
        0.038275 0.380020 0.000000,
        0.033957 0.359028 0.000000,
        0.037124 0.361050 0.000000,
        0.045425 0.357452 0.000000,
        0.040081 0.364163 0.000000,
        0.042179 0.367907 0.000000,
        0.041667 0.386692 0.000000,
        0.039359 0.390373 0.000000,
        0.035804 0.393791 0.000000,
        0.032065 0.395944 0.000000,
        0.027676 0.397219 0.000000,
        0.043363 0.372074 0.000000,
        0.043744 0.376634 0.000000,
        0.043178 0.382231 0.000000,
        0.022631 0.357452 0.000000,
        0.024213 0.357230 0.000000,
        0.025289 0.357211 0.000000,
        0.027605 0.357452 0.000000,
        0.045425 0.316401 0.000000,
        0.030141 0.357715 0.000000,
        -0.292128 0.357452 0.000000,
        -0.055161 0.357452 0.000000,
        -0.018192 0.357452 0.000000,
        0.047105 0.362013 0.000000,
        0.047105 0.357692 0.000000,
        0.067270 0.357692 0.000000,
        0.061989 0.362013 0.000000,
        0.061989 0.397062 0.000000,
        0.067270 0.397062 0.000000,
        0.590551 0.357452 0.000000,
        -0.013391 0.397062 0.000000,
        -0.013391 0.392741 0.000000,
        -0.014351 0.362013 0.000000,
        -0.014351 0.357692 0.000000,
        0.006775 0.357692 0.000000,
        0.006775 0.397062 0.000000,
        0.001493 0.375456 0.000000,
        0.001493 0.362013 0.000000,
        -0.012430 0.375456 0.000000,
        -0.012430 0.379777 0.000000,
        0.001493 0.379777 0.000000,
        0.001493 0.392741 0.000000,
        -0.051755 0.368482 0.000000,
        -0.049497 0.364961 0.000000,
        -0.046257 0.361858 0.000000,
        -0.042146 0.359469 0.000000,
        -0.033143 0.397062 0.000000,
        -0.038831 0.396454 0.000000,
        -0.043437 0.394836 0.000000,
        -0.047722 0.391965 0.000000,
        -0.047763 0.391928 0.000000,
        -0.050548 0.388841 0.000000,
        -0.052377 0.385455 0.000000,
        -0.037609 0.358117 0.000000,
        -0.032738 0.357692 0.000000,
        -0.022033 0.357692 0.000000,
        -0.022033 0.397062 0.000000,
        -0.053435 0.381576 0.000000,
        -0.053721 0.377872 0.000000,
        -0.053168 0.372603 0.000000,
        -0.086369 0.357692 0.000000,
        -0.092131 0.357692 0.000000,
        -0.076767 0.397062 0.000000,
        -0.082385 0.368734 0.000000,
        -0.066121 0.368734 0.000000,
        -0.062363 0.357692 0.000000,
        -0.056602 0.357692 0.000000,
        -0.071485 0.397062 0.000000,
        -0.590551 0.357452 0.000000,
        0.590551 -0.590551 0.346457,
        0.590551 0.590551 0.346457,
        0.344488 0.590551 0.070866,
        -0.049213 0.590551 0.070866,
        -0.147638 0.590551 0.070866,
        -0.246063 0.590551 0.070866,
        -0.590551 0.590551 0.346457,
        0.147638 0.590551 0.070866,
        0.049213 0.590551 0.070866,
        -0.344488 0.590551 0.070866,
        0.246063 0.590551 0.070866,
        0.442913 0.590551 0.070866,
        -0.442913 0.590551 0.070866,
        -0.590551 -0.590551 0.346457,
        -0.246063 -0.590551 0.070866,
        -0.049213 -0.590551 0.070866,
        0.246063 -0.590551 0.070866,
        -0.147638 -0.590551 0.070866,
        0.442913 -0.590551 0.070866,
        0.344488 -0.590551 0.070866,
        -0.442913 -0.590551 0.070866,
        -0.344488 -0.590551 0.070866,
        0.049213 -0.590551 0.070866,
        0.147638 -0.590551 0.070866,
        -0.415830 -0.458198 0.346457,
        -0.417552 -0.471277 0.346457,
        -0.422600 -0.483465 0.346457,
        -0.430631 -0.493930 0.346457,
        -0.479441 -0.507009 0.346457,
        -0.491628 -0.501961 0.346457,
        -0.479441 -0.409388 0.346457,
        -0.491628 -0.414436 0.346457,
        -0.502094 -0.422467 0.346457,
        -0.502094 -0.493930 0.346457,
        -0.510124 -0.483465 0.346457,
        -0.515172 -0.471277 0.346457,
        -0.441096 -0.501961 0.346457,
        -0.453283 -0.507009 0.346457,
        -0.466362 -0.508730 0.346457,
        -0.516894 -0.458198 0.346457,
        -0.515172 -0.445120 0.346457,
        -0.510124 -0.432932 0.346457,
        -0.466362 -0.407666 0.346457,
        -0.453283 -0.409388 0.346457,
        -0.441096 -0.414436 0.346457,
        -0.430631 -0.422467 0.346457,
        -0.422600 -0.432932 0.346457,
        -0.417552 -0.445120 0.346457,
      ]
    }
    coordIndex [
      0, 1, 2, -1,
      3, 4, 5, -1,
      6, 7, 8, -1,
      9, 10, 11, -1,
      12, 13, 14, -1,
      14, 13, 15, -1,
      16, 17, 12, -1,
      18, 19, 14, -1,
      20, 21, 22, -1,
      14, 19, 12, -1,
      12, 19, 23, -1,
      12, 23, 16, -1,
      21, 24, 22, -1,
      22, 24, 25, -1,
      22, 25, 26, -1,
      26, 25, 27, -1,
      27, 28, 26, -1,
      26, 28, 29, -1,
      26, 29, 14, -1,
      14, 29, 30, -1,
      14, 30, 18, -1,
      31, 32, 22, -1,
      22, 32, 33, -1,
      22, 33, 20, -1,
      34, 35, 36, -1,
      36, 35, 37, -1,
      36, 37, 38, -1,
      38, 37, 39, -1,
      38, 39, 40, -1,
      40, 39, 41, -1,
      40, 41, 42, -1,
      43, 44, 45, -1,
      46, 43, 47, -1,
      47, 43, 45, -1,
      47, 45, 48, -1,
      48, 45, 49, -1,
      44, 50, 45, -1,
      45, 50, 51, -1,
      45, 51, 52, -1,
      53, 54, 55, -1,
      55, 54, 56, -1,
      55, 56, 57, -1,
      58, 59, 60, -1,
      52, 61, 45, -1,
      45, 61, 62, -1,
      45, 62, 55, -1,
      55, 62, 63, -1,
      55, 63, 58, -1,
      58, 64, 59, -1,
      59, 64, 65, -1,
      59, 65, 66, -1,
      60, 67, 58, -1,
      58, 67, 68, -1,
      58, 68, 55, -1,
      55, 68, 69, -1,
      55, 69, 53, -1,
      70, 71, 72, -1,
      57, 73, 74, -1,
      74, 73, 70, -1,
      74, 70, 75, -1,
      75, 70, 72, -1,
      76, 77, 78, -1,
      78, 77, 79, -1,
      78, 79, 66, -1,
      66, 79, 80, -1,
      66, 80, 59, -1,
      81, 82, 55, -1,
      57, 74, 55, -1,
      55, 74, 83, -1,
      55, 83, 81, -1,
      82, 84, 55, -1,
      55, 84, 85, -1,
      55, 85, 86, -1,
      85, 87, 86, -1,
      86, 87, 88, -1,
      86, 88, 89, -1,
      90, 91, 92, -1,
      92, 91, 93, -1,
      92, 93, 9, -1,
      88, 94, 89, -1,
      89, 94, 95, -1,
      89, 95, 92, -1,
      92, 95, 96, -1,
      92, 96, 90, -1,
      97, 98, 22, -1,
      22, 98, 99, -1,
      22, 99, 100, -1,
      101, 102, 92, -1,
      92, 102, 103, -1,
      92, 103, 104, -1,
      105, 31, 106, -1,
      106, 31, 22, -1,
      106, 22, 107, -1,
      107, 22, 100, -1,
      9, 11, 92, -1,
      92, 11, 108, -1,
      92, 108, 101, -1,
      104, 109, 92, -1,
      92, 109, 110, -1,
      92, 110, 22, -1,
      22, 110, 111, -1,
      22, 111, 97, -1,
      112, 113, 114, -1,
      114, 113, 115, -1,
      116, 117, 113, -1,
      113, 117, 118, -1,
      113, 118, 115, -1,
      112, 119, 113, -1,
      113, 119, 120, -1,
      113, 120, 121, -1,
      121, 122, 123, -1,
      123, 122, 124, -1,
      123, 124, 125, -1,
      125, 126, 123, -1,
      123, 126, 127, -1,
      123, 127, 6, -1,
      128, 129, 130, -1,
      131, 132, 133, -1,
      133, 132, 130, -1,
      133, 130, 134, -1,
      134, 130, 135, -1,
      128, 130, 136, -1,
      129, 137, 138, -1,
      139, 140, 141, -1,
      142, 143, 130, -1,
      130, 143, 144, -1,
      130, 144, 135, -1,
      136, 130, 145, -1,
      145, 130, 146, -1,
      145, 146, 147, -1,
      138, 148, 129, -1,
      129, 148, 149, -1,
      129, 149, 130, -1,
      130, 149, 150, -1,
      130, 150, 142, -1,
      151, 152, 153, -1,
      153, 152, 154, -1,
      153, 154, 139, -1,
      139, 154, 155, -1,
      139, 155, 140, -1,
      156, 157, 158, -1,
      129, 159, 137, -1,
      137, 159, 160, -1,
      137, 160, 161, -1,
      161, 160, 156, -1,
      161, 156, 162, -1,
      162, 156, 158, -1,
      163, 164, 165, -1,
      166, 167, 146, -1,
      164, 163, 168, -1,
      141, 169, 139, -1,
      139, 169, 147, -1,
      139, 147, 170, -1,
      170, 147, 146, -1,
      170, 146, 171, -1,
      171, 146, 167, -1,
      3, 5, 172, -1,
      173, 174, 175, -1,
      173, 175, 176, -1,
      176, 175, 177, -1,
      177, 175, 178, -1,
      177, 178, 179, -1,
      180, 181, 175, -1,
      175, 181, 182, -1,
      175, 182, 183, -1,
      184, 178, 185, -1,
      185, 178, 175, -1,
      185, 175, 186, -1,
      186, 175, 183, -1,
      6, 8, 123, -1,
      123, 8, 187, -1,
      123, 187, 188, -1,
      188, 189, 123, -1,
      123, 189, 190, -1,
      123, 190, 191, -1,
      191, 192, 123, -1,
      123, 192, 193, -1,
      123, 193, 194, -1,
      5, 195, 196, -1,
      196, 195, 197, -1,
      196, 197, 198, -1,
      199, 5, 165, -1,
      165, 5, 4, -1,
      165, 4, 163, -1,
      199, 200, 5, -1,
      5, 200, 201, -1,
      5, 201, 195, -1,
      195, 201, 202, -1,
      195, 202, 203, -1,
      203, 202, 204, -1,
      203, 204, 205, -1,
      205, 206, 203, -1,
      203, 206, 207, -1,
      203, 207, 208, -1,
      209, 210, 203, -1,
      203, 210, 211, -1,
      212, 213, 214, -1,
      214, 213, 215, -1,
      211, 216, 203, -1,
      203, 216, 215, -1,
      203, 215, 217, -1,
      217, 215, 213, -1,
      208, 218, 203, -1,
      203, 218, 219, -1,
      203, 219, 209, -1,
      220, 221, 222, -1,
      222, 221, 223, -1,
      222, 223, 224, -1,
      225, 226, 146, -1,
      146, 226, 227, -1,
      146, 227, 228, -1,
      163, 166, 168, -1,
      168, 166, 146, -1,
      168, 146, 229, -1,
      229, 146, 228, -1,
      224, 230, 222, -1,
      222, 230, 231, -1,
      222, 231, 146, -1,
      146, 231, 232, -1,
      146, 232, 225, -1,
      233, 234, 41, -1,
      41, 234, 235, -1,
      41, 235, 236, -1,
      42, 41, 237, -1,
      237, 41, 236, -1,
      237, 236, 222, -1,
      222, 236, 238, -1,
      222, 238, 220, -1,
      35, 239, 37, -1,
      37, 239, 240, -1,
      37, 240, 39, -1,
      39, 240, 241, -1,
      39, 241, 41, -1,
      41, 241, 196, -1,
      41, 196, 233, -1,
      233, 196, 198, -1,
      146, 242, 222, -1,
      222, 242, 243, -1,
      222, 243, 244, -1,
      245, 242, 246, -1,
      246, 242, 146, -1,
      246, 146, 247, -1,
      247, 146, 130, -1,
      247, 130, 244, -1,
      244, 130, 248, -1,
      244, 248, 222, -1,
      222, 248, 48, -1,
      222, 48, 237, -1,
      237, 48, 49, -1,
      237, 49, 42, -1,
      1, 172, 2, -1,
      2, 172, 5, -1,
      2, 5, 249, -1,
      249, 250, 2, -1,
      2, 250, 251, -1,
      2, 251, 241, -1,
      241, 251, 252, -1,
      241, 252, 196, -1,
      196, 252, 253, -1,
      196, 253, 5, -1,
      5, 253, 254, -1,
      5, 254, 249, -1,
      255, 256, 257, -1,
      257, 256, 251, -1,
      257, 251, 258, -1,
      258, 251, 250, -1,
      258, 250, 259, -1,
      259, 250, 260, -1,
      261, 262, 240, -1,
      240, 262, 263, -1,
      240, 263, 264, -1,
      174, 0, 175, -1,
      175, 0, 2, -1,
      175, 2, 265, -1,
      265, 266, 175, -1,
      175, 266, 267, -1,
      175, 267, 268, -1,
      268, 269, 175, -1,
      175, 269, 270, -1,
      175, 270, 271, -1,
      264, 272, 240, -1,
      240, 272, 273, -1,
      240, 273, 241, -1,
      241, 273, 274, -1,
      241, 274, 2, -1,
      2, 274, 275, -1,
      2, 275, 265, -1,
      271, 276, 175, -1,
      175, 276, 277, -1,
      175, 277, 240, -1,
      240, 277, 278, -1,
      240, 278, 261, -1,
      279, 240, 280, -1,
      280, 240, 239, -1,
      280, 239, 281, -1,
      281, 239, 123, -1,
      281, 123, 175, -1,
      175, 123, 194, -1,
      175, 194, 180, -1,
      282, 283, 279, -1,
      279, 283, 284, -1,
      279, 284, 240, -1,
      240, 284, 285, -1,
      240, 285, 175, -1,
      175, 285, 286, -1,
      175, 286, 281, -1,
      121, 123, 113, -1,
      113, 123, 239, -1,
      113, 239, 287, -1,
      287, 239, 35, -1,
      287, 35, 13, -1,
      13, 35, 34, -1,
      13, 34, 15, -1,
      288, 47, 289, -1,
      289, 47, 48, -1,
      48, 248, 289, -1,
      289, 248, 130, -1,
      289, 130, 132, -1,
      290, 158, 157, -1,
      289, 132, 131, -1,
      291, 179, 178, -1,
      292, 293, 294, -1,
      152, 151, 295, -1,
      295, 151, 296, -1,
      8, 7, 297, -1,
      157, 298, 290, -1,
      290, 298, 289, -1,
      290, 289, 299, -1,
      299, 289, 131, -1,
      298, 295, 289, -1,
      289, 295, 296, -1,
      289, 296, 294, -1,
      294, 296, 291, -1,
      294, 291, 292, -1,
      292, 291, 178, -1,
      292, 178, 184, -1,
      117, 116, 300, -1,
      300, 116, 294, -1,
      300, 294, 297, -1,
      297, 294, 293, -1,
      297, 293, 8, -1,
      8, 293, 187, -1,
      294, 116, 113, -1,
      12, 301, 13, -1,
      13, 301, 294, -1,
      13, 294, 287, -1,
      287, 294, 113, -1,
      31, 105, 302, -1,
      11, 10, 303, -1,
      304, 77, 76, -1,
      305, 108, 11, -1,
      31, 302, 32, -1,
      46, 47, 306, -1,
      306, 47, 288, -1,
      306, 288, 307, -1,
      12, 17, 301, -1,
      301, 17, 308, -1,
      301, 308, 309, -1,
      72, 71, 310, -1,
      310, 71, 311, -1,
      11, 303, 305, -1,
      305, 303, 301, -1,
      305, 301, 302, -1,
      302, 301, 309, -1,
      302, 309, 32, -1,
      76, 307, 304, -1,
      304, 307, 288, -1,
      304, 288, 311, -1,
      311, 288, 301, -1,
      311, 301, 310, -1,
      310, 301, 303, -1,
      312, 313, 288, -1,
      288, 313, 314, -1,
      288, 314, 315, -1,
      316, 317, 301, -1,
      318, 294, 319, -1,
      319, 294, 320, -1,
      317, 321, 301, -1,
      301, 321, 322, -1,
      301, 322, 323, -1,
      315, 324, 288, -1,
      288, 324, 325, -1,
      288, 325, 301, -1,
      301, 325, 326, -1,
      301, 326, 316, -1,
      323, 327, 301, -1,
      301, 327, 328, -1,
      301, 328, 294, -1,
      294, 328, 329, -1,
      294, 329, 320, -1,
      318, 330, 294, -1,
      294, 330, 331, -1,
      294, 331, 289, -1,
      289, 331, 332, -1,
      332, 333, 289, -1,
      289, 333, 334, -1,
      289, 334, 288, -1,
      288, 334, 335, -1,
      288, 335, 312, -1,
    ]
  }
}

Shape {
  appearance Appearance {
    material Material {
      diffuseColor 0.0000 0.0000 0.0000
      specularColor 0.0000 0.0000 0.0000
      ambientIntensity 0.2
      transparency 0.0000
      shininess 0.5
    }
  }
  geometry IndexedFaceSet {
    ccw TRUE
    solid FALSE
    coord DEF co Coordinate {
      point [
        -0.415830 -0.458198 0.346457,
        -0.417552 -0.471277 0.346457,
        -0.422600 -0.483465 0.346457,
        -0.430631 -0.493930 0.346457,
        -0.479441 -0.507009 0.346457,
        -0.491628 -0.501961 0.346457,
        -0.479441 -0.409388 0.346457,
        -0.491628 -0.414436 0.346457,
        -0.502094 -0.422467 0.346457,
        -0.502094 -0.493930 0.346457,
        -0.510124 -0.483465 0.346457,
        -0.515172 -0.471277 0.346457,
        -0.441096 -0.501961 0.346457,
        -0.453283 -0.507009 0.346457,
        -0.466362 -0.508730 0.346457,
        -0.516894 -0.458198 0.346457,
        -0.515172 -0.445120 0.346457,
        -0.510124 -0.432932 0.346457,
        -0.466362 -0.407666 0.346457,
        -0.453283 -0.409388 0.346457,
        -0.441096 -0.414436 0.346457,
        -0.430631 -0.422467 0.346457,
        -0.422600 -0.432932 0.346457,
        -0.417552 -0.445120 0.346457,
        -0.415830 -0.458198 0.346063,
        -0.417552 -0.445120 0.346063,
        -0.422600 -0.432932 0.346063,
        -0.430631 -0.422467 0.346063,
        -0.441096 -0.414436 0.346063,
        -0.453283 -0.409388 0.346063,
        -0.466362 -0.407666 0.346063,
        -0.479441 -0.409388 0.346063,
        -0.491628 -0.414436 0.346063,
        -0.502094 -0.422467 0.346063,
        -0.510124 -0.432932 0.346063,
        -0.515172 -0.445120 0.346063,
        -0.516894 -0.458198 0.346063,
        -0.515172 -0.471277 0.346063,
        -0.510124 -0.483465 0.346063,
        -0.502094 -0.493930 0.346063,
        -0.491628 -0.501961 0.346063,
        -0.479441 -0.507009 0.346063,
        -0.466362 -0.508730 0.346063,
        -0.453283 -0.507009 0.346063,
        -0.441096 -0.501961 0.346063,
        -0.430631 -0.493930 0.346063,
        -0.422600 -0.483465 0.346063,
        -0.417552 -0.471277 0.346063,
        -0.466362 -0.458198 0.346063,
      ]
    }
    coordIndex [
      24, 0, 25, -1,
      25, 0, 23, -1,
      25, 23, 26, -1,
      26, 23, 22, -1,
      26, 22, 27, -1,
      27, 22, 21, -1,
      27, 21, 28, -1,
      28, 21, 20, -1,
      28, 20, 29, -1,
      29, 20, 19, -1,
      29, 19, 30, -1,
      30, 19, 18, -1,
      30, 18, 31, -1,
      31, 18, 6, -1,
      31, 6, 32, -1,
      32, 6, 7, -1,
      32, 7, 33, -1,
      33, 7, 8, -1,
      33, 8, 34, -1,
      34, 8, 17, -1,
      34, 17, 35, -1,
      35, 17, 16, -1,
      35, 16, 36, -1,
      36, 16, 15, -1,
      36, 15, 37, -1,
      37, 15, 11, -1,
      37, 11, 38, -1,
      38, 11, 10, -1,
      38, 10, 39, -1,
      39, 10, 9, -1,
      39, 9, 40, -1,
      40, 9, 5, -1,
      40, 5, 41, -1,
      41, 5, 4, -1,
      41, 4, 42, -1,
      42, 4, 14, -1,
      42, 14, 43, -1,
      43, 14, 13, -1,
      43, 13, 44, -1,
      44, 13, 12, -1,
      44, 12, 45, -1,
      45, 12, 3, -1,
      45, 3, 46, -1,
      46, 3, 2, -1,
      46, 2, 47, -1,
      47, 2, 1, -1,
      47, 1, 24, -1,
      24, 1, 0, -1,
      46, 47, 48, -1,
      48, 47, 24, -1,
      48, 24, 25, -1,
      43, 44, 48, -1,
      48, 44, 45, -1,
      48, 45, 46, -1,
      40, 41, 48, -1,
      48, 41, 42, -1,
      48, 42, 43, -1,
      37, 38, 48, -1,
      48, 38, 39, -1,
      48, 39, 40, -1,
      34, 35, 48, -1,
      48, 35, 36, -1,
      48, 36, 37, -1,
      31, 32, 48, -1,
      48, 32, 33, -1,
      48, 33, 34, -1,
      28, 29, 48, -1,
      48, 29, 30, -1,
      48, 30, 31, -1,
      25, 26, 48, -1,
      48, 26, 27, -1,
      48, 27, 28, -1,
    ]
  }
}

Shape {
  appearance Appearance {
    material Material {
      diffuseColor 1.0000 1.0000 1.0000
      specularColor 0.5020 0.5020 0.5020
      ambientIntensity 0.2
      transparency 0.0000
      shininess 0.5
    }
  }
  geometry IndexedFaceSet {
    ccw TRUE
    solid FALSE
    coord DEF co Coordinate {
      point [
        -0.024606 0.439664 0.000000,
        -0.018192 0.437007 0.000000,
        0.000000 0.433071 0.000000,
        0.010616 0.434469 0.000000,
        -0.344488 0.482283 0.000000,
        -0.344488 0.590551 0.000000,
        -0.049213 -0.482283 0.000000,
        -0.049213 -0.590551 0.000000,
        -0.492126 -0.236220 0.000000,
        -0.492126 0.275591 0.000000,
        -0.442913 -0.482283 0.000000,
        -0.442913 -0.590551 0.000000,
        -0.428499 -0.447485 0.000000,
        -0.436320 -0.457677 0.000000,
        -0.346165 -0.469546 0.000000,
        -0.351081 -0.457677 0.000000,
        -0.292128 -0.354331 0.000000,
        -0.441237 -0.469546 0.000000,
        -0.358902 -0.447485 0.000000,
        -0.369094 -0.439664 0.000000,
        -0.374016 -0.354331 0.000000,
        -0.380964 -0.434748 0.000000,
        -0.393701 -0.433071 0.000000,
        -0.406438 -0.434748 0.000000,
        -0.418307 -0.439664 0.000000,
        -0.344488 -0.590551 0.000000,
        -0.344488 -0.482283 0.000000,
        -0.292128 0.275591 0.000000,
        -0.055161 0.275591 0.000000,
        -0.018192 0.275591 0.000000,
        0.010616 0.275591 0.000000,
        0.045425 0.275591 0.000000,
        0.442913 -0.482283 0.000000,
        0.441237 -0.469546 0.000000,
        0.492126 -0.354331 0.000000,
        0.442913 -0.590551 0.000000,
        0.492126 0.275591 0.000000,
        0.436320 -0.457677 0.000000,
        0.428499 -0.447485 0.000000,
        0.418307 -0.439664 0.000000,
        0.184113 -0.434748 0.000000,
        0.172244 -0.439664 0.000000,
        0.045425 -0.354331 0.000000,
        0.162052 -0.447485 0.000000,
        0.154231 -0.457677 0.000000,
        0.369094 -0.439664 0.000000,
        0.239470 -0.457677 0.000000,
        0.231649 -0.447485 0.000000,
        0.406438 -0.434748 0.000000,
        0.393701 -0.433071 0.000000,
        0.380964 -0.434748 0.000000,
        0.358902 -0.447485 0.000000,
        0.351081 -0.457677 0.000000,
        0.346165 -0.469546 0.000000,
        0.221457 -0.439664 0.000000,
        0.209587 -0.434748 0.000000,
        0.196850 -0.433071 0.000000,
        0.147638 -0.482283 0.000000,
        0.147638 -0.590551 0.000000,
        0.049213 -0.590551 0.000000,
        0.149315 -0.469546 0.000000,
        0.047536 -0.469546 0.000000,
        0.049213 -0.482283 0.000000,
        0.344488 -0.590551 0.000000,
        0.246063 -0.590551 0.000000,
        0.344488 -0.482283 0.000000,
        0.246063 -0.482283 0.000000,
        0.244386 -0.469546 0.000000,
        0.042619 -0.457677 0.000000,
        0.034798 -0.447485 0.000000,
        0.045425 -0.464450 0.000000,
        0.024606 -0.439664 0.000000,
        0.012737 -0.434748 0.000000,
        0.010616 -0.354331 0.000000,
        0.010616 -0.434469 0.000000,
        -0.000000 -0.433071 0.000000,
        -0.018192 -0.354331 0.000000,
        -0.034798 -0.447485 0.000000,
        -0.042619 -0.457677 0.000000,
        -0.055161 -0.354331 0.000000,
        -0.047536 -0.469546 0.000000,
        -0.012737 -0.434748 0.000000,
        -0.018192 -0.437007 0.000000,
        -0.024606 -0.439664 0.000000,
        -0.209587 -0.434748 0.000000,
        -0.221457 -0.439664 0.000000,
        -0.231649 -0.447485 0.000000,
        -0.239470 -0.457677 0.000000,
        -0.147638 -0.482283 0.000000,
        -0.149315 -0.469546 0.000000,
        -0.154231 -0.457677 0.000000,
        -0.162052 -0.447485 0.000000,
        -0.246063 -0.590551 0.000000,
        -0.246063 -0.482283 0.000000,
        -0.244386 -0.469546 0.000000,
        -0.147638 -0.590551 0.000000,
        -0.172244 -0.439664 0.000000,
        -0.184113 -0.434748 0.000000,
        -0.196850 -0.433071 0.000000,
        -0.428499 0.447485 0.000000,
        -0.436320 0.457677 0.000000,
        -0.441237 0.469546 0.000000,
        -0.442913 0.590551 0.000000,
        -0.442913 0.482283 0.000000,
        -0.418307 0.439664 0.000000,
        -0.406438 0.434748 0.000000,
        -0.393701 0.433071 0.000000,
        -0.380964 0.434748 0.000000,
        -0.369094 0.439664 0.000000,
        -0.358902 0.447485 0.000000,
        -0.351081 0.457677 0.000000,
        -0.346165 0.469546 0.000000,
        0.221457 0.439664 0.000000,
        0.231649 0.447485 0.000000,
        0.442913 0.590551 0.000000,
        0.442913 0.482283 0.000000,
        0.441237 0.469546 0.000000,
        0.436320 0.457677 0.000000,
        0.209587 0.434748 0.000000,
        0.351081 0.457677 0.000000,
        0.358902 0.447485 0.000000,
        0.047536 0.469546 0.000000,
        0.154231 0.457677 0.000000,
        0.162052 0.447485 0.000000,
        0.406438 0.434748 0.000000,
        0.418307 0.439664 0.000000,
        0.428499 0.447485 0.000000,
        0.196850 0.433071 0.000000,
        0.184113 0.434748 0.000000,
        0.369094 0.439664 0.000000,
        0.380964 0.434748 0.000000,
        0.393701 0.433071 0.000000,
        0.049213 0.590551 0.000000,
        0.147638 0.590551 0.000000,
        0.049213 0.482283 0.000000,
        0.147638 0.482283 0.000000,
        0.149315 0.469546 0.000000,
        0.246063 0.482283 0.000000,
        0.246063 0.590551 0.000000,
        0.344488 0.590551 0.000000,
        0.239470 0.457677 0.000000,
        0.244386 0.469546 0.000000,
        0.346165 0.469546 0.000000,
        0.344488 0.482283 0.000000,
        0.012737 0.434748 0.000000,
        0.024606 0.439664 0.000000,
        0.034798 0.447485 0.000000,
        0.172244 0.439664 0.000000,
        0.045425 0.464450 0.000000,
        0.042619 0.457677 0.000000,
        -0.012737 0.434748 0.000000,
        -0.042619 0.457677 0.000000,
        -0.034798 0.447485 0.000000,
        -0.047536 0.469546 0.000000,
        -0.049213 0.482283 0.000000,
        -0.049213 0.590551 0.000000,
        -0.184113 0.434748 0.000000,
        -0.172244 0.439664 0.000000,
        -0.162052 0.447485 0.000000,
        -0.154231 0.457677 0.000000,
        -0.147638 0.590551 0.000000,
        -0.147638 0.482283 0.000000,
        -0.149315 0.469546 0.000000,
        -0.246063 0.590551 0.000000,
        -0.246063 0.482283 0.000000,
        -0.244386 0.469546 0.000000,
        -0.239470 0.457677 0.000000,
        -0.231649 0.447485 0.000000,
        -0.221457 0.439664 0.000000,
        -0.209587 0.434748 0.000000,
        -0.196850 0.433071 0.000000,
        0.344488 0.590551 0.070866,
        -0.049213 0.590551 0.070866,
        -0.147638 0.590551 0.070866,
        -0.246063 0.590551 0.070866,
        0.147638 0.590551 0.070866,
        0.049213 0.590551 0.070866,
        -0.344488 0.590551 0.070866,
        0.246063 0.590551 0.070866,
        0.442913 0.590551 0.070866,
        -0.442913 0.590551 0.070866,
        -0.246063 -0.590551 0.070866,
        -0.049213 -0.590551 0.070866,
        0.246063 -0.590551 0.070866,
        -0.147638 -0.590551 0.070866,
        0.442913 -0.590551 0.070866,
        0.344488 -0.590551 0.070866,
        -0.442913 -0.590551 0.070866,
        -0.344488 -0.590551 0.070866,
        0.049213 -0.590551 0.070866,
        0.147638 -0.590551 0.070866,
        0.492126 -0.354331 -0.007874,
        0.492126 0.275591 -0.007874,
        -0.492126 0.275591 -0.007874,
        -0.492126 -0.236220 -0.007874,
        -0.374016 -0.354331 -0.007874,
        -0.049213 -0.594488 0.070866,
        0.049213 -0.594488 0.070866,
        0.049213 -0.482283 -0.007874,
        0.047536 -0.469546 -0.007874,
        0.012737 -0.434748 -0.007874,
        0.024606 -0.439664 -0.007874,
        0.034798 -0.447485 -0.007874,
        0.042619 -0.457677 -0.007874,
        -0.012737 -0.434748 -0.007874,
        -0.000000 -0.433071 -0.007874,
        -0.024606 -0.439664 -0.007874,
        -0.034798 -0.447485 -0.007874,
        -0.042619 -0.457677 -0.007874,
        -0.047536 -0.469546 -0.007874,
        -0.049213 -0.482283 -0.007874,
        -0.049213 -0.594488 -0.007874,
        0.049213 -0.594488 -0.007874,
        -0.246063 -0.594488 0.070866,
        -0.147638 -0.594488 0.070866,
        -0.147638 -0.482283 -0.007874,
        -0.149315 -0.469546 -0.007874,
        -0.154231 -0.457677 -0.007874,
        -0.162052 -0.447485 -0.007874,
        -0.172244 -0.439664 -0.007874,
        -0.184113 -0.434748 -0.007874,
        -0.196850 -0.433071 -0.007874,
        -0.209587 -0.434748 -0.007874,
        -0.221457 -0.439664 -0.007874,
        -0.231649 -0.447485 -0.007874,
        -0.239470 -0.457677 -0.007874,
        -0.244386 -0.469546 -0.007874,
        -0.246063 -0.482283 -0.007874,
        -0.246063 -0.594488 -0.007874,
        -0.147638 -0.594488 -0.007874,
        -0.442913 -0.594488 0.070866,
        -0.344488 -0.594488 0.070866,
        -0.344488 -0.482283 -0.007874,
        -0.346165 -0.469546 -0.007874,
        -0.351081 -0.457677 -0.007874,
        -0.358902 -0.447485 -0.007874,
        -0.369094 -0.439664 -0.007874,
        -0.380964 -0.434748 -0.007874,
        -0.393701 -0.433071 -0.007874,
        -0.406438 -0.434748 -0.007874,
        -0.418307 -0.439664 -0.007874,
        -0.428499 -0.447485 -0.007874,
        -0.436320 -0.457677 -0.007874,
        -0.441237 -0.469546 -0.007874,
        -0.442913 -0.482283 -0.007874,
        -0.442913 -0.594488 -0.007874,
        -0.344488 -0.594488 -0.007874,
        0.344488 -0.594488 0.070866,
        0.442913 -0.594488 0.070866,
        0.442913 -0.482283 -0.007874,
        0.441237 -0.469546 -0.007874,
        0.436320 -0.457677 -0.007874,
        0.428499 -0.447485 -0.007874,
        0.418307 -0.439664 -0.007874,
        0.406438 -0.434748 -0.007874,
        0.393701 -0.433071 -0.007874,
        0.380964 -0.434748 -0.007874,
        0.369094 -0.439664 -0.007874,
        0.358902 -0.447485 -0.007874,
        0.351081 -0.457677 -0.007874,
        0.346165 -0.469546 -0.007874,
        0.344488 -0.482283 -0.007874,
        0.344488 -0.594488 -0.007874,
        0.442913 -0.594488 -0.007874,
        0.147638 -0.594488 0.070866,
        0.246063 -0.594488 0.070866,
        0.246063 -0.482283 -0.007874,
        0.244386 -0.469546 -0.007874,
        0.239470 -0.457677 -0.007874,
        0.231649 -0.447485 -0.007874,
        0.221457 -0.439664 -0.007874,
        0.209587 -0.434748 -0.007874,
        0.196850 -0.433071 -0.007874,
        0.184113 -0.434748 -0.007874,
        0.172244 -0.439664 -0.007874,
        0.162052 -0.447485 -0.007874,
        0.154231 -0.457677 -0.007874,
        0.149315 -0.469546 -0.007874,
        0.147638 -0.482283 -0.007874,
        0.147638 -0.594488 -0.007874,
        0.246063 -0.594488 -0.007874,
        0.049213 0.594488 0.070866,
        -0.049213 0.594488 0.070866,
        -0.049213 0.594488 -0.007874,
        -0.049213 0.482283 -0.007874,
        -0.047536 0.469546 -0.007874,
        -0.042619 0.457677 -0.007874,
        -0.034798 0.447485 -0.007874,
        -0.024606 0.439664 -0.007874,
        -0.012737 0.434748 -0.007874,
        0.000000 0.433071 -0.007874,
        0.012737 0.434748 -0.007874,
        0.024606 0.439664 -0.007874,
        0.034798 0.447485 -0.007874,
        0.042619 0.457677 -0.007874,
        0.047536 0.469546 -0.007874,
        0.049213 0.482283 -0.007874,
        0.049213 0.594488 -0.007874,
        -0.147638 0.594488 0.070866,
        -0.246063 0.594488 0.070866,
        -0.246063 0.594488 -0.007874,
        -0.246063 0.482283 -0.007874,
        -0.244386 0.469546 -0.007874,
        -0.239470 0.457677 -0.007874,
        -0.231649 0.447485 -0.007874,
        -0.221457 0.439664 -0.007874,
        -0.209587 0.434748 -0.007874,
        -0.196850 0.433071 -0.007874,
        -0.184113 0.434748 -0.007874,
        -0.172244 0.439664 -0.007874,
        -0.162052 0.447485 -0.007874,
        -0.154231 0.457677 -0.007874,
        -0.149315 0.469546 -0.007874,
        -0.147638 0.482283 -0.007874,
        -0.147638 0.594488 -0.007874,
        0.246063 0.594488 0.070866,
        0.147638 0.594488 0.070866,
        0.147638 0.482283 -0.007874,
        0.149315 0.469546 -0.007874,
        0.154231 0.457677 -0.007874,
        0.162052 0.447485 -0.007874,
        0.172244 0.439664 -0.007874,
        0.184113 0.434748 -0.007874,
        0.196850 0.433071 -0.007874,
        0.209587 0.434748 -0.007874,
        0.221457 0.439664 -0.007874,
        0.231649 0.447485 -0.007874,
        0.239470 0.457677 -0.007874,
        0.244386 0.469546 -0.007874,
        0.246063 0.482283 -0.007874,
        0.246063 0.594488 -0.007874,
        0.147638 0.594488 -0.007874,
        0.442913 0.594488 0.070866,
        0.344488 0.594488 0.070866,
        0.344488 0.482283 -0.007874,
        0.346165 0.469546 -0.007874,
        0.351081 0.457677 -0.007874,
        0.358902 0.447485 -0.007874,
        0.369094 0.439664 -0.007874,
        0.380964 0.434748 -0.007874,
        0.393701 0.433071 -0.007874,
        0.406438 0.434748 -0.007874,
        0.418307 0.439664 -0.007874,
        0.428499 0.447485 -0.007874,
        0.436320 0.457677 -0.007874,
        0.441237 0.469546 -0.007874,
        0.442913 0.482283 -0.007874,
        0.442913 0.594488 -0.007874,
        0.344488 0.594488 -0.007874,
        -0.344488 0.594488 0.070866,
        -0.442913 0.594488 0.070866,
        -0.442913 0.482283 -0.007874,
        -0.441237 0.469546 -0.007874,
        -0.436320 0.457677 -0.007874,
        -0.428499 0.447485 -0.007874,
        -0.418307 0.439664 -0.007874,
        -0.406438 0.434748 -0.007874,
        -0.393701 0.433071 -0.007874,
        -0.380964 0.434748 -0.007874,
        -0.369094 0.439664 -0.007874,
        -0.358902 0.447485 -0.007874,
        -0.351081 0.457677 -0.007874,
        -0.346165 0.469546 -0.007874,
        -0.344488 0.482283 -0.007874,
        -0.344488 0.594488 -0.007874,
        -0.442913 0.594488 -0.007874,
      ]
    }
    coordIndex [
      191, 192, 34, -1,
      34, 192, 36, -1,
      193, 9, 27, -1,
      31, 36, 192, -1,
      27, 28, 193, -1,
      193, 28, 29, -1,
      193, 29, 192, -1,
      192, 29, 30, -1,
      192, 30, 31, -1,
      193, 194, 9, -1,
      9, 194, 8, -1,
      194, 195, 8, -1,
      8, 195, 20, -1,
      191, 34, 42, -1,
      76, 79, 195, -1,
      195, 79, 16, -1,
      195, 16, 20, -1,
      191, 42, 195, -1,
      195, 42, 73, -1,
      195, 73, 76, -1,
      194, 193, 195, -1,
      195, 193, 192, -1,
      195, 192, 191, -1,
      182, 196, 189, -1,
      189, 196, 197, -1,
      62, 198, 199, -1,
      68, 70, 199, -1,
      199, 70, 61, -1,
      199, 61, 62, -1,
      200, 71, 201, -1,
      201, 71, 69, -1,
      201, 69, 202, -1,
      202, 69, 68, -1,
      202, 68, 203, -1,
      203, 68, 199, -1,
      204, 75, 205, -1,
      205, 75, 74, -1,
      205, 74, 200, -1,
      200, 74, 72, -1,
      200, 72, 71, -1,
      83, 82, 204, -1,
      204, 82, 81, -1,
      204, 81, 75, -1,
      204, 206, 83, -1,
      83, 206, 207, -1,
      83, 207, 77, -1,
      77, 207, 208, -1,
      77, 208, 78, -1,
      78, 208, 209, -1,
      78, 209, 80, -1,
      80, 209, 210, -1,
      80, 210, 6, -1,
      6, 210, 7, -1,
      7, 210, 211, -1,
      7, 211, 182, -1,
      182, 211, 196, -1,
      189, 197, 59, -1,
      59, 197, 212, -1,
      59, 212, 62, -1,
      62, 212, 198, -1,
      212, 197, 211, -1,
      211, 197, 196, -1,
      212, 211, 198, -1,
      198, 211, 210, -1,
      198, 210, 199, -1,
      204, 210, 206, -1,
      206, 210, 209, -1,
      206, 209, 207, -1,
      207, 209, 208, -1,
      204, 205, 210, -1,
      210, 205, 200, -1,
      210, 200, 201, -1,
      201, 202, 210, -1,
      210, 202, 203, -1,
      210, 203, 199, -1,
      181, 213, 184, -1,
      184, 213, 214, -1,
      88, 215, 216, -1,
      88, 216, 89, -1,
      89, 216, 217, -1,
      89, 217, 90, -1,
      90, 217, 218, -1,
      90, 218, 91, -1,
      91, 218, 219, -1,
      91, 219, 96, -1,
      96, 219, 220, -1,
      96, 220, 97, -1,
      97, 220, 221, -1,
      97, 221, 98, -1,
      98, 221, 222, -1,
      98, 222, 84, -1,
      84, 222, 223, -1,
      84, 223, 85, -1,
      85, 223, 224, -1,
      85, 224, 86, -1,
      86, 224, 225, -1,
      86, 225, 87, -1,
      87, 225, 226, -1,
      87, 226, 94, -1,
      94, 226, 227, -1,
      94, 227, 93, -1,
      93, 227, 92, -1,
      92, 227, 228, -1,
      92, 228, 181, -1,
      181, 228, 213, -1,
      184, 214, 95, -1,
      95, 214, 229, -1,
      95, 229, 88, -1,
      88, 229, 215, -1,
      229, 214, 228, -1,
      228, 214, 213, -1,
      229, 228, 215, -1,
      215, 228, 227, -1,
      227, 226, 215, -1,
      215, 226, 225, -1,
      215, 225, 224, -1,
      215, 221, 220, -1,
      224, 223, 215, -1,
      215, 223, 222, -1,
      215, 222, 221, -1,
      220, 219, 215, -1,
      215, 219, 218, -1,
      215, 218, 216, -1,
      216, 218, 217, -1,
      187, 230, 188, -1,
      188, 230, 231, -1,
      26, 232, 233, -1,
      26, 233, 14, -1,
      14, 233, 234, -1,
      14, 234, 15, -1,
      15, 234, 235, -1,
      15, 235, 18, -1,
      18, 235, 236, -1,
      18, 236, 19, -1,
      19, 236, 237, -1,
      19, 237, 21, -1,
      21, 237, 238, -1,
      21, 238, 22, -1,
      22, 238, 239, -1,
      22, 239, 23, -1,
      23, 239, 240, -1,
      23, 240, 24, -1,
      24, 240, 241, -1,
      24, 241, 12, -1,
      12, 241, 242, -1,
      12, 242, 13, -1,
      13, 242, 243, -1,
      13, 243, 17, -1,
      17, 243, 244, -1,
      17, 244, 10, -1,
      10, 244, 11, -1,
      11, 244, 245, -1,
      11, 245, 187, -1,
      187, 245, 230, -1,
      188, 231, 25, -1,
      25, 231, 246, -1,
      25, 246, 26, -1,
      26, 246, 232, -1,
      246, 231, 245, -1,
      245, 231, 230, -1,
      246, 245, 232, -1,
      232, 245, 244, -1,
      232, 244, 243, -1,
      243, 242, 232, -1,
      232, 242, 241, -1,
      232, 241, 240, -1,
      240, 239, 232, -1,
      232, 239, 238, -1,
      232, 238, 237, -1,
      237, 236, 232, -1,
      232, 236, 235, -1,
      232, 235, 233, -1,
      233, 235, 234, -1,
      247, 248, 186, -1,
      186, 248, 185, -1,
      32, 249, 250, -1,
      32, 250, 33, -1,
      33, 250, 251, -1,
      33, 251, 37, -1,
      37, 251, 252, -1,
      37, 252, 38, -1,
      38, 252, 253, -1,
      38, 253, 39, -1,
      39, 253, 254, -1,
      39, 254, 48, -1,
      48, 254, 255, -1,
      48, 255, 49, -1,
      49, 255, 256, -1,
      49, 256, 50, -1,
      50, 256, 257, -1,
      50, 257, 45, -1,
      45, 257, 258, -1,
      45, 258, 51, -1,
      51, 258, 259, -1,
      51, 259, 52, -1,
      52, 259, 260, -1,
      52, 260, 53, -1,
      53, 260, 261, -1,
      53, 261, 65, -1,
      65, 261, 63, -1,
      63, 261, 262, -1,
      63, 262, 186, -1,
      186, 262, 247, -1,
      185, 248, 35, -1,
      35, 248, 263, -1,
      35, 263, 32, -1,
      32, 263, 249, -1,
      263, 248, 262, -1,
      262, 248, 247, -1,
      263, 262, 249, -1,
      249, 262, 261, -1,
      249, 261, 250, -1,
      250, 261, 251, -1,
      254, 261, 255, -1,
      255, 261, 260, -1,
      254, 253, 261, -1,
      261, 253, 252, -1,
      261, 252, 251, -1,
      257, 256, 258, -1,
      258, 256, 255, -1,
      258, 255, 259, -1,
      259, 255, 260, -1,
      264, 265, 190, -1,
      190, 265, 183, -1,
      66, 266, 267, -1,
      66, 267, 67, -1,
      67, 267, 268, -1,
      67, 268, 46, -1,
      46, 268, 269, -1,
      46, 269, 47, -1,
      47, 269, 270, -1,
      47, 270, 54, -1,
      54, 270, 271, -1,
      54, 271, 55, -1,
      55, 271, 272, -1,
      55, 272, 56, -1,
      56, 272, 273, -1,
      56, 273, 40, -1,
      40, 273, 274, -1,
      40, 274, 41, -1,
      41, 274, 275, -1,
      41, 275, 43, -1,
      43, 275, 276, -1,
      43, 276, 44, -1,
      44, 276, 277, -1,
      44, 277, 60, -1,
      60, 277, 278, -1,
      60, 278, 57, -1,
      57, 278, 58, -1,
      58, 278, 279, -1,
      58, 279, 190, -1,
      190, 279, 264, -1,
      183, 265, 64, -1,
      64, 265, 280, -1,
      64, 280, 66, -1,
      66, 280, 266, -1,
      280, 265, 279, -1,
      279, 265, 264, -1,
      280, 279, 266, -1,
      266, 279, 278, -1,
      272, 271, 270, -1,
      278, 277, 266, -1,
      266, 277, 276, -1,
      266, 276, 275, -1,
      268, 267, 273, -1,
      273, 267, 266, -1,
      273, 266, 274, -1,
      274, 266, 275, -1,
      272, 270, 273, -1,
      273, 270, 269, -1,
      273, 269, 268, -1,
      281, 282, 176, -1,
      176, 282, 172, -1,
      172, 282, 155, -1,
      155, 282, 283, -1,
      155, 283, 154, -1,
      154, 283, 284, -1,
      154, 284, 285, -1,
      154, 285, 153, -1,
      153, 285, 286, -1,
      153, 286, 151, -1,
      151, 286, 287, -1,
      151, 287, 152, -1,
      152, 287, 288, -1,
      152, 288, 0, -1,
      0, 288, 1, -1,
      1, 288, 289, -1,
      1, 289, 150, -1,
      150, 289, 290, -1,
      150, 290, 2, -1,
      2, 290, 3, -1,
      3, 290, 291, -1,
      3, 291, 144, -1,
      144, 291, 292, -1,
      144, 292, 145, -1,
      145, 292, 293, -1,
      145, 293, 146, -1,
      146, 293, 294, -1,
      146, 294, 149, -1,
      149, 294, 148, -1,
      148, 294, 295, -1,
      148, 295, 121, -1,
      121, 295, 296, -1,
      121, 296, 134, -1,
      134, 296, 132, -1,
      132, 296, 297, -1,
      132, 297, 176, -1,
      176, 297, 281, -1,
      283, 282, 297, -1,
      297, 282, 281, -1,
      291, 290, 296, -1,
      296, 290, 289, -1,
      296, 295, 294, -1,
      283, 297, 284, -1,
      284, 297, 296, -1,
      284, 296, 285, -1,
      285, 296, 286, -1,
      294, 293, 296, -1,
      296, 293, 292, -1,
      296, 292, 291, -1,
      289, 288, 296, -1,
      296, 288, 287, -1,
      296, 287, 286, -1,
      298, 299, 173, -1,
      173, 299, 174, -1,
      174, 299, 163, -1,
      163, 299, 300, -1,
      163, 300, 164, -1,
      164, 300, 301, -1,
      164, 301, 302, -1,
      164, 302, 165, -1,
      165, 302, 303, -1,
      165, 303, 166, -1,
      166, 303, 304, -1,
      166, 304, 167, -1,
      167, 304, 305, -1,
      167, 305, 168, -1,
      168, 305, 306, -1,
      168, 306, 169, -1,
      169, 306, 307, -1,
      169, 307, 170, -1,
      170, 307, 308, -1,
      170, 308, 156, -1,
      156, 308, 309, -1,
      156, 309, 157, -1,
      157, 309, 310, -1,
      157, 310, 158, -1,
      158, 310, 311, -1,
      158, 311, 159, -1,
      159, 311, 312, -1,
      159, 312, 162, -1,
      162, 312, 313, -1,
      162, 313, 161, -1,
      161, 313, 160, -1,
      160, 313, 314, -1,
      160, 314, 173, -1,
      173, 314, 298, -1,
      300, 299, 314, -1,
      314, 299, 298, -1,
      301, 300, 314, -1,
      314, 313, 301, -1,
      301, 313, 312, -1,
      301, 312, 311, -1,
      311, 310, 301, -1,
      301, 310, 309, -1,
      301, 309, 308, -1,
      303, 306, 304, -1,
      304, 306, 305, -1,
      308, 307, 301, -1,
      301, 307, 306, -1,
      301, 306, 302, -1,
      302, 306, 303, -1,
      178, 315, 175, -1,
      175, 315, 316, -1,
      135, 317, 318, -1,
      135, 318, 136, -1,
      136, 318, 319, -1,
      136, 319, 122, -1,
      122, 319, 320, -1,
      122, 320, 123, -1,
      123, 320, 321, -1,
      123, 321, 147, -1,
      147, 321, 322, -1,
      147, 322, 128, -1,
      128, 322, 323, -1,
      128, 323, 127, -1,
      127, 323, 324, -1,
      127, 324, 118, -1,
      118, 324, 325, -1,
      118, 325, 112, -1,
      112, 325, 326, -1,
      112, 326, 113, -1,
      113, 326, 327, -1,
      113, 327, 140, -1,
      140, 327, 328, -1,
      140, 328, 141, -1,
      141, 328, 329, -1,
      141, 329, 137, -1,
      137, 329, 138, -1,
      138, 329, 330, -1,
      138, 330, 178, -1,
      178, 330, 315, -1,
      175, 316, 133, -1,
      133, 316, 331, -1,
      133, 331, 135, -1,
      135, 331, 317, -1,
      331, 316, 330, -1,
      330, 316, 315, -1,
      317, 331, 330, -1,
      330, 329, 317, -1,
      317, 329, 328, -1,
      317, 328, 327, -1,
      324, 323, 317, -1,
      317, 323, 322, -1,
      317, 322, 321, -1,
      321, 320, 317, -1,
      317, 320, 319, -1,
      317, 319, 318, -1,
      327, 326, 317, -1,
      317, 326, 325, -1,
      317, 325, 324, -1,
      179, 332, 171, -1,
      171, 332, 333, -1,
      143, 334, 335, -1,
      143, 335, 142, -1,
      142, 335, 336, -1,
      142, 336, 119, -1,
      119, 336, 337, -1,
      119, 337, 120, -1,
      120, 337, 338, -1,
      120, 338, 129, -1,
      129, 338, 339, -1,
      129, 339, 130, -1,
      130, 339, 340, -1,
      130, 340, 131, -1,
      131, 340, 341, -1,
      131, 341, 124, -1,
      124, 341, 342, -1,
      124, 342, 125, -1,
      125, 342, 343, -1,
      125, 343, 126, -1,
      126, 343, 344, -1,
      126, 344, 117, -1,
      117, 344, 345, -1,
      117, 345, 116, -1,
      116, 345, 346, -1,
      116, 346, 115, -1,
      115, 346, 114, -1,
      114, 346, 347, -1,
      114, 347, 179, -1,
      179, 347, 332, -1,
      171, 333, 139, -1,
      139, 333, 348, -1,
      139, 348, 143, -1,
      143, 348, 334, -1,
      348, 333, 347, -1,
      347, 333, 332, -1,
      348, 347, 334, -1,
      334, 347, 346, -1,
      334, 346, 345, -1,
      345, 344, 334, -1,
      334, 344, 343, -1,
      334, 343, 342, -1,
      342, 341, 334, -1,
      334, 341, 340, -1,
      334, 340, 339, -1,
      339, 338, 334, -1,
      334, 338, 337, -1,
      334, 337, 335, -1,
      335, 337, 336, -1,
      349, 350, 177, -1,
      177, 350, 180, -1,
      103, 351, 352, -1,
      103, 352, 101, -1,
      101, 352, 353, -1,
      101, 353, 100, -1,
      100, 353, 354, -1,
      100, 354, 99, -1,
      99, 354, 355, -1,
      99, 355, 104, -1,
      104, 355, 356, -1,
      104, 356, 105, -1,
      105, 356, 357, -1,
      105, 357, 106, -1,
      106, 357, 358, -1,
      106, 358, 107, -1,
      107, 358, 359, -1,
      107, 359, 108, -1,
      108, 359, 360, -1,
      108, 360, 109, -1,
      109, 360, 361, -1,
      109, 361, 110, -1,
      110, 361, 362, -1,
      110, 362, 111, -1,
      111, 362, 363, -1,
      111, 363, 4, -1,
      4, 363, 5, -1,
      5, 363, 364, -1,
      5, 364, 177, -1,
      177, 364, 349, -1,
      180, 350, 102, -1,
      102, 350, 365, -1,
      102, 365, 103, -1,
      103, 365, 351, -1,
      365, 350, 364, -1,
      364, 350, 349, -1,
      356, 355, 363, -1,
      363, 355, 354, -1,
      363, 354, 353, -1,
      365, 364, 351, -1,
      351, 364, 363, -1,
      351, 363, 352, -1,
      352, 363, 353, -1,
      356, 363, 357, -1,
      357, 363, 362, -1,
      357, 362, 361, -1,
      361, 360, 357, -1,
      357, 360, 359, -1,
      357, 359, 358, -1,
    ]
  }
}

Shape {
  appearance Appearance {
    material Material {
      diffuseColor 0.0000 0.0000 0.0000
      specularColor 0.0000 0.0000 0.0000
      ambientIntensity 0.2
      transparency 0.0000
      shininess 0.5
    }
  }
  geometry IndexedFaceSet {
    ccw TRUE
    solid FALSE
    coord DEF co Coordinate {
      point [
        0.023722 0.397542 0.000000,
        0.020243 0.397302 0.000000,
        0.026662 0.397302 0.000000,
        0.014457 0.364053 0.000000,
        0.014457 0.359732 0.000000,
        0.018653 0.358009 0.000000,
        0.019009 0.397217 0.000000,
        0.014457 0.395981 0.000000,
        0.014457 0.390700 0.000000,
        0.018891 0.392599 0.000000,
        0.015162 0.363662 0.000000,
        0.023676 0.393220 0.000000,
        0.027553 0.392785 0.000000,
        0.030500 0.391722 0.000000,
        0.033225 0.389899 0.000000,
        0.035602 0.387274 0.000000,
        0.038463 0.376957 0.000000,
        0.038064 0.372694 0.000000,
        0.036994 0.369308 0.000000,
        0.028234 0.361944 0.000000,
        0.024562 0.361533 0.000000,
        0.031103 0.363000 0.000000,
        0.033519 0.364629 0.000000,
        0.035366 0.366578 0.000000,
        0.019336 0.362113 0.000000,
        0.037226 0.384234 0.000000,
        0.038275 0.380020 0.000000,
        0.033957 0.359028 0.000000,
        0.037124 0.361050 0.000000,
        0.040081 0.364163 0.000000,
        0.042179 0.367907 0.000000,
        0.041667 0.386692 0.000000,
        0.039359 0.390373 0.000000,
        0.035804 0.393791 0.000000,
        0.032065 0.395944 0.000000,
        0.027676 0.397219 0.000000,
        0.043363 0.372074 0.000000,
        0.043744 0.376634 0.000000,
        0.043178 0.382231 0.000000,
        0.022631 0.357452 0.000000,
        0.024213 0.357230 0.000000,
        0.025289 0.357211 0.000000,
        0.027605 0.357452 0.000000,
        0.030141 0.357715 0.000000,
        0.047105 0.362013 0.000000,
        0.047105 0.357692 0.000000,
        0.067270 0.357692 0.000000,
        0.061989 0.362013 0.000000,
        0.061989 0.397062 0.000000,
        0.067270 0.397062 0.000000,
        -0.013391 0.397062 0.000000,
        -0.013391 0.392741 0.000000,
        -0.014351 0.362013 0.000000,
        -0.014351 0.357692 0.000000,
        0.006775 0.357692 0.000000,
        0.006775 0.397062 0.000000,
        0.001493 0.375456 0.000000,
        0.001493 0.362013 0.000000,
        -0.012430 0.375456 0.000000,
        -0.012430 0.379777 0.000000,
        0.001493 0.379777 0.000000,
        0.001493 0.392741 0.000000,
        -0.051755 0.368482 0.000000,
        -0.049497 0.364961 0.000000,
        -0.046257 0.361858 0.000000,
        -0.042146 0.359469 0.000000,
        -0.033143 0.397062 0.000000,
        -0.038831 0.396454 0.000000,
        -0.043437 0.394836 0.000000,
        -0.047722 0.391965 0.000000,
        -0.047763 0.391928 0.000000,
        -0.050548 0.388841 0.000000,
        -0.052377 0.385455 0.000000,
        -0.037609 0.358117 0.000000,
        -0.032738 0.357692 0.000000,
        -0.022033 0.357692 0.000000,
        -0.022033 0.397062 0.000000,
        -0.053435 0.381576 0.000000,
        -0.053721 0.377872 0.000000,
        -0.053168 0.372603 0.000000,
        -0.086369 0.357692 0.000000,
        -0.092131 0.357692 0.000000,
        -0.076767 0.397062 0.000000,
        -0.082385 0.368734 0.000000,
        -0.066121 0.368734 0.000000,
        -0.062363 0.357692 0.000000,
        -0.056602 0.357692 0.000000,
        -0.071485 0.397062 0.000000,
        -0.076767 0.397062 0.000394,
        -0.092131 0.357692 0.000394,
        -0.086369 0.357692 0.000394,
        -0.082385 0.368734 0.000394,
        -0.066121 0.368734 0.000394,
        -0.062363 0.357692 0.000394,
        -0.056602 0.357692 0.000394,
        -0.071485 0.397062 0.000394,
        -0.067449 0.373056 0.000394,
        -0.080615 0.373056 0.000394,
        -0.073323 0.389500 0.000394,
        -0.073702 0.390865 0.000394,
        -0.073954 0.392260 0.000394,
        -0.074081 0.392260 0.000394,
        -0.074338 0.390869 0.000394,
        -0.074689 0.389500 0.000394,
        -0.067449 0.373056 0.000000,
        -0.080615 0.373056 0.000000,
        -0.073323 0.389500 -0.000000,
        -0.073702 0.390865 0.000000,
        -0.073954 0.392260 0.000000,
        -0.074081 0.392260 0.000000,
        -0.074338 0.390869 0.000000,
        -0.074689 0.389500 0.000000,
        -0.032738 0.357692 0.000394,
        -0.022033 0.357692 0.000394,
        -0.022033 0.397062 0.000394,
        -0.033143 0.397062 0.000394,
        -0.053721 0.377872 0.000394,
        -0.053435 0.381576 0.000394,
        -0.052377 0.385455 0.000394,
        -0.050548 0.388841 0.000394,
        -0.047763 0.391928 0.000394,
        -0.047722 0.391965 0.000394,
        -0.043437 0.394836 0.000394,
        -0.038831 0.396454 0.000394,
        -0.037609 0.358117 0.000394,
        -0.042146 0.359469 0.000394,
        -0.046257 0.361858 0.000394,
        -0.049497 0.364961 0.000394,
        -0.051755 0.368482 0.000394,
        -0.053168 0.372603 0.000394,
        -0.045818 0.387220 0.000394,
        -0.043906 0.389250 0.000394,
        -0.041030 0.391108 0.000394,
        -0.037780 0.392245 0.000394,
        -0.033120 0.392741 0.000394,
        -0.027314 0.392741 0.000394,
        -0.027314 0.362013 0.000394,
        -0.032903 0.362013 0.000394,
        -0.037057 0.362399 0.000394,
        -0.040370 0.363433 0.000394,
        -0.043055 0.365028 0.000394,
        -0.045263 0.367209 0.000394,
        -0.046923 0.369923 0.000394,
        -0.048078 0.373624 0.000394,
        -0.048439 0.377759 0.000394,
        -0.048105 0.381678 0.000394,
        -0.047186 0.384791 0.000394,
        -0.033120 0.392741 0.000000,
        -0.027314 0.392741 0.000000,
        -0.037780 0.392245 0.000000,
        -0.041030 0.391108 0.000000,
        -0.043906 0.389250 0.000000,
        -0.045818 0.387220 0.000000,
        -0.047186 0.384791 0.000000,
        -0.048105 0.381678 0.000000,
        -0.048439 0.377759 0.000000,
        -0.048078 0.373624 0.000000,
        -0.046923 0.369923 0.000000,
        -0.045263 0.367209 0.000000,
        -0.043055 0.365028 0.000000,
        -0.040370 0.363433 -0.000000,
        -0.037057 0.362399 0.000000,
        -0.032903 0.362013 0.000000,
        -0.027314 0.362013 0.000000,
        -0.014351 0.362013 0.000394,
        -0.014351 0.357692 0.000394,
        0.006775 0.357692 0.000394,
        0.006775 0.397062 0.000394,
        -0.013391 0.397062 0.000394,
        -0.013391 0.392741 0.000394,
        0.001493 0.392741 0.000394,
        0.001493 0.379777 0.000394,
        -0.012430 0.379777 0.000394,
        -0.012430 0.375456 0.000394,
        0.001493 0.375456 0.000394,
        0.001493 0.362013 0.000394,
        0.014457 0.364053 0.000394,
        0.014457 0.359732 0.000394,
        0.018653 0.358009 0.000394,
        0.025289 0.357211 0.000394,
        0.024213 0.357230 0.000394,
        0.030141 0.357715 0.000394,
        0.033957 0.359028 0.000394,
        0.037124 0.361050 0.000394,
        0.040081 0.364163 0.000394,
        0.042179 0.367907 0.000394,
        0.043363 0.372074 0.000394,
        0.043744 0.376634 0.000394,
        0.023722 0.397542 0.000394,
        0.027676 0.397219 0.000394,
        0.032065 0.395944 0.000394,
        0.035804 0.393791 0.000394,
        0.039359 0.390373 0.000394,
        0.041667 0.386692 0.000394,
        0.043178 0.382231 0.000394,
        0.019009 0.397217 0.000394,
        0.014457 0.395981 0.000394,
        0.014457 0.390700 0.000394,
        0.023676 0.393220 0.000394,
        0.018891 0.392599 0.000394,
        0.038463 0.376957 0.000394,
        0.038275 0.380020 0.000394,
        0.037226 0.384234 0.000394,
        0.035602 0.387274 0.000394,
        0.033225 0.389899 0.000394,
        0.030500 0.391722 0.000394,
        0.027553 0.392785 0.000394,
        0.024562 0.361533 0.000394,
        0.028234 0.361944 0.000394,
        0.031103 0.363000 0.000394,
        0.033519 0.364629 0.000394,
        0.035366 0.366578 0.000394,
        0.036994 0.369308 0.000394,
        0.038064 0.372694 0.000394,
        0.015162 0.363662 0.000394,
        0.019336 0.362113 0.000394,
        0.047105 0.362013 0.000394,
        0.047105 0.357692 0.000394,
        0.067270 0.357692 0.000394,
        0.067270 0.397062 0.000394,
        0.061989 0.397062 0.000394,
        0.061989 0.362013 0.000394,
      ]
    }
    coordIndex [
      88, 89, 82, -1,
      82, 89, 81, -1,
      89, 90, 81, -1,
      81, 90, 80, -1,
      90, 91, 80, -1,
      80, 91, 83, -1,
      91, 92, 83, -1,
      83, 92, 84, -1,
      92, 93, 84, -1,
      84, 93, 85, -1,
      93, 94, 85, -1,
      85, 94, 86, -1,
      94, 95, 86, -1,
      86, 95, 87, -1,
      95, 88, 87, -1,
      87, 88, 82, -1,
      96, 92, 97, -1,
      97, 92, 91, -1,
      98, 95, 96, -1,
      96, 95, 94, -1,
      96, 94, 92, -1,
      92, 94, 93, -1,
      98, 99, 95, -1,
      95, 99, 100, -1,
      95, 100, 88, -1,
      88, 100, 101, -1,
      88, 101, 102, -1,
      102, 103, 88, -1,
      88, 103, 97, -1,
      88, 97, 89, -1,
      89, 97, 91, -1,
      89, 91, 90, -1,
      96, 97, 104, -1,
      104, 97, 105, -1,
      98, 96, 106, -1,
      106, 96, 104, -1,
      98, 106, 107, -1,
      98, 107, 99, -1,
      99, 107, 108, -1,
      99, 108, 100, -1,
      101, 100, 109, -1,
      109, 100, 108, -1,
      101, 109, 110, -1,
      101, 110, 102, -1,
      102, 110, 111, -1,
      102, 111, 103, -1,
      97, 103, 105, -1,
      105, 103, 111, -1,
      112, 113, 74, -1,
      74, 113, 75, -1,
      113, 114, 75, -1,
      75, 114, 76, -1,
      114, 115, 76, -1,
      76, 115, 66, -1,
      116, 78, 77, -1,
      116, 77, 117, -1,
      117, 77, 72, -1,
      117, 72, 118, -1,
      118, 72, 71, -1,
      118, 71, 119, -1,
      119, 71, 70, -1,
      119, 70, 120, -1,
      120, 70, 69, -1,
      120, 69, 121, -1,
      121, 69, 68, -1,
      121, 68, 122, -1,
      122, 68, 67, -1,
      122, 67, 123, -1,
      123, 67, 66, -1,
      123, 66, 115, -1,
      112, 74, 73, -1,
      112, 73, 124, -1,
      124, 73, 65, -1,
      124, 65, 125, -1,
      125, 65, 64, -1,
      125, 64, 126, -1,
      126, 64, 63, -1,
      126, 63, 127, -1,
      127, 63, 62, -1,
      127, 62, 128, -1,
      128, 62, 79, -1,
      128, 79, 129, -1,
      129, 79, 78, -1,
      129, 78, 116, -1,
      118, 119, 130, -1,
      130, 119, 120, -1,
      130, 120, 131, -1,
      131, 120, 121, -1,
      131, 121, 132, -1,
      132, 121, 122, -1,
      132, 122, 133, -1,
      133, 122, 123, -1,
      133, 123, 134, -1,
      134, 123, 115, -1,
      134, 115, 135, -1,
      135, 115, 114, -1,
      135, 114, 136, -1,
      136, 114, 113, -1,
      136, 113, 137, -1,
      137, 113, 112, -1,
      137, 112, 138, -1,
      138, 112, 124, -1,
      138, 124, 139, -1,
      139, 124, 125, -1,
      139, 125, 140, -1,
      140, 125, 126, -1,
      140, 126, 141, -1,
      141, 126, 127, -1,
      141, 127, 142, -1,
      142, 127, 128, -1,
      142, 128, 143, -1,
      143, 128, 129, -1,
      143, 129, 144, -1,
      144, 129, 116, -1,
      144, 116, 145, -1,
      145, 116, 117, -1,
      145, 117, 146, -1,
      146, 117, 118, -1,
      146, 118, 130, -1,
      134, 135, 147, -1,
      147, 135, 148, -1,
      134, 147, 149, -1,
      134, 149, 133, -1,
      133, 149, 150, -1,
      133, 150, 132, -1,
      132, 150, 151, -1,
      132, 151, 131, -1,
      131, 151, 152, -1,
      131, 152, 130, -1,
      130, 152, 153, -1,
      130, 153, 146, -1,
      146, 153, 154, -1,
      146, 154, 145, -1,
      145, 154, 155, -1,
      145, 155, 144, -1,
      144, 155, 156, -1,
      144, 156, 143, -1,
      143, 156, 157, -1,
      143, 157, 142, -1,
      142, 157, 158, -1,
      142, 158, 141, -1,
      141, 158, 159, -1,
      141, 159, 140, -1,
      140, 159, 160, -1,
      140, 160, 139, -1,
      139, 160, 161, -1,
      139, 161, 138, -1,
      138, 161, 162, -1,
      138, 162, 137, -1,
      136, 137, 163, -1,
      163, 137, 162, -1,
      135, 136, 148, -1,
      148, 136, 163, -1,
      164, 165, 52, -1,
      52, 165, 53, -1,
      165, 166, 53, -1,
      53, 166, 54, -1,
      166, 167, 54, -1,
      54, 167, 55, -1,
      167, 168, 55, -1,
      55, 168, 50, -1,
      168, 169, 50, -1,
      50, 169, 51, -1,
      169, 170, 51, -1,
      51, 170, 61, -1,
      170, 171, 61, -1,
      61, 171, 60, -1,
      171, 172, 60, -1,
      60, 172, 59, -1,
      172, 173, 59, -1,
      59, 173, 58, -1,
      173, 174, 58, -1,
      58, 174, 56, -1,
      174, 175, 56, -1,
      56, 175, 57, -1,
      175, 164, 57, -1,
      57, 164, 52, -1,
      166, 165, 164, -1,
      164, 175, 166, -1,
      166, 175, 174, -1,
      166, 174, 167, -1,
      169, 168, 170, -1,
      170, 168, 167, -1,
      170, 167, 171, -1,
      171, 167, 174, -1,
      171, 174, 172, -1,
      172, 174, 173, -1,
      176, 177, 3, -1,
      3, 177, 4, -1,
      4, 177, 178, -1,
      179, 41, 40, -1,
      179, 40, 180, -1,
      180, 40, 39, -1,
      180, 39, 178, -1,
      178, 39, 5, -1,
      178, 5, 4, -1,
      41, 179, 42, -1,
      42, 179, 181, -1,
      42, 181, 43, -1,
      43, 181, 182, -1,
      43, 182, 27, -1,
      27, 182, 183, -1,
      27, 183, 28, -1,
      28, 183, 184, -1,
      28, 184, 29, -1,
      29, 184, 185, -1,
      29, 185, 30, -1,
      30, 185, 186, -1,
      30, 186, 36, -1,
      36, 186, 187, -1,
      36, 187, 37, -1,
      188, 0, 189, -1,
      189, 0, 2, -1,
      2, 35, 189, -1,
      189, 35, 34, -1,
      189, 34, 190, -1,
      190, 34, 33, -1,
      190, 33, 191, -1,
      191, 33, 32, -1,
      191, 32, 192, -1,
      192, 32, 31, -1,
      192, 31, 193, -1,
      193, 31, 38, -1,
      193, 38, 194, -1,
      194, 38, 37, -1,
      194, 37, 187, -1,
      0, 188, 1, -1,
      1, 188, 195, -1,
      1, 195, 6, -1,
      6, 195, 196, -1,
      6, 196, 7, -1,
      196, 197, 7, -1,
      7, 197, 8, -1,
      198, 11, 9, -1,
      198, 9, 199, -1,
      199, 9, 8, -1,
      199, 8, 197, -1,
      200, 16, 26, -1,
      200, 26, 201, -1,
      201, 26, 25, -1,
      201, 25, 202, -1,
      202, 25, 15, -1,
      202, 15, 203, -1,
      203, 15, 14, -1,
      203, 14, 204, -1,
      204, 14, 13, -1,
      204, 13, 205, -1,
      205, 13, 12, -1,
      205, 12, 206, -1,
      206, 12, 11, -1,
      206, 11, 198, -1,
      207, 20, 19, -1,
      207, 19, 208, -1,
      208, 19, 21, -1,
      208, 21, 209, -1,
      209, 21, 22, -1,
      209, 22, 210, -1,
      210, 22, 23, -1,
      210, 23, 211, -1,
      211, 23, 18, -1,
      211, 18, 212, -1,
      212, 18, 17, -1,
      212, 17, 213, -1,
      213, 17, 16, -1,
      213, 16, 200, -1,
      176, 3, 10, -1,
      176, 10, 214, -1,
      214, 10, 24, -1,
      214, 24, 215, -1,
      215, 24, 20, -1,
      215, 20, 207, -1,
      208, 179, 207, -1,
      207, 179, 180, -1,
      207, 180, 215, -1,
      215, 180, 178, -1,
      215, 178, 214, -1,
      214, 178, 177, -1,
      214, 177, 176, -1,
      197, 196, 199, -1,
      199, 196, 195, -1,
      199, 195, 198, -1,
      198, 195, 188, -1,
      198, 188, 206, -1,
      206, 188, 189, -1,
      206, 189, 205, -1,
      205, 189, 190, -1,
      205, 190, 204, -1,
      204, 190, 191, -1,
      204, 191, 203, -1,
      203, 191, 192, -1,
      203, 192, 202, -1,
      202, 192, 193, -1,
      202, 193, 201, -1,
      201, 193, 194, -1,
      201, 194, 200, -1,
      200, 194, 187, -1,
      200, 187, 213, -1,
      213, 187, 186, -1,
      213, 186, 212, -1,
      212, 186, 185, -1,
      212, 185, 211, -1,
      211, 185, 184, -1,
      211, 184, 210, -1,
      210, 184, 183, -1,
      210, 183, 209, -1,
      209, 183, 182, -1,
      209, 182, 208, -1,
      208, 182, 181, -1,
      208, 181, 179, -1,
      216, 217, 44, -1,
      44, 217, 45, -1,
      217, 218, 45, -1,
      45, 218, 46, -1,
      218, 219, 46, -1,
      46, 219, 49, -1,
      219, 220, 49, -1,
      49, 220, 48, -1,
      220, 221, 48, -1,
      48, 221, 47, -1,
      221, 216, 47, -1,
      47, 216, 44, -1,
      220, 219, 221, -1,
      221, 219, 218, -1,
      221, 218, 216, -1,
      216, 218, 217, -1,
    ]
  }
}

Shape {
  appearance Appearance {
    material Material {
      diffuseColor 0.2510 0.2510 0.2510
      specularColor 0.1255 0.1255 0.1255
      ambientIntensity 0.2
      transparency 0.0000
      shininess 0.5
    }
  }
  geometry IndexedFaceSet {
    ccw TRUE
    solid FALSE
    coord DEF co Coordinate {
      point [
        -0.067449 0.373056 0.000000,
        -0.080615 0.373056 0.000000,
        -0.073323 0.389500 -0.000000,
        -0.073702 0.390865 0.000000,
        -0.073954 0.392260 0.000000,
        -0.074081 0.392260 0.000000,
        -0.074338 0.390869 0.000000,
        -0.074689 0.389500 0.000000,
        -0.033120 0.392741 0.000000,
        -0.027314 0.392741 0.000000,
        -0.037780 0.392245 0.000000,
        -0.041030 0.391108 0.000000,
        -0.043906 0.389250 0.000000,
        -0.045818 0.387220 0.000000,
        -0.047186 0.384791 0.000000,
        -0.048105 0.381678 0.000000,
        -0.048439 0.377759 0.000000,
        -0.048078 0.373624 0.000000,
        -0.046923 0.369923 0.000000,
        -0.045263 0.367209 0.000000,
        -0.043055 0.365028 0.000000,
        -0.040370 0.363433 -0.000000,
        -0.037057 0.362399 0.000000,
        -0.032903 0.362013 0.000000,
        -0.027314 0.362013 0.000000,
      ]
    }
    coordIndex [
      0, 1, 2, -1,
      2, 1, 7, -1,
      2, 7, 3, -1,
      3, 7, 6, -1,
      3, 6, 4, -1,
      4, 6, 5, -1,
      9, 24, 8, -1,
      8, 24, 23, -1,
      8, 23, 22, -1,
      16, 15, 8, -1,
      8, 15, 14, -1,
      8, 14, 10, -1,
      22, 21, 8, -1,
      8, 21, 20, -1,
      8, 20, 19, -1,
      19, 18, 8, -1,
      8, 18, 17, -1,
      8, 17, 16, -1,
      13, 12, 14, -1,
      14, 12, 11, -1,
      14, 11, 10, -1,
    ]
  }
}
