#VRML V2.0 utf8

Shape {
  appearance Appearance {
    material Material {
      diffuseColor 0.6667 0.6667 0.6667
      specularColor 0.4667 0.4667 0.4667
      ambientIntensity 0.2
      transparency 0.0000
      shininess 0.5
    }
  }
  geometry IndexedFaceSet {
    ccw TRUE
    solid FALSE
    coord DEF co Coordinate {
      point [
        -0.472441 -0.172244 -0.007874,
        -0.472441 -0.065776 -0.007874,
        -0.019565 -0.065776 -0.007874,
        -0.334646 -0.310039 -0.007874,
        -0.019565 0.310039 -0.007874,
        -0.008042 -0.052093 -0.007874,
        -0.008042 -0.065056 -0.007874,
        0.055334 -0.065056 -0.007874,
        0.078380 -0.058935 -0.007874,
        0.078380 -0.045971 -0.007874,
        0.055334 0.053054 -0.007874,
        0.039490 0.040091 -0.007874,
        0.039490 0.001201 -0.007874,
        -0.005161 0.040091 -0.007874,
        -0.002281 0.001201 -0.007874,
        0.039490 -0.011762 -0.007874,
        0.039490 -0.052093 -0.007874,
        -0.002281 -0.011762 -0.007874,
        0.236820 -0.065056 -0.007874,
        0.117824 -0.065776 -0.007874,
        0.176325 -0.065056 -0.007874,
        0.125434 -0.064987 -0.007874,
        0.136881 -0.061047 -0.007874,
        -0.005161 0.053054 -0.007874,
        0.159981 0.022004 -0.007874,
        0.153046 0.033038 -0.007874,
        0.220976 0.053054 -0.007874,
        0.117670 0.040225 -0.007874,
        0.126510 0.037035 -0.007874,
        0.080497 -0.047144 -0.007874,
        0.134685 0.031566 -0.007874,
        0.141817 0.023692 -0.007874,
        0.150398 -0.007261 -0.007874,
        0.149203 -0.020047 -0.007874,
        0.145994 -0.030207 -0.007874,
        0.119712 -0.052297 -0.007874,
        0.108695 -0.053533 -0.007874,
        0.128318 -0.049129 -0.007874,
        0.135567 -0.044243 -0.007874,
        0.141109 -0.038396 -0.007874,
        0.093017 -0.051793 -0.007874,
        0.146687 0.014572 -0.007874,
        0.149835 0.001928 -0.007874,
        0.146382 -0.054980 -0.007874,
        0.155254 -0.045640 -0.007874,
        0.176325 -0.052093 -0.007874,
        0.161546 -0.034409 -0.007874,
        0.220976 -0.052093 -0.007874,
        0.165100 -0.021907 -0.007874,
        0.166243 -0.008229 -0.007874,
        0.164544 0.008563 -0.007874,
        0.142365 0.043286 -0.007874,
        0.131142 0.049728 -0.007874,
        0.117974 0.053537 -0.007874,
        0.106175 0.054494 -0.007874,
        0.092035 0.053519 -0.007874,
        0.078380 0.049813 -0.007874,
        0.078380 0.033969 -0.007874,
        0.091684 0.039666 -0.007874,
        0.106040 0.041531 -0.007874,
        0.090970 -0.064104 -0.007874,
        0.102905 -0.065776 -0.007874,
        -0.019565 -0.310039 -0.007874,
        0.107649 -0.066441 -0.007874,
        0.110878 -0.066496 -0.007874,
        0.236820 0.053054 -0.007874,
        0.472441 0.310039 -0.007874,
        0.472441 -0.065776 -0.007874,
        0.472441 -0.310039 -0.007874,
        -0.134794 -0.065056 -0.007874,
        -0.120255 -0.032683 -0.007874,
        -0.113482 -0.043247 -0.007874,
        -0.224097 -0.065056 -0.007874,
        -0.241382 -0.065056 -0.007874,
        -0.195290 0.053054 -0.007874,
        -0.472441 0.310039 -0.007874,
        -0.179446 0.053054 -0.007874,
        -0.103761 -0.052556 -0.007874,
        -0.091430 -0.059723 -0.007874,
        -0.077820 -0.063780 -0.007874,
        -0.063204 -0.065056 -0.007874,
        -0.031088 -0.065056 -0.007874,
        -0.031088 0.053054 -0.007874,
        -0.064419 0.053054 -0.007874,
        -0.108329 0.037612 -0.007874,
        -0.116664 0.028348 -0.007874,
        -0.122142 0.018185 -0.007874,
        -0.081483 0.051230 -0.007874,
        -0.095280 0.046389 -0.007874,
        -0.108141 0.037776 -0.007874,
        -0.152079 -0.065056 -0.007874,
        -0.163354 -0.031928 -0.007874,
        -0.212147 -0.031928 -0.007874,
        -0.125303 0.006545 -0.007874,
        -0.126152 -0.004515 -0.007874,
        -0.124495 -0.020322 -0.007874,
      ]
    }
    coordIndex [
      0, 1, 2, -1,
      0, 2, 3, -1,
      4, 5, 2, -1,
      2, 5, 6, -1,
      2, 6, 7, -1,
      8, 7, 9, -1,
      9, 7, 10, -1,
      11, 12, 13, -1,
      13, 12, 14, -1,
      15, 16, 17, -1,
      17, 16, 5, -1,
      18, 19, 20, -1,
      20, 19, 21, -1,
      20, 21, 22, -1,
      10, 23, 4, -1,
      4, 23, 13, -1,
      4, 13, 5, -1,
      5, 13, 14, -1,
      5, 14, 17, -1,
      24, 25, 26, -1,
      27, 28, 29, -1,
      29, 28, 30, -1,
      29, 30, 31, -1,
      32, 33, 29, -1,
      29, 33, 34, -1,
      35, 36, 37, -1,
      37, 36, 38, -1,
      34, 39, 29, -1,
      29, 39, 38, -1,
      29, 38, 40, -1,
      40, 38, 36, -1,
      31, 41, 29, -1,
      29, 41, 42, -1,
      29, 42, 32, -1,
      22, 43, 20, -1,
      20, 43, 44, -1,
      20, 44, 45, -1,
      45, 44, 46, -1,
      45, 46, 47, -1,
      46, 48, 47, -1,
      47, 48, 49, -1,
      47, 49, 26, -1,
      26, 49, 50, -1,
      26, 50, 24, -1,
      51, 52, 4, -1,
      4, 52, 53, -1,
      4, 53, 54, -1,
      54, 55, 4, -1,
      4, 55, 56, -1,
      4, 56, 10, -1,
      10, 56, 57, -1,
      10, 57, 9, -1,
      9, 57, 58, -1,
      9, 58, 29, -1,
      29, 58, 59, -1,
      29, 59, 27, -1,
      8, 60, 7, -1,
      7, 60, 61, -1,
      7, 61, 2, -1,
      2, 61, 62, -1,
      2, 62, 3, -1,
      61, 63, 62, -1,
      62, 63, 64, -1,
      62, 64, 19, -1,
      25, 51, 26, -1,
      26, 51, 4, -1,
      26, 4, 65, -1,
      65, 4, 66, -1,
      65, 66, 18, -1,
      18, 66, 67, -1,
      18, 67, 19, -1,
      19, 67, 68, -1,
      19, 68, 62, -1,
      69, 70, 71, -1,
      72, 2, 73, -1,
      73, 2, 1, -1,
      73, 1, 74, -1,
      74, 1, 75, -1,
      74, 75, 76, -1,
      76, 75, 4, -1,
      71, 77, 69, -1,
      69, 77, 78, -1,
      69, 78, 79, -1,
      80, 81, 2, -1,
      2, 81, 82, -1,
      2, 82, 4, -1,
      4, 82, 83, -1,
      84, 85, 76, -1,
      76, 85, 86, -1,
      83, 87, 4, -1,
      4, 87, 88, -1,
      4, 88, 76, -1,
      76, 88, 89, -1,
      76, 89, 84, -1,
      79, 80, 69, -1,
      69, 80, 2, -1,
      69, 2, 90, -1,
      90, 2, 72, -1,
      90, 72, 91, -1,
      91, 72, 92, -1,
      86, 93, 76, -1,
      76, 93, 94, -1,
      76, 94, 69, -1,
      69, 94, 95, -1,
      69, 95, 70, -1,
    ]
  }
}

Shape {
  appearance Appearance {
    material Material {
      diffuseColor 0.2078 0.2078 0.2078
      specularColor 0.0157 0.0157 0.0157
      ambientIntensity 0.2
      transparency 0.0000
      shininess 0.5
    }
  }
  geometry IndexedFaceSet {
    ccw TRUE
    solid FALSE
    coord DEF co Coordinate {
      point [
        0.590551 -0.590551 0.000000,
        0.539370 -0.590551 0.000000,
        0.539370 -0.433110 0.000000,
        0.539370 0.433110 0.000000,
        0.539370 0.590551 0.000000,
        0.590551 0.590551 0.000000,
        0.248031 -0.433110 0.000000,
        0.248031 -0.590551 0.000000,
        0.145669 -0.590551 0.000000,
        0.472441 0.310039 0.000000,
        0.472441 -0.310039 0.000000,
        0.444882 -0.433110 0.000000,
        -0.334646 -0.310039 0.000000,
        0.145669 -0.433110 0.000000,
        0.051181 -0.433110 0.000000,
        0.342520 -0.433110 0.000000,
        0.342520 -0.590551 0.000000,
        0.444882 -0.590551 0.000000,
        -0.444882 0.590551 0.000000,
        -0.342520 0.590551 0.000000,
        -0.444882 0.433110 0.000000,
        -0.342520 0.433110 0.000000,
        -0.145669 -0.433110 0.000000,
        -0.145669 -0.590551 0.000000,
        -0.248031 -0.590551 0.000000,
        -0.051181 0.433110 0.000000,
        -0.145669 0.433110 0.000000,
        -0.248031 0.433110 0.000000,
        -0.145669 0.590551 0.000000,
        -0.248031 0.590551 0.000000,
        -0.248031 -0.433110 0.000000,
        -0.342520 -0.433110 0.000000,
        -0.472441 -0.172244 0.000000,
        -0.051181 -0.433110 0.000000,
        -0.051181 -0.590551 0.000000,
        0.051181 -0.590551 0.000000,
        0.248031 0.433110 0.000000,
        0.342520 0.433110 0.000000,
        -0.539370 -0.590551 0.000000,
        -0.590551 -0.590551 0.000000,
        -0.539370 -0.433110 0.000000,
        -0.590551 0.590551 0.000000,
        0.145669 0.433110 0.000000,
        0.145669 0.590551 0.000000,
        0.248031 0.590551 0.000000,
        0.051181 0.433110 0.000000,
        0.051181 0.590551 0.000000,
        -0.051181 0.590551 0.000000,
        0.342520 0.590551 0.000000,
        0.444882 0.590551 0.000000,
        0.444882 0.433110 0.000000,
        -0.539370 0.433110 0.000000,
        -0.472441 0.310039 0.000000,
        -0.342520 -0.590551 0.000000,
        -0.444882 -0.590551 0.000000,
        -0.444882 -0.433110 0.000000,
        -0.539370 0.590551 0.000000,
        0.590551 0.590551 0.287402,
        0.590551 -0.590551 0.287402,
        0.539370 0.590551 0.070866,
        0.444882 0.590551 0.070866,
        -0.590551 0.590551 0.287402,
        0.248031 0.590551 0.070866,
        0.145669 0.590551 0.070866,
        0.051181 0.590551 0.070866,
        0.342520 0.590551 0.070866,
        -0.145669 0.590551 0.070866,
        -0.248031 0.590551 0.070866,
        -0.342520 0.590551 0.070866,
        -0.051181 0.590551 0.070866,
        -0.539370 0.590551 0.070866,
        -0.444882 0.590551 0.070866,
        -0.590551 -0.590551 0.287402,
        0.539370 -0.590551 0.070866,
        0.444882 -0.590551 0.070866,
        -0.539370 -0.590551 0.070866,
        -0.444882 -0.590551 0.070866,
        -0.342520 -0.590551 0.070866,
        -0.248031 -0.590551 0.070866,
        -0.051181 -0.590551 0.070866,
        0.051181 -0.590551 0.070866,
        0.145669 -0.590551 0.070866,
        -0.145669 -0.590551 0.070866,
        0.342520 -0.590551 0.070866,
        0.248031 -0.590551 0.070866,
        -0.448356 -0.490114 0.287402,
        -0.462598 -0.484214 0.287402,
        -0.448356 -0.376028 0.287402,
        -0.462598 -0.381928 0.287402,
        -0.474829 -0.391313 0.287402,
        -0.474829 -0.474829 0.287402,
        -0.484214 -0.462598 0.287402,
        -0.490114 -0.448356 0.287402,
        -0.374016 -0.433071 0.287402,
        -0.376028 -0.448356 0.287402,
        -0.381928 -0.462598 0.287402,
        -0.391313 -0.474829 0.287402,
        -0.403543 -0.484214 0.287402,
        -0.417786 -0.490114 0.287402,
        -0.433071 -0.492126 0.287402,
        -0.492126 -0.433071 0.287402,
        -0.490114 -0.417786 0.287402,
        -0.484214 -0.403543 0.287402,
        -0.403543 -0.381928 0.287402,
        -0.417786 -0.376028 0.287402,
        -0.433071 -0.374016 0.287402,
        -0.391313 -0.391313 0.287402,
        -0.381928 -0.403543 0.287402,
        -0.376028 -0.417786 0.287402,
      ]
    }
    coordIndex [
      0, 1, 2, -1,
      3, 4, 5, -1,
      6, 7, 8, -1,
      9, 2, 10, -1,
      10, 2, 11, -1,
      10, 11, 12, -1,
      13, 14, 12, -1,
      8, 13, 6, -1,
      6, 13, 12, -1,
      6, 12, 15, -1,
      15, 12, 11, -1,
      15, 11, 16, -1,
      16, 11, 17, -1,
      18, 19, 20, -1,
      20, 19, 21, -1,
      22, 23, 24, -1,
      25, 9, 26, -1,
      26, 9, 27, -1,
      26, 27, 28, -1,
      28, 27, 29, -1,
      30, 31, 12, -1,
      12, 31, 32, -1,
      24, 30, 22, -1,
      22, 30, 12, -1,
      22, 12, 33, -1,
      33, 12, 14, -1,
      33, 14, 34, -1,
      34, 14, 35, -1,
      36, 37, 9, -1,
      38, 39, 40, -1,
      40, 39, 41, -1,
      42, 43, 44, -1,
      44, 36, 42, -1,
      42, 36, 9, -1,
      42, 9, 45, -1,
      45, 9, 25, -1,
      45, 25, 46, -1,
      46, 25, 47, -1,
      48, 49, 37, -1,
      37, 49, 50, -1,
      37, 50, 9, -1,
      9, 50, 3, -1,
      9, 3, 2, -1,
      2, 3, 5, -1,
      2, 5, 0, -1,
      32, 51, 52, -1,
      52, 51, 20, -1,
      52, 20, 9, -1,
      9, 20, 21, -1,
      9, 21, 27, -1,
      53, 54, 31, -1,
      31, 54, 55, -1,
      31, 55, 32, -1,
      32, 55, 40, -1,
      32, 40, 51, -1,
      51, 40, 41, -1,
      51, 41, 56, -1,
      57, 58, 5, -1,
      5, 58, 0, -1,
      5, 4, 59, -1,
      5, 59, 57, -1,
      57, 59, 60, -1,
      57, 60, 61, -1,
      62, 44, 43, -1,
      63, 64, 61, -1,
      43, 63, 62, -1,
      62, 63, 61, -1,
      62, 61, 65, -1,
      65, 61, 60, -1,
      65, 60, 48, -1,
      48, 60, 49, -1,
      66, 28, 29, -1,
      67, 68, 61, -1,
      29, 67, 66, -1,
      66, 67, 61, -1,
      66, 61, 69, -1,
      69, 61, 64, -1,
      69, 64, 47, -1,
      47, 64, 46, -1,
      56, 41, 70, -1,
      70, 41, 61, -1,
      70, 61, 71, -1,
      71, 61, 68, -1,
      71, 68, 18, -1,
      18, 68, 19, -1,
      72, 61, 39, -1,
      39, 61, 41, -1,
      1, 0, 73, -1,
      73, 0, 58, -1,
      73, 58, 74, -1,
      39, 38, 75, -1,
      54, 53, 76, -1,
      76, 53, 77, -1,
      39, 75, 72, -1,
      72, 75, 76, -1,
      72, 76, 58, -1,
      58, 76, 77, -1,
      58, 77, 78, -1,
      79, 34, 35, -1,
      80, 81, 58, -1,
      35, 80, 79, -1,
      79, 80, 58, -1,
      79, 58, 82, -1,
      82, 58, 78, -1,
      82, 78, 23, -1,
      23, 78, 24, -1,
      83, 16, 17, -1,
      8, 7, 81, -1,
      81, 7, 84, -1,
      81, 84, 58, -1,
      58, 84, 83, -1,
      58, 83, 74, -1,
      74, 83, 17, -1,
      72, 85, 86, -1,
      87, 61, 88, -1,
      88, 61, 89, -1,
      86, 90, 72, -1,
      72, 90, 91, -1,
      72, 91, 92, -1,
      93, 94, 58, -1,
      58, 94, 95, -1,
      58, 95, 96, -1,
      96, 97, 58, -1,
      58, 97, 98, -1,
      58, 98, 72, -1,
      72, 98, 99, -1,
      72, 99, 85, -1,
      92, 100, 72, -1,
      72, 100, 101, -1,
      72, 101, 61, -1,
      61, 101, 102, -1,
      61, 102, 89, -1,
      103, 57, 104, -1,
      104, 57, 61, -1,
      104, 61, 105, -1,
      105, 61, 87, -1,
      103, 106, 57, -1,
      57, 106, 107, -1,
      57, 107, 58, -1,
      58, 107, 108, -1,
      58, 108, 93, -1,
    ]
  }
}

Shape {
  appearance Appearance {
    material Material {
      diffuseColor 0.6667 0.6667 0.6667
      specularColor 0.4667 0.4667 0.4667
      ambientIntensity 0.2
      transparency 0.0000
      shininess 0.5
    }
  }
  geometry IndexedFaceSet {
    ccw TRUE
    solid FALSE
    coord DEF co Coordinate {
      point [
        -0.472441 -0.172244 -0.007874,
        -0.472441 -0.065776 -0.007874,
        -0.334646 -0.310039 -0.007874,
        -0.019565 0.310039 -0.007874,
        -0.019565 -0.310039 -0.007874,
        0.472441 0.310039 -0.007874,
        0.472441 -0.065776 -0.007874,
        0.472441 -0.310039 -0.007874,
        -0.472441 0.310039 -0.007874,
        0.539370 -0.590551 0.000000,
        0.539370 -0.433110 0.000000,
        0.539370 0.433110 0.000000,
        0.539370 0.590551 0.000000,
        0.248031 -0.433110 0.000000,
        0.248031 -0.590551 0.000000,
        0.145669 -0.590551 0.000000,
        0.472441 0.310039 0.000000,
        0.472441 -0.310039 0.000000,
        0.444882 -0.433110 0.000000,
        -0.334646 -0.310039 0.000000,
        0.145669 -0.433110 0.000000,
        0.051181 -0.433110 0.000000,
        0.342520 -0.433110 0.000000,
        0.342520 -0.590551 0.000000,
        0.444882 -0.590551 0.000000,
        -0.444882 0.590551 0.000000,
        -0.342520 0.590551 0.000000,
        -0.444882 0.433110 0.000000,
        -0.342520 0.433110 0.000000,
        -0.145669 -0.433110 0.000000,
        -0.145669 -0.590551 0.000000,
        -0.248031 -0.590551 0.000000,
        -0.051181 0.433110 0.000000,
        -0.145669 0.433110 0.000000,
        -0.248031 0.433110 0.000000,
        -0.145669 0.590551 0.000000,
        -0.248031 0.590551 0.000000,
        -0.248031 -0.433110 0.000000,
        -0.342520 -0.433110 0.000000,
        -0.472441 -0.172244 0.000000,
        -0.051181 -0.433110 0.000000,
        -0.051181 -0.590551 0.000000,
        0.051181 -0.590551 0.000000,
        0.248031 0.433110 0.000000,
        0.342520 0.433110 0.000000,
        -0.539370 -0.590551 0.000000,
        -0.539370 -0.433110 0.000000,
        0.145669 0.433110 0.000000,
        0.145669 0.590551 0.000000,
        0.248031 0.590551 0.000000,
        0.051181 0.433110 0.000000,
        0.051181 0.590551 0.000000,
        -0.051181 0.590551 0.000000,
        0.342520 0.590551 0.000000,
        0.444882 0.590551 0.000000,
        0.444882 0.433110 0.000000,
        -0.539370 0.433110 0.000000,
        -0.472441 0.310039 0.000000,
        -0.342520 -0.590551 0.000000,
        -0.444882 -0.590551 0.000000,
        -0.444882 -0.433110 0.000000,
        -0.539370 0.590551 0.000000,
        0.539370 0.590551 0.070866,
        0.444882 0.590551 0.070866,
        0.248031 0.590551 0.070866,
        0.145669 0.590551 0.070866,
        0.051181 0.590551 0.070866,
        0.342520 0.590551 0.070866,
        -0.145669 0.590551 0.070866,
        -0.248031 0.590551 0.070866,
        -0.342520 0.590551 0.070866,
        -0.051181 0.590551 0.070866,
        -0.539370 0.590551 0.070866,
        -0.444882 0.590551 0.070866,
        0.539370 -0.590551 0.070866,
        0.444882 -0.590551 0.070866,
        -0.539370 -0.590551 0.070866,
        -0.444882 -0.590551 0.070866,
        -0.342520 -0.590551 0.070866,
        -0.248031 -0.590551 0.070866,
        -0.051181 -0.590551 0.070866,
        0.051181 -0.590551 0.070866,
        0.145669 -0.590551 0.070866,
        -0.145669 -0.590551 0.070866,
        0.342520 -0.590551 0.070866,
        0.248031 -0.590551 0.070866,
        0.539370 0.590591 0.070866,
        0.444882 0.590591 0.070866,
        0.444882 0.590591 -0.007874,
        0.444882 0.433110 -0.007874,
        0.539370 0.433110 -0.007874,
        0.539370 0.590591 -0.007874,
        0.342520 0.590591 0.070866,
        0.248031 0.590591 0.070866,
        0.248031 0.590591 -0.007874,
        0.248031 0.433110 -0.007874,
        0.342520 0.433110 -0.007874,
        0.342520 0.590591 -0.007874,
        0.145669 0.590591 0.070866,
        0.051181 0.590591 0.070866,
        0.051181 0.590591 -0.007874,
        0.051181 0.433110 -0.007874,
        0.145669 0.433110 -0.007874,
        0.145669 0.590591 -0.007874,
        -0.051181 0.590591 0.070866,
        -0.145669 0.590591 0.070866,
        -0.145669 0.590591 -0.007874,
        -0.145669 0.433110 -0.007874,
        -0.051181 0.433110 -0.007874,
        -0.051181 0.590591 -0.007874,
        -0.248031 0.590591 0.070866,
        -0.342520 0.590591 0.070866,
        -0.342520 0.590591 -0.007874,
        -0.342520 0.433110 -0.007874,
        -0.248031 0.433110 -0.007874,
        -0.248031 0.590591 -0.007874,
        -0.444882 0.590591 0.070866,
        -0.539370 0.590591 0.070866,
        -0.539370 0.590591 -0.007874,
        -0.539370 0.433110 -0.007874,
        -0.444882 0.433110 -0.007874,
        -0.444882 0.590591 -0.007874,
        -0.539370 -0.590591 0.070866,
        -0.444882 -0.590591 0.070866,
        -0.444882 -0.590591 -0.007874,
        -0.444882 -0.433110 -0.007874,
        -0.539370 -0.433110 -0.007874,
        -0.539370 -0.590591 -0.007874,
        -0.342520 -0.590591 0.070866,
        -0.248031 -0.590591 0.070866,
        -0.248031 -0.590591 -0.007874,
        -0.248031 -0.433110 -0.007874,
        -0.342520 -0.433110 -0.007874,
        -0.342520 -0.590591 -0.007874,
        -0.145669 -0.590591 0.070866,
        -0.051181 -0.590591 0.070866,
        -0.051181 -0.590591 -0.007874,
        -0.051181 -0.433110 -0.007874,
        -0.145669 -0.433110 -0.007874,
        -0.145669 -0.590591 -0.007874,
        0.051181 -0.590591 0.070866,
        0.145669 -0.590591 0.070866,
        0.145669 -0.590591 -0.007874,
        0.145669 -0.433110 -0.007874,
        0.051181 -0.433110 -0.007874,
        0.051181 -0.590591 -0.007874,
        0.248031 -0.590591 0.070866,
        0.342520 -0.590591 0.070866,
        0.342520 -0.590591 -0.007874,
        0.342520 -0.433110 -0.007874,
        0.248031 -0.433110 -0.007874,
        0.248031 -0.590591 -0.007874,
        0.444882 -0.590591 0.070866,
        0.539370 -0.590591 0.070866,
        0.539370 -0.590591 -0.007874,
        0.539370 -0.433110 -0.007874,
        0.444882 -0.433110 -0.007874,
        0.444882 -0.590591 -0.007874,
      ]
    }
    coordIndex [
      86, 87, 62, -1,
      62, 87, 63, -1,
      63, 87, 54, -1,
      54, 87, 88, -1,
      54, 88, 55, -1,
      55, 88, 89, -1,
      12, 11, 90, -1,
      90, 91, 12, -1,
      12, 91, 86, -1,
      12, 86, 62, -1,
      55, 89, 11, -1,
      11, 89, 90, -1,
      87, 86, 88, -1,
      88, 86, 91, -1,
      91, 90, 88, -1,
      88, 90, 89, -1,
      92, 93, 67, -1,
      67, 93, 64, -1,
      64, 93, 49, -1,
      49, 93, 94, -1,
      49, 94, 43, -1,
      43, 94, 95, -1,
      43, 95, 44, -1,
      44, 95, 96, -1,
      53, 44, 96, -1,
      96, 97, 53, -1,
      53, 97, 92, -1,
      53, 92, 67, -1,
      93, 92, 94, -1,
      94, 92, 97, -1,
      97, 96, 94, -1,
      94, 96, 95, -1,
      98, 99, 65, -1,
      65, 99, 66, -1,
      66, 99, 51, -1,
      51, 99, 100, -1,
      51, 100, 50, -1,
      50, 100, 101, -1,
      50, 101, 47, -1,
      47, 101, 102, -1,
      48, 47, 102, -1,
      102, 103, 48, -1,
      48, 103, 98, -1,
      48, 98, 65, -1,
      99, 98, 100, -1,
      100, 98, 103, -1,
      103, 102, 100, -1,
      100, 102, 101, -1,
      104, 105, 71, -1,
      71, 105, 68, -1,
      68, 105, 35, -1,
      35, 105, 106, -1,
      35, 106, 33, -1,
      33, 106, 107, -1,
      33, 107, 32, -1,
      32, 107, 108, -1,
      52, 32, 108, -1,
      108, 109, 52, -1,
      52, 109, 104, -1,
      52, 104, 71, -1,
      105, 104, 106, -1,
      106, 104, 109, -1,
      109, 108, 106, -1,
      106, 108, 107, -1,
      110, 111, 69, -1,
      69, 111, 70, -1,
      70, 111, 26, -1,
      26, 111, 112, -1,
      26, 112, 28, -1,
      28, 112, 113, -1,
      28, 113, 34, -1,
      34, 113, 114, -1,
      36, 34, 114, -1,
      114, 115, 36, -1,
      36, 115, 110, -1,
      36, 110, 69, -1,
      111, 110, 112, -1,
      112, 110, 115, -1,
      115, 114, 112, -1,
      112, 114, 113, -1,
      116, 117, 73, -1,
      73, 117, 72, -1,
      72, 117, 61, -1,
      61, 117, 118, -1,
      61, 118, 56, -1,
      56, 118, 119, -1,
      56, 119, 27, -1,
      27, 119, 120, -1,
      25, 27, 120, -1,
      120, 121, 25, -1,
      25, 121, 116, -1,
      25, 116, 73, -1,
      117, 116, 118, -1,
      118, 116, 121, -1,
      121, 120, 118, -1,
      118, 120, 119, -1,
      122, 123, 76, -1,
      76, 123, 77, -1,
      77, 123, 59, -1,
      59, 123, 124, -1,
      59, 124, 60, -1,
      60, 124, 125, -1,
      60, 125, 46, -1,
      46, 125, 126, -1,
      45, 46, 126, -1,
      126, 127, 45, -1,
      45, 127, 122, -1,
      45, 122, 76, -1,
      123, 122, 124, -1,
      124, 122, 127, -1,
      127, 126, 124, -1,
      124, 126, 125, -1,
      128, 129, 78, -1,
      78, 129, 79, -1,
      79, 129, 31, -1,
      31, 129, 130, -1,
      31, 130, 37, -1,
      37, 130, 131, -1,
      37, 131, 38, -1,
      38, 131, 132, -1,
      58, 38, 132, -1,
      132, 133, 58, -1,
      58, 133, 128, -1,
      58, 128, 78, -1,
      129, 128, 130, -1,
      130, 128, 133, -1,
      133, 132, 130, -1,
      130, 132, 131, -1,
      134, 135, 83, -1,
      83, 135, 80, -1,
      80, 135, 41, -1,
      41, 135, 136, -1,
      41, 136, 40, -1,
      40, 136, 137, -1,
      40, 137, 29, -1,
      29, 137, 138, -1,
      30, 29, 138, -1,
      138, 139, 30, -1,
      30, 139, 134, -1,
      30, 134, 83, -1,
      135, 134, 136, -1,
      136, 134, 139, -1,
      139, 138, 136, -1,
      136, 138, 137, -1,
      140, 141, 81, -1,
      81, 141, 82, -1,
      82, 141, 15, -1,
      15, 141, 142, -1,
      15, 142, 20, -1,
      20, 142, 143, -1,
      20, 143, 21, -1,
      21, 143, 144, -1,
      42, 21, 144, -1,
      144, 145, 42, -1,
      42, 145, 140, -1,
      42, 140, 81, -1,
      141, 140, 142, -1,
      142, 140, 145, -1,
      145, 144, 142, -1,
      142, 144, 143, -1,
      146, 147, 85, -1,
      85, 147, 84, -1,
      84, 147, 23, -1,
      23, 147, 148, -1,
      23, 148, 22, -1,
      22, 148, 149, -1,
      22, 149, 13, -1,
      13, 149, 150, -1,
      14, 13, 150, -1,
      150, 151, 14, -1,
      14, 151, 146, -1,
      14, 146, 85, -1,
      147, 146, 148, -1,
      148, 146, 151, -1,
      151, 150, 148, -1,
      148, 150, 149, -1,
      152, 153, 75, -1,
      75, 153, 74, -1,
      74, 153, 9, -1,
      9, 153, 154, -1,
      9, 154, 10, -1,
      10, 154, 155, -1,
      10, 155, 18, -1,
      18, 155, 156, -1,
      24, 18, 156, -1,
      156, 157, 24, -1,
      24, 157, 152, -1,
      24, 152, 75, -1,
      153, 152, 154, -1,
      154, 152, 157, -1,
      157, 156, 154, -1,
      154, 156, 155, -1,
      0, 39, 1, -1,
      1, 39, 57, -1,
      1, 57, 8, -1,
      8, 57, 3, -1,
      3, 57, 16, -1,
      3, 16, 5, -1,
      5, 16, 6, -1,
      6, 16, 17, -1,
      6, 17, 7, -1,
      7, 17, 4, -1,
      4, 17, 19, -1,
      4, 19, 2, -1,
      0, 2, 39, -1,
      39, 2, 19, -1,
    ]
  }
}

Shape {
  appearance Appearance {
    material Material {
      diffuseColor 0.3490 0.3490 0.3490
      specularColor 0.0235 0.0235 0.0235
      ambientIntensity 0.2
      transparency 0.0000
      shininess 0.5
    }
  }
  geometry IndexedFaceSet {
    ccw TRUE
    solid FALSE
    coord DEF co Coordinate {
      point [
        -0.448356 -0.490114 0.287402,
        -0.462598 -0.484214 0.287402,
        -0.448356 -0.376028 0.287402,
        -0.462598 -0.381928 0.287402,
        -0.474829 -0.391313 0.287402,
        -0.474829 -0.474829 0.287402,
        -0.484214 -0.462598 0.287402,
        -0.490114 -0.448356 0.287402,
        -0.374016 -0.433071 0.287402,
        -0.376028 -0.448356 0.287402,
        -0.381928 -0.462598 0.287402,
        -0.391313 -0.474829 0.287402,
        -0.403543 -0.484214 0.287402,
        -0.417786 -0.490114 0.287402,
        -0.433071 -0.492126 0.287402,
        -0.492126 -0.433071 0.287402,
        -0.490114 -0.417786 0.287402,
        -0.484214 -0.403543 0.287402,
        -0.403543 -0.381928 0.287402,
        -0.417786 -0.376028 0.287402,
        -0.433071 -0.374016 0.287402,
        -0.391313 -0.391313 0.287402,
        -0.381928 -0.403543 0.287402,
        -0.376028 -0.417786 0.287402,
        -0.374016 -0.433071 0.279528,
        -0.376028 -0.417786 0.279528,
        -0.381928 -0.403543 0.279528,
        -0.391313 -0.391313 0.279528,
        -0.403543 -0.381928 0.279528,
        -0.417786 -0.376028 0.279528,
        -0.433071 -0.374016 0.279528,
        -0.448356 -0.376028 0.279528,
        -0.462598 -0.381928 0.279528,
        -0.474829 -0.391313 0.279528,
        -0.484214 -0.403543 0.279528,
        -0.490114 -0.417786 0.279528,
        -0.492126 -0.433071 0.279528,
        -0.490114 -0.448356 0.279528,
        -0.484214 -0.462598 0.279528,
        -0.474829 -0.474829 0.279528,
        -0.462598 -0.484214 0.279528,
        -0.448356 -0.490114 0.279528,
        -0.433071 -0.492126 0.279528,
        -0.417786 -0.490114 0.279528,
        -0.403543 -0.484214 0.279528,
        -0.391313 -0.474829 0.279528,
        -0.381928 -0.462598 0.279528,
        -0.376028 -0.448356 0.279528,
        -0.433071 -0.433071 0.279528,
      ]
    }
    coordIndex [
      24, 8, 25, -1,
      25, 8, 23, -1,
      25, 23, 26, -1,
      26, 23, 22, -1,
      26, 22, 27, -1,
      27, 22, 21, -1,
      27, 21, 28, -1,
      28, 21, 18, -1,
      28, 18, 29, -1,
      29, 18, 19, -1,
      29, 19, 30, -1,
      30, 19, 20, -1,
      30, 20, 31, -1,
      31, 20, 2, -1,
      31, 2, 32, -1,
      32, 2, 3, -1,
      32, 3, 33, -1,
      33, 3, 4, -1,
      33, 4, 34, -1,
      34, 4, 17, -1,
      34, 17, 35, -1,
      35, 17, 16, -1,
      35, 16, 36, -1,
      36, 16, 15, -1,
      36, 15, 37, -1,
      37, 15, 7, -1,
      37, 7, 38, -1,
      38, 7, 6, -1,
      38, 6, 39, -1,
      39, 6, 5, -1,
      39, 5, 40, -1,
      40, 5, 1, -1,
      40, 1, 41, -1,
      41, 1, 0, -1,
      41, 0, 42, -1,
      42, 0, 14, -1,
      42, 14, 43, -1,
      43, 14, 13, -1,
      43, 13, 44, -1,
      44, 13, 12, -1,
      44, 12, 45, -1,
      45, 12, 11, -1,
      45, 11, 46, -1,
      46, 11, 10, -1,
      46, 10, 47, -1,
      47, 10, 9, -1,
      47, 9, 24, -1,
      24, 9, 8, -1,
      46, 47, 48, -1,
      48, 47, 24, -1,
      48, 24, 25, -1,
      43, 44, 48, -1,
      48, 44, 45, -1,
      48, 45, 46, -1,
      40, 41, 48, -1,
      48, 41, 42, -1,
      48, 42, 43, -1,
      37, 38, 48, -1,
      48, 38, 39, -1,
      48, 39, 40, -1,
      34, 35, 48, -1,
      48, 35, 36, -1,
      48, 36, 37, -1,
      31, 32, 48, -1,
      48, 32, 33, -1,
      48, 33, 34, -1,
      28, 29, 48, -1,
      48, 29, 30, -1,
      48, 30, 31, -1,
      25, 26, 48, -1,
      48, 26, 27, -1,
      48, 27, 28, -1,
    ]
  }
}

Shape {
  appearance Appearance {
    material Material {
      diffuseColor 1.0000 1.0000 1.0000
      specularColor 0.8784 0.8784 0.8784
      ambientIntensity 0.2
      transparency 0.0000
      shininess 0.5
    }
  }
  geometry IndexedFaceSet {
    ccw TRUE
    solid FALSE
    coord DEF co Coordinate {
      point [
        -0.008042 -0.052093 -0.007874,
        -0.008042 -0.065056 -0.007874,
        0.055334 -0.065056 -0.007874,
        0.078380 -0.058935 -0.007874,
        0.078380 -0.045971 -0.007874,
        0.055334 0.053054 -0.007874,
        0.039490 0.040091 -0.007874,
        0.039490 0.001201 -0.007874,
        -0.005161 0.040091 -0.007874,
        -0.002281 0.001201 -0.007874,
        0.039490 -0.011762 -0.007874,
        0.039490 -0.052093 -0.007874,
        -0.002281 -0.011762 -0.007874,
        0.236820 -0.065056 -0.007874,
        0.117824 -0.065776 -0.007874,
        0.176325 -0.065056 -0.007874,
        0.125434 -0.064987 -0.007874,
        0.136881 -0.061047 -0.007874,
        -0.005161 0.053054 -0.007874,
        0.159981 0.022004 -0.007874,
        0.153046 0.033038 -0.007874,
        0.220976 0.053054 -0.007874,
        0.117670 0.040225 -0.007874,
        0.126510 0.037035 -0.007874,
        0.080497 -0.047144 -0.007874,
        0.134685 0.031566 -0.007874,
        0.141817 0.023692 -0.007874,
        0.150398 -0.007261 -0.007874,
        0.149203 -0.020047 -0.007874,
        0.145994 -0.030207 -0.007874,
        0.119712 -0.052297 -0.007874,
        0.108695 -0.053533 -0.007874,
        0.128318 -0.049129 -0.007874,
        0.135567 -0.044243 -0.007874,
        0.141109 -0.038396 -0.007874,
        0.093017 -0.051793 -0.007874,
        0.146687 0.014572 -0.007874,
        0.149835 0.001928 -0.007874,
        0.146382 -0.054980 -0.007874,
        0.155254 -0.045640 -0.007874,
        0.176325 -0.052093 -0.007874,
        0.161546 -0.034409 -0.007874,
        0.220976 -0.052093 -0.007874,
        0.165100 -0.021907 -0.007874,
        0.166243 -0.008229 -0.007874,
        0.164544 0.008563 -0.007874,
        0.142365 0.043286 -0.007874,
        0.131142 0.049728 -0.007874,
        0.117974 0.053537 -0.007874,
        0.106175 0.054494 -0.007874,
        0.092035 0.053519 -0.007874,
        0.078380 0.049813 -0.007874,
        0.078380 0.033969 -0.007874,
        0.091684 0.039666 -0.007874,
        0.106040 0.041531 -0.007874,
        0.090970 -0.064104 -0.007874,
        0.102905 -0.065776 -0.007874,
        0.107649 -0.066441 -0.007874,
        0.110878 -0.066496 -0.007874,
        0.236820 0.053054 -0.007874,
        -0.134794 -0.065056 -0.007874,
        -0.120255 -0.032683 -0.007874,
        -0.113482 -0.043247 -0.007874,
        -0.224097 -0.065056 -0.007874,
        -0.241382 -0.065056 -0.007874,
        -0.195290 0.053054 -0.007874,
        -0.179446 0.053054 -0.007874,
        -0.103761 -0.052556 -0.007874,
        -0.091430 -0.059723 -0.007874,
        -0.077820 -0.063780 -0.007874,
        -0.063204 -0.065056 -0.007874,
        -0.031088 -0.065056 -0.007874,
        -0.031088 0.053054 -0.007874,
        -0.064419 0.053054 -0.007874,
        -0.108329 0.037612 -0.007874,
        -0.116664 0.028348 -0.007874,
        -0.122142 0.018185 -0.007874,
        -0.081483 0.051230 -0.007874,
        -0.095280 0.046389 -0.007874,
        -0.108141 0.037776 -0.007874,
        -0.152079 -0.065056 -0.007874,
        -0.163354 -0.031928 -0.007874,
        -0.212147 -0.031928 -0.007874,
        -0.125303 0.006545 -0.007874,
        -0.126152 -0.004515 -0.007874,
        -0.124495 -0.020322 -0.007874,
        -0.195290 0.053054 0.000000,
        -0.241382 -0.065056 0.000000,
        -0.224097 -0.065056 0.000000,
        -0.212147 -0.031928 0.000000,
        -0.163354 -0.031928 0.000000,
        -0.152079 -0.065056 0.000000,
        -0.134794 -0.065056 0.000000,
        -0.179446 0.053054 0.000000,
        -0.167338 -0.018964 0.000000,
        -0.206835 -0.018964 0.000000,
        -0.184960 0.030369 0.000000,
        -0.186096 0.034465 0.000000,
        -0.186850 0.038650 0.000000,
        -0.187233 0.038650 0.000000,
        -0.188004 0.034477 0.000000,
        -0.189056 0.030369 0.000000,
        -0.167338 -0.018964 -0.007874,
        -0.206835 -0.018964 -0.007874,
        -0.184960 0.030369 -0.007874,
        -0.186096 0.034465 -0.007874,
        -0.186850 0.038650 -0.007874,
        -0.187233 0.038650 -0.007874,
        -0.188004 0.034477 -0.007874,
        -0.189056 0.030369 -0.007874,
        -0.063204 -0.065056 0.000000,
        -0.031088 -0.065056 0.000000,
        -0.031088 0.053054 0.000000,
        -0.064419 0.053054 0.000000,
        -0.126152 -0.004515 -0.000000,
        -0.125303 0.006545 -0.000000,
        -0.122142 0.018185 -0.000000,
        -0.116664 0.028348 -0.000000,
        -0.108329 0.037612 0.000000,
        -0.108141 0.037776 0.000000,
        -0.095280 0.046389 0.000000,
        -0.081483 0.051230 0.000000,
        -0.077820 -0.063780 -0.000000,
        -0.091430 -0.059723 -0.000000,
        -0.103761 -0.052556 0.000000,
        -0.113482 -0.043247 -0.000000,
        -0.120255 -0.032683 0.000000,
        -0.124495 -0.020322 -0.000000,
        -0.102444 0.023528 0.000000,
        -0.096707 0.029620 0.000000,
        -0.088080 0.035193 0.000000,
        -0.078331 0.038605 0.000000,
        -0.064352 0.040091 0.000000,
        -0.046932 0.040091 0.000000,
        -0.046932 -0.052093 0.000000,
        -0.063699 -0.052093 0.000000,
        -0.076159 -0.050933 0.000000,
        -0.086099 -0.047831 0.000000,
        -0.094154 -0.043047 0.000000,
        -0.100778 -0.036504 0.000000,
        -0.105760 -0.028361 0.000000,
        -0.109224 -0.017259 0.000000,
        -0.110308 -0.004853 0.000000,
        -0.109305 0.006902 0.000000,
        -0.106548 0.016244 0.000000,
        -0.064352 0.040091 -0.007874,
        -0.046932 0.040091 -0.007874,
        -0.078331 0.038605 -0.007874,
        -0.088080 0.035193 -0.007874,
        -0.096707 0.029620 -0.007874,
        -0.102444 0.023528 -0.007874,
        -0.106548 0.016244 -0.007874,
        -0.109305 0.006902 -0.007874,
        -0.110308 -0.004853 -0.007874,
        -0.109224 -0.017259 -0.007874,
        -0.105760 -0.028361 -0.007874,
        -0.100778 -0.036504 -0.007874,
        -0.094154 -0.043047 -0.007874,
        -0.086099 -0.047831 -0.007874,
        -0.076159 -0.050933 -0.007874,
        -0.063699 -0.052093 -0.007874,
        -0.046932 -0.052093 -0.007874,
        -0.008042 -0.052093 0.000000,
        -0.008042 -0.065056 0.000000,
        0.055334 -0.065056 0.000000,
        0.055334 0.053054 0.000000,
        -0.005161 0.053054 0.000000,
        -0.005161 0.040091 0.000000,
        0.039490 0.040091 0.000000,
        0.039490 0.001201 0.000000,
        -0.002281 0.001201 0.000000,
        -0.002281 -0.011762 0.000000,
        0.039490 -0.011762 0.000000,
        0.039490 -0.052093 0.000000,
        0.078380 -0.045971 0.000000,
        0.078380 -0.058935 0.000000,
        0.090970 -0.064104 0.000000,
        0.110878 -0.066496 0.000000,
        0.107649 -0.066441 0.000000,
        0.166243 -0.008229 0.000000,
        0.165100 -0.021907 0.000000,
        0.161546 -0.034409 -0.000000,
        0.155254 -0.045640 -0.000000,
        0.146382 -0.054980 0.000000,
        0.136881 -0.061047 0.000000,
        0.125434 -0.064987 -0.000000,
        0.106175 0.054494 -0.000000,
        0.117974 0.053537 0.000000,
        0.131142 0.049728 0.000000,
        0.142365 0.043286 -0.000000,
        0.153046 0.033038 0.000000,
        0.159981 0.022004 0.000000,
        0.164544 0.008563 -0.000000,
        0.078380 0.049813 0.000000,
        0.092035 0.053519 0.000000,
        0.078380 0.033969 0.000000,
        0.106040 0.041531 0.000000,
        0.091684 0.039666 -0.000000,
        0.150398 -0.007261 -0.000000,
        0.149835 0.001928 -0.000000,
        0.146687 0.014572 -0.000000,
        0.141817 0.023692 -0.000000,
        0.134685 0.031566 -0.000000,
        0.126510 0.037035 -0.000000,
        0.117670 0.040225 0.000000,
        0.108695 -0.053533 0.000000,
        0.119712 -0.052297 0.000000,
        0.128318 -0.049129 0.000000,
        0.135567 -0.044243 0.000000,
        0.141109 -0.038396 -0.000000,
        0.145994 -0.030207 -0.000000,
        0.149203 -0.020047 -0.000000,
        0.080497 -0.047144 0.000000,
        0.093017 -0.051793 -0.000000,
        0.176325 -0.052093 0.000000,
        0.176325 -0.065056 0.000000,
        0.236820 -0.065056 0.000000,
        0.236820 0.053054 0.000000,
        0.220976 0.053054 0.000000,
        0.220976 -0.052093 0.000000,
      ]
    }
    coordIndex [
      86, 87, 65, -1,
      65, 87, 64, -1,
      87, 88, 64, -1,
      64, 88, 63, -1,
      88, 89, 63, -1,
      63, 89, 82, -1,
      89, 90, 82, -1,
      82, 90, 81, -1,
      90, 91, 81, -1,
      81, 91, 80, -1,
      91, 92, 80, -1,
      80, 92, 60, -1,
      92, 93, 60, -1,
      60, 93, 66, -1,
      93, 86, 66, -1,
      66, 86, 65, -1,
      94, 90, 95, -1,
      95, 90, 89, -1,
      96, 93, 94, -1,
      94, 93, 92, -1,
      94, 92, 90, -1,
      90, 92, 91, -1,
      96, 97, 93, -1,
      93, 97, 98, -1,
      93, 98, 86, -1,
      86, 98, 99, -1,
      86, 99, 100, -1,
      100, 101, 86, -1,
      86, 101, 95, -1,
      86, 95, 87, -1,
      87, 95, 89, -1,
      87, 89, 88, -1,
      94, 95, 102, -1,
      102, 95, 103, -1,
      96, 94, 104, -1,
      104, 94, 102, -1,
      96, 104, 105, -1,
      96, 105, 97, -1,
      97, 105, 106, -1,
      97, 106, 98, -1,
      99, 98, 107, -1,
      107, 98, 106, -1,
      99, 107, 108, -1,
      99, 108, 100, -1,
      100, 108, 109, -1,
      100, 109, 101, -1,
      95, 101, 103, -1,
      103, 101, 109, -1,
      110, 111, 70, -1,
      70, 111, 71, -1,
      111, 112, 71, -1,
      71, 112, 72, -1,
      112, 113, 72, -1,
      72, 113, 73, -1,
      114, 84, 83, -1,
      114, 83, 115, -1,
      115, 83, 76, -1,
      115, 76, 116, -1,
      116, 76, 75, -1,
      116, 75, 117, -1,
      117, 75, 74, -1,
      117, 74, 118, -1,
      118, 74, 79, -1,
      118, 79, 119, -1,
      119, 79, 78, -1,
      119, 78, 120, -1,
      120, 78, 77, -1,
      120, 77, 121, -1,
      121, 77, 73, -1,
      121, 73, 113, -1,
      110, 70, 69, -1,
      110, 69, 122, -1,
      122, 69, 68, -1,
      122, 68, 123, -1,
      123, 68, 67, -1,
      123, 67, 124, -1,
      124, 67, 62, -1,
      124, 62, 125, -1,
      125, 62, 61, -1,
      125, 61, 126, -1,
      126, 61, 85, -1,
      126, 85, 127, -1,
      127, 85, 84, -1,
      127, 84, 114, -1,
      116, 117, 128, -1,
      128, 117, 118, -1,
      128, 118, 129, -1,
      129, 118, 119, -1,
      129, 119, 130, -1,
      130, 119, 120, -1,
      130, 120, 131, -1,
      131, 120, 121, -1,
      131, 121, 132, -1,
      132, 121, 113, -1,
      132, 113, 133, -1,
      133, 113, 112, -1,
      133, 112, 134, -1,
      134, 112, 111, -1,
      134, 111, 135, -1,
      135, 111, 110, -1,
      135, 110, 136, -1,
      136, 110, 122, -1,
      136, 122, 137, -1,
      137, 122, 123, -1,
      137, 123, 138, -1,
      138, 123, 124, -1,
      138, 124, 139, -1,
      139, 124, 125, -1,
      139, 125, 140, -1,
      140, 125, 126, -1,
      140, 126, 141, -1,
      141, 126, 127, -1,
      141, 127, 142, -1,
      142, 127, 114, -1,
      142, 114, 143, -1,
      143, 114, 115, -1,
      143, 115, 144, -1,
      144, 115, 116, -1,
      144, 116, 128, -1,
      132, 133, 145, -1,
      145, 133, 146, -1,
      132, 145, 147, -1,
      132, 147, 131, -1,
      131, 147, 148, -1,
      131, 148, 130, -1,
      130, 148, 149, -1,
      130, 149, 129, -1,
      129, 149, 150, -1,
      129, 150, 128, -1,
      128, 150, 151, -1,
      128, 151, 144, -1,
      144, 151, 152, -1,
      144, 152, 143, -1,
      143, 152, 153, -1,
      143, 153, 142, -1,
      142, 153, 154, -1,
      142, 154, 141, -1,
      141, 154, 155, -1,
      141, 155, 140, -1,
      140, 155, 156, -1,
      140, 156, 139, -1,
      139, 156, 157, -1,
      139, 157, 138, -1,
      138, 157, 158, -1,
      138, 158, 137, -1,
      137, 158, 159, -1,
      137, 159, 136, -1,
      136, 159, 160, -1,
      136, 160, 135, -1,
      134, 135, 161, -1,
      161, 135, 160, -1,
      133, 134, 146, -1,
      146, 134, 161, -1,
      162, 163, 0, -1,
      0, 163, 1, -1,
      163, 164, 1, -1,
      1, 164, 2, -1,
      164, 165, 2, -1,
      2, 165, 5, -1,
      165, 166, 5, -1,
      5, 166, 18, -1,
      166, 167, 18, -1,
      18, 167, 8, -1,
      167, 168, 8, -1,
      8, 168, 6, -1,
      168, 169, 6, -1,
      6, 169, 7, -1,
      169, 170, 7, -1,
      7, 170, 9, -1,
      170, 171, 9, -1,
      9, 171, 12, -1,
      171, 172, 12, -1,
      12, 172, 10, -1,
      172, 173, 10, -1,
      10, 173, 11, -1,
      173, 162, 11, -1,
      11, 162, 0, -1,
      164, 163, 162, -1,
      162, 173, 164, -1,
      164, 173, 172, -1,
      164, 172, 165, -1,
      167, 166, 168, -1,
      168, 166, 165, -1,
      168, 165, 169, -1,
      169, 165, 172, -1,
      169, 172, 170, -1,
      170, 172, 171, -1,
      174, 175, 4, -1,
      4, 175, 3, -1,
      3, 175, 176, -1,
      177, 58, 57, -1,
      177, 57, 178, -1,
      178, 57, 56, -1,
      178, 56, 176, -1,
      176, 56, 55, -1,
      176, 55, 3, -1,
      179, 44, 43, -1,
      179, 43, 180, -1,
      180, 43, 41, -1,
      180, 41, 181, -1,
      181, 41, 39, -1,
      181, 39, 182, -1,
      182, 39, 38, -1,
      182, 38, 183, -1,
      183, 38, 17, -1,
      183, 17, 184, -1,
      184, 17, 16, -1,
      184, 16, 185, -1,
      185, 16, 177, -1,
      177, 16, 14, -1,
      177, 14, 58, -1,
      186, 49, 48, -1,
      186, 48, 187, -1,
      187, 48, 47, -1,
      187, 47, 188, -1,
      188, 47, 46, -1,
      188, 46, 189, -1,
      189, 46, 20, -1,
      189, 20, 190, -1,
      190, 20, 19, -1,
      190, 19, 191, -1,
      191, 19, 45, -1,
      191, 45, 192, -1,
      192, 45, 44, -1,
      192, 44, 179, -1,
      193, 51, 50, -1,
      193, 50, 194, -1,
      194, 50, 49, -1,
      194, 49, 186, -1,
      193, 195, 51, -1,
      51, 195, 52, -1,
      196, 54, 53, -1,
      196, 53, 197, -1,
      197, 53, 52, -1,
      197, 52, 195, -1,
      198, 27, 37, -1,
      198, 37, 199, -1,
      199, 37, 36, -1,
      199, 36, 200, -1,
      200, 36, 26, -1,
      200, 26, 201, -1,
      201, 26, 25, -1,
      201, 25, 202, -1,
      202, 25, 23, -1,
      202, 23, 203, -1,
      203, 23, 22, -1,
      203, 22, 204, -1,
      204, 22, 54, -1,
      204, 54, 196, -1,
      205, 31, 30, -1,
      205, 30, 206, -1,
      206, 30, 32, -1,
      206, 32, 207, -1,
      207, 32, 33, -1,
      207, 33, 208, -1,
      208, 33, 34, -1,
      208, 34, 209, -1,
      209, 34, 29, -1,
      209, 29, 210, -1,
      210, 29, 28, -1,
      210, 28, 211, -1,
      211, 28, 27, -1,
      211, 27, 198, -1,
      174, 4, 24, -1,
      174, 24, 212, -1,
      212, 24, 35, -1,
      212, 35, 213, -1,
      213, 35, 31, -1,
      213, 31, 205, -1,
      206, 177, 205, -1,
      205, 177, 178, -1,
      205, 178, 213, -1,
      213, 178, 176, -1,
      213, 176, 212, -1,
      212, 176, 175, -1,
      212, 175, 174, -1,
      195, 193, 197, -1,
      197, 193, 194, -1,
      197, 194, 196, -1,
      196, 194, 186, -1,
      196, 186, 204, -1,
      204, 186, 187, -1,
      204, 187, 203, -1,
      203, 187, 188, -1,
      203, 188, 202, -1,
      202, 188, 189, -1,
      202, 189, 201, -1,
      201, 189, 190, -1,
      201, 190, 200, -1,
      200, 190, 191, -1,
      200, 191, 199, -1,
      199, 191, 192, -1,
      199, 192, 198, -1,
      198, 192, 179, -1,
      198, 179, 211, -1,
      211, 179, 180, -1,
      211, 180, 210, -1,
      210, 180, 181, -1,
      210, 181, 209, -1,
      209, 181, 182, -1,
      209, 182, 208, -1,
      208, 182, 183, -1,
      208, 183, 207, -1,
      207, 183, 184, -1,
      207, 184, 206, -1,
      206, 184, 185, -1,
      206, 185, 177, -1,
      214, 215, 40, -1,
      40, 215, 15, -1,
      215, 216, 15, -1,
      15, 216, 13, -1,
      216, 217, 13, -1,
      13, 217, 59, -1,
      217, 218, 59, -1,
      59, 218, 21, -1,
      218, 219, 21, -1,
      21, 219, 42, -1,
      219, 214, 42, -1,
      42, 214, 40, -1,
      218, 217, 219, -1,
      219, 217, 216, -1,
      219, 216, 214, -1,
      214, 216, 215, -1,
    ]
  }
}

Shape {
  appearance Appearance {
    material Material {
      diffuseColor 0.6667 0.6667 0.6667
      specularColor 0.4667 0.4667 0.4667
      ambientIntensity 0.2
      transparency 0.0000
      shininess 0.5
    }
  }
  geometry IndexedFaceSet {
    ccw TRUE
    solid FALSE
    coord DEF co Coordinate {
      point [
        -0.167338 -0.018964 -0.007874,
        -0.206835 -0.018964 -0.007874,
        -0.184960 0.030369 -0.007874,
        -0.186096 0.034465 -0.007874,
        -0.186850 0.038650 -0.007874,
        -0.187233 0.038650 -0.007874,
        -0.188004 0.034477 -0.007874,
        -0.189056 0.030369 -0.007874,
        -0.064352 0.040091 -0.007874,
        -0.046932 0.040091 -0.007874,
        -0.078331 0.038605 -0.007874,
        -0.088080 0.035193 -0.007874,
        -0.096707 0.029620 -0.007874,
        -0.102444 0.023528 -0.007874,
        -0.106548 0.016244 -0.007874,
        -0.109305 0.006902 -0.007874,
        -0.110308 -0.004853 -0.007874,
        -0.109224 -0.017259 -0.007874,
        -0.105760 -0.028361 -0.007874,
        -0.100778 -0.036504 -0.007874,
        -0.094154 -0.043047 -0.007874,
        -0.086099 -0.047831 -0.007874,
        -0.076159 -0.050933 -0.007874,
        -0.063699 -0.052093 -0.007874,
        -0.046932 -0.052093 -0.007874,
      ]
    }
    coordIndex [
      0, 1, 2, -1,
      2, 1, 7, -1,
      2, 7, 3, -1,
      3, 7, 6, -1,
      3, 6, 4, -1,
      4, 6, 5, -1,
      9, 24, 8, -1,
      8, 24, 23, -1,
      8, 23, 22, -1,
      16, 15, 8, -1,
      8, 15, 14, -1,
      8, 14, 10, -1,
      22, 21, 8, -1,
      8, 21, 20, -1,
      8, 20, 19, -1,
      19, 18, 8, -1,
      8, 18, 17, -1,
      8, 17, 16, -1,
      13, 12, 14, -1,
      14, 12, 11, -1,
      14, 11, 10, -1,
    ]
  }
}
