#VRML V2.0 utf8

Shape {
  appearance Appearance {
    material Material {
      diffuseColor 0.2510 0.2510 0.2510
      specularColor 0.1255 0.1255 0.1255
      ambientIntensity 0.2
      transparency 0.0000
      shininess 0.5
    }
  }
  geometry IndexedFaceSet {
    ccw TRUE
    solid FALSE
    coord DEF co Coordinate {
      point [
        -0.852736 0.658500 0.846457,
        -0.852736 -0.658500 0.846457,
        -0.746596 0.658500 0.846457,
        -0.746596 -0.658500 0.846457,
      ]
    }
    coordIndex [
      0, 1, 2, -1,
      2, 1, 3, -1,
    ]
  }
}

Shape {
  appearance Appearance {
    material Material {
      diffuseColor 0.7529 0.7529 0.7529
      specularColor 0.3765 0.3765 0.3765
      ambientIntensity 0.2
      transparency 0.0000
      shininess 0.5
    }
  }
  geometry IndexedFaceSet {
    ccw TRUE
    solid FALSE
    coord DEF co Coordinate {
      point [
        0.597179 0.032797 -0.039370,
        0.634530 0.032797 -0.039370,
        0.634530 0.008569 -0.039370,
        0.597179 0.008569 -0.039370,
        0.597179 0.000494 -0.039370,
        0.590113 -0.038876 -0.039370,
        0.597179 0.040873 -0.039370,
        0.590113 0.393701 -0.039370,
        0.641596 0.040873 -0.039370,
        0.780906 -0.037867 -0.039370,
        0.697631 -0.038876 -0.039370,
        0.743555 -0.037867 -0.039370,
        0.709843 -0.036684 -0.039370,
        0.717505 -0.032497 -0.039370,
        0.721989 -0.028773 -0.039370,
        0.724485 -0.026116 -0.039370,
        0.743555 -0.029791 -0.039370,
        0.732071 -0.013010 -0.039370,
        0.734469 0.001961 -0.039370,
        0.773839 -0.029791 -0.039370,
        0.773839 0.040873 -0.039370,
        0.634530 0.000494 -0.039370,
        0.634530 -0.029791 -0.039370,
        0.597179 -0.029791 -0.039370,
        0.597179 -0.037867 -0.039370,
        0.641596 -0.037867 -0.039370,
        0.710000 0.030499 -0.039370,
        0.722196 0.019502 -0.039370,
        0.692544 0.034816 -0.039370,
        0.727276 0.004598 -0.039370,
        0.727403 0.001424 -0.039370,
        0.723325 -0.014802 -0.039370,
        0.712468 -0.026179 -0.039370,
        0.697014 -0.031552 -0.039370,
        0.729399 0.022078 -0.039370,
        0.715931 0.036275 -0.039370,
        0.695584 0.042769 -0.039370,
        0.657748 -0.023371 -0.039370,
        0.657748 0.026425 -0.039370,
        0.663931 -0.018687 -0.039370,
        0.663931 0.021693 -0.039370,
        0.676495 -0.028474 -0.039370,
        0.676695 0.031574 -0.039370,
        0.692055 -0.031810 -0.039370,
        0.684126 0.033974 -0.039370,
        0.689287 0.034692 -0.039370,
        0.692102 0.042892 -0.039370,
        0.672887 0.038847 -0.039370,
        0.664823 0.033861 -0.039370,
        0.672850 -0.035797 -0.039370,
        0.660226 0.029511 -0.039370,
        0.682067 -0.038876 -0.039370,
        0.688061 -0.039742 -0.039370,
        0.590113 -0.393701 -0.039370,
        0.692008 -0.039886 -0.039370,
        0.780906 0.040873 -0.039370,
        1.023622 0.393701 -0.039370,
        1.023622 -0.038876 -0.039370,
        1.023622 -0.393701 -0.039370,
        0.192613 -0.393701 -0.039370,
        0.192613 -0.038876 -0.039370,
        0.681809 -0.038839 -0.039370,
        0.500631 -0.037867 -0.039370,
        0.508344 -0.037867 -0.039370,
        0.441323 -0.037867 -0.039370,
        0.452964 -0.012630 -0.039370,
        0.488659 -0.012630 -0.039370,
        0.542162 0.038034 -0.039370,
        0.527971 0.028487 -0.039370,
        0.470993 0.040873 -0.039370,
        0.534287 -0.032357 -0.039370,
        0.550140 -0.037432 -0.039370,
        0.558645 -0.037867 -0.039370,
        0.554533 0.040391 -0.039370,
        0.192613 0.393701 -0.039370,
        0.469983 0.040873 -0.039370,
        0.433642 -0.037867 -0.039370,
        0.519918 0.012897 -0.039370,
        0.518439 0.000509 -0.039370,
        0.522880 -0.019296 -0.039370,
        0.583046 -0.037867 -0.039370,
        0.583046 0.040873 -0.039370,
        0.567146 0.040873 -0.039370,
      ]
    }
    coordIndex [
      0, 1, 2, -1,
      3, 4, 5, -1,
      2, 3, 0, -1,
      0, 3, 5, -1,
      0, 5, 6, -1,
      6, 5, 7, -1,
      6, 7, 8, -1,
      9, 10, 11, -1,
      11, 10, 12, -1,
      11, 12, 13, -1,
      13, 14, 11, -1,
      11, 14, 15, -1,
      11, 15, 16, -1,
      15, 17, 16, -1,
      16, 17, 18, -1,
      16, 18, 19, -1,
      19, 18, 20, -1,
      21, 22, 4, -1,
      4, 22, 23, -1,
      4, 23, 5, -1,
      5, 23, 24, -1,
      5, 24, 25, -1,
      26, 27, 28, -1,
      28, 27, 29, -1,
      28, 29, 30, -1,
      30, 31, 28, -1,
      28, 31, 32, -1,
      28, 32, 33, -1,
      34, 35, 7, -1,
      7, 35, 36, -1,
      37, 38, 39, -1,
      39, 38, 40, -1,
      39, 40, 41, -1,
      41, 40, 42, -1,
      41, 42, 43, -1,
      43, 42, 44, -1,
      43, 44, 33, -1,
      33, 44, 45, -1,
      33, 45, 28, -1,
      36, 46, 7, -1,
      7, 46, 47, -1,
      7, 47, 48, -1,
      49, 25, 37, -1,
      37, 25, 8, -1,
      37, 8, 38, -1,
      38, 8, 7, -1,
      38, 7, 50, -1,
      50, 7, 48, -1,
      51, 52, 53, -1,
      53, 52, 54, -1,
      53, 54, 10, -1,
      18, 34, 20, -1,
      20, 34, 7, -1,
      20, 7, 55, -1,
      55, 7, 56, -1,
      55, 56, 9, -1,
      9, 56, 57, -1,
      9, 57, 10, -1,
      10, 57, 58, -1,
      10, 58, 53, -1,
      59, 60, 53, -1,
      53, 60, 5, -1,
      53, 5, 51, -1,
      51, 5, 25, -1,
      51, 25, 61, -1,
      61, 25, 49, -1,
      62, 63, 5, -1,
      64, 65, 66, -1,
      67, 68, 69, -1,
      70, 71, 63, -1,
      63, 71, 72, -1,
      63, 72, 5, -1,
      73, 67, 7, -1,
      7, 67, 69, -1,
      7, 69, 74, -1,
      74, 69, 75, -1,
      74, 75, 60, -1,
      60, 75, 76, -1,
      60, 76, 5, -1,
      5, 76, 64, -1,
      5, 64, 62, -1,
      62, 64, 66, -1,
      68, 77, 69, -1,
      69, 77, 78, -1,
      69, 78, 63, -1,
      63, 78, 79, -1,
      63, 79, 70, -1,
      72, 80, 5, -1,
      5, 80, 81, -1,
      5, 81, 7, -1,
      7, 81, 82, -1,
      7, 82, 73, -1,
    ]
  }
}

Shape {
  appearance Appearance {
    material Material {
      diffuseColor 0.2510 0.2510 0.2510
      specularColor 0.1255 0.1255 0.1255
      ambientIntensity 0.2
      transparency 0.0000
      shininess 0.5
    }
  }
  geometry IndexedFaceSet {
    ccw TRUE
    solid FALSE
    coord DEF co Coordinate {
      point [
        -0.852736 0.658500 0.846457,
        -0.852736 -0.658500 0.846457,
        -0.746596 0.658500 0.846457,
        -0.746596 -0.658500 0.846457,
        0.885827 0.393701 0.450787,
        0.885827 0.708661 0.450787,
        0.884774 0.393701 0.463369,
        0.852736 0.658500 0.846457,
        0.884774 -0.393701 0.463369,
        0.852736 -0.658500 0.846457,
        0.885827 -0.393701 0.450787,
        0.885827 -0.708661 0.450787,
        0.880294 -0.393701 0.384629,
        0.852736 -0.664633 0.055118,
        0.880294 0.393701 0.384629,
        0.852736 0.664633 0.055118,
        -0.885827 -0.393701 0.450787,
        -0.885827 -0.708661 0.450787,
        -0.884774 -0.393701 0.463369,
        -0.884774 0.393701 0.463369,
        -0.885827 0.393701 0.450787,
        -0.885827 0.708661 0.450787,
        -0.880294 0.393701 0.384629,
        -0.852736 0.664633 0.055118,
        -0.880294 -0.393701 0.384629,
        -0.852736 -0.664633 0.055118,
        -0.668825 -0.658500 0.846457,
        -0.668825 0.658500 0.846457,
        -0.161096 -0.664633 0.055118,
        -0.161096 0.664633 0.055118,
        -0.161096 -0.658500 0.000000,
        -0.161096 0.658500 0.000000,
        0.161096 -0.658500 0.000000,
        0.161096 0.658500 0.000000,
        0.161096 -0.664633 0.055118,
        0.161096 0.664633 0.055118,
      ]
    }
    coordIndex [
      4, 5, 6, -1,
      6, 5, 7, -1,
      6, 7, 8, -1,
      8, 7, 9, -1,
      8, 9, 10, -1,
      10, 9, 11, -1,
      10, 11, 12, -1,
      12, 11, 13, -1,
      12, 13, 14, -1,
      14, 13, 15, -1,
      14, 15, 4, -1,
      4, 15, 5, -1,
      16, 17, 18, -1,
      18, 17, 1, -1,
      18, 1, 19, -1,
      19, 1, 0, -1,
      19, 0, 20, -1,
      20, 0, 21, -1,
      20, 21, 22, -1,
      22, 21, 23, -1,
      22, 23, 24, -1,
      24, 23, 25, -1,
      24, 25, 16, -1,
      16, 25, 17, -1,
      9, 7, 26, -1,
      26, 7, 27, -1,
      25, 23, 28, -1,
      28, 23, 29, -1,
      30, 31, 32, -1,
      32, 31, 33, -1,
      34, 35, 13, -1,
      13, 35, 15, -1,
      32, 33, 34, -1,
      34, 33, 35, -1,
      28, 29, 30, -1,
      30, 29, 31, -1,
      29, 23, 21, -1,
      5, 15, 35, -1,
      33, 31, 35, -1,
      35, 31, 29, -1,
      35, 29, 5, -1,
      5, 29, 21, -1,
      17, 25, 11, -1,
      11, 25, 28, -1,
      13, 11, 34, -1,
      34, 11, 28, -1,
      34, 28, 32, -1,
      32, 28, 30, -1,
      17, 11, 9, -1,
      9, 26, 17, -1,
      17, 26, 3, -1,
      17, 3, 1, -1,
      7, 5, 27, -1,
      27, 5, 21, -1,
      27, 21, 2, -1,
      2, 21, 0, -1,
    ]
  }
}

Shape {
  appearance Appearance {
    material Material {
      diffuseColor 0.7529 0.7529 0.7529
      specularColor 0.3765 0.3765 0.3765
      ambientIntensity 0.2
      transparency 0.0000
      shininess 0.5
    }
  }
  geometry IndexedFaceSet {
    ccw TRUE
    solid FALSE
    coord DEF co Coordinate {
      point [
        -0.746596 0.658500 0.846457,
        -0.746596 -0.658500 0.846457,
        0.597179 0.032797 -0.039370,
        0.634530 0.032797 -0.039370,
        0.634530 0.008569 -0.039370,
        0.597179 0.008569 -0.039370,
        0.597179 0.000494 -0.039370,
        0.597179 0.040873 -0.039370,
        0.590113 0.393701 -0.039370,
        0.641596 0.040873 -0.039370,
        0.780906 -0.037867 -0.039370,
        0.697631 -0.038876 -0.039370,
        0.743555 -0.037867 -0.039370,
        0.709843 -0.036684 -0.039370,
        0.717505 -0.032497 -0.039370,
        0.721989 -0.028773 -0.039370,
        0.724485 -0.026116 -0.039370,
        0.743555 -0.029791 -0.039370,
        0.732071 -0.013010 -0.039370,
        0.734469 0.001961 -0.039370,
        0.773839 -0.029791 -0.039370,
        0.773839 0.040873 -0.039370,
        0.634530 0.000494 -0.039370,
        0.634530 -0.029791 -0.039370,
        0.597179 -0.029791 -0.039370,
        0.597179 -0.037867 -0.039370,
        0.641596 -0.037867 -0.039370,
        0.710000 0.030499 -0.039370,
        0.722196 0.019502 -0.039370,
        0.692544 0.034816 -0.039370,
        0.727276 0.004598 -0.039370,
        0.727403 0.001424 -0.039370,
        0.723325 -0.014802 -0.039370,
        0.712468 -0.026179 -0.039370,
        0.697014 -0.031552 -0.039370,
        0.729399 0.022078 -0.039370,
        0.715931 0.036275 -0.039370,
        0.695584 0.042769 -0.039370,
        0.657748 -0.023371 -0.039370,
        0.657748 0.026425 -0.039370,
        0.663931 -0.018687 -0.039370,
        0.663931 0.021693 -0.039370,
        0.676495 -0.028474 -0.039370,
        0.676695 0.031574 -0.039370,
        0.692055 -0.031810 -0.039370,
        0.684126 0.033974 -0.039370,
        0.689287 0.034692 -0.039370,
        0.692102 0.042892 -0.039370,
        0.672887 0.038847 -0.039370,
        0.664823 0.033861 -0.039370,
        0.672850 -0.035797 -0.039370,
        0.660226 0.029511 -0.039370,
        0.682067 -0.038876 -0.039370,
        0.688061 -0.039742 -0.039370,
        0.590113 -0.393701 -0.039370,
        0.692008 -0.039886 -0.039370,
        0.780906 0.040873 -0.039370,
        1.023622 0.393701 -0.039370,
        1.023622 -0.038876 -0.039370,
        1.023622 -0.393701 -0.039370,
        0.192613 -0.393701 -0.039370,
        0.192613 -0.038876 -0.039370,
        0.681809 -0.038839 -0.039370,
        0.500631 -0.037867 -0.039370,
        0.508344 -0.037867 -0.039370,
        0.441323 -0.037867 -0.039370,
        0.452964 -0.012630 -0.039370,
        0.488659 -0.012630 -0.039370,
        0.542162 0.038034 -0.039370,
        0.527971 0.028487 -0.039370,
        0.470993 0.040873 -0.039370,
        0.534287 -0.032357 -0.039370,
        0.550140 -0.037432 -0.039370,
        0.558645 -0.037867 -0.039370,
        0.554533 0.040391 -0.039370,
        0.192613 0.393701 -0.039370,
        0.469983 0.040873 -0.039370,
        0.433642 -0.037867 -0.039370,
        0.519918 0.012897 -0.039370,
        0.518439 0.000509 -0.039370,
        0.522880 -0.019296 -0.039370,
        0.583046 -0.037867 -0.039370,
        0.583046 0.040873 -0.039370,
        0.567146 0.040873 -0.039370,
        0.885827 0.393701 0.450787,
        0.884774 0.393701 0.463369,
        0.884774 -0.393701 0.463369,
        0.885827 -0.393701 0.450787,
        0.880294 -0.393701 0.384629,
        0.880294 0.393701 0.384629,
        -0.885827 -0.393701 0.450787,
        -0.884774 -0.393701 0.463369,
        -0.884774 0.393701 0.463369,
        -0.885827 0.393701 0.450787,
        -0.880294 0.393701 0.384629,
        -0.880294 -0.393701 0.384629,
        -0.668825 -0.658500 0.846457,
        -0.668825 0.658500 0.846457,
        -1.057718 0.393701 0.443684,
        -1.043307 0.393701 0.458095,
        -1.023622 0.393701 0.463369,
        -0.192613 0.393701 0.039370,
        -0.192613 0.393701 -0.039370,
        -0.944882 0.393701 0.039370,
        -1.023622 0.393701 -0.039370,
        -0.964567 0.393701 0.044644,
        -0.964567 0.393701 0.379355,
        -0.978978 0.393701 0.364944,
        -1.062992 0.393701 0.423999,
        -0.984252 0.393701 0.345259,
        -1.062992 0.393701 0.000000,
        -0.944882 0.393701 0.384629,
        -1.043307 0.393701 -0.034096,
        -1.057718 0.393701 -0.019685,
        -0.978978 0.393701 0.059055,
        -0.984252 0.393701 0.078740,
        -1.023622 -0.393701 -0.039370,
        -0.192613 -0.393701 -0.039370,
        -0.192613 -0.393701 0.039370,
        -1.057718 -0.393701 -0.019685,
        -1.043307 -0.393701 -0.034096,
        -1.023622 -0.393701 0.463369,
        -0.964567 -0.393701 0.379355,
        -0.944882 -0.393701 0.384629,
        -1.062992 -0.393701 0.000000,
        -0.964567 -0.393701 0.044644,
        -0.944882 -0.393701 0.039370,
        -0.978978 -0.393701 0.059055,
        -0.984252 -0.393701 0.078740,
        -1.062992 -0.393701 0.423999,
        -1.043307 -0.393701 0.458095,
        -1.057718 -0.393701 0.443684,
        -0.978978 -0.393701 0.364944,
        -0.984252 -0.393701 0.345259,
        0.984252 0.393701 0.345259,
        0.984252 -0.393701 0.345259,
        0.978978 0.393701 0.364944,
        0.978978 -0.393701 0.364944,
        0.964567 0.393701 0.379355,
        0.964567 -0.393701 0.379355,
        0.944882 0.393701 0.384629,
        0.944882 -0.393701 0.384629,
        1.023622 0.393701 0.463369,
        1.023622 -0.393701 0.463369,
        1.043307 -0.393701 0.458095,
        1.043307 0.393701 0.458095,
        1.057718 -0.393701 0.443684,
        1.057718 0.393701 0.443684,
        1.062992 -0.393701 0.423999,
        1.062992 0.393701 0.423999,
        1.062992 0.393701 -0.000000,
        1.062992 -0.393701 -0.000000,
        1.057718 -0.393701 -0.019685,
        1.043307 -0.393701 -0.034096,
        1.057718 0.393701 -0.019685,
        1.043307 0.393701 -0.034096,
        0.192613 -0.393701 0.039370,
        0.192613 0.393701 0.039370,
        0.944882 0.393701 0.039370,
        0.944882 -0.393701 0.039370,
        0.964567 0.393701 0.044644,
        0.964567 -0.393701 0.044644,
        0.978978 0.393701 0.059055,
        0.978978 -0.393701 0.059055,
        0.984252 0.393701 0.078740,
        0.984252 -0.393701 0.078740,
        0.470993 0.040873 -0.000000,
        0.469983 0.040873 -0.000000,
        0.433642 -0.037867 -0.000000,
        0.441323 -0.037867 -0.000000,
        0.452964 -0.012630 -0.000000,
        0.488659 -0.012630 -0.000000,
        0.500631 -0.037867 -0.000000,
        0.508344 -0.037867 -0.000000,
        0.456686 -0.004554 -0.000000,
        0.484826 -0.004554 -0.000000,
        0.470567 0.025526 -0.000000,
        0.456686 -0.004554 -0.039370,
        0.470567 0.025526 -0.039370,
        0.484826 -0.004554 -0.039370,
        0.558645 -0.037867 -0.000000,
        0.583046 -0.037867 -0.000000,
        0.583046 0.040873 -0.000000,
        0.567146 0.040873 -0.000000,
        0.542162 0.038034 -0.000000,
        0.554533 0.040391 -0.000000,
        0.518439 0.000509 -0.000000,
        0.519918 0.012897 -0.000000,
        0.527971 0.028487 -0.000000,
        0.550140 -0.037432 -0.000000,
        0.534287 -0.032357 -0.000000,
        0.522880 -0.019296 -0.000000,
        0.526752 -0.009278 -0.000000,
        0.533183 -0.020805 -0.000000,
        0.544433 -0.027788 -0.000000,
        0.555615 -0.029472 -0.000000,
        0.566941 -0.029791 -0.000000,
        0.575980 -0.029791 -0.000000,
        0.575980 0.032797 -0.000000,
        0.570443 0.032797 -0.000000,
        0.558268 0.032426 -0.000000,
        0.546247 0.030589 -0.000000,
        0.537538 0.026392 -0.000000,
        0.528953 0.016250 -0.000000,
        0.525505 0.000525 -0.000000,
        0.575980 0.032797 -0.039370,
        0.575980 -0.029791 -0.039370,
        0.570443 0.032797 -0.039370,
        0.558268 0.032426 -0.039370,
        0.546247 0.030589 -0.039370,
        0.537538 0.026392 -0.039370,
        0.528953 0.016250 -0.039370,
        0.525505 0.000525 -0.039370,
        0.526752 -0.009278 -0.039370,
        0.533183 -0.020805 -0.039370,
        0.544433 -0.027788 -0.039370,
        0.555615 -0.029472 -0.039370,
        0.566941 -0.029791 -0.039370,
        0.641596 -0.037867 -0.000000,
        0.641596 0.040873 -0.000000,
        0.597179 0.040873 -0.000000,
        0.597179 0.032797 -0.000000,
        0.634530 0.032797 -0.000000,
        0.634530 0.008569 -0.000000,
        0.597179 0.008569 -0.000000,
        0.597179 0.000494 -0.000000,
        0.634530 0.000494 -0.000000,
        0.634530 -0.029791 -0.000000,
        0.597179 -0.029791 -0.000000,
        0.597179 -0.037867 -0.000000,
        0.657748 0.026425 -0.000000,
        0.660226 0.029511 -0.000000,
        0.664823 0.033861 -0.000000,
        0.672887 0.038847 -0.000000,
        0.692102 0.042892 -0.000000,
        0.663931 0.021693 -0.000000,
        0.692544 0.034816 -0.000000,
        0.689287 0.034692 -0.000000,
        0.684126 0.033974 -0.000000,
        0.676695 0.031574 -0.000000,
        0.727403 0.001424 -0.000000,
        0.727276 0.004598 -0.000000,
        0.722196 0.019502 -0.000000,
        0.710000 0.030499 -0.000000,
        0.692055 -0.031810 -0.000000,
        0.697014 -0.031552 -0.000000,
        0.712468 -0.026179 -0.000000,
        0.723325 -0.014802 -0.000000,
        0.663931 -0.018687 -0.000000,
        0.676495 -0.028474 -0.000000,
        0.657748 -0.023371 -0.000000,
        0.692008 -0.039886 -0.000000,
        0.688061 -0.039742 -0.000000,
        0.681809 -0.038839 -0.000000,
        0.672850 -0.035797 -0.000000,
        0.709843 -0.036684 -0.000000,
        0.717505 -0.032497 -0.000000,
        0.721989 -0.028773 -0.000000,
        0.724485 -0.026116 -0.000000,
        0.734469 0.001961 -0.000000,
        0.732071 -0.013010 -0.000000,
        0.695584 0.042769 -0.000000,
        0.715931 0.036275 -0.000000,
        0.729399 0.022078 -0.000000,
        0.780906 -0.037867 -0.000000,
        0.780906 0.040873 -0.000000,
        0.773839 0.040873 -0.000000,
        0.773839 -0.029791 -0.000000,
        0.743555 -0.029791 -0.000000,
        0.743555 -0.037867 -0.000000,
        -0.746596 -0.658500 0.850394,
        -0.746596 0.658500 0.850394,
        -0.668825 -0.658500 0.850394,
        -0.668825 0.658500 0.850394,
      ]
    }
    coordIndex [
      98, 99, 100, -1,
      101, 102, 103, -1,
      103, 102, 104, -1,
      103, 104, 105, -1,
      100, 92, 93, -1,
      106, 107, 108, -1,
      108, 107, 109, -1,
      108, 109, 110, -1,
      108, 98, 106, -1,
      106, 98, 100, -1,
      106, 100, 111, -1,
      111, 100, 93, -1,
      111, 93, 94, -1,
      104, 112, 105, -1,
      105, 112, 113, -1,
      105, 113, 114, -1,
      114, 113, 110, -1,
      114, 110, 115, -1,
      115, 110, 109, -1,
      116, 117, 118, -1,
      119, 120, 116, -1,
      121, 122, 123, -1,
      124, 119, 125, -1,
      125, 119, 116, -1,
      125, 116, 126, -1,
      126, 116, 118, -1,
      125, 127, 124, -1,
      124, 127, 128, -1,
      124, 128, 129, -1,
      121, 130, 122, -1,
      122, 130, 131, -1,
      122, 131, 132, -1,
      132, 131, 129, -1,
      132, 129, 133, -1,
      133, 129, 128, -1,
      123, 95, 121, -1,
      121, 95, 90, -1,
      121, 90, 91, -1,
      111, 94, 123, -1,
      123, 94, 95, -1,
      111, 123, 106, -1,
      106, 123, 122, -1,
      106, 122, 107, -1,
      107, 122, 132, -1,
      107, 132, 109, -1,
      109, 132, 133, -1,
      115, 109, 128, -1,
      128, 109, 133, -1,
      115, 128, 114, -1,
      114, 128, 127, -1,
      114, 127, 105, -1,
      105, 127, 125, -1,
      105, 125, 103, -1,
      103, 125, 126, -1,
      101, 103, 118, -1,
      118, 103, 126, -1,
      102, 101, 117, -1,
      117, 101, 118, -1,
      104, 102, 116, -1,
      116, 102, 117, -1,
      104, 116, 120, -1,
      104, 120, 112, -1,
      112, 120, 119, -1,
      112, 119, 113, -1,
      113, 119, 124, -1,
      113, 124, 110, -1,
      108, 110, 129, -1,
      129, 110, 124, -1,
      108, 129, 131, -1,
      108, 131, 98, -1,
      98, 131, 130, -1,
      98, 130, 99, -1,
      99, 130, 121, -1,
      99, 121, 100, -1,
      92, 100, 91, -1,
      91, 100, 121, -1,
      134, 135, 136, -1,
      136, 135, 137, -1,
      136, 137, 138, -1,
      138, 137, 139, -1,
      138, 139, 140, -1,
      140, 139, 141, -1,
      89, 140, 88, -1,
      88, 140, 141, -1,
      142, 85, 143, -1,
      143, 85, 86, -1,
      142, 143, 144, -1,
      142, 144, 145, -1,
      145, 144, 146, -1,
      145, 146, 147, -1,
      147, 146, 148, -1,
      147, 148, 149, -1,
      150, 149, 151, -1,
      151, 149, 148, -1,
      150, 151, 152, -1,
      153, 59, 58, -1,
      150, 152, 154, -1,
      154, 152, 153, -1,
      154, 153, 155, -1,
      155, 153, 58, -1,
      155, 58, 57, -1,
      60, 156, 61, -1,
      61, 156, 157, -1,
      61, 157, 75, -1,
      158, 157, 159, -1,
      159, 157, 156, -1,
      158, 159, 160, -1,
      160, 159, 161, -1,
      160, 161, 162, -1,
      162, 161, 163, -1,
      162, 163, 164, -1,
      164, 163, 165, -1,
      134, 164, 135, -1,
      135, 164, 165, -1,
      154, 155, 57, -1,
      142, 138, 140, -1,
      150, 154, 160, -1,
      160, 154, 57, -1,
      160, 57, 158, -1,
      158, 57, 8, -1,
      158, 8, 157, -1,
      157, 8, 75, -1,
      140, 89, 142, -1,
      142, 89, 84, -1,
      142, 84, 85, -1,
      160, 162, 150, -1,
      150, 162, 164, -1,
      150, 164, 149, -1,
      142, 145, 138, -1,
      138, 145, 147, -1,
      138, 147, 136, -1,
      136, 147, 149, -1,
      136, 149, 134, -1,
      134, 149, 164, -1,
      143, 86, 87, -1,
      146, 144, 143, -1,
      59, 161, 159, -1,
      148, 146, 139, -1,
      139, 146, 143, -1,
      139, 143, 141, -1,
      141, 143, 87, -1,
      141, 87, 88, -1,
      59, 159, 54, -1,
      54, 159, 156, -1,
      54, 156, 60, -1,
      139, 137, 148, -1,
      148, 137, 135, -1,
      148, 135, 151, -1,
      59, 153, 161, -1,
      161, 153, 152, -1,
      161, 152, 163, -1,
      163, 152, 151, -1,
      163, 151, 165, -1,
      165, 151, 135, -1,
      166, 167, 70, -1,
      70, 167, 76, -1,
      167, 168, 76, -1,
      76, 168, 77, -1,
      168, 169, 77, -1,
      77, 169, 65, -1,
      169, 170, 65, -1,
      65, 170, 66, -1,
      170, 171, 66, -1,
      66, 171, 67, -1,
      171, 172, 67, -1,
      67, 172, 63, -1,
      172, 173, 63, -1,
      63, 173, 64, -1,
      173, 166, 64, -1,
      64, 166, 70, -1,
      174, 168, 167, -1,
      166, 175, 167, -1,
      167, 175, 176, -1,
      167, 176, 174, -1,
      173, 172, 171, -1,
      169, 168, 170, -1,
      170, 168, 174, -1,
      170, 174, 171, -1,
      171, 174, 175, -1,
      171, 175, 173, -1,
      173, 175, 166, -1,
      174, 176, 177, -1,
      177, 176, 178, -1,
      175, 174, 179, -1,
      179, 174, 177, -1,
      176, 175, 178, -1,
      178, 175, 179, -1,
      180, 181, 73, -1,
      73, 181, 81, -1,
      181, 182, 81, -1,
      81, 182, 82, -1,
      182, 183, 82, -1,
      82, 183, 83, -1,
      184, 68, 74, -1,
      184, 74, 185, -1,
      185, 74, 83, -1,
      185, 83, 183, -1,
      186, 79, 78, -1,
      186, 78, 187, -1,
      187, 78, 69, -1,
      187, 69, 188, -1,
      188, 69, 68, -1,
      188, 68, 184, -1,
      180, 73, 72, -1,
      180, 72, 189, -1,
      189, 72, 71, -1,
      189, 71, 190, -1,
      190, 71, 80, -1,
      190, 80, 191, -1,
      191, 80, 79, -1,
      191, 79, 186, -1,
      192, 193, 190, -1,
      190, 193, 194, -1,
      190, 194, 189, -1,
      189, 194, 195, -1,
      189, 195, 180, -1,
      180, 195, 196, -1,
      180, 196, 181, -1,
      181, 196, 197, -1,
      181, 197, 182, -1,
      182, 197, 198, -1,
      182, 198, 183, -1,
      183, 198, 199, -1,
      183, 199, 185, -1,
      185, 199, 200, -1,
      185, 200, 184, -1,
      184, 200, 201, -1,
      184, 201, 188, -1,
      188, 201, 202, -1,
      188, 202, 187, -1,
      187, 202, 203, -1,
      187, 203, 186, -1,
      186, 203, 204, -1,
      186, 204, 191, -1,
      191, 204, 192, -1,
      191, 192, 190, -1,
      198, 197, 205, -1,
      205, 197, 206, -1,
      199, 198, 207, -1,
      207, 198, 205, -1,
      199, 207, 208, -1,
      199, 208, 200, -1,
      200, 208, 209, -1,
      200, 209, 201, -1,
      201, 209, 210, -1,
      201, 210, 202, -1,
      202, 210, 211, -1,
      202, 211, 203, -1,
      203, 211, 212, -1,
      203, 212, 204, -1,
      204, 212, 213, -1,
      204, 213, 192, -1,
      192, 213, 214, -1,
      192, 214, 193, -1,
      193, 214, 215, -1,
      193, 215, 194, -1,
      194, 215, 216, -1,
      194, 216, 195, -1,
      195, 216, 217, -1,
      195, 217, 196, -1,
      197, 196, 206, -1,
      206, 196, 217, -1,
      218, 219, 26, -1,
      26, 219, 9, -1,
      219, 220, 9, -1,
      9, 220, 7, -1,
      220, 221, 7, -1,
      7, 221, 2, -1,
      221, 222, 2, -1,
      2, 222, 3, -1,
      222, 223, 3, -1,
      3, 223, 4, -1,
      223, 224, 4, -1,
      4, 224, 5, -1,
      224, 225, 5, -1,
      5, 225, 6, -1,
      225, 226, 6, -1,
      6, 226, 22, -1,
      226, 227, 22, -1,
      22, 227, 23, -1,
      227, 228, 23, -1,
      23, 228, 24, -1,
      228, 229, 24, -1,
      24, 229, 25, -1,
      229, 218, 25, -1,
      25, 218, 26, -1,
      218, 229, 228, -1,
      228, 227, 218, -1,
      218, 227, 226, -1,
      218, 226, 219, -1,
      221, 220, 222, -1,
      222, 220, 219, -1,
      222, 219, 223, -1,
      223, 219, 226, -1,
      223, 226, 224, -1,
      224, 226, 225, -1,
      230, 39, 51, -1,
      230, 51, 231, -1,
      231, 51, 49, -1,
      231, 49, 232, -1,
      232, 49, 48, -1,
      232, 48, 233, -1,
      233, 48, 47, -1,
      233, 47, 234, -1,
      230, 235, 39, -1,
      39, 235, 41, -1,
      236, 29, 46, -1,
      236, 46, 237, -1,
      237, 46, 45, -1,
      237, 45, 238, -1,
      238, 45, 43, -1,
      238, 43, 239, -1,
      239, 43, 41, -1,
      239, 41, 235, -1,
      240, 31, 30, -1,
      240, 30, 241, -1,
      241, 30, 28, -1,
      241, 28, 242, -1,
      242, 28, 27, -1,
      242, 27, 243, -1,
      243, 27, 29, -1,
      243, 29, 236, -1,
      244, 44, 34, -1,
      244, 34, 245, -1,
      245, 34, 33, -1,
      245, 33, 246, -1,
      246, 33, 32, -1,
      246, 32, 247, -1,
      247, 32, 31, -1,
      247, 31, 240, -1,
      248, 40, 42, -1,
      248, 42, 249, -1,
      249, 42, 44, -1,
      249, 44, 244, -1,
      248, 250, 40, -1,
      40, 250, 38, -1,
      251, 55, 53, -1,
      251, 53, 252, -1,
      252, 53, 52, -1,
      252, 52, 253, -1,
      52, 62, 253, -1,
      253, 62, 50, -1,
      253, 50, 254, -1,
      254, 50, 38, -1,
      254, 38, 250, -1,
      55, 251, 11, -1,
      11, 251, 255, -1,
      11, 255, 13, -1,
      13, 255, 256, -1,
      13, 256, 14, -1,
      14, 256, 257, -1,
      14, 257, 15, -1,
      15, 257, 258, -1,
      15, 258, 16, -1,
      259, 19, 18, -1,
      259, 18, 260, -1,
      260, 18, 16, -1,
      260, 16, 258, -1,
      234, 47, 37, -1,
      234, 37, 261, -1,
      261, 37, 36, -1,
      261, 36, 262, -1,
      262, 36, 35, -1,
      262, 35, 263, -1,
      263, 35, 19, -1,
      263, 19, 259, -1,
      250, 248, 254, -1,
      254, 248, 249, -1,
      259, 260, 247, -1,
      247, 260, 246, -1,
      246, 260, 258, -1,
      246, 258, 257, -1,
      235, 230, 231, -1,
      235, 231, 239, -1,
      239, 231, 232, -1,
      239, 232, 233, -1,
      257, 256, 246, -1,
      246, 256, 255, -1,
      246, 255, 245, -1,
      245, 255, 251, -1,
      245, 251, 244, -1,
      244, 251, 252, -1,
      244, 252, 249, -1,
      249, 252, 253, -1,
      249, 253, 254, -1,
      247, 240, 259, -1,
      259, 240, 241, -1,
      259, 241, 263, -1,
      263, 241, 242, -1,
      263, 242, 262, -1,
      262, 242, 243, -1,
      262, 243, 261, -1,
      261, 243, 236, -1,
      261, 236, 234, -1,
      234, 236, 237, -1,
      234, 237, 233, -1,
      233, 237, 238, -1,
      233, 238, 239, -1,
      264, 265, 10, -1,
      10, 265, 56, -1,
      265, 266, 56, -1,
      56, 266, 21, -1,
      266, 267, 21, -1,
      21, 267, 20, -1,
      267, 268, 20, -1,
      20, 268, 17, -1,
      268, 269, 17, -1,
      17, 269, 12, -1,
      269, 264, 12, -1,
      12, 264, 10, -1,
      266, 265, 267, -1,
      267, 265, 264, -1,
      267, 264, 268, -1,
      268, 264, 269, -1,
      178, 179, 177, -1,
      205, 206, 207, -1,
      207, 206, 217, -1,
      207, 217, 208, -1,
      208, 217, 216, -1,
      208, 216, 209, -1,
      215, 214, 216, -1,
      216, 214, 213, -1,
      216, 213, 212, -1,
      212, 211, 216, -1,
      216, 211, 210, -1,
      216, 210, 209, -1,
      270, 271, 1, -1,
      1, 271, 0, -1,
      272, 270, 96, -1,
      96, 270, 1, -1,
      273, 272, 97, -1,
      97, 272, 96, -1,
      271, 273, 0, -1,
      0, 273, 97, -1,
      272, 273, 270, -1,
      270, 273, 271, -1,
    ]
  }
}
